<?xml version="1.0" encoding="utf-8" standalone="no"?>
<!DOCTYPE svg PUBLIC "-//W3C//DTD SVG 1.1//EN"
  "http://www.w3.org/Graphics/SVG/1.1/DTD/svg11.dtd">
<svg xmlns:xlink="http://www.w3.org/1999/xlink" width="489.6pt" height="324pt" viewBox="0 0 489.6 324" xmlns="http://www.w3.org/2000/svg" version="1.1">
 <metadata>
  <rdf:RDF xmlns:dc="http://purl.org/dc/elements/1.1/" xmlns:cc="http://creativecommons.org/ns#" xmlns:rdf="http://www.w3.org/1999/02/22-rdf-syntax-ns#">
   <cc:Work>
    <dc:type rdf:resource="http://purl.org/dc/dcmitype/StillImage"/>
    <dc:date>2025-09-24T20:18:11.981505</dc:date>
    <dc:format>image/svg+xml</dc:format>
    <dc:creator>
     <cc:Agent>
      <dc:title>Matplotlib v3.5.1, https://matplotlib.org/</dc:title>
     </cc:Agent>
    </dc:creator>
   </cc:Work>
  </rdf:RDF>
 </metadata>
 <defs>
  <style type="text/css">*{stroke-linejoin: round; stroke-linecap: butt}</style>
 </defs>
 <g id="figure_1">
  <g id="patch_1">
   <path d="M 0 324 
L 489.6 324 
L 489.6 0 
L 0 0 
z
" style="fill: #ffffff"/>
  </g>
  <g id="axes_1">
   <g id="patch_2">
    <path d="M 55.86625 281.86 
L 478.8 281.86 
L 478.8 10.8 
L 55.86625 10.8 
z
" style="fill: #ffffff"/>
   </g>
   <g id="PathCollection_1">
    <defs>
     <path id="m2f8568736c" d="M 0 1.118034 
C 0.296506 1.118034 0.580908 1.000231 0.790569 0.790569 
C 1.000231 0.580908 1.118034 0.296506 1.118034 0 
C 1.118034 -0.296506 1.000231 -0.580908 0.790569 -0.790569 
C 0.580908 -1.000231 0.296506 -1.118034 0 -1.118034 
C -0.296506 -1.118034 -0.580908 -1.000231 -0.790569 -0.790569 
C -1.000231 -0.580908 -1.118034 -0.296506 -1.118034 0 
C -1.118034 0.296506 -1.000231 0.580908 -0.790569 0.790569 
C -0.580908 1.000231 -0.296506 1.118034 0 1.118034 
z
" style="stroke: #463480; stroke-opacity: 0.5"/>
    </defs>
    <g clip-path="url(#p5de5f2c8b9)">
     <use xlink:href="#m2f8568736c" x="75.090511" y="23.120909" style="fill: #463480; fill-opacity: 0.5; stroke: #463480; stroke-opacity: 0.5"/>
     <use xlink:href="#m2f8568736c" x="113.732243" y="169.500207" style="fill: #463480; fill-opacity: 0.5; stroke: #463480; stroke-opacity: 0.5"/>
     <use xlink:href="#m2f8568736c" x="152.373974" y="165.845141" style="fill: #463480; fill-opacity: 0.5; stroke: #463480; stroke-opacity: 0.5"/>
     <use xlink:href="#m2f8568736c" x="191.015706" y="169.173435" style="fill: #463480; fill-opacity: 0.5; stroke: #463480; stroke-opacity: 0.5"/>
     <use xlink:href="#m2f8568736c" x="229.657437" y="158.331291" style="fill: #463480; fill-opacity: 0.5; stroke: #463480; stroke-opacity: 0.5"/>
     <use xlink:href="#m2f8568736c" x="268.299168" y="160.560351" style="fill: #463480; fill-opacity: 0.5; stroke: #463480; stroke-opacity: 0.5"/>
     <use xlink:href="#m2f8568736c" x="306.9409" y="163.566631" style="fill: #463480; fill-opacity: 0.5; stroke: #463480; stroke-opacity: 0.5"/>
     <use xlink:href="#m2f8568736c" x="345.582631" y="151.337629" style="fill: #463480; fill-opacity: 0.5; stroke: #463480; stroke-opacity: 0.5"/>
     <use xlink:href="#m2f8568736c" x="384.224362" y="152.256169" style="fill: #463480; fill-opacity: 0.5; stroke: #463480; stroke-opacity: 0.5"/>
     <use xlink:href="#m2f8568736c" x="422.866094" y="178.289178" style="fill: #463480; fill-opacity: 0.5; stroke: #463480; stroke-opacity: 0.5"/>
    </g>
   </g>
   <g id="PathCollection_2">
    <defs>
     <path id="mc2f74728bf" d="M 0 1.118034 
C 0.296506 1.118034 0.580908 1.000231 0.790569 0.790569 
C 1.000231 0.580908 1.118034 0.296506 1.118034 0 
C 1.118034 -0.296506 1.000231 -0.580908 0.790569 -0.790569 
C 0.580908 -1.000231 0.296506 -1.118034 0 -1.118034 
C -0.296506 -1.118034 -0.580908 -1.000231 -0.790569 -0.790569 
C -1.000231 -0.580908 -1.118034 -0.296506 -1.118034 0 
C -1.118034 0.296506 -1.000231 0.580908 -0.790569 0.790569 
C -0.580908 1.000231 -0.296506 1.118034 0 1.118034 
z
" style="stroke: #355f8d; stroke-opacity: 0.5"/>
    </defs>
    <g clip-path="url(#p5de5f2c8b9)">
     <use xlink:href="#mc2f74728bf" x="75.090511" y="102.00113" style="fill: #355f8d; fill-opacity: 0.5; stroke: #355f8d; stroke-opacity: 0.5"/>
     <use xlink:href="#mc2f74728bf" x="113.732243" y="188.773921" style="fill: #355f8d; fill-opacity: 0.5; stroke: #355f8d; stroke-opacity: 0.5"/>
     <use xlink:href="#mc2f74728bf" x="152.373974" y="164.677871" style="fill: #355f8d; fill-opacity: 0.5; stroke: #355f8d; stroke-opacity: 0.5"/>
     <use xlink:href="#mc2f74728bf" x="191.015706" y="160.090338" style="fill: #355f8d; fill-opacity: 0.5; stroke: #355f8d; stroke-opacity: 0.5"/>
     <use xlink:href="#mc2f74728bf" x="229.657437" y="165.712497" style="fill: #355f8d; fill-opacity: 0.5; stroke: #355f8d; stroke-opacity: 0.5"/>
     <use xlink:href="#mc2f74728bf" x="268.299168" y="164.447164" style="fill: #355f8d; fill-opacity: 0.5; stroke: #355f8d; stroke-opacity: 0.5"/>
     <use xlink:href="#mc2f74728bf" x="306.9409" y="169.598672" style="fill: #355f8d; fill-opacity: 0.5; stroke: #355f8d; stroke-opacity: 0.5"/>
     <use xlink:href="#mc2f74728bf" x="345.582631" y="178.36408" style="fill: #355f8d; fill-opacity: 0.5; stroke: #355f8d; stroke-opacity: 0.5"/>
     <use xlink:href="#mc2f74728bf" x="384.224362" y="166.068009" style="fill: #355f8d; fill-opacity: 0.5; stroke: #355f8d; stroke-opacity: 0.5"/>
     <use xlink:href="#mc2f74728bf" x="422.866094" y="158.990727" style="fill: #355f8d; fill-opacity: 0.5; stroke: #355f8d; stroke-opacity: 0.5"/>
    </g>
   </g>
   <g id="PathCollection_3">
    <defs>
     <path id="mfb757e471c" d="M 0 1.118034 
C 0.296506 1.118034 0.580908 1.000231 0.790569 0.790569 
C 1.000231 0.580908 1.118034 0.296506 1.118034 0 
C 1.118034 -0.296506 1.000231 -0.580908 0.790569 -0.790569 
C 0.580908 -1.000231 0.296506 -1.118034 0 -1.118034 
C -0.296506 -1.118034 -0.580908 -1.000231 -0.790569 -0.790569 
C -1.000231 -0.580908 -1.118034 -0.296506 -1.118034 0 
C -1.118034 0.296506 -1.000231 0.580908 -0.790569 0.790569 
C -0.580908 1.000231 -0.296506 1.118034 0 1.118034 
z
" style="stroke: #25848e; stroke-opacity: 0.5"/>
    </defs>
    <g clip-path="url(#p5de5f2c8b9)">
     <use xlink:href="#mfb757e471c" x="75.090511" y="147.146065" style="fill: #25848e; fill-opacity: 0.5; stroke: #25848e; stroke-opacity: 0.5"/>
     <use xlink:href="#mfb757e471c" x="113.732243" y="185.113684" style="fill: #25848e; fill-opacity: 0.5; stroke: #25848e; stroke-opacity: 0.5"/>
     <use xlink:href="#mfb757e471c" x="152.373974" y="158.951325" style="fill: #25848e; fill-opacity: 0.5; stroke: #25848e; stroke-opacity: 0.5"/>
     <use xlink:href="#mfb757e471c" x="191.015706" y="171.51591" style="fill: #25848e; fill-opacity: 0.5; stroke: #25848e; stroke-opacity: 0.5"/>
     <use xlink:href="#mfb757e471c" x="229.657437" y="161.104172" style="fill: #25848e; fill-opacity: 0.5; stroke: #25848e; stroke-opacity: 0.5"/>
     <use xlink:href="#mfb757e471c" x="268.299168" y="163.343166" style="fill: #25848e; fill-opacity: 0.5; stroke: #25848e; stroke-opacity: 0.5"/>
     <use xlink:href="#mfb757e471c" x="306.9409" y="166.323909" style="fill: #25848e; fill-opacity: 0.5; stroke: #25848e; stroke-opacity: 0.5"/>
     <use xlink:href="#mfb757e471c" x="345.582631" y="170.886051" style="fill: #25848e; fill-opacity: 0.5; stroke: #25848e; stroke-opacity: 0.5"/>
     <use xlink:href="#mfb757e471c" x="384.224362" y="162.783978" style="fill: #25848e; fill-opacity: 0.5; stroke: #25848e; stroke-opacity: 0.5"/>
     <use xlink:href="#mfb757e471c" x="422.866094" y="154.491426" style="fill: #25848e; fill-opacity: 0.5; stroke: #25848e; stroke-opacity: 0.5"/>
    </g>
   </g>
   <g id="PathCollection_4">
    <defs>
     <path id="m73262cd918" d="M 0 1.118034 
C 0.296506 1.118034 0.580908 1.000231 0.790569 0.790569 
C 1.000231 0.580908 1.118034 0.296506 1.118034 0 
C 1.118034 -0.296506 1.000231 -0.580908 0.790569 -0.790569 
C 0.580908 -1.000231 0.296506 -1.118034 0 -1.118034 
C -0.296506 -1.118034 -0.580908 -1.000231 -0.790569 -0.790569 
C -1.000231 -0.580908 -1.118034 -0.296506 -1.118034 0 
C -1.118034 0.296506 -1.000231 0.580908 -0.790569 0.790569 
C -0.580908 1.000231 -0.296506 1.118034 0 1.118034 
z
" style="stroke: #22a884; stroke-opacity: 0.5"/>
    </defs>
    <g clip-path="url(#p5de5f2c8b9)">
     <use xlink:href="#m73262cd918" x="75.090511" y="187.545216" style="fill: #22a884; fill-opacity: 0.5; stroke: #22a884; stroke-opacity: 0.5"/>
     <use xlink:href="#m73262cd918" x="113.732243" y="160.385362" style="fill: #22a884; fill-opacity: 0.5; stroke: #22a884; stroke-opacity: 0.5"/>
     <use xlink:href="#m73262cd918" x="152.373974" y="172.763397" style="fill: #22a884; fill-opacity: 0.5; stroke: #22a884; stroke-opacity: 0.5"/>
     <use xlink:href="#m73262cd918" x="191.015706" y="161.942325" style="fill: #22a884; fill-opacity: 0.5; stroke: #22a884; stroke-opacity: 0.5"/>
     <use xlink:href="#m73262cd918" x="229.657437" y="178.619398" style="fill: #22a884; fill-opacity: 0.5; stroke: #22a884; stroke-opacity: 0.5"/>
     <use xlink:href="#m73262cd918" x="268.299168" y="159.223559" style="fill: #22a884; fill-opacity: 0.5; stroke: #22a884; stroke-opacity: 0.5"/>
     <use xlink:href="#m73262cd918" x="306.9409" y="163.06943" style="fill: #22a884; fill-opacity: 0.5; stroke: #22a884; stroke-opacity: 0.5"/>
     <use xlink:href="#m73262cd918" x="345.582631" y="165.651884" style="fill: #22a884; fill-opacity: 0.5; stroke: #22a884; stroke-opacity: 0.5"/>
     <use xlink:href="#m73262cd918" x="384.224362" y="167.940557" style="fill: #22a884; fill-opacity: 0.5; stroke: #22a884; stroke-opacity: 0.5"/>
     <use xlink:href="#m73262cd918" x="422.866094" y="164.00762" style="fill: #22a884; fill-opacity: 0.5; stroke: #22a884; stroke-opacity: 0.5"/>
    </g>
   </g>
   <g id="PathCollection_5">
    <defs>
     <path id="m32f08f8db4" d="M 0 1.118034 
C 0.296506 1.118034 0.580908 1.000231 0.790569 0.790569 
C 1.000231 0.580908 1.118034 0.296506 1.118034 0 
C 1.118034 -0.296506 1.000231 -0.580908 0.790569 -0.790569 
C 0.580908 -1.000231 0.296506 -1.118034 0 -1.118034 
C -0.296506 -1.118034 -0.580908 -1.000231 -0.790569 -0.790569 
C -1.000231 -0.580908 -1.118034 -0.296506 -1.118034 0 
C -1.118034 0.296506 -1.000231 0.580908 -0.790569 0.790569 
C -0.580908 1.000231 -0.296506 1.118034 0 1.118034 
z
" style="stroke: #5ec962; stroke-opacity: 0.5"/>
    </defs>
    <g clip-path="url(#p5de5f2c8b9)">
     <use xlink:href="#m32f08f8db4" x="75.090511" y="189.687459" style="fill: #5ec962; fill-opacity: 0.5; stroke: #5ec962; stroke-opacity: 0.5"/>
     <use xlink:href="#m32f08f8db4" x="113.732243" y="159.076758" style="fill: #5ec962; fill-opacity: 0.5; stroke: #5ec962; stroke-opacity: 0.5"/>
     <use xlink:href="#m32f08f8db4" x="152.373974" y="180.300519" style="fill: #5ec962; fill-opacity: 0.5; stroke: #5ec962; stroke-opacity: 0.5"/>
     <use xlink:href="#m32f08f8db4" x="191.015706" y="173.979601" style="fill: #5ec962; fill-opacity: 0.5; stroke: #5ec962; stroke-opacity: 0.5"/>
     <use xlink:href="#m32f08f8db4" x="229.657437" y="171.491667" style="fill: #5ec962; fill-opacity: 0.5; stroke: #5ec962; stroke-opacity: 0.5"/>
     <use xlink:href="#m32f08f8db4" x="268.299168" y="160.978419" style="fill: #5ec962; fill-opacity: 0.5; stroke: #5ec962; stroke-opacity: 0.5"/>
     <use xlink:href="#m32f08f8db4" x="306.9409" y="158.681392" style="fill: #5ec962; fill-opacity: 0.5; stroke: #5ec962; stroke-opacity: 0.5"/>
     <use xlink:href="#m32f08f8db4" x="345.582631" y="166.436422" style="fill: #5ec962; fill-opacity: 0.5; stroke: #5ec962; stroke-opacity: 0.5"/>
     <use xlink:href="#m32f08f8db4" x="384.224362" y="161.533536" style="fill: #5ec962; fill-opacity: 0.5; stroke: #5ec962; stroke-opacity: 0.5"/>
     <use xlink:href="#m32f08f8db4" x="422.866094" y="159.105813" style="fill: #5ec962; fill-opacity: 0.5; stroke: #5ec962; stroke-opacity: 0.5"/>
    </g>
   </g>
   <g id="PathCollection_6">
    <defs>
     <path id="m8eb43783e7" d="M 0 1.118034 
C 0.296506 1.118034 0.580908 1.000231 0.790569 0.790569 
C 1.000231 0.580908 1.118034 0.296506 1.118034 0 
C 1.118034 -0.296506 1.000231 -0.580908 0.790569 -0.790569 
C 0.580908 -1.000231 0.296506 -1.118034 0 -1.118034 
C -0.296506 -1.118034 -0.580908 -1.000231 -0.790569 -0.790569 
C -1.000231 -0.580908 -1.118034 -0.296506 -1.118034 0 
C -1.118034 0.296506 -1.000231 0.580908 -0.790569 0.790569 
C -0.580908 1.000231 -0.296506 1.118034 0 1.118034 
z
" style="stroke: #bddf26; stroke-opacity: 0.5"/>
    </defs>
    <g clip-path="url(#p5de5f2c8b9)">
     <use xlink:href="#m8eb43783e7" x="75.090511" y="195.303552" style="fill: #bddf26; fill-opacity: 0.5; stroke: #bddf26; stroke-opacity: 0.5"/>
     <use xlink:href="#m8eb43783e7" x="113.732243" y="107.237089" style="fill: #bddf26; fill-opacity: 0.5; stroke: #bddf26; stroke-opacity: 0.5"/>
     <use xlink:href="#m8eb43783e7" x="152.373974" y="176.63126" style="fill: #bddf26; fill-opacity: 0.5; stroke: #bddf26; stroke-opacity: 0.5"/>
     <use xlink:href="#m8eb43783e7" x="191.015706" y="171.313416" style="fill: #bddf26; fill-opacity: 0.5; stroke: #bddf26; stroke-opacity: 0.5"/>
     <use xlink:href="#m8eb43783e7" x="229.657437" y="162.375741" style="fill: #bddf26; fill-opacity: 0.5; stroke: #bddf26; stroke-opacity: 0.5"/>
     <use xlink:href="#m8eb43783e7" x="268.299168" y="172.901822" style="fill: #bddf26; fill-opacity: 0.5; stroke: #bddf26; stroke-opacity: 0.5"/>
     <use xlink:href="#m8eb43783e7" x="306.9409" y="165.283995" style="fill: #bddf26; fill-opacity: 0.5; stroke: #bddf26; stroke-opacity: 0.5"/>
     <use xlink:href="#m8eb43783e7" x="345.582631" y="159.917762" style="fill: #bddf26; fill-opacity: 0.5; stroke: #bddf26; stroke-opacity: 0.5"/>
     <use xlink:href="#m8eb43783e7" x="384.224362" y="175.518155" style="fill: #bddf26; fill-opacity: 0.5; stroke: #bddf26; stroke-opacity: 0.5"/>
     <use xlink:href="#m8eb43783e7" x="422.866094" y="160.541309" style="fill: #bddf26; fill-opacity: 0.5; stroke: #bddf26; stroke-opacity: 0.5"/>
    </g>
   </g>
   <g id="matplotlib.axis_1">
    <g id="xtick_1">
     <g id="line2d_1">
      <path d="M 75.090511 281.86 
L 75.090511 10.8 
" clip-path="url(#p5de5f2c8b9)" style="fill: none; stroke-dasharray: 2.96,1.28; stroke-dashoffset: 0; stroke: #b0b0b0; stroke-opacity: 0.25; stroke-width: 0.8"/>
     </g>
     <g id="line2d_2">
      <defs>
       <path id="m19150e689a" d="M 0 0 
L 0 3.5 
" style="stroke: #000000; stroke-width: 0.8"/>
      </defs>
      <g>
       <use xlink:href="#m19150e689a" x="75.090511" y="281.86" style="stroke: #000000; stroke-width: 0.8"/>
      </g>
     </g>
     <g id="text_1">
      <!-- 0 -->
      <g transform="translate(72.590511 295.80375)scale(0.1 -0.1)">
       <defs>
        <path id="TimesNewRomanPSMT-30" d="M 231 2094 
Q 231 2819 450 3342 
Q 669 3866 1031 4122 
Q 1313 4325 1613 4325 
Q 2100 4325 2488 3828 
Q 2972 3213 2972 2159 
Q 2972 1422 2759 906 
Q 2547 391 2217 158 
Q 1888 -75 1581 -75 
Q 975 -75 572 641 
Q 231 1244 231 2094 
z
M 844 2016 
Q 844 1141 1059 588 
Q 1238 122 1591 122 
Q 1759 122 1940 273 
Q 2122 425 2216 781 
Q 2359 1319 2359 2297 
Q 2359 3022 2209 3506 
Q 2097 3866 1919 4016 
Q 1791 4119 1609 4119 
Q 1397 4119 1231 3928 
Q 1006 3669 925 3112 
Q 844 2556 844 2016 
z
" transform="scale(0.015625)"/>
       </defs>
       <use xlink:href="#TimesNewRomanPSMT-30"/>
      </g>
     </g>
    </g>
    <g id="xtick_2">
     <g id="line2d_3">
      <path d="M 139.171383 281.86 
L 139.171383 10.8 
" clip-path="url(#p5de5f2c8b9)" style="fill: none; stroke-dasharray: 2.96,1.28; stroke-dashoffset: 0; stroke: #b0b0b0; stroke-opacity: 0.25; stroke-width: 0.8"/>
     </g>
     <g id="line2d_4">
      <g>
       <use xlink:href="#m19150e689a" x="139.171383" y="281.86" style="stroke: #000000; stroke-width: 0.8"/>
      </g>
     </g>
     <g id="text_2">
      <!-- 5 -->
      <g transform="translate(136.671383 295.80375)scale(0.1 -0.1)">
       <defs>
        <path id="TimesNewRomanPSMT-35" d="M 2778 4238 
L 2534 3706 
L 1259 3706 
L 981 3138 
Q 1809 3016 2294 2522 
Q 2709 2097 2709 1522 
Q 2709 1188 2573 903 
Q 2438 619 2231 419 
Q 2025 219 1772 97 
Q 1413 -75 1034 -75 
Q 653 -75 479 54 
Q 306 184 306 341 
Q 306 428 378 495 
Q 450 563 559 563 
Q 641 563 702 538 
Q 763 513 909 409 
Q 1144 247 1384 247 
Q 1750 247 2026 523 
Q 2303 800 2303 1197 
Q 2303 1581 2056 1914 
Q 1809 2247 1375 2428 
Q 1034 2569 447 2591 
L 1259 4238 
L 2778 4238 
z
" transform="scale(0.015625)"/>
       </defs>
       <use xlink:href="#TimesNewRomanPSMT-35"/>
      </g>
     </g>
    </g>
    <g id="xtick_3">
     <g id="line2d_5">
      <path d="M 203.252254 281.86 
L 203.252254 10.8 
" clip-path="url(#p5de5f2c8b9)" style="fill: none; stroke-dasharray: 2.96,1.28; stroke-dashoffset: 0; stroke: #b0b0b0; stroke-opacity: 0.25; stroke-width: 0.8"/>
     </g>
     <g id="line2d_6">
      <g>
       <use xlink:href="#m19150e689a" x="203.252254" y="281.86" style="stroke: #000000; stroke-width: 0.8"/>
      </g>
     </g>
     <g id="text_3">
      <!-- 10 -->
      <g transform="translate(198.252254 295.80375)scale(0.1 -0.1)">
       <defs>
        <path id="TimesNewRomanPSMT-31" d="M 750 3822 
L 1781 4325 
L 1884 4325 
L 1884 747 
Q 1884 391 1914 303 
Q 1944 216 2037 169 
Q 2131 122 2419 116 
L 2419 0 
L 825 0 
L 825 116 
Q 1125 122 1212 167 
Q 1300 213 1334 289 
Q 1369 366 1369 747 
L 1369 3034 
Q 1369 3497 1338 3628 
Q 1316 3728 1258 3775 
Q 1200 3822 1119 3822 
Q 1003 3822 797 3725 
L 750 3822 
z
" transform="scale(0.015625)"/>
       </defs>
       <use xlink:href="#TimesNewRomanPSMT-31"/>
       <use xlink:href="#TimesNewRomanPSMT-30" x="50"/>
      </g>
     </g>
    </g>
    <g id="xtick_4">
     <g id="line2d_7">
      <path d="M 267.333125 281.86 
L 267.333125 10.8 
" clip-path="url(#p5de5f2c8b9)" style="fill: none; stroke-dasharray: 2.96,1.28; stroke-dashoffset: 0; stroke: #b0b0b0; stroke-opacity: 0.25; stroke-width: 0.8"/>
     </g>
     <g id="line2d_8">
      <g>
       <use xlink:href="#m19150e689a" x="267.333125" y="281.86" style="stroke: #000000; stroke-width: 0.8"/>
      </g>
     </g>
     <g id="text_4">
      <!-- 15 -->
      <g transform="translate(262.333125 295.80375)scale(0.1 -0.1)">
       <use xlink:href="#TimesNewRomanPSMT-31"/>
       <use xlink:href="#TimesNewRomanPSMT-35" x="50"/>
      </g>
     </g>
    </g>
    <g id="xtick_5">
     <g id="line2d_9">
      <path d="M 331.413996 281.86 
L 331.413996 10.8 
" clip-path="url(#p5de5f2c8b9)" style="fill: none; stroke-dasharray: 2.96,1.28; stroke-dashoffset: 0; stroke: #b0b0b0; stroke-opacity: 0.25; stroke-width: 0.8"/>
     </g>
     <g id="line2d_10">
      <g>
       <use xlink:href="#m19150e689a" x="331.413996" y="281.86" style="stroke: #000000; stroke-width: 0.8"/>
      </g>
     </g>
     <g id="text_5">
      <!-- 20 -->
      <g transform="translate(326.413996 295.80375)scale(0.1 -0.1)">
       <defs>
        <path id="TimesNewRomanPSMT-32" d="M 2934 816 
L 2638 0 
L 138 0 
L 138 116 
Q 1241 1122 1691 1759 
Q 2141 2397 2141 2925 
Q 2141 3328 1894 3587 
Q 1647 3847 1303 3847 
Q 991 3847 742 3664 
Q 494 3481 375 3128 
L 259 3128 
Q 338 3706 661 4015 
Q 984 4325 1469 4325 
Q 1984 4325 2329 3994 
Q 2675 3663 2675 3213 
Q 2675 2891 2525 2569 
Q 2294 2063 1775 1497 
Q 997 647 803 472 
L 1909 472 
Q 2247 472 2383 497 
Q 2519 522 2628 598 
Q 2738 675 2819 816 
L 2934 816 
z
" transform="scale(0.015625)"/>
       </defs>
       <use xlink:href="#TimesNewRomanPSMT-32"/>
       <use xlink:href="#TimesNewRomanPSMT-30" x="50"/>
      </g>
     </g>
    </g>
    <g id="xtick_6">
     <g id="line2d_11">
      <path d="M 395.494867 281.86 
L 395.494867 10.8 
" clip-path="url(#p5de5f2c8b9)" style="fill: none; stroke-dasharray: 2.96,1.28; stroke-dashoffset: 0; stroke: #b0b0b0; stroke-opacity: 0.25; stroke-width: 0.8"/>
     </g>
     <g id="line2d_12">
      <g>
       <use xlink:href="#m19150e689a" x="395.494867" y="281.86" style="stroke: #000000; stroke-width: 0.8"/>
      </g>
     </g>
     <g id="text_6">
      <!-- 25 -->
      <g transform="translate(390.494867 295.80375)scale(0.1 -0.1)">
       <use xlink:href="#TimesNewRomanPSMT-32"/>
       <use xlink:href="#TimesNewRomanPSMT-35" x="50"/>
      </g>
     </g>
    </g>
    <g id="xtick_7">
     <g id="line2d_13">
      <path d="M 459.575739 281.86 
L 459.575739 10.8 
" clip-path="url(#p5de5f2c8b9)" style="fill: none; stroke-dasharray: 2.96,1.28; stroke-dashoffset: 0; stroke: #b0b0b0; stroke-opacity: 0.25; stroke-width: 0.8"/>
     </g>
     <g id="line2d_14">
      <g>
       <use xlink:href="#m19150e689a" x="459.575739" y="281.86" style="stroke: #000000; stroke-width: 0.8"/>
      </g>
     </g>
     <g id="text_7">
      <!-- 30 -->
      <g transform="translate(454.575739 295.80375)scale(0.1 -0.1)">
       <defs>
        <path id="TimesNewRomanPSMT-33" d="M 325 3431 
Q 506 3859 782 4092 
Q 1059 4325 1472 4325 
Q 1981 4325 2253 3994 
Q 2459 3747 2459 3466 
Q 2459 3003 1878 2509 
Q 2269 2356 2469 2072 
Q 2669 1788 2669 1403 
Q 2669 853 2319 450 
Q 1863 -75 997 -75 
Q 569 -75 414 31 
Q 259 138 259 259 
Q 259 350 332 419 
Q 406 488 509 488 
Q 588 488 669 463 
Q 722 447 909 348 
Q 1097 250 1169 231 
Q 1284 197 1416 197 
Q 1734 197 1970 444 
Q 2206 691 2206 1028 
Q 2206 1275 2097 1509 
Q 2016 1684 1919 1775 
Q 1784 1900 1550 2001 
Q 1316 2103 1072 2103 
L 972 2103 
L 972 2197 
Q 1219 2228 1467 2375 
Q 1716 2522 1828 2728 
Q 1941 2934 1941 3181 
Q 1941 3503 1739 3701 
Q 1538 3900 1238 3900 
Q 753 3900 428 3381 
L 325 3431 
z
" transform="scale(0.015625)"/>
       </defs>
       <use xlink:href="#TimesNewRomanPSMT-33"/>
       <use xlink:href="#TimesNewRomanPSMT-30" x="50"/>
      </g>
     </g>
    </g>
    <g id="text_8">
     <!-- h(time steps) -->
     <g transform="translate(241.365938 308.886563)scale(0.1 -0.1)">
      <defs>
       <path id="TimesNewRomanPSMT-68" d="M 1041 4444 
L 1041 2350 
Q 1388 2731 1591 2839 
Q 1794 2947 1997 2947 
Q 2241 2947 2416 2812 
Q 2591 2678 2675 2391 
Q 2734 2191 2734 1659 
L 2734 647 
Q 2734 375 2778 275 
Q 2809 200 2884 156 
Q 2959 113 3159 113 
L 3159 0 
L 1753 0 
L 1753 113 
L 1819 113 
Q 2019 113 2097 173 
Q 2175 234 2206 353 
Q 2216 403 2216 647 
L 2216 1659 
Q 2216 2128 2167 2275 
Q 2119 2422 2012 2495 
Q 1906 2569 1756 2569 
Q 1603 2569 1437 2487 
Q 1272 2406 1041 2159 
L 1041 647 
Q 1041 353 1073 281 
Q 1106 209 1195 161 
Q 1284 113 1503 113 
L 1503 0 
L 84 0 
L 84 113 
Q 275 113 384 172 
Q 447 203 484 290 
Q 522 378 522 647 
L 522 3238 
Q 522 3728 498 3840 
Q 475 3953 426 3993 
Q 378 4034 297 4034 
Q 231 4034 84 3984 
L 41 4094 
L 897 4444 
L 1041 4444 
z
" transform="scale(0.015625)"/>
       <path id="TimesNewRomanPSMT-28" d="M 1988 -1253 
L 1988 -1369 
Q 1516 -1131 1200 -813 
Q 750 -359 506 256 
Q 263 872 263 1534 
Q 263 2503 741 3301 
Q 1219 4100 1988 4444 
L 1988 4313 
Q 1603 4100 1356 3731 
Q 1109 3363 987 2797 
Q 866 2231 866 1616 
Q 866 947 969 400 
Q 1050 -31 1165 -292 
Q 1281 -553 1476 -793 
Q 1672 -1034 1988 -1253 
z
" transform="scale(0.015625)"/>
       <path id="TimesNewRomanPSMT-74" d="M 1031 3803 
L 1031 2863 
L 1700 2863 
L 1700 2644 
L 1031 2644 
L 1031 788 
Q 1031 509 1111 412 
Q 1191 316 1316 316 
Q 1419 316 1516 380 
Q 1613 444 1666 569 
L 1788 569 
Q 1678 263 1478 108 
Q 1278 -47 1066 -47 
Q 922 -47 784 33 
Q 647 113 581 261 
Q 516 409 516 719 
L 516 2644 
L 63 2644 
L 63 2747 
Q 234 2816 414 2980 
Q 594 3144 734 3369 
Q 806 3488 934 3803 
L 1031 3803 
z
" transform="scale(0.015625)"/>
       <path id="TimesNewRomanPSMT-69" d="M 928 4444 
Q 1059 4444 1151 4351 
Q 1244 4259 1244 4128 
Q 1244 3997 1151 3903 
Q 1059 3809 928 3809 
Q 797 3809 703 3903 
Q 609 3997 609 4128 
Q 609 4259 701 4351 
Q 794 4444 928 4444 
z
M 1188 2947 
L 1188 647 
Q 1188 378 1227 289 
Q 1266 200 1342 156 
Q 1419 113 1622 113 
L 1622 0 
L 231 0 
L 231 113 
Q 441 113 512 153 
Q 584 194 626 287 
Q 669 381 669 647 
L 669 1750 
Q 669 2216 641 2353 
Q 619 2453 572 2492 
Q 525 2531 444 2531 
Q 356 2531 231 2484 
L 188 2597 
L 1050 2947 
L 1188 2947 
z
" transform="scale(0.015625)"/>
       <path id="TimesNewRomanPSMT-6d" d="M 1050 2338 
Q 1363 2650 1419 2697 
Q 1559 2816 1721 2881 
Q 1884 2947 2044 2947 
Q 2313 2947 2506 2790 
Q 2700 2634 2766 2338 
Q 3088 2713 3309 2830 
Q 3531 2947 3766 2947 
Q 3994 2947 4170 2830 
Q 4347 2713 4450 2447 
Q 4519 2266 4519 1878 
L 4519 647 
Q 4519 378 4559 278 
Q 4591 209 4675 161 
Q 4759 113 4950 113 
L 4950 0 
L 3538 0 
L 3538 113 
L 3597 113 
Q 3781 113 3884 184 
Q 3956 234 3988 344 
Q 4000 397 4000 647 
L 4000 1878 
Q 4000 2228 3916 2372 
Q 3794 2572 3525 2572 
Q 3359 2572 3192 2489 
Q 3025 2406 2788 2181 
L 2781 2147 
L 2788 2013 
L 2788 647 
Q 2788 353 2820 281 
Q 2853 209 2943 161 
Q 3034 113 3253 113 
L 3253 0 
L 1806 0 
L 1806 113 
Q 2044 113 2133 169 
Q 2222 225 2256 338 
Q 2272 391 2272 647 
L 2272 1878 
Q 2272 2228 2169 2381 
Q 2031 2581 1784 2581 
Q 1616 2581 1450 2491 
Q 1191 2353 1050 2181 
L 1050 647 
Q 1050 366 1089 281 
Q 1128 197 1204 155 
Q 1281 113 1516 113 
L 1516 0 
L 100 0 
L 100 113 
Q 297 113 375 155 
Q 453 197 493 289 
Q 534 381 534 647 
L 534 1741 
Q 534 2213 506 2350 
Q 484 2453 437 2492 
Q 391 2531 309 2531 
Q 222 2531 100 2484 
L 53 2597 
L 916 2947 
L 1050 2947 
L 1050 2338 
z
" transform="scale(0.015625)"/>
       <path id="TimesNewRomanPSMT-65" d="M 681 1784 
Q 678 1147 991 784 
Q 1303 422 1725 422 
Q 2006 422 2214 576 
Q 2422 731 2563 1106 
L 2659 1044 
Q 2594 616 2278 264 
Q 1963 -88 1488 -88 
Q 972 -88 605 314 
Q 238 716 238 1394 
Q 238 2128 614 2539 
Q 991 2950 1559 2950 
Q 2041 2950 2350 2633 
Q 2659 2316 2659 1784 
L 681 1784 
z
M 681 1966 
L 2006 1966 
Q 1991 2241 1941 2353 
Q 1863 2528 1708 2628 
Q 1553 2728 1384 2728 
Q 1125 2728 920 2526 
Q 716 2325 681 1966 
z
" transform="scale(0.015625)"/>
       <path id="TimesNewRomanPSMT-20" transform="scale(0.015625)"/>
       <path id="TimesNewRomanPSMT-73" d="M 2050 2947 
L 2050 1972 
L 1947 1972 
Q 1828 2431 1642 2597 
Q 1456 2763 1169 2763 
Q 950 2763 815 2647 
Q 681 2531 681 2391 
Q 681 2216 781 2091 
Q 878 1963 1175 1819 
L 1631 1597 
Q 2266 1288 2266 781 
Q 2266 391 1970 151 
Q 1675 -88 1309 -88 
Q 1047 -88 709 6 
Q 606 38 541 38 
Q 469 38 428 -44 
L 325 -44 
L 325 978 
L 428 978 
Q 516 541 762 319 
Q 1009 97 1316 97 
Q 1531 97 1667 223 
Q 1803 350 1803 528 
Q 1803 744 1651 891 
Q 1500 1038 1047 1263 
Q 594 1488 453 1669 
Q 313 1847 313 2119 
Q 313 2472 555 2709 
Q 797 2947 1181 2947 
Q 1350 2947 1591 2875 
Q 1750 2828 1803 2828 
Q 1853 2828 1881 2850 
Q 1909 2872 1947 2947 
L 2050 2947 
z
" transform="scale(0.015625)"/>
       <path id="TimesNewRomanPSMT-70" d="M -6 2578 
L 875 2934 
L 994 2934 
L 994 2266 
Q 1216 2644 1439 2795 
Q 1663 2947 1909 2947 
Q 2341 2947 2628 2609 
Q 2981 2197 2981 1534 
Q 2981 794 2556 309 
Q 2206 -88 1675 -88 
Q 1444 -88 1275 -22 
Q 1150 25 994 166 
L 994 -706 
Q 994 -1000 1030 -1079 
Q 1066 -1159 1155 -1206 
Q 1244 -1253 1478 -1253 
L 1478 -1369 
L -22 -1369 
L -22 -1253 
L 56 -1253 
Q 228 -1256 350 -1188 
Q 409 -1153 442 -1076 
Q 475 -1000 475 -688 
L 475 2019 
Q 475 2297 450 2372 
Q 425 2447 370 2484 
Q 316 2522 222 2522 
Q 147 2522 31 2478 
L -6 2578 
z
M 994 2081 
L 994 1013 
Q 994 666 1022 556 
Q 1066 375 1236 237 
Q 1406 100 1666 100 
Q 1978 100 2172 344 
Q 2425 663 2425 1241 
Q 2425 1897 2138 2250 
Q 1938 2494 1663 2494 
Q 1513 2494 1366 2419 
Q 1253 2363 994 2081 
z
" transform="scale(0.015625)"/>
       <path id="TimesNewRomanPSMT-29" d="M 144 4313 
L 144 4444 
Q 619 4209 934 3891 
Q 1381 3434 1625 2820 
Q 1869 2206 1869 1541 
Q 1869 572 1392 -226 
Q 916 -1025 144 -1369 
L 144 -1253 
Q 528 -1038 776 -670 
Q 1025 -303 1145 264 
Q 1266 831 1266 1447 
Q 1266 2113 1163 2663 
Q 1084 3094 967 3353 
Q 850 3613 656 3853 
Q 463 4094 144 4313 
z
" transform="scale(0.015625)"/>
      </defs>
      <use xlink:href="#TimesNewRomanPSMT-68"/>
      <use xlink:href="#TimesNewRomanPSMT-28" x="50"/>
      <use xlink:href="#TimesNewRomanPSMT-74" x="83.300781"/>
      <use xlink:href="#TimesNewRomanPSMT-69" x="111.083984"/>
      <use xlink:href="#TimesNewRomanPSMT-6d" x="138.867188"/>
      <use xlink:href="#TimesNewRomanPSMT-65" x="216.650391"/>
      <use xlink:href="#TimesNewRomanPSMT-20" x="261.035156"/>
      <use xlink:href="#TimesNewRomanPSMT-73" x="286.035156"/>
      <use xlink:href="#TimesNewRomanPSMT-74" x="324.951172"/>
      <use xlink:href="#TimesNewRomanPSMT-65" x="352.734375"/>
      <use xlink:href="#TimesNewRomanPSMT-70" x="397.119141"/>
      <use xlink:href="#TimesNewRomanPSMT-73" x="447.119141"/>
      <use xlink:href="#TimesNewRomanPSMT-29" x="486.035156"/>
     </g>
    </g>
   </g>
   <g id="matplotlib.axis_2">
    <g id="ytick_1">
     <g id="line2d_15">
      <path d="M 55.86625 243.418164 
L 478.8 243.418164 
" clip-path="url(#p5de5f2c8b9)" style="fill: none; stroke-dasharray: 2.96,1.28; stroke-dashoffset: 0; stroke: #b0b0b0; stroke-opacity: 0.25; stroke-width: 0.8"/>
     </g>
     <g id="line2d_16">
      <defs>
       <path id="mcfec135ccc" d="M 0 0 
L -3.5 0 
" style="stroke: #000000; stroke-width: 0.8"/>
      </defs>
      <g>
       <use xlink:href="#mcfec135ccc" x="55.86625" y="243.418164" style="stroke: #000000; stroke-width: 0.8"/>
      </g>
     </g>
     <g id="text_9">
      <!-- -0.02 -->
      <g transform="translate(28.036563 246.890039)scale(0.1 -0.1)">
       <defs>
        <path id="TimesNewRomanPSMT-2d" d="M 259 1672 
L 1875 1672 
L 1875 1200 
L 259 1200 
L 259 1672 
z
" transform="scale(0.015625)"/>
        <path id="TimesNewRomanPSMT-2e" d="M 800 606 
Q 947 606 1047 504 
Q 1147 403 1147 259 
Q 1147 116 1045 14 
Q 944 -88 800 -88 
Q 656 -88 554 14 
Q 453 116 453 259 
Q 453 406 554 506 
Q 656 606 800 606 
z
" transform="scale(0.015625)"/>
       </defs>
       <use xlink:href="#TimesNewRomanPSMT-2d"/>
       <use xlink:href="#TimesNewRomanPSMT-30" x="33.300781"/>
       <use xlink:href="#TimesNewRomanPSMT-2e" x="83.300781"/>
       <use xlink:href="#TimesNewRomanPSMT-30" x="108.300781"/>
       <use xlink:href="#TimesNewRomanPSMT-32" x="158.300781"/>
      </g>
     </g>
    </g>
    <g id="ytick_2">
     <g id="line2d_17">
      <path d="M 55.86625 204.531435 
L 478.8 204.531435 
" clip-path="url(#p5de5f2c8b9)" style="fill: none; stroke-dasharray: 2.96,1.28; stroke-dashoffset: 0; stroke: #b0b0b0; stroke-opacity: 0.25; stroke-width: 0.8"/>
     </g>
     <g id="line2d_18">
      <g>
       <use xlink:href="#mcfec135ccc" x="55.86625" y="204.531435" style="stroke: #000000; stroke-width: 0.8"/>
      </g>
     </g>
     <g id="text_10">
      <!-- -0.01 -->
      <g transform="translate(28.036563 208.00331)scale(0.1 -0.1)">
       <use xlink:href="#TimesNewRomanPSMT-2d"/>
       <use xlink:href="#TimesNewRomanPSMT-30" x="33.300781"/>
       <use xlink:href="#TimesNewRomanPSMT-2e" x="83.300781"/>
       <use xlink:href="#TimesNewRomanPSMT-30" x="108.300781"/>
       <use xlink:href="#TimesNewRomanPSMT-31" x="158.300781"/>
      </g>
     </g>
    </g>
    <g id="ytick_3">
     <g id="line2d_19">
      <path d="M 55.86625 165.644706 
L 478.8 165.644706 
" clip-path="url(#p5de5f2c8b9)" style="fill: none; stroke-dasharray: 2.96,1.28; stroke-dashoffset: 0; stroke: #b0b0b0; stroke-opacity: 0.25; stroke-width: 0.8"/>
     </g>
     <g id="line2d_20">
      <g>
       <use xlink:href="#mcfec135ccc" x="55.86625" y="165.644706" style="stroke: #000000; stroke-width: 0.8"/>
      </g>
     </g>
     <g id="text_11">
      <!-- 0.00 -->
      <g transform="translate(31.36625 169.116581)scale(0.1 -0.1)">
       <use xlink:href="#TimesNewRomanPSMT-30"/>
       <use xlink:href="#TimesNewRomanPSMT-2e" x="50"/>
       <use xlink:href="#TimesNewRomanPSMT-30" x="75"/>
       <use xlink:href="#TimesNewRomanPSMT-30" x="125"/>
      </g>
     </g>
    </g>
    <g id="ytick_4">
     <g id="line2d_21">
      <path d="M 55.86625 126.757977 
L 478.8 126.757977 
" clip-path="url(#p5de5f2c8b9)" style="fill: none; stroke-dasharray: 2.96,1.28; stroke-dashoffset: 0; stroke: #b0b0b0; stroke-opacity: 0.25; stroke-width: 0.8"/>
     </g>
     <g id="line2d_22">
      <g>
       <use xlink:href="#mcfec135ccc" x="55.86625" y="126.757977" style="stroke: #000000; stroke-width: 0.8"/>
      </g>
     </g>
     <g id="text_12">
      <!-- 0.01 -->
      <g transform="translate(31.36625 130.229852)scale(0.1 -0.1)">
       <use xlink:href="#TimesNewRomanPSMT-30"/>
       <use xlink:href="#TimesNewRomanPSMT-2e" x="50"/>
       <use xlink:href="#TimesNewRomanPSMT-30" x="75"/>
       <use xlink:href="#TimesNewRomanPSMT-31" x="125"/>
      </g>
     </g>
    </g>
    <g id="ytick_5">
     <g id="line2d_23">
      <path d="M 55.86625 87.871248 
L 478.8 87.871248 
" clip-path="url(#p5de5f2c8b9)" style="fill: none; stroke-dasharray: 2.96,1.28; stroke-dashoffset: 0; stroke: #b0b0b0; stroke-opacity: 0.25; stroke-width: 0.8"/>
     </g>
     <g id="line2d_24">
      <g>
       <use xlink:href="#mcfec135ccc" x="55.86625" y="87.871248" style="stroke: #000000; stroke-width: 0.8"/>
      </g>
     </g>
     <g id="text_13">
      <!-- 0.02 -->
      <g transform="translate(31.36625 91.343123)scale(0.1 -0.1)">
       <use xlink:href="#TimesNewRomanPSMT-30"/>
       <use xlink:href="#TimesNewRomanPSMT-2e" x="50"/>
       <use xlink:href="#TimesNewRomanPSMT-30" x="75"/>
       <use xlink:href="#TimesNewRomanPSMT-32" x="125"/>
      </g>
     </g>
    </g>
    <g id="ytick_6">
     <g id="line2d_25">
      <path d="M 55.86625 48.98452 
L 478.8 48.98452 
" clip-path="url(#p5de5f2c8b9)" style="fill: none; stroke-dasharray: 2.96,1.28; stroke-dashoffset: 0; stroke: #b0b0b0; stroke-opacity: 0.25; stroke-width: 0.8"/>
     </g>
     <g id="line2d_26">
      <g>
       <use xlink:href="#mcfec135ccc" x="55.86625" y="48.98452" style="stroke: #000000; stroke-width: 0.8"/>
      </g>
     </g>
     <g id="text_14">
      <!-- 0.03 -->
      <g transform="translate(31.36625 52.456395)scale(0.1 -0.1)">
       <use xlink:href="#TimesNewRomanPSMT-30"/>
       <use xlink:href="#TimesNewRomanPSMT-2e" x="50"/>
       <use xlink:href="#TimesNewRomanPSMT-30" x="75"/>
       <use xlink:href="#TimesNewRomanPSMT-33" x="125"/>
      </g>
     </g>
    </g>
    <g id="text_15">
     <!-- $\Delta \bar{f_C}(t+h)$ -->
     <g transform="translate(21.8975 165.98)rotate(-90)scale(0.1 -0.1)">
      <defs>
       <path id="STIXGeneral-Regular-394" d="M 4320 0 
L 307 0 
L 2221 4314 
L 2349 4314 
L 4320 0 
z
M 3354 589 
L 2118 3405 
L 870 589 
L 3354 589 
z
" transform="scale(0.015625)"/>
       <path id="STIXGeneral-Regular-304" d="M -474 3501 
L -2464 3501 
L -2464 3846 
L -474 3846 
L -474 3501 
z
" transform="scale(0.015625)"/>
       <path id="STIXGeneral-Italic-66" d="M 262 2739 
L 858 2739 
Q 1107 3546 1318 3846 
Q 1664 4339 2163 4339 
Q 2400 4339 2557 4227 
Q 2714 4115 2714 3942 
Q 2714 3834 2634 3750 
Q 2554 3667 2445 3667 
Q 2355 3667 2281 3737 
Q 2208 3808 2208 3917 
Q 2208 3981 2240 4038 
Q 2272 4096 2272 4115 
Q 2272 4198 2131 4198 
Q 1862 4198 1676 3849 
Q 1491 3501 1350 2739 
L 2035 2739 
L 1997 2534 
L 1306 2534 
L 845 486 
Q 435 -1325 -435 -1325 
Q -653 -1325 -797 -1213 
Q -941 -1101 -941 -934 
Q -941 -826 -870 -746 
Q -800 -666 -698 -666 
Q -589 -666 -521 -733 
Q -454 -800 -454 -902 
Q -454 -947 -483 -1001 
Q -512 -1056 -512 -1088 
Q -512 -1190 -384 -1190 
Q 13 -1190 237 -154 
L 800 2534 
L 218 2534 
L 262 2739 
z
" transform="scale(0.015625)"/>
       <path id="STIXGeneral-Italic-43" d="M 4410 4250 
L 4173 2970 
L 4058 2989 
Q 3942 4032 3104 4032 
Q 2406 4032 1830 3411 
Q 1491 3053 1315 2541 
Q 1139 2029 1139 1485 
Q 1139 173 2259 173 
Q 2656 173 2985 339 
Q 3315 506 3725 934 
L 3840 838 
Q 3411 333 2998 109 
Q 2586 -115 2093 -115 
Q 1344 -115 883 329 
Q 422 774 422 1555 
Q 422 2214 748 2812 
Q 1075 3411 1619 3795 
Q 2272 4262 3021 4262 
Q 3462 4262 3770 4154 
Q 3898 4109 4032 4109 
Q 4205 4109 4275 4250 
L 4410 4250 
z
" transform="scale(0.015625)"/>
       <path id="STIXGeneral-Regular-28" d="M 1946 -1030 
L 1869 -1133 
Q 1126 -710 716 32 
Q 307 774 307 1613 
Q 307 3386 1888 4326 
L 1946 4224 
Q 1293 3667 1075 3126 
Q 858 2586 858 1632 
Q 858 685 1082 96 
Q 1306 -493 1946 -1030 
z
" transform="scale(0.015625)"/>
       <path id="STIXGeneral-Italic-74" d="M 1894 2739 
L 1862 2534 
L 1325 2534 
L 768 435 
Q 755 384 755 346 
Q 755 243 851 243 
Q 928 243 1030 342 
Q 1133 442 1370 749 
L 1453 704 
Q 1158 256 969 93 
Q 781 -70 538 -70 
Q 243 -70 243 166 
Q 243 230 346 640 
L 845 2534 
L 365 2534 
L 358 2573 
Q 358 2688 570 2733 
Q 730 2771 992 2979 
Q 1254 3187 1421 3437 
Q 1459 3494 1510 3494 
Q 1568 3494 1568 3443 
Q 1568 3411 1562 3398 
L 1382 2739 
L 1894 2739 
z
" transform="scale(0.015625)"/>
       <path id="STIXGeneral-Regular-2b" d="M 4070 1408 
L 2400 1408 
L 2400 -262 
L 1978 -262 
L 1978 1408 
L 307 1408 
L 307 1830 
L 1978 1830 
L 1978 3501 
L 2400 3501 
L 2400 1830 
L 4070 1830 
L 4070 1408 
z
" transform="scale(0.015625)"/>
       <path id="STIXGeneral-Italic-68" d="M 2976 755 
L 3059 672 
Q 2765 256 2566 99 
Q 2368 -58 2125 -58 
Q 1997 -58 1920 16 
Q 1843 90 1843 211 
Q 1843 320 1971 800 
L 2323 2125 
Q 2368 2304 2368 2336 
Q 2368 2496 2189 2496 
Q 2016 2496 1744 2240 
Q 1472 1984 1216 1600 
Q 1018 1293 902 1001 
Q 787 710 602 0 
L 122 0 
L 1056 3546 
Q 1139 3866 1139 3942 
Q 1139 4019 1056 4060 
Q 973 4102 877 4102 
L 704 4102 
L 704 4198 
Q 1190 4256 1709 4371 
L 1754 4333 
L 979 1472 
Q 1811 2822 2451 2822 
Q 2662 2822 2764 2704 
Q 2867 2586 2867 2394 
Q 2867 2118 2560 1158 
Q 2349 512 2349 358 
Q 2349 243 2451 243 
Q 2528 243 2621 336 
Q 2714 429 2976 755 
z
" transform="scale(0.015625)"/>
       <path id="STIXGeneral-Regular-29" d="M 186 4224 
L 262 4326 
Q 992 3891 1408 3148 
Q 1824 2406 1824 1581 
Q 1824 -166 243 -1133 
L 186 -1030 
Q 845 -486 1059 54 
Q 1274 595 1274 1562 
Q 1274 2534 1059 3120 
Q 845 3706 186 4224 
z
" transform="scale(0.015625)"/>
      </defs>
      <use xlink:href="#STIXGeneral-Regular-394" transform="translate(0 0.3125)"/>
      <use xlink:href="#STIXGeneral-Regular-304" transform="translate(144.424822 25.90625)"/>
      <use xlink:href="#STIXGeneral-Italic-66" transform="translate(72.199982 0.3125)"/>
      <use xlink:href="#STIXGeneral-Italic-43" transform="translate(99.999969 -12.915625)scale(0.7)"/>
      <use xlink:href="#STIXGeneral-Regular-28" transform="translate(151.099342 0.3125)"/>
      <use xlink:href="#STIXGeneral-Italic-74" transform="translate(184.39933 0.3125)"/>
      <use xlink:href="#STIXGeneral-Regular-2b" transform="translate(226.639314 0.3125)"/>
      <use xlink:href="#STIXGeneral-Italic-68" transform="translate(309.579295 0.3125)"/>
      <use xlink:href="#STIXGeneral-Regular-29" transform="translate(359.57928 0.3125)"/>
     </g>
    </g>
   </g>
   <g id="line2d_27">
    <path d="M 75.090511 23.120909 
L 77.022598 82.824458 
L 78.954685 132.799536 
L 80.886771 173.752228 
L 82.818858 206.38862 
L 84.750944 231.414798 
L 86.683031 249.536848 
L 88.615117 261.460856 
L 90.547204 267.892909 
L 92.47929 269.539091 
L 94.411377 267.105489 
L 96.343464 261.298189 
L 98.27555 252.823277 
L 100.207637 242.386839 
L 104.07181 218.381741 
L 107.935983 194.428266 
L 109.86807 184.028854 
L 111.800156 175.511855 
L 113.732243 169.500207 
L 115.664329 166.337051 
L 117.596416 165.534165 
L 119.528502 166.449618 
L 121.460589 168.441479 
L 123.392676 170.867817 
L 125.324762 173.086701 
L 127.256849 174.471263 
L 129.188935 174.80196 
L 131.121022 174.303596 
L 133.053108 173.223456 
L 138.849368 168.965236 
L 140.781455 167.99642 
L 142.713541 167.384526 
L 144.645628 167.020167 
L 150.441888 166.31569 
L 152.373974 165.845141 
L 154.306061 165.134079 
L 162.034407 161.734819 
L 163.966494 161.253839 
L 165.89858 161.117852 
L 167.830667 161.327301 
L 169.762753 161.802391 
L 173.626926 163.220339 
L 177.4911 164.713389 
L 181.355273 165.799896 
L 185.219446 166.779234 
L 187.151532 167.389693 
L 189.083619 168.166537 
L 191.015706 169.173435 
L 192.947792 170.41815 
L 200.676138 175.943258 
L 202.608225 176.980169 
L 204.540312 177.690284 
L 206.472398 178.019353 
L 208.404485 177.938042 
L 210.336571 177.417429 
L 212.268658 176.428593 
L 214.200744 174.942614 
L 216.132831 172.930573 
L 218.064917 170.416346 
L 223.861177 162.183322 
L 225.793264 160.069578 
L 227.72535 158.701488 
L 229.657437 158.331291 
L 231.589523 158.978854 
L 233.52161 160.362195 
L 239.31787 165.905326 
L 241.249956 167.210217 
L 243.182043 167.775532 
L 245.114129 167.626317 
L 247.046216 166.93111 
L 248.978303 165.859447 
L 254.774562 162.081008 
L 256.706649 161.154136 
L 258.638735 160.489125 
L 260.570822 160.070779 
L 262.502909 159.883902 
L 264.434995 159.913298 
L 266.367082 160.14377 
L 268.299168 160.560351 
L 270.231255 161.153301 
L 272.163341 161.918112 
L 274.095428 162.850504 
L 276.027515 163.946194 
L 277.959601 165.200902 
L 281.823774 168.156999 
L 285.687947 171.24485 
L 287.620034 172.533314 
L 289.552121 173.482947 
L 291.484207 173.967356 
L 293.416294 173.860743 
L 295.34838 173.1224 
L 297.280467 171.884647 
L 299.212553 170.300813 
L 305.008813 165.006116 
L 306.9409 163.566631 
L 308.872986 162.469389 
L 310.805073 161.740828 
L 312.737159 161.406023 
L 314.669246 161.490044 
L 316.601333 162.017965 
L 318.533419 163.014857 
L 320.465506 164.459451 
L 324.329679 167.730566 
L 326.261765 168.991598 
L 328.193852 169.625951 
L 330.125938 169.350882 
L 332.058025 167.888424 
L 333.990112 165.247472 
L 335.922198 161.881551 
L 337.854285 158.282437 
L 339.786371 154.941901 
L 341.718458 152.351719 
L 343.650544 151.003662 
L 345.582631 151.337629 
L 347.514718 153.257965 
L 349.446804 156.353067 
L 351.378891 160.207249 
L 355.243064 168.530112 
L 357.17515 172.167441 
L 359.107237 174.984634 
L 361.039324 176.923163 
L 362.97141 177.980485 
L 364.903497 178.154055 
L 366.835583 177.44133 
L 368.76767 175.839765 
L 370.699756 173.351093 
L 372.631843 170.114668 
L 378.428103 158.988682 
L 380.360189 155.850174 
L 382.292276 153.517938 
L 384.224362 152.256169 
L 386.156449 151.970438 
L 388.088536 152.405585 
L 390.020622 153.305689 
L 393.884795 155.47709 
L 395.816882 156.236934 
L 397.748968 156.569905 
L 401.613142 156.790956 
L 403.545228 157.169401 
L 405.477315 158.053368 
L 407.409401 159.688037 
L 409.341488 162.300478 
L 411.273574 165.759769 
L 415.137748 173.370413 
L 417.069834 176.579321 
L 419.001921 178.762323 
L 420.934007 179.448196 
L 422.866094 178.289178 
L 424.79818 175.605274 
L 426.730267 171.941225 
L 430.59444 163.852328 
L 432.526527 160.517299 
L 434.458613 158.379162 
L 436.3907 157.711945 
L 438.322786 158.291872 
L 440.254873 159.841089 
L 442.18696 162.081743 
L 447.983219 170.173779 
L 449.915306 172.401636 
L 451.847392 173.931659 
L 453.779479 174.485994 
L 455.711565 173.786786 
L 457.643652 171.556182 
L 459.575739 167.516328 
L 459.575739 167.516328 
" clip-path="url(#p5de5f2c8b9)" style="fill: none; stroke: #463480; stroke-width: 1.8; stroke-linecap: square"/>
   </g>
   <g id="line2d_28">
    <path d="M 75.090511 102.00113 
L 77.022598 134.753606 
L 78.954685 161.516881 
L 80.886771 182.820026 
L 82.818858 199.192112 
L 84.750944 211.162211 
L 86.683031 219.259394 
L 88.615117 224.01273 
L 90.547204 225.951293 
L 92.47929 225.604153 
L 94.411377 223.50038 
L 96.343464 220.169047 
L 102.139723 208.057155 
L 104.07181 204.578565 
L 107.935983 198.325308 
L 111.800156 192.152236 
L 113.732243 188.773921 
L 117.596416 181.19303 
L 121.460589 173.31201 
L 123.392676 169.590281 
L 125.324762 166.191114 
L 127.256849 163.244457 
L 129.188935 160.810405 
L 131.121022 158.872847 
L 133.053108 157.411818 
L 134.985195 156.407353 
L 136.917282 155.839485 
L 138.849368 155.688249 
L 140.781455 155.933789 
L 142.713541 156.556969 
L 144.645628 157.538949 
L 146.577714 158.860891 
L 148.509801 160.503955 
L 150.441888 162.449302 
L 152.373974 164.677871 
L 158.170234 171.967667 
L 160.10232 173.995518 
L 162.034407 175.513504 
L 163.966494 176.336331 
L 165.89858 176.289482 
L 167.830667 175.383076 
L 169.762753 173.782365 
L 171.69484 171.657417 
L 173.626926 169.178303 
L 179.423186 161.319349 
L 181.355273 159.145495 
L 183.287359 157.506221 
L 185.219446 156.591459 
L 187.151532 156.591139 
L 189.083619 157.695192 
L 191.015706 160.090338 
L 192.947792 163.714741 
L 198.744052 176.968749 
L 200.676138 180.433814 
L 202.608225 182.549143 
L 204.540312 182.841716 
L 206.472398 181.430722 
L 208.404485 178.817417 
L 214.200744 168.839891 
L 216.132831 166.493589 
L 218.064917 165.323932 
L 219.997004 165.103256 
L 221.929091 165.473584 
L 223.861177 166.076935 
L 225.793264 166.555331 
L 227.72535 166.550794 
L 229.657437 165.712497 
L 231.589523 163.967709 
L 233.52161 161.60495 
L 237.385783 156.276172 
L 239.31787 153.935482 
L 241.249956 152.227474 
L 243.182043 151.426124 
L 245.114129 151.48676 
L 247.046216 152.208004 
L 248.978303 153.387387 
L 254.774562 157.649816 
L 256.706649 158.711622 
L 260.570822 160.324273 
L 264.434995 161.957543 
L 266.367082 163.045121 
L 268.299168 164.447164 
L 274.095428 169.41404 
L 276.027515 170.633828 
L 277.959601 171.287715 
L 279.891688 171.166912 
L 281.823774 170.12035 
L 283.755861 168.34281 
L 289.552121 161.855317 
L 291.484207 160.385281 
L 293.416294 159.79891 
L 295.34838 160.234651 
L 297.280467 161.457825 
L 299.212553 163.188445 
L 303.076727 167.052085 
L 305.008813 168.625133 
L 306.9409 169.598672 
L 308.872986 169.899985 
L 310.805073 169.605923 
L 312.737159 168.797179 
L 314.669246 167.55445 
L 316.601333 165.95843 
L 318.533419 164.089816 
L 322.397592 160.040344 
L 324.329679 158.282683 
L 326.261765 157.002876 
L 328.193852 156.425777 
L 330.125938 156.776237 
L 332.058025 158.2752 
L 333.990112 160.909032 
L 335.922198 164.300503 
L 339.786371 171.722334 
L 341.718458 174.935681 
L 343.650544 177.272639 
L 345.582631 178.36408 
L 347.514718 178.247408 
L 349.446804 177.199856 
L 351.378891 175.50176 
L 357.17515 169.307531 
L 359.107237 167.74499 
L 361.039324 166.587506 
L 362.97141 165.790973 
L 364.903497 165.311285 
L 366.835583 165.104335 
L 368.76767 165.126019 
L 370.699756 165.331795 
L 378.428103 166.656397 
L 380.360189 166.733672 
L 382.292276 166.55731 
L 384.224362 166.068009 
L 386.156449 165.3302 
L 391.952709 162.825659 
L 393.884795 162.294273 
L 395.816882 162.114668 
L 397.748968 162.338672 
L 399.681055 162.851124 
L 405.477315 164.7164 
L 407.409401 164.979873 
L 409.341488 164.836996 
L 411.273574 164.284294 
L 413.205661 163.43766 
L 419.001921 160.337233 
L 420.934007 159.517937 
L 422.866094 158.990727 
L 424.79818 158.776478 
L 426.730267 158.867821 
L 428.662354 159.257367 
L 430.59444 159.937728 
L 432.526527 160.901514 
L 434.458613 162.141048 
L 436.3907 163.618894 
L 444.119046 170.000438 
L 446.051133 171.220125 
L 447.983219 172.092235 
L 449.915306 172.518122 
L 451.847392 172.399138 
L 453.779479 171.636634 
L 455.711565 170.131964 
L 457.643652 167.786478 
L 459.575739 164.50153 
L 459.575739 164.50153 
" clip-path="url(#p5de5f2c8b9)" style="fill: none; stroke: #355f8d; stroke-width: 1.8; stroke-linecap: square"/>
   </g>
   <g id="line2d_29">
    <path d="M 75.090511 147.146065 
L 77.022598 169.425289 
L 78.954685 186.764562 
L 80.886771 199.666977 
L 82.818858 208.635626 
L 84.750944 214.173604 
L 86.683031 216.784003 
L 88.615117 216.969916 
L 90.547204 215.234436 
L 92.47929 212.080656 
L 94.411377 208.011669 
L 98.27555 199.140448 
L 100.207637 195.344399 
L 102.139723 192.590544 
L 104.07181 190.820987 
L 106.003896 189.70512 
L 109.86807 188.101464 
L 111.800156 186.947176 
L 113.732243 185.113684 
L 115.664329 182.403773 
L 117.596416 179.024131 
L 123.392676 167.680439 
L 125.324762 164.435496 
L 127.256849 161.920609 
L 129.188935 160.220109 
L 131.121022 159.211059 
L 133.053108 158.760031 
L 134.985195 158.733599 
L 136.917282 158.998335 
L 142.713541 160.270253 
L 144.645628 160.540222 
L 146.577714 160.613445 
L 148.509801 160.419745 
L 150.441888 159.888951 
L 152.373974 158.951325 
L 154.306061 157.629596 
L 158.170234 154.777899 
L 160.10232 153.761835 
L 162.034407 153.361564 
L 163.966494 153.83404 
L 165.89858 155.417579 
L 167.830667 158.031245 
L 169.762753 161.325868 
L 173.626926 168.527972 
L 175.559013 171.720449 
L 177.4911 174.163871 
L 179.423186 175.576974 
L 181.355273 176.051153 
L 183.287359 175.791496 
L 185.219446 175.003116 
L 189.083619 172.660644 
L 191.015706 171.51591 
L 192.947792 170.593806 
L 194.879879 169.917029 
L 196.811965 169.497216 
L 198.744052 169.346003 
L 200.676138 169.475027 
L 202.608225 169.895925 
L 204.540312 170.611173 
L 210.336571 173.206938 
L 212.268658 173.643811 
L 214.200744 173.576726 
L 216.132831 172.831826 
L 218.064917 171.32111 
L 219.997004 169.267358 
L 223.861177 164.703055 
L 225.793264 162.778658 
L 227.72535 161.483534 
L 229.657437 161.104172 
L 231.589523 161.670986 
L 233.52161 162.881731 
L 237.385783 165.93712 
L 239.31787 167.132816 
L 241.249956 167.674546 
L 243.182043 167.284661 
L 245.114129 166.071179 
L 247.046216 164.331775 
L 250.910389 160.4712 
L 252.842476 158.948025 
L 254.774562 158.094709 
L 256.706649 158.079882 
L 258.638735 158.721152 
L 260.570822 159.77754 
L 264.434995 162.17176 
L 266.367082 163.027636 
L 268.299168 163.343166 
L 270.231255 163.080067 
L 272.163341 162.394311 
L 279.891688 158.713025 
L 281.823774 158.355021 
L 283.755861 158.35949 
L 285.687947 158.658704 
L 287.620034 159.184841 
L 291.484207 160.646601 
L 297.280467 162.972753 
L 303.076727 165.060202 
L 308.872986 166.901069 
L 312.737159 167.815024 
L 314.669246 168.094024 
L 316.601333 168.215844 
L 318.533419 168.151584 
L 320.465506 167.89129 
L 326.261765 166.764488 
L 328.193852 166.596614 
L 330.125938 166.694118 
L 332.058025 167.152241 
L 333.990112 167.965959 
L 339.786371 170.882942 
L 341.718458 171.434562 
L 343.650544 171.486168 
L 345.582631 170.886051 
L 347.514718 169.710489 
L 349.446804 168.170262 
L 353.310977 164.845894 
L 355.243064 163.48679 
L 357.17515 162.613079 
L 359.107237 162.352949 
L 361.039324 162.558228 
L 366.835583 163.919453 
L 368.76767 163.939299 
L 370.699756 163.408159 
L 372.631843 162.358302 
L 376.496016 159.941704 
L 378.428103 159.218546 
L 380.360189 159.247872 
L 382.292276 160.351473 
L 384.224362 162.783978 
L 386.156449 166.303644 
L 391.952709 178.739209 
L 393.884795 181.959022 
L 395.816882 183.941236 
L 397.748968 184.402955 
L 399.681055 183.507028 
L 401.613142 181.483352 
L 403.545228 178.561827 
L 405.477315 174.97235 
L 409.341488 166.710566 
L 411.273574 162.529306 
L 413.205661 158.686763 
L 415.137748 155.469624 
L 417.069834 153.164578 
L 419.001921 152.05831 
L 420.934007 152.437509 
L 422.866094 154.491426 
L 424.79818 157.882301 
L 426.730267 162.095012 
L 430.59444 170.924917 
L 432.526527 174.511598 
L 434.458613 176.861535 
L 436.3907 177.714214 
L 438.322786 177.277259 
L 440.254873 175.809151 
L 442.18696 173.568374 
L 444.119046 170.813407 
L 447.983219 164.794833 
L 449.915306 162.048189 
L 451.847392 159.821283 
L 453.779479 158.372596 
L 455.711565 157.960609 
L 457.643652 158.843805 
L 459.575739 161.280664 
L 459.575739 161.280664 
" clip-path="url(#p5de5f2c8b9)" style="fill: none; stroke: #25848e; stroke-width: 1.8; stroke-linecap: square"/>
   </g>
   <g id="line2d_30">
    <path d="M 75.090511 187.545216 
L 77.022598 164.1886 
L 78.954685 145.966891 
L 80.886771 132.388261 
L 82.818858 122.960879 
L 84.750944 117.192918 
L 86.683031 114.592548 
L 88.615117 114.66794 
L 90.547204 116.927265 
L 92.47929 120.878694 
L 94.411377 126.030398 
L 100.207637 143.768868 
L 102.139723 148.83571 
L 104.07181 153.005929 
L 106.003896 156.277999 
L 107.935983 158.651945 
L 109.86807 160.127794 
L 111.800156 160.705572 
L 113.732243 160.385362 
L 115.664329 159.242735 
L 117.596416 157.577557 
L 119.528502 155.731166 
L 121.460589 154.044898 
L 123.392676 152.860091 
L 125.324762 152.51808 
L 127.256849 153.348619 
L 129.188935 155.368194 
L 131.121022 158.251558 
L 136.917282 168.658975 
L 138.849368 171.572091 
L 140.781455 173.679371 
L 142.713541 174.967728 
L 144.645628 175.5409 
L 146.577714 175.502969 
L 148.509801 174.958016 
L 150.441888 174.010123 
L 152.373974 172.763397 
L 160.10232 167.096366 
L 162.034407 166.120313 
L 163.966494 165.565462 
L 165.89858 165.545232 
L 167.830667 166.018128 
L 169.762753 166.812498 
L 173.626926 168.662878 
L 175.559013 169.367498 
L 177.4911 169.69081 
L 179.423186 169.494744 
L 181.355273 168.825141 
L 183.287359 167.783949 
L 185.219446 166.47313 
L 192.947792 160.555862 
L 194.879879 159.349346 
L 196.811965 158.378403 
L 198.744052 157.69866 
L 200.676138 157.365744 
L 202.608225 157.435279 
L 204.540312 157.956749 
L 206.472398 158.908212 
L 208.404485 160.221643 
L 210.336571 161.828254 
L 212.268658 163.659252 
L 216.132831 167.71925 
L 219.997004 171.844848 
L 221.929091 173.750935 
L 223.861177 175.454678 
L 225.793264 176.882675 
L 227.72535 177.961525 
L 229.657437 178.619398 
L 231.589523 178.845663 
L 233.52161 178.709179 
L 235.453697 178.28412 
L 237.385783 177.644659 
L 241.249956 176.019225 
L 248.978303 172.558781 
L 252.842476 170.480369 
L 254.774562 169.259965 
L 258.638735 166.439782 
L 266.367082 160.50248 
L 268.299168 159.223559 
L 270.231255 158.114208 
L 272.163341 157.212082 
L 274.095428 156.554665 
L 276.027515 156.17944 
L 277.959601 156.123888 
L 279.891688 156.425492 
L 281.823774 157.105461 
L 283.755861 158.087484 
L 291.484207 162.786184 
L 293.416294 163.591234 
L 295.34838 164.075039 
L 297.280467 164.280401 
L 299.212553 164.262733 
L 301.14464 164.077452 
L 305.008813 163.425709 
L 308.872986 162.756231 
L 310.805073 162.523762 
L 312.737159 162.409479 
L 314.669246 162.450841 
L 316.601333 162.685305 
L 318.533419 163.150328 
L 320.465506 163.867 
L 322.397592 164.784042 
L 330.125938 169.03048 
L 332.058025 169.880316 
L 333.990112 170.503799 
L 335.922198 170.831907 
L 337.854285 170.795736 
L 339.786371 170.326381 
L 341.718458 169.354935 
L 343.650544 167.812495 
L 345.582631 165.651884 
L 351.378891 157.763547 
L 353.310977 155.700869 
L 355.243064 154.440232 
L 357.17515 154.292796 
L 359.107237 155.43326 
L 361.039324 157.589018 
L 362.97141 160.395958 
L 366.835583 166.506928 
L 368.76767 169.082731 
L 370.699756 170.860759 
L 372.631843 171.725742 
L 374.56393 171.849663 
L 376.496016 171.421272 
L 378.428103 170.629318 
L 382.292276 168.709725 
L 384.224362 167.940557 
L 386.156449 167.384135 
L 388.088536 167.006515 
L 391.952709 166.65071 
L 397.748968 166.605274 
L 401.613142 166.559507 
L 405.477315 166.291709 
L 407.409401 166.020229 
L 411.273574 165.147012 
L 415.137748 164.165315 
L 417.069834 163.801701 
L 419.001921 163.612765 
L 420.934007 163.6659 
L 422.866094 164.00762 
L 424.79818 164.571526 
L 430.59444 166.552223 
L 432.526527 166.96068 
L 434.458613 167.069844 
L 436.3907 166.84239 
L 438.322786 166.364318 
L 446.051133 163.933755 
L 447.983219 163.693526 
L 449.915306 163.799053 
L 451.847392 164.349731 
L 453.779479 165.444958 
L 455.711565 167.184128 
L 457.643652 169.666637 
L 459.575739 172.991882 
L 459.575739 172.991882 
" clip-path="url(#p5de5f2c8b9)" style="fill: none; stroke: #22a884; stroke-width: 1.8; stroke-linecap: square"/>
   </g>
   <g id="line2d_31">
    <path d="M 75.090511 189.687459 
L 77.022598 161.142751 
L 78.954685 137.152071 
L 80.886771 117.441454 
L 82.818858 101.736934 
L 84.750944 89.764544 
L 86.683031 81.25032 
L 88.615117 75.920295 
L 90.547204 73.500503 
L 92.47929 73.716979 
L 94.411377 76.295758 
L 96.343464 80.962872 
L 98.27555 87.444357 
L 100.207637 95.466247 
L 102.139723 104.738219 
L 109.86807 144.694693 
L 111.800156 152.787682 
L 113.732243 159.076758 
L 115.664329 163.25576 
L 117.596416 165.661801 
L 119.528502 166.750921 
L 121.460589 166.979163 
L 125.324762 166.677181 
L 127.256849 167.048654 
L 129.188935 168.081785 
L 131.121022 169.63498 
L 133.053108 171.551148 
L 138.849368 177.90654 
L 140.781455 179.711244 
L 142.713541 181.159082 
L 144.645628 182.171586 
L 146.577714 182.670348 
L 148.509801 182.576959 
L 150.441888 181.813011 
L 152.373974 180.300519 
L 154.306061 178.050784 
L 156.238147 175.27433 
L 162.034407 166.159432 
L 163.966494 163.650881 
L 165.89858 161.793943 
L 167.830667 160.661838 
L 169.762753 160.197395 
L 171.69484 160.339389 
L 173.626926 161.026597 
L 175.559013 162.197796 
L 177.4911 163.791762 
L 179.423186 165.728569 
L 183.287359 169.917447 
L 185.219446 171.771046 
L 187.151532 173.198434 
L 189.083619 174.000372 
L 191.015706 173.979601 
L 192.947792 173.092176 
L 194.879879 171.55402 
L 196.811965 169.606232 
L 200.676138 165.446147 
L 202.608225 163.716045 
L 204.540312 162.524203 
L 206.472398 161.903449 
L 208.404485 161.762882 
L 210.336571 162.009544 
L 212.268658 162.550473 
L 216.132831 164.143291 
L 221.929091 166.910462 
L 225.793264 169.029145 
L 229.657437 171.491667 
L 237.385783 176.883258 
L 239.31787 178.016066 
L 241.249956 178.9489 
L 243.182043 179.626177 
L 245.114129 180.003707 
L 247.046216 180.042902 
L 248.978303 179.705216 
L 250.910389 178.952102 
L 252.842476 177.745012 
L 254.774562 176.045489 
L 256.706649 173.870328 
L 264.434995 163.978114 
L 266.367082 162.160544 
L 268.299168 160.978419 
L 270.231255 160.428027 
L 272.163341 160.319367 
L 277.959601 160.662795 
L 279.891688 160.340077 
L 281.823774 159.511589 
L 283.755861 158.279833 
L 287.620034 155.398751 
L 289.552121 154.145774 
L 291.484207 153.282074 
L 293.416294 153.004969 
L 295.34838 153.388782 
L 297.280467 154.257738 
L 303.076727 157.714012 
L 305.008813 158.462093 
L 306.9409 158.681392 
L 308.872986 158.433881 
L 312.737159 157.565165 
L 314.669246 157.464793 
L 316.601333 157.9343 
L 318.533419 159.234103 
L 320.465506 161.527009 
L 322.397592 164.544305 
L 326.261765 171.200367 
L 328.193852 174.063274 
L 330.125938 176.098862 
L 332.058025 176.923937 
L 333.990112 176.439436 
L 335.922198 174.986703 
L 337.854285 172.944964 
L 341.718458 168.611371 
L 343.650544 167.07797 
L 345.582631 166.436422 
L 347.514718 166.657779 
L 349.446804 167.493559 
L 355.243064 171.174232 
L 357.17515 171.954519 
L 359.107237 172.168081 
L 361.039324 171.88624 
L 362.97141 171.230891 
L 364.903497 170.323929 
L 370.699756 167.30979 
L 374.56393 165.835018 
L 378.428103 164.470622 
L 380.360189 163.670003 
L 382.292276 162.705203 
L 388.088536 159.09703 
L 390.020622 158.201765 
L 391.952709 157.768427 
L 393.884795 157.981968 
L 395.816882 159.026915 
L 397.748968 160.943543 
L 399.681055 163.418517 
L 403.545228 168.577404 
L 405.477315 170.528267 
L 407.409401 171.571376 
L 409.341488 171.360055 
L 411.273574 169.939917 
L 413.205661 167.716178 
L 417.069834 162.53196 
L 419.001921 160.40851 
L 420.934007 159.15552 
L 422.866094 159.105813 
L 424.79818 160.128727 
L 426.730267 161.937615 
L 428.662354 164.245713 
L 432.526527 169.21248 
L 434.458613 171.298658 
L 436.3907 172.84599 
L 438.322786 173.874089 
L 440.254873 174.424119 
L 442.18696 174.537247 
L 444.119046 174.254638 
L 446.051133 173.617458 
L 447.983219 172.666873 
L 449.915306 171.444048 
L 451.847392 169.990148 
L 453.779479 168.346341 
L 457.643652 164.653663 
L 459.575739 162.687124 
L 459.575739 162.687124 
" clip-path="url(#p5de5f2c8b9)" style="fill: none; stroke: #5ec962; stroke-width: 1.8; stroke-linecap: square"/>
   </g>
   <g id="line2d_32">
    <path d="M 75.090511 195.303552 
L 77.022598 156.709179 
L 78.954685 124.770938 
L 80.886771 98.94508 
L 82.818858 78.687852 
L 84.750944 63.455505 
L 86.683031 52.704288 
L 88.615117 45.89045 
L 90.547204 42.470241 
L 92.47929 41.899909 
L 94.411377 43.635705 
L 96.343464 47.133876 
L 98.27555 51.850674 
L 102.139723 62.815567 
L 104.07181 68.54116 
L 106.003896 74.640097 
L 107.935983 81.335776 
L 109.86807 88.851593 
L 111.800156 97.410944 
L 113.732243 107.237089 
L 115.664329 118.372826 
L 121.460589 154.30672 
L 123.392676 165.15168 
L 125.324762 174.442521 
L 127.256849 181.602396 
L 129.188935 186.479676 
L 131.121022 189.38659 
L 133.053108 190.658838 
L 134.985195 190.63212 
L 136.917282 189.642137 
L 138.849368 188.024587 
L 142.713541 184.043012 
L 146.577714 180.104331 
L 148.509801 178.487514 
L 150.441888 177.285113 
L 152.373974 176.63126 
L 154.306061 176.570644 
L 156.238147 176.948399 
L 162.034407 178.893235 
L 163.966494 179.205818 
L 165.89858 179.057031 
L 167.830667 178.438819 
L 169.762753 177.481113 
L 177.4911 172.939642 
L 179.423186 172.269363 
L 181.355273 171.869761 
L 183.287359 171.666019 
L 191.015706 171.313416 
L 192.947792 170.995073 
L 194.879879 170.526198 
L 196.811965 169.910874 
L 198.744052 169.153183 
L 200.676138 168.257206 
L 202.608225 167.227026 
L 206.472398 164.840585 
L 210.336571 162.486931 
L 212.268658 161.527474 
L 214.200744 160.8224 
L 216.132831 160.45381 
L 218.064917 160.466325 
L 219.997004 160.768902 
L 225.793264 162.199681 
L 227.72535 162.445186 
L 229.657437 162.375741 
L 235.453697 161.263823 
L 237.385783 161.313694 
L 239.31787 161.940826 
L 241.249956 163.365424 
L 243.182043 165.764581 
L 245.114129 168.960321 
L 250.910389 179.796248 
L 252.842476 182.6451 
L 254.774562 184.522921 
L 256.706649 185.204212 
L 258.638735 184.808964 
L 260.570822 183.514825 
L 262.502909 181.499444 
L 264.434995 178.940469 
L 268.299168 172.901822 
L 272.163341 166.757539 
L 274.095428 164.033583 
L 276.027515 161.74581 
L 277.959601 160.047264 
L 279.891688 159.090988 
L 281.823774 158.990465 
L 283.755861 159.62213 
L 285.687947 160.774527 
L 291.484207 165.240093 
L 293.416294 166.360006 
L 295.34838 167.030587 
L 297.280467 167.303939 
L 299.212553 167.253582 
L 301.14464 166.953034 
L 305.008813 165.895442 
L 310.805073 164.153369 
L 312.737159 163.701619 
L 314.669246 163.370244 
L 316.601333 163.192745 
L 318.533419 163.202623 
L 320.465506 163.413807 
L 326.261765 164.433669 
L 328.193852 164.580743 
L 330.125938 164.470552 
L 332.058025 164.008215 
L 333.990112 163.195727 
L 339.786371 160.230538 
L 341.718458 159.61646 
L 343.650544 159.464655 
L 345.582631 159.917762 
L 347.514718 160.886874 
L 353.310977 164.628095 
L 355.243064 165.395553 
L 357.17515 165.544439 
L 359.107237 164.954347 
L 361.039324 163.855077 
L 364.903497 161.334778 
L 366.835583 160.516638 
L 368.76767 160.395097 
L 370.699756 161.262644 
L 372.631843 163.123495 
L 374.56393 165.638763 
L 378.428103 171.196886 
L 380.360189 173.52191 
L 382.292276 175.065689 
L 384.224362 175.518155 
L 386.156449 174.930262 
L 388.088536 173.514772 
L 390.020622 171.485212 
L 391.952709 169.055108 
L 395.816882 163.847235 
L 397.748968 161.44943 
L 399.681055 159.296396 
L 401.613142 157.422695 
L 403.545228 155.86289 
L 405.477315 154.651545 
L 407.409401 153.823222 
L 409.341488 153.410858 
L 411.273574 153.415259 
L 413.205661 153.807774 
L 415.137748 154.558665 
L 417.069834 155.638192 
L 419.001921 157.016616 
L 420.934007 158.664198 
L 424.79818 162.554826 
L 428.662354 166.546563 
L 430.59444 168.302505 
L 432.526527 169.750311 
L 434.458613 170.779485 
L 436.3907 171.34593 
L 438.322786 171.528756 
L 440.254873 171.420454 
L 444.119046 170.700441 
L 447.983219 169.925833 
L 449.915306 169.749288 
L 451.847392 169.836572 
L 453.779479 170.28018 
L 455.711565 171.172602 
L 457.643652 172.606332 
L 459.575739 174.673864 
L 459.575739 174.673864 
" clip-path="url(#p5de5f2c8b9)" style="fill: none; stroke: #bddf26; stroke-width: 1.8; stroke-linecap: square"/>
   </g>
   <g id="line2d_33">
    <path d="M 55.86625 165.644706 
L 478.8 165.644706 
" clip-path="url(#p5de5f2c8b9)" style="fill: none; stroke-dasharray: 5.55,2.4; stroke-dashoffset: 0; stroke: #808080; stroke-opacity: 0.5; stroke-width: 1.5"/>
   </g>
   <g id="patch_3">
    <path d="M 55.86625 281.86 
L 55.86625 10.8 
" style="fill: none; stroke: #000000; stroke-width: 0.8; stroke-linejoin: miter; stroke-linecap: square"/>
   </g>
   <g id="patch_4">
    <path d="M 478.8 281.86 
L 478.8 10.8 
" style="fill: none; stroke: #000000; stroke-width: 0.8; stroke-linejoin: miter; stroke-linecap: square"/>
   </g>
   <g id="patch_5">
    <path d="M 55.86625 281.86 
L 478.8 281.86 
" style="fill: none; stroke: #000000; stroke-width: 0.8; stroke-linejoin: miter; stroke-linecap: square"/>
   </g>
   <g id="patch_6">
    <path d="M 55.86625 10.8 
L 478.8 10.8 
" style="fill: none; stroke: #000000; stroke-width: 0.8; stroke-linejoin: miter; stroke-linecap: square"/>
   </g>
   <g id="legend_1">
    <g id="patch_7">
     <path d="M 350.56 277.86 
L 473.2 277.86 
Q 474.8 277.86 474.8 276.26 
L 474.8 197.86 
Q 474.8 196.26 473.2 196.26 
L 350.56 196.26 
Q 348.96 196.26 348.96 197.86 
L 348.96 276.26 
Q 348.96 277.86 350.56 277.86 
z
" style="fill: #ffffff; opacity: 0.8; stroke: #cccccc; stroke-linejoin: miter"/>
    </g>
    <g id="line2d_34">
     <path d="M 352.16 204.1 
L 360.16 204.1 
L 368.16 204.1 
" style="fill: none; stroke: #463480; stroke-width: 1.8; stroke-linecap: square"/>
    </g>
    <g id="text_16">
     <!-- [0%, 5%]  ($\overline{\Delta f_L}=-0.0892$) -->
     <g transform="translate(374.56 206.9)scale(0.08 -0.08)">
      <defs>
       <path id="TimesNewRomanPSMT-5b" d="M 1900 -1269 
L 525 -1269 
L 525 4334 
L 1900 4334 
L 1900 4088 
L 994 4088 
L 994 -1025 
L 1900 -1025 
L 1900 -1269 
z
" transform="scale(0.015625)"/>
       <path id="TimesNewRomanPSMT-25" d="M 4350 4334 
L 1263 -175 
L 984 -175 
L 4072 4334 
L 4350 4334 
z
M 1138 4334 
Q 1559 4334 1792 3984 
Q 2025 3634 2025 3181 
Q 2025 2638 1762 2341 
Q 1500 2044 1131 2044 
Q 884 2044 678 2180 
Q 472 2316 348 2584 
Q 225 2853 225 3181 
Q 225 3509 350 3786 
Q 475 4063 692 4198 
Q 909 4334 1138 4334 
z
M 1128 4159 
Q 969 4159 845 3971 
Q 722 3784 722 3184 
Q 722 2750 791 2522 
Q 844 2350 956 2256 
Q 1022 2200 1119 2200 
Q 1269 2200 1375 2363 
Q 1531 2603 1531 3166 
Q 1531 3759 1378 4000 
Q 1278 4159 1128 4159 
z
M 4206 2103 
Q 4428 2103 4648 1962 
Q 4869 1822 4989 1553 
Q 5109 1284 5109 963 
Q 5109 409 4843 117 
Q 4578 -175 4216 -175 
Q 3988 -175 3773 -34 
Q 3559 106 3436 367 
Q 3313 628 3313 963 
Q 3313 1291 3436 1562 
Q 3559 1834 3773 1968 
Q 3988 2103 4206 2103 
z
M 4209 1938 
Q 4059 1938 3950 1769 
Q 3809 1550 3809 941 
Q 3809 381 3953 159 
Q 4059 0 4209 0 
Q 4353 0 4466 172 
Q 4616 400 4616 956 
Q 4616 1544 4466 1778 
Q 4363 1938 4209 1938 
z
" transform="scale(0.015625)"/>
       <path id="TimesNewRomanPSMT-2c" d="M 344 -1066 
L 344 -928 
Q 666 -822 842 -598 
Q 1019 -375 1019 -125 
Q 1019 -66 991 -25 
Q 969 3 947 3 
Q 913 3 797 -59 
Q 741 -88 678 -88 
Q 525 -88 434 3 
Q 344 94 344 253 
Q 344 406 461 515 
Q 578 625 747 625 
Q 953 625 1114 445 
Q 1275 266 1275 -31 
Q 1275 -353 1051 -629 
Q 828 -906 344 -1066 
z
" transform="scale(0.015625)"/>
       <path id="TimesNewRomanPSMT-5d" d="M 234 4334 
L 1609 4334 
L 1609 -1272 
L 234 -1272 
L 234 -1025 
L 1141 -1025 
L 1141 4088 
L 234 4088 
L 234 4334 
z
" transform="scale(0.015625)"/>
       <path id="STIXGeneral-Italic-4c" d="M 3578 1152 
L 3206 0 
L -51 0 
L -51 102 
Q 218 128 301 211 
Q 384 294 474 602 
L 1254 3405 
Q 1325 3642 1325 3802 
Q 1325 3942 1225 4000 
Q 1126 4058 832 4077 
L 832 4179 
L 2579 4179 
L 2579 4077 
Q 2285 4058 2147 3955 
Q 2010 3853 1933 3584 
L 1165 838 
Q 1101 595 1101 493 
Q 1101 346 1241 288 
Q 1382 230 1773 230 
Q 2266 230 2480 275 
Q 2694 320 2925 474 
Q 3187 646 3450 1190 
L 3578 1152 
z
" transform="scale(0.015625)"/>
       <path id="STIXGeneral-Regular-3d" d="M 4077 2048 
L 307 2048 
L 307 2470 
L 4077 2470 
L 4077 2048 
z
M 4077 768 
L 307 768 
L 307 1190 
L 4077 1190 
L 4077 768 
z
" transform="scale(0.015625)"/>
       <path id="STIXGeneral-Regular-2212" d="M 3974 1408 
L 410 1408 
L 410 1830 
L 3974 1830 
L 3974 1408 
z
" transform="scale(0.015625)"/>
       <path id="STIXGeneral-Regular-30" d="M 3046 2112 
Q 3046 1683 2963 1302 
Q 2880 922 2717 602 
Q 2554 282 2266 96 
Q 1978 -90 1600 -90 
Q 1210 -90 915 108 
Q 621 307 461 640 
Q 301 973 227 1350 
Q 154 1728 154 2150 
Q 154 2746 301 3222 
Q 448 3699 790 4012 
Q 1133 4326 1626 4326 
Q 2253 4326 2649 3712 
Q 3046 3098 3046 2112 
z
M 2432 2080 
Q 2432 3091 2217 3625 
Q 2003 4160 1587 4160 
Q 1190 4160 979 3622 
Q 768 3085 768 2106 
Q 768 1120 979 598 
Q 1190 77 1600 77 
Q 2003 77 2217 598 
Q 2432 1120 2432 2080 
z
" transform="scale(0.015625)"/>
       <path id="STIXGeneral-Regular-2e" d="M 1158 275 
Q 1158 134 1052 32 
Q 947 -70 800 -70 
Q 653 -70 550 32 
Q 448 134 448 281 
Q 448 429 553 534 
Q 659 640 806 640 
Q 947 640 1052 531 
Q 1158 422 1158 275 
z
" transform="scale(0.015625)"/>
       <path id="STIXGeneral-Regular-38" d="M 2848 992 
Q 2848 499 2505 204 
Q 2163 -90 1587 -90 
Q 1050 -90 704 204 
Q 358 499 358 954 
Q 358 1293 524 1533 
Q 691 1773 1190 2125 
Q 710 2522 553 2765 
Q 397 3008 397 3328 
Q 397 3782 745 4054 
Q 1094 4326 1638 4326 
Q 2106 4326 2410 4060 
Q 2714 3795 2714 3411 
Q 2714 3059 2531 2848 
Q 2349 2637 1856 2374 
Q 2432 1990 2640 1689 
Q 2848 1389 2848 992 
z
M 2272 3411 
Q 2272 3744 2086 3945 
Q 1901 4147 1574 4147 
Q 1248 4147 1059 3977 
Q 870 3808 870 3513 
Q 870 3219 1059 2979 
Q 1248 2739 1670 2490 
Q 1997 2682 2134 2896 
Q 2272 3110 2272 3411 
z
M 1734 1741 
L 1357 1997 
Q 1075 1766 960 1545 
Q 845 1325 845 1011 
Q 845 576 1065 333 
Q 1286 90 1658 90 
Q 1971 90 2166 285 
Q 2362 480 2362 794 
Q 2362 1082 2214 1299 
Q 2067 1517 1734 1741 
z
" transform="scale(0.015625)"/>
       <path id="STIXGeneral-Regular-39" d="M 378 -141 
L 358 -13 
Q 1094 115 1603 608 
Q 2112 1101 2304 1882 
Q 1933 1517 1344 1517 
Q 826 1517 509 1875 
Q 192 2234 192 2816 
Q 192 3462 573 3894 
Q 954 4326 1523 4326 
Q 2131 4326 2528 3840 
Q 2938 3328 2938 2522 
Q 2938 1958 2742 1462 
Q 2547 966 2170 621 
Q 1773 262 1395 105 
Q 1018 -51 378 -141 
z
M 2317 2272 
L 2317 2522 
Q 2317 4147 1472 4147 
Q 1171 4147 1005 3930 
Q 909 3802 845 3546 
Q 781 3290 781 3034 
Q 781 2464 995 2128 
Q 1210 1792 1568 1792 
Q 1824 1792 2070 1917 
Q 2317 2042 2317 2272 
z
" transform="scale(0.015625)"/>
       <path id="STIXGeneral-Regular-32" d="M 3034 877 
L 2688 0 
L 186 0 
L 186 77 
L 1325 1286 
Q 1773 1754 1965 2144 
Q 2157 2534 2157 2950 
Q 2157 3379 1920 3616 
Q 1683 3853 1267 3853 
Q 922 3853 720 3673 
Q 518 3494 326 3021 
L 192 3053 
Q 301 3648 630 3987 
Q 960 4326 1523 4326 
Q 2054 4326 2380 4006 
Q 2707 3686 2707 3200 
Q 2707 2477 1888 1613 
L 832 486 
L 2330 486 
Q 2541 486 2665 569 
Q 2790 653 2944 915 
L 3034 877 
z
" transform="scale(0.015625)"/>
      </defs>
      <use xlink:href="#TimesNewRomanPSMT-5b" transform="translate(0 0.453125)"/>
      <use xlink:href="#TimesNewRomanPSMT-30" transform="translate(33.300781 0.453125)"/>
      <use xlink:href="#TimesNewRomanPSMT-25" transform="translate(83.300781 0.453125)"/>
      <use xlink:href="#TimesNewRomanPSMT-2c" transform="translate(166.601562 0.453125)"/>
      <use xlink:href="#TimesNewRomanPSMT-20" transform="translate(191.601562 0.453125)"/>
      <use xlink:href="#TimesNewRomanPSMT-35" transform="translate(216.601562 0.453125)"/>
      <use xlink:href="#TimesNewRomanPSMT-25" transform="translate(266.601562 0.453125)"/>
      <use xlink:href="#TimesNewRomanPSMT-5d" transform="translate(349.902344 0.453125)"/>
      <use xlink:href="#TimesNewRomanPSMT-20" transform="translate(383.203125 0.453125)"/>
      <use xlink:href="#TimesNewRomanPSMT-20" transform="translate(408.203125 0.453125)"/>
      <use xlink:href="#TimesNewRomanPSMT-28" transform="translate(433.203125 0.453125)"/>
      <use xlink:href="#STIXGeneral-Regular-394" transform="translate(466.503906 0.953125)"/>
      <use xlink:href="#STIXGeneral-Italic-66" transform="translate(538.703888 0.953125)"/>
      <use xlink:href="#STIXGeneral-Italic-4c" transform="translate(566.503876 -12.275)scale(0.7)"/>
      <use xlink:href="#STIXGeneral-Regular-3d" transform="translate(624.273241 0.453125)"/>
      <use xlink:href="#STIXGeneral-Regular-2212" transform="translate(721.653218 0.453125)"/>
      <use xlink:href="#STIXGeneral-Regular-30" transform="translate(804.593199 0.453125)"/>
      <use xlink:href="#STIXGeneral-Regular-2e" transform="translate(854.593184 0.453125)"/>
      <use xlink:href="#STIXGeneral-Regular-30" transform="translate(879.593169 0.453125)"/>
      <use xlink:href="#STIXGeneral-Regular-38" transform="translate(929.593153 0.453125)"/>
      <use xlink:href="#STIXGeneral-Regular-39" transform="translate(979.593138 0.453125)"/>
      <use xlink:href="#STIXGeneral-Regular-32" transform="translate(1029.593123 0.453125)"/>
      <use xlink:href="#TimesNewRomanPSMT-29" transform="translate(1079.593108 0.453125)"/>
      <path d="M 466.503906 80.5 
L 466.503906 86.75 
L 609.833244 86.75 
L 609.833244 80.5 
L 466.503906 80.5 
z
"/>
     </g>
    </g>
    <g id="line2d_35">
     <path d="M 352.16 217.3 
L 360.16 217.3 
L 368.16 217.3 
" style="fill: none; stroke: #355f8d; stroke-width: 1.8; stroke-linecap: square"/>
    </g>
    <g id="text_17">
     <!-- [5%, 15%]  ($\overline{\Delta f_L}=-0.0489$) -->
     <g transform="translate(374.56 220.1)scale(0.08 -0.08)">
      <defs>
       <path id="STIXGeneral-Regular-34" d="M 3027 1069 
L 2368 1069 
L 2368 0 
L 1869 0 
L 1869 1069 
L 77 1069 
L 77 1478 
L 2086 4326 
L 2368 4326 
L 2368 1478 
L 3027 1478 
L 3027 1069 
z
M 1869 1478 
L 1869 3674 
L 333 1478 
L 1869 1478 
z
" transform="scale(0.015625)"/>
      </defs>
      <use xlink:href="#TimesNewRomanPSMT-5b" transform="translate(0 0.453125)"/>
      <use xlink:href="#TimesNewRomanPSMT-35" transform="translate(33.300781 0.453125)"/>
      <use xlink:href="#TimesNewRomanPSMT-25" transform="translate(83.300781 0.453125)"/>
      <use xlink:href="#TimesNewRomanPSMT-2c" transform="translate(166.601562 0.453125)"/>
      <use xlink:href="#TimesNewRomanPSMT-20" transform="translate(191.601562 0.453125)"/>
      <use xlink:href="#TimesNewRomanPSMT-31" transform="translate(216.601562 0.453125)"/>
      <use xlink:href="#TimesNewRomanPSMT-35" transform="translate(266.601562 0.453125)"/>
      <use xlink:href="#TimesNewRomanPSMT-25" transform="translate(316.601562 0.453125)"/>
      <use xlink:href="#TimesNewRomanPSMT-5d" transform="translate(399.902344 0.453125)"/>
      <use xlink:href="#TimesNewRomanPSMT-20" transform="translate(433.203125 0.453125)"/>
      <use xlink:href="#TimesNewRomanPSMT-20" transform="translate(458.203125 0.453125)"/>
      <use xlink:href="#TimesNewRomanPSMT-28" transform="translate(483.203125 0.453125)"/>
      <use xlink:href="#STIXGeneral-Regular-394" transform="translate(516.503906 0.953125)"/>
      <use xlink:href="#STIXGeneral-Italic-66" transform="translate(588.703888 0.953125)"/>
      <use xlink:href="#STIXGeneral-Italic-4c" transform="translate(616.503876 -12.275)scale(0.7)"/>
      <use xlink:href="#STIXGeneral-Regular-3d" transform="translate(674.273241 0.453125)"/>
      <use xlink:href="#STIXGeneral-Regular-2212" transform="translate(771.653218 0.453125)"/>
      <use xlink:href="#STIXGeneral-Regular-30" transform="translate(854.593199 0.453125)"/>
      <use xlink:href="#STIXGeneral-Regular-2e" transform="translate(904.593184 0.453125)"/>
      <use xlink:href="#STIXGeneral-Regular-30" transform="translate(929.593169 0.453125)"/>
      <use xlink:href="#STIXGeneral-Regular-34" transform="translate(979.593153 0.453125)"/>
      <use xlink:href="#STIXGeneral-Regular-38" transform="translate(1029.593138 0.453125)"/>
      <use xlink:href="#STIXGeneral-Regular-39" transform="translate(1079.593123 0.453125)"/>
      <use xlink:href="#TimesNewRomanPSMT-29" transform="translate(1129.593108 0.453125)"/>
      <path d="M 516.503906 80.5 
L 516.503906 86.75 
L 659.833244 86.75 
L 659.833244 80.5 
L 516.503906 80.5 
z
"/>
     </g>
    </g>
    <g id="line2d_36">
     <path d="M 352.16 230.5 
L 360.16 230.5 
L 368.16 230.5 
" style="fill: none; stroke: #25848e; stroke-width: 1.8; stroke-linecap: square"/>
    </g>
    <g id="text_18">
     <!-- [15%, 25%]  ($\overline{\Delta f_L}=-0.0297$) -->
     <g transform="translate(374.56 233.3)scale(0.08 -0.08)">
      <defs>
       <path id="STIXGeneral-Regular-37" d="M 2874 4134 
L 1517 -51 
L 1101 -51 
L 2368 3763 
L 992 3763 
Q 717 3763 582 3667 
Q 448 3571 243 3238 
L 128 3296 
L 512 4237 
L 2874 4237 
L 2874 4134 
z
" transform="scale(0.015625)"/>
      </defs>
      <use xlink:href="#TimesNewRomanPSMT-5b" transform="translate(0 0.453125)"/>
      <use xlink:href="#TimesNewRomanPSMT-31" transform="translate(33.300781 0.453125)"/>
      <use xlink:href="#TimesNewRomanPSMT-35" transform="translate(83.300781 0.453125)"/>
      <use xlink:href="#TimesNewRomanPSMT-25" transform="translate(133.300781 0.453125)"/>
      <use xlink:href="#TimesNewRomanPSMT-2c" transform="translate(216.601562 0.453125)"/>
      <use xlink:href="#TimesNewRomanPSMT-20" transform="translate(241.601562 0.453125)"/>
      <use xlink:href="#TimesNewRomanPSMT-32" transform="translate(266.601562 0.453125)"/>
      <use xlink:href="#TimesNewRomanPSMT-35" transform="translate(316.601562 0.453125)"/>
      <use xlink:href="#TimesNewRomanPSMT-25" transform="translate(366.601562 0.453125)"/>
      <use xlink:href="#TimesNewRomanPSMT-5d" transform="translate(449.902344 0.453125)"/>
      <use xlink:href="#TimesNewRomanPSMT-20" transform="translate(483.203125 0.453125)"/>
      <use xlink:href="#TimesNewRomanPSMT-20" transform="translate(508.203125 0.453125)"/>
      <use xlink:href="#TimesNewRomanPSMT-28" transform="translate(533.203125 0.453125)"/>
      <use xlink:href="#STIXGeneral-Regular-394" transform="translate(566.503906 0.953125)"/>
      <use xlink:href="#STIXGeneral-Italic-66" transform="translate(638.703888 0.953125)"/>
      <use xlink:href="#STIXGeneral-Italic-4c" transform="translate(666.503876 -12.275)scale(0.7)"/>
      <use xlink:href="#STIXGeneral-Regular-3d" transform="translate(724.273241 0.453125)"/>
      <use xlink:href="#STIXGeneral-Regular-2212" transform="translate(821.653218 0.453125)"/>
      <use xlink:href="#STIXGeneral-Regular-30" transform="translate(904.593199 0.453125)"/>
      <use xlink:href="#STIXGeneral-Regular-2e" transform="translate(954.593184 0.453125)"/>
      <use xlink:href="#STIXGeneral-Regular-30" transform="translate(979.593169 0.453125)"/>
      <use xlink:href="#STIXGeneral-Regular-32" transform="translate(1029.593153 0.453125)"/>
      <use xlink:href="#STIXGeneral-Regular-39" transform="translate(1079.593138 0.453125)"/>
      <use xlink:href="#STIXGeneral-Regular-37" transform="translate(1129.593123 0.453125)"/>
      <use xlink:href="#TimesNewRomanPSMT-29" transform="translate(1179.593108 0.453125)"/>
      <path d="M 566.503906 80.5 
L 566.503906 86.75 
L 709.833244 86.75 
L 709.833244 80.5 
L 566.503906 80.5 
z
"/>
     </g>
    </g>
    <g id="line2d_37">
     <path d="M 352.16 243.7 
L 360.16 243.7 
L 368.16 243.7 
" style="fill: none; stroke: #22a884; stroke-width: 1.8; stroke-linecap: square"/>
    </g>
    <g id="text_19">
     <!-- [75%, 85%]  ($\overline{\Delta f_L}=0.0296$) -->
     <g transform="translate(374.56 246.5)scale(0.08 -0.08)">
      <defs>
       <path id="TimesNewRomanPSMT-37" d="M 644 4238 
L 2916 4238 
L 2916 4119 
L 1503 -88 
L 1153 -88 
L 2419 3728 
L 1253 3728 
Q 900 3728 750 3644 
Q 488 3500 328 3200 
L 238 3234 
L 644 4238 
z
" transform="scale(0.015625)"/>
       <path id="TimesNewRomanPSMT-38" d="M 1228 2134 
Q 725 2547 579 2797 
Q 434 3047 434 3316 
Q 434 3728 753 4026 
Q 1072 4325 1600 4325 
Q 2113 4325 2425 4047 
Q 2738 3769 2738 3413 
Q 2738 3175 2569 2928 
Q 2400 2681 1866 2347 
Q 2416 1922 2594 1678 
Q 2831 1359 2831 1006 
Q 2831 559 2490 242 
Q 2150 -75 1597 -75 
Q 994 -75 656 303 
Q 388 606 388 966 
Q 388 1247 577 1523 
Q 766 1800 1228 2134 
z
M 1719 2469 
Q 2094 2806 2194 3001 
Q 2294 3197 2294 3444 
Q 2294 3772 2109 3958 
Q 1925 4144 1606 4144 
Q 1288 4144 1088 3959 
Q 888 3775 888 3528 
Q 888 3366 970 3203 
Q 1053 3041 1206 2894 
L 1719 2469 
z
M 1375 2016 
Q 1116 1797 991 1539 
Q 866 1281 866 981 
Q 866 578 1086 336 
Q 1306 94 1647 94 
Q 1984 94 2187 284 
Q 2391 475 2391 747 
Q 2391 972 2272 1150 
Q 2050 1481 1375 2016 
z
" transform="scale(0.015625)"/>
       <path id="STIXGeneral-Regular-36" d="M 2854 4378 
L 2867 4275 
Q 2112 4154 1606 3664 
Q 1101 3174 973 2451 
Q 1344 2739 1786 2739 
Q 2349 2739 2672 2380 
Q 2995 2022 2995 1402 
Q 2995 774 2669 378 
Q 2291 -90 1651 -90 
Q 870 -90 518 557 
Q 218 1107 218 1786 
Q 218 2835 915 3552 
Q 1312 3962 1731 4131 
Q 2150 4301 2854 4378 
z
M 2419 1203 
Q 2419 2445 1555 2445 
Q 1235 2445 1024 2275 
Q 813 2106 813 1702 
Q 813 954 1046 522 
Q 1280 90 1722 90 
Q 2061 90 2240 394 
Q 2419 698 2419 1203 
z
" transform="scale(0.015625)"/>
      </defs>
      <use xlink:href="#TimesNewRomanPSMT-5b" transform="translate(0 0.453125)"/>
      <use xlink:href="#TimesNewRomanPSMT-37" transform="translate(33.300781 0.453125)"/>
      <use xlink:href="#TimesNewRomanPSMT-35" transform="translate(83.300781 0.453125)"/>
      <use xlink:href="#TimesNewRomanPSMT-25" transform="translate(133.300781 0.453125)"/>
      <use xlink:href="#TimesNewRomanPSMT-2c" transform="translate(216.601562 0.453125)"/>
      <use xlink:href="#TimesNewRomanPSMT-20" transform="translate(241.601562 0.453125)"/>
      <use xlink:href="#TimesNewRomanPSMT-38" transform="translate(266.601562 0.453125)"/>
      <use xlink:href="#TimesNewRomanPSMT-35" transform="translate(316.601562 0.453125)"/>
      <use xlink:href="#TimesNewRomanPSMT-25" transform="translate(366.601562 0.453125)"/>
      <use xlink:href="#TimesNewRomanPSMT-5d" transform="translate(449.902344 0.453125)"/>
      <use xlink:href="#TimesNewRomanPSMT-20" transform="translate(483.203125 0.453125)"/>
      <use xlink:href="#TimesNewRomanPSMT-20" transform="translate(508.203125 0.453125)"/>
      <use xlink:href="#TimesNewRomanPSMT-28" transform="translate(533.203125 0.453125)"/>
      <use xlink:href="#STIXGeneral-Regular-394" transform="translate(566.503906 0.953125)"/>
      <use xlink:href="#STIXGeneral-Italic-66" transform="translate(638.703888 0.953125)"/>
      <use xlink:href="#STIXGeneral-Italic-4c" transform="translate(666.503876 -12.275)scale(0.7)"/>
      <use xlink:href="#STIXGeneral-Regular-3d" transform="translate(724.273241 0.453125)"/>
      <use xlink:href="#STIXGeneral-Regular-30" transform="translate(807.213222 0.453125)"/>
      <use xlink:href="#STIXGeneral-Regular-2e" transform="translate(857.213206 0.453125)"/>
      <use xlink:href="#STIXGeneral-Regular-30" transform="translate(882.213191 0.453125)"/>
      <use xlink:href="#STIXGeneral-Regular-32" transform="translate(932.213176 0.453125)"/>
      <use xlink:href="#STIXGeneral-Regular-39" transform="translate(982.213161 0.453125)"/>
      <use xlink:href="#STIXGeneral-Regular-36" transform="translate(1032.213145 0.453125)"/>
      <use xlink:href="#TimesNewRomanPSMT-29" transform="translate(1082.21313 0.453125)"/>
      <path d="M 566.503906 80.5 
L 566.503906 86.75 
L 709.833244 86.75 
L 709.833244 80.5 
L 566.503906 80.5 
z
"/>
     </g>
    </g>
    <g id="line2d_38">
     <path d="M 352.16 256.9 
L 360.16 256.9 
L 368.16 256.9 
" style="fill: none; stroke: #5ec962; stroke-width: 1.8; stroke-linecap: square"/>
    </g>
    <g id="text_20">
     <!-- [85%, 95%]  ($\overline{\Delta f_L}=0.0487$) -->
     <g transform="translate(374.56 259.7)scale(0.08 -0.08)">
      <defs>
       <path id="TimesNewRomanPSMT-39" d="M 338 -88 
L 338 28 
Q 744 34 1094 217 
Q 1444 400 1770 856 
Q 2097 1313 2225 1859 
Q 1734 1544 1338 1544 
Q 891 1544 572 1889 
Q 253 2234 253 2806 
Q 253 3363 572 3797 
Q 956 4325 1575 4325 
Q 2097 4325 2469 3894 
Q 2925 3359 2925 2575 
Q 2925 1869 2578 1258 
Q 2231 647 1613 244 
Q 1109 -88 516 -88 
L 338 -88 
z
M 2275 2091 
Q 2331 2497 2331 2741 
Q 2331 3044 2228 3395 
Q 2125 3747 1936 3934 
Q 1747 4122 1506 4122 
Q 1228 4122 1018 3872 
Q 809 3622 809 3128 
Q 809 2469 1088 2097 
Q 1291 1828 1588 1828 
Q 1731 1828 1928 1897 
Q 2125 1966 2275 2091 
z
" transform="scale(0.015625)"/>
      </defs>
      <use xlink:href="#TimesNewRomanPSMT-5b" transform="translate(0 0.453125)"/>
      <use xlink:href="#TimesNewRomanPSMT-38" transform="translate(33.300781 0.453125)"/>
      <use xlink:href="#TimesNewRomanPSMT-35" transform="translate(83.300781 0.453125)"/>
      <use xlink:href="#TimesNewRomanPSMT-25" transform="translate(133.300781 0.453125)"/>
      <use xlink:href="#TimesNewRomanPSMT-2c" transform="translate(216.601562 0.453125)"/>
      <use xlink:href="#TimesNewRomanPSMT-20" transform="translate(241.601562 0.453125)"/>
      <use xlink:href="#TimesNewRomanPSMT-39" transform="translate(266.601562 0.453125)"/>
      <use xlink:href="#TimesNewRomanPSMT-35" transform="translate(316.601562 0.453125)"/>
      <use xlink:href="#TimesNewRomanPSMT-25" transform="translate(366.601562 0.453125)"/>
      <use xlink:href="#TimesNewRomanPSMT-5d" transform="translate(449.902344 0.453125)"/>
      <use xlink:href="#TimesNewRomanPSMT-20" transform="translate(483.203125 0.453125)"/>
      <use xlink:href="#TimesNewRomanPSMT-20" transform="translate(508.203125 0.453125)"/>
      <use xlink:href="#TimesNewRomanPSMT-28" transform="translate(533.203125 0.453125)"/>
      <use xlink:href="#STIXGeneral-Regular-394" transform="translate(566.503906 0.953125)"/>
      <use xlink:href="#STIXGeneral-Italic-66" transform="translate(638.703888 0.953125)"/>
      <use xlink:href="#STIXGeneral-Italic-4c" transform="translate(666.503876 -12.275)scale(0.7)"/>
      <use xlink:href="#STIXGeneral-Regular-3d" transform="translate(724.273241 0.453125)"/>
      <use xlink:href="#STIXGeneral-Regular-30" transform="translate(807.213222 0.453125)"/>
      <use xlink:href="#STIXGeneral-Regular-2e" transform="translate(857.213206 0.453125)"/>
      <use xlink:href="#STIXGeneral-Regular-30" transform="translate(882.213191 0.453125)"/>
      <use xlink:href="#STIXGeneral-Regular-34" transform="translate(932.213176 0.453125)"/>
      <use xlink:href="#STIXGeneral-Regular-38" transform="translate(982.213161 0.453125)"/>
      <use xlink:href="#STIXGeneral-Regular-37" transform="translate(1032.213145 0.453125)"/>
      <use xlink:href="#TimesNewRomanPSMT-29" transform="translate(1082.21313 0.453125)"/>
      <path d="M 566.503906 80.5 
L 566.503906 86.75 
L 709.833244 86.75 
L 709.833244 80.5 
L 566.503906 80.5 
z
"/>
     </g>
    </g>
    <g id="line2d_39">
     <path d="M 352.16 270.1 
L 360.16 270.1 
L 368.16 270.1 
" style="fill: none; stroke: #bddf26; stroke-width: 1.8; stroke-linecap: square"/>
    </g>
    <g id="text_21">
     <!-- [95%, 100%]  ($\overline{\Delta f_L}=0.0846$) -->
     <g transform="translate(374.56 272.9)scale(0.08 -0.08)">
      <use xlink:href="#TimesNewRomanPSMT-5b" transform="translate(0 0.453125)"/>
      <use xlink:href="#TimesNewRomanPSMT-39" transform="translate(33.300781 0.453125)"/>
      <use xlink:href="#TimesNewRomanPSMT-35" transform="translate(83.300781 0.453125)"/>
      <use xlink:href="#TimesNewRomanPSMT-25" transform="translate(133.300781 0.453125)"/>
      <use xlink:href="#TimesNewRomanPSMT-2c" transform="translate(216.601562 0.453125)"/>
      <use xlink:href="#TimesNewRomanPSMT-20" transform="translate(241.601562 0.453125)"/>
      <use xlink:href="#TimesNewRomanPSMT-31" transform="translate(266.601562 0.453125)"/>
      <use xlink:href="#TimesNewRomanPSMT-30" transform="translate(316.601562 0.453125)"/>
      <use xlink:href="#TimesNewRomanPSMT-30" transform="translate(366.601562 0.453125)"/>
      <use xlink:href="#TimesNewRomanPSMT-25" transform="translate(416.601562 0.453125)"/>
      <use xlink:href="#TimesNewRomanPSMT-5d" transform="translate(499.902344 0.453125)"/>
      <use xlink:href="#TimesNewRomanPSMT-20" transform="translate(533.203125 0.453125)"/>
      <use xlink:href="#TimesNewRomanPSMT-20" transform="translate(558.203125 0.453125)"/>
      <use xlink:href="#TimesNewRomanPSMT-28" transform="translate(583.203125 0.453125)"/>
      <use xlink:href="#STIXGeneral-Regular-394" transform="translate(616.503906 0.953125)"/>
      <use xlink:href="#STIXGeneral-Italic-66" transform="translate(688.703888 0.953125)"/>
      <use xlink:href="#STIXGeneral-Italic-4c" transform="translate(716.503876 -12.275)scale(0.7)"/>
      <use xlink:href="#STIXGeneral-Regular-3d" transform="translate(774.273241 0.453125)"/>
      <use xlink:href="#STIXGeneral-Regular-30" transform="translate(857.213222 0.453125)"/>
      <use xlink:href="#STIXGeneral-Regular-2e" transform="translate(907.213206 0.453125)"/>
      <use xlink:href="#STIXGeneral-Regular-30" transform="translate(932.213191 0.453125)"/>
      <use xlink:href="#STIXGeneral-Regular-38" transform="translate(982.213176 0.453125)"/>
      <use xlink:href="#STIXGeneral-Regular-34" transform="translate(1032.213161 0.453125)"/>
      <use xlink:href="#STIXGeneral-Regular-36" transform="translate(1082.213145 0.453125)"/>
      <use xlink:href="#TimesNewRomanPSMT-29" transform="translate(1132.21313 0.453125)"/>
      <path d="M 616.503906 80.5 
L 616.503906 86.75 
L 759.833244 86.75 
L 759.833244 80.5 
L 616.503906 80.5 
z
"/>
     </g>
    </g>
   </g>
  </g>
  <g id="axes_2">
   <g id="patch_8">
    <path d="M 327.002525 121.8028 
L 470.8 121.8028 
L 470.8 18.8 
L 327.002525 18.8 
z
" style="fill: #ffffff; opacity: 0.95"/>
   </g>
   <g id="matplotlib.axis_3">
    <g id="xtick_8">
     <g id="line2d_40">
      <g>
       <use xlink:href="#m19150e689a" x="362.98899" y="121.8028" style="stroke: #000000; stroke-width: 0.8"/>
      </g>
     </g>
     <g id="text_22">
      <!-- -0.05 -->
      <g transform="translate(354.657115 134.3578)scale(0.08 -0.08)">
       <use xlink:href="#TimesNewRomanPSMT-2d"/>
       <use xlink:href="#TimesNewRomanPSMT-30" x="33.300781"/>
       <use xlink:href="#TimesNewRomanPSMT-2e" x="83.300781"/>
       <use xlink:href="#TimesNewRomanPSMT-30" x="108.300781"/>
       <use xlink:href="#TimesNewRomanPSMT-35" x="158.300781"/>
      </g>
     </g>
    </g>
    <g id="xtick_9">
     <g id="line2d_41">
      <g>
       <use xlink:href="#m19150e689a" x="400.598098" y="121.8028" style="stroke: #000000; stroke-width: 0.8"/>
      </g>
     </g>
     <g id="text_23">
      <!-- 0.00 -->
      <g transform="translate(393.598098 134.3578)scale(0.08 -0.08)">
       <use xlink:href="#TimesNewRomanPSMT-30"/>
       <use xlink:href="#TimesNewRomanPSMT-2e" x="50"/>
       <use xlink:href="#TimesNewRomanPSMT-30" x="75"/>
       <use xlink:href="#TimesNewRomanPSMT-30" x="125"/>
      </g>
     </g>
    </g>
    <g id="xtick_10">
     <g id="line2d_42">
      <g>
       <use xlink:href="#m19150e689a" x="438.207206" y="121.8028" style="stroke: #000000; stroke-width: 0.8"/>
      </g>
     </g>
     <g id="text_24">
      <!-- 0.05 -->
      <g transform="translate(431.207206 134.3578)scale(0.08 -0.08)">
       <use xlink:href="#TimesNewRomanPSMT-30"/>
       <use xlink:href="#TimesNewRomanPSMT-2e" x="50"/>
       <use xlink:href="#TimesNewRomanPSMT-30" x="75"/>
       <use xlink:href="#TimesNewRomanPSMT-35" x="125"/>
      </g>
     </g>
    </g>
    <g id="text_25">
     <!-- $\overline{\Delta f_L}$ -->
     <g transform="translate(393.141262 147.4778)scale(0.08 -0.08)">
      <use xlink:href="#STIXGeneral-Regular-394" transform="translate(0 0.953125)"/>
      <use xlink:href="#STIXGeneral-Italic-66" transform="translate(72.199982 0.953125)"/>
      <use xlink:href="#STIXGeneral-Italic-4c" transform="translate(99.999969 -12.275)scale(0.7)"/>
      <path d="M 0 80.5 
L 0 86.75 
L 143.329338 86.75 
L 143.329338 80.5 
L 0 80.5 
z
"/>
     </g>
    </g>
   </g>
   <g id="matplotlib.axis_4">
    <g id="ytick_7">
     <g id="line2d_43">
      <g>
       <use xlink:href="#mcfec135ccc" x="327.002525" y="110.662999" style="stroke: #000000; stroke-width: 0.8"/>
      </g>
     </g>
     <g id="text_26">
      <!-- [0%, 5%] -->
      <g transform="translate(289.347525 113.440499)scale(0.08 -0.08)">
       <use xlink:href="#TimesNewRomanPSMT-5b"/>
       <use xlink:href="#TimesNewRomanPSMT-30" x="33.300781"/>
       <use xlink:href="#TimesNewRomanPSMT-25" x="83.300781"/>
       <use xlink:href="#TimesNewRomanPSMT-2c" x="166.601562"/>
       <use xlink:href="#TimesNewRomanPSMT-20" x="191.601562"/>
       <use xlink:href="#TimesNewRomanPSMT-35" x="216.601562"/>
       <use xlink:href="#TimesNewRomanPSMT-25" x="266.601562"/>
       <use xlink:href="#TimesNewRomanPSMT-5d" x="349.902344"/>
      </g>
     </g>
    </g>
    <g id="ytick_8">
     <g id="line2d_44">
      <g>
       <use xlink:href="#mcfec135ccc" x="327.002525" y="94.518359" style="stroke: #000000; stroke-width: 0.8"/>
      </g>
     </g>
     <g id="text_27">
      <!-- [5%, 15%] -->
      <g transform="translate(285.347525 97.295859)scale(0.08 -0.08)">
       <use xlink:href="#TimesNewRomanPSMT-5b"/>
       <use xlink:href="#TimesNewRomanPSMT-35" x="33.300781"/>
       <use xlink:href="#TimesNewRomanPSMT-25" x="83.300781"/>
       <use xlink:href="#TimesNewRomanPSMT-2c" x="166.601562"/>
       <use xlink:href="#TimesNewRomanPSMT-20" x="191.601562"/>
       <use xlink:href="#TimesNewRomanPSMT-31" x="216.601562"/>
       <use xlink:href="#TimesNewRomanPSMT-35" x="266.601562"/>
       <use xlink:href="#TimesNewRomanPSMT-25" x="316.601562"/>
       <use xlink:href="#TimesNewRomanPSMT-5d" x="399.902344"/>
      </g>
     </g>
    </g>
    <g id="ytick_9">
     <g id="line2d_45">
      <g>
       <use xlink:href="#mcfec135ccc" x="327.002525" y="78.37372" style="stroke: #000000; stroke-width: 0.8"/>
      </g>
     </g>
     <g id="text_28">
      <!-- [15%, 25%] -->
      <g transform="translate(281.347525 81.15122)scale(0.08 -0.08)">
       <use xlink:href="#TimesNewRomanPSMT-5b"/>
       <use xlink:href="#TimesNewRomanPSMT-31" x="33.300781"/>
       <use xlink:href="#TimesNewRomanPSMT-35" x="83.300781"/>
       <use xlink:href="#TimesNewRomanPSMT-25" x="133.300781"/>
       <use xlink:href="#TimesNewRomanPSMT-2c" x="216.601562"/>
       <use xlink:href="#TimesNewRomanPSMT-20" x="241.601562"/>
       <use xlink:href="#TimesNewRomanPSMT-32" x="266.601562"/>
       <use xlink:href="#TimesNewRomanPSMT-35" x="316.601562"/>
       <use xlink:href="#TimesNewRomanPSMT-25" x="366.601562"/>
       <use xlink:href="#TimesNewRomanPSMT-5d" x="449.902344"/>
      </g>
     </g>
    </g>
    <g id="ytick_10">
     <g id="line2d_46">
      <g>
       <use xlink:href="#mcfec135ccc" x="327.002525" y="62.22908" style="stroke: #000000; stroke-width: 0.8"/>
      </g>
     </g>
     <g id="text_29">
      <!-- [75%, 85%] -->
      <g transform="translate(281.347525 65.00658)scale(0.08 -0.08)">
       <use xlink:href="#TimesNewRomanPSMT-5b"/>
       <use xlink:href="#TimesNewRomanPSMT-37" x="33.300781"/>
       <use xlink:href="#TimesNewRomanPSMT-35" x="83.300781"/>
       <use xlink:href="#TimesNewRomanPSMT-25" x="133.300781"/>
       <use xlink:href="#TimesNewRomanPSMT-2c" x="216.601562"/>
       <use xlink:href="#TimesNewRomanPSMT-20" x="241.601562"/>
       <use xlink:href="#TimesNewRomanPSMT-38" x="266.601562"/>
       <use xlink:href="#TimesNewRomanPSMT-35" x="316.601562"/>
       <use xlink:href="#TimesNewRomanPSMT-25" x="366.601562"/>
       <use xlink:href="#TimesNewRomanPSMT-5d" x="449.902344"/>
      </g>
     </g>
    </g>
    <g id="ytick_11">
     <g id="line2d_47">
      <g>
       <use xlink:href="#mcfec135ccc" x="327.002525" y="46.084441" style="stroke: #000000; stroke-width: 0.8"/>
      </g>
     </g>
     <g id="text_30">
      <!-- [85%, 95%] -->
      <g transform="translate(281.347525 48.861941)scale(0.08 -0.08)">
       <use xlink:href="#TimesNewRomanPSMT-5b"/>
       <use xlink:href="#TimesNewRomanPSMT-38" x="33.300781"/>
       <use xlink:href="#TimesNewRomanPSMT-35" x="83.300781"/>
       <use xlink:href="#TimesNewRomanPSMT-25" x="133.300781"/>
       <use xlink:href="#TimesNewRomanPSMT-2c" x="216.601562"/>
       <use xlink:href="#TimesNewRomanPSMT-20" x="241.601562"/>
       <use xlink:href="#TimesNewRomanPSMT-39" x="266.601562"/>
       <use xlink:href="#TimesNewRomanPSMT-35" x="316.601562"/>
       <use xlink:href="#TimesNewRomanPSMT-25" x="366.601562"/>
       <use xlink:href="#TimesNewRomanPSMT-5d" x="449.902344"/>
      </g>
     </g>
    </g>
    <g id="ytick_12">
     <g id="line2d_48">
      <g>
       <use xlink:href="#mcfec135ccc" x="327.002525" y="29.939801" style="stroke: #000000; stroke-width: 0.8"/>
      </g>
     </g>
     <g id="text_31">
      <!-- [95%, 100%] -->
      <g transform="translate(277.347525 32.717301)scale(0.08 -0.08)">
       <use xlink:href="#TimesNewRomanPSMT-5b"/>
       <use xlink:href="#TimesNewRomanPSMT-39" x="33.300781"/>
       <use xlink:href="#TimesNewRomanPSMT-35" x="83.300781"/>
       <use xlink:href="#TimesNewRomanPSMT-25" x="133.300781"/>
       <use xlink:href="#TimesNewRomanPSMT-2c" x="216.601562"/>
       <use xlink:href="#TimesNewRomanPSMT-20" x="241.601562"/>
       <use xlink:href="#TimesNewRomanPSMT-31" x="266.601562"/>
       <use xlink:href="#TimesNewRomanPSMT-30" x="316.601562"/>
       <use xlink:href="#TimesNewRomanPSMT-30" x="366.601562"/>
       <use xlink:href="#TimesNewRomanPSMT-25" x="416.601562"/>
       <use xlink:href="#TimesNewRomanPSMT-5d" x="499.902344"/>
      </g>
     </g>
    </g>
   </g>
   <g id="patch_9">
    <path d="M 327.002525 121.8028 
L 327.002525 18.8 
" style="fill: none; stroke: #000000; stroke-width: 0.8; stroke-linejoin: miter; stroke-linecap: square"/>
   </g>
   <g id="patch_10">
    <path d="M 470.8 121.8028 
L 470.8 18.8 
" style="fill: none; stroke: #000000; stroke-width: 0.8; stroke-linejoin: miter; stroke-linecap: square"/>
   </g>
   <g id="patch_11">
    <path d="M 327.002525 121.8028 
L 470.8 121.8028 
" style="fill: none; stroke: #000000; stroke-width: 0.8; stroke-linejoin: miter; stroke-linecap: square"/>
   </g>
   <g id="patch_12">
    <path d="M 327.002525 18.8 
L 470.8 18.8 
" style="fill: none; stroke: #000000; stroke-width: 0.8; stroke-linejoin: miter; stroke-linecap: square"/>
   </g>
   <g id="line2d_49">
    <path d="M 400.598098 121.8028 
L 400.598098 18.8 
" clip-path="url(#p17ab09990f)" style="fill: none; stroke: #808080; stroke-opacity: 0.6; stroke-linecap: square"/>
   </g>
   <g id="patch_13">
    <path d="M 400.598098 117.120855 
L 333.538774 117.120855 
L 333.538774 104.205143 
L 400.598098 104.205143 
z
" clip-path="url(#p17ab09990f)" style="fill: #463480; opacity: 0.95"/>
   </g>
   <g id="patch_14">
    <path d="M 400.598098 100.976215 
L 363.836248 100.976215 
L 363.836248 88.060503 
L 400.598098 88.060503 
z
" clip-path="url(#p17ab09990f)" style="fill: #355f8d; opacity: 0.95"/>
   </g>
   <g id="patch_15">
    <path d="M 400.598098 84.831576 
L 378.268307 84.831576 
L 378.268307 71.915864 
L 400.598098 71.915864 
z
" clip-path="url(#p17ab09990f)" style="fill: #25848e; opacity: 0.95"/>
   </g>
   <g id="patch_16">
    <path d="M 400.598098 68.686936 
L 422.893256 68.686936 
L 422.893256 55.771224 
L 400.598098 55.771224 
z
" clip-path="url(#p17ab09990f)" style="fill: #22a884; opacity: 0.95"/>
   </g>
   <g id="patch_17">
    <path d="M 400.598098 52.542297 
L 437.246704 52.542297 
L 437.246704 39.626585 
L 400.598098 39.626585 
z
" clip-path="url(#p17ab09990f)" style="fill: #5ec962; opacity: 0.95"/>
   </g>
   <g id="patch_18">
    <path d="M 400.598098 36.397657 
L 464.263751 36.397657 
L 464.263751 23.481945 
L 400.598098 23.481945 
z
" clip-path="url(#p17ab09990f)" style="fill: #bddf26; opacity: 0.95"/>
   </g>
  </g>
 </g>
 <defs>
  <clipPath id="p5de5f2c8b9">
   <rect x="55.86625" y="10.8" width="422.93375" height="271.06"/>
  </clipPath>
  <clipPath id="p17ab09990f">
   <rect x="327.002525" y="18.8" width="143.797475" height="103.0028"/>
  </clipPath>
 </defs>
</svg>
