<?xml version="1.0" encoding="utf-8" standalone="no"?>
<!DOCTYPE svg PUBLIC "-//W3C//DTD SVG 1.1//EN"
  "http://www.w3.org/Graphics/SVG/1.1/DTD/svg11.dtd">
<svg xmlns:xlink="http://www.w3.org/1999/xlink" width="489.6pt" height="331.2pt" viewBox="0 0 489.6 331.2" xmlns="http://www.w3.org/2000/svg" version="1.1">
 <metadata>
  <rdf:RDF xmlns:dc="http://purl.org/dc/elements/1.1/" xmlns:cc="http://creativecommons.org/ns#" xmlns:rdf="http://www.w3.org/1999/02/22-rdf-syntax-ns#">
   <cc:Work>
    <dc:type rdf:resource="http://purl.org/dc/dcmitype/StillImage"/>
    <dc:date>2025-09-23T13:23:28.589433</dc:date>
    <dc:format>image/svg+xml</dc:format>
    <dc:creator>
     <cc:Agent>
      <dc:title>Matplotlib v3.5.1, https://matplotlib.org/</dc:title>
     </cc:Agent>
    </dc:creator>
   </cc:Work>
  </rdf:RDF>
 </metadata>
 <defs>
  <style type="text/css">*{stroke-linejoin: round; stroke-linecap: butt}</style>
 </defs>
 <g id="figure_1">
  <g id="patch_1">
   <path d="M 0 331.2 
L 489.6 331.2 
L 489.6 0 
L 0 0 
z
" style="fill: #ffffff"/>
  </g>
  <g id="axes_1">
   <g id="patch_2">
    <path d="M 48.96 291.456 
L 367.2 291.456 
L 367.2 33.12 
L 48.96 33.12 
z
" style="fill: #ffffff"/>
   </g>
   <g id="matplotlib.axis_1">
    <g id="xtick_1">
     <g id="line2d_1">
      <path d="M 63.425455 291.456 
L 63.425455 33.12 
" clip-path="url(#p60bebbfff8)" style="fill: none; stroke-dasharray: 2.96,1.28; stroke-dashoffset: 0; stroke: #b0b0b0; stroke-opacity: 0.25; stroke-width: 0.8"/>
     </g>
     <g id="line2d_2">
      <defs>
       <path id="mb553c6372c" d="M 0 0 
L 0 3.5 
" style="stroke: #000000; stroke-width: 0.8"/>
      </defs>
      <g>
       <use xlink:href="#mb553c6372c" x="63.425455" y="291.456" style="stroke: #000000; stroke-width: 0.8"/>
      </g>
     </g>
     <g id="text_1">
      <!-- 0 -->
      <g transform="translate(60.925455 305.39975)scale(0.1 -0.1)">
       <defs>
        <path id="TimesNewRomanPSMT-30" d="M 231 2094 
Q 231 2819 450 3342 
Q 669 3866 1031 4122 
Q 1313 4325 1613 4325 
Q 2100 4325 2488 3828 
Q 2972 3213 2972 2159 
Q 2972 1422 2759 906 
Q 2547 391 2217 158 
Q 1888 -75 1581 -75 
Q 975 -75 572 641 
Q 231 1244 231 2094 
z
M 844 2016 
Q 844 1141 1059 588 
Q 1238 122 1591 122 
Q 1759 122 1940 273 
Q 2122 425 2216 781 
Q 2359 1319 2359 2297 
Q 2359 3022 2209 3506 
Q 2097 3866 1919 4016 
Q 1791 4119 1609 4119 
Q 1397 4119 1231 3928 
Q 1006 3669 925 3112 
Q 844 2556 844 2016 
z
" transform="scale(0.015625)"/>
       </defs>
       <use xlink:href="#TimesNewRomanPSMT-30"/>
      </g>
     </g>
    </g>
    <g id="xtick_2">
     <g id="line2d_3">
      <path d="M 111.643636 291.456 
L 111.643636 33.12 
" clip-path="url(#p60bebbfff8)" style="fill: none; stroke-dasharray: 2.96,1.28; stroke-dashoffset: 0; stroke: #b0b0b0; stroke-opacity: 0.25; stroke-width: 0.8"/>
     </g>
     <g id="line2d_4">
      <g>
       <use xlink:href="#mb553c6372c" x="111.643636" y="291.456" style="stroke: #000000; stroke-width: 0.8"/>
      </g>
     </g>
     <g id="text_2">
      <!-- 5 -->
      <g transform="translate(109.143636 305.39975)scale(0.1 -0.1)">
       <defs>
        <path id="TimesNewRomanPSMT-35" d="M 2778 4238 
L 2534 3706 
L 1259 3706 
L 981 3138 
Q 1809 3016 2294 2522 
Q 2709 2097 2709 1522 
Q 2709 1188 2573 903 
Q 2438 619 2231 419 
Q 2025 219 1772 97 
Q 1413 -75 1034 -75 
Q 653 -75 479 54 
Q 306 184 306 341 
Q 306 428 378 495 
Q 450 563 559 563 
Q 641 563 702 538 
Q 763 513 909 409 
Q 1144 247 1384 247 
Q 1750 247 2026 523 
Q 2303 800 2303 1197 
Q 2303 1581 2056 1914 
Q 1809 2247 1375 2428 
Q 1034 2569 447 2591 
L 1259 4238 
L 2778 4238 
z
" transform="scale(0.015625)"/>
       </defs>
       <use xlink:href="#TimesNewRomanPSMT-35"/>
      </g>
     </g>
    </g>
    <g id="xtick_3">
     <g id="line2d_5">
      <path d="M 159.861818 291.456 
L 159.861818 33.12 
" clip-path="url(#p60bebbfff8)" style="fill: none; stroke-dasharray: 2.96,1.28; stroke-dashoffset: 0; stroke: #b0b0b0; stroke-opacity: 0.25; stroke-width: 0.8"/>
     </g>
     <g id="line2d_6">
      <g>
       <use xlink:href="#mb553c6372c" x="159.861818" y="291.456" style="stroke: #000000; stroke-width: 0.8"/>
      </g>
     </g>
     <g id="text_3">
      <!-- 10 -->
      <g transform="translate(154.861818 305.39975)scale(0.1 -0.1)">
       <defs>
        <path id="TimesNewRomanPSMT-31" d="M 750 3822 
L 1781 4325 
L 1884 4325 
L 1884 747 
Q 1884 391 1914 303 
Q 1944 216 2037 169 
Q 2131 122 2419 116 
L 2419 0 
L 825 0 
L 825 116 
Q 1125 122 1212 167 
Q 1300 213 1334 289 
Q 1369 366 1369 747 
L 1369 3034 
Q 1369 3497 1338 3628 
Q 1316 3728 1258 3775 
Q 1200 3822 1119 3822 
Q 1003 3822 797 3725 
L 750 3822 
z
" transform="scale(0.015625)"/>
       </defs>
       <use xlink:href="#TimesNewRomanPSMT-31"/>
       <use xlink:href="#TimesNewRomanPSMT-30" x="50"/>
      </g>
     </g>
    </g>
    <g id="xtick_4">
     <g id="line2d_7">
      <path d="M 208.08 291.456 
L 208.08 33.12 
" clip-path="url(#p60bebbfff8)" style="fill: none; stroke-dasharray: 2.96,1.28; stroke-dashoffset: 0; stroke: #b0b0b0; stroke-opacity: 0.25; stroke-width: 0.8"/>
     </g>
     <g id="line2d_8">
      <g>
       <use xlink:href="#mb553c6372c" x="208.08" y="291.456" style="stroke: #000000; stroke-width: 0.8"/>
      </g>
     </g>
     <g id="text_4">
      <!-- 15 -->
      <g transform="translate(203.08 305.39975)scale(0.1 -0.1)">
       <use xlink:href="#TimesNewRomanPSMT-31"/>
       <use xlink:href="#TimesNewRomanPSMT-35" x="50"/>
      </g>
     </g>
    </g>
    <g id="xtick_5">
     <g id="line2d_9">
      <path d="M 256.298182 291.456 
L 256.298182 33.12 
" clip-path="url(#p60bebbfff8)" style="fill: none; stroke-dasharray: 2.96,1.28; stroke-dashoffset: 0; stroke: #b0b0b0; stroke-opacity: 0.25; stroke-width: 0.8"/>
     </g>
     <g id="line2d_10">
      <g>
       <use xlink:href="#mb553c6372c" x="256.298182" y="291.456" style="stroke: #000000; stroke-width: 0.8"/>
      </g>
     </g>
     <g id="text_5">
      <!-- 20 -->
      <g transform="translate(251.298182 305.39975)scale(0.1 -0.1)">
       <defs>
        <path id="TimesNewRomanPSMT-32" d="M 2934 816 
L 2638 0 
L 138 0 
L 138 116 
Q 1241 1122 1691 1759 
Q 2141 2397 2141 2925 
Q 2141 3328 1894 3587 
Q 1647 3847 1303 3847 
Q 991 3847 742 3664 
Q 494 3481 375 3128 
L 259 3128 
Q 338 3706 661 4015 
Q 984 4325 1469 4325 
Q 1984 4325 2329 3994 
Q 2675 3663 2675 3213 
Q 2675 2891 2525 2569 
Q 2294 2063 1775 1497 
Q 997 647 803 472 
L 1909 472 
Q 2247 472 2383 497 
Q 2519 522 2628 598 
Q 2738 675 2819 816 
L 2934 816 
z
" transform="scale(0.015625)"/>
       </defs>
       <use xlink:href="#TimesNewRomanPSMT-32"/>
       <use xlink:href="#TimesNewRomanPSMT-30" x="50"/>
      </g>
     </g>
    </g>
    <g id="xtick_6">
     <g id="line2d_11">
      <path d="M 304.516364 291.456 
L 304.516364 33.12 
" clip-path="url(#p60bebbfff8)" style="fill: none; stroke-dasharray: 2.96,1.28; stroke-dashoffset: 0; stroke: #b0b0b0; stroke-opacity: 0.25; stroke-width: 0.8"/>
     </g>
     <g id="line2d_12">
      <g>
       <use xlink:href="#mb553c6372c" x="304.516364" y="291.456" style="stroke: #000000; stroke-width: 0.8"/>
      </g>
     </g>
     <g id="text_6">
      <!-- 25 -->
      <g transform="translate(299.516364 305.39975)scale(0.1 -0.1)">
       <use xlink:href="#TimesNewRomanPSMT-32"/>
       <use xlink:href="#TimesNewRomanPSMT-35" x="50"/>
      </g>
     </g>
    </g>
    <g id="xtick_7">
     <g id="line2d_13">
      <path d="M 352.734545 291.456 
L 352.734545 33.12 
" clip-path="url(#p60bebbfff8)" style="fill: none; stroke-dasharray: 2.96,1.28; stroke-dashoffset: 0; stroke: #b0b0b0; stroke-opacity: 0.25; stroke-width: 0.8"/>
     </g>
     <g id="line2d_14">
      <g>
       <use xlink:href="#mb553c6372c" x="352.734545" y="291.456" style="stroke: #000000; stroke-width: 0.8"/>
      </g>
     </g>
     <g id="text_7">
      <!-- 30 -->
      <g transform="translate(347.734545 305.39975)scale(0.1 -0.1)">
       <defs>
        <path id="TimesNewRomanPSMT-33" d="M 325 3431 
Q 506 3859 782 4092 
Q 1059 4325 1472 4325 
Q 1981 4325 2253 3994 
Q 2459 3747 2459 3466 
Q 2459 3003 1878 2509 
Q 2269 2356 2469 2072 
Q 2669 1788 2669 1403 
Q 2669 853 2319 450 
Q 1863 -75 997 -75 
Q 569 -75 414 31 
Q 259 138 259 259 
Q 259 350 332 419 
Q 406 488 509 488 
Q 588 488 669 463 
Q 722 447 909 348 
Q 1097 250 1169 231 
Q 1284 197 1416 197 
Q 1734 197 1970 444 
Q 2206 691 2206 1028 
Q 2206 1275 2097 1509 
Q 2016 1684 1919 1775 
Q 1784 1900 1550 2001 
Q 1316 2103 1072 2103 
L 972 2103 
L 972 2197 
Q 1219 2228 1467 2375 
Q 1716 2522 1828 2728 
Q 1941 2934 1941 3181 
Q 1941 3503 1739 3701 
Q 1538 3900 1238 3900 
Q 753 3900 428 3381 
L 325 3431 
z
" transform="scale(0.015625)"/>
       </defs>
       <use xlink:href="#TimesNewRomanPSMT-33"/>
       <use xlink:href="#TimesNewRomanPSMT-30" x="50"/>
      </g>
     </g>
    </g>
    <g id="text_8">
     <!-- Horizon h (time steps) -->
     <g transform="translate(163.228438 318.482562)scale(0.1 -0.1)">
      <defs>
       <path id="TimesNewRomanPSMT-48" d="M 1316 2272 
L 3284 2272 
L 3284 3484 
Q 3284 3809 3244 3913 
Q 3213 3991 3113 4047 
Q 2978 4122 2828 4122 
L 2678 4122 
L 2678 4238 
L 4491 4238 
L 4491 4122 
L 4341 4122 
Q 4191 4122 4056 4050 
Q 3956 4000 3920 3898 
Q 3884 3797 3884 3484 
L 3884 750 
Q 3884 428 3925 325 
Q 3956 247 4053 191 
Q 4191 116 4341 116 
L 4491 116 
L 4491 0 
L 2678 0 
L 2678 116 
L 2828 116 
Q 3088 116 3206 269 
Q 3284 369 3284 750 
L 3284 2041 
L 1316 2041 
L 1316 750 
Q 1316 428 1356 325 
Q 1388 247 1488 191 
Q 1622 116 1772 116 
L 1925 116 
L 1925 0 
L 109 0 
L 109 116 
L 259 116 
Q 522 116 641 269 
Q 716 369 716 750 
L 716 3484 
Q 716 3809 675 3913 
Q 644 3991 547 4047 
Q 409 4122 259 4122 
L 109 4122 
L 109 4238 
L 1925 4238 
L 1925 4122 
L 1772 4122 
Q 1622 4122 1488 4050 
Q 1391 4000 1353 3898 
Q 1316 3797 1316 3484 
L 1316 2272 
z
" transform="scale(0.015625)"/>
       <path id="TimesNewRomanPSMT-6f" d="M 1600 2947 
Q 2250 2947 2644 2453 
Q 2978 2031 2978 1484 
Q 2978 1100 2793 706 
Q 2609 313 2286 112 
Q 1963 -88 1566 -88 
Q 919 -88 538 428 
Q 216 863 216 1403 
Q 216 1797 411 2186 
Q 606 2575 925 2761 
Q 1244 2947 1600 2947 
z
M 1503 2744 
Q 1338 2744 1170 2645 
Q 1003 2547 900 2300 
Q 797 2053 797 1666 
Q 797 1041 1045 587 
Q 1294 134 1700 134 
Q 2003 134 2200 384 
Q 2397 634 2397 1244 
Q 2397 2006 2069 2444 
Q 1847 2744 1503 2744 
z
" transform="scale(0.015625)"/>
       <path id="TimesNewRomanPSMT-72" d="M 1038 2947 
L 1038 2303 
Q 1397 2947 1775 2947 
Q 1947 2947 2059 2842 
Q 2172 2738 2172 2600 
Q 2172 2478 2090 2393 
Q 2009 2309 1897 2309 
Q 1788 2309 1652 2417 
Q 1516 2525 1450 2525 
Q 1394 2525 1328 2463 
Q 1188 2334 1038 2041 
L 1038 669 
Q 1038 431 1097 309 
Q 1138 225 1241 169 
Q 1344 113 1538 113 
L 1538 0 
L 72 0 
L 72 113 
Q 291 113 397 181 
Q 475 231 506 341 
Q 522 394 522 644 
L 522 1753 
Q 522 2253 501 2348 
Q 481 2444 426 2487 
Q 372 2531 291 2531 
Q 194 2531 72 2484 
L 41 2597 
L 906 2947 
L 1038 2947 
z
" transform="scale(0.015625)"/>
       <path id="TimesNewRomanPSMT-69" d="M 928 4444 
Q 1059 4444 1151 4351 
Q 1244 4259 1244 4128 
Q 1244 3997 1151 3903 
Q 1059 3809 928 3809 
Q 797 3809 703 3903 
Q 609 3997 609 4128 
Q 609 4259 701 4351 
Q 794 4444 928 4444 
z
M 1188 2947 
L 1188 647 
Q 1188 378 1227 289 
Q 1266 200 1342 156 
Q 1419 113 1622 113 
L 1622 0 
L 231 0 
L 231 113 
Q 441 113 512 153 
Q 584 194 626 287 
Q 669 381 669 647 
L 669 1750 
Q 669 2216 641 2353 
Q 619 2453 572 2492 
Q 525 2531 444 2531 
Q 356 2531 231 2484 
L 188 2597 
L 1050 2947 
L 1188 2947 
z
" transform="scale(0.015625)"/>
       <path id="TimesNewRomanPSMT-7a" d="M 2688 878 
L 2653 0 
L 128 0 
L 128 113 
L 2028 2644 
L 1091 2644 
Q 788 2644 694 2605 
Q 600 2566 541 2456 
Q 456 2300 444 2069 
L 319 2069 
L 338 2863 
L 2738 2863 
L 2738 2747 
L 819 209 
L 1863 209 
Q 2191 209 2308 264 
Q 2425 319 2497 456 
Q 2547 556 2581 878 
L 2688 878 
z
" transform="scale(0.015625)"/>
       <path id="TimesNewRomanPSMT-6e" d="M 1034 2341 
Q 1538 2947 1994 2947 
Q 2228 2947 2397 2830 
Q 2566 2713 2666 2444 
Q 2734 2256 2734 1869 
L 2734 647 
Q 2734 375 2778 278 
Q 2813 200 2889 156 
Q 2966 113 3172 113 
L 3172 0 
L 1756 0 
L 1756 113 
L 1816 113 
Q 2016 113 2095 173 
Q 2175 234 2206 353 
Q 2219 400 2219 647 
L 2219 1819 
Q 2219 2209 2117 2386 
Q 2016 2563 1775 2563 
Q 1403 2563 1034 2156 
L 1034 647 
Q 1034 356 1069 288 
Q 1113 197 1189 155 
Q 1266 113 1500 113 
L 1500 0 
L 84 0 
L 84 113 
L 147 113 
Q 366 113 442 223 
Q 519 334 519 647 
L 519 1709 
Q 519 2225 495 2337 
Q 472 2450 423 2490 
Q 375 2531 294 2531 
Q 206 2531 84 2484 
L 38 2597 
L 900 2947 
L 1034 2947 
L 1034 2341 
z
" transform="scale(0.015625)"/>
       <path id="TimesNewRomanPSMT-20" transform="scale(0.015625)"/>
       <path id="TimesNewRomanPSMT-68" d="M 1041 4444 
L 1041 2350 
Q 1388 2731 1591 2839 
Q 1794 2947 1997 2947 
Q 2241 2947 2416 2812 
Q 2591 2678 2675 2391 
Q 2734 2191 2734 1659 
L 2734 647 
Q 2734 375 2778 275 
Q 2809 200 2884 156 
Q 2959 113 3159 113 
L 3159 0 
L 1753 0 
L 1753 113 
L 1819 113 
Q 2019 113 2097 173 
Q 2175 234 2206 353 
Q 2216 403 2216 647 
L 2216 1659 
Q 2216 2128 2167 2275 
Q 2119 2422 2012 2495 
Q 1906 2569 1756 2569 
Q 1603 2569 1437 2487 
Q 1272 2406 1041 2159 
L 1041 647 
Q 1041 353 1073 281 
Q 1106 209 1195 161 
Q 1284 113 1503 113 
L 1503 0 
L 84 0 
L 84 113 
Q 275 113 384 172 
Q 447 203 484 290 
Q 522 378 522 647 
L 522 3238 
Q 522 3728 498 3840 
Q 475 3953 426 3993 
Q 378 4034 297 4034 
Q 231 4034 84 3984 
L 41 4094 
L 897 4444 
L 1041 4444 
z
" transform="scale(0.015625)"/>
       <path id="TimesNewRomanPSMT-28" d="M 1988 -1253 
L 1988 -1369 
Q 1516 -1131 1200 -813 
Q 750 -359 506 256 
Q 263 872 263 1534 
Q 263 2503 741 3301 
Q 1219 4100 1988 4444 
L 1988 4313 
Q 1603 4100 1356 3731 
Q 1109 3363 987 2797 
Q 866 2231 866 1616 
Q 866 947 969 400 
Q 1050 -31 1165 -292 
Q 1281 -553 1476 -793 
Q 1672 -1034 1988 -1253 
z
" transform="scale(0.015625)"/>
       <path id="TimesNewRomanPSMT-74" d="M 1031 3803 
L 1031 2863 
L 1700 2863 
L 1700 2644 
L 1031 2644 
L 1031 788 
Q 1031 509 1111 412 
Q 1191 316 1316 316 
Q 1419 316 1516 380 
Q 1613 444 1666 569 
L 1788 569 
Q 1678 263 1478 108 
Q 1278 -47 1066 -47 
Q 922 -47 784 33 
Q 647 113 581 261 
Q 516 409 516 719 
L 516 2644 
L 63 2644 
L 63 2747 
Q 234 2816 414 2980 
Q 594 3144 734 3369 
Q 806 3488 934 3803 
L 1031 3803 
z
" transform="scale(0.015625)"/>
       <path id="TimesNewRomanPSMT-6d" d="M 1050 2338 
Q 1363 2650 1419 2697 
Q 1559 2816 1721 2881 
Q 1884 2947 2044 2947 
Q 2313 2947 2506 2790 
Q 2700 2634 2766 2338 
Q 3088 2713 3309 2830 
Q 3531 2947 3766 2947 
Q 3994 2947 4170 2830 
Q 4347 2713 4450 2447 
Q 4519 2266 4519 1878 
L 4519 647 
Q 4519 378 4559 278 
Q 4591 209 4675 161 
Q 4759 113 4950 113 
L 4950 0 
L 3538 0 
L 3538 113 
L 3597 113 
Q 3781 113 3884 184 
Q 3956 234 3988 344 
Q 4000 397 4000 647 
L 4000 1878 
Q 4000 2228 3916 2372 
Q 3794 2572 3525 2572 
Q 3359 2572 3192 2489 
Q 3025 2406 2788 2181 
L 2781 2147 
L 2788 2013 
L 2788 647 
Q 2788 353 2820 281 
Q 2853 209 2943 161 
Q 3034 113 3253 113 
L 3253 0 
L 1806 0 
L 1806 113 
Q 2044 113 2133 169 
Q 2222 225 2256 338 
Q 2272 391 2272 647 
L 2272 1878 
Q 2272 2228 2169 2381 
Q 2031 2581 1784 2581 
Q 1616 2581 1450 2491 
Q 1191 2353 1050 2181 
L 1050 647 
Q 1050 366 1089 281 
Q 1128 197 1204 155 
Q 1281 113 1516 113 
L 1516 0 
L 100 0 
L 100 113 
Q 297 113 375 155 
Q 453 197 493 289 
Q 534 381 534 647 
L 534 1741 
Q 534 2213 506 2350 
Q 484 2453 437 2492 
Q 391 2531 309 2531 
Q 222 2531 100 2484 
L 53 2597 
L 916 2947 
L 1050 2947 
L 1050 2338 
z
" transform="scale(0.015625)"/>
       <path id="TimesNewRomanPSMT-65" d="M 681 1784 
Q 678 1147 991 784 
Q 1303 422 1725 422 
Q 2006 422 2214 576 
Q 2422 731 2563 1106 
L 2659 1044 
Q 2594 616 2278 264 
Q 1963 -88 1488 -88 
Q 972 -88 605 314 
Q 238 716 238 1394 
Q 238 2128 614 2539 
Q 991 2950 1559 2950 
Q 2041 2950 2350 2633 
Q 2659 2316 2659 1784 
L 681 1784 
z
M 681 1966 
L 2006 1966 
Q 1991 2241 1941 2353 
Q 1863 2528 1708 2628 
Q 1553 2728 1384 2728 
Q 1125 2728 920 2526 
Q 716 2325 681 1966 
z
" transform="scale(0.015625)"/>
       <path id="TimesNewRomanPSMT-73" d="M 2050 2947 
L 2050 1972 
L 1947 1972 
Q 1828 2431 1642 2597 
Q 1456 2763 1169 2763 
Q 950 2763 815 2647 
Q 681 2531 681 2391 
Q 681 2216 781 2091 
Q 878 1963 1175 1819 
L 1631 1597 
Q 2266 1288 2266 781 
Q 2266 391 1970 151 
Q 1675 -88 1309 -88 
Q 1047 -88 709 6 
Q 606 38 541 38 
Q 469 38 428 -44 
L 325 -44 
L 325 978 
L 428 978 
Q 516 541 762 319 
Q 1009 97 1316 97 
Q 1531 97 1667 223 
Q 1803 350 1803 528 
Q 1803 744 1651 891 
Q 1500 1038 1047 1263 
Q 594 1488 453 1669 
Q 313 1847 313 2119 
Q 313 2472 555 2709 
Q 797 2947 1181 2947 
Q 1350 2947 1591 2875 
Q 1750 2828 1803 2828 
Q 1853 2828 1881 2850 
Q 1909 2872 1947 2947 
L 2050 2947 
z
" transform="scale(0.015625)"/>
       <path id="TimesNewRomanPSMT-70" d="M -6 2578 
L 875 2934 
L 994 2934 
L 994 2266 
Q 1216 2644 1439 2795 
Q 1663 2947 1909 2947 
Q 2341 2947 2628 2609 
Q 2981 2197 2981 1534 
Q 2981 794 2556 309 
Q 2206 -88 1675 -88 
Q 1444 -88 1275 -22 
Q 1150 25 994 166 
L 994 -706 
Q 994 -1000 1030 -1079 
Q 1066 -1159 1155 -1206 
Q 1244 -1253 1478 -1253 
L 1478 -1369 
L -22 -1369 
L -22 -1253 
L 56 -1253 
Q 228 -1256 350 -1188 
Q 409 -1153 442 -1076 
Q 475 -1000 475 -688 
L 475 2019 
Q 475 2297 450 2372 
Q 425 2447 370 2484 
Q 316 2522 222 2522 
Q 147 2522 31 2478 
L -6 2578 
z
M 994 2081 
L 994 1013 
Q 994 666 1022 556 
Q 1066 375 1236 237 
Q 1406 100 1666 100 
Q 1978 100 2172 344 
Q 2425 663 2425 1241 
Q 2425 1897 2138 2250 
Q 1938 2494 1663 2494 
Q 1513 2494 1366 2419 
Q 1253 2363 994 2081 
z
" transform="scale(0.015625)"/>
       <path id="TimesNewRomanPSMT-29" d="M 144 4313 
L 144 4444 
Q 619 4209 934 3891 
Q 1381 3434 1625 2820 
Q 1869 2206 1869 1541 
Q 1869 572 1392 -226 
Q 916 -1025 144 -1369 
L 144 -1253 
Q 528 -1038 776 -670 
Q 1025 -303 1145 264 
Q 1266 831 1266 1447 
Q 1266 2113 1163 2663 
Q 1084 3094 967 3353 
Q 850 3613 656 3853 
Q 463 4094 144 4313 
z
" transform="scale(0.015625)"/>
      </defs>
      <use xlink:href="#TimesNewRomanPSMT-48"/>
      <use xlink:href="#TimesNewRomanPSMT-6f" x="72.216797"/>
      <use xlink:href="#TimesNewRomanPSMT-72" x="122.216797"/>
      <use xlink:href="#TimesNewRomanPSMT-69" x="155.517578"/>
      <use xlink:href="#TimesNewRomanPSMT-7a" x="183.300781"/>
      <use xlink:href="#TimesNewRomanPSMT-6f" x="227.685547"/>
      <use xlink:href="#TimesNewRomanPSMT-6e" x="277.685547"/>
      <use xlink:href="#TimesNewRomanPSMT-20" x="327.685547"/>
      <use xlink:href="#TimesNewRomanPSMT-68" x="352.685547"/>
      <use xlink:href="#TimesNewRomanPSMT-20" x="402.685547"/>
      <use xlink:href="#TimesNewRomanPSMT-28" x="427.685547"/>
      <use xlink:href="#TimesNewRomanPSMT-74" x="460.986328"/>
      <use xlink:href="#TimesNewRomanPSMT-69" x="488.769531"/>
      <use xlink:href="#TimesNewRomanPSMT-6d" x="516.552734"/>
      <use xlink:href="#TimesNewRomanPSMT-65" x="594.335938"/>
      <use xlink:href="#TimesNewRomanPSMT-20" x="638.720703"/>
      <use xlink:href="#TimesNewRomanPSMT-73" x="663.720703"/>
      <use xlink:href="#TimesNewRomanPSMT-74" x="702.636719"/>
      <use xlink:href="#TimesNewRomanPSMT-65" x="730.419922"/>
      <use xlink:href="#TimesNewRomanPSMT-70" x="774.804688"/>
      <use xlink:href="#TimesNewRomanPSMT-73" x="824.804688"/>
      <use xlink:href="#TimesNewRomanPSMT-29" x="863.720703"/>
     </g>
    </g>
   </g>
   <g id="matplotlib.axis_2">
    <g id="ytick_1">
     <g id="line2d_15">
      <path d="M 48.96 264.313193 
L 367.2 264.313193 
" clip-path="url(#p60bebbfff8)" style="fill: none; stroke-dasharray: 2.96,1.28; stroke-dashoffset: 0; stroke: #b0b0b0; stroke-opacity: 0.25; stroke-width: 0.8"/>
     </g>
     <g id="line2d_16">
      <defs>
       <path id="mee00fbc9f1" d="M 0 0 
L -3.5 0 
" style="stroke: #000000; stroke-width: 0.8"/>
      </defs>
      <g>
       <use xlink:href="#mee00fbc9f1" x="48.96" y="264.313193" style="stroke: #000000; stroke-width: 0.8"/>
      </g>
     </g>
     <g id="text_9">
      <!-- -0.002 -->
      <g transform="translate(16.130312 267.785068)scale(0.1 -0.1)">
       <defs>
        <path id="TimesNewRomanPSMT-2d" d="M 259 1672 
L 1875 1672 
L 1875 1200 
L 259 1200 
L 259 1672 
z
" transform="scale(0.015625)"/>
        <path id="TimesNewRomanPSMT-2e" d="M 800 606 
Q 947 606 1047 504 
Q 1147 403 1147 259 
Q 1147 116 1045 14 
Q 944 -88 800 -88 
Q 656 -88 554 14 
Q 453 116 453 259 
Q 453 406 554 506 
Q 656 606 800 606 
z
" transform="scale(0.015625)"/>
       </defs>
       <use xlink:href="#TimesNewRomanPSMT-2d"/>
       <use xlink:href="#TimesNewRomanPSMT-30" x="33.300781"/>
       <use xlink:href="#TimesNewRomanPSMT-2e" x="83.300781"/>
       <use xlink:href="#TimesNewRomanPSMT-30" x="108.300781"/>
       <use xlink:href="#TimesNewRomanPSMT-30" x="158.300781"/>
       <use xlink:href="#TimesNewRomanPSMT-32" x="208.300781"/>
      </g>
     </g>
    </g>
    <g id="ytick_2">
     <g id="line2d_17">
      <path d="M 48.96 228.182284 
L 367.2 228.182284 
" clip-path="url(#p60bebbfff8)" style="fill: none; stroke-dasharray: 2.96,1.28; stroke-dashoffset: 0; stroke: #b0b0b0; stroke-opacity: 0.25; stroke-width: 0.8"/>
     </g>
     <g id="line2d_18">
      <g>
       <use xlink:href="#mee00fbc9f1" x="48.96" y="228.182284" style="stroke: #000000; stroke-width: 0.8"/>
      </g>
     </g>
     <g id="text_10">
      <!-- -0.001 -->
      <g transform="translate(16.130312 231.654159)scale(0.1 -0.1)">
       <use xlink:href="#TimesNewRomanPSMT-2d"/>
       <use xlink:href="#TimesNewRomanPSMT-30" x="33.300781"/>
       <use xlink:href="#TimesNewRomanPSMT-2e" x="83.300781"/>
       <use xlink:href="#TimesNewRomanPSMT-30" x="108.300781"/>
       <use xlink:href="#TimesNewRomanPSMT-30" x="158.300781"/>
       <use xlink:href="#TimesNewRomanPSMT-31" x="208.300781"/>
      </g>
     </g>
    </g>
    <g id="ytick_3">
     <g id="line2d_19">
      <path d="M 48.96 192.051375 
L 367.2 192.051375 
" clip-path="url(#p60bebbfff8)" style="fill: none; stroke-dasharray: 2.96,1.28; stroke-dashoffset: 0; stroke: #b0b0b0; stroke-opacity: 0.25; stroke-width: 0.8"/>
     </g>
     <g id="line2d_20">
      <g>
       <use xlink:href="#mee00fbc9f1" x="48.96" y="192.051375" style="stroke: #000000; stroke-width: 0.8"/>
      </g>
     </g>
     <g id="text_11">
      <!-- 0.000 -->
      <g transform="translate(19.46 195.52325)scale(0.1 -0.1)">
       <use xlink:href="#TimesNewRomanPSMT-30"/>
       <use xlink:href="#TimesNewRomanPSMT-2e" x="50"/>
       <use xlink:href="#TimesNewRomanPSMT-30" x="75"/>
       <use xlink:href="#TimesNewRomanPSMT-30" x="125"/>
       <use xlink:href="#TimesNewRomanPSMT-30" x="175"/>
      </g>
     </g>
    </g>
    <g id="ytick_4">
     <g id="line2d_21">
      <path d="M 48.96 155.920466 
L 367.2 155.920466 
" clip-path="url(#p60bebbfff8)" style="fill: none; stroke-dasharray: 2.96,1.28; stroke-dashoffset: 0; stroke: #b0b0b0; stroke-opacity: 0.25; stroke-width: 0.8"/>
     </g>
     <g id="line2d_22">
      <g>
       <use xlink:href="#mee00fbc9f1" x="48.96" y="155.920466" style="stroke: #000000; stroke-width: 0.8"/>
      </g>
     </g>
     <g id="text_12">
      <!-- 0.001 -->
      <g transform="translate(19.46 159.392341)scale(0.1 -0.1)">
       <use xlink:href="#TimesNewRomanPSMT-30"/>
       <use xlink:href="#TimesNewRomanPSMT-2e" x="50"/>
       <use xlink:href="#TimesNewRomanPSMT-30" x="75"/>
       <use xlink:href="#TimesNewRomanPSMT-30" x="125"/>
       <use xlink:href="#TimesNewRomanPSMT-31" x="175"/>
      </g>
     </g>
    </g>
    <g id="ytick_5">
     <g id="line2d_23">
      <path d="M 48.96 119.789557 
L 367.2 119.789557 
" clip-path="url(#p60bebbfff8)" style="fill: none; stroke-dasharray: 2.96,1.28; stroke-dashoffset: 0; stroke: #b0b0b0; stroke-opacity: 0.25; stroke-width: 0.8"/>
     </g>
     <g id="line2d_24">
      <g>
       <use xlink:href="#mee00fbc9f1" x="48.96" y="119.789557" style="stroke: #000000; stroke-width: 0.8"/>
      </g>
     </g>
     <g id="text_13">
      <!-- 0.002 -->
      <g transform="translate(19.46 123.261432)scale(0.1 -0.1)">
       <use xlink:href="#TimesNewRomanPSMT-30"/>
       <use xlink:href="#TimesNewRomanPSMT-2e" x="50"/>
       <use xlink:href="#TimesNewRomanPSMT-30" x="75"/>
       <use xlink:href="#TimesNewRomanPSMT-30" x="125"/>
       <use xlink:href="#TimesNewRomanPSMT-32" x="175"/>
      </g>
     </g>
    </g>
    <g id="ytick_6">
     <g id="line2d_25">
      <path d="M 48.96 83.658648 
L 367.2 83.658648 
" clip-path="url(#p60bebbfff8)" style="fill: none; stroke-dasharray: 2.96,1.28; stroke-dashoffset: 0; stroke: #b0b0b0; stroke-opacity: 0.25; stroke-width: 0.8"/>
     </g>
     <g id="line2d_26">
      <g>
       <use xlink:href="#mee00fbc9f1" x="48.96" y="83.658648" style="stroke: #000000; stroke-width: 0.8"/>
      </g>
     </g>
     <g id="text_14">
      <!-- 0.003 -->
      <g transform="translate(19.46 87.130523)scale(0.1 -0.1)">
       <use xlink:href="#TimesNewRomanPSMT-30"/>
       <use xlink:href="#TimesNewRomanPSMT-2e" x="50"/>
       <use xlink:href="#TimesNewRomanPSMT-30" x="75"/>
       <use xlink:href="#TimesNewRomanPSMT-30" x="125"/>
       <use xlink:href="#TimesNewRomanPSMT-33" x="175"/>
      </g>
     </g>
    </g>
    <g id="ytick_7">
     <g id="line2d_27">
      <path d="M 48.96 47.527739 
L 367.2 47.527739 
" clip-path="url(#p60bebbfff8)" style="fill: none; stroke-dasharray: 2.96,1.28; stroke-dashoffset: 0; stroke: #b0b0b0; stroke-opacity: 0.25; stroke-width: 0.8"/>
     </g>
     <g id="line2d_28">
      <g>
       <use xlink:href="#mee00fbc9f1" x="48.96" y="47.527739" style="stroke: #000000; stroke-width: 0.8"/>
      </g>
     </g>
     <g id="text_15">
      <!-- 0.004 -->
      <g transform="translate(19.46 50.999614)scale(0.1 -0.1)">
       <defs>
        <path id="TimesNewRomanPSMT-34" d="M 2978 1563 
L 2978 1119 
L 2409 1119 
L 2409 0 
L 1894 0 
L 1894 1119 
L 100 1119 
L 100 1519 
L 2066 4325 
L 2409 4325 
L 2409 1563 
L 2978 1563 
z
M 1894 1563 
L 1894 3666 
L 406 1563 
L 1894 1563 
z
" transform="scale(0.015625)"/>
       </defs>
       <use xlink:href="#TimesNewRomanPSMT-30"/>
       <use xlink:href="#TimesNewRomanPSMT-2e" x="50"/>
       <use xlink:href="#TimesNewRomanPSMT-30" x="75"/>
       <use xlink:href="#TimesNewRomanPSMT-30" x="125"/>
       <use xlink:href="#TimesNewRomanPSMT-34" x="175"/>
      </g>
     </g>
    </g>
    <g id="text_16">
     <!-- $E[\Delta f_C(t+h)]$ -->
     <g transform="translate(9.99125 188.338)rotate(-90)scale(0.1 -0.1)">
      <defs>
       <path id="STIXGeneral-Italic-45" d="M 4058 4179 
L 3859 3194 
L 3718 3206 
Q 3738 3366 3738 3501 
Q 3738 3789 3501 3878 
Q 3264 3968 2509 3968 
Q 2240 3968 2157 3939 
Q 2074 3910 2042 3802 
L 1619 2310 
L 2118 2310 
Q 2541 2310 2681 2412 
Q 2822 2515 3008 2931 
L 3123 2906 
L 2688 1421 
L 2560 1453 
Q 2605 1651 2605 1786 
Q 2605 1939 2560 1984 
Q 2451 2080 2061 2080 
L 1562 2080 
L 1357 1363 
Q 1126 550 1126 429 
Q 1126 211 1632 211 
Q 2458 211 2931 461 
Q 3174 589 3533 1088 
L 3635 1037 
L 3238 0 
L -6 0 
L -6 102 
Q 269 154 352 227 
Q 435 301 512 576 
L 1299 3405 
Q 1370 3642 1370 3814 
Q 1370 3942 1270 3996 
Q 1171 4051 877 4077 
L 877 4179 
L 4058 4179 
z
" transform="scale(0.015625)"/>
       <path id="STIXGeneral-Regular-5b" d="M 1914 -998 
L 563 -998 
L 563 4237 
L 1914 4237 
L 1914 4077 
L 1382 4077 
Q 1216 4077 1133 4006 
Q 1050 3936 1050 3770 
L 1050 -493 
Q 1050 -838 1382 -838 
L 1914 -838 
L 1914 -998 
z
" transform="scale(0.015625)"/>
       <path id="STIXGeneral-Regular-394" d="M 4320 0 
L 307 0 
L 2221 4314 
L 2349 4314 
L 4320 0 
z
M 3354 589 
L 2118 3405 
L 870 589 
L 3354 589 
z
" transform="scale(0.015625)"/>
       <path id="STIXGeneral-Italic-66" d="M 262 2739 
L 858 2739 
Q 1107 3546 1318 3846 
Q 1664 4339 2163 4339 
Q 2400 4339 2557 4227 
Q 2714 4115 2714 3942 
Q 2714 3834 2634 3750 
Q 2554 3667 2445 3667 
Q 2355 3667 2281 3737 
Q 2208 3808 2208 3917 
Q 2208 3981 2240 4038 
Q 2272 4096 2272 4115 
Q 2272 4198 2131 4198 
Q 1862 4198 1676 3849 
Q 1491 3501 1350 2739 
L 2035 2739 
L 1997 2534 
L 1306 2534 
L 845 486 
Q 435 -1325 -435 -1325 
Q -653 -1325 -797 -1213 
Q -941 -1101 -941 -934 
Q -941 -826 -870 -746 
Q -800 -666 -698 -666 
Q -589 -666 -521 -733 
Q -454 -800 -454 -902 
Q -454 -947 -483 -1001 
Q -512 -1056 -512 -1088 
Q -512 -1190 -384 -1190 
Q 13 -1190 237 -154 
L 800 2534 
L 218 2534 
L 262 2739 
z
" transform="scale(0.015625)"/>
       <path id="STIXGeneral-Italic-43" d="M 4410 4250 
L 4173 2970 
L 4058 2989 
Q 3942 4032 3104 4032 
Q 2406 4032 1830 3411 
Q 1491 3053 1315 2541 
Q 1139 2029 1139 1485 
Q 1139 173 2259 173 
Q 2656 173 2985 339 
Q 3315 506 3725 934 
L 3840 838 
Q 3411 333 2998 109 
Q 2586 -115 2093 -115 
Q 1344 -115 883 329 
Q 422 774 422 1555 
Q 422 2214 748 2812 
Q 1075 3411 1619 3795 
Q 2272 4262 3021 4262 
Q 3462 4262 3770 4154 
Q 3898 4109 4032 4109 
Q 4205 4109 4275 4250 
L 4410 4250 
z
" transform="scale(0.015625)"/>
       <path id="STIXGeneral-Regular-28" d="M 1946 -1030 
L 1869 -1133 
Q 1126 -710 716 32 
Q 307 774 307 1613 
Q 307 3386 1888 4326 
L 1946 4224 
Q 1293 3667 1075 3126 
Q 858 2586 858 1632 
Q 858 685 1082 96 
Q 1306 -493 1946 -1030 
z
" transform="scale(0.015625)"/>
       <path id="STIXGeneral-Italic-74" d="M 1894 2739 
L 1862 2534 
L 1325 2534 
L 768 435 
Q 755 384 755 346 
Q 755 243 851 243 
Q 928 243 1030 342 
Q 1133 442 1370 749 
L 1453 704 
Q 1158 256 969 93 
Q 781 -70 538 -70 
Q 243 -70 243 166 
Q 243 230 346 640 
L 845 2534 
L 365 2534 
L 358 2573 
Q 358 2688 570 2733 
Q 730 2771 992 2979 
Q 1254 3187 1421 3437 
Q 1459 3494 1510 3494 
Q 1568 3494 1568 3443 
Q 1568 3411 1562 3398 
L 1382 2739 
L 1894 2739 
z
" transform="scale(0.015625)"/>
       <path id="STIXGeneral-Regular-2b" d="M 4070 1408 
L 2400 1408 
L 2400 -262 
L 1978 -262 
L 1978 1408 
L 307 1408 
L 307 1830 
L 1978 1830 
L 1978 3501 
L 2400 3501 
L 2400 1830 
L 4070 1830 
L 4070 1408 
z
" transform="scale(0.015625)"/>
       <path id="STIXGeneral-Italic-68" d="M 2976 755 
L 3059 672 
Q 2765 256 2566 99 
Q 2368 -58 2125 -58 
Q 1997 -58 1920 16 
Q 1843 90 1843 211 
Q 1843 320 1971 800 
L 2323 2125 
Q 2368 2304 2368 2336 
Q 2368 2496 2189 2496 
Q 2016 2496 1744 2240 
Q 1472 1984 1216 1600 
Q 1018 1293 902 1001 
Q 787 710 602 0 
L 122 0 
L 1056 3546 
Q 1139 3866 1139 3942 
Q 1139 4019 1056 4060 
Q 973 4102 877 4102 
L 704 4102 
L 704 4198 
Q 1190 4256 1709 4371 
L 1754 4333 
L 979 1472 
Q 1811 2822 2451 2822 
Q 2662 2822 2764 2704 
Q 2867 2586 2867 2394 
Q 2867 2118 2560 1158 
Q 2349 512 2349 358 
Q 2349 243 2451 243 
Q 2528 243 2621 336 
Q 2714 429 2976 755 
z
" transform="scale(0.015625)"/>
       <path id="STIXGeneral-Regular-29" d="M 186 4224 
L 262 4326 
Q 992 3891 1408 3148 
Q 1824 2406 1824 1581 
Q 1824 -166 243 -1133 
L 186 -1030 
Q 845 -486 1059 54 
Q 1274 595 1274 1562 
Q 1274 2534 1059 3120 
Q 845 3706 186 4224 
z
" transform="scale(0.015625)"/>
       <path id="STIXGeneral-Regular-5d" d="M 1568 -998 
L 218 -998 
L 218 -838 
L 781 -838 
Q 947 -838 1014 -768 
Q 1082 -698 1082 -544 
L 1082 3731 
Q 1082 4077 755 4077 
L 218 4077 
L 218 4237 
L 1568 4237 
L 1568 -998 
z
" transform="scale(0.015625)"/>
      </defs>
      <use xlink:href="#STIXGeneral-Italic-45" transform="translate(0 0.703125)"/>
      <use xlink:href="#STIXGeneral-Regular-5b" transform="translate(61.099991 0.703125)"/>
      <use xlink:href="#STIXGeneral-Regular-394" transform="translate(94.399979 0.703125)"/>
      <use xlink:href="#STIXGeneral-Italic-66" transform="translate(166.59996 0.703125)"/>
      <use xlink:href="#STIXGeneral-Italic-43" transform="translate(194.399948 -12.525)scale(0.7)"/>
      <use xlink:href="#STIXGeneral-Regular-28" transform="translate(245.499321 0.703125)"/>
      <use xlink:href="#STIXGeneral-Italic-74" transform="translate(278.799309 0.703125)"/>
      <use xlink:href="#STIXGeneral-Regular-2b" transform="translate(321.039293 0.703125)"/>
      <use xlink:href="#STIXGeneral-Italic-68" transform="translate(403.979274 0.703125)"/>
      <use xlink:href="#STIXGeneral-Regular-29" transform="translate(453.979259 0.703125)"/>
      <use xlink:href="#STIXGeneral-Regular-5d" transform="translate(487.279247 0.703125)"/>
     </g>
    </g>
   </g>
   <g id="line2d_29">
    <path d="M 63.425455 44.862545 
L 73.069091 102.68431 
L 82.712727 138.864461 
L 92.356364 162.038715 
L 102 187.318041 
L 111.643636 214.431611 
L 121.287273 232.084668 
L 130.930909 250.747175 
L 140.574545 263.352985 
L 150.218182 262.946743 
L 159.861818 277.811504 
L 169.505455 276.346571 
L 179.149091 279.713455 
L 188.792727 271.884065 
L 198.436364 267.883198 
L 208.08 265.451902 
L 217.723636 260.238464 
L 227.367273 256.465338 
L 237.010909 247.638809 
L 246.654545 244.862823 
L 256.298182 238.676867 
L 265.941818 234.546741 
L 275.585455 232.158531 
L 285.229091 232.804825 
L 294.872727 235.790087 
L 304.516364 234.848344 
L 314.16 234.897586 
L 323.803636 223.147346 
L 333.447273 212.843574 
L 343.090909 208.091775 
L 352.734545 206.2206 
" clip-path="url(#p60bebbfff8)" style="fill: none; stroke: #463480; stroke-width: 1.8; stroke-linecap: square"/>
   </g>
   <g id="line2d_30">
    <path d="M 63.425455 145.827955 
L 73.069091 168.595761 
L 82.712727 182.186261 
L 92.356364 191.301806 
L 102 205.810317 
L 111.643636 214.563711 
L 121.287273 221.385631 
L 130.930909 221.385631 
L 140.574545 231.525867 
L 150.218182 242.86766 
L 159.861818 234.546602 
L 169.505455 239.372479 
L 179.149091 246.702533 
L 188.792727 242.345488 
L 198.436364 235.635863 
L 208.08 229.737569 
L 217.723636 233.782996 
L 227.367273 231.733613 
L 237.010909 225.70618 
L 246.654545 227.755563 
L 256.298182 223.794358 
L 265.941818 221.074012 
L 275.585455 219.757353 
L 285.229091 216.503606 
L 294.872727 213.828179 
L 304.516364 219.538378 
L 314.16 208.022528 
L 323.803636 216.118996 
L 333.447273 211.45314 
L 343.090909 201.239911 
L 352.734545 197.247825 
" clip-path="url(#p60bebbfff8)" style="fill: none; stroke: #355f8d; stroke-width: 1.8; stroke-linecap: square"/>
   </g>
   <g id="line2d_31">
    <path d="M 63.425455 178.542225 
L 73.069091 186.656317 
L 82.712727 201.157839 
L 92.356364 209.526937 
L 102 213.511783 
L 111.643636 216.295338 
L 121.287273 221.684251 
L 130.930909 225.31363 
L 140.574545 229.855538 
L 150.218182 232.535202 
L 159.861818 233.324965 
L 169.505455 227.913396 
L 179.149091 232.326237 
L 188.792727 236.563917 
L 198.436364 232.805627 
L 208.08 221.278768 
L 217.723636 220.753284 
L 227.367273 216.066944 
L 237.010909 217.74788 
L 246.654545 215.22494 
L 256.298182 219.419597 
L 265.941818 211.174713 
L 275.585455 210.686104 
L 285.229091 214.496636 
L 294.872727 203.562868 
L 304.516364 191.356875 
L 314.16 205.105519 
L 323.803636 201.186302 
L 333.447273 206.752705 
L 343.090909 198.487625 
L 352.734545 205.169769 
" clip-path="url(#p60bebbfff8)" style="fill: none; stroke: #25848e; stroke-width: 1.8; stroke-linecap: square"/>
   </g>
   <g id="line2d_32">
    <path d="M 63.425455 212.357793 
L 73.069091 196.61344 
L 82.712727 186.782284 
L 92.356364 181.497063 
L 102 171.337933 
L 111.643636 164.52844 
L 121.287273 162.611674 
L 130.930909 158.135635 
L 140.574545 156.135531 
L 150.218182 156.955466 
L 159.861818 151.124518 
L 169.505455 161.388492 
L 179.149091 154.044024 
L 188.792727 157.388284 
L 198.436364 159.302362 
L 208.08 163.961206 
L 217.723636 164.867167 
L 227.367273 170.954957 
L 237.010909 168.661401 
L 246.654545 167.308928 
L 256.298182 174.810195 
L 265.941818 176.926683 
L 275.585455 176.821655 
L 285.229091 182.585924 
L 294.872727 178.301052 
L 304.516364 176.367077 
L 314.16 180.692296 
L 323.803636 177.771159 
L 333.447273 178.435543 
L 343.090909 185.474783 
L 352.734545 184.215951 
" clip-path="url(#p60bebbfff8)" style="fill: none; stroke: #22a884; stroke-width: 1.8; stroke-linecap: square"/>
   </g>
   <g id="line2d_33">
    <path d="M 63.425455 203.20108 
L 73.069091 180.206071 
L 82.712727 172.154943 
L 92.356364 162.672281 
L 102 156.169149 
L 111.643636 154.682801 
L 121.287273 147.038314 
L 130.930909 135.788642 
L 140.574545 129.696628 
L 150.218182 127.807787 
L 159.861818 132.013836 
L 169.505455 124.829341 
L 179.149091 129.460882 
L 188.792727 131.251974 
L 198.436364 134.696162 
L 208.08 134.845659 
L 217.723636 135.515522 
L 227.367273 141.084297 
L 237.010909 145.703743 
L 246.654545 147.190387 
L 256.298182 143.857659 
L 265.941818 155.270598 
L 275.585455 158.634957 
L 285.229091 166.330482 
L 294.872727 166.879815 
L 304.516364 171.285989 
L 314.16 168.542197 
L 323.803636 173.943498 
L 333.447273 172.649257 
L 343.090909 172.522708 
L 352.734545 178.878872 
" clip-path="url(#p60bebbfff8)" style="fill: none; stroke: #5ec962; stroke-width: 1.8; stroke-linecap: square"/>
   </g>
   <g id="line2d_34">
    <path d="M 63.425455 181.120195 
L 73.069091 160.125208 
L 82.712727 141.715102 
L 92.356364 130.984969 
L 102 124.373415 
L 111.643636 114.447467 
L 121.287273 101.477102 
L 130.930909 96.697942 
L 140.574545 91.72348 
L 150.218182 79.218394 
L 159.861818 83.658648 
L 169.505455 89.339644 
L 179.149091 89.241993 
L 188.792727 88.322924 
L 198.436364 89.982993 
L 208.08 85.944832 
L 217.723636 97.841035 
L 227.367273 102.304265 
L 237.010909 107.99675 
L 246.654545 114.321095 
L 256.298182 119.226627 
L 265.941818 118.370744 
L 275.585455 128.773458 
L 285.229091 124.919112 
L 294.872727 135.810082 
L 304.516364 132.817363 
L 314.16 142.525032 
L 323.803636 149.050423 
L 333.447273 162.083974 
L 343.090909 162.801997 
L 352.734545 171.544643 
" clip-path="url(#p60bebbfff8)" style="fill: none; stroke: #bddf26; stroke-width: 1.8; stroke-linecap: square"/>
   </g>
   <g id="line2d_35">
    <path d="M 48.96 192.051375 
L 367.2 192.051375 
" clip-path="url(#p60bebbfff8)" style="fill: none; stroke-dasharray: 5.55,2.4; stroke-dashoffset: 0; stroke: #808080; stroke-opacity: 0.5; stroke-width: 1.5"/>
   </g>
   <g id="patch_3">
    <path d="M 48.96 291.456 
L 48.96 33.12 
" style="fill: none; stroke: #000000; stroke-width: 0.8; stroke-linejoin: miter; stroke-linecap: square"/>
   </g>
   <g id="patch_4">
    <path d="M 367.2 291.456 
L 367.2 33.12 
" style="fill: none; stroke: #000000; stroke-width: 0.8; stroke-linejoin: miter; stroke-linecap: square"/>
   </g>
   <g id="patch_5">
    <path d="M 48.96 291.456 
L 367.2 291.456 
" style="fill: none; stroke: #000000; stroke-width: 0.8; stroke-linejoin: miter; stroke-linecap: square"/>
   </g>
   <g id="patch_6">
    <path d="M 48.96 33.12 
L 367.2 33.12 
" style="fill: none; stroke: #000000; stroke-width: 0.8; stroke-linejoin: miter; stroke-linecap: square"/>
   </g>
   <g id="text_17">
    <!-- Event-study by ΔL quantile bins (step1) -->
    <g transform="translate(112.625625 27.12)scale(0.12 -0.12)">
     <defs>
      <path id="TimesNewRomanPSMT-45" d="M 1338 4006 
L 1338 2331 
L 2269 2331 
Q 2631 2331 2753 2441 
Q 2916 2584 2934 2947 
L 3050 2947 
L 3050 1472 
L 2934 1472 
Q 2891 1781 2847 1869 
Q 2791 1978 2662 2040 
Q 2534 2103 2269 2103 
L 1338 2103 
L 1338 706 
Q 1338 425 1363 364 
Q 1388 303 1450 267 
Q 1513 231 1688 231 
L 2406 231 
Q 2766 231 2928 281 
Q 3091 331 3241 478 
Q 3434 672 3638 1063 
L 3763 1063 
L 3397 0 
L 131 0 
L 131 116 
L 281 116 
Q 431 116 566 188 
Q 666 238 702 338 
Q 738 438 738 747 
L 738 3500 
Q 738 3903 656 3997 
Q 544 4122 281 4122 
L 131 4122 
L 131 4238 
L 3397 4238 
L 3444 3309 
L 3322 3309 
Q 3256 3644 3176 3769 
Q 3097 3894 2941 3959 
Q 2816 4006 2500 4006 
L 1338 4006 
z
" transform="scale(0.015625)"/>
      <path id="TimesNewRomanPSMT-76" d="M 53 2863 
L 1400 2863 
L 1400 2747 
L 1313 2747 
Q 1191 2747 1127 2687 
Q 1063 2628 1063 2528 
Q 1063 2419 1128 2269 
L 1794 688 
L 2463 2328 
Q 2534 2503 2534 2594 
Q 2534 2638 2509 2666 
Q 2475 2713 2422 2730 
Q 2369 2747 2206 2747 
L 2206 2863 
L 3141 2863 
L 3141 2747 
Q 2978 2734 2916 2681 
Q 2806 2588 2719 2369 
L 1703 -88 
L 1575 -88 
L 553 2328 
Q 484 2497 421 2570 
Q 359 2644 263 2694 
Q 209 2722 53 2747 
L 53 2863 
z
" transform="scale(0.015625)"/>
      <path id="TimesNewRomanPSMT-75" d="M 2709 2863 
L 2709 1128 
Q 2709 631 2732 520 
Q 2756 409 2807 365 
Q 2859 322 2928 322 
Q 3025 322 3147 375 
L 3191 266 
L 2334 -88 
L 2194 -88 
L 2194 519 
Q 1825 119 1631 15 
Q 1438 -88 1222 -88 
Q 981 -88 804 51 
Q 628 191 559 409 
Q 491 628 491 1028 
L 491 2306 
Q 491 2509 447 2587 
Q 403 2666 317 2708 
Q 231 2750 6 2747 
L 6 2863 
L 1009 2863 
L 1009 947 
Q 1009 547 1148 422 
Q 1288 297 1484 297 
Q 1619 297 1789 381 
Q 1959 466 2194 703 
L 2194 2325 
Q 2194 2569 2105 2655 
Q 2016 2741 1734 2747 
L 1734 2863 
L 2709 2863 
z
" transform="scale(0.015625)"/>
      <path id="TimesNewRomanPSMT-64" d="M 2222 322 
Q 2013 103 1813 7 
Q 1613 -88 1381 -88 
Q 913 -88 563 304 
Q 213 697 213 1313 
Q 213 1928 600 2439 
Q 988 2950 1597 2950 
Q 1975 2950 2222 2709 
L 2222 3238 
Q 2222 3728 2198 3840 
Q 2175 3953 2125 3993 
Q 2075 4034 2000 4034 
Q 1919 4034 1784 3984 
L 1744 4094 
L 2597 4444 
L 2738 4444 
L 2738 1134 
Q 2738 631 2761 520 
Q 2784 409 2836 365 
Q 2888 322 2956 322 
Q 3041 322 3181 375 
L 3216 266 
L 2366 -88 
L 2222 -88 
L 2222 322 
z
M 2222 541 
L 2222 2016 
Q 2203 2228 2109 2403 
Q 2016 2578 1861 2667 
Q 1706 2756 1559 2756 
Q 1284 2756 1069 2509 
Q 784 2184 784 1559 
Q 784 928 1059 592 
Q 1334 256 1672 256 
Q 1956 256 2222 541 
z
" transform="scale(0.015625)"/>
      <path id="TimesNewRomanPSMT-79" d="M 38 2863 
L 1372 2863 
L 1372 2747 
L 1306 2747 
Q 1166 2747 1095 2686 
Q 1025 2625 1025 2534 
Q 1025 2413 1128 2197 
L 1825 753 
L 2466 2334 
Q 2519 2463 2519 2588 
Q 2519 2644 2497 2672 
Q 2472 2706 2419 2726 
Q 2366 2747 2231 2747 
L 2231 2863 
L 3163 2863 
L 3163 2747 
Q 3047 2734 2984 2696 
Q 2922 2659 2847 2556 
Q 2819 2513 2741 2316 
L 1575 -541 
Q 1406 -956 1132 -1168 
Q 859 -1381 606 -1381 
Q 422 -1381 303 -1275 
Q 184 -1169 184 -1031 
Q 184 -900 270 -820 
Q 356 -741 506 -741 
Q 609 -741 788 -809 
Q 913 -856 944 -856 
Q 1038 -856 1148 -759 
Q 1259 -663 1372 -384 
L 1575 113 
L 547 2272 
Q 500 2369 397 2513 
Q 319 2622 269 2659 
Q 197 2709 38 2747 
L 38 2863 
z
" transform="scale(0.015625)"/>
      <path id="TimesNewRomanPSMT-62" d="M 984 2369 
Q 1400 2947 1881 2947 
Q 2322 2947 2650 2570 
Q 2978 2194 2978 1541 
Q 2978 778 2472 313 
Q 2038 -88 1503 -88 
Q 1253 -88 995 3 
Q 738 94 469 275 
L 469 3241 
Q 469 3728 445 3840 
Q 422 3953 372 3993 
Q 322 4034 247 4034 
Q 159 4034 28 3984 
L -16 4094 
L 844 4444 
L 984 4444 
L 984 2369 
z
M 984 2169 
L 984 456 
Q 1144 300 1314 220 
Q 1484 141 1663 141 
Q 1947 141 2192 453 
Q 2438 766 2438 1363 
Q 2438 1913 2192 2208 
Q 1947 2503 1634 2503 
Q 1469 2503 1303 2419 
Q 1178 2356 984 2169 
z
" transform="scale(0.015625)"/>
      <path id="TimesNewRomanPSMT-394" d="M 156 0 
L 2056 4334 
L 2163 4334 
L 3956 0 
L 156 0 
z
M 3209 266 
L 1944 3378 
L 575 266 
L 3209 266 
z
" transform="scale(0.015625)"/>
      <path id="TimesNewRomanPSMT-4c" d="M 3669 1172 
L 3772 1150 
L 3409 0 
L 128 0 
L 128 116 
L 288 116 
Q 556 116 672 291 
Q 738 391 738 753 
L 738 3488 
Q 738 3884 650 3984 
Q 528 4122 288 4122 
L 128 4122 
L 128 4238 
L 2047 4238 
L 2047 4122 
Q 1709 4125 1573 4059 
Q 1438 3994 1388 3894 
Q 1338 3794 1338 3416 
L 1338 753 
Q 1338 494 1388 397 
Q 1425 331 1503 300 
Q 1581 269 1991 269 
L 2300 269 
Q 2788 269 2984 341 
Q 3181 413 3343 595 
Q 3506 778 3669 1172 
z
" transform="scale(0.015625)"/>
      <path id="TimesNewRomanPSMT-71" d="M 2734 2947 
L 2734 -734 
Q 2734 -1009 2771 -1087 
Q 2809 -1166 2889 -1209 
Q 2969 -1253 3200 -1253 
L 3200 -1369 
L 1756 -1369 
L 1756 -1253 
L 1816 -1253 
Q 1991 -1253 2081 -1203 
Q 2144 -1169 2181 -1080 
Q 2219 -991 2219 -734 
L 2219 497 
Q 1934 159 1721 35 
Q 1509 -88 1281 -88 
Q 866 -88 539 290 
Q 213 669 213 1303 
Q 213 2031 644 2489 
Q 1075 2947 1684 2947 
Q 1863 2947 2013 2897 
Q 2163 2847 2281 2747 
Q 2463 2834 2628 2947 
L 2734 2947 
z
M 2219 694 
L 2219 2038 
Q 2219 2272 2158 2406 
Q 2097 2541 1940 2634 
Q 1784 2728 1588 2728 
Q 1238 2728 988 2431 
Q 738 2134 738 1531 
Q 738 953 992 653 
Q 1247 353 1606 353 
Q 1791 353 1934 433 
Q 2078 513 2219 694 
z
" transform="scale(0.015625)"/>
      <path id="TimesNewRomanPSMT-61" d="M 1822 413 
Q 1381 72 1269 19 
Q 1100 -59 909 -59 
Q 613 -59 420 144 
Q 228 347 228 678 
Q 228 888 322 1041 
Q 450 1253 767 1440 
Q 1084 1628 1822 1897 
L 1822 2009 
Q 1822 2438 1686 2597 
Q 1550 2756 1291 2756 
Q 1094 2756 978 2650 
Q 859 2544 859 2406 
L 866 2225 
Q 866 2081 792 2003 
Q 719 1925 600 1925 
Q 484 1925 411 2006 
Q 338 2088 338 2228 
Q 338 2497 613 2722 
Q 888 2947 1384 2947 
Q 1766 2947 2009 2819 
Q 2194 2722 2281 2516 
Q 2338 2381 2338 1966 
L 2338 994 
Q 2338 584 2353 492 
Q 2369 400 2405 369 
Q 2441 338 2488 338 
Q 2538 338 2575 359 
Q 2641 400 2828 588 
L 2828 413 
Q 2478 -56 2159 -56 
Q 2006 -56 1915 50 
Q 1825 156 1822 413 
z
M 1822 616 
L 1822 1706 
Q 1350 1519 1213 1441 
Q 966 1303 859 1153 
Q 753 1003 753 825 
Q 753 600 887 451 
Q 1022 303 1197 303 
Q 1434 303 1822 616 
z
" transform="scale(0.015625)"/>
      <path id="TimesNewRomanPSMT-6c" d="M 1184 4444 
L 1184 647 
Q 1184 378 1223 290 
Q 1263 203 1344 158 
Q 1425 113 1647 113 
L 1647 0 
L 244 0 
L 244 113 
Q 441 113 512 153 
Q 584 194 625 287 
Q 666 381 666 647 
L 666 3247 
Q 666 3731 644 3842 
Q 622 3953 573 3993 
Q 525 4034 450 4034 
Q 369 4034 244 3984 
L 191 4094 
L 1044 4444 
L 1184 4444 
z
" transform="scale(0.015625)"/>
     </defs>
     <use xlink:href="#TimesNewRomanPSMT-45"/>
     <use xlink:href="#TimesNewRomanPSMT-76" x="61.083984"/>
     <use xlink:href="#TimesNewRomanPSMT-65" x="111.083984"/>
     <use xlink:href="#TimesNewRomanPSMT-6e" x="155.46875"/>
     <use xlink:href="#TimesNewRomanPSMT-74" x="205.46875"/>
     <use xlink:href="#TimesNewRomanPSMT-2d" x="233.251953"/>
     <use xlink:href="#TimesNewRomanPSMT-73" x="266.552734"/>
     <use xlink:href="#TimesNewRomanPSMT-74" x="305.46875"/>
     <use xlink:href="#TimesNewRomanPSMT-75" x="333.251953"/>
     <use xlink:href="#TimesNewRomanPSMT-64" x="383.251953"/>
     <use xlink:href="#TimesNewRomanPSMT-79" x="433.251953"/>
     <use xlink:href="#TimesNewRomanPSMT-20" x="483.251953"/>
     <use xlink:href="#TimesNewRomanPSMT-62" x="508.251953"/>
     <use xlink:href="#TimesNewRomanPSMT-79" x="558.251953"/>
     <use xlink:href="#TimesNewRomanPSMT-20" x="608.251953"/>
     <use xlink:href="#TimesNewRomanPSMT-394" x="627.751953"/>
     <use xlink:href="#TimesNewRomanPSMT-4c" x="692.058594"/>
     <use xlink:href="#TimesNewRomanPSMT-20" x="749.392578"/>
     <use xlink:href="#TimesNewRomanPSMT-71" x="774.392578"/>
     <use xlink:href="#TimesNewRomanPSMT-75" x="824.392578"/>
     <use xlink:href="#TimesNewRomanPSMT-61" x="874.392578"/>
     <use xlink:href="#TimesNewRomanPSMT-6e" x="918.777344"/>
     <use xlink:href="#TimesNewRomanPSMT-74" x="968.777344"/>
     <use xlink:href="#TimesNewRomanPSMT-69" x="996.560547"/>
     <use xlink:href="#TimesNewRomanPSMT-6c" x="1024.34375"/>
     <use xlink:href="#TimesNewRomanPSMT-65" x="1052.126953"/>
     <use xlink:href="#TimesNewRomanPSMT-20" x="1096.511719"/>
     <use xlink:href="#TimesNewRomanPSMT-62" x="1121.511719"/>
     <use xlink:href="#TimesNewRomanPSMT-69" x="1171.511719"/>
     <use xlink:href="#TimesNewRomanPSMT-6e" x="1199.294922"/>
     <use xlink:href="#TimesNewRomanPSMT-73" x="1249.294922"/>
     <use xlink:href="#TimesNewRomanPSMT-20" x="1288.210938"/>
     <use xlink:href="#TimesNewRomanPSMT-28" x="1313.210938"/>
     <use xlink:href="#TimesNewRomanPSMT-73" x="1346.511719"/>
     <use xlink:href="#TimesNewRomanPSMT-74" x="1385.427734"/>
     <use xlink:href="#TimesNewRomanPSMT-65" x="1413.210938"/>
     <use xlink:href="#TimesNewRomanPSMT-70" x="1457.595703"/>
     <use xlink:href="#TimesNewRomanPSMT-31" x="1507.595703"/>
     <use xlink:href="#TimesNewRomanPSMT-29" x="1557.595703"/>
    </g>
   </g>
   <g id="legend_1">
    <g id="patch_7">
     <path d="M 236.16 287.456 
L 361.6 287.456 
Q 363.2 287.456 363.2 285.856 
L 363.2 207.456 
Q 363.2 205.856 361.6 205.856 
L 236.16 205.856 
Q 234.56 205.856 234.56 207.456 
L 234.56 285.856 
Q 234.56 287.456 236.16 287.456 
z
" style="fill: #ffffff; opacity: 0.8; stroke: #cccccc; stroke-linejoin: miter"/>
    </g>
    <g id="line2d_36">
     <path d="M 237.76 213.696 
L 245.76 213.696 
L 253.76 213.696 
" style="fill: none; stroke: #463480; stroke-width: 1.8; stroke-linecap: square"/>
    </g>
    <g id="text_18">
     <!-- [0%, 5%]  ($\overline{\Delta L}=-0.012$) -->
     <g transform="translate(260.16 216.496)scale(0.08 -0.08)">
      <defs>
       <path id="TimesNewRomanPSMT-5b" d="M 1900 -1269 
L 525 -1269 
L 525 4334 
L 1900 4334 
L 1900 4088 
L 994 4088 
L 994 -1025 
L 1900 -1025 
L 1900 -1269 
z
" transform="scale(0.015625)"/>
       <path id="TimesNewRomanPSMT-25" d="M 4350 4334 
L 1263 -175 
L 984 -175 
L 4072 4334 
L 4350 4334 
z
M 1138 4334 
Q 1559 4334 1792 3984 
Q 2025 3634 2025 3181 
Q 2025 2638 1762 2341 
Q 1500 2044 1131 2044 
Q 884 2044 678 2180 
Q 472 2316 348 2584 
Q 225 2853 225 3181 
Q 225 3509 350 3786 
Q 475 4063 692 4198 
Q 909 4334 1138 4334 
z
M 1128 4159 
Q 969 4159 845 3971 
Q 722 3784 722 3184 
Q 722 2750 791 2522 
Q 844 2350 956 2256 
Q 1022 2200 1119 2200 
Q 1269 2200 1375 2363 
Q 1531 2603 1531 3166 
Q 1531 3759 1378 4000 
Q 1278 4159 1128 4159 
z
M 4206 2103 
Q 4428 2103 4648 1962 
Q 4869 1822 4989 1553 
Q 5109 1284 5109 963 
Q 5109 409 4843 117 
Q 4578 -175 4216 -175 
Q 3988 -175 3773 -34 
Q 3559 106 3436 367 
Q 3313 628 3313 963 
Q 3313 1291 3436 1562 
Q 3559 1834 3773 1968 
Q 3988 2103 4206 2103 
z
M 4209 1938 
Q 4059 1938 3950 1769 
Q 3809 1550 3809 941 
Q 3809 381 3953 159 
Q 4059 0 4209 0 
Q 4353 0 4466 172 
Q 4616 400 4616 956 
Q 4616 1544 4466 1778 
Q 4363 1938 4209 1938 
z
" transform="scale(0.015625)"/>
       <path id="TimesNewRomanPSMT-2c" d="M 344 -1066 
L 344 -928 
Q 666 -822 842 -598 
Q 1019 -375 1019 -125 
Q 1019 -66 991 -25 
Q 969 3 947 3 
Q 913 3 797 -59 
Q 741 -88 678 -88 
Q 525 -88 434 3 
Q 344 94 344 253 
Q 344 406 461 515 
Q 578 625 747 625 
Q 953 625 1114 445 
Q 1275 266 1275 -31 
Q 1275 -353 1051 -629 
Q 828 -906 344 -1066 
z
" transform="scale(0.015625)"/>
       <path id="TimesNewRomanPSMT-5d" d="M 234 4334 
L 1609 4334 
L 1609 -1272 
L 234 -1272 
L 234 -1025 
L 1141 -1025 
L 1141 4088 
L 234 4088 
L 234 4334 
z
" transform="scale(0.015625)"/>
       <path id="STIXGeneral-Italic-4c" d="M 3578 1152 
L 3206 0 
L -51 0 
L -51 102 
Q 218 128 301 211 
Q 384 294 474 602 
L 1254 3405 
Q 1325 3642 1325 3802 
Q 1325 3942 1225 4000 
Q 1126 4058 832 4077 
L 832 4179 
L 2579 4179 
L 2579 4077 
Q 2285 4058 2147 3955 
Q 2010 3853 1933 3584 
L 1165 838 
Q 1101 595 1101 493 
Q 1101 346 1241 288 
Q 1382 230 1773 230 
Q 2266 230 2480 275 
Q 2694 320 2925 474 
Q 3187 646 3450 1190 
L 3578 1152 
z
" transform="scale(0.015625)"/>
       <path id="STIXGeneral-Regular-3d" d="M 4077 2048 
L 307 2048 
L 307 2470 
L 4077 2470 
L 4077 2048 
z
M 4077 768 
L 307 768 
L 307 1190 
L 4077 1190 
L 4077 768 
z
" transform="scale(0.015625)"/>
       <path id="STIXGeneral-Regular-2212" d="M 3974 1408 
L 410 1408 
L 410 1830 
L 3974 1830 
L 3974 1408 
z
" transform="scale(0.015625)"/>
       <path id="STIXGeneral-Regular-30" d="M 3046 2112 
Q 3046 1683 2963 1302 
Q 2880 922 2717 602 
Q 2554 282 2266 96 
Q 1978 -90 1600 -90 
Q 1210 -90 915 108 
Q 621 307 461 640 
Q 301 973 227 1350 
Q 154 1728 154 2150 
Q 154 2746 301 3222 
Q 448 3699 790 4012 
Q 1133 4326 1626 4326 
Q 2253 4326 2649 3712 
Q 3046 3098 3046 2112 
z
M 2432 2080 
Q 2432 3091 2217 3625 
Q 2003 4160 1587 4160 
Q 1190 4160 979 3622 
Q 768 3085 768 2106 
Q 768 1120 979 598 
Q 1190 77 1600 77 
Q 2003 77 2217 598 
Q 2432 1120 2432 2080 
z
" transform="scale(0.015625)"/>
       <path id="STIXGeneral-Regular-2e" d="M 1158 275 
Q 1158 134 1052 32 
Q 947 -70 800 -70 
Q 653 -70 550 32 
Q 448 134 448 281 
Q 448 429 553 534 
Q 659 640 806 640 
Q 947 640 1052 531 
Q 1158 422 1158 275 
z
" transform="scale(0.015625)"/>
       <path id="STIXGeneral-Regular-31" d="M 2522 0 
L 755 0 
L 755 96 
Q 1107 115 1235 227 
Q 1363 339 1363 608 
L 1363 3482 
Q 1363 3795 1171 3795 
Q 1082 3795 883 3718 
L 710 3654 
L 710 3744 
L 1856 4326 
L 1914 4307 
L 1914 486 
Q 1914 275 2042 185 
Q 2170 96 2522 96 
L 2522 0 
z
" transform="scale(0.015625)"/>
       <path id="STIXGeneral-Regular-32" d="M 3034 877 
L 2688 0 
L 186 0 
L 186 77 
L 1325 1286 
Q 1773 1754 1965 2144 
Q 2157 2534 2157 2950 
Q 2157 3379 1920 3616 
Q 1683 3853 1267 3853 
Q 922 3853 720 3673 
Q 518 3494 326 3021 
L 192 3053 
Q 301 3648 630 3987 
Q 960 4326 1523 4326 
Q 2054 4326 2380 4006 
Q 2707 3686 2707 3200 
Q 2707 2477 1888 1613 
L 832 486 
L 2330 486 
Q 2541 486 2665 569 
Q 2790 653 2944 915 
L 3034 877 
z
" transform="scale(0.015625)"/>
      </defs>
      <use xlink:href="#TimesNewRomanPSMT-5b" transform="translate(0 0.84375)"/>
      <use xlink:href="#TimesNewRomanPSMT-30" transform="translate(33.300781 0.84375)"/>
      <use xlink:href="#TimesNewRomanPSMT-25" transform="translate(83.300781 0.84375)"/>
      <use xlink:href="#TimesNewRomanPSMT-2c" transform="translate(166.601562 0.84375)"/>
      <use xlink:href="#TimesNewRomanPSMT-20" transform="translate(191.601562 0.84375)"/>
      <use xlink:href="#TimesNewRomanPSMT-35" transform="translate(216.601562 0.84375)"/>
      <use xlink:href="#TimesNewRomanPSMT-25" transform="translate(266.601562 0.84375)"/>
      <use xlink:href="#TimesNewRomanPSMT-5d" transform="translate(349.902344 0.84375)"/>
      <use xlink:href="#TimesNewRomanPSMT-20" transform="translate(383.203125 0.84375)"/>
      <use xlink:href="#TimesNewRomanPSMT-20" transform="translate(408.203125 0.84375)"/>
      <use xlink:href="#TimesNewRomanPSMT-28" transform="translate(433.203125 0.84375)"/>
      <use xlink:href="#STIXGeneral-Regular-394" transform="translate(466.503906 1.34375)"/>
      <use xlink:href="#STIXGeneral-Italic-4c" transform="translate(538.703888 1.34375)"/>
      <use xlink:href="#STIXGeneral-Regular-3d" transform="translate(608.743875 0.84375)"/>
      <use xlink:href="#STIXGeneral-Regular-2212" transform="translate(706.123853 0.84375)"/>
      <use xlink:href="#STIXGeneral-Regular-30" transform="translate(789.063834 0.84375)"/>
      <use xlink:href="#STIXGeneral-Regular-2e" transform="translate(839.063818 0.84375)"/>
      <use xlink:href="#STIXGeneral-Regular-30" transform="translate(864.063803 0.84375)"/>
      <use xlink:href="#STIXGeneral-Regular-31" transform="translate(914.063788 0.84375)"/>
      <use xlink:href="#STIXGeneral-Regular-32" transform="translate(964.063773 0.84375)"/>
      <use xlink:href="#TimesNewRomanPSMT-29" transform="translate(1014.063757 0.84375)"/>
      <path d="M 466.503906 80.5 
L 466.503906 86.75 
L 594.303879 86.75 
L 594.303879 80.5 
L 466.503906 80.5 
z
"/>
     </g>
    </g>
    <g id="line2d_37">
     <path d="M 237.76 226.896 
L 245.76 226.896 
L 253.76 226.896 
" style="fill: none; stroke: #355f8d; stroke-width: 1.8; stroke-linecap: square"/>
    </g>
    <g id="text_19">
     <!-- [5%, 15%]  ($\overline{\Delta L}=-0.00664$) -->
     <g transform="translate(260.16 229.696)scale(0.08 -0.08)">
      <defs>
       <path id="STIXGeneral-Regular-36" d="M 2854 4378 
L 2867 4275 
Q 2112 4154 1606 3664 
Q 1101 3174 973 2451 
Q 1344 2739 1786 2739 
Q 2349 2739 2672 2380 
Q 2995 2022 2995 1402 
Q 2995 774 2669 378 
Q 2291 -90 1651 -90 
Q 870 -90 518 557 
Q 218 1107 218 1786 
Q 218 2835 915 3552 
Q 1312 3962 1731 4131 
Q 2150 4301 2854 4378 
z
M 2419 1203 
Q 2419 2445 1555 2445 
Q 1235 2445 1024 2275 
Q 813 2106 813 1702 
Q 813 954 1046 522 
Q 1280 90 1722 90 
Q 2061 90 2240 394 
Q 2419 698 2419 1203 
z
" transform="scale(0.015625)"/>
       <path id="STIXGeneral-Regular-34" d="M 3027 1069 
L 2368 1069 
L 2368 0 
L 1869 0 
L 1869 1069 
L 77 1069 
L 77 1478 
L 2086 4326 
L 2368 4326 
L 2368 1478 
L 3027 1478 
L 3027 1069 
z
M 1869 1478 
L 1869 3674 
L 333 1478 
L 1869 1478 
z
" transform="scale(0.015625)"/>
      </defs>
      <use xlink:href="#TimesNewRomanPSMT-5b" transform="translate(0 0.84375)"/>
      <use xlink:href="#TimesNewRomanPSMT-35" transform="translate(33.300781 0.84375)"/>
      <use xlink:href="#TimesNewRomanPSMT-25" transform="translate(83.300781 0.84375)"/>
      <use xlink:href="#TimesNewRomanPSMT-2c" transform="translate(166.601562 0.84375)"/>
      <use xlink:href="#TimesNewRomanPSMT-20" transform="translate(191.601562 0.84375)"/>
      <use xlink:href="#TimesNewRomanPSMT-31" transform="translate(216.601562 0.84375)"/>
      <use xlink:href="#TimesNewRomanPSMT-35" transform="translate(266.601562 0.84375)"/>
      <use xlink:href="#TimesNewRomanPSMT-25" transform="translate(316.601562 0.84375)"/>
      <use xlink:href="#TimesNewRomanPSMT-5d" transform="translate(399.902344 0.84375)"/>
      <use xlink:href="#TimesNewRomanPSMT-20" transform="translate(433.203125 0.84375)"/>
      <use xlink:href="#TimesNewRomanPSMT-20" transform="translate(458.203125 0.84375)"/>
      <use xlink:href="#TimesNewRomanPSMT-28" transform="translate(483.203125 0.84375)"/>
      <use xlink:href="#STIXGeneral-Regular-394" transform="translate(516.503906 1.34375)"/>
      <use xlink:href="#STIXGeneral-Italic-4c" transform="translate(588.703888 1.34375)"/>
      <use xlink:href="#STIXGeneral-Regular-3d" transform="translate(658.743875 0.84375)"/>
      <use xlink:href="#STIXGeneral-Regular-2212" transform="translate(756.123853 0.84375)"/>
      <use xlink:href="#STIXGeneral-Regular-30" transform="translate(839.063834 0.84375)"/>
      <use xlink:href="#STIXGeneral-Regular-2e" transform="translate(889.063818 0.84375)"/>
      <use xlink:href="#STIXGeneral-Regular-30" transform="translate(914.063803 0.84375)"/>
      <use xlink:href="#STIXGeneral-Regular-30" transform="translate(964.063788 0.84375)"/>
      <use xlink:href="#STIXGeneral-Regular-36" transform="translate(1014.063773 0.84375)"/>
      <use xlink:href="#STIXGeneral-Regular-36" transform="translate(1064.063757 0.84375)"/>
      <use xlink:href="#STIXGeneral-Regular-34" transform="translate(1114.063742 0.84375)"/>
      <use xlink:href="#TimesNewRomanPSMT-29" transform="translate(1164.063727 0.84375)"/>
      <path d="M 516.503906 80.5 
L 516.503906 86.75 
L 644.303879 86.75 
L 644.303879 80.5 
L 516.503906 80.5 
z
"/>
     </g>
    </g>
    <g id="line2d_38">
     <path d="M 237.76 240.096 
L 245.76 240.096 
L 253.76 240.096 
" style="fill: none; stroke: #25848e; stroke-width: 1.8; stroke-linecap: square"/>
    </g>
    <g id="text_20">
     <!-- [15%, 25%]  ($\overline{\Delta L}=-0.00401$) -->
     <g transform="translate(260.16 242.896)scale(0.08 -0.08)">
      <use xlink:href="#TimesNewRomanPSMT-5b" transform="translate(0 0.84375)"/>
      <use xlink:href="#TimesNewRomanPSMT-31" transform="translate(33.300781 0.84375)"/>
      <use xlink:href="#TimesNewRomanPSMT-35" transform="translate(83.300781 0.84375)"/>
      <use xlink:href="#TimesNewRomanPSMT-25" transform="translate(133.300781 0.84375)"/>
      <use xlink:href="#TimesNewRomanPSMT-2c" transform="translate(216.601562 0.84375)"/>
      <use xlink:href="#TimesNewRomanPSMT-20" transform="translate(241.601562 0.84375)"/>
      <use xlink:href="#TimesNewRomanPSMT-32" transform="translate(266.601562 0.84375)"/>
      <use xlink:href="#TimesNewRomanPSMT-35" transform="translate(316.601562 0.84375)"/>
      <use xlink:href="#TimesNewRomanPSMT-25" transform="translate(366.601562 0.84375)"/>
      <use xlink:href="#TimesNewRomanPSMT-5d" transform="translate(449.902344 0.84375)"/>
      <use xlink:href="#TimesNewRomanPSMT-20" transform="translate(483.203125 0.84375)"/>
      <use xlink:href="#TimesNewRomanPSMT-20" transform="translate(508.203125 0.84375)"/>
      <use xlink:href="#TimesNewRomanPSMT-28" transform="translate(533.203125 0.84375)"/>
      <use xlink:href="#STIXGeneral-Regular-394" transform="translate(566.503906 1.34375)"/>
      <use xlink:href="#STIXGeneral-Italic-4c" transform="translate(638.703888 1.34375)"/>
      <use xlink:href="#STIXGeneral-Regular-3d" transform="translate(708.743875 0.84375)"/>
      <use xlink:href="#STIXGeneral-Regular-2212" transform="translate(806.123853 0.84375)"/>
      <use xlink:href="#STIXGeneral-Regular-30" transform="translate(889.063834 0.84375)"/>
      <use xlink:href="#STIXGeneral-Regular-2e" transform="translate(939.063818 0.84375)"/>
      <use xlink:href="#STIXGeneral-Regular-30" transform="translate(964.063803 0.84375)"/>
      <use xlink:href="#STIXGeneral-Regular-30" transform="translate(1014.063788 0.84375)"/>
      <use xlink:href="#STIXGeneral-Regular-34" transform="translate(1064.063773 0.84375)"/>
      <use xlink:href="#STIXGeneral-Regular-30" transform="translate(1114.063757 0.84375)"/>
      <use xlink:href="#STIXGeneral-Regular-31" transform="translate(1164.063742 0.84375)"/>
      <use xlink:href="#TimesNewRomanPSMT-29" transform="translate(1214.063727 0.84375)"/>
      <path d="M 566.503906 80.5 
L 566.503906 86.75 
L 694.303879 86.75 
L 694.303879 80.5 
L 566.503906 80.5 
z
"/>
     </g>
    </g>
    <g id="line2d_39">
     <path d="M 237.76 253.296 
L 245.76 253.296 
L 253.76 253.296 
" style="fill: none; stroke: #22a884; stroke-width: 1.8; stroke-linecap: square"/>
    </g>
    <g id="text_21">
     <!-- [75%, 85%]  ($\overline{\Delta L}=0.00395$) -->
     <g transform="translate(260.16 256.096)scale(0.08 -0.08)">
      <defs>
       <path id="TimesNewRomanPSMT-37" d="M 644 4238 
L 2916 4238 
L 2916 4119 
L 1503 -88 
L 1153 -88 
L 2419 3728 
L 1253 3728 
Q 900 3728 750 3644 
Q 488 3500 328 3200 
L 238 3234 
L 644 4238 
z
" transform="scale(0.015625)"/>
       <path id="TimesNewRomanPSMT-38" d="M 1228 2134 
Q 725 2547 579 2797 
Q 434 3047 434 3316 
Q 434 3728 753 4026 
Q 1072 4325 1600 4325 
Q 2113 4325 2425 4047 
Q 2738 3769 2738 3413 
Q 2738 3175 2569 2928 
Q 2400 2681 1866 2347 
Q 2416 1922 2594 1678 
Q 2831 1359 2831 1006 
Q 2831 559 2490 242 
Q 2150 -75 1597 -75 
Q 994 -75 656 303 
Q 388 606 388 966 
Q 388 1247 577 1523 
Q 766 1800 1228 2134 
z
M 1719 2469 
Q 2094 2806 2194 3001 
Q 2294 3197 2294 3444 
Q 2294 3772 2109 3958 
Q 1925 4144 1606 4144 
Q 1288 4144 1088 3959 
Q 888 3775 888 3528 
Q 888 3366 970 3203 
Q 1053 3041 1206 2894 
L 1719 2469 
z
M 1375 2016 
Q 1116 1797 991 1539 
Q 866 1281 866 981 
Q 866 578 1086 336 
Q 1306 94 1647 94 
Q 1984 94 2187 284 
Q 2391 475 2391 747 
Q 2391 972 2272 1150 
Q 2050 1481 1375 2016 
z
" transform="scale(0.015625)"/>
       <path id="STIXGeneral-Regular-33" d="M 390 3264 
L 288 3290 
Q 435 3770 748 4048 
Q 1062 4326 1542 4326 
Q 1990 4326 2265 4083 
Q 2541 3840 2541 3450 
Q 2541 2925 1946 2566 
Q 2298 2413 2477 2227 
Q 2758 1914 2758 1402 
Q 2758 890 2464 506 
Q 2246 211 1840 60 
Q 1434 -90 979 -90 
Q 262 -90 262 275 
Q 262 378 339 442 
Q 416 506 525 506 
Q 685 506 915 339 
Q 1197 141 1466 141 
Q 1818 141 2058 425 
Q 2298 710 2298 1120 
Q 2298 1856 1632 2048 
Q 1434 2112 979 2112 
L 979 2202 
Q 1338 2323 1517 2432 
Q 2035 2726 2035 3290 
Q 2035 3610 1852 3776 
Q 1670 3942 1344 3942 
Q 768 3942 390 3264 
z
" transform="scale(0.015625)"/>
       <path id="STIXGeneral-Regular-39" d="M 378 -141 
L 358 -13 
Q 1094 115 1603 608 
Q 2112 1101 2304 1882 
Q 1933 1517 1344 1517 
Q 826 1517 509 1875 
Q 192 2234 192 2816 
Q 192 3462 573 3894 
Q 954 4326 1523 4326 
Q 2131 4326 2528 3840 
Q 2938 3328 2938 2522 
Q 2938 1958 2742 1462 
Q 2547 966 2170 621 
Q 1773 262 1395 105 
Q 1018 -51 378 -141 
z
M 2317 2272 
L 2317 2522 
Q 2317 4147 1472 4147 
Q 1171 4147 1005 3930 
Q 909 3802 845 3546 
Q 781 3290 781 3034 
Q 781 2464 995 2128 
Q 1210 1792 1568 1792 
Q 1824 1792 2070 1917 
Q 2317 2042 2317 2272 
z
" transform="scale(0.015625)"/>
       <path id="STIXGeneral-Regular-35" d="M 2803 4358 
L 2573 3814 
Q 2534 3731 2400 3731 
L 1158 3731 
L 902 3187 
Q 1606 3053 1920 2896 
Q 2234 2739 2502 2368 
Q 2726 2061 2726 1555 
Q 2726 1094 2576 780 
Q 2426 467 2099 224 
Q 1664 -90 1011 -90 
Q 646 -90 422 19 
Q 198 128 198 307 
Q 198 550 486 550 
Q 717 550 960 352 
Q 1210 147 1414 147 
Q 1747 147 2012 480 
Q 2278 813 2278 1229 
Q 2278 1843 1850 2189 
Q 1293 2637 486 2637 
Q 410 2637 410 2688 
L 416 2720 
L 1114 4237 
L 2438 4237 
Q 2547 4237 2608 4269 
Q 2669 4301 2746 4403 
L 2803 4358 
z
" transform="scale(0.015625)"/>
      </defs>
      <use xlink:href="#TimesNewRomanPSMT-5b" transform="translate(0 0.84375)"/>
      <use xlink:href="#TimesNewRomanPSMT-37" transform="translate(33.300781 0.84375)"/>
      <use xlink:href="#TimesNewRomanPSMT-35" transform="translate(83.300781 0.84375)"/>
      <use xlink:href="#TimesNewRomanPSMT-25" transform="translate(133.300781 0.84375)"/>
      <use xlink:href="#TimesNewRomanPSMT-2c" transform="translate(216.601562 0.84375)"/>
      <use xlink:href="#TimesNewRomanPSMT-20" transform="translate(241.601562 0.84375)"/>
      <use xlink:href="#TimesNewRomanPSMT-38" transform="translate(266.601562 0.84375)"/>
      <use xlink:href="#TimesNewRomanPSMT-35" transform="translate(316.601562 0.84375)"/>
      <use xlink:href="#TimesNewRomanPSMT-25" transform="translate(366.601562 0.84375)"/>
      <use xlink:href="#TimesNewRomanPSMT-5d" transform="translate(449.902344 0.84375)"/>
      <use xlink:href="#TimesNewRomanPSMT-20" transform="translate(483.203125 0.84375)"/>
      <use xlink:href="#TimesNewRomanPSMT-20" transform="translate(508.203125 0.84375)"/>
      <use xlink:href="#TimesNewRomanPSMT-28" transform="translate(533.203125 0.84375)"/>
      <use xlink:href="#STIXGeneral-Regular-394" transform="translate(566.503906 1.34375)"/>
      <use xlink:href="#STIXGeneral-Italic-4c" transform="translate(638.703888 1.34375)"/>
      <use xlink:href="#STIXGeneral-Regular-3d" transform="translate(708.743875 0.84375)"/>
      <use xlink:href="#STIXGeneral-Regular-30" transform="translate(791.683856 0.84375)"/>
      <use xlink:href="#STIXGeneral-Regular-2e" transform="translate(841.683841 0.84375)"/>
      <use xlink:href="#STIXGeneral-Regular-30" transform="translate(866.683826 0.84375)"/>
      <use xlink:href="#STIXGeneral-Regular-30" transform="translate(916.68381 0.84375)"/>
      <use xlink:href="#STIXGeneral-Regular-33" transform="translate(966.683795 0.84375)"/>
      <use xlink:href="#STIXGeneral-Regular-39" transform="translate(1016.68378 0.84375)"/>
      <use xlink:href="#STIXGeneral-Regular-35" transform="translate(1066.683765 0.84375)"/>
      <use xlink:href="#TimesNewRomanPSMT-29" transform="translate(1116.683749 0.84375)"/>
      <path d="M 566.503906 80.5 
L 566.503906 86.75 
L 694.303879 86.75 
L 694.303879 80.5 
L 566.503906 80.5 
z
"/>
     </g>
    </g>
    <g id="line2d_40">
     <path d="M 237.76 266.496 
L 245.76 266.496 
L 253.76 266.496 
" style="fill: none; stroke: #5ec962; stroke-width: 1.8; stroke-linecap: square"/>
    </g>
    <g id="text_22">
     <!-- [85%, 95%]  ($\overline{\Delta L}=0.00643$) -->
     <g transform="translate(260.16 269.296)scale(0.08 -0.08)">
      <defs>
       <path id="TimesNewRomanPSMT-39" d="M 338 -88 
L 338 28 
Q 744 34 1094 217 
Q 1444 400 1770 856 
Q 2097 1313 2225 1859 
Q 1734 1544 1338 1544 
Q 891 1544 572 1889 
Q 253 2234 253 2806 
Q 253 3363 572 3797 
Q 956 4325 1575 4325 
Q 2097 4325 2469 3894 
Q 2925 3359 2925 2575 
Q 2925 1869 2578 1258 
Q 2231 647 1613 244 
Q 1109 -88 516 -88 
L 338 -88 
z
M 2275 2091 
Q 2331 2497 2331 2741 
Q 2331 3044 2228 3395 
Q 2125 3747 1936 3934 
Q 1747 4122 1506 4122 
Q 1228 4122 1018 3872 
Q 809 3622 809 3128 
Q 809 2469 1088 2097 
Q 1291 1828 1588 1828 
Q 1731 1828 1928 1897 
Q 2125 1966 2275 2091 
z
" transform="scale(0.015625)"/>
      </defs>
      <use xlink:href="#TimesNewRomanPSMT-5b" transform="translate(0 0.84375)"/>
      <use xlink:href="#TimesNewRomanPSMT-38" transform="translate(33.300781 0.84375)"/>
      <use xlink:href="#TimesNewRomanPSMT-35" transform="translate(83.300781 0.84375)"/>
      <use xlink:href="#TimesNewRomanPSMT-25" transform="translate(133.300781 0.84375)"/>
      <use xlink:href="#TimesNewRomanPSMT-2c" transform="translate(216.601562 0.84375)"/>
      <use xlink:href="#TimesNewRomanPSMT-20" transform="translate(241.601562 0.84375)"/>
      <use xlink:href="#TimesNewRomanPSMT-39" transform="translate(266.601562 0.84375)"/>
      <use xlink:href="#TimesNewRomanPSMT-35" transform="translate(316.601562 0.84375)"/>
      <use xlink:href="#TimesNewRomanPSMT-25" transform="translate(366.601562 0.84375)"/>
      <use xlink:href="#TimesNewRomanPSMT-5d" transform="translate(449.902344 0.84375)"/>
      <use xlink:href="#TimesNewRomanPSMT-20" transform="translate(483.203125 0.84375)"/>
      <use xlink:href="#TimesNewRomanPSMT-20" transform="translate(508.203125 0.84375)"/>
      <use xlink:href="#TimesNewRomanPSMT-28" transform="translate(533.203125 0.84375)"/>
      <use xlink:href="#STIXGeneral-Regular-394" transform="translate(566.503906 1.34375)"/>
      <use xlink:href="#STIXGeneral-Italic-4c" transform="translate(638.703888 1.34375)"/>
      <use xlink:href="#STIXGeneral-Regular-3d" transform="translate(708.743875 0.84375)"/>
      <use xlink:href="#STIXGeneral-Regular-30" transform="translate(791.683856 0.84375)"/>
      <use xlink:href="#STIXGeneral-Regular-2e" transform="translate(841.683841 0.84375)"/>
      <use xlink:href="#STIXGeneral-Regular-30" transform="translate(866.683826 0.84375)"/>
      <use xlink:href="#STIXGeneral-Regular-30" transform="translate(916.68381 0.84375)"/>
      <use xlink:href="#STIXGeneral-Regular-36" transform="translate(966.683795 0.84375)"/>
      <use xlink:href="#STIXGeneral-Regular-34" transform="translate(1016.68378 0.84375)"/>
      <use xlink:href="#STIXGeneral-Regular-33" transform="translate(1066.683765 0.84375)"/>
      <use xlink:href="#TimesNewRomanPSMT-29" transform="translate(1116.683749 0.84375)"/>
      <path d="M 566.503906 80.5 
L 566.503906 86.75 
L 694.303879 86.75 
L 694.303879 80.5 
L 566.503906 80.5 
z
"/>
     </g>
    </g>
    <g id="line2d_41">
     <path d="M 237.76 279.696 
L 245.76 279.696 
L 253.76 279.696 
" style="fill: none; stroke: #bddf26; stroke-width: 1.8; stroke-linecap: square"/>
    </g>
    <g id="text_23">
     <!-- [95%, 100%]  ($\overline{\Delta L}=0.0113$) -->
     <g transform="translate(260.16 282.496)scale(0.08 -0.08)">
      <use xlink:href="#TimesNewRomanPSMT-5b" transform="translate(0 0.84375)"/>
      <use xlink:href="#TimesNewRomanPSMT-39" transform="translate(33.300781 0.84375)"/>
      <use xlink:href="#TimesNewRomanPSMT-35" transform="translate(83.300781 0.84375)"/>
      <use xlink:href="#TimesNewRomanPSMT-25" transform="translate(133.300781 0.84375)"/>
      <use xlink:href="#TimesNewRomanPSMT-2c" transform="translate(216.601562 0.84375)"/>
      <use xlink:href="#TimesNewRomanPSMT-20" transform="translate(241.601562 0.84375)"/>
      <use xlink:href="#TimesNewRomanPSMT-31" transform="translate(266.601562 0.84375)"/>
      <use xlink:href="#TimesNewRomanPSMT-30" transform="translate(316.601562 0.84375)"/>
      <use xlink:href="#TimesNewRomanPSMT-30" transform="translate(366.601562 0.84375)"/>
      <use xlink:href="#TimesNewRomanPSMT-25" transform="translate(416.601562 0.84375)"/>
      <use xlink:href="#TimesNewRomanPSMT-5d" transform="translate(499.902344 0.84375)"/>
      <use xlink:href="#TimesNewRomanPSMT-20" transform="translate(533.203125 0.84375)"/>
      <use xlink:href="#TimesNewRomanPSMT-20" transform="translate(558.203125 0.84375)"/>
      <use xlink:href="#TimesNewRomanPSMT-28" transform="translate(583.203125 0.84375)"/>
      <use xlink:href="#STIXGeneral-Regular-394" transform="translate(616.503906 1.34375)"/>
      <use xlink:href="#STIXGeneral-Italic-4c" transform="translate(688.703888 1.34375)"/>
      <use xlink:href="#STIXGeneral-Regular-3d" transform="translate(758.743875 0.84375)"/>
      <use xlink:href="#STIXGeneral-Regular-30" transform="translate(841.683856 0.84375)"/>
      <use xlink:href="#STIXGeneral-Regular-2e" transform="translate(891.683841 0.84375)"/>
      <use xlink:href="#STIXGeneral-Regular-30" transform="translate(916.683826 0.84375)"/>
      <use xlink:href="#STIXGeneral-Regular-31" transform="translate(966.68381 0.84375)"/>
      <use xlink:href="#STIXGeneral-Regular-31" transform="translate(1016.683795 0.84375)"/>
      <use xlink:href="#STIXGeneral-Regular-33" transform="translate(1066.68378 0.84375)"/>
      <use xlink:href="#TimesNewRomanPSMT-29" transform="translate(1116.683765 0.84375)"/>
      <path d="M 616.503906 80.5 
L 616.503906 86.75 
L 744.303879 86.75 
L 744.303879 80.5 
L 616.503906 80.5 
z
"/>
     </g>
    </g>
   </g>
  </g>
  <g id="axes_2">
   <g id="patch_8">
    <path d="M 391.68 158.976 
L 479.808 158.976 
L 479.808 39.744 
L 391.68 39.744 
z
" style="fill: #ffffff"/>
   </g>
   <g id="patch_9">
    <path d="M 436.959241 153.556364 
L 395.685818 153.556364 
L 395.685818 138.605643 
L 436.959241 138.605643 
z
" clip-path="url(#pccd5cfcd9c)" style="fill: #463480; opacity: 0.9"/>
   </g>
   <g id="patch_10">
    <path d="M 436.959241 134.867962 
L 414.08726 134.867962 
L 414.08726 119.917241 
L 436.959241 119.917241 
z
" clip-path="url(#pccd5cfcd9c)" style="fill: #355f8d; opacity: 0.9"/>
   </g>
   <g id="patch_11">
    <path d="M 436.959241 116.179561 
L 423.137697 116.179561 
L 423.137697 101.22884 
L 436.959241 101.22884 
z
" clip-path="url(#pccd5cfcd9c)" style="fill: #25848e; opacity: 0.9"/>
   </g>
   <g id="patch_12">
    <path d="M 436.959241 97.49116 
L 450.557294 97.49116 
L 450.557294 82.540439 
L 436.959241 82.540439 
z
" clip-path="url(#pccd5cfcd9c)" style="fill: #22a884; opacity: 0.9"/>
   </g>
   <g id="patch_13">
    <path d="M 436.959241 78.802759 
L 459.134286 78.802759 
L 459.134286 63.852038 
L 436.959241 63.852038 
z
" clip-path="url(#pccd5cfcd9c)" style="fill: #5ec962; opacity: 0.9"/>
   </g>
   <g id="patch_14">
    <path d="M 436.959241 60.114357 
L 475.802182 60.114357 
L 475.802182 45.163636 
L 436.959241 45.163636 
z
" clip-path="url(#pccd5cfcd9c)" style="fill: #bddf26; opacity: 0.9"/>
   </g>
   <g id="matplotlib.axis_3">
    <g id="xtick_8">
     <g id="line2d_42">
      <path d="M 402.496227 158.976 
L 402.496227 39.744 
" clip-path="url(#pccd5cfcd9c)" style="fill: none; stroke-dasharray: 0.8,1.32; stroke-dashoffset: 0; stroke: #b0b0b0; stroke-opacity: 0.3; stroke-width: 0.8"/>
     </g>
     <g id="line2d_43">
      <g>
       <use xlink:href="#mb553c6372c" x="402.496227" y="158.976" style="stroke: #000000; stroke-width: 0.8"/>
      </g>
     </g>
     <g id="text_24">
      <!-- -0.01 -->
      <g transform="translate(394.164352 171.531)scale(0.08 -0.08)">
       <use xlink:href="#TimesNewRomanPSMT-2d"/>
       <use xlink:href="#TimesNewRomanPSMT-30" x="33.300781"/>
       <use xlink:href="#TimesNewRomanPSMT-2e" x="83.300781"/>
       <use xlink:href="#TimesNewRomanPSMT-30" x="108.300781"/>
       <use xlink:href="#TimesNewRomanPSMT-31" x="158.300781"/>
      </g>
     </g>
    </g>
    <g id="xtick_9">
     <g id="line2d_44">
      <path d="M 436.959241 158.976 
L 436.959241 39.744 
" clip-path="url(#pccd5cfcd9c)" style="fill: none; stroke-dasharray: 0.8,1.32; stroke-dashoffset: 0; stroke: #b0b0b0; stroke-opacity: 0.3; stroke-width: 0.8"/>
     </g>
     <g id="line2d_45">
      <g>
       <use xlink:href="#mb553c6372c" x="436.959241" y="158.976" style="stroke: #000000; stroke-width: 0.8"/>
      </g>
     </g>
     <g id="text_25">
      <!-- 0.00 -->
      <g transform="translate(429.959241 171.531)scale(0.08 -0.08)">
       <use xlink:href="#TimesNewRomanPSMT-30"/>
       <use xlink:href="#TimesNewRomanPSMT-2e" x="50"/>
       <use xlink:href="#TimesNewRomanPSMT-30" x="75"/>
       <use xlink:href="#TimesNewRomanPSMT-30" x="125"/>
      </g>
     </g>
    </g>
    <g id="xtick_10">
     <g id="line2d_46">
      <path d="M 471.422256 158.976 
L 471.422256 39.744 
" clip-path="url(#pccd5cfcd9c)" style="fill: none; stroke-dasharray: 0.8,1.32; stroke-dashoffset: 0; stroke: #b0b0b0; stroke-opacity: 0.3; stroke-width: 0.8"/>
     </g>
     <g id="line2d_47">
      <g>
       <use xlink:href="#mb553c6372c" x="471.422256" y="158.976" style="stroke: #000000; stroke-width: 0.8"/>
      </g>
     </g>
     <g id="text_26">
      <!-- 0.01 -->
      <g transform="translate(464.422256 171.531)scale(0.08 -0.08)">
       <use xlink:href="#TimesNewRomanPSMT-30"/>
       <use xlink:href="#TimesNewRomanPSMT-2e" x="50"/>
       <use xlink:href="#TimesNewRomanPSMT-30" x="75"/>
       <use xlink:href="#TimesNewRomanPSMT-31" x="125"/>
      </g>
     </g>
    </g>
    <g id="text_27">
     <!-- $\overline{\Delta L}$ -->
     <g transform="translate(430.624 182.971)scale(0.08 -0.08)">
      <use xlink:href="#STIXGeneral-Regular-394" transform="translate(0 1.34375)"/>
      <use xlink:href="#STIXGeneral-Italic-4c" transform="translate(72.199982 1.34375)"/>
      <path d="M 0 80.5 
L 0 86.75 
L 127.799973 86.75 
L 127.799973 80.5 
L 0 80.5 
z
"/>
     </g>
    </g>
   </g>
   <g id="matplotlib.axis_4">
    <g id="ytick_8">
     <g id="line2d_48">
      <path d="M 391.68 146.081003 
L 479.808 146.081003 
" clip-path="url(#pccd5cfcd9c)" style="fill: none; stroke-dasharray: 0.8,1.32; stroke-dashoffset: 0; stroke: #b0b0b0; stroke-opacity: 0.3; stroke-width: 0.8"/>
     </g>
     <g id="line2d_49">
      <g>
       <use xlink:href="#mee00fbc9f1" x="391.68" y="146.081003" style="stroke: #000000; stroke-width: 0.8"/>
      </g>
     </g>
     <g id="text_28">
      <!-- [0%, 5%] -->
      <g transform="translate(354.025 148.858503)scale(0.08 -0.08)">
       <use xlink:href="#TimesNewRomanPSMT-5b"/>
       <use xlink:href="#TimesNewRomanPSMT-30" x="33.300781"/>
       <use xlink:href="#TimesNewRomanPSMT-25" x="83.300781"/>
       <use xlink:href="#TimesNewRomanPSMT-2c" x="166.601562"/>
       <use xlink:href="#TimesNewRomanPSMT-20" x="191.601562"/>
       <use xlink:href="#TimesNewRomanPSMT-35" x="216.601562"/>
       <use xlink:href="#TimesNewRomanPSMT-25" x="266.601562"/>
       <use xlink:href="#TimesNewRomanPSMT-5d" x="349.902344"/>
      </g>
     </g>
    </g>
    <g id="ytick_9">
     <g id="line2d_50">
      <path d="M 391.68 127.392602 
L 479.808 127.392602 
" clip-path="url(#pccd5cfcd9c)" style="fill: none; stroke-dasharray: 0.8,1.32; stroke-dashoffset: 0; stroke: #b0b0b0; stroke-opacity: 0.3; stroke-width: 0.8"/>
     </g>
     <g id="line2d_51">
      <g>
       <use xlink:href="#mee00fbc9f1" x="391.68" y="127.392602" style="stroke: #000000; stroke-width: 0.8"/>
      </g>
     </g>
     <g id="text_29">
      <!-- [5%, 15%] -->
      <g transform="translate(350.025 130.170102)scale(0.08 -0.08)">
       <use xlink:href="#TimesNewRomanPSMT-5b"/>
       <use xlink:href="#TimesNewRomanPSMT-35" x="33.300781"/>
       <use xlink:href="#TimesNewRomanPSMT-25" x="83.300781"/>
       <use xlink:href="#TimesNewRomanPSMT-2c" x="166.601562"/>
       <use xlink:href="#TimesNewRomanPSMT-20" x="191.601562"/>
       <use xlink:href="#TimesNewRomanPSMT-31" x="216.601562"/>
       <use xlink:href="#TimesNewRomanPSMT-35" x="266.601562"/>
       <use xlink:href="#TimesNewRomanPSMT-25" x="316.601562"/>
       <use xlink:href="#TimesNewRomanPSMT-5d" x="399.902344"/>
      </g>
     </g>
    </g>
    <g id="ytick_10">
     <g id="line2d_52">
      <path d="M 391.68 108.704201 
L 479.808 108.704201 
" clip-path="url(#pccd5cfcd9c)" style="fill: none; stroke-dasharray: 0.8,1.32; stroke-dashoffset: 0; stroke: #b0b0b0; stroke-opacity: 0.3; stroke-width: 0.8"/>
     </g>
     <g id="line2d_53">
      <g>
       <use xlink:href="#mee00fbc9f1" x="391.68" y="108.704201" style="stroke: #000000; stroke-width: 0.8"/>
      </g>
     </g>
     <g id="text_30">
      <!-- [15%, 25%] -->
      <g transform="translate(346.025 111.481701)scale(0.08 -0.08)">
       <use xlink:href="#TimesNewRomanPSMT-5b"/>
       <use xlink:href="#TimesNewRomanPSMT-31" x="33.300781"/>
       <use xlink:href="#TimesNewRomanPSMT-35" x="83.300781"/>
       <use xlink:href="#TimesNewRomanPSMT-25" x="133.300781"/>
       <use xlink:href="#TimesNewRomanPSMT-2c" x="216.601562"/>
       <use xlink:href="#TimesNewRomanPSMT-20" x="241.601562"/>
       <use xlink:href="#TimesNewRomanPSMT-32" x="266.601562"/>
       <use xlink:href="#TimesNewRomanPSMT-35" x="316.601562"/>
       <use xlink:href="#TimesNewRomanPSMT-25" x="366.601562"/>
       <use xlink:href="#TimesNewRomanPSMT-5d" x="449.902344"/>
      </g>
     </g>
    </g>
    <g id="ytick_11">
     <g id="line2d_54">
      <path d="M 391.68 90.015799 
L 479.808 90.015799 
" clip-path="url(#pccd5cfcd9c)" style="fill: none; stroke-dasharray: 0.8,1.32; stroke-dashoffset: 0; stroke: #b0b0b0; stroke-opacity: 0.3; stroke-width: 0.8"/>
     </g>
     <g id="line2d_55">
      <g>
       <use xlink:href="#mee00fbc9f1" x="391.68" y="90.015799" style="stroke: #000000; stroke-width: 0.8"/>
      </g>
     </g>
     <g id="text_31">
      <!-- [75%, 85%] -->
      <g transform="translate(346.025 92.793299)scale(0.08 -0.08)">
       <use xlink:href="#TimesNewRomanPSMT-5b"/>
       <use xlink:href="#TimesNewRomanPSMT-37" x="33.300781"/>
       <use xlink:href="#TimesNewRomanPSMT-35" x="83.300781"/>
       <use xlink:href="#TimesNewRomanPSMT-25" x="133.300781"/>
       <use xlink:href="#TimesNewRomanPSMT-2c" x="216.601562"/>
       <use xlink:href="#TimesNewRomanPSMT-20" x="241.601562"/>
       <use xlink:href="#TimesNewRomanPSMT-38" x="266.601562"/>
       <use xlink:href="#TimesNewRomanPSMT-35" x="316.601562"/>
       <use xlink:href="#TimesNewRomanPSMT-25" x="366.601562"/>
       <use xlink:href="#TimesNewRomanPSMT-5d" x="449.902344"/>
      </g>
     </g>
    </g>
    <g id="ytick_12">
     <g id="line2d_56">
      <path d="M 391.68 71.327398 
L 479.808 71.327398 
" clip-path="url(#pccd5cfcd9c)" style="fill: none; stroke-dasharray: 0.8,1.32; stroke-dashoffset: 0; stroke: #b0b0b0; stroke-opacity: 0.3; stroke-width: 0.8"/>
     </g>
     <g id="line2d_57">
      <g>
       <use xlink:href="#mee00fbc9f1" x="391.68" y="71.327398" style="stroke: #000000; stroke-width: 0.8"/>
      </g>
     </g>
     <g id="text_32">
      <!-- [85%, 95%] -->
      <g transform="translate(346.025 74.104898)scale(0.08 -0.08)">
       <use xlink:href="#TimesNewRomanPSMT-5b"/>
       <use xlink:href="#TimesNewRomanPSMT-38" x="33.300781"/>
       <use xlink:href="#TimesNewRomanPSMT-35" x="83.300781"/>
       <use xlink:href="#TimesNewRomanPSMT-25" x="133.300781"/>
       <use xlink:href="#TimesNewRomanPSMT-2c" x="216.601562"/>
       <use xlink:href="#TimesNewRomanPSMT-20" x="241.601562"/>
       <use xlink:href="#TimesNewRomanPSMT-39" x="266.601562"/>
       <use xlink:href="#TimesNewRomanPSMT-35" x="316.601562"/>
       <use xlink:href="#TimesNewRomanPSMT-25" x="366.601562"/>
       <use xlink:href="#TimesNewRomanPSMT-5d" x="449.902344"/>
      </g>
     </g>
    </g>
    <g id="ytick_13">
     <g id="line2d_58">
      <path d="M 391.68 52.638997 
L 479.808 52.638997 
" clip-path="url(#pccd5cfcd9c)" style="fill: none; stroke-dasharray: 0.8,1.32; stroke-dashoffset: 0; stroke: #b0b0b0; stroke-opacity: 0.3; stroke-width: 0.8"/>
     </g>
     <g id="line2d_59">
      <g>
       <use xlink:href="#mee00fbc9f1" x="391.68" y="52.638997" style="stroke: #000000; stroke-width: 0.8"/>
      </g>
     </g>
     <g id="text_33">
      <!-- [95%, 100%] -->
      <g transform="translate(342.025 55.416497)scale(0.08 -0.08)">
       <use xlink:href="#TimesNewRomanPSMT-5b"/>
       <use xlink:href="#TimesNewRomanPSMT-39" x="33.300781"/>
       <use xlink:href="#TimesNewRomanPSMT-35" x="83.300781"/>
       <use xlink:href="#TimesNewRomanPSMT-25" x="133.300781"/>
       <use xlink:href="#TimesNewRomanPSMT-2c" x="216.601562"/>
       <use xlink:href="#TimesNewRomanPSMT-20" x="241.601562"/>
       <use xlink:href="#TimesNewRomanPSMT-31" x="266.601562"/>
       <use xlink:href="#TimesNewRomanPSMT-30" x="316.601562"/>
       <use xlink:href="#TimesNewRomanPSMT-30" x="366.601562"/>
       <use xlink:href="#TimesNewRomanPSMT-25" x="416.601562"/>
       <use xlink:href="#TimesNewRomanPSMT-5d" x="499.902344"/>
      </g>
     </g>
    </g>
   </g>
   <g id="line2d_60">
    <path d="M 436.959241 158.976 
L 436.959241 39.744 
" clip-path="url(#pccd5cfcd9c)" style="fill: none; stroke: #808080; stroke-opacity: 0.6; stroke-linecap: square"/>
   </g>
   <g id="patch_15">
    <path d="M 391.68 158.976 
L 391.68 39.744 
" style="fill: none; stroke: #000000; stroke-width: 0.8; stroke-linejoin: miter; stroke-linecap: square"/>
   </g>
   <g id="patch_16">
    <path d="M 479.808 158.976 
L 479.808 39.744 
" style="fill: none; stroke: #000000; stroke-width: 0.8; stroke-linejoin: miter; stroke-linecap: square"/>
   </g>
   <g id="patch_17">
    <path d="M 391.68 158.976 
L 479.808 158.976 
" style="fill: none; stroke: #000000; stroke-width: 0.8; stroke-linejoin: miter; stroke-linecap: square"/>
   </g>
   <g id="patch_18">
    <path d="M 391.68 39.744 
L 479.808 39.744 
" style="fill: none; stroke: #000000; stroke-width: 0.8; stroke-linejoin: miter; stroke-linecap: square"/>
   </g>
  </g>
 </g>
 <defs>
  <clipPath id="p60bebbfff8">
   <rect x="48.96" y="33.12" width="318.24" height="258.336"/>
  </clipPath>
  <clipPath id="pccd5cfcd9c">
   <rect x="391.68" y="39.744" width="88.128" height="119.232"/>
  </clipPath>
 </defs>
</svg>
