<?xml version="1.0" encoding="utf-8" standalone="no"?>
<!DOCTYPE svg PUBLIC "-//W3C//DTD SVG 1.1//EN"
  "http://www.w3.org/Graphics/SVG/1.1/DTD/svg11.dtd">
<svg xmlns:xlink="http://www.w3.org/1999/xlink" width="486.47952pt" height="320.87952pt" viewBox="0 0 486.47952 320.87952" xmlns="http://www.w3.org/2000/svg" version="1.1">
 <metadata>
  <rdf:RDF xmlns:dc="http://purl.org/dc/elements/1.1/" xmlns:cc="http://creativecommons.org/ns#" xmlns:rdf="http://www.w3.org/1999/02/22-rdf-syntax-ns#">
   <cc:Work>
    <dc:type rdf:resource="http://purl.org/dc/dcmitype/StillImage"/>
    <dc:date>2025-09-24T21:19:45.838899</dc:date>
    <dc:format>image/svg+xml</dc:format>
    <dc:creator>
     <cc:Agent>
      <dc:title>Matplotlib v3.5.1, https://matplotlib.org/</dc:title>
     </cc:Agent>
    </dc:creator>
   </cc:Work>
  </rdf:RDF>
 </metadata>
 <defs>
  <style type="text/css">*{stroke-linejoin: round; stroke-linecap: butt}</style>
 </defs>
 <g id="figure_1">
  <g id="patch_1">
   <path d="M 0 320.87952 
L 486.47952 320.87952 
L 486.47952 0 
L 0 0 
z
" style="fill: #ffffff"/>
  </g>
  <g id="axes_1">
   <g id="patch_2">
    <path d="M 34.041563 290.255145 
L 485.03952 290.255145 
L 485.03952 28.360875 
L 34.041563 28.360875 
z
" style="fill: #ffffff"/>
   </g>
   <g id="matplotlib.axis_1">
    <g id="xtick_1">
     <g id="line2d_1">
      <path d="M 34.041563 290.255145 
L 34.041563 28.360875 
" clip-path="url(#pe1e6f002be)" style="fill: none; stroke-dasharray: 2.96,1.28; stroke-dashoffset: 0; stroke: #b0b0b0; stroke-opacity: 0.25; stroke-width: 0.8"/>
     </g>
     <g id="line2d_2">
      <defs>
       <path id="mb7ae6d5c56" d="M 0 0 
L 0 3.5 
" style="stroke: #000000; stroke-width: 0.8"/>
      </defs>
      <g>
       <use xlink:href="#mb7ae6d5c56" x="34.041563" y="290.255145" style="stroke: #000000; stroke-width: 0.8"/>
      </g>
     </g>
     <g id="text_1">
      <!-- 0 -->
      <g transform="translate(31.541563 304.198895)scale(0.1 -0.1)">
       <defs>
        <path id="TimesNewRomanPSMT-30" d="M 231 2094 
Q 231 2819 450 3342 
Q 669 3866 1031 4122 
Q 1313 4325 1613 4325 
Q 2100 4325 2488 3828 
Q 2972 3213 2972 2159 
Q 2972 1422 2759 906 
Q 2547 391 2217 158 
Q 1888 -75 1581 -75 
Q 975 -75 572 641 
Q 231 1244 231 2094 
z
M 844 2016 
Q 844 1141 1059 588 
Q 1238 122 1591 122 
Q 1759 122 1940 273 
Q 2122 425 2216 781 
Q 2359 1319 2359 2297 
Q 2359 3022 2209 3506 
Q 2097 3866 1919 4016 
Q 1791 4119 1609 4119 
Q 1397 4119 1231 3928 
Q 1006 3669 925 3112 
Q 844 2556 844 2016 
z
" transform="scale(0.015625)"/>
       </defs>
       <use xlink:href="#TimesNewRomanPSMT-30"/>
      </g>
     </g>
    </g>
    <g id="xtick_2">
     <g id="line2d_3">
      <path d="M 124.259198 290.255145 
L 124.259198 28.360875 
" clip-path="url(#pe1e6f002be)" style="fill: none; stroke-dasharray: 2.96,1.28; stroke-dashoffset: 0; stroke: #b0b0b0; stroke-opacity: 0.25; stroke-width: 0.8"/>
     </g>
     <g id="line2d_4">
      <g>
       <use xlink:href="#mb7ae6d5c56" x="124.259198" y="290.255145" style="stroke: #000000; stroke-width: 0.8"/>
      </g>
     </g>
     <g id="text_2">
      <!-- 1000 -->
      <g transform="translate(114.259198 304.198895)scale(0.1 -0.1)">
       <defs>
        <path id="TimesNewRomanPSMT-31" d="M 750 3822 
L 1781 4325 
L 1884 4325 
L 1884 747 
Q 1884 391 1914 303 
Q 1944 216 2037 169 
Q 2131 122 2419 116 
L 2419 0 
L 825 0 
L 825 116 
Q 1125 122 1212 167 
Q 1300 213 1334 289 
Q 1369 366 1369 747 
L 1369 3034 
Q 1369 3497 1338 3628 
Q 1316 3728 1258 3775 
Q 1200 3822 1119 3822 
Q 1003 3822 797 3725 
L 750 3822 
z
" transform="scale(0.015625)"/>
       </defs>
       <use xlink:href="#TimesNewRomanPSMT-31"/>
       <use xlink:href="#TimesNewRomanPSMT-30" x="50"/>
       <use xlink:href="#TimesNewRomanPSMT-30" x="100"/>
       <use xlink:href="#TimesNewRomanPSMT-30" x="150"/>
      </g>
     </g>
    </g>
    <g id="xtick_3">
     <g id="line2d_5">
      <path d="M 214.476833 290.255145 
L 214.476833 28.360875 
" clip-path="url(#pe1e6f002be)" style="fill: none; stroke-dasharray: 2.96,1.28; stroke-dashoffset: 0; stroke: #b0b0b0; stroke-opacity: 0.25; stroke-width: 0.8"/>
     </g>
     <g id="line2d_6">
      <g>
       <use xlink:href="#mb7ae6d5c56" x="214.476833" y="290.255145" style="stroke: #000000; stroke-width: 0.8"/>
      </g>
     </g>
     <g id="text_3">
      <!-- 2000 -->
      <g transform="translate(204.476833 304.198895)scale(0.1 -0.1)">
       <defs>
        <path id="TimesNewRomanPSMT-32" d="M 2934 816 
L 2638 0 
L 138 0 
L 138 116 
Q 1241 1122 1691 1759 
Q 2141 2397 2141 2925 
Q 2141 3328 1894 3587 
Q 1647 3847 1303 3847 
Q 991 3847 742 3664 
Q 494 3481 375 3128 
L 259 3128 
Q 338 3706 661 4015 
Q 984 4325 1469 4325 
Q 1984 4325 2329 3994 
Q 2675 3663 2675 3213 
Q 2675 2891 2525 2569 
Q 2294 2063 1775 1497 
Q 997 647 803 472 
L 1909 472 
Q 2247 472 2383 497 
Q 2519 522 2628 598 
Q 2738 675 2819 816 
L 2934 816 
z
" transform="scale(0.015625)"/>
       </defs>
       <use xlink:href="#TimesNewRomanPSMT-32"/>
       <use xlink:href="#TimesNewRomanPSMT-30" x="50"/>
       <use xlink:href="#TimesNewRomanPSMT-30" x="100"/>
       <use xlink:href="#TimesNewRomanPSMT-30" x="150"/>
      </g>
     </g>
    </g>
    <g id="xtick_4">
     <g id="line2d_7">
      <path d="M 304.694468 290.255145 
L 304.694468 28.360875 
" clip-path="url(#pe1e6f002be)" style="fill: none; stroke-dasharray: 2.96,1.28; stroke-dashoffset: 0; stroke: #b0b0b0; stroke-opacity: 0.25; stroke-width: 0.8"/>
     </g>
     <g id="line2d_8">
      <g>
       <use xlink:href="#mb7ae6d5c56" x="304.694468" y="290.255145" style="stroke: #000000; stroke-width: 0.8"/>
      </g>
     </g>
     <g id="text_4">
      <!-- 3000 -->
      <g transform="translate(294.694468 304.198895)scale(0.1 -0.1)">
       <defs>
        <path id="TimesNewRomanPSMT-33" d="M 325 3431 
Q 506 3859 782 4092 
Q 1059 4325 1472 4325 
Q 1981 4325 2253 3994 
Q 2459 3747 2459 3466 
Q 2459 3003 1878 2509 
Q 2269 2356 2469 2072 
Q 2669 1788 2669 1403 
Q 2669 853 2319 450 
Q 1863 -75 997 -75 
Q 569 -75 414 31 
Q 259 138 259 259 
Q 259 350 332 419 
Q 406 488 509 488 
Q 588 488 669 463 
Q 722 447 909 348 
Q 1097 250 1169 231 
Q 1284 197 1416 197 
Q 1734 197 1970 444 
Q 2206 691 2206 1028 
Q 2206 1275 2097 1509 
Q 2016 1684 1919 1775 
Q 1784 1900 1550 2001 
Q 1316 2103 1072 2103 
L 972 2103 
L 972 2197 
Q 1219 2228 1467 2375 
Q 1716 2522 1828 2728 
Q 1941 2934 1941 3181 
Q 1941 3503 1739 3701 
Q 1538 3900 1238 3900 
Q 753 3900 428 3381 
L 325 3431 
z
" transform="scale(0.015625)"/>
       </defs>
       <use xlink:href="#TimesNewRomanPSMT-33"/>
       <use xlink:href="#TimesNewRomanPSMT-30" x="50"/>
       <use xlink:href="#TimesNewRomanPSMT-30" x="100"/>
       <use xlink:href="#TimesNewRomanPSMT-30" x="150"/>
      </g>
     </g>
    </g>
    <g id="xtick_5">
     <g id="line2d_9">
      <path d="M 394.912103 290.255145 
L 394.912103 28.360875 
" clip-path="url(#pe1e6f002be)" style="fill: none; stroke-dasharray: 2.96,1.28; stroke-dashoffset: 0; stroke: #b0b0b0; stroke-opacity: 0.25; stroke-width: 0.8"/>
     </g>
     <g id="line2d_10">
      <g>
       <use xlink:href="#mb7ae6d5c56" x="394.912103" y="290.255145" style="stroke: #000000; stroke-width: 0.8"/>
      </g>
     </g>
     <g id="text_5">
      <!-- 4000 -->
      <g transform="translate(384.912103 304.198895)scale(0.1 -0.1)">
       <defs>
        <path id="TimesNewRomanPSMT-34" d="M 2978 1563 
L 2978 1119 
L 2409 1119 
L 2409 0 
L 1894 0 
L 1894 1119 
L 100 1119 
L 100 1519 
L 2066 4325 
L 2409 4325 
L 2409 1563 
L 2978 1563 
z
M 1894 1563 
L 1894 3666 
L 406 1563 
L 1894 1563 
z
" transform="scale(0.015625)"/>
       </defs>
       <use xlink:href="#TimesNewRomanPSMT-34"/>
       <use xlink:href="#TimesNewRomanPSMT-30" x="50"/>
       <use xlink:href="#TimesNewRomanPSMT-30" x="100"/>
       <use xlink:href="#TimesNewRomanPSMT-30" x="150"/>
      </g>
     </g>
    </g>
    <g id="text_6">
     <!-- t (×10 original steps) -->
     <g transform="translate(217.699916 317.281707)scale(0.1 -0.1)">
      <defs>
       <path id="TimesNewRomanPSMT-74" d="M 1031 3803 
L 1031 2863 
L 1700 2863 
L 1700 2644 
L 1031 2644 
L 1031 788 
Q 1031 509 1111 412 
Q 1191 316 1316 316 
Q 1419 316 1516 380 
Q 1613 444 1666 569 
L 1788 569 
Q 1678 263 1478 108 
Q 1278 -47 1066 -47 
Q 922 -47 784 33 
Q 647 113 581 261 
Q 516 409 516 719 
L 516 2644 
L 63 2644 
L 63 2747 
Q 234 2816 414 2980 
Q 594 3144 734 3369 
Q 806 3488 934 3803 
L 1031 3803 
z
" transform="scale(0.015625)"/>
       <path id="TimesNewRomanPSMT-20" transform="scale(0.015625)"/>
       <path id="TimesNewRomanPSMT-28" d="M 1988 -1253 
L 1988 -1369 
Q 1516 -1131 1200 -813 
Q 750 -359 506 256 
Q 263 872 263 1534 
Q 263 2503 741 3301 
Q 1219 4100 1988 4444 
L 1988 4313 
Q 1603 4100 1356 3731 
Q 1109 3363 987 2797 
Q 866 2231 866 1616 
Q 866 947 969 400 
Q 1050 -31 1165 -292 
Q 1281 -553 1476 -793 
Q 1672 -1034 1988 -1253 
z
" transform="scale(0.015625)"/>
       <path id="TimesNewRomanPSMT-d7" d="M 516 1025 
L 1619 2128 
L 519 3228 
L 700 3409 
L 1800 2309 
L 2900 3409 
L 3075 3231 
L 1975 2131 
L 3081 1025 
L 2903 844 
L 1797 1950 
L 694 847 
L 516 1025 
z
" transform="scale(0.015625)"/>
       <path id="TimesNewRomanPSMT-6f" d="M 1600 2947 
Q 2250 2947 2644 2453 
Q 2978 2031 2978 1484 
Q 2978 1100 2793 706 
Q 2609 313 2286 112 
Q 1963 -88 1566 -88 
Q 919 -88 538 428 
Q 216 863 216 1403 
Q 216 1797 411 2186 
Q 606 2575 925 2761 
Q 1244 2947 1600 2947 
z
M 1503 2744 
Q 1338 2744 1170 2645 
Q 1003 2547 900 2300 
Q 797 2053 797 1666 
Q 797 1041 1045 587 
Q 1294 134 1700 134 
Q 2003 134 2200 384 
Q 2397 634 2397 1244 
Q 2397 2006 2069 2444 
Q 1847 2744 1503 2744 
z
" transform="scale(0.015625)"/>
       <path id="TimesNewRomanPSMT-72" d="M 1038 2947 
L 1038 2303 
Q 1397 2947 1775 2947 
Q 1947 2947 2059 2842 
Q 2172 2738 2172 2600 
Q 2172 2478 2090 2393 
Q 2009 2309 1897 2309 
Q 1788 2309 1652 2417 
Q 1516 2525 1450 2525 
Q 1394 2525 1328 2463 
Q 1188 2334 1038 2041 
L 1038 669 
Q 1038 431 1097 309 
Q 1138 225 1241 169 
Q 1344 113 1538 113 
L 1538 0 
L 72 0 
L 72 113 
Q 291 113 397 181 
Q 475 231 506 341 
Q 522 394 522 644 
L 522 1753 
Q 522 2253 501 2348 
Q 481 2444 426 2487 
Q 372 2531 291 2531 
Q 194 2531 72 2484 
L 41 2597 
L 906 2947 
L 1038 2947 
z
" transform="scale(0.015625)"/>
       <path id="TimesNewRomanPSMT-69" d="M 928 4444 
Q 1059 4444 1151 4351 
Q 1244 4259 1244 4128 
Q 1244 3997 1151 3903 
Q 1059 3809 928 3809 
Q 797 3809 703 3903 
Q 609 3997 609 4128 
Q 609 4259 701 4351 
Q 794 4444 928 4444 
z
M 1188 2947 
L 1188 647 
Q 1188 378 1227 289 
Q 1266 200 1342 156 
Q 1419 113 1622 113 
L 1622 0 
L 231 0 
L 231 113 
Q 441 113 512 153 
Q 584 194 626 287 
Q 669 381 669 647 
L 669 1750 
Q 669 2216 641 2353 
Q 619 2453 572 2492 
Q 525 2531 444 2531 
Q 356 2531 231 2484 
L 188 2597 
L 1050 2947 
L 1188 2947 
z
" transform="scale(0.015625)"/>
       <path id="TimesNewRomanPSMT-67" d="M 966 1044 
Q 703 1172 562 1401 
Q 422 1631 422 1909 
Q 422 2334 742 2640 
Q 1063 2947 1563 2947 
Q 1972 2947 2272 2747 
L 2878 2747 
Q 3013 2747 3034 2739 
Q 3056 2731 3066 2713 
Q 3084 2684 3084 2613 
Q 3084 2531 3069 2500 
Q 3059 2484 3036 2475 
Q 3013 2466 2878 2466 
L 2506 2466 
Q 2681 2241 2681 1891 
Q 2681 1491 2375 1206 
Q 2069 922 1553 922 
Q 1341 922 1119 984 
Q 981 866 932 777 
Q 884 688 884 625 
Q 884 572 936 522 
Q 988 472 1138 450 
Q 1225 438 1575 428 
Q 2219 413 2409 384 
Q 2700 344 2873 169 
Q 3047 -6 3047 -263 
Q 3047 -616 2716 -925 
Q 2228 -1381 1444 -1381 
Q 841 -1381 425 -1109 
Q 191 -953 191 -784 
Q 191 -709 225 -634 
Q 278 -519 444 -313 
Q 466 -284 763 25 
Q 600 122 533 198 
Q 466 275 466 372 
Q 466 481 555 628 
Q 644 775 966 1044 
z
M 1509 2797 
Q 1278 2797 1122 2612 
Q 966 2428 966 2047 
Q 966 1553 1178 1281 
Q 1341 1075 1591 1075 
Q 1828 1075 1981 1253 
Q 2134 1431 2134 1813 
Q 2134 2309 1919 2591 
Q 1759 2797 1509 2797 
z
M 934 0 
Q 788 -159 713 -296 
Q 638 -434 638 -550 
Q 638 -700 819 -813 
Q 1131 -1006 1722 -1006 
Q 2284 -1006 2551 -807 
Q 2819 -609 2819 -384 
Q 2819 -222 2659 -153 
Q 2497 -84 2016 -72 
Q 1313 -53 934 0 
z
" transform="scale(0.015625)"/>
       <path id="TimesNewRomanPSMT-6e" d="M 1034 2341 
Q 1538 2947 1994 2947 
Q 2228 2947 2397 2830 
Q 2566 2713 2666 2444 
Q 2734 2256 2734 1869 
L 2734 647 
Q 2734 375 2778 278 
Q 2813 200 2889 156 
Q 2966 113 3172 113 
L 3172 0 
L 1756 0 
L 1756 113 
L 1816 113 
Q 2016 113 2095 173 
Q 2175 234 2206 353 
Q 2219 400 2219 647 
L 2219 1819 
Q 2219 2209 2117 2386 
Q 2016 2563 1775 2563 
Q 1403 2563 1034 2156 
L 1034 647 
Q 1034 356 1069 288 
Q 1113 197 1189 155 
Q 1266 113 1500 113 
L 1500 0 
L 84 0 
L 84 113 
L 147 113 
Q 366 113 442 223 
Q 519 334 519 647 
L 519 1709 
Q 519 2225 495 2337 
Q 472 2450 423 2490 
Q 375 2531 294 2531 
Q 206 2531 84 2484 
L 38 2597 
L 900 2947 
L 1034 2947 
L 1034 2341 
z
" transform="scale(0.015625)"/>
       <path id="TimesNewRomanPSMT-61" d="M 1822 413 
Q 1381 72 1269 19 
Q 1100 -59 909 -59 
Q 613 -59 420 144 
Q 228 347 228 678 
Q 228 888 322 1041 
Q 450 1253 767 1440 
Q 1084 1628 1822 1897 
L 1822 2009 
Q 1822 2438 1686 2597 
Q 1550 2756 1291 2756 
Q 1094 2756 978 2650 
Q 859 2544 859 2406 
L 866 2225 
Q 866 2081 792 2003 
Q 719 1925 600 1925 
Q 484 1925 411 2006 
Q 338 2088 338 2228 
Q 338 2497 613 2722 
Q 888 2947 1384 2947 
Q 1766 2947 2009 2819 
Q 2194 2722 2281 2516 
Q 2338 2381 2338 1966 
L 2338 994 
Q 2338 584 2353 492 
Q 2369 400 2405 369 
Q 2441 338 2488 338 
Q 2538 338 2575 359 
Q 2641 400 2828 588 
L 2828 413 
Q 2478 -56 2159 -56 
Q 2006 -56 1915 50 
Q 1825 156 1822 413 
z
M 1822 616 
L 1822 1706 
Q 1350 1519 1213 1441 
Q 966 1303 859 1153 
Q 753 1003 753 825 
Q 753 600 887 451 
Q 1022 303 1197 303 
Q 1434 303 1822 616 
z
" transform="scale(0.015625)"/>
       <path id="TimesNewRomanPSMT-6c" d="M 1184 4444 
L 1184 647 
Q 1184 378 1223 290 
Q 1263 203 1344 158 
Q 1425 113 1647 113 
L 1647 0 
L 244 0 
L 244 113 
Q 441 113 512 153 
Q 584 194 625 287 
Q 666 381 666 647 
L 666 3247 
Q 666 3731 644 3842 
Q 622 3953 573 3993 
Q 525 4034 450 4034 
Q 369 4034 244 3984 
L 191 4094 
L 1044 4444 
L 1184 4444 
z
" transform="scale(0.015625)"/>
       <path id="TimesNewRomanPSMT-73" d="M 2050 2947 
L 2050 1972 
L 1947 1972 
Q 1828 2431 1642 2597 
Q 1456 2763 1169 2763 
Q 950 2763 815 2647 
Q 681 2531 681 2391 
Q 681 2216 781 2091 
Q 878 1963 1175 1819 
L 1631 1597 
Q 2266 1288 2266 781 
Q 2266 391 1970 151 
Q 1675 -88 1309 -88 
Q 1047 -88 709 6 
Q 606 38 541 38 
Q 469 38 428 -44 
L 325 -44 
L 325 978 
L 428 978 
Q 516 541 762 319 
Q 1009 97 1316 97 
Q 1531 97 1667 223 
Q 1803 350 1803 528 
Q 1803 744 1651 891 
Q 1500 1038 1047 1263 
Q 594 1488 453 1669 
Q 313 1847 313 2119 
Q 313 2472 555 2709 
Q 797 2947 1181 2947 
Q 1350 2947 1591 2875 
Q 1750 2828 1803 2828 
Q 1853 2828 1881 2850 
Q 1909 2872 1947 2947 
L 2050 2947 
z
" transform="scale(0.015625)"/>
       <path id="TimesNewRomanPSMT-65" d="M 681 1784 
Q 678 1147 991 784 
Q 1303 422 1725 422 
Q 2006 422 2214 576 
Q 2422 731 2563 1106 
L 2659 1044 
Q 2594 616 2278 264 
Q 1963 -88 1488 -88 
Q 972 -88 605 314 
Q 238 716 238 1394 
Q 238 2128 614 2539 
Q 991 2950 1559 2950 
Q 2041 2950 2350 2633 
Q 2659 2316 2659 1784 
L 681 1784 
z
M 681 1966 
L 2006 1966 
Q 1991 2241 1941 2353 
Q 1863 2528 1708 2628 
Q 1553 2728 1384 2728 
Q 1125 2728 920 2526 
Q 716 2325 681 1966 
z
" transform="scale(0.015625)"/>
       <path id="TimesNewRomanPSMT-70" d="M -6 2578 
L 875 2934 
L 994 2934 
L 994 2266 
Q 1216 2644 1439 2795 
Q 1663 2947 1909 2947 
Q 2341 2947 2628 2609 
Q 2981 2197 2981 1534 
Q 2981 794 2556 309 
Q 2206 -88 1675 -88 
Q 1444 -88 1275 -22 
Q 1150 25 994 166 
L 994 -706 
Q 994 -1000 1030 -1079 
Q 1066 -1159 1155 -1206 
Q 1244 -1253 1478 -1253 
L 1478 -1369 
L -22 -1369 
L -22 -1253 
L 56 -1253 
Q 228 -1256 350 -1188 
Q 409 -1153 442 -1076 
Q 475 -1000 475 -688 
L 475 2019 
Q 475 2297 450 2372 
Q 425 2447 370 2484 
Q 316 2522 222 2522 
Q 147 2522 31 2478 
L -6 2578 
z
M 994 2081 
L 994 1013 
Q 994 666 1022 556 
Q 1066 375 1236 237 
Q 1406 100 1666 100 
Q 1978 100 2172 344 
Q 2425 663 2425 1241 
Q 2425 1897 2138 2250 
Q 1938 2494 1663 2494 
Q 1513 2494 1366 2419 
Q 1253 2363 994 2081 
z
" transform="scale(0.015625)"/>
       <path id="TimesNewRomanPSMT-29" d="M 144 4313 
L 144 4444 
Q 619 4209 934 3891 
Q 1381 3434 1625 2820 
Q 1869 2206 1869 1541 
Q 1869 572 1392 -226 
Q 916 -1025 144 -1369 
L 144 -1253 
Q 528 -1038 776 -670 
Q 1025 -303 1145 264 
Q 1266 831 1266 1447 
Q 1266 2113 1163 2663 
Q 1084 3094 967 3353 
Q 850 3613 656 3853 
Q 463 4094 144 4313 
z
" transform="scale(0.015625)"/>
      </defs>
      <use xlink:href="#TimesNewRomanPSMT-74"/>
      <use xlink:href="#TimesNewRomanPSMT-20" x="27.783203"/>
      <use xlink:href="#TimesNewRomanPSMT-28" x="52.783203"/>
      <use xlink:href="#TimesNewRomanPSMT-d7" x="86.083984"/>
      <use xlink:href="#TimesNewRomanPSMT-31" x="142.480469"/>
      <use xlink:href="#TimesNewRomanPSMT-30" x="192.480469"/>
      <use xlink:href="#TimesNewRomanPSMT-20" x="242.480469"/>
      <use xlink:href="#TimesNewRomanPSMT-6f" x="267.480469"/>
      <use xlink:href="#TimesNewRomanPSMT-72" x="317.480469"/>
      <use xlink:href="#TimesNewRomanPSMT-69" x="350.78125"/>
      <use xlink:href="#TimesNewRomanPSMT-67" x="378.564453"/>
      <use xlink:href="#TimesNewRomanPSMT-69" x="428.564453"/>
      <use xlink:href="#TimesNewRomanPSMT-6e" x="456.347656"/>
      <use xlink:href="#TimesNewRomanPSMT-61" x="506.347656"/>
      <use xlink:href="#TimesNewRomanPSMT-6c" x="550.732422"/>
      <use xlink:href="#TimesNewRomanPSMT-20" x="578.515625"/>
      <use xlink:href="#TimesNewRomanPSMT-73" x="603.515625"/>
      <use xlink:href="#TimesNewRomanPSMT-74" x="642.431641"/>
      <use xlink:href="#TimesNewRomanPSMT-65" x="670.214844"/>
      <use xlink:href="#TimesNewRomanPSMT-70" x="714.599609"/>
      <use xlink:href="#TimesNewRomanPSMT-73" x="764.599609"/>
      <use xlink:href="#TimesNewRomanPSMT-29" x="803.515625"/>
     </g>
    </g>
   </g>
   <g id="matplotlib.axis_2">
    <g id="ytick_1">
     <g id="line2d_11">
      <path d="M 34.041563 278.35086 
L 485.03952 278.35086 
" clip-path="url(#pe1e6f002be)" style="fill: none; stroke-dasharray: 2.96,1.28; stroke-dashoffset: 0; stroke: #b0b0b0; stroke-opacity: 0.25; stroke-width: 0.8"/>
     </g>
     <g id="line2d_12">
      <defs>
       <path id="m81dc298041" d="M 0 0 
L -3.5 0 
" style="stroke: #000000; stroke-width: 0.8"/>
      </defs>
      <g>
       <use xlink:href="#m81dc298041" x="34.041563" y="278.35086" style="stroke: #000000; stroke-width: 0.8"/>
      </g>
     </g>
     <g id="text_7">
      <!-- 0.0 -->
      <g transform="translate(14.541563 281.822735)scale(0.1 -0.1)">
       <defs>
        <path id="TimesNewRomanPSMT-2e" d="M 800 606 
Q 947 606 1047 504 
Q 1147 403 1147 259 
Q 1147 116 1045 14 
Q 944 -88 800 -88 
Q 656 -88 554 14 
Q 453 116 453 259 
Q 453 406 554 506 
Q 656 606 800 606 
z
" transform="scale(0.015625)"/>
       </defs>
       <use xlink:href="#TimesNewRomanPSMT-30"/>
       <use xlink:href="#TimesNewRomanPSMT-2e" x="50"/>
       <use xlink:href="#TimesNewRomanPSMT-30" x="75"/>
      </g>
     </g>
    </g>
    <g id="ytick_2">
     <g id="line2d_13">
      <path d="M 34.041563 223.084913 
L 485.03952 223.084913 
" clip-path="url(#pe1e6f002be)" style="fill: none; stroke-dasharray: 2.96,1.28; stroke-dashoffset: 0; stroke: #b0b0b0; stroke-opacity: 0.25; stroke-width: 0.8"/>
     </g>
     <g id="line2d_14">
      <g>
       <use xlink:href="#m81dc298041" x="34.041563" y="223.084913" style="stroke: #000000; stroke-width: 0.8"/>
      </g>
     </g>
     <g id="text_8">
      <!-- 0.2 -->
      <g transform="translate(14.541563 226.556788)scale(0.1 -0.1)">
       <use xlink:href="#TimesNewRomanPSMT-30"/>
       <use xlink:href="#TimesNewRomanPSMT-2e" x="50"/>
       <use xlink:href="#TimesNewRomanPSMT-32" x="75"/>
      </g>
     </g>
    </g>
    <g id="ytick_3">
     <g id="line2d_15">
      <path d="M 34.041563 167.818966 
L 485.03952 167.818966 
" clip-path="url(#pe1e6f002be)" style="fill: none; stroke-dasharray: 2.96,1.28; stroke-dashoffset: 0; stroke: #b0b0b0; stroke-opacity: 0.25; stroke-width: 0.8"/>
     </g>
     <g id="line2d_16">
      <g>
       <use xlink:href="#m81dc298041" x="34.041563" y="167.818966" style="stroke: #000000; stroke-width: 0.8"/>
      </g>
     </g>
     <g id="text_9">
      <!-- 0.4 -->
      <g transform="translate(14.541563 171.290841)scale(0.1 -0.1)">
       <use xlink:href="#TimesNewRomanPSMT-30"/>
       <use xlink:href="#TimesNewRomanPSMT-2e" x="50"/>
       <use xlink:href="#TimesNewRomanPSMT-34" x="75"/>
      </g>
     </g>
    </g>
    <g id="ytick_4">
     <g id="line2d_17">
      <path d="M 34.041563 112.553019 
L 485.03952 112.553019 
" clip-path="url(#pe1e6f002be)" style="fill: none; stroke-dasharray: 2.96,1.28; stroke-dashoffset: 0; stroke: #b0b0b0; stroke-opacity: 0.25; stroke-width: 0.8"/>
     </g>
     <g id="line2d_18">
      <g>
       <use xlink:href="#m81dc298041" x="34.041563" y="112.553019" style="stroke: #000000; stroke-width: 0.8"/>
      </g>
     </g>
     <g id="text_10">
      <!-- 0.6 -->
      <g transform="translate(14.541563 116.024894)scale(0.1 -0.1)">
       <defs>
        <path id="TimesNewRomanPSMT-36" d="M 2869 4325 
L 2869 4209 
Q 2456 4169 2195 4045 
Q 1934 3922 1679 3669 
Q 1425 3416 1258 3105 
Q 1091 2794 978 2366 
Q 1428 2675 1881 2675 
Q 2316 2675 2634 2325 
Q 2953 1975 2953 1425 
Q 2953 894 2631 456 
Q 2244 -75 1606 -75 
Q 1172 -75 869 213 
Q 275 772 275 1663 
Q 275 2231 503 2743 
Q 731 3256 1154 3653 
Q 1578 4050 1965 4187 
Q 2353 4325 2688 4325 
L 2869 4325 
z
M 925 2138 
Q 869 1716 869 1456 
Q 869 1156 980 804 
Q 1091 453 1309 247 
Q 1469 100 1697 100 
Q 1969 100 2183 356 
Q 2397 613 2397 1088 
Q 2397 1622 2184 2012 
Q 1972 2403 1581 2403 
Q 1463 2403 1327 2353 
Q 1191 2303 925 2138 
z
" transform="scale(0.015625)"/>
       </defs>
       <use xlink:href="#TimesNewRomanPSMT-30"/>
       <use xlink:href="#TimesNewRomanPSMT-2e" x="50"/>
       <use xlink:href="#TimesNewRomanPSMT-36" x="75"/>
      </g>
     </g>
    </g>
    <g id="ytick_5">
     <g id="line2d_19">
      <path d="M 34.041563 57.287072 
L 485.03952 57.287072 
" clip-path="url(#pe1e6f002be)" style="fill: none; stroke-dasharray: 2.96,1.28; stroke-dashoffset: 0; stroke: #b0b0b0; stroke-opacity: 0.25; stroke-width: 0.8"/>
     </g>
     <g id="line2d_20">
      <g>
       <use xlink:href="#m81dc298041" x="34.041563" y="57.287072" style="stroke: #000000; stroke-width: 0.8"/>
      </g>
     </g>
     <g id="text_11">
      <!-- 0.8 -->
      <g transform="translate(14.541563 60.758947)scale(0.1 -0.1)">
       <defs>
        <path id="TimesNewRomanPSMT-38" d="M 1228 2134 
Q 725 2547 579 2797 
Q 434 3047 434 3316 
Q 434 3728 753 4026 
Q 1072 4325 1600 4325 
Q 2113 4325 2425 4047 
Q 2738 3769 2738 3413 
Q 2738 3175 2569 2928 
Q 2400 2681 1866 2347 
Q 2416 1922 2594 1678 
Q 2831 1359 2831 1006 
Q 2831 559 2490 242 
Q 2150 -75 1597 -75 
Q 994 -75 656 303 
Q 388 606 388 966 
Q 388 1247 577 1523 
Q 766 1800 1228 2134 
z
M 1719 2469 
Q 2094 2806 2194 3001 
Q 2294 3197 2294 3444 
Q 2294 3772 2109 3958 
Q 1925 4144 1606 4144 
Q 1288 4144 1088 3959 
Q 888 3775 888 3528 
Q 888 3366 970 3203 
Q 1053 3041 1206 2894 
L 1719 2469 
z
M 1375 2016 
Q 1116 1797 991 1539 
Q 866 1281 866 981 
Q 866 578 1086 336 
Q 1306 94 1647 94 
Q 1984 94 2187 284 
Q 2391 475 2391 747 
Q 2391 972 2272 1150 
Q 2050 1481 1375 2016 
z
" transform="scale(0.015625)"/>
       </defs>
       <use xlink:href="#TimesNewRomanPSMT-30"/>
       <use xlink:href="#TimesNewRomanPSMT-2e" x="50"/>
       <use xlink:href="#TimesNewRomanPSMT-38" x="75"/>
      </g>
     </g>
    </g>
    <g id="text_12">
     <!-- fraction (f_C, f_D, f_L) -->
     <g transform="translate(8.38375 206.929104)rotate(-90)scale(0.1 -0.1)">
      <defs>
       <path id="TimesNewRomanPSMT-66" d="M 1319 2638 
L 1319 756 
Q 1319 356 1406 250 
Q 1522 113 1716 113 
L 1975 113 
L 1975 0 
L 266 0 
L 266 113 
L 394 113 
Q 519 113 622 175 
Q 725 238 764 344 
Q 803 450 803 756 
L 803 2638 
L 247 2638 
L 247 2863 
L 803 2863 
L 803 3050 
Q 803 3478 940 3775 
Q 1078 4072 1361 4255 
Q 1644 4438 1997 4438 
Q 2325 4438 2600 4225 
Q 2781 4084 2781 3909 
Q 2781 3816 2700 3733 
Q 2619 3650 2525 3650 
Q 2453 3650 2373 3701 
Q 2294 3753 2178 3923 
Q 2063 4094 1966 4153 
Q 1869 4213 1750 4213 
Q 1606 4213 1506 4136 
Q 1406 4059 1362 3898 
Q 1319 3738 1319 3069 
L 1319 2863 
L 2056 2863 
L 2056 2638 
L 1319 2638 
z
" transform="scale(0.015625)"/>
       <path id="TimesNewRomanPSMT-63" d="M 2631 1088 
Q 2516 522 2178 217 
Q 1841 -88 1431 -88 
Q 944 -88 581 321 
Q 219 731 219 1428 
Q 219 2103 620 2525 
Q 1022 2947 1584 2947 
Q 2006 2947 2278 2723 
Q 2550 2500 2550 2259 
Q 2550 2141 2473 2067 
Q 2397 1994 2259 1994 
Q 2075 1994 1981 2113 
Q 1928 2178 1911 2362 
Q 1894 2547 1784 2644 
Q 1675 2738 1481 2738 
Q 1169 2738 978 2506 
Q 725 2200 725 1697 
Q 725 1184 976 792 
Q 1228 400 1656 400 
Q 1963 400 2206 609 
Q 2378 753 2541 1131 
L 2631 1088 
z
" transform="scale(0.015625)"/>
       <path id="TimesNewRomanPSMT-5f" d="M 3256 -1381 
L -53 -1381 
L -53 -1119 
L 3256 -1119 
L 3256 -1381 
z
" transform="scale(0.015625)"/>
       <path id="TimesNewRomanPSMT-43" d="M 3853 4334 
L 3950 2894 
L 3853 2894 
Q 3659 3541 3300 3825 
Q 2941 4109 2438 4109 
Q 2016 4109 1675 3895 
Q 1334 3681 1139 3212 
Q 944 2744 944 2047 
Q 944 1472 1128 1050 
Q 1313 628 1683 403 
Q 2053 178 2528 178 
Q 2941 178 3256 354 
Q 3572 531 3950 1056 
L 4047 994 
Q 3728 428 3303 165 
Q 2878 -97 2294 -97 
Q 1241 -97 663 684 
Q 231 1266 231 2053 
Q 231 2688 515 3219 
Q 800 3750 1298 4042 
Q 1797 4334 2388 4334 
Q 2847 4334 3294 4109 
Q 3425 4041 3481 4041 
Q 3566 4041 3628 4100 
Q 3709 4184 3744 4334 
L 3853 4334 
z
" transform="scale(0.015625)"/>
       <path id="TimesNewRomanPSMT-2c" d="M 344 -1066 
L 344 -928 
Q 666 -822 842 -598 
Q 1019 -375 1019 -125 
Q 1019 -66 991 -25 
Q 969 3 947 3 
Q 913 3 797 -59 
Q 741 -88 678 -88 
Q 525 -88 434 3 
Q 344 94 344 253 
Q 344 406 461 515 
Q 578 625 747 625 
Q 953 625 1114 445 
Q 1275 266 1275 -31 
Q 1275 -353 1051 -629 
Q 828 -906 344 -1066 
z
" transform="scale(0.015625)"/>
       <path id="TimesNewRomanPSMT-44" d="M 109 0 
L 109 116 
L 269 116 
Q 538 116 650 288 
Q 719 391 719 750 
L 719 3488 
Q 719 3884 631 3984 
Q 509 4122 269 4122 
L 109 4122 
L 109 4238 
L 1834 4238 
Q 2784 4238 3279 4022 
Q 3775 3806 4076 3303 
Q 4378 2800 4378 2141 
Q 4378 1256 3841 663 
Q 3238 0 2003 0 
L 109 0 
z
M 1319 306 
Q 1716 219 1984 219 
Q 2709 219 3187 728 
Q 3666 1238 3666 2109 
Q 3666 2988 3187 3494 
Q 2709 4000 1959 4000 
Q 1678 4000 1319 3909 
L 1319 306 
z
" transform="scale(0.015625)"/>
       <path id="TimesNewRomanPSMT-4c" d="M 3669 1172 
L 3772 1150 
L 3409 0 
L 128 0 
L 128 116 
L 288 116 
Q 556 116 672 291 
Q 738 391 738 753 
L 738 3488 
Q 738 3884 650 3984 
Q 528 4122 288 4122 
L 128 4122 
L 128 4238 
L 2047 4238 
L 2047 4122 
Q 1709 4125 1573 4059 
Q 1438 3994 1388 3894 
Q 1338 3794 1338 3416 
L 1338 753 
Q 1338 494 1388 397 
Q 1425 331 1503 300 
Q 1581 269 1991 269 
L 2300 269 
Q 2788 269 2984 341 
Q 3181 413 3343 595 
Q 3506 778 3669 1172 
z
" transform="scale(0.015625)"/>
      </defs>
      <use xlink:href="#TimesNewRomanPSMT-66"/>
      <use xlink:href="#TimesNewRomanPSMT-72" x="33.300781"/>
      <use xlink:href="#TimesNewRomanPSMT-61" x="66.601562"/>
      <use xlink:href="#TimesNewRomanPSMT-63" x="110.986328"/>
      <use xlink:href="#TimesNewRomanPSMT-74" x="155.371094"/>
      <use xlink:href="#TimesNewRomanPSMT-69" x="183.154297"/>
      <use xlink:href="#TimesNewRomanPSMT-6f" x="210.9375"/>
      <use xlink:href="#TimesNewRomanPSMT-6e" x="260.9375"/>
      <use xlink:href="#TimesNewRomanPSMT-20" x="310.9375"/>
      <use xlink:href="#TimesNewRomanPSMT-28" x="335.9375"/>
      <use xlink:href="#TimesNewRomanPSMT-66" x="369.238281"/>
      <use xlink:href="#TimesNewRomanPSMT-5f" x="402.539062"/>
      <use xlink:href="#TimesNewRomanPSMT-43" x="452.539062"/>
      <use xlink:href="#TimesNewRomanPSMT-2c" x="519.238281"/>
      <use xlink:href="#TimesNewRomanPSMT-20" x="544.238281"/>
      <use xlink:href="#TimesNewRomanPSMT-66" x="569.238281"/>
      <use xlink:href="#TimesNewRomanPSMT-5f" x="602.539062"/>
      <use xlink:href="#TimesNewRomanPSMT-44" x="652.539062"/>
      <use xlink:href="#TimesNewRomanPSMT-2c" x="724.755859"/>
      <use xlink:href="#TimesNewRomanPSMT-20" x="749.755859"/>
      <use xlink:href="#TimesNewRomanPSMT-66" x="774.755859"/>
      <use xlink:href="#TimesNewRomanPSMT-5f" x="808.056641"/>
      <use xlink:href="#TimesNewRomanPSMT-4c" x="858.056641"/>
      <use xlink:href="#TimesNewRomanPSMT-29" x="919.140625"/>
     </g>
    </g>
   </g>
   <g id="LineCollection_1">
    <path d="M 34.041563 190.778297 
L 485.03952 190.778297 
" clip-path="url(#pe1e6f002be)" style="fill: none; stroke-dasharray: 5.92,2.56; stroke-dashoffset: 0; stroke: #1f77b4; stroke-width: 1.6"/>
   </g>
   <g id="LineCollection_2">
    <path d="M 34.041563 114.803559 
L 485.03952 114.803559 
" clip-path="url(#pe1e6f002be)" style="fill: none; stroke-dasharray: 5.92,2.56; stroke-dashoffset: 0; stroke: #ff7f0e; stroke-width: 1.6"/>
   </g>
   <g id="LineCollection_3">
    <path d="M 34.041563 253.140989 
L 485.03952 253.140989 
" clip-path="url(#pe1e6f002be)" style="fill: none; stroke-dasharray: 5.92,2.56; stroke-dashoffset: 0; stroke: #2ca02c; stroke-width: 1.6"/>
   </g>
   <g id="line2d_21">
    <path d="M 34.13178 243.643845 
L 34.221998 228.390444 
M 34.402433 172.12971 
L 34.492651 160.523861 
M 35.214392 215.568744 
L 35.304609 215.237148 
M 44.867679 216.231935 
L 44.957896 215.789808 
L 45.048114 216.342467 
L 45.138332 215.568744 
M 45.769855 211.81066 
L 45.860073 213.910766 
M 53.167701 172.019178 
L 53.257919 164.613541 
M 56.595971 226.069274 
L 56.686189 217.66885 
M 60.294894 212.915979 
L 60.385112 212.805447 
M 60.655765 215.568744 
L 60.745982 217.558318 
M 61.106853 158.534287 
L 61.197071 160.081733 
M 68.053611 218.442573 
L 68.143829 222.753317 
L 68.234046 218.332041 
M 69.316658 217.558318 
L 69.406875 212.805447 
M 73.286234 213.026511 
L 73.376451 215.34768 
L 73.466669 212.252787 
M 75.361239 212.363319 
L 75.451457 211.258 
M 89.43519 154.002479 
L 89.525408 162.292371 
M 90.427584 170.361199 
L 90.517802 166.492583 
L 90.60802 171.908646 
L 90.698237 166.050456 
M 91.149325 211.258 
L 91.329761 221.75853 
L 91.419978 223.858636 
L 91.510196 209.931618 
L 91.690631 159.971201 
M 93.314549 216.784595 
L 93.404766 220.874275 
L 93.494984 210.926405 
M 107.478717 213.026511 
L 107.568935 222.421722 
M 127.777685 210.373745 
L 127.867903 215.34768 
M 128.770079 163.618754 
L 128.860297 166.603115 
M 134.183137 212.031724 
L 134.273355 215.789808 
M 135.897272 218.884701 
L 135.98749 214.684489 
M 136.438578 162.181839 
L 136.528796 171.355986 
M 138.784237 213.247574 
L 138.874454 214.021298 
M 145.279906 212.363319 
L 145.370124 210.484277 
M 146.001648 210.042149 
L 146.091865 210.152681 
M 146.542953 211.589596 
L 146.633171 214.905553 
L 146.723389 225.516615 
M 151.414706 217.447786 
L 151.504923 212.584383 
M 167.65388 166.382051 
L 167.744098 167.597902 
M 175.683249 171.024391 
L 175.773467 166.713647 
L 175.863685 170.803327 
L 175.953902 167.818966 
M 178.028908 158.755351 
L 178.119126 161.07652 
M 187.050672 161.960775 
L 187.140889 167.929498 
M 187.321324 211.921192 
L 187.411542 211.700128 
M 190.569159 217.558318 
L 190.659377 219.658424 
L 190.749595 212.805447 
M 193.005035 168.924285 
L 193.095253 149.912799 
L 193.185471 170.471731 
M 194.628953 215.458212 
L 194.71917 218.22151 
M 196.343088 167.48737 
L 196.433306 166.713647 
M 200.493099 168.813753 
L 200.583317 156.323649 
M 208.251816 217.447786 
L 208.342033 218.995233 
M 213.755091 216.010872 
L 213.845309 214.242361 
M 220.611632 152.565564 
L 220.701849 165.71886 
M 221.243155 166.160987 
L 221.333373 164.171413 
M 224.220337 209.710554 
L 224.310555 210.042149 
L 224.400772 223.858636 
M 233.602971 164.281945 
L 233.693189 171.355986 
M 236.941024 159.529074 
L 237.031241 171.798114 
M 241.632341 216.563531 
L 241.722558 217.447786 
M 244.880176 211.700128 
L 244.970393 215.126617 
M 252.999763 163.839818 
L 253.08998 168.592689 
M 261.570438 165.1662 
L 261.660656 169.80854 
M 261.931309 213.689702 
L 262.111744 230.380018 
L 262.201961 226.842997 
L 262.292179 229.606295 
M 263.916097 170.361199 
L 264.006314 167.48737 
M 269.87046 209.821086 
L 269.960678 213.468638 
M 271.40416 171.466518 
L 271.494378 165.387264 
M 273.479166 214.795021 
L 273.569383 214.684489 
M 276.095477 170.361199 
L 276.185695 167.376838 
M 277.358524 161.297584 
L 277.538959 165.608328 
M 278.982442 217.558318 
L 279.072659 209.710554 
M 280.96723 170.471731 
L 281.057447 170.582263 
M 281.3281 169.034817 
L 281.418318 169.25588 
M 307.400997 216.563531 
L 307.491214 211.921192 
M 307.761867 168.261093 
L 307.852085 152.786628 
L 307.942302 171.908646 
M 317.144501 167.376838 
L 317.234719 171.245455 
M 328.331488 166.603115 
L 328.421706 171.798114 
L 328.511923 163.39769 
L 328.602141 172.12971 
M 328.963011 218.332041 
L 329.053229 219.326829 
L 329.143447 212.805447 
M 331.849976 170.582263 
L 331.940193 166.271519 
M 332.571717 212.473851 
L 332.661934 213.247574 
M 337.353251 215.016085 
L 337.443469 217.447786 
M 337.714122 172.12971 
L 337.80434 163.066094 
M 338.526081 211.036936 
L 338.616298 213.800234 
M 349.803285 215.016085 
L 349.893503 211.921192 
M 350.344591 172.019178 
L 350.434809 171.687582 
M 356.389172 211.81066 
L 356.47939 210.152681 
M 356.659825 167.708434 
L 356.750043 171.134923 
M 359.727225 213.358106 
L 359.817443 209.821086 
M 376.778358 209.821086 
L 376.868576 210.705341 
M 378.312058 225.958742 
L 378.402275 211.368532 
M 378.672928 169.034817 
L 378.763146 168.813753 
M 389.769697 170.471731 
L 389.859915 167.155774 
M 391.032744 170.361199 
L 391.122962 169.034817 
M 396.626238 213.800234 
L 396.806673 212.252787 
M 400.776249 216.231935 
L 400.866467 214.021298 
L 400.956684 228.500976 
L 401.137119 218.442573 
M 402.039296 171.798114 
L 402.129513 170.361199 
M 406.189307 210.705341 
L 406.279525 217.779382 
L 406.369742 213.026511 
M 406.550178 167.708434 
L 406.640395 166.160987 
M 407.452354 165.1662 
L 407.542572 159.971201 
M 412.95563 169.80854 
L 413.045847 167.818966 
M 415.842594 171.024391 
L 415.932812 172.12971 
M 419.180646 164.171413 
L 419.270864 162.292371 
M 422.969787 215.789808 
L 423.060005 210.594809 
M 438.667656 166.934711 
L 438.757873 163.176626 
M 441.283967 156.876308 
L 441.374185 170.029604 
M 453.734001 171.134923 
L 453.824218 169.366412 
M 466.905775 166.271519 
L 466.995993 165.055668 
M 468.439475 171.466518 
L 468.529693 155.881521 
L 468.61991 168.371625 
M 469.161216 168.482157 
L 469.251434 169.366412 
M 475.476451 218.995233 
L 475.566668 215.237148 
M 480.799291 211.368532 
" clip-path="url(#pe1e6f002be)" style="fill: none; stroke: #1f77b4; stroke-width: 2; stroke-linecap: square"/>
   </g>
   <g id="line2d_22">
    <path d="M 34.041563 78.951323 
L 34.13178 40.26516 
L 34.221998 213.57917 
L 34.312215 200.646938 
L 34.402433 155.328862 
M 35.304609 146.817906 
L 35.394827 155.770989 
M 40.62745 77.846004 
L 40.807885 83.372599 
L 40.898103 82.377812 
M 45.138332 147.260034 
L 45.318767 143.612481 
M 45.860073 151.12865 
L 45.95029 167.597902 
M 51.092696 144.496736 
L 51.182913 157.318436 
L 51.273131 152.123437 
M 52.355742 85.914832 
L 52.44596 81.604088 
M 56.686189 149.470671 
L 56.776407 169.366412 
L 56.866624 149.802267 
M 60.204677 77.956536 
L 60.294894 67.787602 
L 60.565547 80.277706 
L 60.655765 76.188026 
M 64.625341 152.012905 
L 64.715558 143.391417 
M 66.519911 150.465458 
L 66.610129 143.944077 
L 66.700346 144.386204 
M 68.234046 152.786628 
L 68.324264 159.197478 
M 74.910151 83.372599 
L 75.000369 85.362173 
L 75.090586 82.709407 
L 75.180804 84.146322 
L 75.361239 72.429941 
M 77.706898 78.619727 
L 77.797115 83.372599 
M 81.496039 144.496736 
L 81.586256 153.007692 
L 81.676474 148.144289 
M 81.947127 82.377812 
L 82.037344 80.388238 
M 84.834091 144.275672 
L 84.924309 146.817906 
M 86.909097 82.046216 
L 86.999314 85.030577 
M 87.630838 142.286098 
L 87.721055 149.581203 
M 90.96889 75.524834 
L 91.059108 77.514408 
L 91.149325 74.308983 
L 91.239543 86.246428 
M 91.510196 153.007692 
L 91.600414 159.529074 
M 93.224331 83.372599 
L 93.404766 59.49771 
L 93.585202 74.972175 
L 93.675419 75.635366 
L 93.765637 80.498769 
M 110.095029 85.251641 
L 110.185246 83.593663 
M 125.251592 82.156748 
L 125.341809 83.483131 
M 139.05489 152.344501 
L 139.145107 142.39663 
M 142.663595 72.540473 
L 142.753813 84.58845 
M 143.475554 80.498769 
L 143.565771 83.483131 
M 144.01686 149.802267 
L 144.107077 166.492583 
L 144.197295 145.380991 
M 146.723389 147.591629 
L 146.813606 169.80854 
L 146.903824 164.281945 
M 149.249482 79.172387 
L 149.3397 82.488344 
M 150.963617 148.254821 
L 151.053835 154.113011 
M 158.632116 152.676096 
L 158.722334 142.175566 
M 160.165816 85.583237 
L 160.256034 81.71462 
M 165.669092 143.612481 
L 165.75931 161.408116 
M 167.563662 152.123437 
L 167.65388 149.581203 
M 168.104968 77.403876 
L 168.195186 83.704194 
L 168.285403 79.503982 
M 189.306112 84.256854 
L 189.39633 85.472705 
L 189.486548 71.435154 
L 189.576765 82.26728 
M 190.659377 144.828332 
L 190.749595 155.21833 
L 190.839812 147.812693 
M 191.922424 79.172387 
L 192.012641 76.851217 
M 192.914818 142.94929 
L 193.005035 161.739712 
M 196.974611 80.609301 
L 197.064829 85.693768 
L 197.155047 73.424728 
L 197.245264 86.799087 
M 204.552893 76.740685 
L 204.64311 77.62494 
L 204.733328 71.545686 
M 212.582262 144.165141 
L 212.67248 144.275672 
M 221.874679 80.277706 
L 221.964896 80.056642 
L 222.055114 82.930471 
L 222.145332 78.840791 
L 222.235549 80.830365 
M 223.769249 150.797054 
L 223.859467 147.702161 
M 224.13012 86.35696 
L 224.220337 76.851217 
L 224.310555 82.377812 
M 224.49099 142.507162 
L 224.581208 155.21833 
M 225.122513 83.704194 
L 225.212731 84.367386 
M 229.45296 80.056642 
L 229.543178 76.851217 
M 238.474723 80.940897 
L 238.564941 73.093133 
L 238.655159 80.498769 
M 246.053005 86.135896 
L 246.143222 79.94611 
L 246.23344 84.698981 
L 246.323658 84.256854 
M 250.563887 145.933651 
L 250.654104 150.133863 
M 252.458457 149.139076 
L 252.638892 144.938864 
M 258.142168 85.251641 
L 258.412821 79.614514 
M 258.593256 78.730259 
L 258.683474 76.519621 
M 261.841091 78.1776 
L 262.021526 66.350687 
L 262.111744 78.840791 
M 271.945466 80.167174 
L 272.035684 86.025364 
M 273.118295 81.161961 
L 273.208513 78.398663 
M 279.072659 148.918012 
L 279.162877 148.033757 
L 279.253095 142.838758 
M 281.598753 76.298557 
L 281.688971 77.293345 
L 281.779188 80.940897 
L 281.869406 77.62494 
M 282.500929 83.814726 
L 282.591147 83.814726 
M 287.282464 142.838758 
L 287.462899 150.686522 
M 293.868351 150.244395 
L 293.958569 147.260034 
M 299.822715 143.612481 
L 299.912933 146.265246 
M 305.506426 146.707374 
L 305.596644 151.681309 
M 307.581432 156.323649 
L 307.67165 173.013965 
L 307.761867 158.865882 
M 318.136895 150.465458 
L 318.227113 151.349714 
M 324.271694 145.602055 
L 324.361912 157.318436 
L 324.45213 149.249608 
M 328.872794 85.141109 
L 328.963011 69.335048 
L 329.053229 84.58845 
M 329.233664 152.455033 
L 329.323882 160.523861 
L 329.4141 153.118224 
M 331.759758 143.723013 
L 331.849976 155.881521 
M 337.443469 147.260034 
L 337.533687 170.692795 
L 337.623904 151.239182 
L 337.714122 154.997266 
M 338.526081 69.99824 
L 338.616298 74.751111 
M 340.781522 79.725046 
L 340.871739 79.061855 
M 341.864133 142.39663 
L 341.954351 157.097372 
L 342.044568 145.380991 
M 342.946745 157.981627 
L 343.036962 156.544713 
L 343.12718 161.739712 
M 355.667431 85.8043 
L 355.757649 84.477918 
M 360.448966 142.617694 
L 360.539184 150.57599 
M 363.696801 143.059822 
L 363.787019 148.254821 
M 364.86963 79.393451 
L 364.959848 78.067068 
L 365.230501 86.025364 
M 366.944636 147.812693 
L 367.034853 152.123437 
M 368.2979 81.493557 
L 368.388118 73.203664 
L 368.478336 79.94611 
M 368.839206 147.03897 
L 368.929424 158.865882 
L 369.109859 145.159928 
M 371.184865 153.560352 
L 371.275082 153.44982 
M 378.492493 153.670883 
L 378.672928 171.024391 
M 396.896891 145.159928 
L 396.987108 145.933651 
M 401.137119 173.566624 
L 401.227337 179.535347 
L 401.317555 147.260034 
M 406.369742 143.280885 
L 406.45996 161.07652 
L 406.550178 158.202691 
M 417.376294 143.944077 
L 417.466511 155.107798 
L 417.556729 144.165141 
M 418.098035 84.698981 
L 418.188252 86.467492 
M 419.992605 84.809513 
L 420.17304 74.08792 
L 420.353476 77.403876 
L 420.443693 70.771963 
L 420.533911 76.851217 
M 422.699134 82.488344 
L 422.789352 67.898134 
L 422.879569 78.840791 
M 423.150222 157.760563 
L 423.24044 163.95035 
L 423.420875 148.918012 
M 427.390451 85.362173 
L 427.480669 83.814726 
L 427.570886 86.688556 
M 427.841539 145.823119 
L 427.931757 155.770989 
L 428.021975 148.144289 
M 433.705686 144.7178 
L 433.795903 148.365352 
M 437.494826 142.617694 
L 437.585044 146.817906 
M 438.48722 142.507162 
L 438.667656 151.902373 
M 441.103532 154.334075 
L 441.283967 145.602055 
M 443.719843 151.460246 
L 443.810061 142.175566 
M 444.531802 152.565564 
L 444.62202 149.581203 
M 445.885066 82.046216 
L 445.975284 78.1776 
L 446.065502 81.825152 
M 454.004654 80.277706 
L 454.094871 83.483131 
M 456.530747 172.12971 
L 456.620965 148.918012 
M 459.688365 146.707374 
L 459.778582 143.280885 
M 465.101423 158.865882 
L 465.19164 153.007692 
M 467.988387 143.059822 
L 468.078605 150.354927 
M 468.349258 142.286098 
L 468.439475 153.560352 
M 470.694916 77.62494 
L 470.785134 76.851217 
M 473.762316 159.30801 
L 473.852533 174.450879 
M 474.574274 76.298557 
L 474.75471 83.704194 
L 474.844927 87.351747 
M 475.566668 146.48631 
L 475.656886 169.476944 
L 475.747104 151.460246 
M 477.551456 164.503009 
L 477.731892 144.275672 
M 478.904721 84.256854 
L 478.994938 82.046216 
M 481.430815 146.596842 
L 481.521032 157.650032 
M 482.603644 149.691735 
" clip-path="url(#pe1e6f002be)" style="fill: none; stroke: #ff7f0e; stroke-width: 2; stroke-linecap: square"/>
   </g>
   <g id="line2d_23">
    <path d="M 34.221998 116.753231 
L 34.312215 182.409176 
M 35.124174 220.763743 
L 35.304609 196.66779 
L 35.394827 208.273639 
M 38.642662 225.627146 
L 38.73288 222.753317 
M 40.537232 277.687669 
L 40.717667 278.35086 
L 40.807885 277.687669 
M 41.619844 219.216297 
L 41.800279 226.953529 
M 42.973108 209.821086 
L 43.153544 224.521828 
M 44.957896 228.058848 
L 45.138332 195.894067 
L 45.228549 214.352893 
M 45.860073 193.683429 
L 45.95029 203.852363 
M 55.964448 225.185019 
L 56.054665 224.853423 
M 56.595971 213.358106 
L 56.776407 188.046302 
M 60.114459 278.35086 
L 60.204677 278.35086 
L 60.294894 278.019264 
M 60.8362 219.326829 
L 60.926418 217.005659 
M 66.519911 207.831512 
L 66.610129 220.211084 
M 68.143829 216.121404 
L 68.234046 187.604175 
L 68.324264 206.505129 
M 69.406875 224.963955 
L 69.497093 217.226723 
L 69.587311 218.22151 
M 73.286234 215.126617 
L 73.376451 210.926405 
L 73.466669 219.768956 
L 73.556887 211.921192 
M 74.910151 277.798201 
L 75.090586 278.35086 
L 75.271022 278.35086 
M 80.503645 224.190232 
L 80.593862 211.921192 
L 80.68408 226.953529 
M 81.405821 216.010872 
L 81.496039 212.584383 
L 81.586256 225.406083 
M 84.743873 216.010872 
L 84.924309 227.948316 
M 87.54062 214.905553 
L 87.721055 224.190232 
M 91.419978 194.89928 
L 91.510196 195.783535 
L 91.600414 227.285125 
M 92.953678 278.35086 
L 93.404766 278.35086 
M 94.216725 226.511402 
L 94.306943 220.321616 
M 107.568935 196.446726 
L 107.659153 196.557258 
L 107.74937 212.915979 
M 108.471111 214.905553 
L 108.561329 212.805447 
M 113.433081 212.584383 
L 113.523299 212.473851 
L 113.613517 225.074487 
M 121.913539 227.285125 
L 122.003757 221.426935 
M 125.161374 278.129796 
L 125.251592 278.35086 
L 125.341809 278.019264 
M 127.777685 219.658424 
L 127.867903 215.016085 
L 127.958121 224.0797 
M 133.461396 228.390444 
L 133.641832 216.674063 
L 133.732049 219.768956 
M 135.98749 223.416509 
L 136.077708 212.252787 
M 137.52119 221.869062 
L 137.611408 214.131829 
L 137.701625 217.447786 
M 138.874454 205.178746 
L 139.05489 211.479064 
M 142.663595 277.908732 
L 142.753813 278.019264 
L 142.84403 277.908732 
M 143.926642 222.421722 
L 144.01686 206.836724 
L 144.107077 207.057788 
L 144.197295 223.527041 
M 146.633171 210.263213 
L 146.813606 181.524921 
L 146.903824 206.173533 
M 150.963617 211.700128 
L 151.053835 221.979594 
M 151.504923 213.689702 
L 151.595141 218.000446 
M 156.647329 227.616721 
L 156.737546 206.394597 
M 158.451681 226.842997 
L 158.632116 207.389384 
L 158.722334 220.763743 
M 160.79734 219.547892 
L 160.887557 219.768956 
L 160.977775 217.116191 
M 161.699516 226.069274 
L 161.789734 219.43736 
M 165.578874 220.984807 
L 165.669092 227.174593 
M 167.473445 227.174593 
L 167.563662 212.805447 
M 173.878897 221.205871 
L 173.969114 217.116191 
M 183.261531 222.090126 
L 183.351748 227.174593 
M 190.659377 194.236089 
L 190.749595 190.699068 
L 190.839812 226.621934 
M 192.8246 212.805447 
L 192.914818 213.689702 
L 193.005035 228.058848 
M 193.726776 278.35086 
L 193.816994 278.240328 
M 193.997429 278.35086 
L 194.087647 278.35086 
M 194.71917 217.558318 
L 194.809388 221.095339 
M 196.523523 277.908732 
L 196.703958 278.35086 
L 196.974611 278.35086 
M 197.606135 221.537466 
L 197.696352 225.627146 
M 198.869182 210.484277 
L 198.959399 228.16938 
M 203.109411 226.069274 
L 203.199628 223.195445 
M 211.228998 218.22151 
L 211.319215 222.421722 
L 211.499651 207.278852 
M 212.492045 226.621934 
L 212.582262 218.442573 
M 223.227943 222.863849 
L 223.318161 218.553105 
M 223.679031 226.842997 
L 223.769249 225.737678 
M 224.49099 209.48949 
L 224.581208 226.511402 
M 229.362742 277.908732 
L 229.45296 278.35086 
M 238.294288 278.35086 
L 238.474723 277.798201 
M 241.812776 228.500976 
L 241.902994 216.784595 
M 250.473669 222.642785 
L 250.563887 214.352893 
M 252.368239 214.684489 
L 252.458457 220.432147 
M 254.082374 224.0797 
L 254.172592 215.016085 
M 254.713898 225.84821 
L 254.894333 222.642785 
M 256.879121 225.406083 
L 256.969339 226.842997 
M 258.05195 278.35086 
L 258.593256 278.35086 
M 261.660656 278.35086 
L 261.931309 278.35086 
M 262.201961 216.784595 
L 262.382397 200.425875 
M 263.465008 216.674063 
L 263.555226 223.084913 
M 265.540014 225.074487 
L 265.720449 227.837784 
M 267.163931 223.748104 
L 267.254149 224.963955 
M 268.607414 215.90034 
L 268.697631 215.016085 
M 269.87046 224.190232 
L 269.960678 214.131829 
L 270.050896 214.463425 
L 270.141113 213.468638 
M 271.133507 223.195445 
L 271.223725 225.295551 
M 271.584596 278.35086 
L 272.216119 278.35086 
L 272.306337 277.908732 
M 273.118295 277.798201 
L 273.208513 278.35086 
M 273.569383 220.542679 
L 273.659601 224.300764 
M 279.072659 200.094279 
L 279.162877 205.952469 
L 279.253095 219.879488 
M 281.147665 277.798201 
L 281.3281 278.35086 
L 281.869406 278.35086 
M 287.192246 215.90034 
L 287.282464 218.995233 
L 287.372682 204.736618 
L 287.462899 219.879488 
M 293.778134 225.84821 
L 293.868351 213.468638 
M 299.552062 226.069274 
L 299.64228 226.179806 
L 299.732498 226.621934 
L 299.822715 211.700128 
L 299.912933 217.005659 
M 300.273803 226.732465 
L 300.364021 216.784595 
M 305.506426 210.152681 
L 305.596644 216.895127 
M 307.491214 216.231935 
L 307.581432 196.115131 
L 307.67165 203.852363 
M 312.453184 216.784595 
L 312.543402 226.069274 
M 318.046678 228.16938 
L 318.136895 206.726193 
L 318.227113 223.969168 
M 318.768419 221.75853 
L 318.858636 226.621934 
L 318.948854 224.742891 
M 324.271694 210.263213 
L 324.361912 208.494703 
M 329.233664 199.762683 
L 329.323882 205.178746 
L 329.4141 227.285125 
M 331.66954 224.300764 
L 331.759758 212.363319 
M 332.661934 223.748104 
L 332.752152 219.547892 
M 337.353251 223.195445 
L 337.533687 184.840878 
L 337.623904 214.463425 
M 338.435863 277.687669 
L 338.526081 277.687669 
M 341.864133 203.741831 
L 341.954351 215.679276 
M 342.676092 224.632359 
L 342.856527 214.684489 
L 342.946745 202.304917 
L 343.036962 215.679276 
M 344.480445 219.326829 
L 344.570662 216.342467 
L 344.66088 221.647998 
M 346.916321 223.858636 
L 347.006538 226.179806 
M 353.321773 226.290338 
L 353.41199 227.174593 
M 359.727225 227.837784 
L 359.817443 212.031724 
L 359.90766 215.34768 
L 359.997878 216.452999 
M 360.448966 222.753317 
L 360.539184 216.784595 
M 361.531578 221.869062 
L 361.621795 225.627146 
M 363.606583 227.616721 
L 363.696801 228.390444 
M 364.779413 277.908732 
L 364.959848 278.35086 
M 366.944636 208.052575 
L 367.034853 203.852363 
M 368.839206 206.394597 
L 368.929424 198.104705 
L 369.019641 222.863849 
M 371.094647 220.984807 
L 371.184865 204.957682 
L 371.275082 221.316403 
M 378.402275 224.411296 
L 378.582711 190.146408 
L 378.672928 218.663637 
M 379.75554 225.185019 
L 379.845758 213.137042 
L 379.935975 222.642785 
M 386.702298 228.058848 
L 386.792515 227.837784 
M 387.063168 212.142255 
L 387.153386 215.34768 
M 390.581656 216.674063 
L 390.671874 214.795021 
M 396.626238 218.884701 
L 396.806673 210.815873 
L 396.896891 216.342467 
M 399.152331 224.190232 
L 399.242549 222.200658 
M 401.046902 201.199598 
L 401.137119 166.713647 
L 401.227337 181.193325 
L 401.317555 219.99002 
M 406.369742 202.415449 
L 406.45996 198.546832 
M 417.286076 227.285125 
L 417.376294 206.284065 
L 417.466511 212.031724 
M 419.541517 278.240328 
L 419.721952 278.35086 
L 420.443693 278.35086 
M 423.060005 221.205871 
L 423.150222 195.783535 
L 423.24044 196.446726 
L 423.420875 213.689702 
M 427.841539 207.499916 
L 427.931757 207.831512 
L 428.021975 226.290338 
M 429.014369 218.663637 
L 429.104586 216.784595 
M 433.615468 224.300764 
L 433.705686 221.979594 
M 438.397003 210.373745 
L 438.577438 217.337254 
M 441.013314 227.948316 
L 441.103532 216.563531 
L 441.193749 223.969168 
M 443.44919 223.637572 
L 443.539408 222.31119 
L 443.629626 219.326829 
L 443.719843 221.205871 
M 444.351367 227.064061 
L 444.441584 216.674063 
L 444.531802 218.332041 
M 445.885066 278.35086 
L 445.975284 278.35086 
L 446.065502 277.687669 
M 448.501378 224.300764 
L 448.591595 223.637572 
M 452.470954 227.506189 
L 452.561171 222.200658 
M 456.44053 219.658424 
L 456.530747 194.015025 
M 457.072053 226.842997 
L 457.162271 218.110978 
M 460.951411 217.447786 
L 461.041629 226.511402 
M 461.582935 224.853423 
L 461.673153 214.795021 
L 461.76337 225.84821 
M 464.109029 221.647998 
L 464.289464 222.974381 
M 466.003599 223.637572 
L 466.093817 227.064061 
M 473.58188 217.116191 
L 473.762316 195.673003 
L 473.852533 214.573957 
M 474.574274 278.35086 
L 474.75471 278.35086 
M 475.386233 227.616721 
L 475.476451 223.305977 
L 475.566668 196.999386 
L 475.656886 200.868002 
M 477.461239 201.862789 
L 477.551456 199.983747 
L 477.641674 211.368532 
M 481.340597 224.963955 
L 481.430815 207.831512 
L 481.521032 211.368532 
" clip-path="url(#pe1e6f002be)" style="fill: none; stroke: #2ca02c; stroke-width: 2; stroke-linecap: square"/>
   </g>
   <g id="line2d_24">
    <path d="M 34.041563 290.255145 
L 34.041563 28.360875 
" clip-path="url(#pe1e6f002be)" style="fill: none; stroke: #000000; stroke-opacity: 0.5; stroke-linecap: square"/>
   </g>
   <g id="patch_3">
    <path d="M 34.041563 290.255145 
L 34.041563 28.360875 
" style="fill: none; stroke: #000000; stroke-width: 0.8; stroke-linejoin: miter; stroke-linecap: square"/>
   </g>
   <g id="patch_4">
    <path d="M 485.03952 290.255145 
L 485.03952 28.360875 
" style="fill: none; stroke: #000000; stroke-width: 0.8; stroke-linejoin: miter; stroke-linecap: square"/>
   </g>
   <g id="patch_5">
    <path d="M 34.041563 290.255145 
L 485.03952 290.255145 
" style="fill: none; stroke: #000000; stroke-width: 0.8; stroke-linejoin: miter; stroke-linecap: square"/>
   </g>
   <g id="patch_6">
    <path d="M 34.041563 28.360875 
L 485.03952 28.360875 
" style="fill: none; stroke: #000000; stroke-width: 0.8; stroke-linejoin: miter; stroke-linecap: square"/>
   </g>
   <g id="text_13">
    <!--  baseline from t=0 -->
    <g transform="translate(34.041563 33.915875)scale(0.08 -0.08)">
     <defs>
      <path id="TimesNewRomanPSMT-62" d="M 984 2369 
Q 1400 2947 1881 2947 
Q 2322 2947 2650 2570 
Q 2978 2194 2978 1541 
Q 2978 778 2472 313 
Q 2038 -88 1503 -88 
Q 1253 -88 995 3 
Q 738 94 469 275 
L 469 3241 
Q 469 3728 445 3840 
Q 422 3953 372 3993 
Q 322 4034 247 4034 
Q 159 4034 28 3984 
L -16 4094 
L 844 4444 
L 984 4444 
L 984 2369 
z
M 984 2169 
L 984 456 
Q 1144 300 1314 220 
Q 1484 141 1663 141 
Q 1947 141 2192 453 
Q 2438 766 2438 1363 
Q 2438 1913 2192 2208 
Q 1947 2503 1634 2503 
Q 1469 2503 1303 2419 
Q 1178 2356 984 2169 
z
" transform="scale(0.015625)"/>
      <path id="TimesNewRomanPSMT-6d" d="M 1050 2338 
Q 1363 2650 1419 2697 
Q 1559 2816 1721 2881 
Q 1884 2947 2044 2947 
Q 2313 2947 2506 2790 
Q 2700 2634 2766 2338 
Q 3088 2713 3309 2830 
Q 3531 2947 3766 2947 
Q 3994 2947 4170 2830 
Q 4347 2713 4450 2447 
Q 4519 2266 4519 1878 
L 4519 647 
Q 4519 378 4559 278 
Q 4591 209 4675 161 
Q 4759 113 4950 113 
L 4950 0 
L 3538 0 
L 3538 113 
L 3597 113 
Q 3781 113 3884 184 
Q 3956 234 3988 344 
Q 4000 397 4000 647 
L 4000 1878 
Q 4000 2228 3916 2372 
Q 3794 2572 3525 2572 
Q 3359 2572 3192 2489 
Q 3025 2406 2788 2181 
L 2781 2147 
L 2788 2013 
L 2788 647 
Q 2788 353 2820 281 
Q 2853 209 2943 161 
Q 3034 113 3253 113 
L 3253 0 
L 1806 0 
L 1806 113 
Q 2044 113 2133 169 
Q 2222 225 2256 338 
Q 2272 391 2272 647 
L 2272 1878 
Q 2272 2228 2169 2381 
Q 2031 2581 1784 2581 
Q 1616 2581 1450 2491 
Q 1191 2353 1050 2181 
L 1050 647 
Q 1050 366 1089 281 
Q 1128 197 1204 155 
Q 1281 113 1516 113 
L 1516 0 
L 100 0 
L 100 113 
Q 297 113 375 155 
Q 453 197 493 289 
Q 534 381 534 647 
L 534 1741 
Q 534 2213 506 2350 
Q 484 2453 437 2492 
Q 391 2531 309 2531 
Q 222 2531 100 2484 
L 53 2597 
L 916 2947 
L 1050 2947 
L 1050 2338 
z
" transform="scale(0.015625)"/>
      <path id="TimesNewRomanPSMT-3d" d="M 116 2759 
L 3488 2759 
L 3488 2503 
L 116 2503 
L 116 2759 
z
M 116 1741 
L 3488 1741 
L 3488 1484 
L 116 1484 
L 116 1741 
z
" transform="scale(0.015625)"/>
     </defs>
     <use xlink:href="#TimesNewRomanPSMT-20"/>
     <use xlink:href="#TimesNewRomanPSMT-62" x="25"/>
     <use xlink:href="#TimesNewRomanPSMT-61" x="75"/>
     <use xlink:href="#TimesNewRomanPSMT-73" x="119.384766"/>
     <use xlink:href="#TimesNewRomanPSMT-65" x="158.300781"/>
     <use xlink:href="#TimesNewRomanPSMT-6c" x="202.685547"/>
     <use xlink:href="#TimesNewRomanPSMT-69" x="230.46875"/>
     <use xlink:href="#TimesNewRomanPSMT-6e" x="258.251953"/>
     <use xlink:href="#TimesNewRomanPSMT-65" x="308.251953"/>
     <use xlink:href="#TimesNewRomanPSMT-20" x="352.636719"/>
     <use xlink:href="#TimesNewRomanPSMT-66" x="377.636719"/>
     <use xlink:href="#TimesNewRomanPSMT-72" x="410.9375"/>
     <use xlink:href="#TimesNewRomanPSMT-6f" x="444.238281"/>
     <use xlink:href="#TimesNewRomanPSMT-6d" x="494.238281"/>
     <use xlink:href="#TimesNewRomanPSMT-20" x="572.021484"/>
     <use xlink:href="#TimesNewRomanPSMT-74" x="597.021484"/>
     <use xlink:href="#TimesNewRomanPSMT-3d" x="624.804688"/>
     <use xlink:href="#TimesNewRomanPSMT-30" x="681.201172"/>
    </g>
   </g>
   <g id="text_14">
    <!-- Mean baselines (dashed) &amp; top-|deviation| segments (solid) -->
    <g transform="translate(117.168979 9.7725)scale(0.12 -0.12)">
     <defs>
      <path id="TimesNewRomanPSMT-4d" d="M 2619 0 
L 981 3566 
L 981 734 
Q 981 344 1066 247 
Q 1181 116 1431 116 
L 1581 116 
L 1581 0 
L 106 0 
L 106 116 
L 256 116 
Q 525 116 638 278 
Q 706 378 706 734 
L 706 3503 
Q 706 3784 644 3909 
Q 600 4000 483 4061 
Q 366 4122 106 4122 
L 106 4238 
L 1306 4238 
L 2844 922 
L 4356 4238 
L 5556 4238 
L 5556 4122 
L 5409 4122 
Q 5138 4122 5025 3959 
Q 4956 3859 4956 3503 
L 4956 734 
Q 4956 344 5044 247 
Q 5159 116 5409 116 
L 5556 116 
L 5556 0 
L 3756 0 
L 3756 116 
L 3906 116 
Q 4178 116 4288 278 
Q 4356 378 4356 734 
L 4356 3566 
L 2722 0 
L 2619 0 
z
" transform="scale(0.015625)"/>
      <path id="TimesNewRomanPSMT-64" d="M 2222 322 
Q 2013 103 1813 7 
Q 1613 -88 1381 -88 
Q 913 -88 563 304 
Q 213 697 213 1313 
Q 213 1928 600 2439 
Q 988 2950 1597 2950 
Q 1975 2950 2222 2709 
L 2222 3238 
Q 2222 3728 2198 3840 
Q 2175 3953 2125 3993 
Q 2075 4034 2000 4034 
Q 1919 4034 1784 3984 
L 1744 4094 
L 2597 4444 
L 2738 4444 
L 2738 1134 
Q 2738 631 2761 520 
Q 2784 409 2836 365 
Q 2888 322 2956 322 
Q 3041 322 3181 375 
L 3216 266 
L 2366 -88 
L 2222 -88 
L 2222 322 
z
M 2222 541 
L 2222 2016 
Q 2203 2228 2109 2403 
Q 2016 2578 1861 2667 
Q 1706 2756 1559 2756 
Q 1284 2756 1069 2509 
Q 784 2184 784 1559 
Q 784 928 1059 592 
Q 1334 256 1672 256 
Q 1956 256 2222 541 
z
" transform="scale(0.015625)"/>
      <path id="TimesNewRomanPSMT-68" d="M 1041 4444 
L 1041 2350 
Q 1388 2731 1591 2839 
Q 1794 2947 1997 2947 
Q 2241 2947 2416 2812 
Q 2591 2678 2675 2391 
Q 2734 2191 2734 1659 
L 2734 647 
Q 2734 375 2778 275 
Q 2809 200 2884 156 
Q 2959 113 3159 113 
L 3159 0 
L 1753 0 
L 1753 113 
L 1819 113 
Q 2019 113 2097 173 
Q 2175 234 2206 353 
Q 2216 403 2216 647 
L 2216 1659 
Q 2216 2128 2167 2275 
Q 2119 2422 2012 2495 
Q 1906 2569 1756 2569 
Q 1603 2569 1437 2487 
Q 1272 2406 1041 2159 
L 1041 647 
Q 1041 353 1073 281 
Q 1106 209 1195 161 
Q 1284 113 1503 113 
L 1503 0 
L 84 0 
L 84 113 
Q 275 113 384 172 
Q 447 203 484 290 
Q 522 378 522 647 
L 522 3238 
Q 522 3728 498 3840 
Q 475 3953 426 3993 
Q 378 4034 297 4034 
Q 231 4034 84 3984 
L 41 4094 
L 897 4444 
L 1041 4444 
z
" transform="scale(0.015625)"/>
      <path id="TimesNewRomanPSMT-26" d="M 3266 2728 
L 4578 2728 
L 4578 2613 
Q 4306 2591 4176 2492 
Q 4047 2394 3772 1897 
Q 3497 1400 3153 969 
Q 3431 644 3650 514 
Q 3869 384 4091 384 
Q 4306 384 4456 501 
Q 4606 619 4669 847 
L 4784 763 
Q 4669 322 4412 112 
Q 4156 -97 3816 -97 
Q 3559 -97 3295 42 
Q 3031 181 2719 513 
Q 2331 169 2020 36 
Q 1709 -97 1356 -97 
Q 841 -97 537 178 
Q 234 453 234 834 
Q 234 1213 506 1589 
Q 778 1966 1528 2369 
Q 1381 2694 1328 2901 
Q 1275 3109 1275 3300 
Q 1275 3834 1669 4116 
Q 1975 4334 2366 4334 
Q 2738 4334 2972 4114 
Q 3206 3894 3206 3572 
Q 3206 3241 2979 2991 
Q 2753 2741 2178 2444 
Q 2575 1738 3006 1150 
Q 3556 1806 3556 2256 
Q 3556 2400 3463 2513 
Q 3394 2597 3266 2613 
L 3266 2728 
z
M 2072 2647 
Q 2459 2831 2651 3065 
Q 2844 3300 2844 3588 
Q 2844 3813 2705 3959 
Q 2566 4106 2359 4106 
Q 2088 4106 1948 3917 
Q 1809 3728 1809 3547 
Q 1809 3394 1862 3205 
Q 1916 3016 2072 2647 
z
M 2556 694 
Q 2144 1256 1984 1515 
Q 1825 1775 1634 2159 
Q 1259 1944 1070 1684 
Q 881 1425 881 1122 
Q 881 788 1097 534 
Q 1313 281 1678 281 
Q 1875 281 2058 359 
Q 2241 438 2556 694 
z
" transform="scale(0.015625)"/>
      <path id="TimesNewRomanPSMT-2d" d="M 259 1672 
L 1875 1672 
L 1875 1200 
L 259 1200 
L 259 1672 
z
" transform="scale(0.015625)"/>
      <path id="TimesNewRomanPSMT-7c" d="M 763 4444 
L 763 -1381 
L 503 -1381 
L 503 4444 
L 763 4444 
z
" transform="scale(0.015625)"/>
      <path id="TimesNewRomanPSMT-76" d="M 53 2863 
L 1400 2863 
L 1400 2747 
L 1313 2747 
Q 1191 2747 1127 2687 
Q 1063 2628 1063 2528 
Q 1063 2419 1128 2269 
L 1794 688 
L 2463 2328 
Q 2534 2503 2534 2594 
Q 2534 2638 2509 2666 
Q 2475 2713 2422 2730 
Q 2369 2747 2206 2747 
L 2206 2863 
L 3141 2863 
L 3141 2747 
Q 2978 2734 2916 2681 
Q 2806 2588 2719 2369 
L 1703 -88 
L 1575 -88 
L 553 2328 
Q 484 2497 421 2570 
Q 359 2644 263 2694 
Q 209 2722 53 2747 
L 53 2863 
z
" transform="scale(0.015625)"/>
     </defs>
     <use xlink:href="#TimesNewRomanPSMT-4d"/>
     <use xlink:href="#TimesNewRomanPSMT-65" x="88.916016"/>
     <use xlink:href="#TimesNewRomanPSMT-61" x="133.300781"/>
     <use xlink:href="#TimesNewRomanPSMT-6e" x="177.685547"/>
     <use xlink:href="#TimesNewRomanPSMT-20" x="227.685547"/>
     <use xlink:href="#TimesNewRomanPSMT-62" x="252.685547"/>
     <use xlink:href="#TimesNewRomanPSMT-61" x="302.685547"/>
     <use xlink:href="#TimesNewRomanPSMT-73" x="347.070312"/>
     <use xlink:href="#TimesNewRomanPSMT-65" x="385.986328"/>
     <use xlink:href="#TimesNewRomanPSMT-6c" x="430.371094"/>
     <use xlink:href="#TimesNewRomanPSMT-69" x="458.154297"/>
     <use xlink:href="#TimesNewRomanPSMT-6e" x="485.9375"/>
     <use xlink:href="#TimesNewRomanPSMT-65" x="535.9375"/>
     <use xlink:href="#TimesNewRomanPSMT-73" x="580.322266"/>
     <use xlink:href="#TimesNewRomanPSMT-20" x="619.238281"/>
     <use xlink:href="#TimesNewRomanPSMT-28" x="644.238281"/>
     <use xlink:href="#TimesNewRomanPSMT-64" x="677.539062"/>
     <use xlink:href="#TimesNewRomanPSMT-61" x="727.539062"/>
     <use xlink:href="#TimesNewRomanPSMT-73" x="771.923828"/>
     <use xlink:href="#TimesNewRomanPSMT-68" x="810.839844"/>
     <use xlink:href="#TimesNewRomanPSMT-65" x="860.839844"/>
     <use xlink:href="#TimesNewRomanPSMT-64" x="905.224609"/>
     <use xlink:href="#TimesNewRomanPSMT-29" x="955.224609"/>
     <use xlink:href="#TimesNewRomanPSMT-20" x="988.525391"/>
     <use xlink:href="#TimesNewRomanPSMT-26" x="1013.525391"/>
     <use xlink:href="#TimesNewRomanPSMT-20" x="1091.308594"/>
     <use xlink:href="#TimesNewRomanPSMT-74" x="1116.308594"/>
     <use xlink:href="#TimesNewRomanPSMT-6f" x="1144.091797"/>
     <use xlink:href="#TimesNewRomanPSMT-70" x="1194.091797"/>
     <use xlink:href="#TimesNewRomanPSMT-2d" x="1244.091797"/>
     <use xlink:href="#TimesNewRomanPSMT-7c" x="1277.392578"/>
     <use xlink:href="#TimesNewRomanPSMT-64" x="1297.412109"/>
     <use xlink:href="#TimesNewRomanPSMT-65" x="1347.412109"/>
     <use xlink:href="#TimesNewRomanPSMT-76" x="1391.796875"/>
     <use xlink:href="#TimesNewRomanPSMT-69" x="1441.796875"/>
     <use xlink:href="#TimesNewRomanPSMT-61" x="1469.580078"/>
     <use xlink:href="#TimesNewRomanPSMT-74" x="1513.964844"/>
     <use xlink:href="#TimesNewRomanPSMT-69" x="1541.748047"/>
     <use xlink:href="#TimesNewRomanPSMT-6f" x="1569.53125"/>
     <use xlink:href="#TimesNewRomanPSMT-6e" x="1619.53125"/>
     <use xlink:href="#TimesNewRomanPSMT-7c" x="1669.53125"/>
     <use xlink:href="#TimesNewRomanPSMT-20" x="1689.550781"/>
     <use xlink:href="#TimesNewRomanPSMT-73" x="1714.550781"/>
     <use xlink:href="#TimesNewRomanPSMT-65" x="1753.466797"/>
     <use xlink:href="#TimesNewRomanPSMT-67" x="1797.851562"/>
     <use xlink:href="#TimesNewRomanPSMT-6d" x="1847.851562"/>
     <use xlink:href="#TimesNewRomanPSMT-65" x="1925.634766"/>
     <use xlink:href="#TimesNewRomanPSMT-6e" x="1970.019531"/>
     <use xlink:href="#TimesNewRomanPSMT-74" x="2020.019531"/>
     <use xlink:href="#TimesNewRomanPSMT-73" x="2047.802734"/>
     <use xlink:href="#TimesNewRomanPSMT-20" x="2086.71875"/>
     <use xlink:href="#TimesNewRomanPSMT-28" x="2111.71875"/>
     <use xlink:href="#TimesNewRomanPSMT-73" x="2145.019531"/>
     <use xlink:href="#TimesNewRomanPSMT-6f" x="2183.935547"/>
     <use xlink:href="#TimesNewRomanPSMT-6c" x="2233.935547"/>
     <use xlink:href="#TimesNewRomanPSMT-69" x="2261.71875"/>
     <use xlink:href="#TimesNewRomanPSMT-64" x="2289.501953"/>
     <use xlink:href="#TimesNewRomanPSMT-29" x="2339.501953"/>
    </g>
    <!-- q_abs=0.90, step=10, tstart=0 -->
    <g transform="translate(188.228666 22.360875)scale(0.12 -0.12)">
     <defs>
      <path id="TimesNewRomanPSMT-71" d="M 2734 2947 
L 2734 -734 
Q 2734 -1009 2771 -1087 
Q 2809 -1166 2889 -1209 
Q 2969 -1253 3200 -1253 
L 3200 -1369 
L 1756 -1369 
L 1756 -1253 
L 1816 -1253 
Q 1991 -1253 2081 -1203 
Q 2144 -1169 2181 -1080 
Q 2219 -991 2219 -734 
L 2219 497 
Q 1934 159 1721 35 
Q 1509 -88 1281 -88 
Q 866 -88 539 290 
Q 213 669 213 1303 
Q 213 2031 644 2489 
Q 1075 2947 1684 2947 
Q 1863 2947 2013 2897 
Q 2163 2847 2281 2747 
Q 2463 2834 2628 2947 
L 2734 2947 
z
M 2219 694 
L 2219 2038 
Q 2219 2272 2158 2406 
Q 2097 2541 1940 2634 
Q 1784 2728 1588 2728 
Q 1238 2728 988 2431 
Q 738 2134 738 1531 
Q 738 953 992 653 
Q 1247 353 1606 353 
Q 1791 353 1934 433 
Q 2078 513 2219 694 
z
" transform="scale(0.015625)"/>
      <path id="TimesNewRomanPSMT-39" d="M 338 -88 
L 338 28 
Q 744 34 1094 217 
Q 1444 400 1770 856 
Q 2097 1313 2225 1859 
Q 1734 1544 1338 1544 
Q 891 1544 572 1889 
Q 253 2234 253 2806 
Q 253 3363 572 3797 
Q 956 4325 1575 4325 
Q 2097 4325 2469 3894 
Q 2925 3359 2925 2575 
Q 2925 1869 2578 1258 
Q 2231 647 1613 244 
Q 1109 -88 516 -88 
L 338 -88 
z
M 2275 2091 
Q 2331 2497 2331 2741 
Q 2331 3044 2228 3395 
Q 2125 3747 1936 3934 
Q 1747 4122 1506 4122 
Q 1228 4122 1018 3872 
Q 809 3622 809 3128 
Q 809 2469 1088 2097 
Q 1291 1828 1588 1828 
Q 1731 1828 1928 1897 
Q 2125 1966 2275 2091 
z
" transform="scale(0.015625)"/>
     </defs>
     <use xlink:href="#TimesNewRomanPSMT-71"/>
     <use xlink:href="#TimesNewRomanPSMT-5f" x="50"/>
     <use xlink:href="#TimesNewRomanPSMT-61" x="100"/>
     <use xlink:href="#TimesNewRomanPSMT-62" x="144.384766"/>
     <use xlink:href="#TimesNewRomanPSMT-73" x="194.384766"/>
     <use xlink:href="#TimesNewRomanPSMT-3d" x="233.300781"/>
     <use xlink:href="#TimesNewRomanPSMT-30" x="289.697266"/>
     <use xlink:href="#TimesNewRomanPSMT-2e" x="339.697266"/>
     <use xlink:href="#TimesNewRomanPSMT-39" x="364.697266"/>
     <use xlink:href="#TimesNewRomanPSMT-30" x="414.697266"/>
     <use xlink:href="#TimesNewRomanPSMT-2c" x="464.697266"/>
     <use xlink:href="#TimesNewRomanPSMT-20" x="489.697266"/>
     <use xlink:href="#TimesNewRomanPSMT-73" x="514.697266"/>
     <use xlink:href="#TimesNewRomanPSMT-74" x="553.613281"/>
     <use xlink:href="#TimesNewRomanPSMT-65" x="581.396484"/>
     <use xlink:href="#TimesNewRomanPSMT-70" x="625.78125"/>
     <use xlink:href="#TimesNewRomanPSMT-3d" x="675.78125"/>
     <use xlink:href="#TimesNewRomanPSMT-31" x="732.177734"/>
     <use xlink:href="#TimesNewRomanPSMT-30" x="782.177734"/>
     <use xlink:href="#TimesNewRomanPSMT-2c" x="832.177734"/>
     <use xlink:href="#TimesNewRomanPSMT-20" x="857.177734"/>
     <use xlink:href="#TimesNewRomanPSMT-74" x="882.177734"/>
     <use xlink:href="#TimesNewRomanPSMT-73" x="909.960938"/>
     <use xlink:href="#TimesNewRomanPSMT-74" x="948.876953"/>
     <use xlink:href="#TimesNewRomanPSMT-61" x="976.660156"/>
     <use xlink:href="#TimesNewRomanPSMT-72" x="1021.044922"/>
     <use xlink:href="#TimesNewRomanPSMT-74" x="1054.345703"/>
     <use xlink:href="#TimesNewRomanPSMT-3d" x="1082.128906"/>
     <use xlink:href="#TimesNewRomanPSMT-30" x="1138.525391"/>
    </g>
   </g>
   <g id="PathCollection_1">
    <defs>
     <path id="md8056aae14" d="M 0 -3.708099 
L -0.83252 -1.145866 
L -3.526612 -1.145866 
L -1.347046 0.437682 
L -2.179566 2.999915 
L -0 1.416368 
L 2.179566 2.999915 
L 1.347046 0.437682 
L 3.526612 -1.145866 
L 0.83252 -1.145866 
z
" style="stroke: #1f77b4"/>
    </defs>
    <g clip-path="url(#pe1e6f002be)">
     <use xlink:href="#md8056aae14" x="34.13178" y="243.643845" style="fill: #1f77b4; stroke: #1f77b4"/>
    </g>
   </g>
   <g id="PathCollection_2">
    <defs>
     <path id="mf9b8aee8e5" d="M 0 -3.708099 
L -0.83252 -1.145866 
L -3.526612 -1.145866 
L -1.347046 0.437682 
L -2.179566 2.999915 
L -0 1.416368 
L 2.179566 2.999915 
L 1.347046 0.437682 
L 3.526612 -1.145866 
L 0.83252 -1.145866 
z
" style="stroke: #ff7f0e"/>
    </defs>
    <g clip-path="url(#pe1e6f002be)">
     <use xlink:href="#mf9b8aee8e5" x="34.221998" y="213.57917" style="fill: #ff7f0e; stroke: #ff7f0e"/>
    </g>
   </g>
   <g id="PathCollection_3">
    <defs>
     <path id="m52b7aecabd" d="M 0 -3.708099 
L -0.83252 -1.145866 
L -3.526612 -1.145866 
L -1.347046 0.437682 
L -2.179566 2.999915 
L -0 1.416368 
L 2.179566 2.999915 
L 1.347046 0.437682 
L 3.526612 -1.145866 
L 0.83252 -1.145866 
z
" style="stroke: #2ca02c"/>
    </defs>
    <g clip-path="url(#pe1e6f002be)">
     <use xlink:href="#m52b7aecabd" x="34.221998" y="116.753231" style="fill: #2ca02c; stroke: #2ca02c"/>
    </g>
   </g>
   <g id="legend_1">
    <g id="patch_7">
     <path d="M 367.83952 74.120875 
L 479.43952 74.120875 
Q 481.03952 74.120875 481.03952 72.520875 
L 481.03952 33.960875 
Q 481.03952 32.360875 479.43952 32.360875 
L 367.83952 32.360875 
Q 366.23952 32.360875 366.23952 33.960875 
L 366.23952 72.520875 
Q 366.23952 74.120875 367.83952 74.120875 
z
" style="fill: #ffffff; opacity: 0.8; stroke: #cccccc; stroke-linejoin: miter"/>
    </g>
    <g id="line2d_25">
     <path d="M 369.43952 40.169625 
L 385.43952 40.169625 
" style="fill: none; stroke-dasharray: 5.92,2.56; stroke-dashoffset: 0; stroke: #1f77b4; stroke-width: 1.6"/>
    </g>
    <g id="text_15">
     <!-- $\overline{f_C}$ -->
     <g transform="translate(391.83952 42.969625)scale(0.08 -0.08)">
      <defs>
       <path id="STIXGeneral-Italic-66" d="M 262 2739 
L 858 2739 
Q 1107 3546 1318 3846 
Q 1664 4339 2163 4339 
Q 2400 4339 2557 4227 
Q 2714 4115 2714 3942 
Q 2714 3834 2634 3750 
Q 2554 3667 2445 3667 
Q 2355 3667 2281 3737 
Q 2208 3808 2208 3917 
Q 2208 3981 2240 4038 
Q 2272 4096 2272 4115 
Q 2272 4198 2131 4198 
Q 1862 4198 1676 3849 
Q 1491 3501 1350 2739 
L 2035 2739 
L 1997 2534 
L 1306 2534 
L 845 486 
Q 435 -1325 -435 -1325 
Q -653 -1325 -797 -1213 
Q -941 -1101 -941 -934 
Q -941 -826 -870 -746 
Q -800 -666 -698 -666 
Q -589 -666 -521 -733 
Q -454 -800 -454 -902 
Q -454 -947 -483 -1001 
Q -512 -1056 -512 -1088 
Q -512 -1190 -384 -1190 
Q 13 -1190 237 -154 
L 800 2534 
L 218 2534 
L 262 2739 
z
" transform="scale(0.015625)"/>
       <path id="STIXGeneral-Italic-43" d="M 4410 4250 
L 4173 2970 
L 4058 2989 
Q 3942 4032 3104 4032 
Q 2406 4032 1830 3411 
Q 1491 3053 1315 2541 
Q 1139 2029 1139 1485 
Q 1139 173 2259 173 
Q 2656 173 2985 339 
Q 3315 506 3725 934 
L 3840 838 
Q 3411 333 2998 109 
Q 2586 -115 2093 -115 
Q 1344 -115 883 329 
Q 422 774 422 1555 
Q 422 2214 748 2812 
Q 1075 3411 1619 3795 
Q 2272 4262 3021 4262 
Q 3462 4262 3770 4154 
Q 3898 4109 4032 4109 
Q 4205 4109 4275 4250 
L 4410 4250 
z
" transform="scale(0.015625)"/>
      </defs>
      <use xlink:href="#STIXGeneral-Italic-66" transform="translate(0 0.953125)"/>
      <use xlink:href="#STIXGeneral-Italic-43" transform="translate(27.799988 -12.275)scale(0.7)"/>
      <path d="M 0 80.5 
L 0 86.75 
L 78.899361 86.75 
L 78.899361 80.5 
L 0 80.5 
z
"/>
     </g>
    </g>
    <g id="line2d_26">
     <path d="M 369.43952 53.289625 
L 385.43952 53.289625 
" style="fill: none; stroke-dasharray: 5.92,2.56; stroke-dashoffset: 0; stroke: #ff7f0e; stroke-width: 1.6"/>
    </g>
    <g id="text_16">
     <!-- $\overline{f_D}$ -->
     <g transform="translate(391.83952 56.089625)scale(0.08 -0.08)">
      <defs>
       <path id="STIXGeneral-Italic-44" d="M 838 4179 
L 2611 4179 
Q 3469 4179 3974 3731 
Q 4480 3283 4480 2458 
Q 4480 1325 3456 531 
Q 2778 0 1594 0 
L -51 0 
L -51 102 
Q 224 154 310 230 
Q 397 307 474 589 
L 1254 3437 
Q 1325 3686 1325 3814 
Q 1325 3949 1222 4009 
Q 1120 4070 838 4077 
L 838 4179 
z
M 1984 3738 
L 1229 1037 
Q 1088 525 1088 429 
Q 1088 192 1523 192 
Q 2470 192 3066 768 
Q 3398 1088 3584 1597 
Q 3770 2106 3770 2611 
Q 3770 3386 3270 3763 
Q 2970 3987 2432 3987 
Q 2227 3987 2128 3939 
Q 2029 3891 1984 3738 
z
" transform="scale(0.015625)"/>
      </defs>
      <use xlink:href="#STIXGeneral-Italic-66" transform="translate(0 0.953125)"/>
      <use xlink:href="#STIXGeneral-Italic-44" transform="translate(27.799988 -12.275)scale(0.7)"/>
      <path d="M 0 80.5 
L 0 86.75 
L 82.74935 86.75 
L 82.74935 80.5 
L 0 80.5 
z
"/>
     </g>
    </g>
    <g id="line2d_27">
     <path d="M 369.43952 66.409625 
L 385.43952 66.409625 
" style="fill: none; stroke-dasharray: 5.92,2.56; stroke-dashoffset: 0; stroke: #2ca02c; stroke-width: 1.6"/>
    </g>
    <g id="text_17">
     <!-- $\overline{f_L}$ -->
     <g transform="translate(391.83952 69.209625)scale(0.08 -0.08)">
      <defs>
       <path id="STIXGeneral-Italic-4c" d="M 3578 1152 
L 3206 0 
L -51 0 
L -51 102 
Q 218 128 301 211 
Q 384 294 474 602 
L 1254 3405 
Q 1325 3642 1325 3802 
Q 1325 3942 1225 4000 
Q 1126 4058 832 4077 
L 832 4179 
L 2579 4179 
L 2579 4077 
Q 2285 4058 2147 3955 
Q 2010 3853 1933 3584 
L 1165 838 
Q 1101 595 1101 493 
Q 1101 346 1241 288 
Q 1382 230 1773 230 
Q 2266 230 2480 275 
Q 2694 320 2925 474 
Q 3187 646 3450 1190 
L 3578 1152 
z
" transform="scale(0.015625)"/>
      </defs>
      <use xlink:href="#STIXGeneral-Italic-66" transform="translate(0 0.953125)"/>
      <use xlink:href="#STIXGeneral-Italic-4c" transform="translate(27.799988 -12.275)scale(0.7)"/>
      <path d="M 0 80.5 
L 0 86.75 
L 71.129356 86.75 
L 71.129356 80.5 
L 0 80.5 
z
"/>
     </g>
    </g>
    <g id="line2d_28">
     <path d="M 414.47952 40.169625 
L 422.47952 40.169625 
L 430.47952 40.169625 
" style="fill: none; stroke: #1f77b4; stroke-width: 2; stroke-linecap: square"/>
    </g>
    <g id="text_18">
     <!-- $f_C$ (top |dev|) -->
     <g transform="translate(436.87952 42.969625)scale(0.08 -0.08)">
      <use xlink:href="#STIXGeneral-Italic-66" transform="translate(0 0.5625)"/>
      <use xlink:href="#STIXGeneral-Italic-43" transform="translate(27.799988 -12.665625)scale(0.7)"/>
      <use xlink:href="#TimesNewRomanPSMT-20" transform="translate(78.899361 0.5625)"/>
      <use xlink:href="#TimesNewRomanPSMT-28" transform="translate(103.899361 0.5625)"/>
      <use xlink:href="#TimesNewRomanPSMT-74" transform="translate(137.200142 0.5625)"/>
      <use xlink:href="#TimesNewRomanPSMT-6f" transform="translate(164.983345 0.5625)"/>
      <use xlink:href="#TimesNewRomanPSMT-70" transform="translate(214.983345 0.5625)"/>
      <use xlink:href="#TimesNewRomanPSMT-20" transform="translate(264.983345 0.5625)"/>
      <use xlink:href="#TimesNewRomanPSMT-7c" transform="translate(289.983345 0.5625)"/>
      <use xlink:href="#TimesNewRomanPSMT-64" transform="translate(310.002876 0.5625)"/>
      <use xlink:href="#TimesNewRomanPSMT-65" transform="translate(360.002876 0.5625)"/>
      <use xlink:href="#TimesNewRomanPSMT-76" transform="translate(404.387642 0.5625)"/>
      <use xlink:href="#TimesNewRomanPSMT-7c" transform="translate(454.387642 0.5625)"/>
      <use xlink:href="#TimesNewRomanPSMT-29" transform="translate(474.407173 0.5625)"/>
     </g>
    </g>
    <g id="line2d_29">
     <path d="M 414.47952 51.529625 
L 422.47952 51.529625 
L 430.47952 51.529625 
" style="fill: none; stroke: #ff7f0e; stroke-width: 2; stroke-linecap: square"/>
    </g>
    <g id="text_19">
     <!-- $f_D$ (top |dev|) -->
     <g transform="translate(436.87952 54.329625)scale(0.08 -0.08)">
      <use xlink:href="#STIXGeneral-Italic-66" transform="translate(0 0.5625)"/>
      <use xlink:href="#STIXGeneral-Italic-44" transform="translate(27.799988 -12.665625)scale(0.7)"/>
      <use xlink:href="#TimesNewRomanPSMT-20" transform="translate(82.74935 0.5625)"/>
      <use xlink:href="#TimesNewRomanPSMT-28" transform="translate(107.74935 0.5625)"/>
      <use xlink:href="#TimesNewRomanPSMT-74" transform="translate(141.050131 0.5625)"/>
      <use xlink:href="#TimesNewRomanPSMT-6f" transform="translate(168.833334 0.5625)"/>
      <use xlink:href="#TimesNewRomanPSMT-70" transform="translate(218.833334 0.5625)"/>
      <use xlink:href="#TimesNewRomanPSMT-20" transform="translate(268.833334 0.5625)"/>
      <use xlink:href="#TimesNewRomanPSMT-7c" transform="translate(293.833334 0.5625)"/>
      <use xlink:href="#TimesNewRomanPSMT-64" transform="translate(313.852866 0.5625)"/>
      <use xlink:href="#TimesNewRomanPSMT-65" transform="translate(363.852866 0.5625)"/>
      <use xlink:href="#TimesNewRomanPSMT-76" transform="translate(408.237631 0.5625)"/>
      <use xlink:href="#TimesNewRomanPSMT-7c" transform="translate(458.237631 0.5625)"/>
      <use xlink:href="#TimesNewRomanPSMT-29" transform="translate(478.257162 0.5625)"/>
     </g>
    </g>
    <g id="line2d_30">
     <path d="M 414.47952 62.889625 
L 422.47952 62.889625 
L 430.47952 62.889625 
" style="fill: none; stroke: #2ca02c; stroke-width: 2; stroke-linecap: square"/>
    </g>
    <g id="text_20">
     <!-- $f_L$ (top |dev|) -->
     <g transform="translate(436.87952 65.689625)scale(0.08 -0.08)">
      <use xlink:href="#STIXGeneral-Italic-66" transform="translate(0 0.5625)"/>
      <use xlink:href="#STIXGeneral-Italic-4c" transform="translate(27.799988 -12.665625)scale(0.7)"/>
      <use xlink:href="#TimesNewRomanPSMT-20" transform="translate(71.129356 0.5625)"/>
      <use xlink:href="#TimesNewRomanPSMT-28" transform="translate(96.129356 0.5625)"/>
      <use xlink:href="#TimesNewRomanPSMT-74" transform="translate(129.430138 0.5625)"/>
      <use xlink:href="#TimesNewRomanPSMT-6f" transform="translate(157.213341 0.5625)"/>
      <use xlink:href="#TimesNewRomanPSMT-70" transform="translate(207.213341 0.5625)"/>
      <use xlink:href="#TimesNewRomanPSMT-20" transform="translate(257.213341 0.5625)"/>
      <use xlink:href="#TimesNewRomanPSMT-7c" transform="translate(282.213341 0.5625)"/>
      <use xlink:href="#TimesNewRomanPSMT-64" transform="translate(302.232872 0.5625)"/>
      <use xlink:href="#TimesNewRomanPSMT-65" transform="translate(352.232872 0.5625)"/>
      <use xlink:href="#TimesNewRomanPSMT-76" transform="translate(396.617638 0.5625)"/>
      <use xlink:href="#TimesNewRomanPSMT-7c" transform="translate(446.617638 0.5625)"/>
      <use xlink:href="#TimesNewRomanPSMT-29" transform="translate(466.637169 0.5625)"/>
     </g>
    </g>
   </g>
  </g>
 </g>
 <defs>
  <clipPath id="pe1e6f002be">
   <rect x="34.041563" y="28.360875" width="450.997957" height="261.89427"/>
  </clipPath>
 </defs>
</svg>
