<?xml version="1.0" encoding="utf-8" standalone="no"?>
<!DOCTYPE svg PUBLIC "-//W3C//DTD SVG 1.1//EN"
  "http://www.w3.org/Graphics/SVG/1.1/DTD/svg11.dtd">
<svg xmlns:xlink="http://www.w3.org/1999/xlink" width="576pt" height="504pt" viewBox="0 0 576 504" xmlns="http://www.w3.org/2000/svg" version="1.1">
 <metadata>
  <rdf:RDF xmlns:dc="http://purl.org/dc/elements/1.1/" xmlns:cc="http://creativecommons.org/ns#" xmlns:rdf="http://www.w3.org/1999/02/22-rdf-syntax-ns#">
   <cc:Work>
    <dc:type rdf:resource="http://purl.org/dc/dcmitype/StillImage"/>
    <dc:date>2025-09-26T16:07:38.629631</dc:date>
    <dc:format>image/svg+xml</dc:format>
    <dc:creator>
     <cc:Agent>
      <dc:title>Matplotlib v3.5.1, https://matplotlib.org/</dc:title>
     </cc:Agent>
    </dc:creator>
   </cc:Work>
  </rdf:RDF>
 </metadata>
 <defs>
  <style type="text/css">*{stroke-linejoin: round; stroke-linecap: butt}</style>
 </defs>
 <g id="figure_1">
  <g id="patch_1">
   <path d="M 0 504 
L 576 504 
L 576 0 
L 0 0 
z
" style="fill: #ffffff"/>
  </g>
  <g id="axes_1">
   <g id="patch_2">
    <path d="M 71.048 148.586129 
L 565.2 148.586129 
L 565.2 10.8 
L 71.048 10.8 
z
" style="fill: #ffffff"/>
   </g>
   <g id="PolyCollection_1">
    <defs>
     <path id="md553b75f4c" d="M 93.509455 -382.127971 
L 93.509455 -382.127971 
L 104.740182 -381.841965 
L 115.970909 -388.572145 
L 127.201636 -389.858306 
L 138.432364 -394.334955 
L 149.663091 -400.211649 
L 160.893818 -405.91083 
L 172.124545 -402.134095 
L 183.355273 -399.397634 
L 194.586 -396.552897 
L 205.816727 -384.897001 
L 217.047455 -383.298952 
L 228.278182 -376.190021 
L 239.508909 -393.274838 
L 250.739636 -406.202874 
L 261.970364 -418.490958 
L 273.201091 -428.742927 
L 284.431818 -441.261584 
L 295.662545 -448.809229 
L 306.893273 -462.822188 
L 318.124 -388.995545 
L 329.354727 -380.875673 
L 340.585455 -373.876744 
L 351.816182 -369.788552 
L 363.046909 -362.386498 
L 374.277636 -361.676877 
L 385.508364 -365.752127 
L 396.739091 -385.690741 
L 407.969818 -389.322531 
L 419.200545 -395.507878 
L 430.431273 -394.481193 
L 441.662 -392.013913 
L 452.892727 -391.70828 
L 464.123455 -393.671061 
L 475.354182 -397.240733 
L 486.584909 -396.845157 
L 497.815636 -400.642598 
L 509.046364 -396.949767 
L 520.277091 -398.611875 
L 531.507818 -395.03034 
L 542.738545 -391.730281 
L 542.738545 -391.730281 
L 542.738545 -422.240085 
L 531.507818 -424.242121 
L 520.277091 -426.604575 
L 509.046364 -423.774289 
L 497.815636 -428.106641 
L 486.584909 -424.226591 
L 475.354182 -425.750873 
L 464.123455 -423.109316 
L 452.892727 -421.38401 
L 441.662 -421.153438 
L 430.431273 -422.810369 
L 419.200545 -425.353572 
L 407.969818 -419.857571 
L 396.739091 -415.569867 
L 385.508364 -394.539861 
L 374.277636 -392.429548 
L 363.046909 -392.413156 
L 351.816182 -399.271887 
L 340.585455 -400.289513 
L 329.354727 -407.717882 
L 318.124 -414.991817 
L 306.893273 -486.936994 
L 295.662545 -473.486987 
L 284.431818 -465.730338 
L 273.201091 -452.555336 
L 261.970364 -443.470682 
L 250.739636 -432.998063 
L 239.508909 -419.807962 
L 228.278182 -404.828712 
L 217.047455 -413.57085 
L 205.816727 -417.881418 
L 194.586 -428.580081 
L 183.355273 -431.185187 
L 172.124545 -432.341933 
L 160.893818 -434.379342 
L 149.663091 -427.856656 
L 138.432364 -419.831041 
L 127.201636 -417.278133 
L 115.970909 -417.381017 
L 104.740182 -412.497576 
L 93.509455 -414.304197 
z
"/>
    </defs>
    <g clip-path="url(#pb0940a0372)">
     <use xlink:href="#md553b75f4c" x="0" y="504" style="fill: #1f77b4; fill-opacity: 0.18"/>
    </g>
   </g>
   <g id="matplotlib.axis_1">
    <g id="xtick_1">
     <g id="line2d_1">
      <defs>
       <path id="m48a6da7365" d="M 0 0 
L 0 3.5 
" style="stroke: #000000; stroke-width: 0.8"/>
      </defs>
      <g>
       <use xlink:href="#m48a6da7365" x="93.509455" y="148.586129" style="stroke: #000000; stroke-width: 0.8"/>
      </g>
     </g>
    </g>
    <g id="xtick_2">
     <g id="line2d_2">
      <g>
       <use xlink:href="#m48a6da7365" x="149.663091" y="148.586129" style="stroke: #000000; stroke-width: 0.8"/>
      </g>
     </g>
    </g>
    <g id="xtick_3">
     <g id="line2d_3">
      <g>
       <use xlink:href="#m48a6da7365" x="205.816727" y="148.586129" style="stroke: #000000; stroke-width: 0.8"/>
      </g>
     </g>
    </g>
    <g id="xtick_4">
     <g id="line2d_4">
      <g>
       <use xlink:href="#m48a6da7365" x="261.970364" y="148.586129" style="stroke: #000000; stroke-width: 0.8"/>
      </g>
     </g>
    </g>
    <g id="xtick_5">
     <g id="line2d_5">
      <g>
       <use xlink:href="#m48a6da7365" x="318.124" y="148.586129" style="stroke: #000000; stroke-width: 0.8"/>
      </g>
     </g>
    </g>
    <g id="xtick_6">
     <g id="line2d_6">
      <g>
       <use xlink:href="#m48a6da7365" x="374.277636" y="148.586129" style="stroke: #000000; stroke-width: 0.8"/>
      </g>
     </g>
    </g>
    <g id="xtick_7">
     <g id="line2d_7">
      <g>
       <use xlink:href="#m48a6da7365" x="430.431273" y="148.586129" style="stroke: #000000; stroke-width: 0.8"/>
      </g>
     </g>
    </g>
    <g id="xtick_8">
     <g id="line2d_8">
      <g>
       <use xlink:href="#m48a6da7365" x="486.584909" y="148.586129" style="stroke: #000000; stroke-width: 0.8"/>
      </g>
     </g>
    </g>
    <g id="xtick_9">
     <g id="line2d_9">
      <g>
       <use xlink:href="#m48a6da7365" x="542.738545" y="148.586129" style="stroke: #000000; stroke-width: 0.8"/>
      </g>
     </g>
    </g>
   </g>
   <g id="matplotlib.axis_2">
    <g id="ytick_1">
     <g id="line2d_10">
      <defs>
       <path id="m5326aa4614" d="M 0 0 
L -3.5 0 
" style="stroke: #000000; stroke-width: 0.8"/>
      </defs>
      <g>
       <use xlink:href="#m5326aa4614" x="71.048" y="147.400901" style="stroke: #000000; stroke-width: 0.8"/>
      </g>
     </g>
     <g id="text_1">
      <!-- 0.27 -->
      <g transform="translate(41.782375 151.200119)scale(0.1 -0.1)">
       <defs>
        <path id="DejaVuSans-30" d="M 2034 4250 
Q 1547 4250 1301 3770 
Q 1056 3291 1056 2328 
Q 1056 1369 1301 889 
Q 1547 409 2034 409 
Q 2525 409 2770 889 
Q 3016 1369 3016 2328 
Q 3016 3291 2770 3770 
Q 2525 4250 2034 4250 
z
M 2034 4750 
Q 2819 4750 3233 4129 
Q 3647 3509 3647 2328 
Q 3647 1150 3233 529 
Q 2819 -91 2034 -91 
Q 1250 -91 836 529 
Q 422 1150 422 2328 
Q 422 3509 836 4129 
Q 1250 4750 2034 4750 
z
" transform="scale(0.015625)"/>
        <path id="DejaVuSans-2e" d="M 684 794 
L 1344 794 
L 1344 0 
L 684 0 
L 684 794 
z
" transform="scale(0.015625)"/>
        <path id="DejaVuSans-32" d="M 1228 531 
L 3431 531 
L 3431 0 
L 469 0 
L 469 531 
Q 828 903 1448 1529 
Q 2069 2156 2228 2338 
Q 2531 2678 2651 2914 
Q 2772 3150 2772 3378 
Q 2772 3750 2511 3984 
Q 2250 4219 1831 4219 
Q 1534 4219 1204 4116 
Q 875 4013 500 3803 
L 500 4441 
Q 881 4594 1212 4672 
Q 1544 4750 1819 4750 
Q 2544 4750 2975 4387 
Q 3406 4025 3406 3419 
Q 3406 3131 3298 2873 
Q 3191 2616 2906 2266 
Q 2828 2175 2409 1742 
Q 1991 1309 1228 531 
z
" transform="scale(0.015625)"/>
        <path id="DejaVuSans-37" d="M 525 4666 
L 3525 4666 
L 3525 4397 
L 1831 0 
L 1172 0 
L 2766 4134 
L 525 4134 
L 525 4666 
z
" transform="scale(0.015625)"/>
       </defs>
       <use xlink:href="#DejaVuSans-30"/>
       <use xlink:href="#DejaVuSans-2e" x="63.623047"/>
       <use xlink:href="#DejaVuSans-32" x="95.410156"/>
       <use xlink:href="#DejaVuSans-37" x="159.033203"/>
      </g>
     </g>
    </g>
    <g id="ytick_2">
     <g id="line2d_11">
      <g>
       <use xlink:href="#m5326aa4614" x="71.048" y="103.831489" style="stroke: #000000; stroke-width: 0.8"/>
      </g>
     </g>
     <g id="text_2">
      <!-- 0.28 -->
      <g transform="translate(41.782375 107.630708)scale(0.1 -0.1)">
       <defs>
        <path id="DejaVuSans-38" d="M 2034 2216 
Q 1584 2216 1326 1975 
Q 1069 1734 1069 1313 
Q 1069 891 1326 650 
Q 1584 409 2034 409 
Q 2484 409 2743 651 
Q 3003 894 3003 1313 
Q 3003 1734 2745 1975 
Q 2488 2216 2034 2216 
z
M 1403 2484 
Q 997 2584 770 2862 
Q 544 3141 544 3541 
Q 544 4100 942 4425 
Q 1341 4750 2034 4750 
Q 2731 4750 3128 4425 
Q 3525 4100 3525 3541 
Q 3525 3141 3298 2862 
Q 3072 2584 2669 2484 
Q 3125 2378 3379 2068 
Q 3634 1759 3634 1313 
Q 3634 634 3220 271 
Q 2806 -91 2034 -91 
Q 1263 -91 848 271 
Q 434 634 434 1313 
Q 434 1759 690 2068 
Q 947 2378 1403 2484 
z
M 1172 3481 
Q 1172 3119 1398 2916 
Q 1625 2713 2034 2713 
Q 2441 2713 2670 2916 
Q 2900 3119 2900 3481 
Q 2900 3844 2670 4047 
Q 2441 4250 2034 4250 
Q 1625 4250 1398 4047 
Q 1172 3844 1172 3481 
z
" transform="scale(0.015625)"/>
       </defs>
       <use xlink:href="#DejaVuSans-30"/>
       <use xlink:href="#DejaVuSans-2e" x="63.623047"/>
       <use xlink:href="#DejaVuSans-32" x="95.410156"/>
       <use xlink:href="#DejaVuSans-38" x="159.033203"/>
      </g>
     </g>
    </g>
    <g id="ytick_3">
     <g id="line2d_12">
      <g>
       <use xlink:href="#m5326aa4614" x="71.048" y="60.262077" style="stroke: #000000; stroke-width: 0.8"/>
      </g>
     </g>
     <g id="text_3">
      <!-- 0.29 -->
      <g transform="translate(41.782375 64.061296)scale(0.1 -0.1)">
       <defs>
        <path id="DejaVuSans-39" d="M 703 97 
L 703 672 
Q 941 559 1184 500 
Q 1428 441 1663 441 
Q 2288 441 2617 861 
Q 2947 1281 2994 2138 
Q 2813 1869 2534 1725 
Q 2256 1581 1919 1581 
Q 1219 1581 811 2004 
Q 403 2428 403 3163 
Q 403 3881 828 4315 
Q 1253 4750 1959 4750 
Q 2769 4750 3195 4129 
Q 3622 3509 3622 2328 
Q 3622 1225 3098 567 
Q 2575 -91 1691 -91 
Q 1453 -91 1209 -44 
Q 966 3 703 97 
z
M 1959 2075 
Q 2384 2075 2632 2365 
Q 2881 2656 2881 3163 
Q 2881 3666 2632 3958 
Q 2384 4250 1959 4250 
Q 1534 4250 1286 3958 
Q 1038 3666 1038 3163 
Q 1038 2656 1286 2365 
Q 1534 2075 1959 2075 
z
" transform="scale(0.015625)"/>
       </defs>
       <use xlink:href="#DejaVuSans-30"/>
       <use xlink:href="#DejaVuSans-2e" x="63.623047"/>
       <use xlink:href="#DejaVuSans-32" x="95.410156"/>
       <use xlink:href="#DejaVuSans-39" x="159.033203"/>
      </g>
     </g>
    </g>
    <g id="ytick_4">
     <g id="line2d_13">
      <g>
       <use xlink:href="#m5326aa4614" x="71.048" y="16.692666" style="stroke: #000000; stroke-width: 0.8"/>
      </g>
     </g>
     <g id="text_4">
      <!-- 0.30 -->
      <g transform="translate(41.782375 20.491885)scale(0.1 -0.1)">
       <defs>
        <path id="DejaVuSans-33" d="M 2597 2516 
Q 3050 2419 3304 2112 
Q 3559 1806 3559 1356 
Q 3559 666 3084 287 
Q 2609 -91 1734 -91 
Q 1441 -91 1130 -33 
Q 819 25 488 141 
L 488 750 
Q 750 597 1062 519 
Q 1375 441 1716 441 
Q 2309 441 2620 675 
Q 2931 909 2931 1356 
Q 2931 1769 2642 2001 
Q 2353 2234 1838 2234 
L 1294 2234 
L 1294 2753 
L 1863 2753 
Q 2328 2753 2575 2939 
Q 2822 3125 2822 3475 
Q 2822 3834 2567 4026 
Q 2313 4219 1838 4219 
Q 1578 4219 1281 4162 
Q 984 4106 628 3988 
L 628 4550 
Q 988 4650 1302 4700 
Q 1616 4750 1894 4750 
Q 2613 4750 3031 4423 
Q 3450 4097 3450 3541 
Q 3450 3153 3228 2886 
Q 3006 2619 2597 2516 
z
" transform="scale(0.015625)"/>
       </defs>
       <use xlink:href="#DejaVuSans-30"/>
       <use xlink:href="#DejaVuSans-2e" x="63.623047"/>
       <use xlink:href="#DejaVuSans-33" x="95.410156"/>
       <use xlink:href="#DejaVuSans-30" x="159.033203"/>
      </g>
     </g>
    </g>
    <g id="text_5">
     <!-- $f_C$ -->
     <g transform="translate(35.702688 84.043064)rotate(-90)scale(0.1 -0.1)">
      <defs>
       <path id="DejaVuSans-Oblique-66" d="M 3059 4863 
L 2969 4384 
L 2419 4384 
Q 2106 4384 1964 4261 
Q 1822 4138 1753 3809 
L 1691 3500 
L 2638 3500 
L 2553 3053 
L 1606 3053 
L 1013 0 
L 434 0 
L 1031 3053 
L 481 3053 
L 563 3500 
L 1113 3500 
L 1159 3744 
Q 1278 4363 1576 4613 
Q 1875 4863 2516 4863 
L 3059 4863 
z
" transform="scale(0.015625)"/>
       <path id="DejaVuSans-Oblique-43" d="M 4447 4306 
L 4319 3641 
Q 4019 3944 3683 4091 
Q 3347 4238 2956 4238 
Q 2422 4238 2017 3981 
Q 1613 3725 1319 3200 
Q 1131 2863 1032 2486 
Q 934 2109 934 1728 
Q 934 1091 1264 756 
Q 1594 422 2222 422 
Q 2656 422 3056 561 
Q 3456 700 3834 978 
L 3688 231 
Q 3316 72 2936 -9 
Q 2556 -91 2175 -91 
Q 1278 -91 773 396 
Q 269 884 269 1753 
Q 269 2309 461 2846 
Q 653 3384 1013 3828 
Q 1394 4300 1883 4525 
Q 2372 4750 3022 4750 
Q 3422 4750 3780 4639 
Q 4138 4528 4447 4306 
z
" transform="scale(0.015625)"/>
      </defs>
      <use xlink:href="#DejaVuSans-Oblique-66" transform="translate(0 0.015625)"/>
      <use xlink:href="#DejaVuSans-Oblique-43" transform="translate(35.205078 -16.390625)scale(0.7)"/>
     </g>
    </g>
   </g>
   <g id="line2d_14">
    <path d="M 93.509455 105.669169 
L 104.740182 106.428399 
L 115.970909 100.915358 
L 127.201636 100.173384 
L 138.432364 97.119211 
L 149.663091 90.303402 
L 160.893818 83.962112 
L 172.124545 86.809222 
L 183.355273 88.836709 
L 194.586 91.50264 
L 205.816727 102.899708 
L 217.047455 106.031529 
L 228.278182 114.141479 
L 239.508909 98.154524 
L 250.739636 84.807617 
L 261.970364 73.074073 
L 273.201091 63.428409 
L 284.431818 50.711317 
L 295.662545 43.032748 
L 306.893273 29.168185 
L 318.124 101.363994 
L 329.354727 109.499826 
L 340.585455 116.798781 
L 351.816182 119.430201 
L 363.046909 126.263265 
L 374.277636 126.970729 
L 385.508364 123.916556 
L 396.739091 103.32246 
L 407.969818 99.61259 
L 419.200545 93.788955 
L 430.431273 95.514477 
L 441.662 97.274508 
L 452.892727 96.869011 
L 464.123455 95.152117 
L 475.354182 92.132455 
L 486.584909 93.435224 
L 497.815636 89.716725 
L 509.046364 93.840721 
L 520.277091 91.511267 
L 531.507818 94.082294 
L 542.738545 96.998425 
" clip-path="url(#pb0940a0372)" style="fill: none; stroke: #1f77b4; stroke-width: 2; stroke-linecap: square"/>
   </g>
   <g id="line2d_15">
    <path d="M 318.124 148.586129 
L 318.124 10.8 
" clip-path="url(#pb0940a0372)" style="fill: none; stroke-dasharray: 3.7,1.6; stroke-dashoffset: 0; stroke: #1f77b4"/>
   </g>
   <g id="line2d_16">
    <path d="M 71.048 94.503995 
L 565.2 94.503995 
" clip-path="url(#pb0940a0372)" style="fill: none; stroke-dasharray: 1,1.65; stroke-dashoffset: 0; stroke: #1f77b4; stroke-opacity: 0.55"/>
   </g>
   <g id="patch_3">
    <path d="M 71.048 148.586129 
L 71.048 10.8 
" style="fill: none; stroke: #000000; stroke-width: 0.8; stroke-linejoin: miter; stroke-linecap: square"/>
   </g>
   <g id="patch_4">
    <path d="M 565.2 148.586129 
L 565.2 10.8 
" style="fill: none; stroke: #000000; stroke-width: 0.8; stroke-linejoin: miter; stroke-linecap: square"/>
   </g>
   <g id="patch_5">
    <path d="M 71.048 148.586129 
L 565.2 148.586129 
" style="fill: none; stroke: #000000; stroke-width: 0.8; stroke-linejoin: miter; stroke-linecap: square"/>
   </g>
   <g id="patch_6">
    <path d="M 71.048 10.8 
L 565.2 10.8 
" style="fill: none; stroke: #000000; stroke-width: 0.8; stroke-linejoin: miter; stroke-linecap: square"/>
   </g>
   <g id="legend_1">
    <g id="patch_7">
     <path d="M 442.528125 33.478125 
L 558.2 33.478125 
Q 560.2 33.478125 560.2 31.478125 
L 560.2 17.8 
Q 560.2 15.8 558.2 15.8 
L 442.528125 15.8 
Q 440.528125 15.8 440.528125 17.8 
L 440.528125 31.478125 
Q 440.528125 33.478125 442.528125 33.478125 
z
" style="fill: #ffffff; opacity: 0.8; stroke: #cccccc; stroke-linejoin: miter"/>
    </g>
    <g id="line2d_17">
     <path d="M 444.528125 23.898438 
L 454.528125 23.898438 
L 464.528125 23.898438 
" style="fill: none; stroke: #1f77b4; stroke-width: 2; stroke-linecap: square"/>
    </g>
    <g id="text_6">
     <!-- C(without Loner) -->
     <g transform="translate(472.528125 27.398438)scale(0.1 -0.1)">
      <defs>
       <path id="DejaVuSans-43" d="M 4122 4306 
L 4122 3641 
Q 3803 3938 3442 4084 
Q 3081 4231 2675 4231 
Q 1875 4231 1450 3742 
Q 1025 3253 1025 2328 
Q 1025 1406 1450 917 
Q 1875 428 2675 428 
Q 3081 428 3442 575 
Q 3803 722 4122 1019 
L 4122 359 
Q 3791 134 3420 21 
Q 3050 -91 2638 -91 
Q 1578 -91 968 557 
Q 359 1206 359 2328 
Q 359 3453 968 4101 
Q 1578 4750 2638 4750 
Q 3056 4750 3426 4639 
Q 3797 4528 4122 4306 
z
" transform="scale(0.015625)"/>
       <path id="DejaVuSans-28" d="M 1984 4856 
Q 1566 4138 1362 3434 
Q 1159 2731 1159 2009 
Q 1159 1288 1364 580 
Q 1569 -128 1984 -844 
L 1484 -844 
Q 1016 -109 783 600 
Q 550 1309 550 2009 
Q 550 2706 781 3412 
Q 1013 4119 1484 4856 
L 1984 4856 
z
" transform="scale(0.015625)"/>
       <path id="DejaVuSans-77" d="M 269 3500 
L 844 3500 
L 1563 769 
L 2278 3500 
L 2956 3500 
L 3675 769 
L 4391 3500 
L 4966 3500 
L 4050 0 
L 3372 0 
L 2619 2869 
L 1863 0 
L 1184 0 
L 269 3500 
z
" transform="scale(0.015625)"/>
       <path id="DejaVuSans-69" d="M 603 3500 
L 1178 3500 
L 1178 0 
L 603 0 
L 603 3500 
z
M 603 4863 
L 1178 4863 
L 1178 4134 
L 603 4134 
L 603 4863 
z
" transform="scale(0.015625)"/>
       <path id="DejaVuSans-74" d="M 1172 4494 
L 1172 3500 
L 2356 3500 
L 2356 3053 
L 1172 3053 
L 1172 1153 
Q 1172 725 1289 603 
Q 1406 481 1766 481 
L 2356 481 
L 2356 0 
L 1766 0 
Q 1100 0 847 248 
Q 594 497 594 1153 
L 594 3053 
L 172 3053 
L 172 3500 
L 594 3500 
L 594 4494 
L 1172 4494 
z
" transform="scale(0.015625)"/>
       <path id="DejaVuSans-68" d="M 3513 2113 
L 3513 0 
L 2938 0 
L 2938 2094 
Q 2938 2591 2744 2837 
Q 2550 3084 2163 3084 
Q 1697 3084 1428 2787 
Q 1159 2491 1159 1978 
L 1159 0 
L 581 0 
L 581 4863 
L 1159 4863 
L 1159 2956 
Q 1366 3272 1645 3428 
Q 1925 3584 2291 3584 
Q 2894 3584 3203 3211 
Q 3513 2838 3513 2113 
z
" transform="scale(0.015625)"/>
       <path id="DejaVuSans-6f" d="M 1959 3097 
Q 1497 3097 1228 2736 
Q 959 2375 959 1747 
Q 959 1119 1226 758 
Q 1494 397 1959 397 
Q 2419 397 2687 759 
Q 2956 1122 2956 1747 
Q 2956 2369 2687 2733 
Q 2419 3097 1959 3097 
z
M 1959 3584 
Q 2709 3584 3137 3096 
Q 3566 2609 3566 1747 
Q 3566 888 3137 398 
Q 2709 -91 1959 -91 
Q 1206 -91 779 398 
Q 353 888 353 1747 
Q 353 2609 779 3096 
Q 1206 3584 1959 3584 
z
" transform="scale(0.015625)"/>
       <path id="DejaVuSans-75" d="M 544 1381 
L 544 3500 
L 1119 3500 
L 1119 1403 
Q 1119 906 1312 657 
Q 1506 409 1894 409 
Q 2359 409 2629 706 
Q 2900 1003 2900 1516 
L 2900 3500 
L 3475 3500 
L 3475 0 
L 2900 0 
L 2900 538 
Q 2691 219 2414 64 
Q 2138 -91 1772 -91 
Q 1169 -91 856 284 
Q 544 659 544 1381 
z
M 1991 3584 
L 1991 3584 
z
" transform="scale(0.015625)"/>
       <path id="DejaVuSans-20" transform="scale(0.015625)"/>
       <path id="DejaVuSans-4c" d="M 628 4666 
L 1259 4666 
L 1259 531 
L 3531 531 
L 3531 0 
L 628 0 
L 628 4666 
z
" transform="scale(0.015625)"/>
       <path id="DejaVuSans-6e" d="M 3513 2113 
L 3513 0 
L 2938 0 
L 2938 2094 
Q 2938 2591 2744 2837 
Q 2550 3084 2163 3084 
Q 1697 3084 1428 2787 
Q 1159 2491 1159 1978 
L 1159 0 
L 581 0 
L 581 3500 
L 1159 3500 
L 1159 2956 
Q 1366 3272 1645 3428 
Q 1925 3584 2291 3584 
Q 2894 3584 3203 3211 
Q 3513 2838 3513 2113 
z
" transform="scale(0.015625)"/>
       <path id="DejaVuSans-65" d="M 3597 1894 
L 3597 1613 
L 953 1613 
Q 991 1019 1311 708 
Q 1631 397 2203 397 
Q 2534 397 2845 478 
Q 3156 559 3463 722 
L 3463 178 
Q 3153 47 2828 -22 
Q 2503 -91 2169 -91 
Q 1331 -91 842 396 
Q 353 884 353 1716 
Q 353 2575 817 3079 
Q 1281 3584 2069 3584 
Q 2775 3584 3186 3129 
Q 3597 2675 3597 1894 
z
M 3022 2063 
Q 3016 2534 2758 2815 
Q 2500 3097 2075 3097 
Q 1594 3097 1305 2825 
Q 1016 2553 972 2059 
L 3022 2063 
z
" transform="scale(0.015625)"/>
       <path id="DejaVuSans-72" d="M 2631 2963 
Q 2534 3019 2420 3045 
Q 2306 3072 2169 3072 
Q 1681 3072 1420 2755 
Q 1159 2438 1159 1844 
L 1159 0 
L 581 0 
L 581 3500 
L 1159 3500 
L 1159 2956 
Q 1341 3275 1631 3429 
Q 1922 3584 2338 3584 
Q 2397 3584 2469 3576 
Q 2541 3569 2628 3553 
L 2631 2963 
z
" transform="scale(0.015625)"/>
       <path id="DejaVuSans-29" d="M 513 4856 
L 1013 4856 
Q 1481 4119 1714 3412 
Q 1947 2706 1947 2009 
Q 1947 1309 1714 600 
Q 1481 -109 1013 -844 
L 513 -844 
Q 928 -128 1133 580 
Q 1338 1288 1338 2009 
Q 1338 2731 1133 3434 
Q 928 4138 513 4856 
z
" transform="scale(0.015625)"/>
      </defs>
      <use xlink:href="#DejaVuSans-43"/>
      <use xlink:href="#DejaVuSans-28" x="69.824219"/>
      <use xlink:href="#DejaVuSans-77" x="108.837891"/>
      <use xlink:href="#DejaVuSans-69" x="190.625"/>
      <use xlink:href="#DejaVuSans-74" x="218.408203"/>
      <use xlink:href="#DejaVuSans-68" x="257.617188"/>
      <use xlink:href="#DejaVuSans-6f" x="320.996094"/>
      <use xlink:href="#DejaVuSans-75" x="382.177734"/>
      <use xlink:href="#DejaVuSans-74" x="445.556641"/>
      <use xlink:href="#DejaVuSans-20" x="484.765625"/>
      <use xlink:href="#DejaVuSans-4c" x="516.552734"/>
      <use xlink:href="#DejaVuSans-6f" x="570.515625"/>
      <use xlink:href="#DejaVuSans-6e" x="631.697266"/>
      <use xlink:href="#DejaVuSans-65" x="695.076172"/>
      <use xlink:href="#DejaVuSans-72" x="756.599609"/>
      <use xlink:href="#DejaVuSans-29" x="797.712891"/>
     </g>
    </g>
   </g>
  </g>
  <g id="axes_2">
   <g id="patch_8">
    <path d="M 71.048 305.313064 
L 565.2 305.313064 
L 565.2 167.526936 
L 71.048 167.526936 
z
" style="fill: #ffffff"/>
   </g>
   <g id="PolyCollection_2">
    <defs>
     <path id="mdf66fd8a5b" d="M 93.509455 -277.384603 
L 93.509455 -277.384603 
L 104.740182 -279.265246 
L 115.970909 -273.971848 
L 127.201636 -274.873179 
L 138.432364 -272.16637 
L 149.663091 -264.249559 
L 160.893818 -257.210468 
L 172.124545 -259.718859 
L 183.355273 -260.514049 
L 194.586 -263.461517 
L 205.816727 -274.378216 
L 217.047455 -278.449477 
L 228.278182 -287.713844 
L 239.508909 -273.121421 
L 250.739636 -260.238299 
L 261.970364 -248.628219 
L 273.201091 -239.503134 
L 284.431818 -226.7398 
L 295.662545 -218.405357 
L 306.893273 -204.949941 
L 318.124 -276.352653 
L 329.354727 -283.771035 
L 340.585455 -290.866445 
L 351.816182 -292.926879 
L 363.046909 -299.121174 
L 374.277636 -298.544115 
L 385.508364 -296.704195 
L 396.739091 -276.277055 
L 407.969818 -271.563099 
L 419.200545 -266.215115 
L 430.431273 -268.55498 
L 441.662 -270.044635 
L 452.892727 -270.340096 
L 464.123455 -268.987558 
L 475.354182 -266.849144 
L 486.584909 -268.078862 
L 497.815636 -264.605022 
L 509.046364 -268.15771 
L 520.277091 -264.865176 
L 531.507818 -266.623216 
L 542.738545 -268.959398 
L 542.738545 -268.959398 
L 542.738545 -299.482703 
L 531.507818 -296.501227 
L 520.277091 -293.286025 
L 509.046364 -295.318298 
L 497.815636 -291.061615 
L 486.584909 -294.880304 
L 475.354182 -294.011249 
L 464.123455 -297.471225 
L 452.892727 -299.628051 
L 441.662 -299.13807 
L 430.431273 -297.015686 
L 419.200545 -296.058468 
L 407.969818 -302.385115 
L 396.739091 -305.747615 
L 385.508364 -325.951643 
L 374.277636 -330.210059 
L 363.046909 -329.43523 
L 351.816182 -322.044575 
L 340.585455 -318.232384 
L 329.354727 -310.797106 
L 318.124 -301.751086 
L 306.893273 -228.649253 
L 295.662545 -242.659201 
L 284.431818 -250.353116 
L 273.201091 -262.916516 
L 261.970364 -272.942281 
L 250.739636 -285.749155 
L 239.508909 -299.48097 
L 228.278182 -316.151806 
L 217.047455 -309.126795 
L 205.816727 -306.294349 
L 194.586 -294.70658 
L 183.355273 -291.630877 
L 172.124545 -289.850742 
L 160.893818 -286.183033 
L 149.663091 -291.987423 
L 138.432364 -298.077961 
L 127.201636 -301.719244 
L 115.970909 -303.063117 
L 104.740182 -308.986645 
L 93.509455 -309.124629 
z
"/>
    </defs>
    <g clip-path="url(#p481b87f2e2)">
     <use xlink:href="#mdf66fd8a5b" x="0" y="504" style="fill: #d62728; fill-opacity: 0.18"/>
    </g>
   </g>
   <g id="matplotlib.axis_3">
    <g id="xtick_10">
     <g id="line2d_18">
      <g>
       <use xlink:href="#m48a6da7365" x="93.509455" y="305.313064" style="stroke: #000000; stroke-width: 0.8"/>
      </g>
     </g>
    </g>
    <g id="xtick_11">
     <g id="line2d_19">
      <g>
       <use xlink:href="#m48a6da7365" x="149.663091" y="305.313064" style="stroke: #000000; stroke-width: 0.8"/>
      </g>
     </g>
    </g>
    <g id="xtick_12">
     <g id="line2d_20">
      <g>
       <use xlink:href="#m48a6da7365" x="205.816727" y="305.313064" style="stroke: #000000; stroke-width: 0.8"/>
      </g>
     </g>
    </g>
    <g id="xtick_13">
     <g id="line2d_21">
      <g>
       <use xlink:href="#m48a6da7365" x="261.970364" y="305.313064" style="stroke: #000000; stroke-width: 0.8"/>
      </g>
     </g>
    </g>
    <g id="xtick_14">
     <g id="line2d_22">
      <g>
       <use xlink:href="#m48a6da7365" x="318.124" y="305.313064" style="stroke: #000000; stroke-width: 0.8"/>
      </g>
     </g>
    </g>
    <g id="xtick_15">
     <g id="line2d_23">
      <g>
       <use xlink:href="#m48a6da7365" x="374.277636" y="305.313064" style="stroke: #000000; stroke-width: 0.8"/>
      </g>
     </g>
    </g>
    <g id="xtick_16">
     <g id="line2d_24">
      <g>
       <use xlink:href="#m48a6da7365" x="430.431273" y="305.313064" style="stroke: #000000; stroke-width: 0.8"/>
      </g>
     </g>
    </g>
    <g id="xtick_17">
     <g id="line2d_25">
      <g>
       <use xlink:href="#m48a6da7365" x="486.584909" y="305.313064" style="stroke: #000000; stroke-width: 0.8"/>
      </g>
     </g>
    </g>
    <g id="xtick_18">
     <g id="line2d_26">
      <g>
       <use xlink:href="#m48a6da7365" x="542.738545" y="305.313064" style="stroke: #000000; stroke-width: 0.8"/>
      </g>
     </g>
    </g>
   </g>
   <g id="matplotlib.axis_4">
    <g id="ytick_5">
     <g id="line2d_27">
      <g>
       <use xlink:href="#m5326aa4614" x="71.048" y="299.95074" style="stroke: #000000; stroke-width: 0.8"/>
      </g>
     </g>
     <g id="text_7">
      <!-- 0.70 -->
      <g transform="translate(41.782375 303.749959)scale(0.1 -0.1)">
       <use xlink:href="#DejaVuSans-30"/>
       <use xlink:href="#DejaVuSans-2e" x="63.623047"/>
       <use xlink:href="#DejaVuSans-37" x="95.410156"/>
       <use xlink:href="#DejaVuSans-30" x="159.033203"/>
      </g>
     </g>
    </g>
    <g id="ytick_6">
     <g id="line2d_28">
      <g>
       <use xlink:href="#m5326aa4614" x="71.048" y="256.194698" style="stroke: #000000; stroke-width: 0.8"/>
      </g>
     </g>
     <g id="text_8">
      <!-- 0.71 -->
      <g transform="translate(41.782375 259.993917)scale(0.1 -0.1)">
       <defs>
        <path id="DejaVuSans-31" d="M 794 531 
L 1825 531 
L 1825 4091 
L 703 3866 
L 703 4441 
L 1819 4666 
L 2450 4666 
L 2450 531 
L 3481 531 
L 3481 0 
L 794 0 
L 794 531 
z
" transform="scale(0.015625)"/>
       </defs>
       <use xlink:href="#DejaVuSans-30"/>
       <use xlink:href="#DejaVuSans-2e" x="63.623047"/>
       <use xlink:href="#DejaVuSans-37" x="95.410156"/>
       <use xlink:href="#DejaVuSans-31" x="159.033203"/>
      </g>
     </g>
    </g>
    <g id="ytick_7">
     <g id="line2d_29">
      <g>
       <use xlink:href="#m5326aa4614" x="71.048" y="212.438657" style="stroke: #000000; stroke-width: 0.8"/>
      </g>
     </g>
     <g id="text_9">
      <!-- 0.72 -->
      <g transform="translate(41.782375 216.237875)scale(0.1 -0.1)">
       <use xlink:href="#DejaVuSans-30"/>
       <use xlink:href="#DejaVuSans-2e" x="63.623047"/>
       <use xlink:href="#DejaVuSans-37" x="95.410156"/>
       <use xlink:href="#DejaVuSans-32" x="159.033203"/>
      </g>
     </g>
    </g>
    <g id="ytick_8">
     <g id="line2d_30">
      <g>
       <use xlink:href="#m5326aa4614" x="71.048" y="168.682615" style="stroke: #000000; stroke-width: 0.8"/>
      </g>
     </g>
     <g id="text_10">
      <!-- 0.73 -->
      <g transform="translate(41.782375 172.481834)scale(0.1 -0.1)">
       <use xlink:href="#DejaVuSans-30"/>
       <use xlink:href="#DejaVuSans-2e" x="63.623047"/>
       <use xlink:href="#DejaVuSans-37" x="95.410156"/>
       <use xlink:href="#DejaVuSans-33" x="159.033203"/>
      </g>
     </g>
    </g>
    <g id="text_11">
     <!-- $f_D$ -->
     <g transform="translate(35.702688 241.02)rotate(-90)scale(0.1 -0.1)">
      <defs>
       <path id="DejaVuSans-Oblique-44" d="M 1081 4666 
L 2438 4666 
Q 3519 4666 4070 4208 
Q 4622 3750 4622 2847 
Q 4622 2250 4412 1698 
Q 4203 1147 3834 769 
Q 3463 381 2891 190 
Q 2319 0 1538 0 
L 172 0 
L 1081 4666 
z
M 1613 4147 
L 909 519 
L 1734 519 
Q 2794 519 3375 1128 
Q 3956 1738 3956 2847 
Q 3956 3519 3581 3833 
Q 3206 4147 2406 4147 
L 1613 4147 
z
" transform="scale(0.015625)"/>
      </defs>
      <use xlink:href="#DejaVuSans-Oblique-66" transform="translate(0 0.015625)"/>
      <use xlink:href="#DejaVuSans-Oblique-44" transform="translate(35.205078 -16.390625)scale(0.7)"/>
     </g>
    </g>
   </g>
   <g id="line2d_31">
    <path d="M 93.509455 210.593105 
L 104.740182 209.830623 
L 115.970909 215.367279 
L 127.201636 216.112431 
L 138.432364 219.179686 
L 149.663091 226.024691 
L 160.893818 232.393144 
L 172.124545 229.533839 
L 183.355273 227.497667 
L 194.586 224.820317 
L 205.816727 213.374429 
L 217.047455 210.229193 
L 228.278182 202.084504 
L 239.508909 218.139939 
L 250.739636 231.544017 
L 261.970364 243.327823 
L 273.201091 253.014804 
L 284.431818 265.786369 
L 295.662545 273.49783 
L 306.893273 287.421782 
L 318.124 214.916722 
L 329.354727 206.746039 
L 340.585455 199.415819 
L 351.816182 196.773127 
L 363.046909 189.910794 
L 374.277636 189.200299 
L 385.508364 192.267555 
L 396.739091 212.949866 
L 407.969818 216.675628 
L 419.200545 222.524208 
L 430.431273 220.791295 
L 441.662 219.023724 
L 452.892727 219.430959 
L 464.123455 221.155207 
L 475.354182 224.187804 
L 486.584909 222.879455 
L 497.815636 226.613881 
L 509.046364 222.47222 
L 520.277091 224.811652 
L 531.507818 222.229612 
L 542.738545 219.30099 
" clip-path="url(#p481b87f2e2)" style="fill: none; stroke: #d62728; stroke-width: 2; stroke-linecap: square"/>
   </g>
   <g id="line2d_32">
    <path d="M 318.124 305.313064 
L 318.124 167.526936 
" clip-path="url(#p481b87f2e2)" style="fill: none; stroke-dasharray: 3.7,1.6; stroke-dashoffset: 0; stroke: #1f77b4"/>
   </g>
   <g id="line2d_33">
    <path d="M 71.048 221.806106 
L 565.2 221.806106 
" clip-path="url(#p481b87f2e2)" style="fill: none; stroke-dasharray: 1,1.65; stroke-dashoffset: 0; stroke: #d62728; stroke-opacity: 0.55"/>
   </g>
   <g id="patch_9">
    <path d="M 71.048 305.313064 
L 71.048 167.526936 
" style="fill: none; stroke: #000000; stroke-width: 0.8; stroke-linejoin: miter; stroke-linecap: square"/>
   </g>
   <g id="patch_10">
    <path d="M 565.2 305.313064 
L 565.2 167.526936 
" style="fill: none; stroke: #000000; stroke-width: 0.8; stroke-linejoin: miter; stroke-linecap: square"/>
   </g>
   <g id="patch_11">
    <path d="M 71.048 305.313064 
L 565.2 305.313064 
" style="fill: none; stroke: #000000; stroke-width: 0.8; stroke-linejoin: miter; stroke-linecap: square"/>
   </g>
   <g id="patch_12">
    <path d="M 71.048 167.526936 
L 565.2 167.526936 
" style="fill: none; stroke: #000000; stroke-width: 0.8; stroke-linejoin: miter; stroke-linecap: square"/>
   </g>
   <g id="legend_2">
    <g id="patch_13">
     <path d="M 441.810937 190.205061 
L 558.2 190.205061 
Q 560.2 190.205061 560.2 188.205061 
L 560.2 174.526936 
Q 560.2 172.526936 558.2 172.526936 
L 441.810937 172.526936 
Q 439.810937 172.526936 439.810937 174.526936 
L 439.810937 188.205061 
Q 439.810937 190.205061 441.810937 190.205061 
z
" style="fill: #ffffff; opacity: 0.8; stroke: #cccccc; stroke-linejoin: miter"/>
    </g>
    <g id="line2d_34">
     <path d="M 443.810937 180.625373 
L 453.810937 180.625373 
L 463.810937 180.625373 
" style="fill: none; stroke: #d62728; stroke-width: 2; stroke-linecap: square"/>
    </g>
    <g id="text_12">
     <!-- D(without Loner) -->
     <g transform="translate(471.810937 184.125373)scale(0.1 -0.1)">
      <defs>
       <path id="DejaVuSans-44" d="M 1259 4147 
L 1259 519 
L 2022 519 
Q 2988 519 3436 956 
Q 3884 1394 3884 2338 
Q 3884 3275 3436 3711 
Q 2988 4147 2022 4147 
L 1259 4147 
z
M 628 4666 
L 1925 4666 
Q 3281 4666 3915 4102 
Q 4550 3538 4550 2338 
Q 4550 1131 3912 565 
Q 3275 0 1925 0 
L 628 0 
L 628 4666 
z
" transform="scale(0.015625)"/>
      </defs>
      <use xlink:href="#DejaVuSans-44"/>
      <use xlink:href="#DejaVuSans-28" x="77.001953"/>
      <use xlink:href="#DejaVuSans-77" x="116.015625"/>
      <use xlink:href="#DejaVuSans-69" x="197.802734"/>
      <use xlink:href="#DejaVuSans-74" x="225.585938"/>
      <use xlink:href="#DejaVuSans-68" x="264.794922"/>
      <use xlink:href="#DejaVuSans-6f" x="328.173828"/>
      <use xlink:href="#DejaVuSans-75" x="389.355469"/>
      <use xlink:href="#DejaVuSans-74" x="452.734375"/>
      <use xlink:href="#DejaVuSans-20" x="491.943359"/>
      <use xlink:href="#DejaVuSans-4c" x="523.730469"/>
      <use xlink:href="#DejaVuSans-6f" x="577.693359"/>
      <use xlink:href="#DejaVuSans-6e" x="638.875"/>
      <use xlink:href="#DejaVuSans-65" x="702.253906"/>
      <use xlink:href="#DejaVuSans-72" x="763.777344"/>
      <use xlink:href="#DejaVuSans-29" x="804.890625"/>
     </g>
    </g>
   </g>
  </g>
  <g id="axes_3">
   <g id="patch_14">
    <path d="M 71.048 462.04 
L 565.2 462.04 
L 565.2 324.253871 
L 71.048 324.253871 
z
" style="fill: #ffffff"/>
   </g>
   <g id="PolyCollection_3">
    <defs>
     <path id="m0651c6b54a" d="M 93.509455 -110.853064 
L 93.509455 -110.853064 
L 104.740182 -110.853064 
L 115.970909 -110.853064 
L 127.201636 -110.853064 
L 138.432364 -110.853064 
L 149.663091 -110.853064 
L 160.893818 -110.853064 
L 172.124545 -110.853064 
L 183.355273 -110.853064 
L 194.586 -110.853064 
L 205.816727 -110.853064 
L 217.047455 -110.853064 
L 228.278182 -110.853064 
L 239.508909 -110.853064 
L 250.739636 -110.853064 
L 261.970364 -110.853064 
L 273.201091 -110.853064 
L 284.431818 -110.853064 
L 295.662545 -110.853064 
L 306.893273 -110.853064 
L 318.124 -110.853064 
L 329.354727 -110.853064 
L 340.585455 -110.853064 
L 351.816182 -110.853064 
L 363.046909 -110.853064 
L 374.277636 -110.853064 
L 385.508364 -110.853064 
L 396.739091 -110.853064 
L 407.969818 -110.853064 
L 419.200545 -110.853064 
L 430.431273 -110.853064 
L 441.662 -110.853064 
L 452.892727 -110.853064 
L 464.123455 -110.853064 
L 475.354182 -110.853064 
L 486.584909 -110.853064 
L 497.815636 -110.853064 
L 509.046364 -110.853064 
L 520.277091 -110.853064 
L 531.507818 -110.853064 
L 542.738545 -110.853064 
L 542.738545 -110.853064 
L 542.738545 -110.853064 
L 531.507818 -110.853064 
L 520.277091 -110.853064 
L 509.046364 -110.853064 
L 497.815636 -110.853064 
L 486.584909 -110.853064 
L 475.354182 -110.853064 
L 464.123455 -110.853064 
L 452.892727 -110.853064 
L 441.662 -110.853064 
L 430.431273 -110.853064 
L 419.200545 -110.853064 
L 407.969818 -110.853064 
L 396.739091 -110.853064 
L 385.508364 -110.853064 
L 374.277636 -110.853064 
L 363.046909 -110.853064 
L 351.816182 -110.853064 
L 340.585455 -110.853064 
L 329.354727 -110.853064 
L 318.124 -110.853064 
L 306.893273 -110.853064 
L 295.662545 -110.853064 
L 284.431818 -110.853064 
L 273.201091 -110.853064 
L 261.970364 -110.853064 
L 250.739636 -110.853064 
L 239.508909 -110.853064 
L 228.278182 -110.853064 
L 217.047455 -110.853064 
L 205.816727 -110.853064 
L 194.586 -110.853064 
L 183.355273 -110.853064 
L 172.124545 -110.853064 
L 160.893818 -110.853064 
L 149.663091 -110.853064 
L 138.432364 -110.853064 
L 127.201636 -110.853064 
L 115.970909 -110.853064 
L 104.740182 -110.853064 
L 93.509455 -110.853064 
z
"/>
    </defs>
    <g clip-path="url(#p50f20cd31e)">
     <use xlink:href="#m0651c6b54a" x="0" y="504" style="fill: #dbb428; fill-opacity: 0.18"/>
    </g>
   </g>
   <g id="matplotlib.axis_5">
    <g id="xtick_19">
     <g id="line2d_35">
      <g>
       <use xlink:href="#m48a6da7365" x="93.509455" y="462.04" style="stroke: #000000; stroke-width: 0.8"/>
      </g>
     </g>
     <g id="text_13">
      <!-- −20 -->
      <g transform="translate(82.957111 476.638438)scale(0.1 -0.1)">
       <defs>
        <path id="DejaVuSans-2212" d="M 678 2272 
L 4684 2272 
L 4684 1741 
L 678 1741 
L 678 2272 
z
" transform="scale(0.015625)"/>
       </defs>
       <use xlink:href="#DejaVuSans-2212"/>
       <use xlink:href="#DejaVuSans-32" x="83.789062"/>
       <use xlink:href="#DejaVuSans-30" x="147.412109"/>
      </g>
     </g>
    </g>
    <g id="xtick_20">
     <g id="line2d_36">
      <g>
       <use xlink:href="#m48a6da7365" x="149.663091" y="462.04" style="stroke: #000000; stroke-width: 0.8"/>
      </g>
     </g>
     <g id="text_14">
      <!-- −15 -->
      <g transform="translate(139.110747 476.638438)scale(0.1 -0.1)">
       <defs>
        <path id="DejaVuSans-35" d="M 691 4666 
L 3169 4666 
L 3169 4134 
L 1269 4134 
L 1269 2991 
Q 1406 3038 1543 3061 
Q 1681 3084 1819 3084 
Q 2600 3084 3056 2656 
Q 3513 2228 3513 1497 
Q 3513 744 3044 326 
Q 2575 -91 1722 -91 
Q 1428 -91 1123 -41 
Q 819 9 494 109 
L 494 744 
Q 775 591 1075 516 
Q 1375 441 1709 441 
Q 2250 441 2565 725 
Q 2881 1009 2881 1497 
Q 2881 1984 2565 2268 
Q 2250 2553 1709 2553 
Q 1456 2553 1204 2497 
Q 953 2441 691 2322 
L 691 4666 
z
" transform="scale(0.015625)"/>
       </defs>
       <use xlink:href="#DejaVuSans-2212"/>
       <use xlink:href="#DejaVuSans-31" x="83.789062"/>
       <use xlink:href="#DejaVuSans-35" x="147.412109"/>
      </g>
     </g>
    </g>
    <g id="xtick_21">
     <g id="line2d_37">
      <g>
       <use xlink:href="#m48a6da7365" x="205.816727" y="462.04" style="stroke: #000000; stroke-width: 0.8"/>
      </g>
     </g>
     <g id="text_15">
      <!-- −10 -->
      <g transform="translate(195.264384 476.638438)scale(0.1 -0.1)">
       <use xlink:href="#DejaVuSans-2212"/>
       <use xlink:href="#DejaVuSans-31" x="83.789062"/>
       <use xlink:href="#DejaVuSans-30" x="147.412109"/>
      </g>
     </g>
    </g>
    <g id="xtick_22">
     <g id="line2d_38">
      <g>
       <use xlink:href="#m48a6da7365" x="261.970364" y="462.04" style="stroke: #000000; stroke-width: 0.8"/>
      </g>
     </g>
     <g id="text_16">
      <!-- −5 -->
      <g transform="translate(254.59927 476.638438)scale(0.1 -0.1)">
       <use xlink:href="#DejaVuSans-2212"/>
       <use xlink:href="#DejaVuSans-35" x="83.789062"/>
      </g>
     </g>
    </g>
    <g id="xtick_23">
     <g id="line2d_39">
      <g>
       <use xlink:href="#m48a6da7365" x="318.124" y="462.04" style="stroke: #000000; stroke-width: 0.8"/>
      </g>
     </g>
     <g id="text_17">
      <!-- 0 -->
      <g transform="translate(314.94275 476.638438)scale(0.1 -0.1)">
       <use xlink:href="#DejaVuSans-30"/>
      </g>
     </g>
    </g>
    <g id="xtick_24">
     <g id="line2d_40">
      <g>
       <use xlink:href="#m48a6da7365" x="374.277636" y="462.04" style="stroke: #000000; stroke-width: 0.8"/>
      </g>
     </g>
     <g id="text_18">
      <!-- 5 -->
      <g transform="translate(371.096386 476.638438)scale(0.1 -0.1)">
       <use xlink:href="#DejaVuSans-35"/>
      </g>
     </g>
    </g>
    <g id="xtick_25">
     <g id="line2d_41">
      <g>
       <use xlink:href="#m48a6da7365" x="430.431273" y="462.04" style="stroke: #000000; stroke-width: 0.8"/>
      </g>
     </g>
     <g id="text_19">
      <!-- 10 -->
      <g transform="translate(424.068773 476.638438)scale(0.1 -0.1)">
       <use xlink:href="#DejaVuSans-31"/>
       <use xlink:href="#DejaVuSans-30" x="63.623047"/>
      </g>
     </g>
    </g>
    <g id="xtick_26">
     <g id="line2d_42">
      <g>
       <use xlink:href="#m48a6da7365" x="486.584909" y="462.04" style="stroke: #000000; stroke-width: 0.8"/>
      </g>
     </g>
     <g id="text_20">
      <!-- 15 -->
      <g transform="translate(480.222409 476.638438)scale(0.1 -0.1)">
       <use xlink:href="#DejaVuSans-31"/>
       <use xlink:href="#DejaVuSans-35" x="63.623047"/>
      </g>
     </g>
    </g>
    <g id="xtick_27">
     <g id="line2d_43">
      <g>
       <use xlink:href="#m48a6da7365" x="542.738545" y="462.04" style="stroke: #000000; stroke-width: 0.8"/>
      </g>
     </g>
     <g id="text_21">
      <!-- 20 -->
      <g transform="translate(536.376045 476.638438)scale(0.1 -0.1)">
       <use xlink:href="#DejaVuSans-32"/>
       <use xlink:href="#DejaVuSans-30" x="63.623047"/>
      </g>
     </g>
    </g>
    <g id="text_22">
     <!-- Time steps -->
     <g transform="translate(290.881031 490.316563)scale(0.1 -0.1)">
      <defs>
       <path id="DejaVuSans-54" d="M -19 4666 
L 3928 4666 
L 3928 4134 
L 2272 4134 
L 2272 0 
L 1638 0 
L 1638 4134 
L -19 4134 
L -19 4666 
z
" transform="scale(0.015625)"/>
       <path id="DejaVuSans-6d" d="M 3328 2828 
Q 3544 3216 3844 3400 
Q 4144 3584 4550 3584 
Q 5097 3584 5394 3201 
Q 5691 2819 5691 2113 
L 5691 0 
L 5113 0 
L 5113 2094 
Q 5113 2597 4934 2840 
Q 4756 3084 4391 3084 
Q 3944 3084 3684 2787 
Q 3425 2491 3425 1978 
L 3425 0 
L 2847 0 
L 2847 2094 
Q 2847 2600 2669 2842 
Q 2491 3084 2119 3084 
Q 1678 3084 1418 2786 
Q 1159 2488 1159 1978 
L 1159 0 
L 581 0 
L 581 3500 
L 1159 3500 
L 1159 2956 
Q 1356 3278 1631 3431 
Q 1906 3584 2284 3584 
Q 2666 3584 2933 3390 
Q 3200 3197 3328 2828 
z
" transform="scale(0.015625)"/>
       <path id="DejaVuSans-73" d="M 2834 3397 
L 2834 2853 
Q 2591 2978 2328 3040 
Q 2066 3103 1784 3103 
Q 1356 3103 1142 2972 
Q 928 2841 928 2578 
Q 928 2378 1081 2264 
Q 1234 2150 1697 2047 
L 1894 2003 
Q 2506 1872 2764 1633 
Q 3022 1394 3022 966 
Q 3022 478 2636 193 
Q 2250 -91 1575 -91 
Q 1294 -91 989 -36 
Q 684 19 347 128 
L 347 722 
Q 666 556 975 473 
Q 1284 391 1588 391 
Q 1994 391 2212 530 
Q 2431 669 2431 922 
Q 2431 1156 2273 1281 
Q 2116 1406 1581 1522 
L 1381 1569 
Q 847 1681 609 1914 
Q 372 2147 372 2553 
Q 372 3047 722 3315 
Q 1072 3584 1716 3584 
Q 2034 3584 2315 3537 
Q 2597 3491 2834 3397 
z
" transform="scale(0.015625)"/>
       <path id="DejaVuSans-70" d="M 1159 525 
L 1159 -1331 
L 581 -1331 
L 581 3500 
L 1159 3500 
L 1159 2969 
Q 1341 3281 1617 3432 
Q 1894 3584 2278 3584 
Q 2916 3584 3314 3078 
Q 3713 2572 3713 1747 
Q 3713 922 3314 415 
Q 2916 -91 2278 -91 
Q 1894 -91 1617 61 
Q 1341 213 1159 525 
z
M 3116 1747 
Q 3116 2381 2855 2742 
Q 2594 3103 2138 3103 
Q 1681 3103 1420 2742 
Q 1159 2381 1159 1747 
Q 1159 1113 1420 752 
Q 1681 391 2138 391 
Q 2594 391 2855 752 
Q 3116 1113 3116 1747 
z
" transform="scale(0.015625)"/>
      </defs>
      <use xlink:href="#DejaVuSans-54"/>
      <use xlink:href="#DejaVuSans-69" x="57.958984"/>
      <use xlink:href="#DejaVuSans-6d" x="85.742188"/>
      <use xlink:href="#DejaVuSans-65" x="183.154297"/>
      <use xlink:href="#DejaVuSans-20" x="244.677734"/>
      <use xlink:href="#DejaVuSans-73" x="276.464844"/>
      <use xlink:href="#DejaVuSans-74" x="328.564453"/>
      <use xlink:href="#DejaVuSans-65" x="367.773438"/>
      <use xlink:href="#DejaVuSans-70" x="429.296875"/>
      <use xlink:href="#DejaVuSans-73" x="492.773438"/>
     </g>
    </g>
   </g>
   <g id="matplotlib.axis_6">
    <g id="ytick_9">
     <g id="line2d_44">
      <g>
       <use xlink:href="#m5326aa4614" x="71.048" y="443.250982" style="stroke: #000000; stroke-width: 0.8"/>
      </g>
     </g>
     <g id="text_23">
      <!-- −0.04 -->
      <g transform="translate(33.402687 447.050201)scale(0.1 -0.1)">
       <defs>
        <path id="DejaVuSans-34" d="M 2419 4116 
L 825 1625 
L 2419 1625 
L 2419 4116 
z
M 2253 4666 
L 3047 4666 
L 3047 1625 
L 3713 1625 
L 3713 1100 
L 3047 1100 
L 3047 0 
L 2419 0 
L 2419 1100 
L 313 1100 
L 313 1709 
L 2253 4666 
z
" transform="scale(0.015625)"/>
       </defs>
       <use xlink:href="#DejaVuSans-2212"/>
       <use xlink:href="#DejaVuSans-30" x="83.789062"/>
       <use xlink:href="#DejaVuSans-2e" x="147.412109"/>
       <use xlink:href="#DejaVuSans-30" x="179.199219"/>
       <use xlink:href="#DejaVuSans-34" x="242.822266"/>
      </g>
     </g>
    </g>
    <g id="ytick_10">
     <g id="line2d_45">
      <g>
       <use xlink:href="#m5326aa4614" x="71.048" y="418.198959" style="stroke: #000000; stroke-width: 0.8"/>
      </g>
     </g>
     <g id="text_24">
      <!-- −0.02 -->
      <g transform="translate(33.402687 421.998178)scale(0.1 -0.1)">
       <use xlink:href="#DejaVuSans-2212"/>
       <use xlink:href="#DejaVuSans-30" x="83.789062"/>
       <use xlink:href="#DejaVuSans-2e" x="147.412109"/>
       <use xlink:href="#DejaVuSans-30" x="179.199219"/>
       <use xlink:href="#DejaVuSans-32" x="242.822266"/>
      </g>
     </g>
    </g>
    <g id="ytick_11">
     <g id="line2d_46">
      <g>
       <use xlink:href="#m5326aa4614" x="71.048" y="393.146936" style="stroke: #000000; stroke-width: 0.8"/>
      </g>
     </g>
     <g id="text_25">
      <!-- 0.00 -->
      <g transform="translate(41.782375 396.946154)scale(0.1 -0.1)">
       <use xlink:href="#DejaVuSans-30"/>
       <use xlink:href="#DejaVuSans-2e" x="63.623047"/>
       <use xlink:href="#DejaVuSans-30" x="95.410156"/>
       <use xlink:href="#DejaVuSans-30" x="159.033203"/>
      </g>
     </g>
    </g>
    <g id="ytick_12">
     <g id="line2d_47">
      <g>
       <use xlink:href="#m5326aa4614" x="71.048" y="368.094912" style="stroke: #000000; stroke-width: 0.8"/>
      </g>
     </g>
     <g id="text_26">
      <!-- 0.02 -->
      <g transform="translate(41.782375 371.894131)scale(0.1 -0.1)">
       <use xlink:href="#DejaVuSans-30"/>
       <use xlink:href="#DejaVuSans-2e" x="63.623047"/>
       <use xlink:href="#DejaVuSans-30" x="95.410156"/>
       <use xlink:href="#DejaVuSans-32" x="159.033203"/>
      </g>
     </g>
    </g>
    <g id="ytick_13">
     <g id="line2d_48">
      <g>
       <use xlink:href="#m5326aa4614" x="71.048" y="343.042889" style="stroke: #000000; stroke-width: 0.8"/>
      </g>
     </g>
     <g id="text_27">
      <!-- 0.04 -->
      <g transform="translate(41.782375 346.842107)scale(0.1 -0.1)">
       <use xlink:href="#DejaVuSans-30"/>
       <use xlink:href="#DejaVuSans-2e" x="63.623047"/>
       <use xlink:href="#DejaVuSans-30" x="95.410156"/>
       <use xlink:href="#DejaVuSans-34" x="159.033203"/>
      </g>
     </g>
    </g>
    <g id="text_28">
     <!-- $f_L$ -->
     <g transform="translate(27.323 396.996936)rotate(-90)scale(0.1 -0.1)">
      <defs>
       <path id="DejaVuSans-Oblique-4c" d="M 1075 4666 
L 1709 4666 
L 909 525 
L 3181 525 
L 3078 0 
L 172 0 
L 1075 4666 
z
" transform="scale(0.015625)"/>
      </defs>
      <use xlink:href="#DejaVuSans-Oblique-66" transform="translate(0 0.015625)"/>
      <use xlink:href="#DejaVuSans-Oblique-4c" transform="translate(35.205078 -16.390625)scale(0.7)"/>
     </g>
    </g>
   </g>
   <g id="line2d_49">
    <path d="M 93.509455 393.146936 
L 104.740182 393.146936 
L 115.970909 393.146936 
L 127.201636 393.146936 
L 138.432364 393.146936 
L 149.663091 393.146936 
L 160.893818 393.146936 
L 172.124545 393.146936 
L 183.355273 393.146936 
L 194.586 393.146936 
L 205.816727 393.146936 
L 217.047455 393.146936 
L 228.278182 393.146936 
L 239.508909 393.146936 
L 250.739636 393.146936 
L 261.970364 393.146936 
L 273.201091 393.146936 
L 284.431818 393.146936 
L 295.662545 393.146936 
L 306.893273 393.146936 
L 318.124 393.146936 
L 329.354727 393.146936 
L 340.585455 393.146936 
L 351.816182 393.146936 
L 363.046909 393.146936 
L 374.277636 393.146936 
L 385.508364 393.146936 
L 396.739091 393.146936 
L 407.969818 393.146936 
L 419.200545 393.146936 
L 430.431273 393.146936 
L 441.662 393.146936 
L 452.892727 393.146936 
L 464.123455 393.146936 
L 475.354182 393.146936 
L 486.584909 393.146936 
L 497.815636 393.146936 
L 509.046364 393.146936 
L 520.277091 393.146936 
L 531.507818 393.146936 
L 542.738545 393.146936 
" clip-path="url(#p50f20cd31e)" style="fill: none; stroke: #dbb428; stroke-width: 2; stroke-linecap: square"/>
   </g>
   <g id="line2d_50">
    <path d="M 318.124 462.04 
L 318.124 324.253871 
" clip-path="url(#p50f20cd31e)" style="fill: none; stroke-dasharray: 3.7,1.6; stroke-dashoffset: 0; stroke: #1f77b4"/>
   </g>
   <g id="line2d_51">
    <path d="M 71.048 393.146936 
L 565.2 393.146936 
" clip-path="url(#p50f20cd31e)" style="fill: none; stroke-dasharray: 1,1.65; stroke-dashoffset: 0; stroke: #dbb428; stroke-opacity: 0.55"/>
   </g>
   <g id="patch_15">
    <path d="M 71.048 462.04 
L 71.048 324.253871 
" style="fill: none; stroke: #000000; stroke-width: 0.8; stroke-linejoin: miter; stroke-linecap: square"/>
   </g>
   <g id="patch_16">
    <path d="M 565.2 462.04 
L 565.2 324.253871 
" style="fill: none; stroke: #000000; stroke-width: 0.8; stroke-linejoin: miter; stroke-linecap: square"/>
   </g>
   <g id="patch_17">
    <path d="M 71.048 462.04 
L 565.2 462.04 
" style="fill: none; stroke: #000000; stroke-width: 0.8; stroke-linejoin: miter; stroke-linecap: square"/>
   </g>
   <g id="patch_18">
    <path d="M 71.048 324.253871 
L 565.2 324.253871 
" style="fill: none; stroke: #000000; stroke-width: 0.8; stroke-linejoin: miter; stroke-linecap: square"/>
   </g>
   <g id="legend_3">
    <g id="patch_19">
     <path d="M 443.939062 346.931996 
L 558.2 346.931996 
Q 560.2 346.931996 560.2 344.931996 
L 560.2 331.253871 
Q 560.2 329.253871 558.2 329.253871 
L 443.939062 329.253871 
Q 441.939062 329.253871 441.939062 331.253871 
L 441.939062 344.931996 
Q 441.939062 346.931996 443.939062 346.931996 
z
" style="fill: #ffffff; opacity: 0.8; stroke: #cccccc; stroke-linejoin: miter"/>
    </g>
    <g id="line2d_52">
     <path d="M 445.939062 337.352309 
L 455.939062 337.352309 
L 465.939062 337.352309 
" style="fill: none; stroke: #dbb428; stroke-width: 2; stroke-linecap: square"/>
    </g>
    <g id="text_29">
     <!-- L(without Loner) -->
     <g transform="translate(473.939062 340.852309)scale(0.1 -0.1)">
      <use xlink:href="#DejaVuSans-4c"/>
      <use xlink:href="#DejaVuSans-28" x="55.712891"/>
      <use xlink:href="#DejaVuSans-77" x="94.726562"/>
      <use xlink:href="#DejaVuSans-69" x="176.513672"/>
      <use xlink:href="#DejaVuSans-74" x="204.296875"/>
      <use xlink:href="#DejaVuSans-68" x="243.505859"/>
      <use xlink:href="#DejaVuSans-6f" x="306.884766"/>
      <use xlink:href="#DejaVuSans-75" x="368.066406"/>
      <use xlink:href="#DejaVuSans-74" x="431.445312"/>
      <use xlink:href="#DejaVuSans-20" x="470.654297"/>
      <use xlink:href="#DejaVuSans-4c" x="502.441406"/>
      <use xlink:href="#DejaVuSans-6f" x="556.404297"/>
      <use xlink:href="#DejaVuSans-6e" x="617.585938"/>
      <use xlink:href="#DejaVuSans-65" x="680.964844"/>
      <use xlink:href="#DejaVuSans-72" x="742.488281"/>
      <use xlink:href="#DejaVuSans-29" x="783.601562"/>
     </g>
    </g>
   </g>
  </g>
 </g>
 <defs>
  <clipPath id="pb0940a0372">
   <rect x="71.048" y="10.8" width="494.152" height="137.786129"/>
  </clipPath>
  <clipPath id="p481b87f2e2">
   <rect x="71.048" y="167.526936" width="494.152" height="137.786129"/>
  </clipPath>
  <clipPath id="p50f20cd31e">
   <rect x="71.048" y="324.253871" width="494.152" height="137.786129"/>
  </clipPath>
 </defs>
</svg>
