<?xml version="1.0" encoding="utf-8" standalone="no"?>
<!DOCTYPE svg PUBLIC "-//W3C//DTD SVG 1.1//EN"
  "http://www.w3.org/Graphics/SVG/1.1/DTD/svg11.dtd">
<svg xmlns:xlink="http://www.w3.org/1999/xlink" width="720pt" height="576pt" viewBox="0 0 720 576" xmlns="http://www.w3.org/2000/svg" version="1.1">
 <metadata>
  <rdf:RDF xmlns:dc="http://purl.org/dc/elements/1.1/" xmlns:cc="http://creativecommons.org/ns#" xmlns:rdf="http://www.w3.org/1999/02/22-rdf-syntax-ns#">
   <cc:Work>
    <dc:type rdf:resource="http://purl.org/dc/dcmitype/StillImage"/>
    <dc:date>2025-12-09T16:51:41.290059</dc:date>
    <dc:format>image/svg+xml</dc:format>
    <dc:creator>
     <cc:Agent>
      <dc:title>Matplotlib v3.5.1, https://matplotlib.org/</dc:title>
     </cc:Agent>
    </dc:creator>
   </cc:Work>
  </rdf:RDF>
 </metadata>
 <defs>
  <style type="text/css">*{stroke-linejoin: round; stroke-linecap: butt}</style>
 </defs>
 <g id="figure_1">
  <g id="patch_1">
   <path d="M 0 576 
L 720 576 
L 720 0 
L 0 0 
z
" style="fill: #ffffff"/>
  </g>
  <g id="axes_1">
   <g id="patch_2">
    <path d="M 75.35 509.56 
L 709.2 509.56 
L 709.2 10.8 
L 75.35 10.8 
z
" style="fill: #ffffff"/>
   </g>
   <g id="matplotlib.axis_1">
    <g id="xtick_1">
     <g id="line2d_1">
      <defs>
       <path id="mc3f2779290" d="M 0 0 
L 0 3.5 
" style="stroke: #000000; stroke-width: 0.8"/>
      </defs>
      <g>
       <use xlink:href="#mc3f2779290" x="104.161364" y="509.56" style="stroke: #000000; stroke-width: 0.8"/>
      </g>
     </g>
     <g id="text_1">
      <!-- 1.0 -->
      <g transform="translate(89.161364 532.4525)scale(0.24 -0.24)">
       <defs>
        <path id="TimesNewRomanPS-BoldMT-31" d="M 2084 4325 
L 2084 859 
Q 2084 469 2118 361 
Q 2153 253 2262 184 
Q 2372 116 2613 116 
L 2709 116 
L 2709 0 
L 478 0 
L 478 116 
L 591 116 
Q 863 116 978 178 
Q 1094 241 1134 350 
Q 1175 459 1175 859 
L 1175 3056 
Q 1175 3350 1147 3423 
Q 1119 3497 1042 3548 
Q 966 3600 866 3600 
Q 706 3600 478 3500 
L 422 3613 
L 1981 4325 
L 2084 4325 
z
" transform="scale(0.015625)"/>
        <path id="TimesNewRomanPS-BoldMT-2e" d="M 800 963 
Q 1019 963 1170 809 
Q 1322 656 1322 441 
Q 1322 225 1169 73 
Q 1016 -78 800 -78 
Q 584 -78 432 73 
Q 281 225 281 441 
Q 281 656 432 809 
Q 584 963 800 963 
z
" transform="scale(0.015625)"/>
        <path id="TimesNewRomanPS-BoldMT-30" d="M 2966 2119 
Q 2966 1484 2788 934 
Q 2681 597 2501 381 
Q 2322 166 2094 39 
Q 1866 -88 1597 -88 
Q 1291 -88 1044 68 
Q 797 225 606 516 
Q 469 728 366 1081 
Q 231 1559 231 2069 
Q 231 2759 425 3338 
Q 584 3816 909 4070 
Q 1234 4325 1597 4325 
Q 1966 4325 2286 4073 
Q 2606 3822 2756 3397 
Q 2966 2813 2966 2119 
z
M 2003 2125 
Q 2003 3238 1991 3422 
Q 1959 3856 1841 4009 
Q 1763 4109 1588 4109 
Q 1453 4109 1375 4034 
Q 1259 3925 1218 3648 
Q 1178 3372 1178 1719 
Q 1178 819 1241 513 
Q 1288 291 1375 216 
Q 1463 141 1606 141 
Q 1763 141 1841 241 
Q 1972 416 1991 781 
L 2003 2125 
z
" transform="scale(0.015625)"/>
       </defs>
       <use xlink:href="#TimesNewRomanPS-BoldMT-31"/>
       <use xlink:href="#TimesNewRomanPS-BoldMT-2e" x="50"/>
       <use xlink:href="#TimesNewRomanPS-BoldMT-30" x="75"/>
      </g>
     </g>
    </g>
    <g id="xtick_2">
     <g id="line2d_2">
      <g>
       <use xlink:href="#mc3f2779290" x="219.406818" y="509.56" style="stroke: #000000; stroke-width: 0.8"/>
      </g>
     </g>
     <g id="text_2">
      <!-- 1.2 -->
      <g transform="translate(204.406818 532.4525)scale(0.24 -0.24)">
       <defs>
        <path id="TimesNewRomanPS-BoldMT-32" d="M 2650 0 
L 156 0 
L 156 69 
Q 1303 1434 1548 1906 
Q 1794 2378 1794 2828 
Q 1794 3156 1591 3373 
Q 1388 3591 1094 3591 
Q 613 3591 347 3109 
L 231 3150 
Q 400 3750 744 4037 
Q 1088 4325 1538 4325 
Q 1859 4325 2125 4175 
Q 2391 4025 2541 3764 
Q 2691 3503 2691 3275 
Q 2691 2859 2459 2431 
Q 2144 1853 1081 819 
L 1997 819 
Q 2334 819 2436 847 
Q 2538 875 2603 942 
Q 2669 1009 2775 1225 
L 2888 1225 
L 2650 0 
z
" transform="scale(0.015625)"/>
       </defs>
       <use xlink:href="#TimesNewRomanPS-BoldMT-31"/>
       <use xlink:href="#TimesNewRomanPS-BoldMT-2e" x="50"/>
       <use xlink:href="#TimesNewRomanPS-BoldMT-32" x="75"/>
      </g>
     </g>
    </g>
    <g id="xtick_3">
     <g id="line2d_3">
      <g>
       <use xlink:href="#mc3f2779290" x="334.652273" y="509.56" style="stroke: #000000; stroke-width: 0.8"/>
      </g>
     </g>
     <g id="text_3">
      <!-- 1.4 -->
      <g transform="translate(319.652273 532.4525)scale(0.24 -0.24)">
       <defs>
        <path id="TimesNewRomanPS-BoldMT-34" d="M 159 1597 
L 2172 4325 
L 2553 4325 
L 2553 1597 
L 2941 1597 
L 2941 950 
L 2553 950 
L 2553 0 
L 1694 0 
L 1694 950 
L 159 950 
L 159 1597 
z
M 463 1597 
L 1694 1597 
L 1694 3269 
L 463 1597 
z
" transform="scale(0.015625)"/>
       </defs>
       <use xlink:href="#TimesNewRomanPS-BoldMT-31"/>
       <use xlink:href="#TimesNewRomanPS-BoldMT-2e" x="50"/>
       <use xlink:href="#TimesNewRomanPS-BoldMT-34" x="75"/>
      </g>
     </g>
    </g>
    <g id="xtick_4">
     <g id="line2d_4">
      <g>
       <use xlink:href="#mc3f2779290" x="449.897727" y="509.56" style="stroke: #000000; stroke-width: 0.8"/>
      </g>
     </g>
     <g id="text_4">
      <!-- 1.6 -->
      <g transform="translate(434.897727 532.4525)scale(0.24 -0.24)">
       <defs>
        <path id="TimesNewRomanPS-BoldMT-36" d="M 3006 4325 
L 3006 4238 
Q 2441 4094 2098 3867 
Q 1756 3641 1557 3317 
Q 1359 2994 1250 2516 
Q 1388 2609 1478 2638 
Q 1681 2700 1888 2700 
Q 2363 2700 2680 2354 
Q 2997 2009 2997 1413 
Q 2997 994 2825 644 
Q 2653 294 2337 103 
Q 2022 -88 1663 -88 
Q 1272 -88 940 126 
Q 609 341 423 753 
Q 238 1166 238 1650 
Q 238 2363 580 2977 
Q 922 3591 1551 3955 
Q 2181 4319 3006 4325 
z
M 1209 2263 
Q 1184 1831 1184 1631 
Q 1184 1200 1267 797 
Q 1350 394 1494 231 
Q 1597 116 1738 116 
Q 1881 116 1993 283 
Q 2106 450 2106 963 
Q 2106 1825 1897 2153 
Q 1763 2366 1534 2366 
Q 1409 2366 1209 2263 
z
" transform="scale(0.015625)"/>
       </defs>
       <use xlink:href="#TimesNewRomanPS-BoldMT-31"/>
       <use xlink:href="#TimesNewRomanPS-BoldMT-2e" x="50"/>
       <use xlink:href="#TimesNewRomanPS-BoldMT-36" x="75"/>
      </g>
     </g>
    </g>
    <g id="xtick_5">
     <g id="line2d_5">
      <g>
       <use xlink:href="#mc3f2779290" x="565.143182" y="509.56" style="stroke: #000000; stroke-width: 0.8"/>
      </g>
     </g>
     <g id="text_5">
      <!-- 1.8 -->
      <g transform="translate(550.143182 532.4525)scale(0.24 -0.24)">
       <defs>
        <path id="TimesNewRomanPS-BoldMT-38" d="M 2181 2394 
Q 2628 2066 2801 1783 
Q 2975 1500 2975 1134 
Q 2975 622 2589 267 
Q 2203 -88 1541 -88 
Q 913 -88 569 221 
Q 225 531 225 978 
Q 225 1319 423 1575 
Q 622 1831 1084 2044 
Q 581 2428 439 2672 
Q 297 2916 297 3238 
Q 297 3663 658 3986 
Q 1019 4309 1647 4309 
Q 2253 4309 2579 4023 
Q 2906 3738 2906 3338 
Q 2906 3038 2729 2808 
Q 2553 2578 2181 2394 
z
M 1944 2553 
Q 2059 2709 2115 2903 
Q 2172 3097 2172 3328 
Q 2172 3734 1997 3950 
Q 1866 4116 1634 4116 
Q 1425 4116 1278 3964 
Q 1131 3813 1131 3588 
Q 1131 3359 1295 3114 
Q 1459 2869 1944 2553 
z
M 1319 1894 
Q 1222 1806 1181 1734 
Q 1119 1625 1069 1415 
Q 1019 1206 1019 978 
Q 1019 684 1094 486 
Q 1169 288 1308 200 
Q 1447 113 1594 113 
Q 1822 113 1978 280 
Q 2134 447 2134 738 
Q 2134 1344 1319 1894 
z
" transform="scale(0.015625)"/>
       </defs>
       <use xlink:href="#TimesNewRomanPS-BoldMT-31"/>
       <use xlink:href="#TimesNewRomanPS-BoldMT-2e" x="50"/>
       <use xlink:href="#TimesNewRomanPS-BoldMT-38" x="75"/>
      </g>
     </g>
    </g>
    <g id="xtick_6">
     <g id="line2d_6">
      <g>
       <use xlink:href="#mc3f2779290" x="680.388636" y="509.56" style="stroke: #000000; stroke-width: 0.8"/>
      </g>
     </g>
     <g id="text_6">
      <!-- 2.0 -->
      <g transform="translate(665.388636 532.4525)scale(0.24 -0.24)">
       <use xlink:href="#TimesNewRomanPS-BoldMT-32"/>
       <use xlink:href="#TimesNewRomanPS-BoldMT-2e" x="50"/>
       <use xlink:href="#TimesNewRomanPS-BoldMT-30" x="75"/>
      </g>
     </g>
    </g>
    <g id="text_7">
     <!-- b -->
     <g transform="translate(385.045781 558.803125)scale(0.26 -0.26)">
      <defs>
       <path id="TimesNewRomanPS-BoldMT-62" d="M 1347 4238 
L 1347 2628 
Q 1716 3009 2153 3009 
Q 2453 3009 2718 2832 
Q 2984 2656 3134 2331 
Q 3284 2006 3284 1581 
Q 3284 1103 3093 712 
Q 2903 322 2584 117 
Q 2266 -88 1856 -88 
Q 1619 -88 1434 -12 
Q 1250 63 1072 231 
L 588 -84 
L 481 -84 
L 481 3631 
Q 481 3884 459 3944 
Q 428 4031 361 4073 
Q 294 4116 134 4122 
L 134 4238 
L 1347 4238 
z
M 1347 2350 
L 1347 1050 
Q 1347 653 1366 544 
Q 1397 359 1515 245 
Q 1634 131 1819 131 
Q 1978 131 2092 222 
Q 2206 313 2282 581 
Q 2359 850 2359 1550 
Q 2359 2222 2191 2472 
Q 2069 2653 1863 2653 
Q 1594 2653 1347 2350 
z
" transform="scale(0.015625)"/>
      </defs>
      <use xlink:href="#TimesNewRomanPS-BoldMT-62"/>
     </g>
    </g>
   </g>
   <g id="matplotlib.axis_2">
    <g id="ytick_1">
     <g id="line2d_7">
      <defs>
       <path id="mff8244244b" d="M 0 0 
L -3.5 0 
" style="stroke: #000000; stroke-width: 0.8"/>
      </defs>
      <g>
       <use xlink:href="#mff8244244b" x="75.35" y="484.113979" style="stroke: #000000; stroke-width: 0.8"/>
      </g>
     </g>
     <g id="text_8">
      <!-- 0.0 -->
      <g transform="translate(38.35 492.060229)scale(0.24 -0.24)">
       <use xlink:href="#TimesNewRomanPS-BoldMT-30"/>
       <use xlink:href="#TimesNewRomanPS-BoldMT-2e" x="50"/>
       <use xlink:href="#TimesNewRomanPS-BoldMT-30" x="75"/>
      </g>
     </g>
    </g>
    <g id="ytick_2">
     <g id="line2d_8">
      <g>
       <use xlink:href="#mff8244244b" x="75.35" y="393.985365" style="stroke: #000000; stroke-width: 0.8"/>
      </g>
     </g>
     <g id="text_9">
      <!-- 0.2 -->
      <g transform="translate(38.35 401.931615)scale(0.24 -0.24)">
       <use xlink:href="#TimesNewRomanPS-BoldMT-30"/>
       <use xlink:href="#TimesNewRomanPS-BoldMT-2e" x="50"/>
       <use xlink:href="#TimesNewRomanPS-BoldMT-32" x="75"/>
      </g>
     </g>
    </g>
    <g id="ytick_3">
     <g id="line2d_9">
      <g>
       <use xlink:href="#mff8244244b" x="75.35" y="303.856751" style="stroke: #000000; stroke-width: 0.8"/>
      </g>
     </g>
     <g id="text_10">
      <!-- 0.4 -->
      <g transform="translate(38.35 311.803001)scale(0.24 -0.24)">
       <use xlink:href="#TimesNewRomanPS-BoldMT-30"/>
       <use xlink:href="#TimesNewRomanPS-BoldMT-2e" x="50"/>
       <use xlink:href="#TimesNewRomanPS-BoldMT-34" x="75"/>
      </g>
     </g>
    </g>
    <g id="ytick_4">
     <g id="line2d_10">
      <g>
       <use xlink:href="#mff8244244b" x="75.35" y="213.728137" style="stroke: #000000; stroke-width: 0.8"/>
      </g>
     </g>
     <g id="text_11">
      <!-- 0.6 -->
      <g transform="translate(38.35 221.674387)scale(0.24 -0.24)">
       <use xlink:href="#TimesNewRomanPS-BoldMT-30"/>
       <use xlink:href="#TimesNewRomanPS-BoldMT-2e" x="50"/>
       <use xlink:href="#TimesNewRomanPS-BoldMT-36" x="75"/>
      </g>
     </g>
    </g>
    <g id="ytick_5">
     <g id="line2d_11">
      <g>
       <use xlink:href="#mff8244244b" x="75.35" y="123.599523" style="stroke: #000000; stroke-width: 0.8"/>
      </g>
     </g>
     <g id="text_12">
      <!-- 0.8 -->
      <g transform="translate(38.35 131.545773)scale(0.24 -0.24)">
       <use xlink:href="#TimesNewRomanPS-BoldMT-30"/>
       <use xlink:href="#TimesNewRomanPS-BoldMT-2e" x="50"/>
       <use xlink:href="#TimesNewRomanPS-BoldMT-38" x="75"/>
      </g>
     </g>
    </g>
    <g id="ytick_6">
     <g id="line2d_12">
      <g>
       <use xlink:href="#mff8244244b" x="75.35" y="33.470909" style="stroke: #000000; stroke-width: 0.8"/>
      </g>
     </g>
     <g id="text_13">
      <!-- 1.0 -->
      <g transform="translate(38.35 41.417159)scale(0.24 -0.24)">
       <use xlink:href="#TimesNewRomanPS-BoldMT-31"/>
       <use xlink:href="#TimesNewRomanPS-BoldMT-2e" x="50"/>
       <use xlink:href="#TimesNewRomanPS-BoldMT-30" x="75"/>
      </g>
     </g>
    </g>
    <g id="text_14">
     <!-- The frequency of strategies -->
     <g transform="translate(28.739688 410.502656)rotate(-90)scale(0.26 -0.26)">
      <defs>
       <path id="TimesNewRomanPS-BoldMT-54" d="M 4038 4238 
L 4038 3091 
L 3925 3091 
Q 3825 3488 3703 3661 
Q 3581 3834 3369 3938 
Q 3250 3994 2953 3994 
L 2638 3994 
L 2638 725 
Q 2638 400 2673 319 
Q 2709 238 2814 177 
Q 2919 116 3100 116 
L 3241 116 
L 3241 0 
L 1022 0 
L 1022 116 
L 1163 116 
Q 1347 116 1459 181 
Q 1541 225 1588 331 
Q 1622 406 1622 725 
L 1622 3994 
L 1316 3994 
Q 888 3994 694 3813 
Q 422 3559 350 3091 
L 231 3091 
L 231 4238 
L 4038 4238 
z
" transform="scale(0.015625)"/>
       <path id="TimesNewRomanPS-BoldMT-68" d="M 1409 4238 
L 1409 2547 
Q 1650 2800 1850 2904 
Q 2050 3009 2266 3009 
Q 2541 3009 2736 2853 
Q 2931 2697 2995 2486 
Q 3059 2275 3059 1775 
L 3059 634 
Q 3059 300 3121 217 
Q 3184 134 3375 113 
L 3375 0 
L 1894 0 
L 1894 113 
Q 2050 134 2128 238 
Q 2184 319 2184 634 
L 2184 1938 
Q 2184 2300 2156 2392 
Q 2128 2484 2061 2536 
Q 1994 2588 1909 2588 
Q 1784 2588 1665 2502 
Q 1547 2416 1409 2200 
L 1409 634 
Q 1409 322 1456 244 
Q 1516 138 1700 113 
L 1700 0 
L 219 0 
L 219 113 
Q 403 131 481 231 
Q 534 300 534 634 
L 534 3603 
Q 534 3934 473 4015 
Q 413 4097 219 4122 
L 219 4238 
L 1409 4238 
z
" transform="scale(0.015625)"/>
       <path id="TimesNewRomanPS-BoldMT-65" d="M 2691 1566 
L 1088 1566 
Q 1116 984 1397 647 
Q 1613 388 1916 388 
Q 2103 388 2256 492 
Q 2409 597 2584 869 
L 2691 800 
Q 2453 316 2165 114 
Q 1878 -88 1500 -88 
Q 850 -88 516 413 
Q 247 816 247 1413 
Q 247 2144 642 2576 
Q 1038 3009 1569 3009 
Q 2013 3009 2339 2645 
Q 2666 2281 2691 1566 
z
M 1922 1775 
Q 1922 2278 1867 2465 
Q 1813 2653 1697 2750 
Q 1631 2806 1522 2806 
Q 1359 2806 1256 2647 
Q 1072 2369 1072 1884 
L 1072 1775 
L 1922 1775 
z
" transform="scale(0.015625)"/>
       <path id="TimesNewRomanPS-BoldMT-20" transform="scale(0.015625)"/>
       <path id="TimesNewRomanPS-BoldMT-66" d="M 1497 2616 
L 1497 588 
Q 1497 294 1559 219 
Q 1659 103 1928 113 
L 1928 0 
L 206 0 
L 206 113 
Q 403 116 486 158 
Q 569 200 600 275 
Q 631 350 631 588 
L 631 2616 
L 206 2616 
L 206 2922 
L 631 2922 
L 631 3138 
L 628 3284 
Q 628 3734 958 4034 
Q 1288 4334 1850 4334 
Q 2234 4334 2420 4190 
Q 2606 4047 2606 3872 
Q 2606 3731 2490 3628 
Q 2375 3525 2184 3525 
Q 2022 3525 1926 3609 
Q 1831 3694 1831 3797 
Q 1831 3825 1850 3913 
Q 1863 3966 1863 4013 
Q 1863 4078 1825 4109 
Q 1775 4156 1703 4156 
Q 1613 4156 1552 4081 
Q 1491 4006 1491 3841 
L 1497 3294 
L 1497 2922 
L 1928 2922 
L 1928 2616 
L 1497 2616 
z
" transform="scale(0.015625)"/>
       <path id="TimesNewRomanPS-BoldMT-72" d="M 1428 2922 
L 1428 2259 
Q 1719 2713 1937 2861 
Q 2156 3009 2359 3009 
Q 2534 3009 2639 2901 
Q 2744 2794 2744 2597 
Q 2744 2388 2642 2272 
Q 2541 2156 2397 2156 
Q 2231 2156 2109 2262 
Q 1988 2369 1966 2381 
Q 1934 2400 1894 2400 
Q 1803 2400 1722 2331 
Q 1594 2225 1528 2028 
Q 1428 1725 1428 1359 
L 1428 688 
L 1431 513 
Q 1431 334 1453 284 
Q 1491 200 1564 161 
Q 1638 122 1813 113 
L 1813 0 
L 234 0 
L 234 113 
Q 425 128 492 217 
Q 559 306 559 688 
L 559 2303 
Q 559 2553 534 2622 
Q 503 2709 443 2750 
Q 384 2791 234 2806 
L 234 2922 
L 1428 2922 
z
" transform="scale(0.015625)"/>
       <path id="TimesNewRomanPS-BoldMT-71" d="M 2178 306 
Q 1988 106 1822 25 
Q 1603 -88 1366 -88 
Q 816 -88 497 403 
Q 244 794 244 1338 
Q 244 1791 436 2189 
Q 628 2588 964 2798 
Q 1300 3009 1675 3009 
Q 1925 3009 2120 2925 
Q 2316 2841 2456 2669 
L 2947 3009 
L 3053 3009 
L 3053 -775 
Q 3053 -1063 3103 -1134 
Q 3184 -1250 3431 -1253 
L 3431 -1369 
L 1744 -1369 
L 1744 -1253 
Q 1938 -1253 2025 -1209 
Q 2113 -1166 2145 -1094 
Q 2178 -1022 2178 -800 
L 2178 306 
z
M 2178 591 
L 2178 1794 
Q 2178 2297 2123 2459 
Q 2069 2622 1922 2741 
Q 1847 2800 1731 2800 
Q 1494 2800 1363 2591 
Q 1156 2269 1156 1394 
Q 1156 722 1334 450 
Q 1456 266 1650 266 
Q 1763 266 1905 344 
Q 2047 422 2178 591 
z
" transform="scale(0.015625)"/>
       <path id="TimesNewRomanPS-BoldMT-75" d="M 3038 2922 
L 3038 634 
Q 3038 300 3100 217 
Q 3163 134 3353 113 
L 3353 0 
L 2163 0 
L 2163 391 
Q 1953 141 1743 26 
Q 1534 -88 1275 -88 
Q 1028 -88 836 64 
Q 644 216 578 419 
Q 513 622 513 1128 
L 513 2288 
Q 513 2619 452 2700 
Q 391 2781 197 2806 
L 197 2922 
L 1388 2922 
L 1388 925 
Q 1388 613 1417 522 
Q 1447 431 1511 384 
Q 1575 338 1659 338 
Q 1772 338 1863 397 
Q 1988 478 2163 725 
L 2163 2288 
Q 2163 2619 2102 2700 
Q 2041 2781 1847 2806 
L 1847 2922 
L 3038 2922 
z
" transform="scale(0.015625)"/>
       <path id="TimesNewRomanPS-BoldMT-6e" d="M 1409 2922 
L 1409 2544 
Q 1634 2788 1840 2898 
Q 2047 3009 2284 3009 
Q 2569 3009 2756 2851 
Q 2944 2694 3006 2459 
Q 3056 2281 3056 1775 
L 3056 638 
Q 3056 300 3117 217 
Q 3178 134 3372 113 
L 3372 0 
L 1894 0 
L 1894 113 
Q 2059 134 2131 250 
Q 2181 328 2181 638 
L 2181 1938 
Q 2181 2297 2153 2390 
Q 2125 2484 2058 2536 
Q 1991 2588 1909 2588 
Q 1641 2588 1409 2203 
L 1409 638 
Q 1409 309 1470 221 
Q 1531 134 1697 113 
L 1697 0 
L 219 0 
L 219 113 
Q 403 131 481 231 
Q 534 300 534 638 
L 534 2288 
Q 534 2619 473 2700 
Q 413 2781 219 2806 
L 219 2922 
L 1409 2922 
z
" transform="scale(0.015625)"/>
       <path id="TimesNewRomanPS-BoldMT-63" d="M 2600 753 
L 2697 678 
Q 2491 291 2183 101 
Q 1875 -88 1528 -88 
Q 944 -88 594 353 
Q 244 794 244 1413 
Q 244 2009 563 2463 
Q 947 3009 1622 3009 
Q 2075 3009 2342 2781 
Q 2609 2553 2609 2272 
Q 2609 2094 2501 1987 
Q 2394 1881 2219 1881 
Q 2034 1881 1914 2003 
Q 1794 2125 1766 2438 
Q 1747 2634 1675 2713 
Q 1603 2791 1506 2791 
Q 1356 2791 1250 2631 
Q 1088 2391 1088 1894 
Q 1088 1481 1219 1104 
Q 1350 728 1578 544 
Q 1750 409 1984 409 
Q 2138 409 2275 481 
Q 2413 553 2600 753 
z
" transform="scale(0.015625)"/>
       <path id="TimesNewRomanPS-BoldMT-79" d="M 1556 -119 
L 613 2047 
Q 400 2538 298 2650 
Q 197 2763 53 2806 
L 53 2922 
L 1606 2922 
L 1606 2806 
Q 1453 2800 1390 2747 
Q 1328 2694 1328 2619 
Q 1328 2500 1484 2150 
L 1984 1006 
L 2325 1891 
Q 2509 2363 2509 2547 
Q 2509 2663 2432 2731 
Q 2356 2800 2163 2806 
L 2163 2922 
L 3141 2922 
L 3141 2806 
Q 2997 2791 2906 2695 
Q 2816 2600 2603 2047 
L 1769 -119 
Q 1453 -931 1300 -1119 
Q 1084 -1381 759 -1381 
Q 500 -1381 339 -1232 
Q 178 -1084 178 -875 
Q 178 -694 289 -575 
Q 400 -456 563 -456 
Q 719 -456 814 -556 
Q 909 -656 913 -866 
Q 916 -984 941 -1019 
Q 966 -1053 1013 -1053 
Q 1088 -1053 1172 -963 
Q 1297 -831 1466 -363 
L 1556 -119 
z
" transform="scale(0.015625)"/>
       <path id="TimesNewRomanPS-BoldMT-6f" d="M 1594 3009 
Q 1975 3009 2303 2812 
Q 2631 2616 2801 2253 
Q 2972 1891 2972 1459 
Q 2972 838 2656 419 
Q 2275 -88 1603 -88 
Q 944 -88 587 375 
Q 231 838 231 1447 
Q 231 2075 595 2542 
Q 959 3009 1594 3009 
z
M 1606 2788 
Q 1447 2788 1333 2667 
Q 1219 2547 1183 2192 
Q 1147 1838 1147 1206 
Q 1147 872 1191 581 
Q 1225 359 1337 243 
Q 1450 128 1594 128 
Q 1734 128 1828 206 
Q 1950 313 1991 503 
Q 2053 800 2053 1703 
Q 2053 2234 1993 2432 
Q 1934 2631 1819 2722 
Q 1738 2788 1606 2788 
z
" transform="scale(0.015625)"/>
       <path id="TimesNewRomanPS-BoldMT-73" d="M 2063 3003 
L 2109 2006 
L 2003 2006 
Q 1813 2450 1608 2612 
Q 1403 2775 1200 2775 
Q 1072 2775 981 2689 
Q 891 2603 891 2491 
Q 891 2406 953 2328 
Q 1053 2200 1512 1889 
Q 1972 1578 2117 1361 
Q 2263 1144 2263 875 
Q 2263 631 2141 397 
Q 2019 163 1797 37 
Q 1575 -88 1306 -88 
Q 1097 -88 747 44 
Q 653 78 619 78 
Q 516 78 447 -78 
L 344 -78 
L 294 972 
L 400 972 
Q 541 559 786 353 
Q 1031 147 1250 147 
Q 1400 147 1495 239 
Q 1591 331 1591 463 
Q 1591 613 1497 722 
Q 1403 831 1078 1053 
Q 600 1384 459 1559 
Q 253 1816 253 2125 
Q 253 2463 486 2736 
Q 719 3009 1159 3009 
Q 1397 3009 1619 2894 
Q 1703 2847 1756 2847 
Q 1813 2847 1847 2870 
Q 1881 2894 1956 3003 
L 2063 3003 
z
" transform="scale(0.015625)"/>
       <path id="TimesNewRomanPS-BoldMT-74" d="M 1375 3991 
L 1375 2922 
L 2069 2922 
L 2069 2613 
L 1375 2613 
L 1375 809 
Q 1375 556 1398 482 
Q 1422 409 1481 364 
Q 1541 319 1591 319 
Q 1794 319 1975 628 
L 2069 559 
Q 1816 -41 1247 -41 
Q 969 -41 776 114 
Q 584 269 531 459 
Q 500 566 500 1034 
L 500 2613 
L 119 2613 
L 119 2722 
Q 513 3000 789 3306 
Q 1066 3613 1272 3991 
L 1375 3991 
z
" transform="scale(0.015625)"/>
       <path id="TimesNewRomanPS-BoldMT-61" d="M 1828 431 
Q 1294 -41 869 -41 
Q 619 -41 453 123 
Q 288 288 288 534 
Q 288 869 575 1136 
Q 863 1403 1828 1847 
L 1828 2141 
Q 1828 2472 1792 2558 
Q 1756 2644 1656 2708 
Q 1556 2772 1431 2772 
Q 1228 2772 1097 2681 
Q 1016 2625 1016 2550 
Q 1016 2484 1103 2388 
Q 1222 2253 1222 2128 
Q 1222 1975 1108 1867 
Q 994 1759 809 1759 
Q 613 1759 480 1878 
Q 347 1997 347 2156 
Q 347 2381 525 2586 
Q 703 2791 1022 2900 
Q 1341 3009 1684 3009 
Q 2100 3009 2342 2832 
Q 2584 2656 2656 2450 
Q 2700 2319 2700 1847 
L 2700 713 
Q 2700 513 2715 461 
Q 2731 409 2762 384 
Q 2794 359 2834 359 
Q 2916 359 3000 475 
L 3094 400 
Q 2938 169 2770 64 
Q 2603 -41 2391 -41 
Q 2141 -41 2000 76 
Q 1859 194 1828 431 
z
M 1828 659 
L 1828 1638 
Q 1450 1416 1266 1163 
Q 1144 994 1144 822 
Q 1144 678 1247 569 
Q 1325 484 1466 484 
Q 1622 484 1828 659 
z
" transform="scale(0.015625)"/>
       <path id="TimesNewRomanPS-BoldMT-67" d="M 2091 2888 
L 3075 2888 
L 3075 2544 
L 2516 2544 
Q 2669 2391 2728 2266 
Q 2803 2097 2803 1913 
Q 2803 1600 2629 1370 
Q 2456 1141 2157 1011 
Q 1859 881 1628 881 
Q 1609 881 1253 897 
Q 1113 897 1017 805 
Q 922 713 922 584 
Q 922 472 1008 400 
Q 1094 328 1288 328 
L 1828 334 
Q 2484 334 2731 191 
Q 3084 -9 3084 -425 
Q 3084 -691 2921 -908 
Q 2759 -1125 2494 -1228 
Q 2091 -1381 1566 -1381 
Q 1172 -1381 847 -1304 
Q 522 -1228 381 -1092 
Q 241 -956 241 -806 
Q 241 -663 348 -548 
Q 456 -434 750 -356 
Q 344 -156 344 200 
Q 344 416 509 619 
Q 675 822 1034 972 
Q 616 1125 428 1375 
Q 241 1625 241 1953 
Q 241 2381 591 2695 
Q 941 3009 1491 3009 
Q 1781 3009 2091 2888 
z
M 1550 2816 
Q 1369 2816 1244 2633 
Q 1119 2450 1119 1875 
Q 1119 1409 1242 1236 
Q 1366 1063 1534 1063 
Q 1722 1063 1847 1234 
Q 1972 1406 1972 1903 
Q 1972 2463 1831 2666 
Q 1731 2816 1550 2816 
z
M 1366 -431 
Q 1047 -431 944 -484 
Q 766 -581 766 -747 
Q 766 -906 950 -1036 
Q 1134 -1166 1644 -1166 
Q 2078 -1166 2326 -1050 
Q 2575 -934 2575 -725 
Q 2575 -647 2528 -594 
Q 2444 -500 2273 -465 
Q 2103 -431 1366 -431 
z
" transform="scale(0.015625)"/>
       <path id="TimesNewRomanPS-BoldMT-69" d="M 919 4338 
Q 1122 4338 1262 4195 
Q 1403 4053 1403 3853 
Q 1403 3653 1261 3512 
Q 1119 3372 919 3372 
Q 719 3372 578 3512 
Q 438 3653 438 3853 
Q 438 4053 578 4195 
Q 719 4338 919 4338 
z
M 1356 2922 
L 1356 606 
Q 1356 297 1428 211 
Q 1500 125 1709 113 
L 1709 0 
L 131 0 
L 131 113 
Q 325 119 419 225 
Q 481 297 481 606 
L 481 2313 
Q 481 2622 409 2708 
Q 338 2794 131 2806 
L 131 2922 
L 1356 2922 
z
" transform="scale(0.015625)"/>
      </defs>
      <use xlink:href="#TimesNewRomanPS-BoldMT-54"/>
      <use xlink:href="#TimesNewRomanPS-BoldMT-68" x="66.699219"/>
      <use xlink:href="#TimesNewRomanPS-BoldMT-65" x="122.314453"/>
      <use xlink:href="#TimesNewRomanPS-BoldMT-20" x="166.699219"/>
      <use xlink:href="#TimesNewRomanPS-BoldMT-66" x="191.699219"/>
      <use xlink:href="#TimesNewRomanPS-BoldMT-72" x="225"/>
      <use xlink:href="#TimesNewRomanPS-BoldMT-65" x="267.634766"/>
      <use xlink:href="#TimesNewRomanPS-BoldMT-71" x="312.019531"/>
      <use xlink:href="#TimesNewRomanPS-BoldMT-75" x="367.634766"/>
      <use xlink:href="#TimesNewRomanPS-BoldMT-65" x="423.25"/>
      <use xlink:href="#TimesNewRomanPS-BoldMT-6e" x="467.634766"/>
      <use xlink:href="#TimesNewRomanPS-BoldMT-63" x="523.25"/>
      <use xlink:href="#TimesNewRomanPS-BoldMT-79" x="567.634766"/>
      <use xlink:href="#TimesNewRomanPS-BoldMT-20" x="617.634766"/>
      <use xlink:href="#TimesNewRomanPS-BoldMT-6f" x="642.634766"/>
      <use xlink:href="#TimesNewRomanPS-BoldMT-66" x="692.634766"/>
      <use xlink:href="#TimesNewRomanPS-BoldMT-20" x="725.935547"/>
      <use xlink:href="#TimesNewRomanPS-BoldMT-73" x="750.935547"/>
      <use xlink:href="#TimesNewRomanPS-BoldMT-74" x="789.851562"/>
      <use xlink:href="#TimesNewRomanPS-BoldMT-72" x="823.152344"/>
      <use xlink:href="#TimesNewRomanPS-BoldMT-61" x="867.537109"/>
      <use xlink:href="#TimesNewRomanPS-BoldMT-74" x="917.537109"/>
      <use xlink:href="#TimesNewRomanPS-BoldMT-65" x="950.837891"/>
      <use xlink:href="#TimesNewRomanPS-BoldMT-67" x="995.222656"/>
      <use xlink:href="#TimesNewRomanPS-BoldMT-69" x="1045.222656"/>
      <use xlink:href="#TimesNewRomanPS-BoldMT-65" x="1073.005859"/>
      <use xlink:href="#TimesNewRomanPS-BoldMT-73" x="1117.390625"/>
     </g>
    </g>
   </g>
   <g id="line2d_13">
    <path d="M 104.161364 33.470909 
L 106.088545 43.012981 
L 108.015727 50.677416 
L 109.942908 56.657355 
L 111.87009 61.145939 
L 113.797271 64.33631 
L 115.724453 66.42161 
L 117.651634 67.594978 
L 119.578816 68.049558 
L 121.505997 67.97849 
L 123.433179 67.574916 
L 127.287542 66.542812 
L 129.214723 66.254856 
L 131.141905 66.153371 
L 134.996268 66.30703 
L 140.777812 66.681599 
L 146.559357 66.697009 
L 154.268083 66.676568 
L 167.758354 66.78557 
L 177.394261 66.866245 
L 190.884532 67.066567 
L 202.447621 67.196496 
L 221.719436 67.471148 
L 231.355344 67.532659 
L 240.991251 67.378277 
L 250.627159 67.647325 
L 252.55434 67.430248 
L 254.481522 67.001471 
L 258.335885 65.803415 
L 260.263066 65.440676 
L 262.190248 65.518406 
L 264.117429 66.248813 
L 266.044611 67.84035 
L 269.898974 72.449564 
L 271.826155 73.90165 
L 273.753337 73.69907 
L 275.680518 71.027088 
L 277.6077 65.088372 
L 281.462063 47.891323 
L 283.389244 42.518701 
L 285.316426 43.367907 
L 287.243607 53.492362 
L 289.170789 75.902636 
L 291.097971 110.773149 
L 293.025152 153.722605 
L 296.879515 244.688487 
L 298.806697 283.119987 
L 300.733878 310.511528 
L 302.66106 325.037091 
L 304.588241 329.309978 
L 306.515423 326.316207 
L 308.442604 319.041793 
L 310.369786 310.472754 
L 312.296967 303.566082 
L 314.224149 299.829989 
L 316.15133 298.680937 
L 318.078512 299.372308 
L 320.005693 301.157484 
L 321.932875 303.289846 
L 323.860056 305.031239 
L 325.787238 306.01495 
L 327.714419 306.382911 
L 329.641601 306.313807 
L 335.423145 305.268508 
L 337.350327 305.13573 
L 341.20469 305.227444 
L 346.986234 305.505453 
L 356.622142 305.342939 
L 360.476505 305.7517 
L 364.330868 306.254017 
L 366.25805 306.347447 
L 368.185231 306.232211 
L 370.112413 305.836502 
L 373.966776 304.749544 
L 375.893957 304.61212 
L 377.821139 305.120902 
L 379.74832 306.557517 
L 381.675502 309.191301 
L 383.602683 312.980458 
L 385.529865 317.555394 
L 389.384228 327.521716 
L 391.311409 332.142659 
L 393.238591 336.018301 
L 395.165772 338.99873 
L 397.092954 341.159542 
L 399.020135 342.586139 
L 400.947317 343.363919 
L 402.874498 343.578284 
L 404.80168 343.316076 
L 406.728861 342.694364 
L 412.510406 340.13435 
L 414.437587 339.539035 
L 416.364769 339.309599 
L 418.29195 339.432251 
L 424.073495 340.379244 
L 426.000676 340.366922 
L 427.927858 339.940092 
L 429.85504 339.128307 
L 435.636584 336.201806 
L 437.563766 335.678468 
L 439.490947 335.676977 
L 441.418129 336.172528 
L 443.34531 336.980165 
L 447.199673 338.773374 
L 449.126855 339.379789 
L 451.054036 339.553973 
L 452.981218 339.32988 
L 456.835581 338.472003 
L 458.762762 338.237011 
L 460.689944 338.397181 
L 462.617125 339.134684 
L 464.544307 340.393312 
L 470.325851 344.977188 
L 472.253033 345.993628 
L 474.180214 346.38226 
L 476.107396 346.162911 
L 478.034577 345.518659 
L 483.816122 342.89999 
L 485.743303 342.404911 
L 487.670485 342.211947 
L 495.379211 342.065298 
L 497.306393 341.59496 
L 501.160756 340.088628 
L 503.087937 339.345286 
L 505.015119 338.804569 
L 506.9423 338.613533 
L 508.869482 338.903302 
L 510.796663 339.640478 
L 512.723845 340.694613 
L 518.505389 344.441711 
L 520.432571 345.454444 
L 522.359752 346.216557 
L 524.286934 346.721564 
L 526.214115 346.963437 
L 528.141297 346.936151 
L 530.068478 346.633678 
L 531.99566 346.057315 
L 535.850023 344.386626 
L 539.704386 342.707169 
L 541.631567 342.120165 
L 543.558749 341.821951 
L 545.48593 341.762038 
L 549.340293 341.880808 
L 551.267475 341.820575 
L 553.194656 341.521319 
L 555.121838 340.887529 
L 560.903382 338.270619 
L 562.830564 337.770412 
L 564.757746 337.761827 
L 566.684927 338.393241 
L 568.612109 339.554618 
L 574.393653 343.957714 
L 576.320835 344.977042 
L 578.248016 345.430288 
L 580.175198 345.372318 
L 582.102379 344.962138 
L 587.883924 343.212172 
L 589.811105 342.962701 
L 591.738287 342.951287 
L 599.447013 343.559293 
L 601.374194 343.459731 
L 605.228557 342.912879 
L 609.08292 342.405324 
L 611.010102 342.354957 
L 612.937283 342.524634 
L 614.864465 342.880546 
L 622.573191 344.825716 
L 626.427554 345.310282 
L 632.209099 345.766797 
L 634.13628 346.061242 
L 636.063462 346.504432 
L 639.917825 347.747231 
L 647.626551 350.616353 
L 649.553732 351.082168 
L 651.480914 351.197735 
L 653.408095 350.810566 
L 655.335277 349.76817 
L 657.262458 347.918056 
L 661.116821 342.403444 
L 663.044003 340.194231 
L 664.971184 339.441964 
L 666.898366 340.965313 
L 668.825547 345.582942 
L 670.752729 354.11352 
L 672.67991 367.375714 
L 674.607092 386.188189 
L 676.534273 411.369614 
L 678.461455 443.738655 
L 680.388636 484.113979 
L 680.388636 484.113979 
" clip-path="url(#p66cb28d009)" style="fill: none; stroke: #264385; stroke-width: 3; stroke-linecap: square"/>
   </g>
   <g id="line2d_14">
    <path d="M 104.161364 484.113979 
L 106.088545 474.571907 
L 108.015727 466.907472 
L 109.942908 460.927533 
L 111.87009 456.438949 
L 113.797271 453.248578 
L 115.724453 451.163278 
L 117.651634 449.98991 
L 119.578816 449.53533 
L 121.505997 449.606398 
L 123.433179 450.009972 
L 127.287542 451.042076 
L 129.214723 451.330032 
L 131.141905 451.431517 
L 134.996268 451.277858 
L 140.777812 450.903289 
L 146.559357 450.887879 
L 154.268083 450.90832 
L 167.758354 450.799318 
L 177.394261 450.718643 
L 190.884532 450.518321 
L 202.447621 450.388392 
L 221.719436 450.11374 
L 231.355344 450.052229 
L 240.991251 450.206611 
L 250.627159 449.937562 
L 252.55434 450.154639 
L 254.481522 450.583417 
L 258.335885 451.781474 
L 260.263066 452.144214 
L 262.190248 452.066484 
L 264.117429 451.336075 
L 266.044611 449.744538 
L 269.898974 445.13532 
L 271.826155 443.683233 
L 273.753337 443.885812 
L 275.680518 446.557797 
L 277.6077 452.496518 
L 281.462063 469.693582 
L 283.389244 475.066208 
L 285.316426 474.217001 
L 287.243607 464.092538 
L 289.170789 441.682245 
L 291.097971 406.811703 
L 293.025152 363.862221 
L 296.879515 272.896325 
L 298.806697 234.464859 
L 300.733878 207.073389 
L 302.66106 192.54793 
L 304.588241 188.275144 
L 306.515423 191.268978 
L 308.442604 198.543377 
L 310.369786 207.11229 
L 312.296967 214.018689 
L 314.224149 217.754393 
L 316.15133 218.90307 
L 318.078512 218.211472 
L 320.005693 216.426355 
L 321.932875 214.294473 
L 323.860056 212.554112 
L 325.787238 211.571855 
L 327.714419 211.20529 
L 329.641601 211.275223 
L 335.423145 212.314555 
L 337.350327 212.441889 
L 341.20469 212.341957 
L 345.059053 212.116898 
L 348.913416 212.137276 
L 354.69496 212.338003 
L 356.622142 212.269175 
L 358.549324 212.058611 
L 364.330868 211.114476 
L 366.25805 211.038017 
L 368.185231 211.254075 
L 370.112413 211.858829 
L 373.966776 213.496354 
L 375.893957 213.781531 
L 377.821139 213.204119 
L 379.74832 211.383968 
L 381.675502 207.96246 
L 383.602683 203.126056 
L 387.457046 192.278889 
L 389.384228 187.844355 
L 391.311409 185.120005 
L 393.238591 184.862017 
L 395.165772 187.091978 
L 397.092954 191.09689 
L 402.874498 206.311952 
L 404.80168 209.992058 
L 406.728861 212.291486 
L 408.656043 213.502701 
L 410.583224 213.937651 
L 412.510406 213.908281 
L 414.437587 213.726538 
L 416.364769 213.694889 
L 418.29195 213.93389 
L 420.219132 214.400215 
L 422.146313 215.044679 
L 426.000676 216.671289 
L 429.85504 218.40042 
L 431.782221 219.130035 
L 433.709403 219.662481 
L 435.636584 219.917242 
L 437.563766 219.813805 
L 439.490947 219.281113 
L 441.418129 218.401464 
L 445.272492 216.431753 
L 447.199673 215.762308 
L 449.126855 215.583549 
L 451.054036 216.089415 
L 452.981218 217.228943 
L 454.908399 218.762637 
L 458.762762 222.03515 
L 460.689944 223.285281 
L 462.617125 223.965731 
L 464.544307 224.0329 
L 466.471488 223.579908 
L 468.39867 222.702988 
L 470.325851 221.498374 
L 474.180214 218.494007 
L 476.107396 216.931323 
L 478.034577 215.5388 
L 479.961759 214.481527 
L 481.88894 213.924591 
L 483.816122 214.03308 
L 485.743303 214.951716 
L 487.670485 216.582654 
L 489.597666 218.668746 
L 493.452029 223.166655 
L 495.379211 225.058607 
L 497.306393 226.384184 
L 499.233574 227.103393 
L 501.160756 227.301822 
L 503.087937 227.066961 
L 505.015119 226.486297 
L 506.9423 225.647319 
L 510.796663 223.541483 
L 514.651026 221.428245 
L 516.578208 220.578757 
L 518.505389 219.979304 
L 520.432571 219.706779 
L 522.359752 219.769995 
L 524.286934 220.139716 
L 526.214115 220.786292 
L 528.141297 221.680072 
L 530.068478 222.791405 
L 533.922841 225.465056 
L 535.850023 226.809831 
L 537.777204 227.994311 
L 539.704386 228.894229 
L 541.631567 229.38532 
L 543.558749 229.366212 
L 545.48593 228.928295 
L 551.267475 226.984046 
L 553.194656 226.754691 
L 555.121838 227.018325 
L 557.049019 227.689789 
L 560.903382 229.454203 
L 562.830564 230.145113 
L 564.757746 230.440464 
L 566.684927 230.171202 
L 568.612109 229.404525 
L 570.53929 228.313517 
L 574.393653 225.85285 
L 576.320835 224.830359 
L 578.248016 224.156021 
L 580.175198 223.830033 
L 582.102379 223.788389 
L 584.029561 223.966854 
L 587.883924 224.727168 
L 593.665468 226.03735 
L 597.519831 226.601019 
L 599.447013 226.695263 
L 601.374194 226.63282 
L 609.08292 225.912682 
L 611.010102 225.949657 
L 612.937283 226.194386 
L 614.864465 226.62667 
L 618.718828 227.867156 
L 624.500372 229.968604 
L 628.354735 231.034541 
L 630.281917 231.362067 
L 632.209099 231.50779 
L 634.13628 231.438078 
L 636.063462 231.134778 
L 639.917825 230.094973 
L 643.772188 229.048541 
L 645.699369 228.736968 
L 649.553732 228.555924 
L 651.480914 228.251595 
L 653.408095 227.470318 
L 655.335277 225.961281 
L 657.262458 223.473674 
L 661.116821 216.575776 
L 663.044003 214.576063 
L 664.971184 215.350343 
L 666.898366 220.254495 
L 668.825547 230.644401 
L 670.752729 247.875942 
L 672.67991 273.304997 
L 674.607092 308.287448 
L 676.534273 354.179174 
L 678.461455 412.336058 
L 680.388636 484.113979 
L 680.388636 484.113979 
" clip-path="url(#p66cb28d009)" style="fill: none; stroke: #e23e35; stroke-width: 3; stroke-linecap: square"/>
   </g>
   <g id="line2d_15">
    <path d="M 104.161364 484.113979 
L 360.476505 484.21836 
L 364.330868 484.330375 
L 368.185231 484.212582 
L 372.039594 483.718584 
L 373.966776 483.452969 
L 375.893957 483.305216 
L 377.821139 483.373846 
L 379.74832 483.757382 
L 381.675502 484.545106 
L 383.602683 485.592353 
L 385.529865 486.507979 
L 387.457046 486.889091 
L 389.384228 486.332797 
L 391.311409 484.436202 
L 393.238591 480.818549 
L 395.165772 475.608159 
L 400.947317 456.883133 
L 402.874498 451.80863 
L 404.80168 448.390733 
L 406.728861 446.713018 
L 408.656043 446.337257 
L 410.583224 446.80461 
L 414.437587 448.433294 
L 416.364769 448.694378 
L 418.29195 448.332726 
L 420.219132 447.543044 
L 424.073495 445.501525 
L 426.000676 444.660656 
L 427.927858 444.204627 
L 429.85504 444.17014 
L 431.782221 444.457343 
L 435.636584 445.579819 
L 439.490947 446.740776 
L 441.418129 447.124875 
L 443.34531 447.337128 
L 445.272492 447.356808 
L 447.199673 447.163184 
L 449.126855 446.73553 
L 451.054036 446.055478 
L 452.981218 445.140044 
L 454.908399 444.033472 
L 458.762762 441.426705 
L 464.544307 437.272655 
L 466.471488 436.176184 
L 468.39867 435.44706 
L 470.325851 435.223305 
L 472.253033 435.642939 
L 474.180214 436.8226 
L 476.107396 438.604633 
L 479.961759 442.581485 
L 481.88894 444.073427 
L 483.816122 444.765797 
L 485.743303 444.34224 
L 487.670485 442.904266 
L 489.597666 440.827815 
L 493.452029 436.282427 
L 495.379211 434.574963 
L 497.306393 433.719723 
L 499.233574 433.707936 
L 501.160756 434.308417 
L 503.087937 435.28662 
L 506.9423 437.438015 
L 508.869482 438.158253 
L 510.796663 438.516905 
L 512.723845 438.560447 
L 514.651026 438.336623 
L 516.578208 437.893176 
L 518.505389 437.277852 
L 522.359752 435.712315 
L 530.068478 432.273783 
L 531.99566 431.557301 
L 533.922841 430.959542 
L 535.850023 430.50241 
L 537.777204 430.207765 
L 539.704386 430.097468 
L 541.631567 430.193382 
L 543.558749 430.510704 
L 547.413112 431.617875 
L 551.267475 432.894246 
L 553.194656 433.422858 
L 555.121838 433.793013 
L 557.049019 433.996556 
L 558.976201 434.051008 
L 560.903382 433.974045 
L 564.757746 433.496577 
L 572.466472 432.06384 
L 574.393653 431.888303 
L 576.320835 431.891467 
L 578.248016 432.112557 
L 585.956742 433.674993 
L 587.883924 433.759527 
L 589.811105 433.552391 
L 593.665468 432.569849 
L 595.59265 432.030255 
L 597.519831 431.615749 
L 599.447013 431.444311 
L 601.374194 431.606315 
L 605.228557 432.552985 
L 607.155739 433.052971 
L 609.08292 433.38086 
L 611.010102 433.394253 
L 612.937283 432.979847 
L 614.864465 432.191651 
L 616.791646 431.143366 
L 622.573191 427.575692 
L 624.500372 426.608522 
L 626.427554 425.829743 
L 628.354735 425.219417 
L 630.281917 424.757582 
L 634.13628 424.199547 
L 643.772188 423.429379 
L 645.699369 423.009123 
L 647.626551 422.448399 
L 649.553732 422.060775 
L 651.480914 422.249536 
L 653.408095 423.417983 
L 655.335277 425.969416 
L 657.262458 430.307137 
L 661.116821 442.719647 
L 663.044003 446.928573 
L 664.971184 446.90656 
L 666.898366 440.479059 
L 668.825547 425.471523 
L 670.752729 399.709405 
L 672.67991 361.018156 
L 674.607092 307.22323 
L 676.534273 236.150079 
L 678.461455 145.624154 
L 680.388636 33.470909 
L 680.388636 33.470909 
" clip-path="url(#p66cb28d009)" style="fill: none; stroke: #dbb428; stroke-width: 3; stroke-linecap: square"/>
   </g>
   <g id="line2d_16">
    <path d="M 104.161364 33.470909 
L 106.088545 43.01076 
L 108.015727 50.673677 
L 109.942908 56.652761 
L 111.87009 61.141113 
L 113.797271 64.331834 
L 115.724453 66.418027 
L 117.651634 67.592793 
L 119.578816 68.049234 
L 121.505997 67.98045 
L 123.433179 67.579543 
L 127.287542 66.553765 
L 129.214723 66.269415 
L 131.141905 66.171901 
L 134.996268 66.335003 
L 140.777812 66.728741 
L 146.559357 66.760552 
L 156.195265 66.734522 
L 233.282525 67.438903 
L 239.06407 67.291155 
L 242.918433 67.370898 
L 248.699977 67.680626 
L 250.627159 67.640042 
L 252.55434 67.435667 
L 254.481522 67.013162 
L 258.335885 65.807159 
L 260.263066 65.434369 
L 262.190248 65.500996 
L 264.117429 66.221497 
L 266.044611 67.806561 
L 269.898974 72.416153 
L 271.826155 73.873661 
L 273.753337 73.678913 
L 275.680518 71.016363 
L 277.6077 65.087875 
L 281.462063 47.913632 
L 283.389244 42.55507 
L 285.316426 43.421156 
L 287.243607 53.566098 
L 289.170789 76.001088 
L 291.097971 110.890277 
L 293.025152 153.824602 
L 296.879515 244.541421 
L 298.806697 282.680298 
L 300.733878 309.62888 
L 302.66106 323.581362 
L 304.588241 327.245434 
L 306.515423 323.707724 
L 308.442604 316.054863 
L 310.369786 307.373479 
L 312.296967 300.71922 
L 314.224149 297.601221 
L 316.15133 297.295766 
L 318.078512 298.905058 
L 321.932875 304.276687 
L 323.860056 306.254636 
L 325.787238 307.070486 
L 327.714419 307.003209 
L 329.641601 306.380456 
L 333.495964 304.779122 
L 335.423145 304.450453 
L 337.350327 304.656651 
L 339.277508 305.238379 
L 345.059053 307.461497 
L 346.986234 307.773612 
L 348.913416 307.702347 
L 350.840597 307.345365 
L 358.549324 305.19623 
L 360.476505 304.936459 
L 364.330868 304.734009 
L 368.185231 304.593046 
L 372.039594 304.213849 
L 373.966776 304.188696 
L 375.893957 304.5427 
L 377.821139 305.479699 
L 379.74832 307.20353 
L 381.675502 309.909373 
L 383.602683 313.573231 
L 385.529865 317.940193 
L 393.238591 337.1256 
L 395.165772 341.147244 
L 397.092954 344.630832 
L 399.020135 347.546684 
L 400.947317 349.865121 
L 402.874498 351.556462 
L 404.80168 352.595661 
L 406.728861 353.054827 
L 408.656043 353.098292 
L 414.437587 352.414213 
L 416.364769 352.46743 
L 418.29195 352.792697 
L 426.000676 354.748494 
L 427.927858 354.88077 
L 435.636584 354.629247 
L 437.563766 355.066492 
L 439.490947 355.97093 
L 441.418129 357.269446 
L 445.272492 360.100873 
L 447.199673 361.152822 
L 449.126855 361.641619 
L 451.054036 361.345458 
L 452.981218 360.321975 
L 454.908399 358.84392 
L 458.762762 355.637225 
L 460.689944 354.465152 
L 462.617125 353.934718 
L 464.544307 354.073122 
L 466.471488 354.736556 
L 468.39867 355.777319 
L 476.107396 360.838433 
L 478.034577 361.800264 
L 479.961759 362.536247 
L 481.88894 363.005888 
L 483.816122 363.168695 
L 485.743303 362.991941 
L 487.670485 362.535364 
L 493.452029 360.695627 
L 495.379211 360.33081 
L 497.306393 360.279387 
L 499.233574 360.501393 
L 505.015119 361.480602 
L 506.9423 361.466154 
L 508.869482 361.075741 
L 510.796663 360.369226 
L 514.651026 358.664864 
L 516.578208 357.997518 
L 518.505389 357.673728 
L 520.432571 357.838454 
L 522.359752 358.441175 
L 526.214115 360.320347 
L 528.141297 361.274882 
L 530.068478 362.024771 
L 531.99566 362.42758 
L 533.922841 362.507601 
L 537.777204 362.150176 
L 539.704386 361.939382 
L 541.631567 361.858303 
L 543.558749 362.007718 
L 545.48593 362.382759 
L 549.340293 363.578167 
L 555.121838 365.616792 
L 558.976201 366.672945 
L 562.830564 367.466093 
L 566.684927 368.029249 
L 570.53929 368.34234 
L 574.393653 368.31634 
L 576.320835 368.14692 
L 580.175198 367.519658 
L 584.029561 366.920242 
L 585.956742 366.808052 
L 587.883924 366.915331 
L 589.811105 367.296934 
L 591.738287 367.903624 
L 599.447013 370.76215 
L 601.374194 371.143827 
L 603.301376 371.31956 
L 605.228557 371.331835 
L 609.08292 371.036199 
L 614.864465 370.405806 
L 618.718828 370.197866 
L 622.573191 370.351583 
L 626.427554 370.927364 
L 630.281917 371.51332 
L 632.209099 371.638545 
L 634.13628 371.560429 
L 636.063462 371.235289 
L 641.845006 369.77162 
L 643.772188 369.532892 
L 645.699369 369.62471 
L 647.626551 370.118561 
L 651.480914 371.525475 
L 653.408095 371.93312 
L 655.335277 371.806604 
L 657.262458 370.893209 
L 659.18964 369.083755 
L 661.116821 366.916471 
L 663.044003 365.112035 
L 664.971184 364.391136 
L 666.898366 365.474464 
L 668.825547 369.082707 
L 670.752729 375.936555 
L 672.67991 386.756696 
L 674.607092 402.26382 
L 676.534273 423.178616 
L 678.461455 450.221772 
L 680.388636 484.113979 
L 680.388636 484.113979 
" clip-path="url(#p66cb28d009)" style="fill: none; stroke-dasharray: 11.1,4.8; stroke-dashoffset: 0; stroke: #85c7e5; stroke-width: 3"/>
   </g>
   <g id="line2d_17">
    <path d="M 104.161364 484.113979 
L 106.088545 474.574128 
L 108.015727 466.911211 
L 109.942908 460.932127 
L 111.87009 456.443776 
L 113.797271 453.253054 
L 115.724453 451.166861 
L 117.651634 449.992095 
L 119.578816 449.535654 
L 121.505997 449.604438 
L 123.433179 450.005345 
L 127.287542 451.031123 
L 129.214723 451.315473 
L 131.141905 451.412987 
L 134.996268 451.249885 
L 140.777812 450.856147 
L 146.559357 450.824336 
L 156.195265 450.850366 
L 233.282525 450.145985 
L 239.06407 450.293733 
L 242.918433 450.21399 
L 248.699977 449.904262 
L 250.627159 449.944846 
L 252.55434 450.149221 
L 254.481522 450.571726 
L 258.335885 451.777729 
L 260.263066 452.150519 
L 262.190248 452.083892 
L 264.117429 451.363391 
L 266.044611 449.778328 
L 269.898974 445.168735 
L 271.826155 443.711227 
L 273.753337 443.905975 
L 275.680518 446.568525 
L 277.6077 452.497013 
L 281.462063 469.671256 
L 283.389244 475.029818 
L 285.316426 474.163732 
L 287.243607 464.01879 
L 289.170789 441.5838 
L 291.097971 406.694611 
L 293.025152 363.760286 
L 296.879515 273.043467 
L 298.806697 234.90459 
L 300.733878 207.956008 
L 302.66106 194.003526 
L 304.588241 190.339454 
L 306.515423 193.877164 
L 308.442604 201.530025 
L 310.369786 210.211409 
L 312.296967 216.865668 
L 314.224149 219.983667 
L 316.15133 220.289122 
L 318.078512 218.67983 
L 321.932875 213.308201 
L 323.860056 211.330252 
L 325.787238 210.514403 
L 327.714419 210.581679 
L 329.641601 211.204432 
L 333.495964 212.805766 
L 335.423145 213.134435 
L 337.350327 212.928237 
L 339.277508 212.346509 
L 345.059053 210.123391 
L 346.986234 209.811276 
L 348.913416 209.882541 
L 350.840597 210.239523 
L 358.549324 212.388658 
L 360.476505 212.648429 
L 364.330868 212.850879 
L 368.185231 212.991842 
L 372.039594 213.371039 
L 373.966776 213.396192 
L 375.893957 213.042188 
L 377.821139 212.105189 
L 379.74832 210.381358 
L 381.675502 207.675515 
L 383.602683 204.011657 
L 385.529865 199.644695 
L 393.238591 180.459288 
L 395.165772 176.437644 
L 397.092954 172.954056 
L 399.020135 170.038204 
L 400.947317 167.719767 
L 402.874498 166.028426 
L 404.80168 164.989227 
L 406.728861 164.530061 
L 408.656043 164.486596 
L 414.437587 165.170675 
L 416.364769 165.117458 
L 418.29195 164.792191 
L 426.000676 162.836394 
L 427.927858 162.704118 
L 435.636584 162.955641 
L 437.563766 162.518396 
L 439.490947 161.613958 
L 441.418129 160.315442 
L 445.272492 157.484015 
L 447.199673 156.432066 
L 449.126855 155.943269 
L 451.054036 156.23943 
L 452.981218 157.262913 
L 454.908399 158.740968 
L 458.762762 161.947663 
L 460.689944 163.119736 
L 462.617125 163.65017 
L 464.544307 163.511766 
L 466.471488 162.848332 
L 468.39867 161.807569 
L 476.107396 156.746455 
L 478.034577 155.784624 
L 479.961759 155.048641 
L 481.88894 154.579 
L 483.816122 154.416193 
L 485.743303 154.592947 
L 487.670485 155.049524 
L 493.452029 156.889261 
L 495.379211 157.254078 
L 497.306393 157.305501 
L 499.233574 157.083495 
L 505.015119 156.104286 
L 506.9423 156.118734 
L 508.869482 156.509147 
L 510.796663 157.215662 
L 514.651026 158.920024 
L 516.578208 159.58737 
L 518.505389 159.91116 
L 520.432571 159.746434 
L 522.359752 159.143713 
L 526.214115 157.264541 
L 528.141297 156.310006 
L 530.068478 155.560117 
L 531.99566 155.157308 
L 533.922841 155.077287 
L 537.777204 155.434712 
L 539.704386 155.645506 
L 541.631567 155.726585 
L 543.558749 155.57717 
L 545.48593 155.202129 
L 549.340293 154.006721 
L 555.121838 151.968096 
L 558.976201 150.911943 
L 562.830564 150.118795 
L 566.684927 149.555639 
L 570.53929 149.242548 
L 574.393653 149.268548 
L 576.320835 149.437968 
L 580.175198 150.06523 
L 584.029561 150.664646 
L 585.956742 150.776836 
L 587.883924 150.669557 
L 589.811105 150.287954 
L 591.738287 149.681264 
L 599.447013 146.822739 
L 601.374194 146.441061 
L 603.301376 146.265328 
L 605.228557 146.253053 
L 609.08292 146.548689 
L 614.864465 147.179082 
L 618.718828 147.387022 
L 622.573191 147.233305 
L 626.427554 146.657524 
L 630.281917 146.071568 
L 632.209099 145.946343 
L 634.13628 146.024459 
L 636.063462 146.349599 
L 641.845006 147.813268 
L 643.772188 148.051996 
L 645.699369 147.960178 
L 647.626551 147.466327 
L 651.480914 146.059413 
L 653.408095 145.651768 
L 655.335277 145.778284 
L 657.262458 146.691679 
L 659.18964 148.501133 
L 661.116821 150.668417 
L 663.044003 152.472853 
L 664.971184 153.193752 
L 666.898366 152.110424 
L 668.825547 148.502181 
L 670.752729 141.648333 
L 672.67991 130.828192 
L 674.607092 115.321068 
L 676.534273 94.406272 
L 678.461455 67.363116 
L 680.388636 33.470909 
L 680.388636 33.470909 
" clip-path="url(#p66cb28d009)" style="fill: none; stroke-dasharray: 11.1,4.8; stroke-dashoffset: 0; stroke: #f39fa2; stroke-width: 3"/>
   </g>
   <g id="line2d_18">
    <path d="M 104.161364 484.113979 
L 680.388636 484.113979 
L 680.388636 484.113979 
" clip-path="url(#p66cb28d009)" style="fill: none; stroke-dasharray: 11.1,4.8; stroke-dashoffset: 0; stroke: #eae936; stroke-width: 3"/>
   </g>
   <g id="patch_3">
    <path d="M 75.35 509.56 
L 75.35 10.8 
" style="fill: none; stroke: #000000; stroke-width: 0.8; stroke-linejoin: miter; stroke-linecap: square"/>
   </g>
   <g id="patch_4">
    <path d="M 709.2 509.56 
L 709.2 10.8 
" style="fill: none; stroke: #000000; stroke-width: 0.8; stroke-linejoin: miter; stroke-linecap: square"/>
   </g>
   <g id="patch_5">
    <path d="M 75.35 509.56 
L 709.2 509.56 
" style="fill: none; stroke: #000000; stroke-width: 0.8; stroke-linejoin: miter; stroke-linecap: square"/>
   </g>
   <g id="patch_6">
    <path d="M 75.35 10.8 
L 709.2 10.8 
" style="fill: none; stroke: #000000; stroke-width: 0.8; stroke-linejoin: miter; stroke-linecap: square"/>
   </g>
   <g id="legend_1">
    <g id="patch_7">
     <path d="M 87.95 339.230938 
L 281.039375 339.230938 
Q 284.639375 339.230938 284.639375 335.630938 
L 284.639375 184.729063 
Q 284.639375 181.129063 281.039375 181.129063 
L 87.95 181.129063 
Q 84.35 181.129063 84.35 184.729063 
L 84.35 335.630938 
Q 84.35 339.230938 87.95 339.230938 
z
" style="fill: #ffffff; opacity: 0.8; stroke: #cccccc; stroke-linejoin: miter"/>
    </g>
    <g id="line2d_19">
     <path d="M 91.55 194.629063 
L 109.55 194.629063 
L 127.55 194.629063 
" style="fill: none; stroke: #264385; stroke-width: 3; stroke-linecap: square"/>
    </g>
    <g id="text_15">
     <!-- C(with Loner) -->
     <g transform="translate(141.95 200.929063)scale(0.18 -0.18)">
      <defs>
       <path id="TimesNewRomanPS-BoldMT-43" d="M 4272 4334 
L 4272 2866 
L 4150 2866 
Q 4013 3441 3638 3747 
Q 3263 4053 2788 4053 
Q 2391 4053 2059 3825 
Q 1728 3597 1575 3228 
Q 1378 2756 1378 2178 
Q 1378 1609 1522 1142 
Q 1666 675 1972 436 
Q 2278 197 2766 197 
Q 3166 197 3498 372 
Q 3831 547 4200 975 
L 4200 609 
Q 3844 238 3458 70 
Q 3072 -97 2556 -97 
Q 1878 -97 1351 175 
Q 825 447 539 956 
Q 253 1466 253 2041 
Q 253 2647 570 3190 
Q 888 3734 1427 4034 
Q 1966 4334 2572 4334 
Q 3019 4334 3516 4141 
Q 3803 4028 3881 4028 
Q 3981 4028 4054 4101 
Q 4128 4175 4150 4334 
L 4272 4334 
z
" transform="scale(0.015625)"/>
       <path id="TimesNewRomanPS-BoldMT-28" d="M 2056 4334 
L 2056 4191 
Q 1731 3978 1578 3775 
Q 1366 3494 1247 3053 
Q 1097 2506 1097 1525 
Q 1097 600 1233 87 
Q 1369 -425 1603 -741 
Q 1766 -959 2056 -1125 
L 2056 -1281 
Q 1303 -1028 779 -248 
Q 256 531 256 1544 
Q 256 2544 778 3314 
Q 1300 4084 2056 4334 
z
" transform="scale(0.015625)"/>
       <path id="TimesNewRomanPS-BoldMT-77" d="M 3113 -88 
L 2313 2056 
L 1528 -88 
L 1366 -88 
L 588 2031 
Q 413 2516 291 2663 
Q 213 2763 53 2806 
L 53 2922 
L 1528 2922 
L 1528 2806 
Q 1378 2806 1322 2762 
Q 1266 2719 1266 2663 
Q 1266 2609 1366 2344 
L 1794 1203 
L 2206 2344 
L 2175 2419 
Q 2081 2653 2011 2717 
Q 1941 2781 1794 2806 
L 1794 2922 
L 3291 2922 
L 3291 2806 
Q 3116 2797 3069 2758 
Q 3022 2719 3022 2647 
Q 3022 2578 3113 2344 
L 3525 1203 
L 3900 2253 
Q 3981 2478 3981 2559 
Q 3981 2681 3922 2737 
Q 3863 2794 3691 2806 
L 3691 2922 
L 4556 2922 
L 4556 2806 
Q 4413 2788 4328 2705 
Q 4244 2622 4109 2234 
L 3291 -88 
L 3113 -88 
z
" transform="scale(0.015625)"/>
       <path id="TimesNewRomanPS-BoldMT-4c" d="M 4041 1488 
L 3881 0 
L 119 0 
L 119 116 
L 259 116 
Q 444 116 556 181 
Q 638 225 681 331 
Q 716 406 716 725 
L 716 3513 
Q 716 3838 681 3919 
Q 647 4000 542 4061 
Q 438 4122 259 4122 
L 119 4122 
L 119 4238 
L 2378 4238 
L 2378 4122 
L 2194 4122 
Q 2009 4122 1897 4056 
Q 1816 4013 1769 3906 
Q 1734 3831 1734 3513 
L 1734 813 
Q 1734 488 1771 398 
Q 1809 309 1919 266 
Q 1997 238 2297 238 
L 2650 238 
Q 2988 238 3213 356 
Q 3438 475 3602 731 
Q 3766 988 3913 1488 
L 4041 1488 
z
" transform="scale(0.015625)"/>
       <path id="TimesNewRomanPS-BoldMT-29" d="M 78 -1281 
L 78 -1138 
Q 403 -922 556 -719 
Q 766 -438 888 0 
Q 1038 550 1038 1531 
Q 1038 2456 902 2967 
Q 766 3478 531 3794 
Q 369 4013 78 4178 
L 78 4334 
Q 831 4081 1354 3301 
Q 1878 2522 1878 1509 
Q 1878 513 1354 -257 
Q 831 -1028 78 -1281 
z
" transform="scale(0.015625)"/>
      </defs>
      <use xlink:href="#TimesNewRomanPS-BoldMT-43"/>
      <use xlink:href="#TimesNewRomanPS-BoldMT-28" x="72.216797"/>
      <use xlink:href="#TimesNewRomanPS-BoldMT-77" x="105.517578"/>
      <use xlink:href="#TimesNewRomanPS-BoldMT-69" x="177.734375"/>
      <use xlink:href="#TimesNewRomanPS-BoldMT-74" x="205.517578"/>
      <use xlink:href="#TimesNewRomanPS-BoldMT-68" x="238.818359"/>
      <use xlink:href="#TimesNewRomanPS-BoldMT-20" x="294.433594"/>
      <use xlink:href="#TimesNewRomanPS-BoldMT-4c" x="319.433594"/>
      <use xlink:href="#TimesNewRomanPS-BoldMT-6f" x="386.132812"/>
      <use xlink:href="#TimesNewRomanPS-BoldMT-6e" x="436.132812"/>
      <use xlink:href="#TimesNewRomanPS-BoldMT-65" x="491.748047"/>
      <use xlink:href="#TimesNewRomanPS-BoldMT-72" x="536.132812"/>
      <use xlink:href="#TimesNewRomanPS-BoldMT-29" x="580.517578"/>
     </g>
    </g>
    <g id="line2d_20">
     <path d="M 91.55 220.079375 
L 109.55 220.079375 
L 127.55 220.079375 
" style="fill: none; stroke: #e23e35; stroke-width: 3; stroke-linecap: square"/>
    </g>
    <g id="text_16">
     <!-- D(with Loner) -->
     <g transform="translate(141.95 226.379375)scale(0.18 -0.18)">
      <defs>
       <path id="TimesNewRomanPS-BoldMT-44" d="M 84 0 
L 84 116 
L 225 116 
Q 409 116 507 173 
Q 606 231 653 331 
Q 681 397 681 725 
L 681 3513 
Q 681 3838 647 3919 
Q 613 4000 508 4061 
Q 403 4122 225 4122 
L 84 4122 
L 84 4238 
L 1981 4238 
Q 2741 4238 3203 4031 
Q 3769 3778 4061 3265 
Q 4353 2753 4353 2106 
Q 4353 1659 4209 1282 
Q 4066 906 3837 661 
Q 3609 416 3311 267 
Q 3013 119 2581 38 
Q 2391 0 1981 0 
L 84 0 
z
M 1700 3997 
L 1700 691 
Q 1700 428 1725 368 
Q 1750 309 1809 278 
Q 1894 231 2053 231 
Q 2575 231 2850 588 
Q 3225 1069 3225 2081 
Q 3225 2897 2969 3384 
Q 2766 3766 2447 3903 
Q 2222 4000 1700 3997 
z
" transform="scale(0.015625)"/>
      </defs>
      <use xlink:href="#TimesNewRomanPS-BoldMT-44"/>
      <use xlink:href="#TimesNewRomanPS-BoldMT-28" x="72.216797"/>
      <use xlink:href="#TimesNewRomanPS-BoldMT-77" x="105.517578"/>
      <use xlink:href="#TimesNewRomanPS-BoldMT-69" x="177.734375"/>
      <use xlink:href="#TimesNewRomanPS-BoldMT-74" x="205.517578"/>
      <use xlink:href="#TimesNewRomanPS-BoldMT-68" x="238.818359"/>
      <use xlink:href="#TimesNewRomanPS-BoldMT-20" x="294.433594"/>
      <use xlink:href="#TimesNewRomanPS-BoldMT-4c" x="319.433594"/>
      <use xlink:href="#TimesNewRomanPS-BoldMT-6f" x="386.132812"/>
      <use xlink:href="#TimesNewRomanPS-BoldMT-6e" x="436.132812"/>
      <use xlink:href="#TimesNewRomanPS-BoldMT-65" x="491.748047"/>
      <use xlink:href="#TimesNewRomanPS-BoldMT-72" x="536.132812"/>
      <use xlink:href="#TimesNewRomanPS-BoldMT-29" x="580.517578"/>
     </g>
    </g>
    <g id="line2d_21">
     <path d="M 91.55 245.529688 
L 109.55 245.529688 
L 127.55 245.529688 
" style="fill: none; stroke: #dbb428; stroke-width: 3; stroke-linecap: square"/>
    </g>
    <g id="text_17">
     <!-- L(with Loner) -->
     <g transform="translate(141.95 251.829688)scale(0.18 -0.18)">
      <use xlink:href="#TimesNewRomanPS-BoldMT-4c"/>
      <use xlink:href="#TimesNewRomanPS-BoldMT-28" x="66.699219"/>
      <use xlink:href="#TimesNewRomanPS-BoldMT-77" x="100"/>
      <use xlink:href="#TimesNewRomanPS-BoldMT-69" x="172.216797"/>
      <use xlink:href="#TimesNewRomanPS-BoldMT-74" x="200"/>
      <use xlink:href="#TimesNewRomanPS-BoldMT-68" x="233.300781"/>
      <use xlink:href="#TimesNewRomanPS-BoldMT-20" x="288.916016"/>
      <use xlink:href="#TimesNewRomanPS-BoldMT-4c" x="313.916016"/>
      <use xlink:href="#TimesNewRomanPS-BoldMT-6f" x="380.615234"/>
      <use xlink:href="#TimesNewRomanPS-BoldMT-6e" x="430.615234"/>
      <use xlink:href="#TimesNewRomanPS-BoldMT-65" x="486.230469"/>
      <use xlink:href="#TimesNewRomanPS-BoldMT-72" x="530.615234"/>
      <use xlink:href="#TimesNewRomanPS-BoldMT-29" x="575"/>
     </g>
    </g>
    <g id="line2d_22">
     <path d="M 91.55 270.98 
L 109.55 270.98 
L 127.55 270.98 
" style="fill: none; stroke-dasharray: 11.1,4.8; stroke-dashoffset: 0; stroke: #85c7e5; stroke-width: 3"/>
    </g>
    <g id="text_18">
     <!-- C(without Loner) -->
     <g transform="translate(141.95 277.28)scale(0.18 -0.18)">
      <use xlink:href="#TimesNewRomanPS-BoldMT-43"/>
      <use xlink:href="#TimesNewRomanPS-BoldMT-28" x="72.216797"/>
      <use xlink:href="#TimesNewRomanPS-BoldMT-77" x="105.517578"/>
      <use xlink:href="#TimesNewRomanPS-BoldMT-69" x="177.734375"/>
      <use xlink:href="#TimesNewRomanPS-BoldMT-74" x="205.517578"/>
      <use xlink:href="#TimesNewRomanPS-BoldMT-68" x="238.818359"/>
      <use xlink:href="#TimesNewRomanPS-BoldMT-6f" x="294.433594"/>
      <use xlink:href="#TimesNewRomanPS-BoldMT-75" x="344.433594"/>
      <use xlink:href="#TimesNewRomanPS-BoldMT-74" x="400.048828"/>
      <use xlink:href="#TimesNewRomanPS-BoldMT-20" x="433.349609"/>
      <use xlink:href="#TimesNewRomanPS-BoldMT-4c" x="458.349609"/>
      <use xlink:href="#TimesNewRomanPS-BoldMT-6f" x="525.048828"/>
      <use xlink:href="#TimesNewRomanPS-BoldMT-6e" x="575.048828"/>
      <use xlink:href="#TimesNewRomanPS-BoldMT-65" x="630.664062"/>
      <use xlink:href="#TimesNewRomanPS-BoldMT-72" x="675.048828"/>
      <use xlink:href="#TimesNewRomanPS-BoldMT-29" x="719.433594"/>
     </g>
    </g>
    <g id="line2d_23">
     <path d="M 91.55 296.430313 
L 109.55 296.430313 
L 127.55 296.430313 
" style="fill: none; stroke-dasharray: 11.1,4.8; stroke-dashoffset: 0; stroke: #f39fa2; stroke-width: 3"/>
    </g>
    <g id="text_19">
     <!-- D(without Loner) -->
     <g transform="translate(141.95 302.730313)scale(0.18 -0.18)">
      <use xlink:href="#TimesNewRomanPS-BoldMT-44"/>
      <use xlink:href="#TimesNewRomanPS-BoldMT-28" x="72.216797"/>
      <use xlink:href="#TimesNewRomanPS-BoldMT-77" x="105.517578"/>
      <use xlink:href="#TimesNewRomanPS-BoldMT-69" x="177.734375"/>
      <use xlink:href="#TimesNewRomanPS-BoldMT-74" x="205.517578"/>
      <use xlink:href="#TimesNewRomanPS-BoldMT-68" x="238.818359"/>
      <use xlink:href="#TimesNewRomanPS-BoldMT-6f" x="294.433594"/>
      <use xlink:href="#TimesNewRomanPS-BoldMT-75" x="344.433594"/>
      <use xlink:href="#TimesNewRomanPS-BoldMT-74" x="400.048828"/>
      <use xlink:href="#TimesNewRomanPS-BoldMT-20" x="433.349609"/>
      <use xlink:href="#TimesNewRomanPS-BoldMT-4c" x="458.349609"/>
      <use xlink:href="#TimesNewRomanPS-BoldMT-6f" x="525.048828"/>
      <use xlink:href="#TimesNewRomanPS-BoldMT-6e" x="575.048828"/>
      <use xlink:href="#TimesNewRomanPS-BoldMT-65" x="630.664062"/>
      <use xlink:href="#TimesNewRomanPS-BoldMT-72" x="675.048828"/>
      <use xlink:href="#TimesNewRomanPS-BoldMT-29" x="719.433594"/>
     </g>
    </g>
    <g id="line2d_24">
     <path d="M 91.55 321.880625 
L 109.55 321.880625 
L 127.55 321.880625 
" style="fill: none; stroke-dasharray: 11.1,4.8; stroke-dashoffset: 0; stroke: #eae936; stroke-width: 3"/>
    </g>
    <g id="text_20">
     <!-- L(without Loner) -->
     <g transform="translate(141.95 328.180625)scale(0.18 -0.18)">
      <use xlink:href="#TimesNewRomanPS-BoldMT-4c"/>
      <use xlink:href="#TimesNewRomanPS-BoldMT-28" x="66.699219"/>
      <use xlink:href="#TimesNewRomanPS-BoldMT-77" x="100"/>
      <use xlink:href="#TimesNewRomanPS-BoldMT-69" x="172.216797"/>
      <use xlink:href="#TimesNewRomanPS-BoldMT-74" x="200"/>
      <use xlink:href="#TimesNewRomanPS-BoldMT-68" x="233.300781"/>
      <use xlink:href="#TimesNewRomanPS-BoldMT-6f" x="288.916016"/>
      <use xlink:href="#TimesNewRomanPS-BoldMT-75" x="338.916016"/>
      <use xlink:href="#TimesNewRomanPS-BoldMT-74" x="394.53125"/>
      <use xlink:href="#TimesNewRomanPS-BoldMT-20" x="427.832031"/>
      <use xlink:href="#TimesNewRomanPS-BoldMT-4c" x="452.832031"/>
      <use xlink:href="#TimesNewRomanPS-BoldMT-6f" x="519.53125"/>
      <use xlink:href="#TimesNewRomanPS-BoldMT-6e" x="569.53125"/>
      <use xlink:href="#TimesNewRomanPS-BoldMT-65" x="625.146484"/>
      <use xlink:href="#TimesNewRomanPS-BoldMT-72" x="669.53125"/>
      <use xlink:href="#TimesNewRomanPS-BoldMT-29" x="713.916016"/>
     </g>
    </g>
   </g>
  </g>
 </g>
 <defs>
  <clipPath id="p66cb28d009">
   <rect x="75.35" y="10.8" width="633.85" height="498.76"/>
  </clipPath>
 </defs>
</svg>
