<?xml version="1.0" encoding="utf-8" standalone="no"?>
<!DOCTYPE svg PUBLIC "-//W3C//DTD SVG 1.1//EN"
  "http://www.w3.org/Graphics/SVG/1.1/DTD/svg11.dtd">
<svg xmlns:xlink="http://www.w3.org/1999/xlink" width="720pt" height="576pt" viewBox="0 0 720 576" xmlns="http://www.w3.org/2000/svg" version="1.1">
 <metadata>
  <rdf:RDF xmlns:dc="http://purl.org/dc/elements/1.1/" xmlns:cc="http://creativecommons.org/ns#" xmlns:rdf="http://www.w3.org/1999/02/22-rdf-syntax-ns#">
   <cc:Work>
    <dc:type rdf:resource="http://purl.org/dc/dcmitype/StillImage"/>
    <dc:date>2025-12-09T16:51:45.719862</dc:date>
    <dc:format>image/svg+xml</dc:format>
    <dc:creator>
     <cc:Agent>
      <dc:title>Matplotlib v3.5.1, https://matplotlib.org/</dc:title>
     </cc:Agent>
    </dc:creator>
   </cc:Work>
  </rdf:RDF>
 </metadata>
 <defs>
  <style type="text/css">*{stroke-linejoin: round; stroke-linecap: butt}</style>
 </defs>
 <g id="figure_1">
  <g id="patch_1">
   <path d="M 0 576 
L 720 576 
L 720 0 
L 0 0 
z
" style="fill: #ffffff"/>
  </g>
  <g id="axes_1">
   <g id="patch_2">
    <path d="M 76.0395 509.56 
L 709.2 509.56 
L 709.2 10.8 
L 76.0395 10.8 
z
" style="fill: #ffffff"/>
   </g>
   <g id="matplotlib.axis_1">
    <g id="xtick_1">
     <g id="line2d_1">
      <defs>
       <path id="mcf41446564" d="M 0 0 
L 0 3.5 
" style="stroke: #000000; stroke-width: 0.8"/>
      </defs>
      <g>
       <use xlink:href="#mcf41446564" x="104.819523" y="509.56" style="stroke: #000000; stroke-width: 0.8"/>
      </g>
     </g>
     <g id="text_1">
      <!-- 1.0 -->
      <g transform="translate(89.819523 532.4525)scale(0.24 -0.24)">
       <defs>
        <path id="TimesNewRomanPS-BoldMT-31" d="M 2084 4325 
L 2084 859 
Q 2084 469 2118 361 
Q 2153 253 2262 184 
Q 2372 116 2613 116 
L 2709 116 
L 2709 0 
L 478 0 
L 478 116 
L 591 116 
Q 863 116 978 178 
Q 1094 241 1134 350 
Q 1175 459 1175 859 
L 1175 3056 
Q 1175 3350 1147 3423 
Q 1119 3497 1042 3548 
Q 966 3600 866 3600 
Q 706 3600 478 3500 
L 422 3613 
L 1981 4325 
L 2084 4325 
z
" transform="scale(0.015625)"/>
        <path id="TimesNewRomanPS-BoldMT-2e" d="M 800 963 
Q 1019 963 1170 809 
Q 1322 656 1322 441 
Q 1322 225 1169 73 
Q 1016 -78 800 -78 
Q 584 -78 432 73 
Q 281 225 281 441 
Q 281 656 432 809 
Q 584 963 800 963 
z
" transform="scale(0.015625)"/>
        <path id="TimesNewRomanPS-BoldMT-30" d="M 2966 2119 
Q 2966 1484 2788 934 
Q 2681 597 2501 381 
Q 2322 166 2094 39 
Q 1866 -88 1597 -88 
Q 1291 -88 1044 68 
Q 797 225 606 516 
Q 469 728 366 1081 
Q 231 1559 231 2069 
Q 231 2759 425 3338 
Q 584 3816 909 4070 
Q 1234 4325 1597 4325 
Q 1966 4325 2286 4073 
Q 2606 3822 2756 3397 
Q 2966 2813 2966 2119 
z
M 2003 2125 
Q 2003 3238 1991 3422 
Q 1959 3856 1841 4009 
Q 1763 4109 1588 4109 
Q 1453 4109 1375 4034 
Q 1259 3925 1218 3648 
Q 1178 3372 1178 1719 
Q 1178 819 1241 513 
Q 1288 291 1375 216 
Q 1463 141 1606 141 
Q 1763 141 1841 241 
Q 1972 416 1991 781 
L 2003 2125 
z
" transform="scale(0.015625)"/>
       </defs>
       <use xlink:href="#TimesNewRomanPS-BoldMT-31"/>
       <use xlink:href="#TimesNewRomanPS-BoldMT-2e" x="50"/>
       <use xlink:href="#TimesNewRomanPS-BoldMT-30" x="75"/>
      </g>
     </g>
    </g>
    <g id="xtick_2">
     <g id="line2d_2">
      <g>
       <use xlink:href="#mcf41446564" x="219.939614" y="509.56" style="stroke: #000000; stroke-width: 0.8"/>
      </g>
     </g>
     <g id="text_2">
      <!-- 1.2 -->
      <g transform="translate(204.939614 532.4525)scale(0.24 -0.24)">
       <defs>
        <path id="TimesNewRomanPS-BoldMT-32" d="M 2650 0 
L 156 0 
L 156 69 
Q 1303 1434 1548 1906 
Q 1794 2378 1794 2828 
Q 1794 3156 1591 3373 
Q 1388 3591 1094 3591 
Q 613 3591 347 3109 
L 231 3150 
Q 400 3750 744 4037 
Q 1088 4325 1538 4325 
Q 1859 4325 2125 4175 
Q 2391 4025 2541 3764 
Q 2691 3503 2691 3275 
Q 2691 2859 2459 2431 
Q 2144 1853 1081 819 
L 1997 819 
Q 2334 819 2436 847 
Q 2538 875 2603 942 
Q 2669 1009 2775 1225 
L 2888 1225 
L 2650 0 
z
" transform="scale(0.015625)"/>
       </defs>
       <use xlink:href="#TimesNewRomanPS-BoldMT-31"/>
       <use xlink:href="#TimesNewRomanPS-BoldMT-2e" x="50"/>
       <use xlink:href="#TimesNewRomanPS-BoldMT-32" x="75"/>
      </g>
     </g>
    </g>
    <g id="xtick_3">
     <g id="line2d_3">
      <g>
       <use xlink:href="#mcf41446564" x="335.059705" y="509.56" style="stroke: #000000; stroke-width: 0.8"/>
      </g>
     </g>
     <g id="text_3">
      <!-- 1.4 -->
      <g transform="translate(320.059705 532.4525)scale(0.24 -0.24)">
       <defs>
        <path id="TimesNewRomanPS-BoldMT-34" d="M 159 1597 
L 2172 4325 
L 2553 4325 
L 2553 1597 
L 2941 1597 
L 2941 950 
L 2553 950 
L 2553 0 
L 1694 0 
L 1694 950 
L 159 950 
L 159 1597 
z
M 463 1597 
L 1694 1597 
L 1694 3269 
L 463 1597 
z
" transform="scale(0.015625)"/>
       </defs>
       <use xlink:href="#TimesNewRomanPS-BoldMT-31"/>
       <use xlink:href="#TimesNewRomanPS-BoldMT-2e" x="50"/>
       <use xlink:href="#TimesNewRomanPS-BoldMT-34" x="75"/>
      </g>
     </g>
    </g>
    <g id="xtick_4">
     <g id="line2d_4">
      <g>
       <use xlink:href="#mcf41446564" x="450.179795" y="509.56" style="stroke: #000000; stroke-width: 0.8"/>
      </g>
     </g>
     <g id="text_4">
      <!-- 1.6 -->
      <g transform="translate(435.179795 532.4525)scale(0.24 -0.24)">
       <defs>
        <path id="TimesNewRomanPS-BoldMT-36" d="M 3006 4325 
L 3006 4238 
Q 2441 4094 2098 3867 
Q 1756 3641 1557 3317 
Q 1359 2994 1250 2516 
Q 1388 2609 1478 2638 
Q 1681 2700 1888 2700 
Q 2363 2700 2680 2354 
Q 2997 2009 2997 1413 
Q 2997 994 2825 644 
Q 2653 294 2337 103 
Q 2022 -88 1663 -88 
Q 1272 -88 940 126 
Q 609 341 423 753 
Q 238 1166 238 1650 
Q 238 2363 580 2977 
Q 922 3591 1551 3955 
Q 2181 4319 3006 4325 
z
M 1209 2263 
Q 1184 1831 1184 1631 
Q 1184 1200 1267 797 
Q 1350 394 1494 231 
Q 1597 116 1738 116 
Q 1881 116 1993 283 
Q 2106 450 2106 963 
Q 2106 1825 1897 2153 
Q 1763 2366 1534 2366 
Q 1409 2366 1209 2263 
z
" transform="scale(0.015625)"/>
       </defs>
       <use xlink:href="#TimesNewRomanPS-BoldMT-31"/>
       <use xlink:href="#TimesNewRomanPS-BoldMT-2e" x="50"/>
       <use xlink:href="#TimesNewRomanPS-BoldMT-36" x="75"/>
      </g>
     </g>
    </g>
    <g id="xtick_5">
     <g id="line2d_5">
      <g>
       <use xlink:href="#mcf41446564" x="565.299886" y="509.56" style="stroke: #000000; stroke-width: 0.8"/>
      </g>
     </g>
     <g id="text_5">
      <!-- 1.8 -->
      <g transform="translate(550.299886 532.4525)scale(0.24 -0.24)">
       <defs>
        <path id="TimesNewRomanPS-BoldMT-38" d="M 2181 2394 
Q 2628 2066 2801 1783 
Q 2975 1500 2975 1134 
Q 2975 622 2589 267 
Q 2203 -88 1541 -88 
Q 913 -88 569 221 
Q 225 531 225 978 
Q 225 1319 423 1575 
Q 622 1831 1084 2044 
Q 581 2428 439 2672 
Q 297 2916 297 3238 
Q 297 3663 658 3986 
Q 1019 4309 1647 4309 
Q 2253 4309 2579 4023 
Q 2906 3738 2906 3338 
Q 2906 3038 2729 2808 
Q 2553 2578 2181 2394 
z
M 1944 2553 
Q 2059 2709 2115 2903 
Q 2172 3097 2172 3328 
Q 2172 3734 1997 3950 
Q 1866 4116 1634 4116 
Q 1425 4116 1278 3964 
Q 1131 3813 1131 3588 
Q 1131 3359 1295 3114 
Q 1459 2869 1944 2553 
z
M 1319 1894 
Q 1222 1806 1181 1734 
Q 1119 1625 1069 1415 
Q 1019 1206 1019 978 
Q 1019 684 1094 486 
Q 1169 288 1308 200 
Q 1447 113 1594 113 
Q 1822 113 1978 280 
Q 2134 447 2134 738 
Q 2134 1344 1319 1894 
z
" transform="scale(0.015625)"/>
       </defs>
       <use xlink:href="#TimesNewRomanPS-BoldMT-31"/>
       <use xlink:href="#TimesNewRomanPS-BoldMT-2e" x="50"/>
       <use xlink:href="#TimesNewRomanPS-BoldMT-38" x="75"/>
      </g>
     </g>
    </g>
    <g id="xtick_6">
     <g id="line2d_6">
      <g>
       <use xlink:href="#mcf41446564" x="680.419977" y="509.56" style="stroke: #000000; stroke-width: 0.8"/>
      </g>
     </g>
     <g id="text_6">
      <!-- 2.0 -->
      <g transform="translate(665.419977 532.4525)scale(0.24 -0.24)">
       <use xlink:href="#TimesNewRomanPS-BoldMT-32"/>
       <use xlink:href="#TimesNewRomanPS-BoldMT-2e" x="50"/>
       <use xlink:href="#TimesNewRomanPS-BoldMT-30" x="75"/>
      </g>
     </g>
    </g>
    <g id="text_7">
     <!-- b -->
     <g transform="translate(385.390531 558.803125)scale(0.26 -0.26)">
      <defs>
       <path id="TimesNewRomanPS-BoldMT-62" d="M 1347 4238 
L 1347 2628 
Q 1716 3009 2153 3009 
Q 2453 3009 2718 2832 
Q 2984 2656 3134 2331 
Q 3284 2006 3284 1581 
Q 3284 1103 3093 712 
Q 2903 322 2584 117 
Q 2266 -88 1856 -88 
Q 1619 -88 1434 -12 
Q 1250 63 1072 231 
L 588 -84 
L 481 -84 
L 481 3631 
Q 481 3884 459 3944 
Q 428 4031 361 4073 
Q 294 4116 134 4122 
L 134 4238 
L 1347 4238 
z
M 1347 2350 
L 1347 1050 
Q 1347 653 1366 544 
Q 1397 359 1515 245 
Q 1634 131 1819 131 
Q 1978 131 2092 222 
Q 2206 313 2282 581 
Q 2359 850 2359 1550 
Q 2359 2222 2191 2472 
Q 2069 2653 1863 2653 
Q 1594 2653 1347 2350 
z
" transform="scale(0.015625)"/>
      </defs>
      <use xlink:href="#TimesNewRomanPS-BoldMT-62"/>
     </g>
    </g>
   </g>
   <g id="matplotlib.axis_2">
    <g id="ytick_1">
     <g id="line2d_7">
      <defs>
       <path id="m67bf9f7298" d="M 0 0 
L -3.5 0 
" style="stroke: #000000; stroke-width: 0.8"/>
      </defs>
      <g>
       <use xlink:href="#m67bf9f7298" x="76.0395" y="461.243024" style="stroke: #000000; stroke-width: 0.8"/>
      </g>
     </g>
     <g id="text_8">
      <!-- 1.5 -->
      <g transform="translate(39.0395 469.189274)scale(0.24 -0.24)">
       <defs>
        <path id="TimesNewRomanPS-BoldMT-35" d="M 975 4238 
L 2959 4238 
L 2644 3431 
L 975 3431 
L 816 3009 
Q 1894 2969 2475 2472 
Q 2953 2063 2953 1453 
Q 2953 1063 2731 689 
Q 2509 316 2106 114 
Q 1703 -88 1222 -88 
Q 703 -88 425 106 
Q 231 244 231 419 
Q 231 553 332 656 
Q 434 759 569 759 
Q 691 759 816 709 
Q 941 659 1244 447 
Q 1434 316 1572 266 
Q 1669 228 1791 228 
Q 2047 228 2226 415 
Q 2406 603 2406 866 
Q 2406 1416 1856 1759 
Q 1306 2103 469 2103 
Q 384 2103 216 2100 
L 975 4238 
z
" transform="scale(0.015625)"/>
       </defs>
       <use xlink:href="#TimesNewRomanPS-BoldMT-31"/>
       <use xlink:href="#TimesNewRomanPS-BoldMT-2e" x="50"/>
       <use xlink:href="#TimesNewRomanPS-BoldMT-35" x="75"/>
      </g>
     </g>
    </g>
    <g id="ytick_2">
     <g id="line2d_8">
      <g>
       <use xlink:href="#m67bf9f7298" x="76.0395" y="375.678926" style="stroke: #000000; stroke-width: 0.8"/>
      </g>
     </g>
     <g id="text_9">
      <!-- 2.0 -->
      <g transform="translate(39.0395 383.625176)scale(0.24 -0.24)">
       <use xlink:href="#TimesNewRomanPS-BoldMT-32"/>
       <use xlink:href="#TimesNewRomanPS-BoldMT-2e" x="50"/>
       <use xlink:href="#TimesNewRomanPS-BoldMT-30" x="75"/>
      </g>
     </g>
    </g>
    <g id="ytick_3">
     <g id="line2d_9">
      <g>
       <use xlink:href="#m67bf9f7298" x="76.0395" y="290.114828" style="stroke: #000000; stroke-width: 0.8"/>
      </g>
     </g>
     <g id="text_10">
      <!-- 2.5 -->
      <g transform="translate(39.0395 298.061078)scale(0.24 -0.24)">
       <use xlink:href="#TimesNewRomanPS-BoldMT-32"/>
       <use xlink:href="#TimesNewRomanPS-BoldMT-2e" x="50"/>
       <use xlink:href="#TimesNewRomanPS-BoldMT-35" x="75"/>
      </g>
     </g>
    </g>
    <g id="ytick_4">
     <g id="line2d_10">
      <g>
       <use xlink:href="#m67bf9f7298" x="76.0395" y="204.55073" style="stroke: #000000; stroke-width: 0.8"/>
      </g>
     </g>
     <g id="text_11">
      <!-- 3.0 -->
      <g transform="translate(39.0395 212.49698)scale(0.24 -0.24)">
       <defs>
        <path id="TimesNewRomanPS-BoldMT-33" d="M 947 2125 
L 947 2234 
Q 1303 2338 1440 2427 
Q 1578 2516 1678 2698 
Q 1778 2881 1778 3069 
Q 1778 3328 1589 3514 
Q 1400 3700 1119 3700 
Q 681 3700 375 3238 
L 259 3278 
Q 484 3800 836 4062 
Q 1188 4325 1619 4325 
Q 2059 4325 2345 4056 
Q 2631 3788 2631 3428 
Q 2631 3194 2498 2976 
Q 2366 2759 2081 2594 
Q 2447 2416 2639 2155 
Q 2831 1894 2831 1500 
Q 2831 838 2351 373 
Q 1872 -91 1066 -91 
Q 528 -91 281 88 
Q 103 213 103 409 
Q 103 553 206 654 
Q 309 756 444 756 
Q 547 756 638 713 
Q 688 688 992 439 
Q 1297 191 1563 191 
Q 1794 191 1959 373 
Q 2125 556 2125 838 
Q 2125 1266 1825 1627 
Q 1525 1988 947 2125 
z
" transform="scale(0.015625)"/>
       </defs>
       <use xlink:href="#TimesNewRomanPS-BoldMT-33"/>
       <use xlink:href="#TimesNewRomanPS-BoldMT-2e" x="50"/>
       <use xlink:href="#TimesNewRomanPS-BoldMT-30" x="75"/>
      </g>
     </g>
    </g>
    <g id="ytick_5">
     <g id="line2d_11">
      <g>
       <use xlink:href="#m67bf9f7298" x="76.0395" y="118.986633" style="stroke: #000000; stroke-width: 0.8"/>
      </g>
     </g>
     <g id="text_12">
      <!-- 3.5 -->
      <g transform="translate(39.0395 126.932883)scale(0.24 -0.24)">
       <use xlink:href="#TimesNewRomanPS-BoldMT-33"/>
       <use xlink:href="#TimesNewRomanPS-BoldMT-2e" x="50"/>
       <use xlink:href="#TimesNewRomanPS-BoldMT-35" x="75"/>
      </g>
     </g>
    </g>
    <g id="ytick_6">
     <g id="line2d_12">
      <g>
       <use xlink:href="#m67bf9f7298" x="76.0395" y="33.422535" style="stroke: #000000; stroke-width: 0.8"/>
      </g>
     </g>
     <g id="text_13">
      <!-- 4.0 -->
      <g transform="translate(39.0395 41.368785)scale(0.24 -0.24)">
       <use xlink:href="#TimesNewRomanPS-BoldMT-34"/>
       <use xlink:href="#TimesNewRomanPS-BoldMT-2e" x="50"/>
       <use xlink:href="#TimesNewRomanPS-BoldMT-30" x="75"/>
      </g>
     </g>
    </g>
    <g id="text_14">
     <!-- $\bar{r}_{net}$ -->
     <g transform="translate(29.477938 277.73)rotate(-90)scale(0.26 -0.26)">
      <defs>
       <path id="STIXGeneral-Bold-304" d="M -544 3616 
L -2656 3616 
L -2656 4077 
L -544 4077 
L -544 3616 
z
" transform="scale(0.015625)"/>
       <path id="STIXGeneral-BoldItalic-72" d="M 1024 1619 
L 1030 1619 
Q 1414 2394 1641 2675 
Q 1869 2957 2125 2957 
Q 2291 2957 2390 2841 
Q 2490 2726 2490 2534 
Q 2490 2336 2384 2201 
Q 2278 2067 2118 2067 
Q 1978 2067 1878 2188 
Q 1779 2310 1728 2310 
Q 1581 2310 1312 1824 
Q 1082 1408 838 634 
L 640 0 
L -134 0 
Q 518 2208 518 2445 
Q 518 2534 444 2569 
Q 371 2605 160 2605 
L 160 2778 
Q 998 2848 1440 2957 
L 1024 1619 
z
" transform="scale(0.015625)"/>
       <path id="STIXGeneral-BoldItalic-6e" d="M 3021 864 
L 3162 781 
Q 2899 320 2665 131 
Q 2432 -58 2138 -58 
Q 1702 -58 1702 326 
Q 1702 627 1869 1126 
L 2221 2182 
Q 2266 2330 2266 2362 
Q 2266 2496 2106 2496 
Q 2022 2496 1894 2390 
Q 1766 2285 1664 2150 
Q 1363 1754 1158 1286 
Q 954 819 736 0 
L -38 0 
L 326 1306 
Q 614 2355 614 2451 
Q 614 2541 540 2569 
Q 467 2598 262 2605 
L 262 2778 
Q 838 2797 1536 2950 
L 1139 1683 
L 1146 1683 
Q 1472 2163 1613 2345 
Q 1754 2528 1926 2694 
Q 2202 2957 2566 2957 
Q 3034 2957 3034 2464 
Q 3034 2246 2854 1722 
L 2630 1056 
Q 2477 602 2477 486 
Q 2477 378 2566 378 
Q 2650 378 2739 474 
Q 2829 570 3021 864 
z
" transform="scale(0.015625)"/>
       <path id="STIXGeneral-BoldItalic-65" d="M 2029 915 
L 2214 806 
Q 1715 -83 966 -83 
Q 538 -83 285 157 
Q 32 397 32 858 
Q 32 1651 605 2304 
Q 1178 2957 1875 2957 
Q 2182 2957 2364 2803 
Q 2547 2650 2547 2400 
Q 2547 1997 2106 1619 
Q 1901 1446 1635 1347 
Q 1370 1248 902 1165 
Q 864 973 864 851 
Q 864 326 1274 326 
Q 1478 326 1641 454 
Q 1805 582 2029 915 
z
M 1958 2496 
Q 1958 2746 1760 2746 
Q 1306 2746 947 1370 
Q 1382 1466 1670 1782 
Q 1958 2099 1958 2496 
z
" transform="scale(0.015625)"/>
       <path id="STIXGeneral-BoldItalic-74" d="M 1798 2605 
L 1267 2605 
L 1050 1843 
Q 710 659 710 506 
Q 710 390 813 390 
Q 973 390 1299 902 
L 1446 806 
Q 1133 320 893 131 
Q 653 -58 358 -58 
Q -70 -58 -70 358 
Q -70 538 90 1094 
L 518 2605 
L 186 2605 
L 186 2829 
Q 582 2963 844 3180 
Q 1107 3398 1363 3802 
L 1587 3802 
L 1338 2874 
L 1798 2874 
L 1798 2605 
z
" transform="scale(0.015625)"/>
      </defs>
      <use xlink:href="#STIXGeneral-Bold-304" transform="translate(49.224998 2.296875)"/>
      <use xlink:href="#STIXGeneral-BoldItalic-72" transform="translate(0 0.09375)"/>
      <use xlink:href="#STIXGeneral-BoldItalic-6e" transform="translate(40.517103 -13.767188)scale(0.7)"/>
      <use xlink:href="#STIXGeneral-BoldItalic-65" transform="translate(79.437097 -13.767188)scale(0.7)"/>
      <use xlink:href="#STIXGeneral-BoldItalic-74" transform="translate(110.517093 -13.767188)scale(0.7)"/>
     </g>
    </g>
   </g>
   <g id="line2d_13">
    <path d="M 104.819523 33.470909 
L 116.331532 82.747905 
L 127.843541 82.252411 
L 139.35555 81.5501 
L 150.867559 80.893537 
L 162.379568 80.32305 
L 173.891577 79.593327 
L 185.403586 79.146417 
L 196.915595 78.484132 
L 208.427605 77.990148 
L 219.939614 77.40184 
L 231.451623 76.767871 
L 242.963632 75.851304 
L 254.475641 74.732387 
L 265.98765 74.165466 
L 277.499659 73.348746 
L 289.011668 72.562851 
L 300.523677 404.760879 
L 312.035686 403.419081 
L 323.547695 402.132329 
L 335.059705 400.791943 
L 346.571714 399.529031 
L 358.083723 398.179872 
L 369.595732 396.824932 
L 381.107741 395.460221 
L 392.61975 445.157859 
L 404.131759 474.776922 
L 415.643768 474.71999 
L 427.155777 474.40763 
L 438.667786 473.959232 
L 450.179795 473.853097 
L 461.691805 473.718785 
L 473.203814 472.950332 
L 484.715823 472.477868 
L 496.227832 472.106198 
L 507.739841 471.812611 
L 519.25185 471.120694 
L 530.763859 471.145796 
L 542.275868 470.180389 
L 553.787877 469.955371 
L 565.299886 469.337179 
L 576.811895 468.852021 
L 588.323905 468.33573 
L 599.835914 467.699694 
L 611.347923 467.198287 
L 622.859932 466.68624 
L 634.371941 466.090197 
L 645.88395 465.404027 
L 657.395959 464.754266 
L 668.907968 464.151953 
" clip-path="url(#pb4ba0e081c)" style="fill: none; stroke: #e23e35; stroke-width: 3; stroke-linecap: square"/>
   </g>
   <g id="line2d_14">
    <path d="M 104.819523 33.470909 
L 116.331532 82.742526 
L 127.843541 82.268386 
L 139.35555 81.607668 
L 150.867559 80.981734 
L 162.379568 80.32824 
L 173.891577 79.628326 
L 185.403586 79.141685 
L 196.915595 78.409914 
L 208.427605 77.907438 
L 219.939614 77.39795 
L 231.451623 76.722142 
L 242.963632 75.762171 
L 254.475641 74.745182 
L 265.98765 74.126837 
L 277.499659 73.34316 
L 289.011668 72.66805 
L 300.523677 404.701205 
L 312.035686 403.421902 
L 323.547695 402.155652 
L 335.059705 400.811952 
L 346.571714 399.501576 
L 358.083723 398.152056 
L 369.595732 396.766406 
L 381.107741 395.449662 
L 392.61975 444.576685 
L 404.131759 481.3389 
L 415.643768 481.563004 
L 427.155777 481.736584 
L 438.667786 482.075894 
L 450.179795 482.101004 
L 461.691805 482.430138 
L 473.203814 482.487088 
L 484.715823 482.80445 
L 496.227832 483.109916 
L 507.739841 483.3655 
L 519.25185 483.551017 
L 530.763859 483.632998 
L 542.275868 484.031913 
L 553.787877 484.23162 
L 565.299886 484.082853 
L 576.811895 484.809931 
L 588.323905 484.636514 
L 599.835914 485.09934 
L 611.347923 486.309399 
L 622.859932 485.494548 
L 634.371941 486.889091 
L 645.88395 485.405463 
L 657.395959 486.104274 
L 668.907968 486.355532 
" clip-path="url(#pb4ba0e081c)" style="fill: none; stroke-dasharray: 11.1,4.8; stroke-dashoffset: 0; stroke: #f39fa2; stroke-width: 3"/>
   </g>
   <g id="patch_3">
    <path d="M 76.0395 509.56 
L 76.0395 10.8 
" style="fill: none; stroke: #000000; stroke-width: 0.8; stroke-linejoin: miter; stroke-linecap: square"/>
   </g>
   <g id="patch_4">
    <path d="M 709.2 509.56 
L 709.2 10.8 
" style="fill: none; stroke: #000000; stroke-width: 0.8; stroke-linejoin: miter; stroke-linecap: square"/>
   </g>
   <g id="patch_5">
    <path d="M 76.0395 509.56 
L 709.2 509.56 
" style="fill: none; stroke: #000000; stroke-width: 0.8; stroke-linejoin: miter; stroke-linecap: square"/>
   </g>
   <g id="patch_6">
    <path d="M 76.0395 10.8 
L 709.2 10.8 
" style="fill: none; stroke: #000000; stroke-width: 0.8; stroke-linejoin: miter; stroke-linecap: square"/>
   </g>
   <g id="legend_1">
    <g id="patch_7">
     <path d="M 466.56 129.740625 
L 696.6 129.740625 
Q 700.2 129.740625 700.2 126.140625 
L 700.2 23.4 
Q 700.2 19.8 696.6 19.8 
L 466.56 19.8 
Q 462.96 19.8 462.96 23.4 
L 462.96 126.140625 
Q 462.96 129.740625 466.56 129.740625 
z
" style="fill: #ffffff; opacity: 0.8; stroke: #cccccc; stroke-linejoin: miter"/>
    </g>
    <g id="line2d_15">
     <path d="M 470.16 33.3 
L 488.16 33.3 
L 506.16 33.3 
" style="fill: none; stroke: #e23e35; stroke-width: 3; stroke-linecap: square"/>
    </g>
    <g id="text_15">
     <!-- with Loner -->
     <g transform="translate(520.56 39.6)scale(0.18 -0.18)">
      <defs>
       <path id="TimesNewRomanPS-BoldMT-77" d="M 3113 -88 
L 2313 2056 
L 1528 -88 
L 1366 -88 
L 588 2031 
Q 413 2516 291 2663 
Q 213 2763 53 2806 
L 53 2922 
L 1528 2922 
L 1528 2806 
Q 1378 2806 1322 2762 
Q 1266 2719 1266 2663 
Q 1266 2609 1366 2344 
L 1794 1203 
L 2206 2344 
L 2175 2419 
Q 2081 2653 2011 2717 
Q 1941 2781 1794 2806 
L 1794 2922 
L 3291 2922 
L 3291 2806 
Q 3116 2797 3069 2758 
Q 3022 2719 3022 2647 
Q 3022 2578 3113 2344 
L 3525 1203 
L 3900 2253 
Q 3981 2478 3981 2559 
Q 3981 2681 3922 2737 
Q 3863 2794 3691 2806 
L 3691 2922 
L 4556 2922 
L 4556 2806 
Q 4413 2788 4328 2705 
Q 4244 2622 4109 2234 
L 3291 -88 
L 3113 -88 
z
" transform="scale(0.015625)"/>
       <path id="TimesNewRomanPS-BoldMT-69" d="M 919 4338 
Q 1122 4338 1262 4195 
Q 1403 4053 1403 3853 
Q 1403 3653 1261 3512 
Q 1119 3372 919 3372 
Q 719 3372 578 3512 
Q 438 3653 438 3853 
Q 438 4053 578 4195 
Q 719 4338 919 4338 
z
M 1356 2922 
L 1356 606 
Q 1356 297 1428 211 
Q 1500 125 1709 113 
L 1709 0 
L 131 0 
L 131 113 
Q 325 119 419 225 
Q 481 297 481 606 
L 481 2313 
Q 481 2622 409 2708 
Q 338 2794 131 2806 
L 131 2922 
L 1356 2922 
z
" transform="scale(0.015625)"/>
       <path id="TimesNewRomanPS-BoldMT-74" d="M 1375 3991 
L 1375 2922 
L 2069 2922 
L 2069 2613 
L 1375 2613 
L 1375 809 
Q 1375 556 1398 482 
Q 1422 409 1481 364 
Q 1541 319 1591 319 
Q 1794 319 1975 628 
L 2069 559 
Q 1816 -41 1247 -41 
Q 969 -41 776 114 
Q 584 269 531 459 
Q 500 566 500 1034 
L 500 2613 
L 119 2613 
L 119 2722 
Q 513 3000 789 3306 
Q 1066 3613 1272 3991 
L 1375 3991 
z
" transform="scale(0.015625)"/>
       <path id="TimesNewRomanPS-BoldMT-68" d="M 1409 4238 
L 1409 2547 
Q 1650 2800 1850 2904 
Q 2050 3009 2266 3009 
Q 2541 3009 2736 2853 
Q 2931 2697 2995 2486 
Q 3059 2275 3059 1775 
L 3059 634 
Q 3059 300 3121 217 
Q 3184 134 3375 113 
L 3375 0 
L 1894 0 
L 1894 113 
Q 2050 134 2128 238 
Q 2184 319 2184 634 
L 2184 1938 
Q 2184 2300 2156 2392 
Q 2128 2484 2061 2536 
Q 1994 2588 1909 2588 
Q 1784 2588 1665 2502 
Q 1547 2416 1409 2200 
L 1409 634 
Q 1409 322 1456 244 
Q 1516 138 1700 113 
L 1700 0 
L 219 0 
L 219 113 
Q 403 131 481 231 
Q 534 300 534 634 
L 534 3603 
Q 534 3934 473 4015 
Q 413 4097 219 4122 
L 219 4238 
L 1409 4238 
z
" transform="scale(0.015625)"/>
       <path id="TimesNewRomanPS-BoldMT-20" transform="scale(0.015625)"/>
       <path id="TimesNewRomanPS-BoldMT-4c" d="M 4041 1488 
L 3881 0 
L 119 0 
L 119 116 
L 259 116 
Q 444 116 556 181 
Q 638 225 681 331 
Q 716 406 716 725 
L 716 3513 
Q 716 3838 681 3919 
Q 647 4000 542 4061 
Q 438 4122 259 4122 
L 119 4122 
L 119 4238 
L 2378 4238 
L 2378 4122 
L 2194 4122 
Q 2009 4122 1897 4056 
Q 1816 4013 1769 3906 
Q 1734 3831 1734 3513 
L 1734 813 
Q 1734 488 1771 398 
Q 1809 309 1919 266 
Q 1997 238 2297 238 
L 2650 238 
Q 2988 238 3213 356 
Q 3438 475 3602 731 
Q 3766 988 3913 1488 
L 4041 1488 
z
" transform="scale(0.015625)"/>
       <path id="TimesNewRomanPS-BoldMT-6f" d="M 1594 3009 
Q 1975 3009 2303 2812 
Q 2631 2616 2801 2253 
Q 2972 1891 2972 1459 
Q 2972 838 2656 419 
Q 2275 -88 1603 -88 
Q 944 -88 587 375 
Q 231 838 231 1447 
Q 231 2075 595 2542 
Q 959 3009 1594 3009 
z
M 1606 2788 
Q 1447 2788 1333 2667 
Q 1219 2547 1183 2192 
Q 1147 1838 1147 1206 
Q 1147 872 1191 581 
Q 1225 359 1337 243 
Q 1450 128 1594 128 
Q 1734 128 1828 206 
Q 1950 313 1991 503 
Q 2053 800 2053 1703 
Q 2053 2234 1993 2432 
Q 1934 2631 1819 2722 
Q 1738 2788 1606 2788 
z
" transform="scale(0.015625)"/>
       <path id="TimesNewRomanPS-BoldMT-6e" d="M 1409 2922 
L 1409 2544 
Q 1634 2788 1840 2898 
Q 2047 3009 2284 3009 
Q 2569 3009 2756 2851 
Q 2944 2694 3006 2459 
Q 3056 2281 3056 1775 
L 3056 638 
Q 3056 300 3117 217 
Q 3178 134 3372 113 
L 3372 0 
L 1894 0 
L 1894 113 
Q 2059 134 2131 250 
Q 2181 328 2181 638 
L 2181 1938 
Q 2181 2297 2153 2390 
Q 2125 2484 2058 2536 
Q 1991 2588 1909 2588 
Q 1641 2588 1409 2203 
L 1409 638 
Q 1409 309 1470 221 
Q 1531 134 1697 113 
L 1697 0 
L 219 0 
L 219 113 
Q 403 131 481 231 
Q 534 300 534 638 
L 534 2288 
Q 534 2619 473 2700 
Q 413 2781 219 2806 
L 219 2922 
L 1409 2922 
z
" transform="scale(0.015625)"/>
       <path id="TimesNewRomanPS-BoldMT-65" d="M 2691 1566 
L 1088 1566 
Q 1116 984 1397 647 
Q 1613 388 1916 388 
Q 2103 388 2256 492 
Q 2409 597 2584 869 
L 2691 800 
Q 2453 316 2165 114 
Q 1878 -88 1500 -88 
Q 850 -88 516 413 
Q 247 816 247 1413 
Q 247 2144 642 2576 
Q 1038 3009 1569 3009 
Q 2013 3009 2339 2645 
Q 2666 2281 2691 1566 
z
M 1922 1775 
Q 1922 2278 1867 2465 
Q 1813 2653 1697 2750 
Q 1631 2806 1522 2806 
Q 1359 2806 1256 2647 
Q 1072 2369 1072 1884 
L 1072 1775 
L 1922 1775 
z
" transform="scale(0.015625)"/>
       <path id="TimesNewRomanPS-BoldMT-72" d="M 1428 2922 
L 1428 2259 
Q 1719 2713 1937 2861 
Q 2156 3009 2359 3009 
Q 2534 3009 2639 2901 
Q 2744 2794 2744 2597 
Q 2744 2388 2642 2272 
Q 2541 2156 2397 2156 
Q 2231 2156 2109 2262 
Q 1988 2369 1966 2381 
Q 1934 2400 1894 2400 
Q 1803 2400 1722 2331 
Q 1594 2225 1528 2028 
Q 1428 1725 1428 1359 
L 1428 688 
L 1431 513 
Q 1431 334 1453 284 
Q 1491 200 1564 161 
Q 1638 122 1813 113 
L 1813 0 
L 234 0 
L 234 113 
Q 425 128 492 217 
Q 559 306 559 688 
L 559 2303 
Q 559 2553 534 2622 
Q 503 2709 443 2750 
Q 384 2791 234 2806 
L 234 2922 
L 1428 2922 
z
" transform="scale(0.015625)"/>
      </defs>
      <use xlink:href="#TimesNewRomanPS-BoldMT-77"/>
      <use xlink:href="#TimesNewRomanPS-BoldMT-69" x="72.216797"/>
      <use xlink:href="#TimesNewRomanPS-BoldMT-74" x="100"/>
      <use xlink:href="#TimesNewRomanPS-BoldMT-68" x="133.300781"/>
      <use xlink:href="#TimesNewRomanPS-BoldMT-20" x="188.916016"/>
      <use xlink:href="#TimesNewRomanPS-BoldMT-4c" x="213.916016"/>
      <use xlink:href="#TimesNewRomanPS-BoldMT-6f" x="280.615234"/>
      <use xlink:href="#TimesNewRomanPS-BoldMT-6e" x="330.615234"/>
      <use xlink:href="#TimesNewRomanPS-BoldMT-65" x="386.230469"/>
      <use xlink:href="#TimesNewRomanPS-BoldMT-72" x="430.615234"/>
     </g>
    </g>
    <g id="line2d_16">
     <path d="M 470.16 58.750313 
L 488.16 58.750313 
L 506.16 58.750313 
" style="fill: none; stroke-dasharray: 11.1,4.8; stroke-dashoffset: 0; stroke: #f39fa2; stroke-width: 3"/>
    </g>
    <g id="text_16">
     <!-- without Loner -->
     <g transform="translate(520.56 65.050313)scale(0.18 -0.18)">
      <defs>
       <path id="TimesNewRomanPS-BoldMT-75" d="M 3038 2922 
L 3038 634 
Q 3038 300 3100 217 
Q 3163 134 3353 113 
L 3353 0 
L 2163 0 
L 2163 391 
Q 1953 141 1743 26 
Q 1534 -88 1275 -88 
Q 1028 -88 836 64 
Q 644 216 578 419 
Q 513 622 513 1128 
L 513 2288 
Q 513 2619 452 2700 
Q 391 2781 197 2806 
L 197 2922 
L 1388 2922 
L 1388 925 
Q 1388 613 1417 522 
Q 1447 431 1511 384 
Q 1575 338 1659 338 
Q 1772 338 1863 397 
Q 1988 478 2163 725 
L 2163 2288 
Q 2163 2619 2102 2700 
Q 2041 2781 1847 2806 
L 1847 2922 
L 3038 2922 
z
" transform="scale(0.015625)"/>
      </defs>
      <use xlink:href="#TimesNewRomanPS-BoldMT-77"/>
      <use xlink:href="#TimesNewRomanPS-BoldMT-69" x="72.216797"/>
      <use xlink:href="#TimesNewRomanPS-BoldMT-74" x="100"/>
      <use xlink:href="#TimesNewRomanPS-BoldMT-68" x="133.300781"/>
      <use xlink:href="#TimesNewRomanPS-BoldMT-6f" x="188.916016"/>
      <use xlink:href="#TimesNewRomanPS-BoldMT-75" x="238.916016"/>
      <use xlink:href="#TimesNewRomanPS-BoldMT-74" x="294.53125"/>
      <use xlink:href="#TimesNewRomanPS-BoldMT-20" x="327.832031"/>
      <use xlink:href="#TimesNewRomanPS-BoldMT-4c" x="352.832031"/>
      <use xlink:href="#TimesNewRomanPS-BoldMT-6f" x="419.53125"/>
      <use xlink:href="#TimesNewRomanPS-BoldMT-6e" x="469.53125"/>
      <use xlink:href="#TimesNewRomanPS-BoldMT-65" x="525.146484"/>
      <use xlink:href="#TimesNewRomanPS-BoldMT-72" x="569.53125"/>
     </g>
    </g>
    <g id="PathCollection_1">
     <path d="M 488.16 92.846693 
C 490.035269 92.846693 491.833985 92.101641 493.16 90.775625 
C 494.486016 89.44961 495.231068 87.650894 495.231068 85.775625 
C 495.231068 83.900356 494.486016 82.101641 493.16 80.775625 
C 491.833985 79.44961 490.035269 78.704557 488.16 78.704557 
C 486.284731 78.704557 484.486016 79.44961 483.16 80.775625 
C 481.833985 82.101641 481.088932 83.900356 481.088932 85.775625 
C 481.088932 87.650894 481.833985 89.44961 483.16 90.775625 
C 484.486016 92.101641 486.284731 92.846693 488.16 92.846693 
L 488.16 92.846693 
z
" style="fill: none; stroke: #8a95a9; stroke-width: 2.5"/>
    </g>
    <g id="text_17">
     <!-- $I_{collapse}$(with Loner) -->
     <g transform="translate(520.56 90.500625)scale(0.18 -0.18)">
      <defs>
       <path id="STIXGeneral-BoldItalic-49" d="M 2598 4282 
L 2598 4122 
Q 2355 4096 2246 4000 
Q 2138 3904 2061 3610 
L 1344 973 
Q 1235 576 1235 416 
Q 1235 282 1328 227 
Q 1421 173 1690 160 
L 1690 0 
L -205 0 
L -205 160 
Q 45 192 141 275 
Q 237 358 326 685 
L 1075 3430 
Q 1165 3757 1165 3885 
Q 1165 4064 896 4096 
L 691 4122 
L 691 4282 
L 2598 4282 
z
" transform="scale(0.015625)"/>
       <path id="STIXGeneral-BoldItalic-63" d="M 2035 909 
L 2214 794 
Q 2054 576 1971 470 
Q 1888 365 1750 233 
Q 1613 102 1478 32 
Q 1254 -83 947 -83 
Q 499 -83 233 169 
Q -32 422 -32 883 
Q -32 1741 640 2413 
Q 1171 2957 1792 2957 
Q 2086 2957 2297 2793 
Q 2509 2630 2509 2381 
Q 2509 2176 2400 2051 
Q 2291 1926 2112 1926 
Q 1952 1926 1846 2022 
Q 1741 2118 1741 2266 
Q 1741 2368 1808 2470 
Q 1875 2573 1875 2637 
Q 1875 2682 1827 2714 
Q 1779 2746 1722 2746 
Q 1555 2746 1417 2602 
Q 1280 2458 1126 2182 
Q 787 1555 787 896 
Q 787 621 912 473 
Q 1037 326 1254 326 
Q 1459 326 1632 454 
Q 1805 582 2035 909 
z
" transform="scale(0.015625)"/>
       <path id="STIXGeneral-BoldItalic-6f" d="M 1792 2957 
L 1818 2957 
Q 2285 2957 2553 2694 
Q 2822 2432 2822 1990 
Q 2822 1549 2636 1123 
Q 2451 698 2150 397 
Q 1670 -83 1030 -83 
Q 563 -83 272 163 
Q -19 410 -19 864 
Q -19 1331 153 1753 
Q 326 2176 621 2464 
Q 1126 2957 1792 2957 
z
M 2061 2381 
Q 2061 2560 1981 2665 
Q 1901 2771 1760 2771 
Q 1555 2771 1376 2573 
Q 1101 2266 921 1648 
Q 742 1030 742 512 
Q 742 102 1056 102 
Q 1318 102 1510 416 
Q 1741 794 1901 1373 
Q 2061 1952 2061 2381 
z
" transform="scale(0.015625)"/>
       <path id="STIXGeneral-BoldItalic-6c" d="M 1856 4474 
L 928 1126 
Q 787 621 787 486 
Q 787 390 883 390 
Q 1043 390 1389 902 
L 1530 813 
Q 1197 301 973 121 
Q 749 -58 448 -58 
Q 256 -58 134 57 
Q 13 173 13 346 
Q 13 563 230 1338 
L 704 2995 
Q 922 3750 922 3923 
Q 922 4115 653 4115 
Q 582 4115 512 4109 
L 512 4282 
Q 1139 4339 1856 4474 
z
" transform="scale(0.015625)"/>
       <path id="STIXGeneral-BoldItalic-61" d="M 2784 813 
L 2918 717 
Q 2419 -90 1920 -90 
Q 1734 -90 1625 16 
Q 1517 122 1517 320 
Q 1517 454 1606 762 
Q 1338 307 1094 112 
Q 851 -83 557 -83 
Q 243 -83 54 141 
Q -134 365 -134 730 
Q -134 1478 422 2208 
Q 992 2957 1613 2957 
Q 1818 2957 1930 2848 
Q 2042 2739 2086 2496 
L 2093 2496 
L 2202 2874 
L 2912 2918 
L 2432 1312 
Q 2240 678 2240 461 
Q 2240 365 2317 365 
Q 2394 365 2490 457 
Q 2586 550 2784 813 
z
M 1939 2387 
Q 1939 2515 1872 2601 
Q 1805 2688 1702 2688 
Q 1370 2688 1011 1952 
Q 851 1626 752 1277 
Q 653 928 653 736 
Q 653 371 928 371 
Q 1216 371 1478 851 
Q 1664 1184 1801 1641 
Q 1939 2099 1939 2387 
z
" transform="scale(0.015625)"/>
       <path id="STIXGeneral-BoldItalic-70" d="M 1133 2221 
L 1139 2221 
Q 1402 2630 1635 2793 
Q 1869 2957 2150 2957 
Q 2490 2957 2672 2749 
Q 2854 2541 2854 2182 
Q 2854 1299 2310 608 
Q 1766 -83 1082 -83 
Q 838 -83 646 58 
L 570 -205 
Q 416 -736 416 -934 
Q 416 -1050 502 -1091 
Q 589 -1133 832 -1139 
L 832 -1312 
L -768 -1312 
L -768 -1139 
Q -538 -1139 -448 -1043 
Q -358 -947 -269 -589 
L 346 1843 
Q 486 2406 486 2445 
Q 486 2534 422 2563 
Q 358 2592 141 2605 
L 141 2778 
Q 467 2816 1370 2957 
L 1133 2221 
z
M 1859 1209 
Q 2054 1798 2054 2150 
Q 2054 2502 1805 2502 
Q 1549 2502 1248 2048 
Q 1165 1926 1120 1811 
Q 1075 1696 966 1325 
Q 723 506 723 371 
Q 723 275 796 208 
Q 870 141 973 141 
Q 1165 141 1370 333 
Q 1664 621 1859 1209 
z
" transform="scale(0.015625)"/>
       <path id="STIXGeneral-BoldItalic-73" d="M 2131 2950 
L 1984 1965 
L 1811 1978 
Q 1734 2381 1600 2563 
Q 1466 2746 1248 2746 
Q 1094 2746 1001 2653 
Q 909 2560 909 2406 
Q 909 2195 1274 1773 
Q 1786 1178 1786 736 
Q 1786 378 1510 147 
Q 1235 -83 838 -83 
Q 614 -83 429 -6 
Q 294 45 237 45 
Q 109 45 51 -83 
L -122 -83 
L 19 979 
L 192 960 
Q 301 109 787 109 
Q 973 109 1072 201 
Q 1171 294 1171 454 
Q 1171 717 813 1120 
Q 493 1478 397 1680 
Q 301 1882 301 2150 
Q 301 2528 534 2742 
Q 768 2957 1158 2957 
Q 1370 2957 1530 2880 
Q 1664 2816 1766 2816 
Q 1837 2816 1869 2841 
Q 1901 2867 1946 2950 
L 2131 2950 
z
" transform="scale(0.015625)"/>
       <path id="TimesNewRomanPS-BoldMT-28" d="M 2056 4334 
L 2056 4191 
Q 1731 3978 1578 3775 
Q 1366 3494 1247 3053 
Q 1097 2506 1097 1525 
Q 1097 600 1233 87 
Q 1369 -425 1603 -741 
Q 1766 -959 2056 -1125 
L 2056 -1281 
Q 1303 -1028 779 -248 
Q 256 531 256 1544 
Q 256 2544 778 3314 
Q 1300 4084 2056 4334 
z
" transform="scale(0.015625)"/>
       <path id="TimesNewRomanPS-BoldMT-29" d="M 78 -1281 
L 78 -1138 
Q 403 -922 556 -719 
Q 766 -438 888 0 
Q 1038 550 1038 1531 
Q 1038 2456 902 2967 
Q 766 3478 531 3794 
Q 369 4013 78 4178 
L 78 4334 
Q 831 4081 1354 3301 
Q 1878 2522 1878 1509 
Q 1878 513 1354 -257 
Q 831 -1028 78 -1281 
z
" transform="scale(0.015625)"/>
      </defs>
      <use xlink:href="#STIXGeneral-BoldItalic-49" transform="translate(0 0.21875)"/>
      <use xlink:href="#STIXGeneral-BoldItalic-63" transform="translate(38.899994 -13.642188)scale(0.7)"/>
      <use xlink:href="#STIXGeneral-BoldItalic-6f" transform="translate(69.97999 -13.642188)scale(0.7)"/>
      <use xlink:href="#STIXGeneral-BoldItalic-6c" transform="translate(104.979979 -13.642188)scale(0.7)"/>
      <use xlink:href="#STIXGeneral-BoldItalic-6c" transform="translate(124.43997 -13.642188)scale(0.7)"/>
      <use xlink:href="#STIXGeneral-BoldItalic-61" transform="translate(143.899962 -13.642188)scale(0.7)"/>
      <use xlink:href="#STIXGeneral-BoldItalic-70" transform="translate(178.899951 -13.642188)scale(0.7)"/>
      <use xlink:href="#STIXGeneral-BoldItalic-73" transform="translate(213.89994 -13.642188)scale(0.7)"/>
      <use xlink:href="#STIXGeneral-BoldItalic-65" transform="translate(241.129936 -13.642188)scale(0.7)"/>
      <use xlink:href="#TimesNewRomanPS-BoldMT-28" transform="translate(276.830244 0.21875)"/>
      <use xlink:href="#TimesNewRomanPS-BoldMT-77" transform="translate(310.131026 0.21875)"/>
      <use xlink:href="#TimesNewRomanPS-BoldMT-69" transform="translate(382.347823 0.21875)"/>
      <use xlink:href="#TimesNewRomanPS-BoldMT-74" transform="translate(410.131026 0.21875)"/>
      <use xlink:href="#TimesNewRomanPS-BoldMT-68" transform="translate(443.431807 0.21875)"/>
      <use xlink:href="#TimesNewRomanPS-BoldMT-20" transform="translate(499.047041 0.21875)"/>
      <use xlink:href="#TimesNewRomanPS-BoldMT-4c" transform="translate(524.047041 0.21875)"/>
      <use xlink:href="#TimesNewRomanPS-BoldMT-6f" transform="translate(590.74626 0.21875)"/>
      <use xlink:href="#TimesNewRomanPS-BoldMT-6e" transform="translate(640.74626 0.21875)"/>
      <use xlink:href="#TimesNewRomanPS-BoldMT-65" transform="translate(696.361494 0.21875)"/>
      <use xlink:href="#TimesNewRomanPS-BoldMT-72" transform="translate(740.74626 0.21875)"/>
      <use xlink:href="#TimesNewRomanPS-BoldMT-29" transform="translate(785.131026 0.21875)"/>
     </g>
    </g>
    <g id="PathCollection_2">
     <defs>
      <path id="m6bea16ec28" d="M -7.071068 7.071068 
L 7.071068 -7.071068 
M -7.071068 -7.071068 
L 7.071068 7.071068 
" style="stroke: #8a95a9; stroke-width: 2.5"/>
     </defs>
     <g>
      <use xlink:href="#m6bea16ec28" x="488.16" y="112.595625" style="fill: #8a95a9; stroke: #8a95a9; stroke-width: 2.5"/>
     </g>
    </g>
    <g id="text_18">
     <!-- $I_{collapse}$(without Loner) -->
     <g transform="translate(520.56 117.320625)scale(0.18 -0.18)">
      <use xlink:href="#STIXGeneral-BoldItalic-49" transform="translate(0 0.21875)"/>
      <use xlink:href="#STIXGeneral-BoldItalic-63" transform="translate(38.899994 -13.642188)scale(0.7)"/>
      <use xlink:href="#STIXGeneral-BoldItalic-6f" transform="translate(69.97999 -13.642188)scale(0.7)"/>
      <use xlink:href="#STIXGeneral-BoldItalic-6c" transform="translate(104.979979 -13.642188)scale(0.7)"/>
      <use xlink:href="#STIXGeneral-BoldItalic-6c" transform="translate(124.43997 -13.642188)scale(0.7)"/>
      <use xlink:href="#STIXGeneral-BoldItalic-61" transform="translate(143.899962 -13.642188)scale(0.7)"/>
      <use xlink:href="#STIXGeneral-BoldItalic-70" transform="translate(178.899951 -13.642188)scale(0.7)"/>
      <use xlink:href="#STIXGeneral-BoldItalic-73" transform="translate(213.89994 -13.642188)scale(0.7)"/>
      <use xlink:href="#STIXGeneral-BoldItalic-65" transform="translate(241.129936 -13.642188)scale(0.7)"/>
      <use xlink:href="#TimesNewRomanPS-BoldMT-28" transform="translate(276.830244 0.21875)"/>
      <use xlink:href="#TimesNewRomanPS-BoldMT-77" transform="translate(310.131026 0.21875)"/>
      <use xlink:href="#TimesNewRomanPS-BoldMT-69" transform="translate(382.347823 0.21875)"/>
      <use xlink:href="#TimesNewRomanPS-BoldMT-74" transform="translate(410.131026 0.21875)"/>
      <use xlink:href="#TimesNewRomanPS-BoldMT-68" transform="translate(443.431807 0.21875)"/>
      <use xlink:href="#TimesNewRomanPS-BoldMT-6f" transform="translate(499.047041 0.21875)"/>
      <use xlink:href="#TimesNewRomanPS-BoldMT-75" transform="translate(549.047041 0.21875)"/>
      <use xlink:href="#TimesNewRomanPS-BoldMT-74" transform="translate(604.662276 0.21875)"/>
      <use xlink:href="#TimesNewRomanPS-BoldMT-20" transform="translate(637.963057 0.21875)"/>
      <use xlink:href="#TimesNewRomanPS-BoldMT-4c" transform="translate(662.963057 0.21875)"/>
      <use xlink:href="#TimesNewRomanPS-BoldMT-6f" transform="translate(729.662276 0.21875)"/>
      <use xlink:href="#TimesNewRomanPS-BoldMT-6e" transform="translate(779.662276 0.21875)"/>
      <use xlink:href="#TimesNewRomanPS-BoldMT-65" transform="translate(835.27751 0.21875)"/>
      <use xlink:href="#TimesNewRomanPS-BoldMT-72" transform="translate(879.662276 0.21875)"/>
      <use xlink:href="#TimesNewRomanPS-BoldMT-29" transform="translate(924.047041 0.21875)"/>
     </g>
    </g>
   </g>
   <g id="PathCollection_3">
    <path d="M 680.419977 491.693068 
C 682.295246 491.693068 684.093962 490.948015 685.419977 489.622 
C 686.745993 488.295985 687.491045 486.497269 687.491045 484.622 
C 687.491045 482.746731 686.745993 480.948015 685.419977 479.622 
C 684.093962 478.295985 682.295246 477.550932 680.419977 477.550932 
C 678.544708 477.550932 676.745993 478.295985 675.419977 479.622 
C 674.093962 480.948015 673.348909 482.746731 673.348909 484.622 
C 673.348909 486.497269 674.093962 488.295985 675.419977 489.622 
C 676.745993 490.948015 678.544708 491.693068 680.419977 491.693068 
L 680.419977 491.693068 
z
" clip-path="url(#pb4ba0e081c)" style="fill: none; stroke: #8a95a9; stroke-width: 2.5"/>
   </g>
   <g id="PathCollection_4">
    <g clip-path="url(#pb4ba0e081c)">
     <use xlink:href="#m6bea16ec28" x="680.419977" y="484.622" style="fill: #8a95a9; stroke: #8a95a9; stroke-width: 2.5"/>
    </g>
   </g>
  </g>
 </g>
 <defs>
  <clipPath id="pb4ba0e081c">
   <rect x="76.0395" y="10.8" width="633.1605" height="498.76"/>
  </clipPath>
 </defs>
</svg>
