<?xml version="1.0" encoding="utf-8" standalone="no"?>
<!DOCTYPE svg PUBLIC "-//W3C//DTD SVG 1.1//EN"
  "http://www.w3.org/Graphics/SVG/1.1/DTD/svg11.dtd">
<svg xmlns:xlink="http://www.w3.org/1999/xlink" width="720pt" height="576pt" viewBox="0 0 720 576" xmlns="http://www.w3.org/2000/svg" version="1.1">
 <metadata>
  <rdf:RDF xmlns:dc="http://purl.org/dc/elements/1.1/" xmlns:cc="http://creativecommons.org/ns#" xmlns:rdf="http://www.w3.org/1999/02/22-rdf-syntax-ns#">
   <cc:Work>
    <dc:type rdf:resource="http://purl.org/dc/dcmitype/StillImage"/>
    <dc:date>2025-12-09T16:51:47.602193</dc:date>
    <dc:format>image/svg+xml</dc:format>
    <dc:creator>
     <cc:Agent>
      <dc:title>Matplotlib v3.5.1, https://matplotlib.org/</dc:title>
     </cc:Agent>
    </dc:creator>
   </cc:Work>
  </rdf:RDF>
 </metadata>
 <defs>
  <style type="text/css">*{stroke-linejoin: round; stroke-linecap: butt}</style>
 </defs>
 <g id="figure_1">
  <g id="patch_1">
   <path d="M 0 576 
L 720 576 
L 720 0 
L 0 0 
z
" style="fill: #ffffff"/>
  </g>
  <g id="axes_1">
   <g id="patch_2">
    <path d="M 74.99 509.56 
L 709.2 509.56 
L 709.2 10.8 
L 74.99 10.8 
z
" style="fill: #ffffff"/>
   </g>
   <g id="matplotlib.axis_1">
    <g id="xtick_1">
     <g id="line2d_1">
      <defs>
       <path id="m9c3455b653" d="M 0 0 
L 0 3.5 
" style="stroke: #000000; stroke-width: 0.8"/>
      </defs>
      <g>
       <use xlink:href="#m9c3455b653" x="103.817727" y="509.56" style="stroke: #000000; stroke-width: 0.8"/>
      </g>
     </g>
     <g id="text_1">
      <!-- 1.0 -->
      <g transform="translate(88.817727 532.4525)scale(0.24 -0.24)">
       <defs>
        <path id="TimesNewRomanPS-BoldMT-31" d="M 2084 4325 
L 2084 859 
Q 2084 469 2118 361 
Q 2153 253 2262 184 
Q 2372 116 2613 116 
L 2709 116 
L 2709 0 
L 478 0 
L 478 116 
L 591 116 
Q 863 116 978 178 
Q 1094 241 1134 350 
Q 1175 459 1175 859 
L 1175 3056 
Q 1175 3350 1147 3423 
Q 1119 3497 1042 3548 
Q 966 3600 866 3600 
Q 706 3600 478 3500 
L 422 3613 
L 1981 4325 
L 2084 4325 
z
" transform="scale(0.015625)"/>
        <path id="TimesNewRomanPS-BoldMT-2e" d="M 800 963 
Q 1019 963 1170 809 
Q 1322 656 1322 441 
Q 1322 225 1169 73 
Q 1016 -78 800 -78 
Q 584 -78 432 73 
Q 281 225 281 441 
Q 281 656 432 809 
Q 584 963 800 963 
z
" transform="scale(0.015625)"/>
        <path id="TimesNewRomanPS-BoldMT-30" d="M 2966 2119 
Q 2966 1484 2788 934 
Q 2681 597 2501 381 
Q 2322 166 2094 39 
Q 1866 -88 1597 -88 
Q 1291 -88 1044 68 
Q 797 225 606 516 
Q 469 728 366 1081 
Q 231 1559 231 2069 
Q 231 2759 425 3338 
Q 584 3816 909 4070 
Q 1234 4325 1597 4325 
Q 1966 4325 2286 4073 
Q 2606 3822 2756 3397 
Q 2966 2813 2966 2119 
z
M 2003 2125 
Q 2003 3238 1991 3422 
Q 1959 3856 1841 4009 
Q 1763 4109 1588 4109 
Q 1453 4109 1375 4034 
Q 1259 3925 1218 3648 
Q 1178 3372 1178 1719 
Q 1178 819 1241 513 
Q 1288 291 1375 216 
Q 1463 141 1606 141 
Q 1763 141 1841 241 
Q 1972 416 1991 781 
L 2003 2125 
z
" transform="scale(0.015625)"/>
       </defs>
       <use xlink:href="#TimesNewRomanPS-BoldMT-31"/>
       <use xlink:href="#TimesNewRomanPS-BoldMT-2e" x="50"/>
       <use xlink:href="#TimesNewRomanPS-BoldMT-30" x="75"/>
      </g>
     </g>
    </g>
    <g id="xtick_2">
     <g id="line2d_2">
      <g>
       <use xlink:href="#m9c3455b653" x="219.128636" y="509.56" style="stroke: #000000; stroke-width: 0.8"/>
      </g>
     </g>
     <g id="text_2">
      <!-- 1.2 -->
      <g transform="translate(204.128636 532.4525)scale(0.24 -0.24)">
       <defs>
        <path id="TimesNewRomanPS-BoldMT-32" d="M 2650 0 
L 156 0 
L 156 69 
Q 1303 1434 1548 1906 
Q 1794 2378 1794 2828 
Q 1794 3156 1591 3373 
Q 1388 3591 1094 3591 
Q 613 3591 347 3109 
L 231 3150 
Q 400 3750 744 4037 
Q 1088 4325 1538 4325 
Q 1859 4325 2125 4175 
Q 2391 4025 2541 3764 
Q 2691 3503 2691 3275 
Q 2691 2859 2459 2431 
Q 2144 1853 1081 819 
L 1997 819 
Q 2334 819 2436 847 
Q 2538 875 2603 942 
Q 2669 1009 2775 1225 
L 2888 1225 
L 2650 0 
z
" transform="scale(0.015625)"/>
       </defs>
       <use xlink:href="#TimesNewRomanPS-BoldMT-31"/>
       <use xlink:href="#TimesNewRomanPS-BoldMT-2e" x="50"/>
       <use xlink:href="#TimesNewRomanPS-BoldMT-32" x="75"/>
      </g>
     </g>
    </g>
    <g id="xtick_3">
     <g id="line2d_3">
      <g>
       <use xlink:href="#m9c3455b653" x="334.439545" y="509.56" style="stroke: #000000; stroke-width: 0.8"/>
      </g>
     </g>
     <g id="text_3">
      <!-- 1.4 -->
      <g transform="translate(319.439545 532.4525)scale(0.24 -0.24)">
       <defs>
        <path id="TimesNewRomanPS-BoldMT-34" d="M 159 1597 
L 2172 4325 
L 2553 4325 
L 2553 1597 
L 2941 1597 
L 2941 950 
L 2553 950 
L 2553 0 
L 1694 0 
L 1694 950 
L 159 950 
L 159 1597 
z
M 463 1597 
L 1694 1597 
L 1694 3269 
L 463 1597 
z
" transform="scale(0.015625)"/>
       </defs>
       <use xlink:href="#TimesNewRomanPS-BoldMT-31"/>
       <use xlink:href="#TimesNewRomanPS-BoldMT-2e" x="50"/>
       <use xlink:href="#TimesNewRomanPS-BoldMT-34" x="75"/>
      </g>
     </g>
    </g>
    <g id="xtick_4">
     <g id="line2d_4">
      <g>
       <use xlink:href="#m9c3455b653" x="449.750455" y="509.56" style="stroke: #000000; stroke-width: 0.8"/>
      </g>
     </g>
     <g id="text_4">
      <!-- 1.6 -->
      <g transform="translate(434.750455 532.4525)scale(0.24 -0.24)">
       <defs>
        <path id="TimesNewRomanPS-BoldMT-36" d="M 3006 4325 
L 3006 4238 
Q 2441 4094 2098 3867 
Q 1756 3641 1557 3317 
Q 1359 2994 1250 2516 
Q 1388 2609 1478 2638 
Q 1681 2700 1888 2700 
Q 2363 2700 2680 2354 
Q 2997 2009 2997 1413 
Q 2997 994 2825 644 
Q 2653 294 2337 103 
Q 2022 -88 1663 -88 
Q 1272 -88 940 126 
Q 609 341 423 753 
Q 238 1166 238 1650 
Q 238 2363 580 2977 
Q 922 3591 1551 3955 
Q 2181 4319 3006 4325 
z
M 1209 2263 
Q 1184 1831 1184 1631 
Q 1184 1200 1267 797 
Q 1350 394 1494 231 
Q 1597 116 1738 116 
Q 1881 116 1993 283 
Q 2106 450 2106 963 
Q 2106 1825 1897 2153 
Q 1763 2366 1534 2366 
Q 1409 2366 1209 2263 
z
" transform="scale(0.015625)"/>
       </defs>
       <use xlink:href="#TimesNewRomanPS-BoldMT-31"/>
       <use xlink:href="#TimesNewRomanPS-BoldMT-2e" x="50"/>
       <use xlink:href="#TimesNewRomanPS-BoldMT-36" x="75"/>
      </g>
     </g>
    </g>
    <g id="xtick_5">
     <g id="line2d_5">
      <g>
       <use xlink:href="#m9c3455b653" x="565.061364" y="509.56" style="stroke: #000000; stroke-width: 0.8"/>
      </g>
     </g>
     <g id="text_5">
      <!-- 1.8 -->
      <g transform="translate(550.061364 532.4525)scale(0.24 -0.24)">
       <defs>
        <path id="TimesNewRomanPS-BoldMT-38" d="M 2181 2394 
Q 2628 2066 2801 1783 
Q 2975 1500 2975 1134 
Q 2975 622 2589 267 
Q 2203 -88 1541 -88 
Q 913 -88 569 221 
Q 225 531 225 978 
Q 225 1319 423 1575 
Q 622 1831 1084 2044 
Q 581 2428 439 2672 
Q 297 2916 297 3238 
Q 297 3663 658 3986 
Q 1019 4309 1647 4309 
Q 2253 4309 2579 4023 
Q 2906 3738 2906 3338 
Q 2906 3038 2729 2808 
Q 2553 2578 2181 2394 
z
M 1944 2553 
Q 2059 2709 2115 2903 
Q 2172 3097 2172 3328 
Q 2172 3734 1997 3950 
Q 1866 4116 1634 4116 
Q 1425 4116 1278 3964 
Q 1131 3813 1131 3588 
Q 1131 3359 1295 3114 
Q 1459 2869 1944 2553 
z
M 1319 1894 
Q 1222 1806 1181 1734 
Q 1119 1625 1069 1415 
Q 1019 1206 1019 978 
Q 1019 684 1094 486 
Q 1169 288 1308 200 
Q 1447 113 1594 113 
Q 1822 113 1978 280 
Q 2134 447 2134 738 
Q 2134 1344 1319 1894 
z
" transform="scale(0.015625)"/>
       </defs>
       <use xlink:href="#TimesNewRomanPS-BoldMT-31"/>
       <use xlink:href="#TimesNewRomanPS-BoldMT-2e" x="50"/>
       <use xlink:href="#TimesNewRomanPS-BoldMT-38" x="75"/>
      </g>
     </g>
    </g>
    <g id="xtick_6">
     <g id="line2d_6">
      <g>
       <use xlink:href="#m9c3455b653" x="680.372273" y="509.56" style="stroke: #000000; stroke-width: 0.8"/>
      </g>
     </g>
     <g id="text_6">
      <!-- 2.0 -->
      <g transform="translate(665.372273 532.4525)scale(0.24 -0.24)">
       <use xlink:href="#TimesNewRomanPS-BoldMT-32"/>
       <use xlink:href="#TimesNewRomanPS-BoldMT-2e" x="50"/>
       <use xlink:href="#TimesNewRomanPS-BoldMT-30" x="75"/>
      </g>
     </g>
    </g>
    <g id="text_7">
     <!-- b -->
     <g transform="translate(384.865781 558.803125)scale(0.26 -0.26)">
      <defs>
       <path id="TimesNewRomanPS-BoldMT-62" d="M 1347 4238 
L 1347 2628 
Q 1716 3009 2153 3009 
Q 2453 3009 2718 2832 
Q 2984 2656 3134 2331 
Q 3284 2006 3284 1581 
Q 3284 1103 3093 712 
Q 2903 322 2584 117 
Q 2266 -88 1856 -88 
Q 1619 -88 1434 -12 
Q 1250 63 1072 231 
L 588 -84 
L 481 -84 
L 481 3631 
Q 481 3884 459 3944 
Q 428 4031 361 4073 
Q 294 4116 134 4122 
L 134 4238 
L 1347 4238 
z
M 1347 2350 
L 1347 1050 
Q 1347 653 1366 544 
Q 1397 359 1515 245 
Q 1634 131 1819 131 
Q 1978 131 2092 222 
Q 2206 313 2282 581 
Q 2359 850 2359 1550 
Q 2359 2222 2191 2472 
Q 2069 2653 1863 2653 
Q 1594 2653 1347 2350 
z
" transform="scale(0.015625)"/>
      </defs>
      <use xlink:href="#TimesNewRomanPS-BoldMT-62"/>
     </g>
    </g>
   </g>
   <g id="matplotlib.axis_2">
    <g id="ytick_1">
     <g id="line2d_7">
      <defs>
       <path id="m0229ffcafb" d="M 0 0 
L -3.5 0 
" style="stroke: #000000; stroke-width: 0.8"/>
      </defs>
      <g>
       <use xlink:href="#m0229ffcafb" x="74.99" y="486.889091" style="stroke: #000000; stroke-width: 0.8"/>
      </g>
     </g>
     <g id="text_8">
      <!-- 0.0 -->
      <g transform="translate(37.99 494.835341)scale(0.24 -0.24)">
       <use xlink:href="#TimesNewRomanPS-BoldMT-30"/>
       <use xlink:href="#TimesNewRomanPS-BoldMT-2e" x="50"/>
       <use xlink:href="#TimesNewRomanPS-BoldMT-30" x="75"/>
      </g>
     </g>
    </g>
    <g id="ytick_2">
     <g id="line2d_8">
      <g>
       <use xlink:href="#m0229ffcafb" x="74.99" y="398.677668" style="stroke: #000000; stroke-width: 0.8"/>
      </g>
     </g>
     <g id="text_9">
      <!-- 0.1 -->
      <g transform="translate(37.99 406.623918)scale(0.24 -0.24)">
       <use xlink:href="#TimesNewRomanPS-BoldMT-30"/>
       <use xlink:href="#TimesNewRomanPS-BoldMT-2e" x="50"/>
       <use xlink:href="#TimesNewRomanPS-BoldMT-31" x="75"/>
      </g>
     </g>
    </g>
    <g id="ytick_3">
     <g id="line2d_9">
      <g>
       <use xlink:href="#m0229ffcafb" x="74.99" y="310.466245" style="stroke: #000000; stroke-width: 0.8"/>
      </g>
     </g>
     <g id="text_10">
      <!-- 0.2 -->
      <g transform="translate(37.99 318.412495)scale(0.24 -0.24)">
       <use xlink:href="#TimesNewRomanPS-BoldMT-30"/>
       <use xlink:href="#TimesNewRomanPS-BoldMT-2e" x="50"/>
       <use xlink:href="#TimesNewRomanPS-BoldMT-32" x="75"/>
      </g>
     </g>
    </g>
    <g id="ytick_4">
     <g id="line2d_10">
      <g>
       <use xlink:href="#m0229ffcafb" x="74.99" y="222.254823" style="stroke: #000000; stroke-width: 0.8"/>
      </g>
     </g>
     <g id="text_11">
      <!-- 0.3 -->
      <g transform="translate(37.99 230.201073)scale(0.24 -0.24)">
       <defs>
        <path id="TimesNewRomanPS-BoldMT-33" d="M 947 2125 
L 947 2234 
Q 1303 2338 1440 2427 
Q 1578 2516 1678 2698 
Q 1778 2881 1778 3069 
Q 1778 3328 1589 3514 
Q 1400 3700 1119 3700 
Q 681 3700 375 3238 
L 259 3278 
Q 484 3800 836 4062 
Q 1188 4325 1619 4325 
Q 2059 4325 2345 4056 
Q 2631 3788 2631 3428 
Q 2631 3194 2498 2976 
Q 2366 2759 2081 2594 
Q 2447 2416 2639 2155 
Q 2831 1894 2831 1500 
Q 2831 838 2351 373 
Q 1872 -91 1066 -91 
Q 528 -91 281 88 
Q 103 213 103 409 
Q 103 553 206 654 
Q 309 756 444 756 
Q 547 756 638 713 
Q 688 688 992 439 
Q 1297 191 1563 191 
Q 1794 191 1959 373 
Q 2125 556 2125 838 
Q 2125 1266 1825 1627 
Q 1525 1988 947 2125 
z
" transform="scale(0.015625)"/>
       </defs>
       <use xlink:href="#TimesNewRomanPS-BoldMT-30"/>
       <use xlink:href="#TimesNewRomanPS-BoldMT-2e" x="50"/>
       <use xlink:href="#TimesNewRomanPS-BoldMT-33" x="75"/>
      </g>
     </g>
    </g>
    <g id="ytick_5">
     <g id="line2d_11">
      <g>
       <use xlink:href="#m0229ffcafb" x="74.99" y="134.0434" style="stroke: #000000; stroke-width: 0.8"/>
      </g>
     </g>
     <g id="text_12">
      <!-- 0.4 -->
      <g transform="translate(37.99 141.98965)scale(0.24 -0.24)">
       <use xlink:href="#TimesNewRomanPS-BoldMT-30"/>
       <use xlink:href="#TimesNewRomanPS-BoldMT-2e" x="50"/>
       <use xlink:href="#TimesNewRomanPS-BoldMT-34" x="75"/>
      </g>
     </g>
    </g>
    <g id="ytick_6">
     <g id="line2d_12">
      <g>
       <use xlink:href="#m0229ffcafb" x="74.99" y="45.831977" style="stroke: #000000; stroke-width: 0.8"/>
      </g>
     </g>
     <g id="text_13">
      <!-- 0.5 -->
      <g transform="translate(37.99 53.778227)scale(0.24 -0.24)">
       <defs>
        <path id="TimesNewRomanPS-BoldMT-35" d="M 975 4238 
L 2959 4238 
L 2644 3431 
L 975 3431 
L 816 3009 
Q 1894 2969 2475 2472 
Q 2953 2063 2953 1453 
Q 2953 1063 2731 689 
Q 2509 316 2106 114 
Q 1703 -88 1222 -88 
Q 703 -88 425 106 
Q 231 244 231 419 
Q 231 553 332 656 
Q 434 759 569 759 
Q 691 759 816 709 
Q 941 659 1244 447 
Q 1434 316 1572 266 
Q 1669 228 1791 228 
Q 2047 228 2226 415 
Q 2406 603 2406 866 
Q 2406 1416 1856 1759 
Q 1306 2103 469 2103 
Q 384 2103 216 2100 
L 975 4238 
z
" transform="scale(0.015625)"/>
       </defs>
       <use xlink:href="#TimesNewRomanPS-BoldMT-30"/>
       <use xlink:href="#TimesNewRomanPS-BoldMT-2e" x="50"/>
       <use xlink:href="#TimesNewRomanPS-BoldMT-35" x="75"/>
      </g>
     </g>
    </g>
    <g id="text_14">
     <!-- Gini -->
     <g transform="translate(28.428437 284.743906)rotate(-90)scale(0.26 -0.26)">
      <defs>
       <path id="TimesNewRomanPS-BoldMT-47" d="M 4416 4334 
L 4416 2841 
L 4300 2841 
Q 4091 3453 3672 3772 
Q 3253 4091 2756 4091 
Q 2281 4091 1965 3823 
Q 1650 3556 1519 3078 
Q 1388 2600 1388 2097 
Q 1388 1488 1531 1028 
Q 1675 569 1995 353 
Q 2316 138 2756 138 
Q 2909 138 3070 170 
Q 3231 203 3400 266 
L 3400 1147 
Q 3400 1397 3365 1470 
Q 3331 1544 3223 1603 
Q 3116 1663 2963 1663 
L 2853 1663 
L 2853 1778 
L 4913 1778 
L 4913 1663 
Q 4678 1647 4586 1598 
Q 4494 1550 4444 1438 
Q 4416 1378 4416 1147 
L 4416 266 
Q 4009 84 3570 -8 
Q 3131 -100 2659 -100 
Q 2056 -100 1657 64 
Q 1259 228 954 495 
Q 650 763 478 1097 
Q 259 1528 259 2063 
Q 259 3019 931 3678 
Q 1603 4338 2622 4338 
Q 2938 4338 3191 4288 
Q 3328 4263 3636 4145 
Q 3944 4028 4000 4028 
Q 4088 4028 4163 4092 
Q 4238 4156 4300 4334 
L 4416 4334 
z
" transform="scale(0.015625)"/>
       <path id="TimesNewRomanPS-BoldMT-69" d="M 919 4338 
Q 1122 4338 1262 4195 
Q 1403 4053 1403 3853 
Q 1403 3653 1261 3512 
Q 1119 3372 919 3372 
Q 719 3372 578 3512 
Q 438 3653 438 3853 
Q 438 4053 578 4195 
Q 719 4338 919 4338 
z
M 1356 2922 
L 1356 606 
Q 1356 297 1428 211 
Q 1500 125 1709 113 
L 1709 0 
L 131 0 
L 131 113 
Q 325 119 419 225 
Q 481 297 481 606 
L 481 2313 
Q 481 2622 409 2708 
Q 338 2794 131 2806 
L 131 2922 
L 1356 2922 
z
" transform="scale(0.015625)"/>
       <path id="TimesNewRomanPS-BoldMT-6e" d="M 1409 2922 
L 1409 2544 
Q 1634 2788 1840 2898 
Q 2047 3009 2284 3009 
Q 2569 3009 2756 2851 
Q 2944 2694 3006 2459 
Q 3056 2281 3056 1775 
L 3056 638 
Q 3056 300 3117 217 
Q 3178 134 3372 113 
L 3372 0 
L 1894 0 
L 1894 113 
Q 2059 134 2131 250 
Q 2181 328 2181 638 
L 2181 1938 
Q 2181 2297 2153 2390 
Q 2125 2484 2058 2536 
Q 1991 2588 1909 2588 
Q 1641 2588 1409 2203 
L 1409 638 
Q 1409 309 1470 221 
Q 1531 134 1697 113 
L 1697 0 
L 219 0 
L 219 113 
Q 403 131 481 231 
Q 534 300 534 638 
L 534 2288 
Q 534 2619 473 2700 
Q 413 2781 219 2806 
L 219 2922 
L 1409 2922 
z
" transform="scale(0.015625)"/>
      </defs>
      <use xlink:href="#TimesNewRomanPS-BoldMT-47"/>
      <use xlink:href="#TimesNewRomanPS-BoldMT-69" x="77.783203"/>
      <use xlink:href="#TimesNewRomanPS-BoldMT-6e" x="105.566406"/>
      <use xlink:href="#TimesNewRomanPS-BoldMT-69" x="161.181641"/>
     </g>
    </g>
   </g>
   <g id="line2d_13">
    <path d="M 103.817727 486.889091 
L 105.707438 481.642817 
L 107.597148 477.415237 
L 109.486859 474.103855 
L 111.376569 471.606177 
L 113.26628 469.819708 
L 115.155991 468.641955 
L 117.045701 467.970422 
L 118.935412 467.702615 
L 120.825122 467.736039 
L 124.604543 468.296604 
L 128.383964 468.843019 
L 132.163386 468.993428 
L 145.391359 468.906699 
L 158.619333 469.118068 
L 194.523834 469.60843 
L 251.21515 470.5395 
L 262.553413 470.906178 
L 266.332835 470.649869 
L 270.112256 470.228704 
L 272.001966 470.144192 
L 273.891677 470.25384 
L 275.781387 470.640235 
L 277.671098 471.379119 
L 281.450519 473.289348 
L 283.34023 473.84169 
L 285.22994 473.706261 
L 287.119651 472.568615 
L 289.009361 470.120986 
L 290.899072 466.373161 
L 292.788782 461.784573 
L 296.568203 452.059235 
L 298.457914 447.90955 
L 300.347625 444.890745 
L 302.237335 443.234244 
L 304.127046 442.687944 
L 306.016756 442.946969 
L 307.906467 443.706445 
L 311.685888 445.507523 
L 313.575598 446.037239 
L 315.465309 446.284244 
L 317.355019 446.318759 
L 321.134441 446.031212 
L 324.913862 445.719678 
L 330.582993 445.573637 
L 347.590388 445.558483 
L 353.25952 445.86516 
L 357.038941 445.793514 
L 364.597783 444.943738 
L 366.487494 445.007838 
L 368.377204 445.359774 
L 370.266915 446.069339 
L 374.046336 447.766011 
L 375.936047 448.121686 
L 377.825757 447.726084 
L 379.715468 446.262076 
L 381.605178 443.431151 
L 383.494889 439.275522 
L 385.384599 434.135634 
L 389.16402 422.305146 
L 391.053731 416.31558 
L 392.943441 410.739213 
L 394.833152 405.785524 
L 396.722863 401.508122 
L 398.612573 397.9521 
L 400.502284 395.162551 
L 402.391994 393.184566 
L 404.281705 392.061453 
L 406.171415 391.739195 
L 408.061126 392.018293 
L 409.950836 392.687341 
L 413.730258 394.349667 
L 415.619968 394.920902 
L 417.509679 395.13581 
L 419.399389 395.074203 
L 423.17881 394.530741 
L 425.068521 394.253534 
L 426.958231 394.109036 
L 428.847942 394.162185 
L 430.737652 394.380016 
L 434.517074 395.114403 
L 438.296495 395.921556 
L 442.075916 396.50739 
L 453.414179 397.95226 
L 457.1936 398.720183 
L 460.973021 399.713282 
L 466.642153 401.351063 
L 468.531863 401.651548 
L 470.421574 401.685175 
L 472.311285 401.365453 
L 474.200995 400.623276 
L 476.090706 399.548825 
L 479.870127 397.106745 
L 481.759837 396.092166 
L 483.649548 395.450595 
L 485.539258 395.34307 
L 487.428969 395.726421 
L 491.20839 397.213163 
L 493.098101 397.935709 
L 494.987811 398.390478 
L 496.877522 398.395913 
L 498.767232 397.947803 
L 500.656943 397.205666 
L 504.436364 395.501932 
L 506.326074 394.871645 
L 508.215785 394.606154 
L 510.105496 394.741815 
L 511.995206 395.163738 
L 517.664338 396.908129 
L 519.554048 397.237408 
L 521.443759 397.315242 
L 525.22318 397.054434 
L 529.002601 396.856579 
L 530.892312 397.012773 
L 532.782022 397.410171 
L 536.561443 398.642105 
L 540.340864 399.9116 
L 542.230575 400.355999 
L 544.120285 400.601521 
L 547.899707 400.746915 
L 551.679128 400.938643 
L 553.568838 401.242084 
L 555.458549 401.750812 
L 559.23797 402.999969 
L 561.12768 403.502479 
L 563.017391 403.764998 
L 564.907102 403.668567 
L 566.796812 403.133315 
L 568.686523 402.279293 
L 572.465944 400.350175 
L 574.355654 399.642736 
L 576.245365 399.351817 
L 578.135075 399.627388 
L 580.024786 400.381907 
L 585.693918 403.625394 
L 587.583628 404.401181 
L 589.473339 404.728696 
L 591.363049 404.639422 
L 593.25276 404.278735 
L 597.032181 403.329861 
L 598.921891 403.035041 
L 600.811602 403.045833 
L 602.701313 403.360685 
L 606.480734 404.480907 
L 608.370444 405.071743 
L 610.260155 405.540041 
L 612.149865 405.782859 
L 614.039576 405.792151 
L 621.598418 405.219401 
L 623.488129 405.362495 
L 625.377839 405.713558 
L 631.046971 407.043558 
L 632.936681 407.242419 
L 634.826392 407.151718 
L 636.716102 406.748591 
L 640.495524 405.440064 
L 642.385234 404.77045 
L 644.274945 404.247794 
L 646.164655 403.989727 
L 648.054366 404.061082 
L 649.944076 404.410233 
L 651.833787 404.970002 
L 655.613208 406.452683 
L 659.392629 407.9717 
L 661.28234 408.576889 
L 663.17205 408.989628 
L 665.061761 409.142738 
L 666.951471 408.969041 
L 668.841182 408.40136 
L 668.841182 408.40136 
" clip-path="url(#pf1656f8b39)" style="fill: none; stroke: #dbb428; stroke-width: 3; stroke-linecap: square"/>
   </g>
   <g id="line2d_14">
    <path d="M 103.817727 486.889091 
L 105.707438 481.64396 
L 107.597148 477.416904 
L 109.486859 474.10551 
L 111.376569 471.607365 
L 113.26628 469.820055 
L 115.155991 468.641166 
L 117.045701 467.968287 
L 118.935412 467.699002 
L 120.825122 467.730899 
L 124.604543 468.288584 
L 128.383964 468.832869 
L 132.163386 468.981506 
L 147.28107 468.91512 
L 162.398754 469.163495 
L 209.641518 469.816304 
L 230.428334 470.077007 
L 254.994571 470.696963 
L 260.663703 470.918267 
L 264.443124 470.834512 
L 272.001966 470.168393 
L 273.891677 470.273766 
L 275.781387 470.650746 
L 277.671098 471.374081 
L 281.450519 473.244337 
L 283.34023 473.781486 
L 285.22994 473.640307 
L 287.119651 472.511044 
L 289.009361 470.09054 
L 290.899072 466.389604 
L 292.788782 461.863611 
L 296.568203 452.292804 
L 298.457914 448.226165 
L 300.347625 445.288329 
L 302.237335 443.705731 
L 304.127046 443.220277 
L 306.016756 443.520988 
L 307.906467 444.29689 
L 309.796177 445.237006 
L 311.685888 446.030646 
L 313.575598 446.469669 
L 315.465309 446.599757 
L 317.355019 446.505183 
L 324.913862 445.54552 
L 328.693283 445.454331 
L 334.362414 445.686243 
L 341.921257 446.051856 
L 345.700678 446.07979 
L 358.928652 445.781495 
L 362.708073 445.964544 
L 364.597783 445.96068 
L 366.487494 445.814458 
L 368.377204 445.466806 
L 370.266915 444.872214 
L 374.046336 443.53409 
L 375.936047 443.254864 
L 377.825757 443.546421 
L 379.715468 444.641932 
L 383.494889 448.906399 
L 385.384599 449.428437 
L 387.27431 446.47288 
L 389.16402 438.228918 
L 391.053731 422.885745 
L 392.943441 398.710942 
L 394.833152 366.29349 
L 400.502284 252.576003 
L 402.391994 220.468535 
L 404.281705 196.865702 
L 406.171415 183.048569 
L 408.061126 177.208427 
L 409.950836 177.283683 
L 411.840547 181.212745 
L 415.619968 192.39175 
L 417.509679 196.273115 
L 419.399389 198.728573 
L 421.2891 200.079583 
L 423.17881 200.647605 
L 425.068521 200.754097 
L 430.737652 200.575126 
L 432.627363 200.0161 
L 434.517074 198.793975 
L 436.406784 196.654663 
L 438.296495 193.344085 
L 440.186205 188.760046 
L 445.855337 172.197292 
L 447.745047 167.587348 
L 449.634758 164.356819 
L 451.524469 162.890469 
L 453.414179 162.757591 
L 457.1936 163.790185 
L 459.083311 163.604554 
L 460.973021 162.050235 
L 462.862732 158.607716 
L 464.752442 153.783812 
L 466.642153 148.499986 
L 468.531863 143.678859 
L 470.421574 140.243053 
L 472.311285 139.11519 
L 474.200995 141.085135 
L 476.090706 145.726315 
L 477.980416 151.959012 
L 479.870127 158.697255 
L 481.759837 164.855075 
L 483.649548 169.346502 
L 485.539258 171.16488 
L 487.428969 170.349427 
L 489.31868 167.677999 
L 491.20839 163.943973 
L 493.098101 159.940731 
L 494.987811 156.461653 
L 496.877522 154.266017 
L 498.767232 153.430954 
L 500.656943 153.403819 
L 502.546653 153.608361 
L 504.436364 153.468327 
L 506.326074 152.407466 
L 508.215785 149.865906 
L 510.105496 145.824965 
L 515.774627 131.196514 
L 517.664338 127.726366 
L 519.554048 126.072457 
L 521.443759 126.435223 
L 523.333469 128.281821 
L 525.22318 131.014758 
L 527.112891 134.036541 
L 529.002601 136.749679 
L 530.892312 138.557902 
L 532.782022 139.058648 
L 534.671733 138.253004 
L 536.561443 136.192508 
L 538.451154 132.928701 
L 540.340864 128.513122 
L 542.230575 122.997482 
L 546.009996 109.769625 
L 547.899707 103.224641 
L 549.789417 97.546114 
L 551.679128 93.349413 
L 553.568838 91.249907 
L 555.458549 91.611363 
L 557.348259 93.850885 
L 559.23797 97.162972 
L 561.12768 100.742119 
L 563.017391 103.782826 
L 564.907102 105.47959 
L 566.796812 105.210655 
L 568.686523 103.294097 
L 570.576233 100.347676 
L 574.355654 93.836796 
L 576.245365 91.508116 
L 578.135075 90.517621 
L 580.024786 90.653582 
L 583.804207 92.213434 
L 585.693918 92.589838 
L 587.583628 91.998901 
L 589.473339 89.991223 
L 591.363049 86.847738 
L 593.25276 83.263912 
L 595.14247 79.939968 
L 597.032181 77.576131 
L 598.921891 76.872623 
L 600.811602 78.465486 
L 602.701313 82.075467 
L 606.480734 91.484541 
L 608.370444 95.328056 
L 610.260155 97.293837 
L 612.149865 96.446765 
L 614.039576 92.787644 
L 615.929286 87.228619 
L 619.708708 74.210435 
L 621.598418 68.651065 
L 623.488129 64.974928 
L 625.377839 63.506057 
L 627.26755 63.793643 
L 629.15726 65.336748 
L 631.046971 67.634435 
L 632.936681 70.185766 
L 634.826392 72.492223 
L 636.716102 74.23335 
L 638.605813 75.385586 
L 640.495524 75.953519 
L 642.385234 75.941734 
L 644.274945 75.354819 
L 646.164655 74.197434 
L 648.054366 72.489305 
L 649.944076 70.283382 
L 651.833787 67.637054 
L 653.723497 64.607709 
L 655.613208 61.252735 
L 659.392629 53.795452 
L 665.061761 41.602015 
L 668.841182 33.470909 
L 668.841182 33.470909 
" clip-path="url(#pf1656f8b39)" style="fill: none; stroke-dasharray: 11.1,4.8; stroke-dashoffset: 0; stroke: #eae936; stroke-width: 3"/>
   </g>
   <g id="patch_3">
    <path d="M 74.99 509.56 
L 74.99 10.8 
" style="fill: none; stroke: #000000; stroke-width: 0.8; stroke-linejoin: miter; stroke-linecap: square"/>
   </g>
   <g id="patch_4">
    <path d="M 709.2 509.56 
L 709.2 10.8 
" style="fill: none; stroke: #000000; stroke-width: 0.8; stroke-linejoin: miter; stroke-linecap: square"/>
   </g>
   <g id="patch_5">
    <path d="M 74.99 509.56 
L 709.2 509.56 
" style="fill: none; stroke: #000000; stroke-width: 0.8; stroke-linejoin: miter; stroke-linecap: square"/>
   </g>
   <g id="patch_6">
    <path d="M 74.99 10.8 
L 709.2 10.8 
" style="fill: none; stroke: #000000; stroke-width: 0.8; stroke-linejoin: miter; stroke-linecap: square"/>
   </g>
   <g id="legend_1">
    <g id="patch_7">
     <path d="M 87.59 129.740625 
L 322.13 129.740625 
Q 325.73 129.740625 325.73 126.140625 
L 325.73 23.4 
Q 325.73 19.8 322.13 19.8 
L 87.59 19.8 
Q 83.99 19.8 83.99 23.4 
L 83.99 126.140625 
Q 83.99 129.740625 87.59 129.740625 
z
" style="fill: #ffffff; opacity: 0.8; stroke: #cccccc; stroke-linejoin: miter"/>
    </g>
    <g id="line2d_15">
     <path d="M 91.19 33.3 
L 109.19 33.3 
L 127.19 33.3 
" style="fill: none; stroke: #dbb428; stroke-width: 3; stroke-linecap: square"/>
    </g>
    <g id="text_15">
     <!-- with Loner -->
     <g transform="translate(141.59 39.6)scale(0.18 -0.18)">
      <defs>
       <path id="TimesNewRomanPS-BoldMT-77" d="M 3113 -88 
L 2313 2056 
L 1528 -88 
L 1366 -88 
L 588 2031 
Q 413 2516 291 2663 
Q 213 2763 53 2806 
L 53 2922 
L 1528 2922 
L 1528 2806 
Q 1378 2806 1322 2762 
Q 1266 2719 1266 2663 
Q 1266 2609 1366 2344 
L 1794 1203 
L 2206 2344 
L 2175 2419 
Q 2081 2653 2011 2717 
Q 1941 2781 1794 2806 
L 1794 2922 
L 3291 2922 
L 3291 2806 
Q 3116 2797 3069 2758 
Q 3022 2719 3022 2647 
Q 3022 2578 3113 2344 
L 3525 1203 
L 3900 2253 
Q 3981 2478 3981 2559 
Q 3981 2681 3922 2737 
Q 3863 2794 3691 2806 
L 3691 2922 
L 4556 2922 
L 4556 2806 
Q 4413 2788 4328 2705 
Q 4244 2622 4109 2234 
L 3291 -88 
L 3113 -88 
z
" transform="scale(0.015625)"/>
       <path id="TimesNewRomanPS-BoldMT-74" d="M 1375 3991 
L 1375 2922 
L 2069 2922 
L 2069 2613 
L 1375 2613 
L 1375 809 
Q 1375 556 1398 482 
Q 1422 409 1481 364 
Q 1541 319 1591 319 
Q 1794 319 1975 628 
L 2069 559 
Q 1816 -41 1247 -41 
Q 969 -41 776 114 
Q 584 269 531 459 
Q 500 566 500 1034 
L 500 2613 
L 119 2613 
L 119 2722 
Q 513 3000 789 3306 
Q 1066 3613 1272 3991 
L 1375 3991 
z
" transform="scale(0.015625)"/>
       <path id="TimesNewRomanPS-BoldMT-68" d="M 1409 4238 
L 1409 2547 
Q 1650 2800 1850 2904 
Q 2050 3009 2266 3009 
Q 2541 3009 2736 2853 
Q 2931 2697 2995 2486 
Q 3059 2275 3059 1775 
L 3059 634 
Q 3059 300 3121 217 
Q 3184 134 3375 113 
L 3375 0 
L 1894 0 
L 1894 113 
Q 2050 134 2128 238 
Q 2184 319 2184 634 
L 2184 1938 
Q 2184 2300 2156 2392 
Q 2128 2484 2061 2536 
Q 1994 2588 1909 2588 
Q 1784 2588 1665 2502 
Q 1547 2416 1409 2200 
L 1409 634 
Q 1409 322 1456 244 
Q 1516 138 1700 113 
L 1700 0 
L 219 0 
L 219 113 
Q 403 131 481 231 
Q 534 300 534 634 
L 534 3603 
Q 534 3934 473 4015 
Q 413 4097 219 4122 
L 219 4238 
L 1409 4238 
z
" transform="scale(0.015625)"/>
       <path id="TimesNewRomanPS-BoldMT-20" transform="scale(0.015625)"/>
       <path id="TimesNewRomanPS-BoldMT-4c" d="M 4041 1488 
L 3881 0 
L 119 0 
L 119 116 
L 259 116 
Q 444 116 556 181 
Q 638 225 681 331 
Q 716 406 716 725 
L 716 3513 
Q 716 3838 681 3919 
Q 647 4000 542 4061 
Q 438 4122 259 4122 
L 119 4122 
L 119 4238 
L 2378 4238 
L 2378 4122 
L 2194 4122 
Q 2009 4122 1897 4056 
Q 1816 4013 1769 3906 
Q 1734 3831 1734 3513 
L 1734 813 
Q 1734 488 1771 398 
Q 1809 309 1919 266 
Q 1997 238 2297 238 
L 2650 238 
Q 2988 238 3213 356 
Q 3438 475 3602 731 
Q 3766 988 3913 1488 
L 4041 1488 
z
" transform="scale(0.015625)"/>
       <path id="TimesNewRomanPS-BoldMT-6f" d="M 1594 3009 
Q 1975 3009 2303 2812 
Q 2631 2616 2801 2253 
Q 2972 1891 2972 1459 
Q 2972 838 2656 419 
Q 2275 -88 1603 -88 
Q 944 -88 587 375 
Q 231 838 231 1447 
Q 231 2075 595 2542 
Q 959 3009 1594 3009 
z
M 1606 2788 
Q 1447 2788 1333 2667 
Q 1219 2547 1183 2192 
Q 1147 1838 1147 1206 
Q 1147 872 1191 581 
Q 1225 359 1337 243 
Q 1450 128 1594 128 
Q 1734 128 1828 206 
Q 1950 313 1991 503 
Q 2053 800 2053 1703 
Q 2053 2234 1993 2432 
Q 1934 2631 1819 2722 
Q 1738 2788 1606 2788 
z
" transform="scale(0.015625)"/>
       <path id="TimesNewRomanPS-BoldMT-65" d="M 2691 1566 
L 1088 1566 
Q 1116 984 1397 647 
Q 1613 388 1916 388 
Q 2103 388 2256 492 
Q 2409 597 2584 869 
L 2691 800 
Q 2453 316 2165 114 
Q 1878 -88 1500 -88 
Q 850 -88 516 413 
Q 247 816 247 1413 
Q 247 2144 642 2576 
Q 1038 3009 1569 3009 
Q 2013 3009 2339 2645 
Q 2666 2281 2691 1566 
z
M 1922 1775 
Q 1922 2278 1867 2465 
Q 1813 2653 1697 2750 
Q 1631 2806 1522 2806 
Q 1359 2806 1256 2647 
Q 1072 2369 1072 1884 
L 1072 1775 
L 1922 1775 
z
" transform="scale(0.015625)"/>
       <path id="TimesNewRomanPS-BoldMT-72" d="M 1428 2922 
L 1428 2259 
Q 1719 2713 1937 2861 
Q 2156 3009 2359 3009 
Q 2534 3009 2639 2901 
Q 2744 2794 2744 2597 
Q 2744 2388 2642 2272 
Q 2541 2156 2397 2156 
Q 2231 2156 2109 2262 
Q 1988 2369 1966 2381 
Q 1934 2400 1894 2400 
Q 1803 2400 1722 2331 
Q 1594 2225 1528 2028 
Q 1428 1725 1428 1359 
L 1428 688 
L 1431 513 
Q 1431 334 1453 284 
Q 1491 200 1564 161 
Q 1638 122 1813 113 
L 1813 0 
L 234 0 
L 234 113 
Q 425 128 492 217 
Q 559 306 559 688 
L 559 2303 
Q 559 2553 534 2622 
Q 503 2709 443 2750 
Q 384 2791 234 2806 
L 234 2922 
L 1428 2922 
z
" transform="scale(0.015625)"/>
      </defs>
      <use xlink:href="#TimesNewRomanPS-BoldMT-77"/>
      <use xlink:href="#TimesNewRomanPS-BoldMT-69" x="72.216797"/>
      <use xlink:href="#TimesNewRomanPS-BoldMT-74" x="100"/>
      <use xlink:href="#TimesNewRomanPS-BoldMT-68" x="133.300781"/>
      <use xlink:href="#TimesNewRomanPS-BoldMT-20" x="188.916016"/>
      <use xlink:href="#TimesNewRomanPS-BoldMT-4c" x="213.916016"/>
      <use xlink:href="#TimesNewRomanPS-BoldMT-6f" x="280.615234"/>
      <use xlink:href="#TimesNewRomanPS-BoldMT-6e" x="330.615234"/>
      <use xlink:href="#TimesNewRomanPS-BoldMT-65" x="386.230469"/>
      <use xlink:href="#TimesNewRomanPS-BoldMT-72" x="430.615234"/>
     </g>
    </g>
    <g id="line2d_16">
     <path d="M 91.19 58.750313 
L 109.19 58.750313 
L 127.19 58.750313 
" style="fill: none; stroke-dasharray: 11.1,4.8; stroke-dashoffset: 0; stroke: #eae936; stroke-width: 3"/>
    </g>
    <g id="text_16">
     <!-- without Loner -->
     <g transform="translate(141.59 65.050313)scale(0.18 -0.18)">
      <defs>
       <path id="TimesNewRomanPS-BoldMT-75" d="M 3038 2922 
L 3038 634 
Q 3038 300 3100 217 
Q 3163 134 3353 113 
L 3353 0 
L 2163 0 
L 2163 391 
Q 1953 141 1743 26 
Q 1534 -88 1275 -88 
Q 1028 -88 836 64 
Q 644 216 578 419 
Q 513 622 513 1128 
L 513 2288 
Q 513 2619 452 2700 
Q 391 2781 197 2806 
L 197 2922 
L 1388 2922 
L 1388 925 
Q 1388 613 1417 522 
Q 1447 431 1511 384 
Q 1575 338 1659 338 
Q 1772 338 1863 397 
Q 1988 478 2163 725 
L 2163 2288 
Q 2163 2619 2102 2700 
Q 2041 2781 1847 2806 
L 1847 2922 
L 3038 2922 
z
" transform="scale(0.015625)"/>
      </defs>
      <use xlink:href="#TimesNewRomanPS-BoldMT-77"/>
      <use xlink:href="#TimesNewRomanPS-BoldMT-69" x="72.216797"/>
      <use xlink:href="#TimesNewRomanPS-BoldMT-74" x="100"/>
      <use xlink:href="#TimesNewRomanPS-BoldMT-68" x="133.300781"/>
      <use xlink:href="#TimesNewRomanPS-BoldMT-6f" x="188.916016"/>
      <use xlink:href="#TimesNewRomanPS-BoldMT-75" x="238.916016"/>
      <use xlink:href="#TimesNewRomanPS-BoldMT-74" x="294.53125"/>
      <use xlink:href="#TimesNewRomanPS-BoldMT-20" x="327.832031"/>
      <use xlink:href="#TimesNewRomanPS-BoldMT-4c" x="352.832031"/>
      <use xlink:href="#TimesNewRomanPS-BoldMT-6f" x="419.53125"/>
      <use xlink:href="#TimesNewRomanPS-BoldMT-6e" x="469.53125"/>
      <use xlink:href="#TimesNewRomanPS-BoldMT-65" x="525.146484"/>
      <use xlink:href="#TimesNewRomanPS-BoldMT-72" x="569.53125"/>
     </g>
    </g>
    <g id="PathCollection_1">
     <path d="M 109.19 92.846693 
C 111.065269 92.846693 112.863985 92.101641 114.19 90.775625 
C 115.516015 89.44961 116.261068 87.650894 116.261068 85.775625 
C 116.261068 83.900356 115.516015 82.101641 114.19 80.775625 
C 112.863985 79.44961 111.065269 78.704557 109.19 78.704557 
C 107.314731 78.704557 105.516015 79.44961 104.19 80.775625 
C 102.863985 82.101641 102.118932 83.900356 102.118932 85.775625 
C 102.118932 87.650894 102.863985 89.44961 104.19 90.775625 
C 105.516015 92.101641 107.314731 92.846693 109.19 92.846693 
L 109.19 92.846693 
z
" style="fill: none; stroke: #8a95a9; stroke-width: 2.5"/>
    </g>
    <g id="text_17">
     <!-- $I_{collapse}$ (with Loner) -->
     <g transform="translate(141.59 90.500625)scale(0.18 -0.18)">
      <defs>
       <path id="STIXGeneral-BoldItalic-49" d="M 2598 4282 
L 2598 4122 
Q 2355 4096 2246 4000 
Q 2138 3904 2061 3610 
L 1344 973 
Q 1235 576 1235 416 
Q 1235 282 1328 227 
Q 1421 173 1690 160 
L 1690 0 
L -205 0 
L -205 160 
Q 45 192 141 275 
Q 237 358 326 685 
L 1075 3430 
Q 1165 3757 1165 3885 
Q 1165 4064 896 4096 
L 691 4122 
L 691 4282 
L 2598 4282 
z
" transform="scale(0.015625)"/>
       <path id="STIXGeneral-BoldItalic-63" d="M 2035 909 
L 2214 794 
Q 2054 576 1971 470 
Q 1888 365 1750 233 
Q 1613 102 1478 32 
Q 1254 -83 947 -83 
Q 499 -83 233 169 
Q -32 422 -32 883 
Q -32 1741 640 2413 
Q 1171 2957 1792 2957 
Q 2086 2957 2297 2793 
Q 2509 2630 2509 2381 
Q 2509 2176 2400 2051 
Q 2291 1926 2112 1926 
Q 1952 1926 1846 2022 
Q 1741 2118 1741 2266 
Q 1741 2368 1808 2470 
Q 1875 2573 1875 2637 
Q 1875 2682 1827 2714 
Q 1779 2746 1722 2746 
Q 1555 2746 1417 2602 
Q 1280 2458 1126 2182 
Q 787 1555 787 896 
Q 787 621 912 473 
Q 1037 326 1254 326 
Q 1459 326 1632 454 
Q 1805 582 2035 909 
z
" transform="scale(0.015625)"/>
       <path id="STIXGeneral-BoldItalic-6f" d="M 1792 2957 
L 1818 2957 
Q 2285 2957 2553 2694 
Q 2822 2432 2822 1990 
Q 2822 1549 2636 1123 
Q 2451 698 2150 397 
Q 1670 -83 1030 -83 
Q 563 -83 272 163 
Q -19 410 -19 864 
Q -19 1331 153 1753 
Q 326 2176 621 2464 
Q 1126 2957 1792 2957 
z
M 2061 2381 
Q 2061 2560 1981 2665 
Q 1901 2771 1760 2771 
Q 1555 2771 1376 2573 
Q 1101 2266 921 1648 
Q 742 1030 742 512 
Q 742 102 1056 102 
Q 1318 102 1510 416 
Q 1741 794 1901 1373 
Q 2061 1952 2061 2381 
z
" transform="scale(0.015625)"/>
       <path id="STIXGeneral-BoldItalic-6c" d="M 1856 4474 
L 928 1126 
Q 787 621 787 486 
Q 787 390 883 390 
Q 1043 390 1389 902 
L 1530 813 
Q 1197 301 973 121 
Q 749 -58 448 -58 
Q 256 -58 134 57 
Q 13 173 13 346 
Q 13 563 230 1338 
L 704 2995 
Q 922 3750 922 3923 
Q 922 4115 653 4115 
Q 582 4115 512 4109 
L 512 4282 
Q 1139 4339 1856 4474 
z
" transform="scale(0.015625)"/>
       <path id="STIXGeneral-BoldItalic-61" d="M 2784 813 
L 2918 717 
Q 2419 -90 1920 -90 
Q 1734 -90 1625 16 
Q 1517 122 1517 320 
Q 1517 454 1606 762 
Q 1338 307 1094 112 
Q 851 -83 557 -83 
Q 243 -83 54 141 
Q -134 365 -134 730 
Q -134 1478 422 2208 
Q 992 2957 1613 2957 
Q 1818 2957 1930 2848 
Q 2042 2739 2086 2496 
L 2093 2496 
L 2202 2874 
L 2912 2918 
L 2432 1312 
Q 2240 678 2240 461 
Q 2240 365 2317 365 
Q 2394 365 2490 457 
Q 2586 550 2784 813 
z
M 1939 2387 
Q 1939 2515 1872 2601 
Q 1805 2688 1702 2688 
Q 1370 2688 1011 1952 
Q 851 1626 752 1277 
Q 653 928 653 736 
Q 653 371 928 371 
Q 1216 371 1478 851 
Q 1664 1184 1801 1641 
Q 1939 2099 1939 2387 
z
" transform="scale(0.015625)"/>
       <path id="STIXGeneral-BoldItalic-70" d="M 1133 2221 
L 1139 2221 
Q 1402 2630 1635 2793 
Q 1869 2957 2150 2957 
Q 2490 2957 2672 2749 
Q 2854 2541 2854 2182 
Q 2854 1299 2310 608 
Q 1766 -83 1082 -83 
Q 838 -83 646 58 
L 570 -205 
Q 416 -736 416 -934 
Q 416 -1050 502 -1091 
Q 589 -1133 832 -1139 
L 832 -1312 
L -768 -1312 
L -768 -1139 
Q -538 -1139 -448 -1043 
Q -358 -947 -269 -589 
L 346 1843 
Q 486 2406 486 2445 
Q 486 2534 422 2563 
Q 358 2592 141 2605 
L 141 2778 
Q 467 2816 1370 2957 
L 1133 2221 
z
M 1859 1209 
Q 2054 1798 2054 2150 
Q 2054 2502 1805 2502 
Q 1549 2502 1248 2048 
Q 1165 1926 1120 1811 
Q 1075 1696 966 1325 
Q 723 506 723 371 
Q 723 275 796 208 
Q 870 141 973 141 
Q 1165 141 1370 333 
Q 1664 621 1859 1209 
z
" transform="scale(0.015625)"/>
       <path id="STIXGeneral-BoldItalic-73" d="M 2131 2950 
L 1984 1965 
L 1811 1978 
Q 1734 2381 1600 2563 
Q 1466 2746 1248 2746 
Q 1094 2746 1001 2653 
Q 909 2560 909 2406 
Q 909 2195 1274 1773 
Q 1786 1178 1786 736 
Q 1786 378 1510 147 
Q 1235 -83 838 -83 
Q 614 -83 429 -6 
Q 294 45 237 45 
Q 109 45 51 -83 
L -122 -83 
L 19 979 
L 192 960 
Q 301 109 787 109 
Q 973 109 1072 201 
Q 1171 294 1171 454 
Q 1171 717 813 1120 
Q 493 1478 397 1680 
Q 301 1882 301 2150 
Q 301 2528 534 2742 
Q 768 2957 1158 2957 
Q 1370 2957 1530 2880 
Q 1664 2816 1766 2816 
Q 1837 2816 1869 2841 
Q 1901 2867 1946 2950 
L 2131 2950 
z
" transform="scale(0.015625)"/>
       <path id="STIXGeneral-BoldItalic-65" d="M 2029 915 
L 2214 806 
Q 1715 -83 966 -83 
Q 538 -83 285 157 
Q 32 397 32 858 
Q 32 1651 605 2304 
Q 1178 2957 1875 2957 
Q 2182 2957 2364 2803 
Q 2547 2650 2547 2400 
Q 2547 1997 2106 1619 
Q 1901 1446 1635 1347 
Q 1370 1248 902 1165 
Q 864 973 864 851 
Q 864 326 1274 326 
Q 1478 326 1641 454 
Q 1805 582 2029 915 
z
M 1958 2496 
Q 1958 2746 1760 2746 
Q 1306 2746 947 1370 
Q 1382 1466 1670 1782 
Q 1958 2099 1958 2496 
z
" transform="scale(0.015625)"/>
       <path id="TimesNewRomanPS-BoldMT-28" d="M 2056 4334 
L 2056 4191 
Q 1731 3978 1578 3775 
Q 1366 3494 1247 3053 
Q 1097 2506 1097 1525 
Q 1097 600 1233 87 
Q 1369 -425 1603 -741 
Q 1766 -959 2056 -1125 
L 2056 -1281 
Q 1303 -1028 779 -248 
Q 256 531 256 1544 
Q 256 2544 778 3314 
Q 1300 4084 2056 4334 
z
" transform="scale(0.015625)"/>
       <path id="TimesNewRomanPS-BoldMT-29" d="M 78 -1281 
L 78 -1138 
Q 403 -922 556 -719 
Q 766 -438 888 0 
Q 1038 550 1038 1531 
Q 1038 2456 902 2967 
Q 766 3478 531 3794 
Q 369 4013 78 4178 
L 78 4334 
Q 831 4081 1354 3301 
Q 1878 2522 1878 1509 
Q 1878 513 1354 -257 
Q 831 -1028 78 -1281 
z
" transform="scale(0.015625)"/>
      </defs>
      <use xlink:href="#STIXGeneral-BoldItalic-49" transform="translate(0 0.21875)"/>
      <use xlink:href="#STIXGeneral-BoldItalic-63" transform="translate(38.899994 -13.642188)scale(0.7)"/>
      <use xlink:href="#STIXGeneral-BoldItalic-6f" transform="translate(69.97999 -13.642188)scale(0.7)"/>
      <use xlink:href="#STIXGeneral-BoldItalic-6c" transform="translate(104.979979 -13.642188)scale(0.7)"/>
      <use xlink:href="#STIXGeneral-BoldItalic-6c" transform="translate(124.43997 -13.642188)scale(0.7)"/>
      <use xlink:href="#STIXGeneral-BoldItalic-61" transform="translate(143.899962 -13.642188)scale(0.7)"/>
      <use xlink:href="#STIXGeneral-BoldItalic-70" transform="translate(178.899951 -13.642188)scale(0.7)"/>
      <use xlink:href="#STIXGeneral-BoldItalic-73" transform="translate(213.89994 -13.642188)scale(0.7)"/>
      <use xlink:href="#STIXGeneral-BoldItalic-65" transform="translate(241.129936 -13.642188)scale(0.7)"/>
      <use xlink:href="#TimesNewRomanPS-BoldMT-20" transform="translate(276.830244 0.21875)"/>
      <use xlink:href="#TimesNewRomanPS-BoldMT-28" transform="translate(301.830244 0.21875)"/>
      <use xlink:href="#TimesNewRomanPS-BoldMT-77" transform="translate(335.131026 0.21875)"/>
      <use xlink:href="#TimesNewRomanPS-BoldMT-69" transform="translate(407.347823 0.21875)"/>
      <use xlink:href="#TimesNewRomanPS-BoldMT-74" transform="translate(435.131026 0.21875)"/>
      <use xlink:href="#TimesNewRomanPS-BoldMT-68" transform="translate(468.431807 0.21875)"/>
      <use xlink:href="#TimesNewRomanPS-BoldMT-20" transform="translate(524.047041 0.21875)"/>
      <use xlink:href="#TimesNewRomanPS-BoldMT-4c" transform="translate(549.047041 0.21875)"/>
      <use xlink:href="#TimesNewRomanPS-BoldMT-6f" transform="translate(615.74626 0.21875)"/>
      <use xlink:href="#TimesNewRomanPS-BoldMT-6e" transform="translate(665.74626 0.21875)"/>
      <use xlink:href="#TimesNewRomanPS-BoldMT-65" transform="translate(721.361494 0.21875)"/>
      <use xlink:href="#TimesNewRomanPS-BoldMT-72" transform="translate(765.74626 0.21875)"/>
      <use xlink:href="#TimesNewRomanPS-BoldMT-29" transform="translate(810.131026 0.21875)"/>
     </g>
    </g>
    <g id="PathCollection_2">
     <defs>
      <path id="mf05e9168db" d="M -7.071068 7.071068 
L 7.071068 -7.071068 
M -7.071068 -7.071068 
L 7.071068 7.071068 
" style="stroke: #8a95a9; stroke-width: 2.5"/>
     </defs>
     <g>
      <use xlink:href="#mf05e9168db" x="109.19" y="112.595625" style="fill: #8a95a9; stroke: #8a95a9; stroke-width: 2.5"/>
     </g>
    </g>
    <g id="text_18">
     <!-- $I_{collapse}$ (without Loner) -->
     <g transform="translate(141.59 117.320625)scale(0.18 -0.18)">
      <use xlink:href="#STIXGeneral-BoldItalic-49" transform="translate(0 0.21875)"/>
      <use xlink:href="#STIXGeneral-BoldItalic-63" transform="translate(38.899994 -13.642188)scale(0.7)"/>
      <use xlink:href="#STIXGeneral-BoldItalic-6f" transform="translate(69.97999 -13.642188)scale(0.7)"/>
      <use xlink:href="#STIXGeneral-BoldItalic-6c" transform="translate(104.979979 -13.642188)scale(0.7)"/>
      <use xlink:href="#STIXGeneral-BoldItalic-6c" transform="translate(124.43997 -13.642188)scale(0.7)"/>
      <use xlink:href="#STIXGeneral-BoldItalic-61" transform="translate(143.899962 -13.642188)scale(0.7)"/>
      <use xlink:href="#STIXGeneral-BoldItalic-70" transform="translate(178.899951 -13.642188)scale(0.7)"/>
      <use xlink:href="#STIXGeneral-BoldItalic-73" transform="translate(213.89994 -13.642188)scale(0.7)"/>
      <use xlink:href="#STIXGeneral-BoldItalic-65" transform="translate(241.129936 -13.642188)scale(0.7)"/>
      <use xlink:href="#TimesNewRomanPS-BoldMT-20" transform="translate(276.830244 0.21875)"/>
      <use xlink:href="#TimesNewRomanPS-BoldMT-28" transform="translate(301.830244 0.21875)"/>
      <use xlink:href="#TimesNewRomanPS-BoldMT-77" transform="translate(335.131026 0.21875)"/>
      <use xlink:href="#TimesNewRomanPS-BoldMT-69" transform="translate(407.347823 0.21875)"/>
      <use xlink:href="#TimesNewRomanPS-BoldMT-74" transform="translate(435.131026 0.21875)"/>
      <use xlink:href="#TimesNewRomanPS-BoldMT-68" transform="translate(468.431807 0.21875)"/>
      <use xlink:href="#TimesNewRomanPS-BoldMT-6f" transform="translate(524.047041 0.21875)"/>
      <use xlink:href="#TimesNewRomanPS-BoldMT-75" transform="translate(574.047041 0.21875)"/>
      <use xlink:href="#TimesNewRomanPS-BoldMT-74" transform="translate(629.662276 0.21875)"/>
      <use xlink:href="#TimesNewRomanPS-BoldMT-20" transform="translate(662.963057 0.21875)"/>
      <use xlink:href="#TimesNewRomanPS-BoldMT-4c" transform="translate(687.963057 0.21875)"/>
      <use xlink:href="#TimesNewRomanPS-BoldMT-6f" transform="translate(754.662276 0.21875)"/>
      <use xlink:href="#TimesNewRomanPS-BoldMT-6e" transform="translate(804.662276 0.21875)"/>
      <use xlink:href="#TimesNewRomanPS-BoldMT-65" transform="translate(860.27751 0.21875)"/>
      <use xlink:href="#TimesNewRomanPS-BoldMT-72" transform="translate(904.662276 0.21875)"/>
      <use xlink:href="#TimesNewRomanPS-BoldMT-29" transform="translate(949.047041 0.21875)"/>
     </g>
    </g>
   </g>
   <g id="PathCollection_3">
    <path d="M 680.372273 491.693068 
C 682.247542 491.693068 684.046257 490.948015 685.372273 489.622 
C 686.698288 488.295984 687.443341 486.497269 687.443341 484.622 
C 687.443341 482.746731 686.698288 480.948015 685.372273 479.622 
C 684.046257 478.295984 682.247542 477.550932 680.372273 477.550932 
C 678.497004 477.550932 676.698288 478.295984 675.372273 479.622 
C 674.046257 480.948015 673.301205 482.746731 673.301205 484.622 
C 673.301205 486.497269 674.046257 488.295984 675.372273 489.622 
C 676.698288 490.948015 678.497004 491.693068 680.372273 491.693068 
L 680.372273 491.693068 
z
" clip-path="url(#pf1656f8b39)" style="fill: none; stroke: #8a95a9; stroke-width: 2.5"/>
   </g>
   <g id="PathCollection_4">
    <g clip-path="url(#pf1656f8b39)">
     <use xlink:href="#mf05e9168db" x="680.372273" y="484.622" style="fill: #8a95a9; stroke: #8a95a9; stroke-width: 2.5"/>
    </g>
   </g>
  </g>
 </g>
 <defs>
  <clipPath id="pf1656f8b39">
   <rect x="74.99" y="10.8" width="634.21" height="498.76"/>
  </clipPath>
 </defs>
</svg>
