<?xml version="1.0" encoding="utf-8" standalone="no"?>
<!DOCTYPE svg PUBLIC "-//W3C//DTD SVG 1.1//EN"
  "http://www.w3.org/Graphics/SVG/1.1/DTD/svg11.dtd">
<svg xmlns:xlink="http://www.w3.org/1999/xlink" width="460.8pt" height="345.6pt" viewBox="0 0 460.8 345.6" xmlns="http://www.w3.org/2000/svg" version="1.1">
 <metadata>
  <rdf:RDF xmlns:dc="http://purl.org/dc/elements/1.1/" xmlns:cc="http://creativecommons.org/ns#" xmlns:rdf="http://www.w3.org/1999/02/22-rdf-syntax-ns#">
   <cc:Work>
    <dc:type rdf:resource="http://purl.org/dc/dcmitype/StillImage"/>
    <dc:date>2025-09-26T15:49:03.479580</dc:date>
    <dc:format>image/svg+xml</dc:format>
    <dc:creator>
     <cc:Agent>
      <dc:title>Matplotlib v3.5.1, https://matplotlib.org/</dc:title>
     </cc:Agent>
    </dc:creator>
   </cc:Work>
  </rdf:RDF>
 </metadata>
 <defs>
  <style type="text/css">*{stroke-linejoin: round; stroke-linecap: butt}</style>
 </defs>
 <g id="figure_1">
  <g id="patch_1">
   <path d="M 0 345.6 
L 460.8 345.6 
L 460.8 0 
L 0 0 
z
" style="fill: #ffffff"/>
  </g>
  <g id="axes_1">
   <g id="patch_2">
    <path d="M 45.83 303.64 
L 450 303.64 
L 450 10.8 
L 45.83 10.8 
z
" style="fill: #ffffff"/>
   </g>
   <g id="matplotlib.axis_1">
    <g id="xtick_1">
     <g id="line2d_1">
      <defs>
       <path id="mdd2867274f" d="M 0 0 
L 0 3.5 
" style="stroke: #000000; stroke-width: 0.8"/>
      </defs>
      <g>
       <use xlink:href="#mdd2867274f" x="64.201364" y="303.64" style="stroke: #000000; stroke-width: 0.8"/>
      </g>
     </g>
     <g id="text_1">
      <!-- 1.0 -->
      <g transform="translate(57.951364 317.58375)scale(0.1 -0.1)">
       <defs>
        <path id="TimesNewRomanPSMT-31" d="M 750 3822 
L 1781 4325 
L 1884 4325 
L 1884 747 
Q 1884 391 1914 303 
Q 1944 216 2037 169 
Q 2131 122 2419 116 
L 2419 0 
L 825 0 
L 825 116 
Q 1125 122 1212 167 
Q 1300 213 1334 289 
Q 1369 366 1369 747 
L 1369 3034 
Q 1369 3497 1338 3628 
Q 1316 3728 1258 3775 
Q 1200 3822 1119 3822 
Q 1003 3822 797 3725 
L 750 3822 
z
" transform="scale(0.015625)"/>
        <path id="TimesNewRomanPSMT-2e" d="M 800 606 
Q 947 606 1047 504 
Q 1147 403 1147 259 
Q 1147 116 1045 14 
Q 944 -88 800 -88 
Q 656 -88 554 14 
Q 453 116 453 259 
Q 453 406 554 506 
Q 656 606 800 606 
z
" transform="scale(0.015625)"/>
        <path id="TimesNewRomanPSMT-30" d="M 231 2094 
Q 231 2819 450 3342 
Q 669 3866 1031 4122 
Q 1313 4325 1613 4325 
Q 2100 4325 2488 3828 
Q 2972 3213 2972 2159 
Q 2972 1422 2759 906 
Q 2547 391 2217 158 
Q 1888 -75 1581 -75 
Q 975 -75 572 641 
Q 231 1244 231 2094 
z
M 844 2016 
Q 844 1141 1059 588 
Q 1238 122 1591 122 
Q 1759 122 1940 273 
Q 2122 425 2216 781 
Q 2359 1319 2359 2297 
Q 2359 3022 2209 3506 
Q 2097 3866 1919 4016 
Q 1791 4119 1609 4119 
Q 1397 4119 1231 3928 
Q 1006 3669 925 3112 
Q 844 2556 844 2016 
z
" transform="scale(0.015625)"/>
       </defs>
       <use xlink:href="#TimesNewRomanPSMT-31"/>
       <use xlink:href="#TimesNewRomanPSMT-2e" x="50"/>
       <use xlink:href="#TimesNewRomanPSMT-30" x="75"/>
      </g>
     </g>
    </g>
    <g id="xtick_2">
     <g id="line2d_2">
      <g>
       <use xlink:href="#mdd2867274f" x="137.686818" y="303.64" style="stroke: #000000; stroke-width: 0.8"/>
      </g>
     </g>
     <g id="text_2">
      <!-- 1.2 -->
      <g transform="translate(131.436818 317.58375)scale(0.1 -0.1)">
       <defs>
        <path id="TimesNewRomanPSMT-32" d="M 2934 816 
L 2638 0 
L 138 0 
L 138 116 
Q 1241 1122 1691 1759 
Q 2141 2397 2141 2925 
Q 2141 3328 1894 3587 
Q 1647 3847 1303 3847 
Q 991 3847 742 3664 
Q 494 3481 375 3128 
L 259 3128 
Q 338 3706 661 4015 
Q 984 4325 1469 4325 
Q 1984 4325 2329 3994 
Q 2675 3663 2675 3213 
Q 2675 2891 2525 2569 
Q 2294 2063 1775 1497 
Q 997 647 803 472 
L 1909 472 
Q 2247 472 2383 497 
Q 2519 522 2628 598 
Q 2738 675 2819 816 
L 2934 816 
z
" transform="scale(0.015625)"/>
       </defs>
       <use xlink:href="#TimesNewRomanPSMT-31"/>
       <use xlink:href="#TimesNewRomanPSMT-2e" x="50"/>
       <use xlink:href="#TimesNewRomanPSMT-32" x="75"/>
      </g>
     </g>
    </g>
    <g id="xtick_3">
     <g id="line2d_3">
      <g>
       <use xlink:href="#mdd2867274f" x="211.172273" y="303.64" style="stroke: #000000; stroke-width: 0.8"/>
      </g>
     </g>
     <g id="text_3">
      <!-- 1.4 -->
      <g transform="translate(204.922273 317.58375)scale(0.1 -0.1)">
       <defs>
        <path id="TimesNewRomanPSMT-34" d="M 2978 1563 
L 2978 1119 
L 2409 1119 
L 2409 0 
L 1894 0 
L 1894 1119 
L 100 1119 
L 100 1519 
L 2066 4325 
L 2409 4325 
L 2409 1563 
L 2978 1563 
z
M 1894 1563 
L 1894 3666 
L 406 1563 
L 1894 1563 
z
" transform="scale(0.015625)"/>
       </defs>
       <use xlink:href="#TimesNewRomanPSMT-31"/>
       <use xlink:href="#TimesNewRomanPSMT-2e" x="50"/>
       <use xlink:href="#TimesNewRomanPSMT-34" x="75"/>
      </g>
     </g>
    </g>
    <g id="xtick_4">
     <g id="line2d_4">
      <g>
       <use xlink:href="#mdd2867274f" x="284.657727" y="303.64" style="stroke: #000000; stroke-width: 0.8"/>
      </g>
     </g>
     <g id="text_4">
      <!-- 1.6 -->
      <g transform="translate(278.407727 317.58375)scale(0.1 -0.1)">
       <defs>
        <path id="TimesNewRomanPSMT-36" d="M 2869 4325 
L 2869 4209 
Q 2456 4169 2195 4045 
Q 1934 3922 1679 3669 
Q 1425 3416 1258 3105 
Q 1091 2794 978 2366 
Q 1428 2675 1881 2675 
Q 2316 2675 2634 2325 
Q 2953 1975 2953 1425 
Q 2953 894 2631 456 
Q 2244 -75 1606 -75 
Q 1172 -75 869 213 
Q 275 772 275 1663 
Q 275 2231 503 2743 
Q 731 3256 1154 3653 
Q 1578 4050 1965 4187 
Q 2353 4325 2688 4325 
L 2869 4325 
z
M 925 2138 
Q 869 1716 869 1456 
Q 869 1156 980 804 
Q 1091 453 1309 247 
Q 1469 100 1697 100 
Q 1969 100 2183 356 
Q 2397 613 2397 1088 
Q 2397 1622 2184 2012 
Q 1972 2403 1581 2403 
Q 1463 2403 1327 2353 
Q 1191 2303 925 2138 
z
" transform="scale(0.015625)"/>
       </defs>
       <use xlink:href="#TimesNewRomanPSMT-31"/>
       <use xlink:href="#TimesNewRomanPSMT-2e" x="50"/>
       <use xlink:href="#TimesNewRomanPSMT-36" x="75"/>
      </g>
     </g>
    </g>
    <g id="xtick_5">
     <g id="line2d_5">
      <g>
       <use xlink:href="#mdd2867274f" x="358.143182" y="303.64" style="stroke: #000000; stroke-width: 0.8"/>
      </g>
     </g>
     <g id="text_5">
      <!-- 1.8 -->
      <g transform="translate(351.893182 317.58375)scale(0.1 -0.1)">
       <defs>
        <path id="TimesNewRomanPSMT-38" d="M 1228 2134 
Q 725 2547 579 2797 
Q 434 3047 434 3316 
Q 434 3728 753 4026 
Q 1072 4325 1600 4325 
Q 2113 4325 2425 4047 
Q 2738 3769 2738 3413 
Q 2738 3175 2569 2928 
Q 2400 2681 1866 2347 
Q 2416 1922 2594 1678 
Q 2831 1359 2831 1006 
Q 2831 559 2490 242 
Q 2150 -75 1597 -75 
Q 994 -75 656 303 
Q 388 606 388 966 
Q 388 1247 577 1523 
Q 766 1800 1228 2134 
z
M 1719 2469 
Q 2094 2806 2194 3001 
Q 2294 3197 2294 3444 
Q 2294 3772 2109 3958 
Q 1925 4144 1606 4144 
Q 1288 4144 1088 3959 
Q 888 3775 888 3528 
Q 888 3366 970 3203 
Q 1053 3041 1206 2894 
L 1719 2469 
z
M 1375 2016 
Q 1116 1797 991 1539 
Q 866 1281 866 981 
Q 866 578 1086 336 
Q 1306 94 1647 94 
Q 1984 94 2187 284 
Q 2391 475 2391 747 
Q 2391 972 2272 1150 
Q 2050 1481 1375 2016 
z
" transform="scale(0.015625)"/>
       </defs>
       <use xlink:href="#TimesNewRomanPSMT-31"/>
       <use xlink:href="#TimesNewRomanPSMT-2e" x="50"/>
       <use xlink:href="#TimesNewRomanPSMT-38" x="75"/>
      </g>
     </g>
    </g>
    <g id="xtick_6">
     <g id="line2d_6">
      <g>
       <use xlink:href="#mdd2867274f" x="431.628636" y="303.64" style="stroke: #000000; stroke-width: 0.8"/>
      </g>
     </g>
     <g id="text_6">
      <!-- 2.0 -->
      <g transform="translate(425.378636 317.58375)scale(0.1 -0.1)">
       <use xlink:href="#TimesNewRomanPSMT-32"/>
       <use xlink:href="#TimesNewRomanPSMT-2e" x="50"/>
       <use xlink:href="#TimesNewRomanPSMT-30" x="75"/>
      </g>
     </g>
    </g>
    <g id="text_7">
     <!-- b -->
     <g transform="translate(245.415 330.666562)scale(0.1 -0.1)">
      <defs>
       <path id="TimesNewRomanPSMT-62" d="M 984 2369 
Q 1400 2947 1881 2947 
Q 2322 2947 2650 2570 
Q 2978 2194 2978 1541 
Q 2978 778 2472 313 
Q 2038 -88 1503 -88 
Q 1253 -88 995 3 
Q 738 94 469 275 
L 469 3241 
Q 469 3728 445 3840 
Q 422 3953 372 3993 
Q 322 4034 247 4034 
Q 159 4034 28 3984 
L -16 4094 
L 844 4444 
L 984 4444 
L 984 2369 
z
M 984 2169 
L 984 456 
Q 1144 300 1314 220 
Q 1484 141 1663 141 
Q 1947 141 2192 453 
Q 2438 766 2438 1363 
Q 2438 1913 2192 2208 
Q 1947 2503 1634 2503 
Q 1469 2503 1303 2419 
Q 1178 2356 984 2169 
z
" transform="scale(0.015625)"/>
      </defs>
      <use xlink:href="#TimesNewRomanPSMT-62"/>
     </g>
    </g>
   </g>
   <g id="matplotlib.axis_2">
    <g id="ytick_1">
     <g id="line2d_7">
      <defs>
       <path id="md91ce7d33b" d="M 0 0 
L -3.5 0 
" style="stroke: #000000; stroke-width: 0.8"/>
      </defs>
      <g>
       <use xlink:href="#md91ce7d33b" x="45.83" y="288.699722" style="stroke: #000000; stroke-width: 0.8"/>
      </g>
     </g>
     <g id="text_8">
      <!-- 0.0 -->
      <g transform="translate(26.33 292.171597)scale(0.1 -0.1)">
       <use xlink:href="#TimesNewRomanPSMT-30"/>
       <use xlink:href="#TimesNewRomanPSMT-2e" x="50"/>
       <use xlink:href="#TimesNewRomanPSMT-30" x="75"/>
      </g>
     </g>
    </g>
    <g id="ytick_2">
     <g id="line2d_8">
      <g>
       <use xlink:href="#md91ce7d33b" x="45.83" y="235.78196" style="stroke: #000000; stroke-width: 0.8"/>
      </g>
     </g>
     <g id="text_9">
      <!-- 0.2 -->
      <g transform="translate(26.33 239.253835)scale(0.1 -0.1)">
       <use xlink:href="#TimesNewRomanPSMT-30"/>
       <use xlink:href="#TimesNewRomanPSMT-2e" x="50"/>
       <use xlink:href="#TimesNewRomanPSMT-32" x="75"/>
      </g>
     </g>
    </g>
    <g id="ytick_3">
     <g id="line2d_9">
      <g>
       <use xlink:href="#md91ce7d33b" x="45.83" y="182.864197" style="stroke: #000000; stroke-width: 0.8"/>
      </g>
     </g>
     <g id="text_10">
      <!-- 0.4 -->
      <g transform="translate(26.33 186.336072)scale(0.1 -0.1)">
       <use xlink:href="#TimesNewRomanPSMT-30"/>
       <use xlink:href="#TimesNewRomanPSMT-2e" x="50"/>
       <use xlink:href="#TimesNewRomanPSMT-34" x="75"/>
      </g>
     </g>
    </g>
    <g id="ytick_4">
     <g id="line2d_10">
      <g>
       <use xlink:href="#md91ce7d33b" x="45.83" y="129.946434" style="stroke: #000000; stroke-width: 0.8"/>
      </g>
     </g>
     <g id="text_11">
      <!-- 0.6 -->
      <g transform="translate(26.33 133.418309)scale(0.1 -0.1)">
       <use xlink:href="#TimesNewRomanPSMT-30"/>
       <use xlink:href="#TimesNewRomanPSMT-2e" x="50"/>
       <use xlink:href="#TimesNewRomanPSMT-36" x="75"/>
      </g>
     </g>
    </g>
    <g id="ytick_5">
     <g id="line2d_11">
      <g>
       <use xlink:href="#md91ce7d33b" x="45.83" y="77.028672" style="stroke: #000000; stroke-width: 0.8"/>
      </g>
     </g>
     <g id="text_12">
      <!-- 0.8 -->
      <g transform="translate(26.33 80.500547)scale(0.1 -0.1)">
       <use xlink:href="#TimesNewRomanPSMT-30"/>
       <use xlink:href="#TimesNewRomanPSMT-2e" x="50"/>
       <use xlink:href="#TimesNewRomanPSMT-38" x="75"/>
      </g>
     </g>
    </g>
    <g id="ytick_6">
     <g id="line2d_12">
      <g>
       <use xlink:href="#md91ce7d33b" x="45.83" y="24.110909" style="stroke: #000000; stroke-width: 0.8"/>
      </g>
     </g>
     <g id="text_13">
      <!-- 1.0 -->
      <g transform="translate(26.33 27.582784)scale(0.1 -0.1)">
       <use xlink:href="#TimesNewRomanPSMT-31"/>
       <use xlink:href="#TimesNewRomanPSMT-2e" x="50"/>
       <use xlink:href="#TimesNewRomanPSMT-30" x="75"/>
      </g>
     </g>
    </g>
    <g id="text_14">
     <!-- $f_C$, $f_D$, $f_L$ -->
     <g transform="translate(20.190938 173.87)rotate(-90)scale(0.1 -0.1)">
      <defs>
       <path id="STIXGeneral-Italic-66" d="M 262 2739 
L 858 2739 
Q 1107 3546 1318 3846 
Q 1664 4339 2163 4339 
Q 2400 4339 2557 4227 
Q 2714 4115 2714 3942 
Q 2714 3834 2634 3750 
Q 2554 3667 2445 3667 
Q 2355 3667 2281 3737 
Q 2208 3808 2208 3917 
Q 2208 3981 2240 4038 
Q 2272 4096 2272 4115 
Q 2272 4198 2131 4198 
Q 1862 4198 1676 3849 
Q 1491 3501 1350 2739 
L 2035 2739 
L 1997 2534 
L 1306 2534 
L 845 486 
Q 435 -1325 -435 -1325 
Q -653 -1325 -797 -1213 
Q -941 -1101 -941 -934 
Q -941 -826 -870 -746 
Q -800 -666 -698 -666 
Q -589 -666 -521 -733 
Q -454 -800 -454 -902 
Q -454 -947 -483 -1001 
Q -512 -1056 -512 -1088 
Q -512 -1190 -384 -1190 
Q 13 -1190 237 -154 
L 800 2534 
L 218 2534 
L 262 2739 
z
" transform="scale(0.015625)"/>
       <path id="STIXGeneral-Italic-43" d="M 4410 4250 
L 4173 2970 
L 4058 2989 
Q 3942 4032 3104 4032 
Q 2406 4032 1830 3411 
Q 1491 3053 1315 2541 
Q 1139 2029 1139 1485 
Q 1139 173 2259 173 
Q 2656 173 2985 339 
Q 3315 506 3725 934 
L 3840 838 
Q 3411 333 2998 109 
Q 2586 -115 2093 -115 
Q 1344 -115 883 329 
Q 422 774 422 1555 
Q 422 2214 748 2812 
Q 1075 3411 1619 3795 
Q 2272 4262 3021 4262 
Q 3462 4262 3770 4154 
Q 3898 4109 4032 4109 
Q 4205 4109 4275 4250 
L 4410 4250 
z
" transform="scale(0.015625)"/>
       <path id="TimesNewRomanPSMT-2c" d="M 344 -1066 
L 344 -928 
Q 666 -822 842 -598 
Q 1019 -375 1019 -125 
Q 1019 -66 991 -25 
Q 969 3 947 3 
Q 913 3 797 -59 
Q 741 -88 678 -88 
Q 525 -88 434 3 
Q 344 94 344 253 
Q 344 406 461 515 
Q 578 625 747 625 
Q 953 625 1114 445 
Q 1275 266 1275 -31 
Q 1275 -353 1051 -629 
Q 828 -906 344 -1066 
z
" transform="scale(0.015625)"/>
       <path id="TimesNewRomanPSMT-20" transform="scale(0.015625)"/>
       <path id="STIXGeneral-Italic-44" d="M 838 4179 
L 2611 4179 
Q 3469 4179 3974 3731 
Q 4480 3283 4480 2458 
Q 4480 1325 3456 531 
Q 2778 0 1594 0 
L -51 0 
L -51 102 
Q 224 154 310 230 
Q 397 307 474 589 
L 1254 3437 
Q 1325 3686 1325 3814 
Q 1325 3949 1222 4009 
Q 1120 4070 838 4077 
L 838 4179 
z
M 1984 3738 
L 1229 1037 
Q 1088 525 1088 429 
Q 1088 192 1523 192 
Q 2470 192 3066 768 
Q 3398 1088 3584 1597 
Q 3770 2106 3770 2611 
Q 3770 3386 3270 3763 
Q 2970 3987 2432 3987 
Q 2227 3987 2128 3939 
Q 2029 3891 1984 3738 
z
" transform="scale(0.015625)"/>
       <path id="STIXGeneral-Italic-4c" d="M 3578 1152 
L 3206 0 
L -51 0 
L -51 102 
Q 218 128 301 211 
Q 384 294 474 602 
L 1254 3405 
Q 1325 3642 1325 3802 
Q 1325 3942 1225 4000 
Q 1126 4058 832 4077 
L 832 4179 
L 2579 4179 
L 2579 4077 
Q 2285 4058 2147 3955 
Q 2010 3853 1933 3584 
L 1165 838 
Q 1101 595 1101 493 
Q 1101 346 1241 288 
Q 1382 230 1773 230 
Q 2266 230 2480 275 
Q 2694 320 2925 474 
Q 3187 646 3450 1190 
L 3578 1152 
z
" transform="scale(0.015625)"/>
      </defs>
      <use xlink:href="#STIXGeneral-Italic-66" transform="translate(0 0.203125)"/>
      <use xlink:href="#STIXGeneral-Italic-43" transform="translate(27.799988 -13.025)scale(0.7)"/>
      <use xlink:href="#TimesNewRomanPSMT-2c" transform="translate(78.899361 0.203125)"/>
      <use xlink:href="#TimesNewRomanPSMT-20" transform="translate(103.899361 0.203125)"/>
      <use xlink:href="#STIXGeneral-Italic-66" transform="translate(128.899361 0.203125)"/>
      <use xlink:href="#STIXGeneral-Italic-44" transform="translate(156.699348 -13.025)scale(0.7)"/>
      <use xlink:href="#TimesNewRomanPSMT-2c" transform="translate(211.648711 0.203125)"/>
      <use xlink:href="#TimesNewRomanPSMT-20" transform="translate(236.648711 0.203125)"/>
      <use xlink:href="#STIXGeneral-Italic-66" transform="translate(261.648711 0.203125)"/>
      <use xlink:href="#STIXGeneral-Italic-4c" transform="translate(289.448698 -13.025)scale(0.7)"/>
     </g>
    </g>
   </g>
   <g id="line2d_13">
    <path d="M 64.201364 24.110909 
L 65.430217 29.713404 
L 66.659071 34.213471 
L 67.887925 37.724508 
L 69.116779 40.359918 
L 70.345632 42.2331 
L 71.574486 43.457455 
L 72.80334 44.146382 
L 74.032194 44.413282 
L 75.261047 44.371556 
L 77.718755 43.815824 
L 78.947609 43.528617 
L 81.405316 43.299962 
L 83.863024 43.390181 
L 87.549585 43.610104 
L 92.465 43.604404 
L 98.609269 43.641737 
L 120.728636 43.839861 
L 134.246028 44.013031 
L 147.763419 44.053751 
L 152.678834 44.05595 
L 156.365395 44.210645 
L 158.823103 44.049663 
L 161.28081 43.441489 
L 162.509664 43.094491 
L 163.738518 42.881513 
L 164.967372 42.927151 
L 166.196225 43.356 
L 167.425079 44.290448 
L 169.882787 46.996684 
L 171.11164 47.849256 
L 172.340494 47.730315 
L 173.569348 46.161498 
L 174.798202 42.674663 
L 177.255909 32.577655 
L 178.484763 29.423194 
L 179.713617 29.921794 
L 180.94247 35.866227 
L 182.171324 49.024108 
L 183.400178 69.497845 
L 185.857885 121.861806 
L 187.086739 148.124373 
L 188.315593 170.688894 
L 189.544447 186.771457 
L 190.7733 195.299939 
L 192.002154 197.808706 
L 193.231008 196.050954 
L 194.459862 191.779883 
L 195.688715 186.748691 
L 196.917569 182.693535 
L 198.146423 180.49994 
L 199.375277 179.82529 
L 200.60413 180.231219 
L 201.832984 181.27936 
L 203.061838 182.531347 
L 204.290692 183.553781 
L 205.519545 184.131354 
L 206.748399 184.347397 
L 207.977253 184.306823 
L 212.892668 183.615132 
L 215.350375 183.668981 
L 219.036937 183.832209 
L 226.410059 183.827882 
L 231.325474 184.326574 
L 232.554328 184.258915 
L 235.012036 183.683132 
L 236.240889 183.388388 
L 237.469743 183.307701 
L 238.698597 183.606426 
L 239.927451 184.449914 
L 241.156304 185.996304 
L 242.385158 188.221055 
L 244.842866 193.828456 
L 247.300573 199.471875 
L 248.529427 201.747404 
L 249.758281 203.497322 
L 250.987134 204.766012 
L 252.215988 205.603619 
L 253.444842 206.060282 
L 254.673696 206.186143 
L 255.902549 206.032191 
L 257.131403 205.667161 
L 262.046818 203.814554 
L 263.275672 203.679844 
L 264.504526 203.751857 
L 268.191087 204.307871 
L 269.419941 204.300637 
L 270.648794 204.050029 
L 271.877648 203.573401 
L 275.564209 201.855147 
L 276.793063 201.547876 
L 278.021917 201.547001 
L 279.250771 201.837957 
L 284.166186 203.721055 
L 285.39504 203.823325 
L 286.623893 203.691752 
L 290.310455 203.050089 
L 291.539308 203.144131 
L 292.768162 203.577145 
L 293.997016 204.316131 
L 297.683577 207.00749 
L 298.912431 207.604279 
L 300.141285 207.832459 
L 301.370138 207.703671 
L 302.598992 207.325407 
L 306.285553 205.787892 
L 307.514407 205.497213 
L 309.972115 205.378257 
L 312.429822 205.406133 
L 313.658676 205.297814 
L 314.88753 205.021662 
L 319.802945 203.383322 
L 321.031798 203.271159 
L 322.260652 203.441292 
L 323.489506 203.874115 
L 325.947213 205.220724 
L 328.404921 206.693092 
L 329.633775 207.287704 
L 330.862628 207.735168 
L 332.091482 208.031676 
L 333.320336 208.173689 
L 334.54919 208.157668 
L 335.778043 207.980075 
L 337.006897 207.641672 
L 339.464605 206.66075 
L 341.922312 205.67468 
L 343.151166 205.330029 
L 344.38002 205.154937 
L 346.837727 205.154658 
L 349.295435 205.154129 
L 350.524289 204.978424 
L 351.753142 204.606303 
L 355.439704 203.069821 
L 356.668557 202.776132 
L 357.897411 202.771091 
L 359.126265 203.141817 
L 360.355119 203.823703 
L 364.04168 206.40892 
L 365.270534 207.007404 
L 366.499387 207.273522 
L 367.728241 207.239485 
L 370.185949 206.644607 
L 372.643656 205.971185 
L 373.87251 205.824712 
L 376.330217 205.900433 
L 380.016779 206.174993 
L 382.474486 205.97527 
L 386.161047 205.497456 
L 387.389901 205.467884 
L 389.847609 205.776476 
L 395.991877 207.092362 
L 402.136146 207.643977 
L 404.593854 208.24133 
L 408.280415 209.499154 
L 410.738123 210.318447 
L 411.966976 210.591944 
L 413.19583 210.659798 
L 414.424684 210.432477 
L 415.653538 209.820448 
L 416.882391 208.73418 
L 420.568953 204.199243 
L 421.797806 203.75756 
L 423.02666 204.651973 
L 424.255514 207.36315 
L 425.484368 212.371761 
L 426.713221 220.158473 
L 427.942075 231.203957 
L 429.170929 245.98888 
L 430.399783 264.993912 
L 431.628636 288.699722 
L 431.628636 288.699722 
" clip-path="url(#p203ad84304)" style="fill: none; stroke: #264385; stroke-width: 1.5; stroke-linecap: square"/>
   </g>
   <g id="line2d_14">
    <path d="M 64.201364 288.699722 
L 65.430217 283.097227 
L 66.659071 278.597161 
L 67.887925 275.086123 
L 69.116779 272.450713 
L 70.345632 270.577531 
L 71.574486 269.353177 
L 72.80334 268.66425 
L 74.032194 268.397349 
L 75.261047 268.439076 
L 77.718755 268.994808 
L 78.947609 269.282014 
L 81.405316 269.51067 
L 83.863024 269.42045 
L 87.549585 269.200527 
L 92.465 269.206228 
L 98.609269 269.168895 
L 120.728636 268.97077 
L 134.246028 268.797601 
L 147.763419 268.756881 
L 152.678834 268.754681 
L 156.365395 268.599986 
L 158.823103 268.760968 
L 161.28081 269.369143 
L 162.509664 269.716142 
L 163.738518 269.929119 
L 164.967372 269.883481 
L 166.196225 269.454632 
L 167.425079 268.520183 
L 169.882787 265.813945 
L 171.11164 264.961372 
L 172.340494 265.080314 
L 173.569348 266.649132 
L 174.798202 270.13597 
L 177.255909 280.232987 
L 178.484763 283.38745 
L 179.713617 282.888849 
L 180.94247 276.944412 
L 182.171324 263.78652 
L 183.400178 243.312766 
L 185.857885 190.948779 
L 187.086739 164.686214 
L 188.315593 142.121712 
L 189.544447 126.039192 
L 190.7733 117.510771 
L 192.002154 115.002064 
L 193.231008 116.759851 
L 194.459862 121.030914 
L 195.688715 126.062032 
L 196.917569 130.117028 
L 198.146423 132.310395 
L 199.375277 132.984824 
L 200.60413 132.578762 
L 201.832984 131.530655 
L 203.061838 130.278951 
L 204.290692 129.257122 
L 205.519545 128.680404 
L 206.748399 128.46518 
L 207.977253 128.50624 
L 212.892668 129.191232 
L 215.350375 129.132558 
L 219.036937 128.982639 
L 225.181206 129.089825 
L 227.638913 128.772556 
L 230.096621 128.411859 
L 231.325474 128.366968 
L 232.554328 128.493823 
L 233.783182 128.848896 
L 236.240889 129.810346 
L 237.469743 129.977784 
L 238.698597 129.638765 
L 239.927451 128.570088 
L 241.156304 126.561197 
L 242.385158 123.72157 
L 244.842866 117.352807 
L 246.071719 114.749132 
L 247.300573 113.149568 
L 248.529427 112.998093 
L 249.758281 114.307384 
L 250.987134 116.658812 
L 254.673696 125.592125 
L 255.902549 127.752847 
L 257.131403 129.102925 
L 258.360257 129.814073 
L 259.589111 130.069448 
L 264.504526 130.06724 
L 266.962233 130.719424 
L 270.648794 132.192824 
L 273.106502 133.118084 
L 274.335356 133.430702 
L 275.564209 133.580281 
L 276.793063 133.51955 
L 278.021917 133.206787 
L 280.479625 132.091499 
L 281.708478 131.533825 
L 282.937332 131.14077 
L 284.166186 131.035814 
L 285.39504 131.332826 
L 286.623893 132.001884 
L 291.539308 135.557779 
L 292.768162 135.957295 
L 293.997016 135.996733 
L 295.22587 135.730765 
L 296.454723 135.215893 
L 297.683577 134.508621 
L 300.141285 132.744649 
L 302.598992 131.00954 
L 303.827846 130.388777 
L 305.0567 130.06178 
L 306.285553 130.125477 
L 307.514407 130.664842 
L 308.743261 131.622424 
L 311.200968 134.186685 
L 312.429822 135.488129 
L 313.658676 136.598962 
L 314.88753 137.377257 
L 316.116383 137.79953 
L 317.345237 137.916035 
L 318.574091 137.778139 
L 319.802945 137.437211 
L 322.260652 136.351605 
L 325.947213 134.467446 
L 327.176067 133.968681 
L 328.404921 133.61672 
L 329.633775 133.456711 
L 330.862628 133.493827 
L 332.091482 133.710904 
L 333.320336 134.090532 
L 334.54919 134.615303 
L 337.006897 136.026883 
L 339.464605 137.627169 
L 340.693458 138.32262 
L 341.922312 138.850995 
L 343.151166 139.139332 
L 344.38002 139.128113 
L 345.608874 138.870996 
L 349.295435 137.729457 
L 350.524289 137.594794 
L 351.753142 137.749583 
L 352.981996 138.143824 
L 356.668557 139.585433 
L 357.897411 139.758845 
L 359.126265 139.600751 
L 360.355119 139.150608 
L 362.812826 137.78096 
L 365.270534 136.464949 
L 366.499387 136.069022 
L 367.728241 135.877622 
L 368.957095 135.853171 
L 371.414802 136.154257 
L 377.559071 137.369632 
L 380.016779 137.559902 
L 382.474486 137.41968 
L 386.161047 137.100421 
L 387.389901 137.12213 
L 389.847609 137.519629 
L 392.305316 138.247963 
L 397.220731 139.828349 
L 399.678439 140.299952 
L 400.907292 140.385511 
L 402.136146 140.34458 
L 404.593854 139.886879 
L 408.280415 138.941596 
L 409.509269 138.758661 
L 413.19583 138.473681 
L 414.424684 138.014965 
L 415.653538 137.128955 
L 416.882391 135.668391 
L 419.340099 131.618386 
L 420.568953 130.444283 
L 421.797806 130.89889 
L 423.02666 133.778295 
L 424.255514 139.878584 
L 425.484368 149.995843 
L 426.713221 164.926159 
L 427.942075 185.465619 
L 429.170929 212.410308 
L 430.399783 246.556314 
L 431.628636 288.699722 
L 431.628636 288.699722 
" clip-path="url(#p203ad84304)" style="fill: none; stroke: #e23e35; stroke-width: 1.5; stroke-linecap: square"/>
   </g>
   <g id="line2d_15">
    <path d="M 64.201364 288.699722 
L 228.867767 288.803009 
L 231.325474 288.816812 
L 233.783182 288.634878 
L 237.469743 288.224868 
L 238.698597 288.265164 
L 239.927451 288.490352 
L 241.156304 288.952853 
L 243.614012 290.105326 
L 244.842866 290.329091 
L 246.071719 290.00247 
L 247.300573 288.888911 
L 248.529427 286.764857 
L 249.758281 283.705648 
L 253.444842 272.71151 
L 254.673696 269.732086 
L 255.902549 267.725315 
L 257.131403 266.740268 
L 258.360257 266.519645 
L 259.589111 266.794045 
L 262.046818 267.750304 
L 263.275672 267.903596 
L 264.504526 267.691257 
L 265.733379 267.227606 
L 269.419941 265.535252 
L 270.648794 265.267502 
L 271.877648 265.247253 
L 273.106502 265.41588 
L 275.564209 266.074926 
L 278.021917 266.756566 
L 280.479625 267.106706 
L 281.708478 267.11826 
L 282.937332 267.004577 
L 284.166186 266.753486 
L 285.39504 266.354203 
L 287.852747 265.16701 
L 290.310455 263.636483 
L 293.997016 261.197491 
L 295.22587 260.553713 
L 296.454723 260.125618 
L 297.683577 259.994243 
L 298.912431 260.240625 
L 300.141285 260.933247 
L 301.370138 261.979543 
L 303.827846 264.314496 
L 305.0567 265.190469 
L 306.285553 265.596985 
L 307.514407 265.348299 
L 308.743261 264.504012 
L 311.200968 261.914365 
L 312.429822 260.616092 
L 313.658676 259.613578 
L 314.88753 259.111436 
L 316.116383 259.104515 
L 317.345237 259.457079 
L 322.260652 261.717457 
L 323.489506 261.928035 
L 324.71836 261.9536 
L 325.947213 261.822184 
L 328.404921 261.200542 
L 330.862628 260.281358 
L 335.778043 258.262472 
L 338.235751 257.490834 
L 340.693458 257.049438 
L 341.922312 256.984679 
L 343.151166 257.040994 
L 345.608874 257.519599 
L 350.524289 258.937135 
L 352.981996 259.273974 
L 355.439704 259.260757 
L 357.897411 258.980419 
L 362.812826 258.139207 
L 365.270534 258.038001 
L 367.728241 258.393247 
L 371.414802 259.085173 
L 372.643656 259.134806 
L 373.87251 259.013189 
L 376.330217 258.436303 
L 378.787925 257.876117 
L 380.016779 257.775459 
L 381.245632 257.870578 
L 383.70334 258.426402 
L 386.161047 258.912477 
L 387.389901 258.920341 
L 388.618755 258.677028 
L 389.847609 258.21425 
L 392.305316 256.897368 
L 394.763024 255.504053 
L 397.220731 254.478944 
L 399.678439 253.849439 
L 402.136146 253.521797 
L 408.280415 253.069603 
L 411.966976 252.266047 
L 413.19583 252.376875 
L 414.424684 253.062912 
L 415.653538 254.560951 
L 416.882391 257.107783 
L 419.340099 264.395616 
L 420.568953 266.866828 
L 421.797806 266.853904 
L 423.02666 263.080086 
L 424.255514 254.26862 
L 425.484368 239.14275 
L 426.713221 216.425722 
L 427.942075 184.840779 
L 429.170929 143.111166 
L 430.399783 89.960128 
L 431.628636 24.110909 
L 431.628636 24.110909 
" clip-path="url(#p203ad84304)" style="fill: none; stroke: #dbb428; stroke-width: 1.5; stroke-linecap: square"/>
   </g>
   <g id="line2d_16">
    <path d="M 64.201364 24.110909 
L 65.430217 29.7121 
L 66.659071 34.211275 
L 67.887925 37.721811 
L 69.116779 40.357084 
L 70.345632 42.230472 
L 71.574486 43.455352 
L 72.80334 44.145099 
L 74.032194 44.413092 
L 75.261047 44.372706 
L 77.718755 43.820308 
L 78.947609 43.535048 
L 81.405316 43.310842 
L 83.863024 43.406605 
L 87.549585 43.637783 
L 92.465 43.642097 
L 101.066976 43.672061 
L 125.644051 43.851903 
L 145.305711 44.087117 
L 151.44998 43.974572 
L 157.594249 44.172841 
L 158.823103 44.052844 
L 161.28081 43.447649 
L 162.509664 43.096689 
L 163.738518 42.87781 
L 164.967372 42.916929 
L 166.196225 43.339961 
L 167.425079 44.270609 
L 169.882787 46.977068 
L 171.11164 47.832823 
L 172.340494 47.71848 
L 173.569348 46.1552 
L 174.798202 42.674371 
L 177.255909 32.590753 
L 178.484763 29.444548 
L 179.713617 29.953058 
L 180.94247 35.90952 
L 182.171324 49.081912 
L 183.400178 69.566615 
L 185.857885 121.87573 
L 187.086739 148.038026 
L 188.315593 170.430737 
L 189.544447 186.253222 
L 190.7733 194.445228 
L 192.002154 196.596537 
L 193.231008 194.51942 
L 194.459862 190.026149 
L 195.688715 184.928995 
L 196.917569 181.022039 
L 198.146423 179.191349 
L 199.375277 179.012006 
L 200.60413 179.956879 
L 203.061838 183.110757 
L 204.290692 184.272082 
L 205.519545 184.751097 
L 206.748399 184.711596 
L 207.977253 184.345955 
L 210.43496 183.405755 
L 211.663814 183.212781 
L 212.892668 183.333847 
L 214.121522 183.675401 
L 217.808083 184.980674 
L 219.036937 185.163928 
L 220.265791 185.122085 
L 222.723498 184.597909 
L 225.181206 183.904891 
L 227.638913 183.498133 
L 231.325474 183.349282 
L 233.783182 183.191566 
L 236.240889 183.059094 
L 237.469743 183.266943 
L 238.698597 183.817089 
L 239.927451 184.829212 
L 241.156304 186.41791 
L 242.385158 188.569093 
L 244.842866 193.953782 
L 247.300573 199.74069 
L 248.529427 202.397539 
L 249.758281 204.758791 
L 250.987134 206.804132 
L 252.215988 208.516134 
L 253.444842 209.877372 
L 254.673696 210.870419 
L 255.902549 211.48057 
L 257.131403 211.750164 
L 258.360257 211.775684 
L 263.275672 211.405282 
L 265.733379 211.887622 
L 268.191087 212.523728 
L 269.419941 212.744577 
L 270.648794 212.822241 
L 275.564209 212.674562 
L 276.793063 212.931285 
L 278.021917 213.462313 
L 280.479625 215.080063 
L 281.708478 215.887151 
L 282.937332 216.504789 
L 284.166186 216.791779 
L 285.39504 216.617892 
L 286.623893 216.016969 
L 289.081601 214.177824 
L 290.310455 213.266383 
L 291.539308 212.578216 
L 292.768162 212.266779 
L 293.997016 212.348041 
L 295.22587 212.737567 
L 296.454723 213.348637 
L 301.370138 216.320199 
L 302.598992 216.884925 
L 303.827846 217.317047 
L 305.0567 217.59279 
L 306.285553 217.688381 
L 307.514407 217.584602 
L 309.972115 216.954894 
L 312.429822 216.236353 
L 313.658676 216.022156 
L 314.88753 215.991964 
L 317.345237 216.335591 
L 319.802945 216.69724 
L 321.031798 216.688757 
L 322.260652 216.459531 
L 324.71836 215.540532 
L 327.176067 214.652196 
L 328.404921 214.462087 
L 329.633775 214.558804 
L 330.862628 214.912683 
L 335.778043 217.016741 
L 337.006897 217.253245 
L 338.235751 217.300228 
L 344.38002 217.006729 
L 346.837727 217.545672 
L 354.21085 219.745852 
L 357.897411 220.392781 
L 360.355119 220.655551 
L 362.812826 220.746704 
L 365.270534 220.611276 
L 371.414802 219.825178 
L 372.643656 219.888166 
L 373.87251 220.112219 
L 376.330217 220.903424 
L 378.787925 221.796031 
L 380.016779 222.146772 
L 381.245632 222.370869 
L 383.70334 222.481254 
L 386.161047 222.307676 
L 391.076462 221.855908 
L 393.53417 221.828099 
L 395.991877 222.053853 
L 399.678439 222.587811 
L 400.907292 222.661335 
L 402.136146 222.615471 
L 404.593854 222.137522 
L 407.051561 221.565196 
L 408.280415 221.42503 
L 409.509269 221.47894 
L 410.738123 221.768897 
L 413.19583 222.594947 
L 414.424684 222.834291 
L 415.653538 222.760008 
L 416.882391 222.223721 
L 418.111245 221.161326 
L 419.340099 219.888835 
L 420.568953 218.829385 
L 421.797806 218.40612 
L 423.02666 219.042181 
L 424.255514 221.16071 
L 425.484368 225.184852 
L 426.713221 231.537747 
L 427.942075 240.64254 
L 429.170929 252.922371 
L 430.399783 268.800385 
L 431.628636 288.699722 
L 431.628636 288.699722 
" clip-path="url(#p203ad84304)" style="fill: none; stroke-dasharray: 5.55,2.4; stroke-dashoffset: 0; stroke: #85c7e5; stroke-width: 1.5"/>
   </g>
   <g id="line2d_17">
    <path d="M 64.201364 288.699722 
L 65.430217 283.098531 
L 66.659071 278.599356 
L 67.887925 275.088821 
L 69.116779 272.453547 
L 70.345632 270.580159 
L 71.574486 269.35528 
L 72.80334 268.665533 
L 74.032194 268.39754 
L 75.261047 268.437925 
L 77.718755 268.990323 
L 78.947609 269.275583 
L 81.405316 269.49979 
L 83.863024 269.404027 
L 87.549585 269.172849 
L 92.465 269.168534 
L 101.066976 269.13857 
L 125.644051 268.958728 
L 145.305711 268.723515 
L 151.44998 268.836059 
L 157.594249 268.637791 
L 158.823103 268.757787 
L 161.28081 269.362982 
L 162.509664 269.713943 
L 163.738518 269.932822 
L 164.967372 269.893703 
L 166.196225 269.47067 
L 167.425079 268.540022 
L 169.882787 265.833564 
L 171.11164 264.977808 
L 172.340494 265.092152 
L 173.569348 266.655431 
L 174.798202 270.136261 
L 177.255909 280.219878 
L 178.484763 283.366084 
L 179.713617 282.857573 
L 180.94247 276.901112 
L 182.171324 263.728719 
L 183.400178 243.244017 
L 185.857885 190.934902 
L 187.086739 164.772606 
L 188.315593 142.379894 
L 189.544447 126.557409 
L 190.7733 118.365403 
L 192.002154 116.214094 
L 193.231008 118.291211 
L 194.459862 122.784483 
L 195.688715 127.881636 
L 196.917569 131.788592 
L 198.146423 133.619282 
L 199.375277 133.798626 
L 200.60413 132.853752 
L 203.061838 129.699875 
L 204.290692 128.538549 
L 205.519545 128.059535 
L 206.748399 128.099035 
L 207.977253 128.464676 
L 210.43496 129.404877 
L 211.663814 129.597851 
L 212.892668 129.476784 
L 214.121522 129.135231 
L 217.808083 127.829958 
L 219.036937 127.646704 
L 220.265791 127.688546 
L 222.723498 128.212722 
L 225.181206 128.90574 
L 227.638913 129.312499 
L 231.325474 129.46135 
L 233.783182 129.619065 
L 236.240889 129.751537 
L 237.469743 129.543689 
L 238.698597 128.993543 
L 239.927451 127.981419 
L 241.156304 126.392722 
L 242.385158 124.241538 
L 244.842866 118.85685 
L 247.300573 113.069941 
L 248.529427 110.413092 
L 249.758281 108.05184 
L 250.987134 106.0065 
L 252.215988 104.294498 
L 253.444842 102.93326 
L 254.673696 101.940212 
L 255.902549 101.330061 
L 257.131403 101.060468 
L 258.360257 101.034948 
L 263.275672 101.40535 
L 265.733379 100.92301 
L 268.191087 100.286903 
L 269.419941 100.066055 
L 270.648794 99.988391 
L 275.564209 100.136069 
L 276.793063 99.879347 
L 278.021917 99.348319 
L 280.479625 97.730569 
L 281.708478 96.92348 
L 282.937332 96.305843 
L 284.166186 96.018853 
L 285.39504 96.192739 
L 286.623893 96.793663 
L 289.081601 98.632808 
L 290.310455 99.544249 
L 291.539308 100.232416 
L 292.768162 100.543852 
L 293.997016 100.46259 
L 295.22587 100.073064 
L 296.454723 99.461995 
L 301.370138 96.490432 
L 302.598992 95.925706 
L 303.827846 95.493584 
L 305.0567 95.217841 
L 306.285553 95.122251 
L 307.514407 95.22603 
L 309.972115 95.855737 
L 312.429822 96.574278 
L 313.658676 96.788476 
L 314.88753 96.818668 
L 317.345237 96.475041 
L 319.802945 96.113392 
L 321.031798 96.121874 
L 322.260652 96.3511 
L 324.71836 97.270099 
L 327.176067 98.158436 
L 328.404921 98.348544 
L 329.633775 98.251828 
L 330.862628 97.897949 
L 335.778043 95.79389 
L 337.006897 95.557387 
L 338.235751 95.510403 
L 344.38002 95.803902 
L 346.837727 95.26496 
L 354.21085 93.06478 
L 357.897411 92.41785 
L 360.355119 92.15508 
L 362.812826 92.063928 
L 365.270534 92.199356 
L 371.414802 92.985453 
L 372.643656 92.922466 
L 373.87251 92.698413 
L 376.330217 91.907208 
L 378.787925 91.0146 
L 380.016779 90.66386 
L 381.245632 90.439763 
L 383.70334 90.329377 
L 386.161047 90.502956 
L 391.076462 90.954724 
L 393.53417 90.982533 
L 395.991877 90.756778 
L 399.678439 90.222821 
L 400.907292 90.149297 
L 402.136146 90.195161 
L 404.593854 90.673109 
L 407.051561 91.245436 
L 408.280415 91.385601 
L 409.509269 91.331692 
L 410.738123 91.041734 
L 413.19583 90.215684 
L 414.424684 89.976341 
L 415.653538 90.050623 
L 416.882391 90.58691 
L 418.111245 91.649306 
L 419.340099 92.921797 
L 420.568953 93.981246 
L 421.797806 94.404512 
L 423.02666 93.768451 
L 424.255514 91.649921 
L 425.484368 87.62578 
L 426.713221 81.272884 
L 427.942075 72.168092 
L 429.170929 59.88826 
L 430.399783 44.010247 
L 431.628636 24.110909 
L 431.628636 24.110909 
" clip-path="url(#p203ad84304)" style="fill: none; stroke-dasharray: 5.55,2.4; stroke-dashoffset: 0; stroke: #f39fa2; stroke-width: 1.5"/>
   </g>
   <g id="line2d_18">
    <path d="M 64.201364 288.699722 
L 431.628636 288.699722 
L 431.628636 288.699722 
" clip-path="url(#p203ad84304)" style="fill: none; stroke-dasharray: 5.55,2.4; stroke-dashoffset: 0; stroke: #eae936; stroke-width: 1.5"/>
   </g>
   <g id="patch_3">
    <path d="M 45.83 303.64 
L 45.83 10.8 
" style="fill: none; stroke: #000000; stroke-width: 0.8; stroke-linejoin: miter; stroke-linecap: square"/>
   </g>
   <g id="patch_4">
    <path d="M 450 303.64 
L 450 10.8 
" style="fill: none; stroke: #000000; stroke-width: 0.8; stroke-linejoin: miter; stroke-linecap: square"/>
   </g>
   <g id="patch_5">
    <path d="M 45.83 303.64 
L 450 303.64 
" style="fill: none; stroke: #000000; stroke-width: 0.8; stroke-linejoin: miter; stroke-linecap: square"/>
   </g>
   <g id="patch_6">
    <path d="M 45.83 10.8 
L 450 10.8 
" style="fill: none; stroke: #000000; stroke-width: 0.8; stroke-linejoin: miter; stroke-linecap: square"/>
   </g>
   <g id="legend_1">
    <g id="patch_7">
     <path d="M 52.83 201.137187 
L 155.644063 201.137187 
Q 157.644063 201.137187 157.644063 199.137187 
L 157.644063 115.302812 
Q 157.644063 113.302812 155.644063 113.302812 
L 52.83 113.302812 
Q 50.83 113.302812 50.83 115.302812 
L 50.83 199.137187 
Q 50.83 201.137187 52.83 201.137187 
z
" style="fill: #ffffff; opacity: 0.8; stroke: #cccccc; stroke-linejoin: miter"/>
    </g>
    <g id="line2d_19">
     <path d="M 54.83 120.802812 
L 64.83 120.802812 
L 74.83 120.802812 
" style="fill: none; stroke: #264385; stroke-width: 1.5; stroke-linecap: square"/>
    </g>
    <g id="text_15">
     <!-- C(with Loner) -->
     <g transform="translate(82.83 124.302812)scale(0.1 -0.1)">
      <defs>
       <path id="TimesNewRomanPSMT-43" d="M 3853 4334 
L 3950 2894 
L 3853 2894 
Q 3659 3541 3300 3825 
Q 2941 4109 2438 4109 
Q 2016 4109 1675 3895 
Q 1334 3681 1139 3212 
Q 944 2744 944 2047 
Q 944 1472 1128 1050 
Q 1313 628 1683 403 
Q 2053 178 2528 178 
Q 2941 178 3256 354 
Q 3572 531 3950 1056 
L 4047 994 
Q 3728 428 3303 165 
Q 2878 -97 2294 -97 
Q 1241 -97 663 684 
Q 231 1266 231 2053 
Q 231 2688 515 3219 
Q 800 3750 1298 4042 
Q 1797 4334 2388 4334 
Q 2847 4334 3294 4109 
Q 3425 4041 3481 4041 
Q 3566 4041 3628 4100 
Q 3709 4184 3744 4334 
L 3853 4334 
z
" transform="scale(0.015625)"/>
       <path id="TimesNewRomanPSMT-28" d="M 1988 -1253 
L 1988 -1369 
Q 1516 -1131 1200 -813 
Q 750 -359 506 256 
Q 263 872 263 1534 
Q 263 2503 741 3301 
Q 1219 4100 1988 4444 
L 1988 4313 
Q 1603 4100 1356 3731 
Q 1109 3363 987 2797 
Q 866 2231 866 1616 
Q 866 947 969 400 
Q 1050 -31 1165 -292 
Q 1281 -553 1476 -793 
Q 1672 -1034 1988 -1253 
z
" transform="scale(0.015625)"/>
       <path id="TimesNewRomanPSMT-77" d="M 41 2863 
L 1241 2863 
L 1241 2747 
Q 1075 2734 1023 2687 
Q 972 2641 972 2553 
Q 972 2456 1025 2319 
L 1638 672 
L 2253 2013 
L 2091 2434 
Q 2016 2622 1894 2694 
Q 1825 2738 1638 2747 
L 1638 2863 
L 3000 2863 
L 3000 2747 
Q 2775 2738 2681 2666 
Q 2619 2616 2619 2506 
Q 2619 2444 2644 2378 
L 3294 734 
L 3897 2319 
Q 3959 2488 3959 2588 
Q 3959 2647 3898 2694 
Q 3838 2741 3659 2747 
L 3659 2863 
L 4563 2863 
L 4563 2747 
Q 4291 2706 4163 2378 
L 3206 -88 
L 3078 -88 
L 2363 1741 
L 1528 -88 
L 1413 -88 
L 494 2319 
Q 403 2547 315 2626 
Q 228 2706 41 2747 
L 41 2863 
z
" transform="scale(0.015625)"/>
       <path id="TimesNewRomanPSMT-69" d="M 928 4444 
Q 1059 4444 1151 4351 
Q 1244 4259 1244 4128 
Q 1244 3997 1151 3903 
Q 1059 3809 928 3809 
Q 797 3809 703 3903 
Q 609 3997 609 4128 
Q 609 4259 701 4351 
Q 794 4444 928 4444 
z
M 1188 2947 
L 1188 647 
Q 1188 378 1227 289 
Q 1266 200 1342 156 
Q 1419 113 1622 113 
L 1622 0 
L 231 0 
L 231 113 
Q 441 113 512 153 
Q 584 194 626 287 
Q 669 381 669 647 
L 669 1750 
Q 669 2216 641 2353 
Q 619 2453 572 2492 
Q 525 2531 444 2531 
Q 356 2531 231 2484 
L 188 2597 
L 1050 2947 
L 1188 2947 
z
" transform="scale(0.015625)"/>
       <path id="TimesNewRomanPSMT-74" d="M 1031 3803 
L 1031 2863 
L 1700 2863 
L 1700 2644 
L 1031 2644 
L 1031 788 
Q 1031 509 1111 412 
Q 1191 316 1316 316 
Q 1419 316 1516 380 
Q 1613 444 1666 569 
L 1788 569 
Q 1678 263 1478 108 
Q 1278 -47 1066 -47 
Q 922 -47 784 33 
Q 647 113 581 261 
Q 516 409 516 719 
L 516 2644 
L 63 2644 
L 63 2747 
Q 234 2816 414 2980 
Q 594 3144 734 3369 
Q 806 3488 934 3803 
L 1031 3803 
z
" transform="scale(0.015625)"/>
       <path id="TimesNewRomanPSMT-68" d="M 1041 4444 
L 1041 2350 
Q 1388 2731 1591 2839 
Q 1794 2947 1997 2947 
Q 2241 2947 2416 2812 
Q 2591 2678 2675 2391 
Q 2734 2191 2734 1659 
L 2734 647 
Q 2734 375 2778 275 
Q 2809 200 2884 156 
Q 2959 113 3159 113 
L 3159 0 
L 1753 0 
L 1753 113 
L 1819 113 
Q 2019 113 2097 173 
Q 2175 234 2206 353 
Q 2216 403 2216 647 
L 2216 1659 
Q 2216 2128 2167 2275 
Q 2119 2422 2012 2495 
Q 1906 2569 1756 2569 
Q 1603 2569 1437 2487 
Q 1272 2406 1041 2159 
L 1041 647 
Q 1041 353 1073 281 
Q 1106 209 1195 161 
Q 1284 113 1503 113 
L 1503 0 
L 84 0 
L 84 113 
Q 275 113 384 172 
Q 447 203 484 290 
Q 522 378 522 647 
L 522 3238 
Q 522 3728 498 3840 
Q 475 3953 426 3993 
Q 378 4034 297 4034 
Q 231 4034 84 3984 
L 41 4094 
L 897 4444 
L 1041 4444 
z
" transform="scale(0.015625)"/>
       <path id="TimesNewRomanPSMT-4c" d="M 3669 1172 
L 3772 1150 
L 3409 0 
L 128 0 
L 128 116 
L 288 116 
Q 556 116 672 291 
Q 738 391 738 753 
L 738 3488 
Q 738 3884 650 3984 
Q 528 4122 288 4122 
L 128 4122 
L 128 4238 
L 2047 4238 
L 2047 4122 
Q 1709 4125 1573 4059 
Q 1438 3994 1388 3894 
Q 1338 3794 1338 3416 
L 1338 753 
Q 1338 494 1388 397 
Q 1425 331 1503 300 
Q 1581 269 1991 269 
L 2300 269 
Q 2788 269 2984 341 
Q 3181 413 3343 595 
Q 3506 778 3669 1172 
z
" transform="scale(0.015625)"/>
       <path id="TimesNewRomanPSMT-6f" d="M 1600 2947 
Q 2250 2947 2644 2453 
Q 2978 2031 2978 1484 
Q 2978 1100 2793 706 
Q 2609 313 2286 112 
Q 1963 -88 1566 -88 
Q 919 -88 538 428 
Q 216 863 216 1403 
Q 216 1797 411 2186 
Q 606 2575 925 2761 
Q 1244 2947 1600 2947 
z
M 1503 2744 
Q 1338 2744 1170 2645 
Q 1003 2547 900 2300 
Q 797 2053 797 1666 
Q 797 1041 1045 587 
Q 1294 134 1700 134 
Q 2003 134 2200 384 
Q 2397 634 2397 1244 
Q 2397 2006 2069 2444 
Q 1847 2744 1503 2744 
z
" transform="scale(0.015625)"/>
       <path id="TimesNewRomanPSMT-6e" d="M 1034 2341 
Q 1538 2947 1994 2947 
Q 2228 2947 2397 2830 
Q 2566 2713 2666 2444 
Q 2734 2256 2734 1869 
L 2734 647 
Q 2734 375 2778 278 
Q 2813 200 2889 156 
Q 2966 113 3172 113 
L 3172 0 
L 1756 0 
L 1756 113 
L 1816 113 
Q 2016 113 2095 173 
Q 2175 234 2206 353 
Q 2219 400 2219 647 
L 2219 1819 
Q 2219 2209 2117 2386 
Q 2016 2563 1775 2563 
Q 1403 2563 1034 2156 
L 1034 647 
Q 1034 356 1069 288 
Q 1113 197 1189 155 
Q 1266 113 1500 113 
L 1500 0 
L 84 0 
L 84 113 
L 147 113 
Q 366 113 442 223 
Q 519 334 519 647 
L 519 1709 
Q 519 2225 495 2337 
Q 472 2450 423 2490 
Q 375 2531 294 2531 
Q 206 2531 84 2484 
L 38 2597 
L 900 2947 
L 1034 2947 
L 1034 2341 
z
" transform="scale(0.015625)"/>
       <path id="TimesNewRomanPSMT-65" d="M 681 1784 
Q 678 1147 991 784 
Q 1303 422 1725 422 
Q 2006 422 2214 576 
Q 2422 731 2563 1106 
L 2659 1044 
Q 2594 616 2278 264 
Q 1963 -88 1488 -88 
Q 972 -88 605 314 
Q 238 716 238 1394 
Q 238 2128 614 2539 
Q 991 2950 1559 2950 
Q 2041 2950 2350 2633 
Q 2659 2316 2659 1784 
L 681 1784 
z
M 681 1966 
L 2006 1966 
Q 1991 2241 1941 2353 
Q 1863 2528 1708 2628 
Q 1553 2728 1384 2728 
Q 1125 2728 920 2526 
Q 716 2325 681 1966 
z
" transform="scale(0.015625)"/>
       <path id="TimesNewRomanPSMT-72" d="M 1038 2947 
L 1038 2303 
Q 1397 2947 1775 2947 
Q 1947 2947 2059 2842 
Q 2172 2738 2172 2600 
Q 2172 2478 2090 2393 
Q 2009 2309 1897 2309 
Q 1788 2309 1652 2417 
Q 1516 2525 1450 2525 
Q 1394 2525 1328 2463 
Q 1188 2334 1038 2041 
L 1038 669 
Q 1038 431 1097 309 
Q 1138 225 1241 169 
Q 1344 113 1538 113 
L 1538 0 
L 72 0 
L 72 113 
Q 291 113 397 181 
Q 475 231 506 341 
Q 522 394 522 644 
L 522 1753 
Q 522 2253 501 2348 
Q 481 2444 426 2487 
Q 372 2531 291 2531 
Q 194 2531 72 2484 
L 41 2597 
L 906 2947 
L 1038 2947 
z
" transform="scale(0.015625)"/>
       <path id="TimesNewRomanPSMT-29" d="M 144 4313 
L 144 4444 
Q 619 4209 934 3891 
Q 1381 3434 1625 2820 
Q 1869 2206 1869 1541 
Q 1869 572 1392 -226 
Q 916 -1025 144 -1369 
L 144 -1253 
Q 528 -1038 776 -670 
Q 1025 -303 1145 264 
Q 1266 831 1266 1447 
Q 1266 2113 1163 2663 
Q 1084 3094 967 3353 
Q 850 3613 656 3853 
Q 463 4094 144 4313 
z
" transform="scale(0.015625)"/>
      </defs>
      <use xlink:href="#TimesNewRomanPSMT-43"/>
      <use xlink:href="#TimesNewRomanPSMT-28" x="66.699219"/>
      <use xlink:href="#TimesNewRomanPSMT-77" x="100"/>
      <use xlink:href="#TimesNewRomanPSMT-69" x="172.216797"/>
      <use xlink:href="#TimesNewRomanPSMT-74" x="200"/>
      <use xlink:href="#TimesNewRomanPSMT-68" x="227.783203"/>
      <use xlink:href="#TimesNewRomanPSMT-20" x="277.783203"/>
      <use xlink:href="#TimesNewRomanPSMT-4c" x="302.783203"/>
      <use xlink:href="#TimesNewRomanPSMT-6f" x="363.867188"/>
      <use xlink:href="#TimesNewRomanPSMT-6e" x="413.867188"/>
      <use xlink:href="#TimesNewRomanPSMT-65" x="463.867188"/>
      <use xlink:href="#TimesNewRomanPSMT-72" x="508.251953"/>
      <use xlink:href="#TimesNewRomanPSMT-29" x="541.552734"/>
     </g>
    </g>
    <g id="line2d_20">
     <path d="M 54.83 134.941875 
L 64.83 134.941875 
L 74.83 134.941875 
" style="fill: none; stroke: #e23e35; stroke-width: 1.5; stroke-linecap: square"/>
    </g>
    <g id="text_16">
     <!-- D(with Loner) -->
     <g transform="translate(82.83 138.441875)scale(0.1 -0.1)">
      <defs>
       <path id="TimesNewRomanPSMT-44" d="M 109 0 
L 109 116 
L 269 116 
Q 538 116 650 288 
Q 719 391 719 750 
L 719 3488 
Q 719 3884 631 3984 
Q 509 4122 269 4122 
L 109 4122 
L 109 4238 
L 1834 4238 
Q 2784 4238 3279 4022 
Q 3775 3806 4076 3303 
Q 4378 2800 4378 2141 
Q 4378 1256 3841 663 
Q 3238 0 2003 0 
L 109 0 
z
M 1319 306 
Q 1716 219 1984 219 
Q 2709 219 3187 728 
Q 3666 1238 3666 2109 
Q 3666 2988 3187 3494 
Q 2709 4000 1959 4000 
Q 1678 4000 1319 3909 
L 1319 306 
z
" transform="scale(0.015625)"/>
      </defs>
      <use xlink:href="#TimesNewRomanPSMT-44"/>
      <use xlink:href="#TimesNewRomanPSMT-28" x="72.216797"/>
      <use xlink:href="#TimesNewRomanPSMT-77" x="105.517578"/>
      <use xlink:href="#TimesNewRomanPSMT-69" x="177.734375"/>
      <use xlink:href="#TimesNewRomanPSMT-74" x="205.517578"/>
      <use xlink:href="#TimesNewRomanPSMT-68" x="233.300781"/>
      <use xlink:href="#TimesNewRomanPSMT-20" x="283.300781"/>
      <use xlink:href="#TimesNewRomanPSMT-4c" x="308.300781"/>
      <use xlink:href="#TimesNewRomanPSMT-6f" x="369.384766"/>
      <use xlink:href="#TimesNewRomanPSMT-6e" x="419.384766"/>
      <use xlink:href="#TimesNewRomanPSMT-65" x="469.384766"/>
      <use xlink:href="#TimesNewRomanPSMT-72" x="513.769531"/>
      <use xlink:href="#TimesNewRomanPSMT-29" x="547.070312"/>
     </g>
    </g>
    <g id="line2d_21">
     <path d="M 54.83 149.080938 
L 64.83 149.080938 
L 74.83 149.080938 
" style="fill: none; stroke: #dbb428; stroke-width: 1.5; stroke-linecap: square"/>
    </g>
    <g id="text_17">
     <!-- L(with Loner) -->
     <g transform="translate(82.83 152.580938)scale(0.1 -0.1)">
      <use xlink:href="#TimesNewRomanPSMT-4c"/>
      <use xlink:href="#TimesNewRomanPSMT-28" x="61.083984"/>
      <use xlink:href="#TimesNewRomanPSMT-77" x="94.384766"/>
      <use xlink:href="#TimesNewRomanPSMT-69" x="166.601562"/>
      <use xlink:href="#TimesNewRomanPSMT-74" x="194.384766"/>
      <use xlink:href="#TimesNewRomanPSMT-68" x="222.167969"/>
      <use xlink:href="#TimesNewRomanPSMT-20" x="272.167969"/>
      <use xlink:href="#TimesNewRomanPSMT-4c" x="297.167969"/>
      <use xlink:href="#TimesNewRomanPSMT-6f" x="358.251953"/>
      <use xlink:href="#TimesNewRomanPSMT-6e" x="408.251953"/>
      <use xlink:href="#TimesNewRomanPSMT-65" x="458.251953"/>
      <use xlink:href="#TimesNewRomanPSMT-72" x="502.636719"/>
      <use xlink:href="#TimesNewRomanPSMT-29" x="535.9375"/>
     </g>
    </g>
    <g id="line2d_22">
     <path d="M 54.83 163.22 
L 64.83 163.22 
L 74.83 163.22 
" style="fill: none; stroke-dasharray: 5.55,2.4; stroke-dashoffset: 0; stroke: #85c7e5; stroke-width: 1.5"/>
    </g>
    <g id="text_18">
     <!-- C(without Loner) -->
     <g transform="translate(82.83 166.72)scale(0.1 -0.1)">
      <defs>
       <path id="TimesNewRomanPSMT-75" d="M 2709 2863 
L 2709 1128 
Q 2709 631 2732 520 
Q 2756 409 2807 365 
Q 2859 322 2928 322 
Q 3025 322 3147 375 
L 3191 266 
L 2334 -88 
L 2194 -88 
L 2194 519 
Q 1825 119 1631 15 
Q 1438 -88 1222 -88 
Q 981 -88 804 51 
Q 628 191 559 409 
Q 491 628 491 1028 
L 491 2306 
Q 491 2509 447 2587 
Q 403 2666 317 2708 
Q 231 2750 6 2747 
L 6 2863 
L 1009 2863 
L 1009 947 
Q 1009 547 1148 422 
Q 1288 297 1484 297 
Q 1619 297 1789 381 
Q 1959 466 2194 703 
L 2194 2325 
Q 2194 2569 2105 2655 
Q 2016 2741 1734 2747 
L 1734 2863 
L 2709 2863 
z
" transform="scale(0.015625)"/>
      </defs>
      <use xlink:href="#TimesNewRomanPSMT-43"/>
      <use xlink:href="#TimesNewRomanPSMT-28" x="66.699219"/>
      <use xlink:href="#TimesNewRomanPSMT-77" x="100"/>
      <use xlink:href="#TimesNewRomanPSMT-69" x="172.216797"/>
      <use xlink:href="#TimesNewRomanPSMT-74" x="200"/>
      <use xlink:href="#TimesNewRomanPSMT-68" x="227.783203"/>
      <use xlink:href="#TimesNewRomanPSMT-6f" x="277.783203"/>
      <use xlink:href="#TimesNewRomanPSMT-75" x="327.783203"/>
      <use xlink:href="#TimesNewRomanPSMT-74" x="377.783203"/>
      <use xlink:href="#TimesNewRomanPSMT-20" x="405.566406"/>
      <use xlink:href="#TimesNewRomanPSMT-4c" x="430.566406"/>
      <use xlink:href="#TimesNewRomanPSMT-6f" x="491.650391"/>
      <use xlink:href="#TimesNewRomanPSMT-6e" x="541.650391"/>
      <use xlink:href="#TimesNewRomanPSMT-65" x="591.650391"/>
      <use xlink:href="#TimesNewRomanPSMT-72" x="636.035156"/>
      <use xlink:href="#TimesNewRomanPSMT-29" x="669.335938"/>
     </g>
    </g>
    <g id="line2d_23">
     <path d="M 54.83 177.359062 
L 64.83 177.359062 
L 74.83 177.359062 
" style="fill: none; stroke-dasharray: 5.55,2.4; stroke-dashoffset: 0; stroke: #f39fa2; stroke-width: 1.5"/>
    </g>
    <g id="text_19">
     <!-- D(without Loner) -->
     <g transform="translate(82.83 180.859062)scale(0.1 -0.1)">
      <use xlink:href="#TimesNewRomanPSMT-44"/>
      <use xlink:href="#TimesNewRomanPSMT-28" x="72.216797"/>
      <use xlink:href="#TimesNewRomanPSMT-77" x="105.517578"/>
      <use xlink:href="#TimesNewRomanPSMT-69" x="177.734375"/>
      <use xlink:href="#TimesNewRomanPSMT-74" x="205.517578"/>
      <use xlink:href="#TimesNewRomanPSMT-68" x="233.300781"/>
      <use xlink:href="#TimesNewRomanPSMT-6f" x="283.300781"/>
      <use xlink:href="#TimesNewRomanPSMT-75" x="333.300781"/>
      <use xlink:href="#TimesNewRomanPSMT-74" x="383.300781"/>
      <use xlink:href="#TimesNewRomanPSMT-20" x="411.083984"/>
      <use xlink:href="#TimesNewRomanPSMT-4c" x="436.083984"/>
      <use xlink:href="#TimesNewRomanPSMT-6f" x="497.167969"/>
      <use xlink:href="#TimesNewRomanPSMT-6e" x="547.167969"/>
      <use xlink:href="#TimesNewRomanPSMT-65" x="597.167969"/>
      <use xlink:href="#TimesNewRomanPSMT-72" x="641.552734"/>
      <use xlink:href="#TimesNewRomanPSMT-29" x="674.853516"/>
     </g>
    </g>
    <g id="line2d_24">
     <path d="M 54.83 191.498125 
L 64.83 191.498125 
L 74.83 191.498125 
" style="fill: none; stroke-dasharray: 5.55,2.4; stroke-dashoffset: 0; stroke: #eae936; stroke-width: 1.5"/>
    </g>
    <g id="text_20">
     <!-- L(without Loner) -->
     <g transform="translate(82.83 194.998125)scale(0.1 -0.1)">
      <use xlink:href="#TimesNewRomanPSMT-4c"/>
      <use xlink:href="#TimesNewRomanPSMT-28" x="61.083984"/>
      <use xlink:href="#TimesNewRomanPSMT-77" x="94.384766"/>
      <use xlink:href="#TimesNewRomanPSMT-69" x="166.601562"/>
      <use xlink:href="#TimesNewRomanPSMT-74" x="194.384766"/>
      <use xlink:href="#TimesNewRomanPSMT-68" x="222.167969"/>
      <use xlink:href="#TimesNewRomanPSMT-6f" x="272.167969"/>
      <use xlink:href="#TimesNewRomanPSMT-75" x="322.167969"/>
      <use xlink:href="#TimesNewRomanPSMT-74" x="372.167969"/>
      <use xlink:href="#TimesNewRomanPSMT-20" x="399.951172"/>
      <use xlink:href="#TimesNewRomanPSMT-4c" x="424.951172"/>
      <use xlink:href="#TimesNewRomanPSMT-6f" x="486.035156"/>
      <use xlink:href="#TimesNewRomanPSMT-6e" x="536.035156"/>
      <use xlink:href="#TimesNewRomanPSMT-65" x="586.035156"/>
      <use xlink:href="#TimesNewRomanPSMT-72" x="630.419922"/>
      <use xlink:href="#TimesNewRomanPSMT-29" x="663.720703"/>
     </g>
    </g>
   </g>
  </g>
 </g>
 <defs>
  <clipPath id="p203ad84304">
   <rect x="45.83" y="10.8" width="404.17" height="292.84"/>
  </clipPath>
 </defs>
</svg>
