<?xml version="1.0" encoding="utf-8" standalone="no"?>
<!DOCTYPE svg PUBLIC "-//W3C//DTD SVG 1.1//EN"
  "http://www.w3.org/Graphics/SVG/1.1/DTD/svg11.dtd">
<svg xmlns:xlink="http://www.w3.org/1999/xlink" width="720pt" height="576pt" viewBox="0 0 720 576" xmlns="http://www.w3.org/2000/svg" version="1.1">
 <metadata>
  <rdf:RDF xmlns:dc="http://purl.org/dc/elements/1.1/" xmlns:cc="http://creativecommons.org/ns#" xmlns:rdf="http://www.w3.org/1999/02/22-rdf-syntax-ns#">
   <cc:Work>
    <dc:type rdf:resource="http://purl.org/dc/dcmitype/StillImage"/>
    <dc:date>2025-12-09T16:37:00.911547</dc:date>
    <dc:format>image/svg+xml</dc:format>
    <dc:creator>
     <cc:Agent>
      <dc:title>Matplotlib v3.5.1, https://matplotlib.org/</dc:title>
     </cc:Agent>
    </dc:creator>
   </cc:Work>
  </rdf:RDF>
 </metadata>
 <defs>
  <style type="text/css">*{stroke-linejoin: round; stroke-linecap: butt}</style>
 </defs>
 <g id="figure_1">
  <g id="patch_1">
   <path d="M 0 576 
L 720 576 
L 720 0 
L 0 0 
z
" style="fill: #ffffff"/>
  </g>
  <g id="axes_1">
   <g id="patch_2">
    <path d="M 67.43 513.88 
L 704.88 513.88 
L 704.88 15.12 
L 67.43 15.12 
z
" style="fill: #ffffff"/>
   </g>
   <g id="matplotlib.axis_1">
    <g id="xtick_1">
     <g id="line2d_1">
      <defs>
       <path id="m661ed51a18" d="M 0 0 
L 0 3.5 
" style="stroke: #000000; stroke-width: 0.8"/>
      </defs>
      <g>
       <use xlink:href="#m661ed51a18" x="96.405" y="513.88" style="stroke: #000000; stroke-width: 0.8"/>
      </g>
     </g>
     <g id="text_1">
      <!-- 1.0 -->
      <g transform="translate(85.155 533.37875)scale(0.18 -0.18)">
       <defs>
        <path id="TimesNewRomanPSMT-31" d="M 750 3822 
L 1781 4325 
L 1884 4325 
L 1884 747 
Q 1884 391 1914 303 
Q 1944 216 2037 169 
Q 2131 122 2419 116 
L 2419 0 
L 825 0 
L 825 116 
Q 1125 122 1212 167 
Q 1300 213 1334 289 
Q 1369 366 1369 747 
L 1369 3034 
Q 1369 3497 1338 3628 
Q 1316 3728 1258 3775 
Q 1200 3822 1119 3822 
Q 1003 3822 797 3725 
L 750 3822 
z
" transform="scale(0.015625)"/>
        <path id="TimesNewRomanPSMT-2e" d="M 800 606 
Q 947 606 1047 504 
Q 1147 403 1147 259 
Q 1147 116 1045 14 
Q 944 -88 800 -88 
Q 656 -88 554 14 
Q 453 116 453 259 
Q 453 406 554 506 
Q 656 606 800 606 
z
" transform="scale(0.015625)"/>
        <path id="TimesNewRomanPSMT-30" d="M 231 2094 
Q 231 2819 450 3342 
Q 669 3866 1031 4122 
Q 1313 4325 1613 4325 
Q 2100 4325 2488 3828 
Q 2972 3213 2972 2159 
Q 2972 1422 2759 906 
Q 2547 391 2217 158 
Q 1888 -75 1581 -75 
Q 975 -75 572 641 
Q 231 1244 231 2094 
z
M 844 2016 
Q 844 1141 1059 588 
Q 1238 122 1591 122 
Q 1759 122 1940 273 
Q 2122 425 2216 781 
Q 2359 1319 2359 2297 
Q 2359 3022 2209 3506 
Q 2097 3866 1919 4016 
Q 1791 4119 1609 4119 
Q 1397 4119 1231 3928 
Q 1006 3669 925 3112 
Q 844 2556 844 2016 
z
" transform="scale(0.015625)"/>
       </defs>
       <use xlink:href="#TimesNewRomanPSMT-31"/>
       <use xlink:href="#TimesNewRomanPSMT-2e" x="50"/>
       <use xlink:href="#TimesNewRomanPSMT-30" x="75"/>
      </g>
     </g>
    </g>
    <g id="xtick_2">
     <g id="line2d_2">
      <g>
       <use xlink:href="#m661ed51a18" x="212.305" y="513.88" style="stroke: #000000; stroke-width: 0.8"/>
      </g>
     </g>
     <g id="text_2">
      <!-- 1.2 -->
      <g transform="translate(201.055 533.37875)scale(0.18 -0.18)">
       <defs>
        <path id="TimesNewRomanPSMT-32" d="M 2934 816 
L 2638 0 
L 138 0 
L 138 116 
Q 1241 1122 1691 1759 
Q 2141 2397 2141 2925 
Q 2141 3328 1894 3587 
Q 1647 3847 1303 3847 
Q 991 3847 742 3664 
Q 494 3481 375 3128 
L 259 3128 
Q 338 3706 661 4015 
Q 984 4325 1469 4325 
Q 1984 4325 2329 3994 
Q 2675 3663 2675 3213 
Q 2675 2891 2525 2569 
Q 2294 2063 1775 1497 
Q 997 647 803 472 
L 1909 472 
Q 2247 472 2383 497 
Q 2519 522 2628 598 
Q 2738 675 2819 816 
L 2934 816 
z
" transform="scale(0.015625)"/>
       </defs>
       <use xlink:href="#TimesNewRomanPSMT-31"/>
       <use xlink:href="#TimesNewRomanPSMT-2e" x="50"/>
       <use xlink:href="#TimesNewRomanPSMT-32" x="75"/>
      </g>
     </g>
    </g>
    <g id="xtick_3">
     <g id="line2d_3">
      <g>
       <use xlink:href="#m661ed51a18" x="328.205" y="513.88" style="stroke: #000000; stroke-width: 0.8"/>
      </g>
     </g>
     <g id="text_3">
      <!-- 1.4 -->
      <g transform="translate(316.955 533.37875)scale(0.18 -0.18)">
       <defs>
        <path id="TimesNewRomanPSMT-34" d="M 2978 1563 
L 2978 1119 
L 2409 1119 
L 2409 0 
L 1894 0 
L 1894 1119 
L 100 1119 
L 100 1519 
L 2066 4325 
L 2409 4325 
L 2409 1563 
L 2978 1563 
z
M 1894 1563 
L 1894 3666 
L 406 1563 
L 1894 1563 
z
" transform="scale(0.015625)"/>
       </defs>
       <use xlink:href="#TimesNewRomanPSMT-31"/>
       <use xlink:href="#TimesNewRomanPSMT-2e" x="50"/>
       <use xlink:href="#TimesNewRomanPSMT-34" x="75"/>
      </g>
     </g>
    </g>
    <g id="xtick_4">
     <g id="line2d_4">
      <g>
       <use xlink:href="#m661ed51a18" x="444.105" y="513.88" style="stroke: #000000; stroke-width: 0.8"/>
      </g>
     </g>
     <g id="text_4">
      <!-- 1.6 -->
      <g transform="translate(432.855 533.37875)scale(0.18 -0.18)">
       <defs>
        <path id="TimesNewRomanPSMT-36" d="M 2869 4325 
L 2869 4209 
Q 2456 4169 2195 4045 
Q 1934 3922 1679 3669 
Q 1425 3416 1258 3105 
Q 1091 2794 978 2366 
Q 1428 2675 1881 2675 
Q 2316 2675 2634 2325 
Q 2953 1975 2953 1425 
Q 2953 894 2631 456 
Q 2244 -75 1606 -75 
Q 1172 -75 869 213 
Q 275 772 275 1663 
Q 275 2231 503 2743 
Q 731 3256 1154 3653 
Q 1578 4050 1965 4187 
Q 2353 4325 2688 4325 
L 2869 4325 
z
M 925 2138 
Q 869 1716 869 1456 
Q 869 1156 980 804 
Q 1091 453 1309 247 
Q 1469 100 1697 100 
Q 1969 100 2183 356 
Q 2397 613 2397 1088 
Q 2397 1622 2184 2012 
Q 1972 2403 1581 2403 
Q 1463 2403 1327 2353 
Q 1191 2303 925 2138 
z
" transform="scale(0.015625)"/>
       </defs>
       <use xlink:href="#TimesNewRomanPSMT-31"/>
       <use xlink:href="#TimesNewRomanPSMT-2e" x="50"/>
       <use xlink:href="#TimesNewRomanPSMT-36" x="75"/>
      </g>
     </g>
    </g>
    <g id="xtick_5">
     <g id="line2d_5">
      <g>
       <use xlink:href="#m661ed51a18" x="560.005" y="513.88" style="stroke: #000000; stroke-width: 0.8"/>
      </g>
     </g>
     <g id="text_5">
      <!-- 1.8 -->
      <g transform="translate(548.755 533.37875)scale(0.18 -0.18)">
       <defs>
        <path id="TimesNewRomanPSMT-38" d="M 1228 2134 
Q 725 2547 579 2797 
Q 434 3047 434 3316 
Q 434 3728 753 4026 
Q 1072 4325 1600 4325 
Q 2113 4325 2425 4047 
Q 2738 3769 2738 3413 
Q 2738 3175 2569 2928 
Q 2400 2681 1866 2347 
Q 2416 1922 2594 1678 
Q 2831 1359 2831 1006 
Q 2831 559 2490 242 
Q 2150 -75 1597 -75 
Q 994 -75 656 303 
Q 388 606 388 966 
Q 388 1247 577 1523 
Q 766 1800 1228 2134 
z
M 1719 2469 
Q 2094 2806 2194 3001 
Q 2294 3197 2294 3444 
Q 2294 3772 2109 3958 
Q 1925 4144 1606 4144 
Q 1288 4144 1088 3959 
Q 888 3775 888 3528 
Q 888 3366 970 3203 
Q 1053 3041 1206 2894 
L 1719 2469 
z
M 1375 2016 
Q 1116 1797 991 1539 
Q 866 1281 866 981 
Q 866 578 1086 336 
Q 1306 94 1647 94 
Q 1984 94 2187 284 
Q 2391 475 2391 747 
Q 2391 972 2272 1150 
Q 2050 1481 1375 2016 
z
" transform="scale(0.015625)"/>
       </defs>
       <use xlink:href="#TimesNewRomanPSMT-31"/>
       <use xlink:href="#TimesNewRomanPSMT-2e" x="50"/>
       <use xlink:href="#TimesNewRomanPSMT-38" x="75"/>
      </g>
     </g>
    </g>
    <g id="xtick_6">
     <g id="line2d_6">
      <g>
       <use xlink:href="#m661ed51a18" x="675.905" y="513.88" style="stroke: #000000; stroke-width: 0.8"/>
      </g>
     </g>
     <g id="text_6">
      <!-- 2.0 -->
      <g transform="translate(664.655 533.37875)scale(0.18 -0.18)">
       <use xlink:href="#TimesNewRomanPSMT-32"/>
       <use xlink:href="#TimesNewRomanPSMT-2e" x="50"/>
       <use xlink:href="#TimesNewRomanPSMT-30" x="75"/>
      </g>
     </g>
    </g>
    <g id="text_7">
     <!-- b -->
     <g transform="translate(381.155 555.116562)scale(0.2 -0.2)">
      <defs>
       <path id="TimesNewRomanPSMT-62" d="M 984 2369 
Q 1400 2947 1881 2947 
Q 2322 2947 2650 2570 
Q 2978 2194 2978 1541 
Q 2978 778 2472 313 
Q 2038 -88 1503 -88 
Q 1253 -88 995 3 
Q 738 94 469 275 
L 469 3241 
Q 469 3728 445 3840 
Q 422 3953 372 3993 
Q 322 4034 247 4034 
Q 159 4034 28 3984 
L -16 4094 
L 844 4444 
L 984 4444 
L 984 2369 
z
M 984 2169 
L 984 456 
Q 1144 300 1314 220 
Q 1484 141 1663 141 
Q 1947 141 2192 453 
Q 2438 766 2438 1363 
Q 2438 1913 2192 2208 
Q 1947 2503 1634 2503 
Q 1469 2503 1303 2419 
Q 1178 2356 984 2169 
z
" transform="scale(0.015625)"/>
      </defs>
      <use xlink:href="#TimesNewRomanPSMT-62"/>
     </g>
    </g>
   </g>
   <g id="matplotlib.axis_2">
    <g id="ytick_1">
     <g id="line2d_7">
      <defs>
       <path id="m0381100b33" d="M 0 0 
L -3.5 0 
" style="stroke: #000000; stroke-width: 0.8"/>
      </defs>
      <g>
       <use xlink:href="#m0381100b33" x="67.43" y="488.433979" style="stroke: #000000; stroke-width: 0.8"/>
      </g>
     </g>
     <g id="text_8">
      <!-- 0.0 -->
      <g transform="translate(37.93 494.683354)scale(0.18 -0.18)">
       <use xlink:href="#TimesNewRomanPSMT-30"/>
       <use xlink:href="#TimesNewRomanPSMT-2e" x="50"/>
       <use xlink:href="#TimesNewRomanPSMT-30" x="75"/>
      </g>
     </g>
    </g>
    <g id="ytick_2">
     <g id="line2d_8">
      <g>
       <use xlink:href="#m0381100b33" x="67.43" y="398.305365" style="stroke: #000000; stroke-width: 0.8"/>
      </g>
     </g>
     <g id="text_9">
      <!-- 0.2 -->
      <g transform="translate(37.93 404.55474)scale(0.18 -0.18)">
       <use xlink:href="#TimesNewRomanPSMT-30"/>
       <use xlink:href="#TimesNewRomanPSMT-2e" x="50"/>
       <use xlink:href="#TimesNewRomanPSMT-32" x="75"/>
      </g>
     </g>
    </g>
    <g id="ytick_3">
     <g id="line2d_9">
      <g>
       <use xlink:href="#m0381100b33" x="67.43" y="308.176751" style="stroke: #000000; stroke-width: 0.8"/>
      </g>
     </g>
     <g id="text_10">
      <!-- 0.4 -->
      <g transform="translate(37.93 314.426126)scale(0.18 -0.18)">
       <use xlink:href="#TimesNewRomanPSMT-30"/>
       <use xlink:href="#TimesNewRomanPSMT-2e" x="50"/>
       <use xlink:href="#TimesNewRomanPSMT-34" x="75"/>
      </g>
     </g>
    </g>
    <g id="ytick_4">
     <g id="line2d_10">
      <g>
       <use xlink:href="#m0381100b33" x="67.43" y="218.048137" style="stroke: #000000; stroke-width: 0.8"/>
      </g>
     </g>
     <g id="text_11">
      <!-- 0.6 -->
      <g transform="translate(37.93 224.297512)scale(0.18 -0.18)">
       <use xlink:href="#TimesNewRomanPSMT-30"/>
       <use xlink:href="#TimesNewRomanPSMT-2e" x="50"/>
       <use xlink:href="#TimesNewRomanPSMT-36" x="75"/>
      </g>
     </g>
    </g>
    <g id="ytick_5">
     <g id="line2d_11">
      <g>
       <use xlink:href="#m0381100b33" x="67.43" y="127.919523" style="stroke: #000000; stroke-width: 0.8"/>
      </g>
     </g>
     <g id="text_12">
      <!-- 0.8 -->
      <g transform="translate(37.93 134.168898)scale(0.18 -0.18)">
       <use xlink:href="#TimesNewRomanPSMT-30"/>
       <use xlink:href="#TimesNewRomanPSMT-2e" x="50"/>
       <use xlink:href="#TimesNewRomanPSMT-38" x="75"/>
      </g>
     </g>
    </g>
    <g id="ytick_6">
     <g id="line2d_12">
      <g>
       <use xlink:href="#m0381100b33" x="67.43" y="37.790909" style="stroke: #000000; stroke-width: 0.8"/>
      </g>
     </g>
     <g id="text_13">
      <!-- 1.0 -->
      <g transform="translate(37.93 44.040284)scale(0.18 -0.18)">
       <use xlink:href="#TimesNewRomanPSMT-31"/>
       <use xlink:href="#TimesNewRomanPSMT-2e" x="50"/>
       <use xlink:href="#TimesNewRomanPSMT-30" x="75"/>
      </g>
     </g>
    </g>
    <g id="text_14">
     <!-- The frequency of strategies -->
     <g transform="translate(29.614375 373.61875)rotate(-90)scale(0.2 -0.2)">
      <defs>
       <path id="TimesNewRomanPSMT-54" d="M 3703 4238 
L 3750 3244 
L 3631 3244 
Q 3597 3506 3538 3619 
Q 3441 3800 3280 3886 
Q 3119 3972 2856 3972 
L 2259 3972 
L 2259 734 
Q 2259 344 2344 247 
Q 2463 116 2709 116 
L 2856 116 
L 2856 0 
L 1059 0 
L 1059 116 
L 1209 116 
Q 1478 116 1591 278 
Q 1659 378 1659 734 
L 1659 3972 
L 1150 3972 
Q 853 3972 728 3928 
Q 566 3869 450 3700 
Q 334 3531 313 3244 
L 194 3244 
L 244 4238 
L 3703 4238 
z
" transform="scale(0.015625)"/>
       <path id="TimesNewRomanPSMT-68" d="M 1041 4444 
L 1041 2350 
Q 1388 2731 1591 2839 
Q 1794 2947 1997 2947 
Q 2241 2947 2416 2812 
Q 2591 2678 2675 2391 
Q 2734 2191 2734 1659 
L 2734 647 
Q 2734 375 2778 275 
Q 2809 200 2884 156 
Q 2959 113 3159 113 
L 3159 0 
L 1753 0 
L 1753 113 
L 1819 113 
Q 2019 113 2097 173 
Q 2175 234 2206 353 
Q 2216 403 2216 647 
L 2216 1659 
Q 2216 2128 2167 2275 
Q 2119 2422 2012 2495 
Q 1906 2569 1756 2569 
Q 1603 2569 1437 2487 
Q 1272 2406 1041 2159 
L 1041 647 
Q 1041 353 1073 281 
Q 1106 209 1195 161 
Q 1284 113 1503 113 
L 1503 0 
L 84 0 
L 84 113 
Q 275 113 384 172 
Q 447 203 484 290 
Q 522 378 522 647 
L 522 3238 
Q 522 3728 498 3840 
Q 475 3953 426 3993 
Q 378 4034 297 4034 
Q 231 4034 84 3984 
L 41 4094 
L 897 4444 
L 1041 4444 
z
" transform="scale(0.015625)"/>
       <path id="TimesNewRomanPSMT-65" d="M 681 1784 
Q 678 1147 991 784 
Q 1303 422 1725 422 
Q 2006 422 2214 576 
Q 2422 731 2563 1106 
L 2659 1044 
Q 2594 616 2278 264 
Q 1963 -88 1488 -88 
Q 972 -88 605 314 
Q 238 716 238 1394 
Q 238 2128 614 2539 
Q 991 2950 1559 2950 
Q 2041 2950 2350 2633 
Q 2659 2316 2659 1784 
L 681 1784 
z
M 681 1966 
L 2006 1966 
Q 1991 2241 1941 2353 
Q 1863 2528 1708 2628 
Q 1553 2728 1384 2728 
Q 1125 2728 920 2526 
Q 716 2325 681 1966 
z
" transform="scale(0.015625)"/>
       <path id="TimesNewRomanPSMT-20" transform="scale(0.015625)"/>
       <path id="TimesNewRomanPSMT-66" d="M 1319 2638 
L 1319 756 
Q 1319 356 1406 250 
Q 1522 113 1716 113 
L 1975 113 
L 1975 0 
L 266 0 
L 266 113 
L 394 113 
Q 519 113 622 175 
Q 725 238 764 344 
Q 803 450 803 756 
L 803 2638 
L 247 2638 
L 247 2863 
L 803 2863 
L 803 3050 
Q 803 3478 940 3775 
Q 1078 4072 1361 4255 
Q 1644 4438 1997 4438 
Q 2325 4438 2600 4225 
Q 2781 4084 2781 3909 
Q 2781 3816 2700 3733 
Q 2619 3650 2525 3650 
Q 2453 3650 2373 3701 
Q 2294 3753 2178 3923 
Q 2063 4094 1966 4153 
Q 1869 4213 1750 4213 
Q 1606 4213 1506 4136 
Q 1406 4059 1362 3898 
Q 1319 3738 1319 3069 
L 1319 2863 
L 2056 2863 
L 2056 2638 
L 1319 2638 
z
" transform="scale(0.015625)"/>
       <path id="TimesNewRomanPSMT-72" d="M 1038 2947 
L 1038 2303 
Q 1397 2947 1775 2947 
Q 1947 2947 2059 2842 
Q 2172 2738 2172 2600 
Q 2172 2478 2090 2393 
Q 2009 2309 1897 2309 
Q 1788 2309 1652 2417 
Q 1516 2525 1450 2525 
Q 1394 2525 1328 2463 
Q 1188 2334 1038 2041 
L 1038 669 
Q 1038 431 1097 309 
Q 1138 225 1241 169 
Q 1344 113 1538 113 
L 1538 0 
L 72 0 
L 72 113 
Q 291 113 397 181 
Q 475 231 506 341 
Q 522 394 522 644 
L 522 1753 
Q 522 2253 501 2348 
Q 481 2444 426 2487 
Q 372 2531 291 2531 
Q 194 2531 72 2484 
L 41 2597 
L 906 2947 
L 1038 2947 
z
" transform="scale(0.015625)"/>
       <path id="TimesNewRomanPSMT-71" d="M 2734 2947 
L 2734 -734 
Q 2734 -1009 2771 -1087 
Q 2809 -1166 2889 -1209 
Q 2969 -1253 3200 -1253 
L 3200 -1369 
L 1756 -1369 
L 1756 -1253 
L 1816 -1253 
Q 1991 -1253 2081 -1203 
Q 2144 -1169 2181 -1080 
Q 2219 -991 2219 -734 
L 2219 497 
Q 1934 159 1721 35 
Q 1509 -88 1281 -88 
Q 866 -88 539 290 
Q 213 669 213 1303 
Q 213 2031 644 2489 
Q 1075 2947 1684 2947 
Q 1863 2947 2013 2897 
Q 2163 2847 2281 2747 
Q 2463 2834 2628 2947 
L 2734 2947 
z
M 2219 694 
L 2219 2038 
Q 2219 2272 2158 2406 
Q 2097 2541 1940 2634 
Q 1784 2728 1588 2728 
Q 1238 2728 988 2431 
Q 738 2134 738 1531 
Q 738 953 992 653 
Q 1247 353 1606 353 
Q 1791 353 1934 433 
Q 2078 513 2219 694 
z
" transform="scale(0.015625)"/>
       <path id="TimesNewRomanPSMT-75" d="M 2709 2863 
L 2709 1128 
Q 2709 631 2732 520 
Q 2756 409 2807 365 
Q 2859 322 2928 322 
Q 3025 322 3147 375 
L 3191 266 
L 2334 -88 
L 2194 -88 
L 2194 519 
Q 1825 119 1631 15 
Q 1438 -88 1222 -88 
Q 981 -88 804 51 
Q 628 191 559 409 
Q 491 628 491 1028 
L 491 2306 
Q 491 2509 447 2587 
Q 403 2666 317 2708 
Q 231 2750 6 2747 
L 6 2863 
L 1009 2863 
L 1009 947 
Q 1009 547 1148 422 
Q 1288 297 1484 297 
Q 1619 297 1789 381 
Q 1959 466 2194 703 
L 2194 2325 
Q 2194 2569 2105 2655 
Q 2016 2741 1734 2747 
L 1734 2863 
L 2709 2863 
z
" transform="scale(0.015625)"/>
       <path id="TimesNewRomanPSMT-6e" d="M 1034 2341 
Q 1538 2947 1994 2947 
Q 2228 2947 2397 2830 
Q 2566 2713 2666 2444 
Q 2734 2256 2734 1869 
L 2734 647 
Q 2734 375 2778 278 
Q 2813 200 2889 156 
Q 2966 113 3172 113 
L 3172 0 
L 1756 0 
L 1756 113 
L 1816 113 
Q 2016 113 2095 173 
Q 2175 234 2206 353 
Q 2219 400 2219 647 
L 2219 1819 
Q 2219 2209 2117 2386 
Q 2016 2563 1775 2563 
Q 1403 2563 1034 2156 
L 1034 647 
Q 1034 356 1069 288 
Q 1113 197 1189 155 
Q 1266 113 1500 113 
L 1500 0 
L 84 0 
L 84 113 
L 147 113 
Q 366 113 442 223 
Q 519 334 519 647 
L 519 1709 
Q 519 2225 495 2337 
Q 472 2450 423 2490 
Q 375 2531 294 2531 
Q 206 2531 84 2484 
L 38 2597 
L 900 2947 
L 1034 2947 
L 1034 2341 
z
" transform="scale(0.015625)"/>
       <path id="TimesNewRomanPSMT-63" d="M 2631 1088 
Q 2516 522 2178 217 
Q 1841 -88 1431 -88 
Q 944 -88 581 321 
Q 219 731 219 1428 
Q 219 2103 620 2525 
Q 1022 2947 1584 2947 
Q 2006 2947 2278 2723 
Q 2550 2500 2550 2259 
Q 2550 2141 2473 2067 
Q 2397 1994 2259 1994 
Q 2075 1994 1981 2113 
Q 1928 2178 1911 2362 
Q 1894 2547 1784 2644 
Q 1675 2738 1481 2738 
Q 1169 2738 978 2506 
Q 725 2200 725 1697 
Q 725 1184 976 792 
Q 1228 400 1656 400 
Q 1963 400 2206 609 
Q 2378 753 2541 1131 
L 2631 1088 
z
" transform="scale(0.015625)"/>
       <path id="TimesNewRomanPSMT-79" d="M 38 2863 
L 1372 2863 
L 1372 2747 
L 1306 2747 
Q 1166 2747 1095 2686 
Q 1025 2625 1025 2534 
Q 1025 2413 1128 2197 
L 1825 753 
L 2466 2334 
Q 2519 2463 2519 2588 
Q 2519 2644 2497 2672 
Q 2472 2706 2419 2726 
Q 2366 2747 2231 2747 
L 2231 2863 
L 3163 2863 
L 3163 2747 
Q 3047 2734 2984 2696 
Q 2922 2659 2847 2556 
Q 2819 2513 2741 2316 
L 1575 -541 
Q 1406 -956 1132 -1168 
Q 859 -1381 606 -1381 
Q 422 -1381 303 -1275 
Q 184 -1169 184 -1031 
Q 184 -900 270 -820 
Q 356 -741 506 -741 
Q 609 -741 788 -809 
Q 913 -856 944 -856 
Q 1038 -856 1148 -759 
Q 1259 -663 1372 -384 
L 1575 113 
L 547 2272 
Q 500 2369 397 2513 
Q 319 2622 269 2659 
Q 197 2709 38 2747 
L 38 2863 
z
" transform="scale(0.015625)"/>
       <path id="TimesNewRomanPSMT-6f" d="M 1600 2947 
Q 2250 2947 2644 2453 
Q 2978 2031 2978 1484 
Q 2978 1100 2793 706 
Q 2609 313 2286 112 
Q 1963 -88 1566 -88 
Q 919 -88 538 428 
Q 216 863 216 1403 
Q 216 1797 411 2186 
Q 606 2575 925 2761 
Q 1244 2947 1600 2947 
z
M 1503 2744 
Q 1338 2744 1170 2645 
Q 1003 2547 900 2300 
Q 797 2053 797 1666 
Q 797 1041 1045 587 
Q 1294 134 1700 134 
Q 2003 134 2200 384 
Q 2397 634 2397 1244 
Q 2397 2006 2069 2444 
Q 1847 2744 1503 2744 
z
" transform="scale(0.015625)"/>
       <path id="TimesNewRomanPSMT-73" d="M 2050 2947 
L 2050 1972 
L 1947 1972 
Q 1828 2431 1642 2597 
Q 1456 2763 1169 2763 
Q 950 2763 815 2647 
Q 681 2531 681 2391 
Q 681 2216 781 2091 
Q 878 1963 1175 1819 
L 1631 1597 
Q 2266 1288 2266 781 
Q 2266 391 1970 151 
Q 1675 -88 1309 -88 
Q 1047 -88 709 6 
Q 606 38 541 38 
Q 469 38 428 -44 
L 325 -44 
L 325 978 
L 428 978 
Q 516 541 762 319 
Q 1009 97 1316 97 
Q 1531 97 1667 223 
Q 1803 350 1803 528 
Q 1803 744 1651 891 
Q 1500 1038 1047 1263 
Q 594 1488 453 1669 
Q 313 1847 313 2119 
Q 313 2472 555 2709 
Q 797 2947 1181 2947 
Q 1350 2947 1591 2875 
Q 1750 2828 1803 2828 
Q 1853 2828 1881 2850 
Q 1909 2872 1947 2947 
L 2050 2947 
z
" transform="scale(0.015625)"/>
       <path id="TimesNewRomanPSMT-74" d="M 1031 3803 
L 1031 2863 
L 1700 2863 
L 1700 2644 
L 1031 2644 
L 1031 788 
Q 1031 509 1111 412 
Q 1191 316 1316 316 
Q 1419 316 1516 380 
Q 1613 444 1666 569 
L 1788 569 
Q 1678 263 1478 108 
Q 1278 -47 1066 -47 
Q 922 -47 784 33 
Q 647 113 581 261 
Q 516 409 516 719 
L 516 2644 
L 63 2644 
L 63 2747 
Q 234 2816 414 2980 
Q 594 3144 734 3369 
Q 806 3488 934 3803 
L 1031 3803 
z
" transform="scale(0.015625)"/>
       <path id="TimesNewRomanPSMT-61" d="M 1822 413 
Q 1381 72 1269 19 
Q 1100 -59 909 -59 
Q 613 -59 420 144 
Q 228 347 228 678 
Q 228 888 322 1041 
Q 450 1253 767 1440 
Q 1084 1628 1822 1897 
L 1822 2009 
Q 1822 2438 1686 2597 
Q 1550 2756 1291 2756 
Q 1094 2756 978 2650 
Q 859 2544 859 2406 
L 866 2225 
Q 866 2081 792 2003 
Q 719 1925 600 1925 
Q 484 1925 411 2006 
Q 338 2088 338 2228 
Q 338 2497 613 2722 
Q 888 2947 1384 2947 
Q 1766 2947 2009 2819 
Q 2194 2722 2281 2516 
Q 2338 2381 2338 1966 
L 2338 994 
Q 2338 584 2353 492 
Q 2369 400 2405 369 
Q 2441 338 2488 338 
Q 2538 338 2575 359 
Q 2641 400 2828 588 
L 2828 413 
Q 2478 -56 2159 -56 
Q 2006 -56 1915 50 
Q 1825 156 1822 413 
z
M 1822 616 
L 1822 1706 
Q 1350 1519 1213 1441 
Q 966 1303 859 1153 
Q 753 1003 753 825 
Q 753 600 887 451 
Q 1022 303 1197 303 
Q 1434 303 1822 616 
z
" transform="scale(0.015625)"/>
       <path id="TimesNewRomanPSMT-67" d="M 966 1044 
Q 703 1172 562 1401 
Q 422 1631 422 1909 
Q 422 2334 742 2640 
Q 1063 2947 1563 2947 
Q 1972 2947 2272 2747 
L 2878 2747 
Q 3013 2747 3034 2739 
Q 3056 2731 3066 2713 
Q 3084 2684 3084 2613 
Q 3084 2531 3069 2500 
Q 3059 2484 3036 2475 
Q 3013 2466 2878 2466 
L 2506 2466 
Q 2681 2241 2681 1891 
Q 2681 1491 2375 1206 
Q 2069 922 1553 922 
Q 1341 922 1119 984 
Q 981 866 932 777 
Q 884 688 884 625 
Q 884 572 936 522 
Q 988 472 1138 450 
Q 1225 438 1575 428 
Q 2219 413 2409 384 
Q 2700 344 2873 169 
Q 3047 -6 3047 -263 
Q 3047 -616 2716 -925 
Q 2228 -1381 1444 -1381 
Q 841 -1381 425 -1109 
Q 191 -953 191 -784 
Q 191 -709 225 -634 
Q 278 -519 444 -313 
Q 466 -284 763 25 
Q 600 122 533 198 
Q 466 275 466 372 
Q 466 481 555 628 
Q 644 775 966 1044 
z
M 1509 2797 
Q 1278 2797 1122 2612 
Q 966 2428 966 2047 
Q 966 1553 1178 1281 
Q 1341 1075 1591 1075 
Q 1828 1075 1981 1253 
Q 2134 1431 2134 1813 
Q 2134 2309 1919 2591 
Q 1759 2797 1509 2797 
z
M 934 0 
Q 788 -159 713 -296 
Q 638 -434 638 -550 
Q 638 -700 819 -813 
Q 1131 -1006 1722 -1006 
Q 2284 -1006 2551 -807 
Q 2819 -609 2819 -384 
Q 2819 -222 2659 -153 
Q 2497 -84 2016 -72 
Q 1313 -53 934 0 
z
" transform="scale(0.015625)"/>
       <path id="TimesNewRomanPSMT-69" d="M 928 4444 
Q 1059 4444 1151 4351 
Q 1244 4259 1244 4128 
Q 1244 3997 1151 3903 
Q 1059 3809 928 3809 
Q 797 3809 703 3903 
Q 609 3997 609 4128 
Q 609 4259 701 4351 
Q 794 4444 928 4444 
z
M 1188 2947 
L 1188 647 
Q 1188 378 1227 289 
Q 1266 200 1342 156 
Q 1419 113 1622 113 
L 1622 0 
L 231 0 
L 231 113 
Q 441 113 512 153 
Q 584 194 626 287 
Q 669 381 669 647 
L 669 1750 
Q 669 2216 641 2353 
Q 619 2453 572 2492 
Q 525 2531 444 2531 
Q 356 2531 231 2484 
L 188 2597 
L 1050 2947 
L 1188 2947 
z
" transform="scale(0.015625)"/>
      </defs>
      <use xlink:href="#TimesNewRomanPSMT-54"/>
      <use xlink:href="#TimesNewRomanPSMT-68" x="61.083984"/>
      <use xlink:href="#TimesNewRomanPSMT-65" x="111.083984"/>
      <use xlink:href="#TimesNewRomanPSMT-20" x="155.46875"/>
      <use xlink:href="#TimesNewRomanPSMT-66" x="180.46875"/>
      <use xlink:href="#TimesNewRomanPSMT-72" x="213.769531"/>
      <use xlink:href="#TimesNewRomanPSMT-65" x="247.070312"/>
      <use xlink:href="#TimesNewRomanPSMT-71" x="291.455078"/>
      <use xlink:href="#TimesNewRomanPSMT-75" x="341.455078"/>
      <use xlink:href="#TimesNewRomanPSMT-65" x="391.455078"/>
      <use xlink:href="#TimesNewRomanPSMT-6e" x="435.839844"/>
      <use xlink:href="#TimesNewRomanPSMT-63" x="485.839844"/>
      <use xlink:href="#TimesNewRomanPSMT-79" x="530.224609"/>
      <use xlink:href="#TimesNewRomanPSMT-20" x="580.224609"/>
      <use xlink:href="#TimesNewRomanPSMT-6f" x="605.224609"/>
      <use xlink:href="#TimesNewRomanPSMT-66" x="655.224609"/>
      <use xlink:href="#TimesNewRomanPSMT-20" x="688.525391"/>
      <use xlink:href="#TimesNewRomanPSMT-73" x="713.525391"/>
      <use xlink:href="#TimesNewRomanPSMT-74" x="752.441406"/>
      <use xlink:href="#TimesNewRomanPSMT-72" x="780.224609"/>
      <use xlink:href="#TimesNewRomanPSMT-61" x="813.525391"/>
      <use xlink:href="#TimesNewRomanPSMT-74" x="857.910156"/>
      <use xlink:href="#TimesNewRomanPSMT-65" x="885.693359"/>
      <use xlink:href="#TimesNewRomanPSMT-67" x="930.078125"/>
      <use xlink:href="#TimesNewRomanPSMT-69" x="980.078125"/>
      <use xlink:href="#TimesNewRomanPSMT-65" x="1007.861328"/>
      <use xlink:href="#TimesNewRomanPSMT-73" x="1052.246094"/>
     </g>
    </g>
   </g>
   <g id="line2d_13">
    <path d="M 96.405 37.790909 
L 98.343127 47.332981 
L 100.281254 54.997416 
L 102.219381 60.977355 
L 104.157508 65.465939 
L 106.095635 68.65631 
L 108.033763 70.74161 
L 109.97189 71.914978 
L 111.910017 72.369558 
L 113.848144 72.29849 
L 115.786271 71.894916 
L 119.662525 70.862812 
L 121.600652 70.574856 
L 123.538779 70.473371 
L 127.415033 70.62703 
L 133.229415 71.001599 
L 139.043796 71.017009 
L 146.796304 70.996568 
L 160.363194 71.10557 
L 170.053829 71.186245 
L 183.620719 71.386567 
L 195.249482 71.516496 
L 214.630753 71.791148 
L 224.321388 71.852659 
L 234.012023 71.698277 
L 243.702659 71.967325 
L 245.640786 71.750248 
L 247.578913 71.321471 
L 251.455167 70.123415 
L 253.393294 69.760676 
L 255.331421 69.838406 
L 257.269548 70.568813 
L 259.207676 72.16035 
L 263.08393 76.769564 
L 265.022057 78.22165 
L 266.960184 78.01907 
L 268.898311 75.347088 
L 270.836438 69.408372 
L 274.712692 52.211323 
L 276.650819 46.838701 
L 278.588946 47.687907 
L 280.527074 57.812362 
L 282.465201 80.222636 
L 284.403328 115.093149 
L 286.341455 158.042605 
L 290.217709 249.008487 
L 292.155836 287.439987 
L 294.093963 314.831528 
L 296.03209 329.357091 
L 297.970217 333.629978 
L 299.908344 330.636207 
L 301.846472 323.361793 
L 303.784599 314.792754 
L 305.722726 307.886082 
L 307.660853 304.149989 
L 309.59898 303.000937 
L 311.537107 303.692308 
L 313.475234 305.477484 
L 315.413361 307.609846 
L 317.351488 309.351239 
L 319.289615 310.33495 
L 321.227742 310.702911 
L 323.16587 310.633807 
L 328.980251 309.588508 
L 330.918378 309.45573 
L 334.794632 309.547444 
L 340.609013 309.825453 
L 350.299649 309.662939 
L 354.175903 310.0717 
L 358.052157 310.574017 
L 359.990284 310.667447 
L 361.928411 310.552211 
L 363.866538 310.156502 
L 367.742793 309.069544 
L 369.68092 308.93212 
L 371.619047 309.440902 
L 373.557174 310.877517 
L 375.495301 313.511301 
L 377.433428 317.300458 
L 379.371555 321.875394 
L 383.247809 331.841716 
L 385.185936 336.462659 
L 387.124064 340.338301 
L 389.062191 343.31873 
L 391.000318 345.479542 
L 392.938445 346.906139 
L 394.876572 347.683919 
L 396.814699 347.898284 
L 398.752826 347.636076 
L 400.690953 347.014364 
L 406.505334 344.45435 
L 408.443462 343.859035 
L 410.381589 343.629599 
L 412.319716 343.752251 
L 418.134097 344.699244 
L 420.072224 344.686922 
L 422.010351 344.260092 
L 423.948478 343.448307 
L 429.76286 340.521806 
L 431.700987 339.998468 
L 433.639114 339.996977 
L 435.577241 340.492528 
L 437.515368 341.300165 
L 441.391622 343.093374 
L 443.329749 343.699789 
L 445.267876 343.873973 
L 447.206003 343.64988 
L 451.082258 342.792003 
L 453.020385 342.557011 
L 454.958512 342.717181 
L 456.896639 343.454684 
L 458.834766 344.713312 
L 464.649147 349.297188 
L 466.587274 350.313628 
L 468.525401 350.70226 
L 470.463528 350.482911 
L 472.401656 349.838659 
L 478.216037 347.21999 
L 480.154164 346.724911 
L 482.092291 346.531947 
L 489.844799 346.385298 
L 491.782926 345.91496 
L 495.659181 344.408628 
L 497.597308 343.665286 
L 499.535435 343.124569 
L 501.473562 342.933533 
L 503.411689 343.223302 
L 505.349816 343.960478 
L 507.287943 345.014613 
L 513.102324 348.761711 
L 515.040452 349.774444 
L 516.978579 350.536557 
L 518.916706 351.041564 
L 520.854833 351.283437 
L 522.79296 351.256151 
L 524.731087 350.953678 
L 526.669214 350.377315 
L 530.545468 348.706626 
L 534.421722 347.027169 
L 536.359849 346.440165 
L 538.297977 346.141951 
L 540.236104 346.082038 
L 544.112358 346.200808 
L 546.050485 346.140575 
L 547.988612 345.841319 
L 549.926739 345.207529 
L 555.74112 342.590619 
L 557.679247 342.090412 
L 559.617375 342.081827 
L 561.555502 342.713241 
L 563.493629 343.874618 
L 569.30801 348.277714 
L 571.246137 349.297042 
L 573.184264 349.750288 
L 575.122391 349.692318 
L 577.060518 349.282138 
L 582.8749 347.532172 
L 584.813027 347.282701 
L 586.751154 347.271287 
L 594.503662 347.879293 
L 596.441789 347.779731 
L 600.318043 347.232879 
L 604.194298 346.725324 
L 606.132425 346.674957 
L 608.070552 346.844634 
L 610.008679 347.200546 
L 617.761187 349.145716 
L 621.637441 349.630282 
L 627.451823 350.086797 
L 629.38995 350.381242 
L 631.328077 350.824432 
L 635.204331 352.067231 
L 642.956839 354.936353 
L 644.894967 355.402168 
L 646.833094 355.517735 
L 648.771221 355.130566 
L 650.709348 354.08817 
L 652.647475 352.238056 
L 656.523729 346.723444 
L 658.461856 344.514231 
L 660.399983 343.761964 
L 662.33811 345.285313 
L 664.276237 349.902942 
L 666.214365 358.43352 
L 668.152492 371.695714 
L 670.090619 390.508189 
L 672.028746 415.689614 
L 673.966873 448.058655 
L 675.905 488.433979 
L 675.905 488.433979 
" clip-path="url(#p6342c628c7)" style="fill: none; stroke: #264385; stroke-width: 2.5; stroke-linecap: square"/>
   </g>
   <g id="line2d_14">
    <path d="M 96.405 488.433979 
L 98.343127 478.891907 
L 100.281254 471.227472 
L 102.219381 465.247533 
L 104.157508 460.758949 
L 106.095635 457.568578 
L 108.033763 455.483278 
L 109.97189 454.30991 
L 111.910017 453.85533 
L 113.848144 453.926398 
L 115.786271 454.329972 
L 119.662525 455.362076 
L 121.600652 455.650032 
L 123.538779 455.751517 
L 127.415033 455.597858 
L 133.229415 455.223289 
L 139.043796 455.207879 
L 146.796304 455.22832 
L 160.363194 455.119318 
L 170.053829 455.038643 
L 183.620719 454.838321 
L 195.249482 454.708392 
L 214.630753 454.43374 
L 224.321388 454.372229 
L 234.012023 454.526611 
L 243.702659 454.257562 
L 245.640786 454.474639 
L 247.578913 454.903417 
L 251.455167 456.101474 
L 253.393294 456.464214 
L 255.331421 456.386484 
L 257.269548 455.656075 
L 259.207676 454.064538 
L 263.08393 449.45532 
L 265.022057 448.003233 
L 266.960184 448.205812 
L 268.898311 450.877797 
L 270.836438 456.816518 
L 274.712692 474.013582 
L 276.650819 479.386208 
L 278.588946 478.537001 
L 280.527074 468.412538 
L 282.465201 446.002245 
L 284.403328 411.131703 
L 286.341455 368.182221 
L 290.217709 277.216325 
L 292.155836 238.784859 
L 294.093963 211.393389 
L 296.03209 196.86793 
L 297.970217 192.595144 
L 299.908344 195.588978 
L 301.846472 202.863377 
L 303.784599 211.43229 
L 305.722726 218.338689 
L 307.660853 222.074393 
L 309.59898 223.22307 
L 311.537107 222.531472 
L 313.475234 220.746355 
L 315.413361 218.614473 
L 317.351488 216.874112 
L 319.289615 215.891855 
L 321.227742 215.52529 
L 323.16587 215.595223 
L 328.980251 216.634555 
L 330.918378 216.761889 
L 334.794632 216.661957 
L 338.670886 216.436898 
L 342.54714 216.457276 
L 348.361522 216.658003 
L 350.299649 216.589175 
L 352.237776 216.378611 
L 358.052157 215.434476 
L 359.990284 215.358017 
L 361.928411 215.574075 
L 363.866538 216.178829 
L 367.742793 217.816354 
L 369.68092 218.101531 
L 371.619047 217.524119 
L 373.557174 215.703968 
L 375.495301 212.28246 
L 377.433428 207.446056 
L 381.309682 196.598889 
L 383.247809 192.164355 
L 385.185936 189.440005 
L 387.124064 189.182017 
L 389.062191 191.411978 
L 391.000318 195.41689 
L 396.814699 210.631952 
L 398.752826 214.312058 
L 400.690953 216.611486 
L 402.62908 217.822701 
L 404.567207 218.257651 
L 406.505334 218.228281 
L 408.443462 218.046538 
L 410.381589 218.014889 
L 412.319716 218.25389 
L 414.257843 218.720215 
L 416.19597 219.364679 
L 420.072224 220.991289 
L 423.948478 222.72042 
L 425.886605 223.450035 
L 427.824732 223.982481 
L 429.76286 224.237242 
L 431.700987 224.133805 
L 433.639114 223.601113 
L 435.577241 222.721464 
L 439.453495 220.751753 
L 441.391622 220.082308 
L 443.329749 219.903549 
L 445.267876 220.409415 
L 447.206003 221.548943 
L 449.14413 223.082637 
L 453.020385 226.35515 
L 454.958512 227.605281 
L 456.896639 228.285731 
L 458.834766 228.3529 
L 460.772893 227.899908 
L 462.71102 227.022988 
L 464.649147 225.818374 
L 468.525401 222.814007 
L 470.463528 221.251323 
L 472.401656 219.8588 
L 474.339783 218.801527 
L 476.27791 218.244591 
L 478.216037 218.35308 
L 480.154164 219.271716 
L 482.092291 220.902654 
L 484.030418 222.988746 
L 487.906672 227.486655 
L 489.844799 229.378607 
L 491.782926 230.704184 
L 493.721054 231.423393 
L 495.659181 231.621822 
L 497.597308 231.386961 
L 499.535435 230.806297 
L 501.473562 229.967319 
L 505.349816 227.861483 
L 509.22607 225.748245 
L 511.164197 224.898757 
L 513.102324 224.299304 
L 515.040452 224.026779 
L 516.978579 224.089995 
L 518.916706 224.459716 
L 520.854833 225.106292 
L 522.79296 226.000072 
L 524.731087 227.111405 
L 528.607341 229.785056 
L 530.545468 231.129831 
L 532.483595 232.314311 
L 534.421722 233.214229 
L 536.359849 233.70532 
L 538.297977 233.686212 
L 540.236104 233.248295 
L 546.050485 231.304046 
L 547.988612 231.074691 
L 549.926739 231.338325 
L 551.864866 232.009789 
L 555.74112 233.774203 
L 557.679247 234.465113 
L 559.617375 234.760464 
L 561.555502 234.491202 
L 563.493629 233.724525 
L 565.431756 232.633517 
L 569.30801 230.17285 
L 571.246137 229.150359 
L 573.184264 228.476021 
L 575.122391 228.150033 
L 577.060518 228.108389 
L 578.998645 228.286854 
L 582.8749 229.047168 
L 588.689281 230.35735 
L 592.565535 230.921019 
L 594.503662 231.015263 
L 596.441789 230.95282 
L 604.194298 230.232682 
L 606.132425 230.269657 
L 608.070552 230.514386 
L 610.008679 230.94667 
L 613.884933 232.187156 
L 619.699314 234.288604 
L 623.575569 235.354541 
L 625.513696 235.682067 
L 627.451823 235.82779 
L 629.38995 235.758078 
L 631.328077 235.454778 
L 635.204331 234.414973 
L 639.080585 233.368541 
L 641.018712 233.056968 
L 644.894967 232.875924 
L 646.833094 232.571595 
L 648.771221 231.790318 
L 650.709348 230.281281 
L 652.647475 227.793674 
L 656.523729 220.895776 
L 658.461856 218.896063 
L 660.399983 219.670343 
L 662.33811 224.574495 
L 664.276237 234.964401 
L 666.214365 252.195942 
L 668.152492 277.624997 
L 670.090619 312.607448 
L 672.028746 358.499174 
L 673.966873 416.656058 
L 675.905 488.433979 
L 675.905 488.433979 
" clip-path="url(#p6342c628c7)" style="fill: none; stroke: #e23e35; stroke-width: 2.5; stroke-linecap: square"/>
   </g>
   <g id="line2d_15">
    <path d="M 96.405 488.433979 
L 354.175903 488.53836 
L 358.052157 488.650375 
L 361.928411 488.532582 
L 365.804666 488.038584 
L 367.742793 487.772969 
L 369.68092 487.625216 
L 371.619047 487.693846 
L 373.557174 488.077382 
L 375.495301 488.865106 
L 377.433428 489.912353 
L 379.371555 490.827979 
L 381.309682 491.209091 
L 383.247809 490.652797 
L 385.185936 488.756202 
L 387.124064 485.138549 
L 389.062191 479.928159 
L 394.876572 461.203133 
L 396.814699 456.12863 
L 398.752826 452.710733 
L 400.690953 451.033018 
L 402.62908 450.657257 
L 404.567207 451.12461 
L 408.443462 452.753294 
L 410.381589 453.014378 
L 412.319716 452.652726 
L 414.257843 451.863044 
L 418.134097 449.821525 
L 420.072224 448.980656 
L 422.010351 448.524627 
L 423.948478 448.49014 
L 425.886605 448.777343 
L 429.76286 449.899819 
L 433.639114 451.060776 
L 435.577241 451.444875 
L 437.515368 451.657128 
L 439.453495 451.676808 
L 441.391622 451.483184 
L 443.329749 451.05553 
L 445.267876 450.375478 
L 447.206003 449.460044 
L 449.14413 448.353472 
L 453.020385 445.746705 
L 458.834766 441.592655 
L 460.772893 440.496184 
L 462.71102 439.76706 
L 464.649147 439.543305 
L 466.587274 439.962939 
L 468.525401 441.1426 
L 470.463528 442.924633 
L 474.339783 446.901485 
L 476.27791 448.393427 
L 478.216037 449.085797 
L 480.154164 448.66224 
L 482.092291 447.224266 
L 484.030418 445.147815 
L 487.906672 440.602427 
L 489.844799 438.894963 
L 491.782926 438.039723 
L 493.721054 438.027936 
L 495.659181 438.628417 
L 497.597308 439.60662 
L 501.473562 441.758015 
L 503.411689 442.478253 
L 505.349816 442.836905 
L 507.287943 442.880447 
L 509.22607 442.656623 
L 511.164197 442.213176 
L 513.102324 441.597852 
L 516.978579 440.032315 
L 524.731087 436.593783 
L 526.669214 435.877301 
L 528.607341 435.279542 
L 530.545468 434.82241 
L 532.483595 434.527765 
L 534.421722 434.417468 
L 536.359849 434.513382 
L 538.297977 434.830704 
L 542.174231 435.937875 
L 546.050485 437.214246 
L 547.988612 437.742858 
L 549.926739 438.113013 
L 551.864866 438.316556 
L 553.802993 438.371008 
L 555.74112 438.294045 
L 559.617375 437.816577 
L 567.369883 436.38384 
L 569.30801 436.208303 
L 571.246137 436.211467 
L 573.184264 436.432557 
L 580.936773 437.994993 
L 582.8749 438.079527 
L 584.813027 437.872391 
L 588.689281 436.889849 
L 590.627408 436.350255 
L 592.565535 435.935749 
L 594.503662 435.764311 
L 596.441789 435.926315 
L 600.318043 436.872985 
L 602.256171 437.372971 
L 604.194298 437.70086 
L 606.132425 437.714253 
L 608.070552 437.299847 
L 610.008679 436.511651 
L 611.946806 435.463366 
L 617.761187 431.895692 
L 619.699314 430.928522 
L 621.637441 430.149743 
L 623.575569 429.539417 
L 625.513696 429.077582 
L 629.38995 428.519547 
L 639.080585 427.749379 
L 641.018712 427.329123 
L 642.956839 426.768399 
L 644.894967 426.380775 
L 646.833094 426.569536 
L 648.771221 427.737983 
L 650.709348 430.289416 
L 652.647475 434.627137 
L 656.523729 447.039647 
L 658.461856 451.248573 
L 660.399983 451.22656 
L 662.33811 444.799059 
L 664.276237 429.791523 
L 666.214365 404.029405 
L 668.152492 365.338156 
L 670.090619 311.54323 
L 672.028746 240.470079 
L 673.966873 149.944154 
L 675.905 37.790909 
L 675.905 37.790909 
" clip-path="url(#p6342c628c7)" style="fill: none; stroke: #dbb428; stroke-width: 2.5; stroke-linecap: square"/>
   </g>
   <g id="line2d_16">
    <path d="M 96.405 37.790909 
L 98.343127 47.33076 
L 100.281254 54.993677 
L 102.219381 60.972761 
L 104.157508 65.461113 
L 106.095635 68.651834 
L 108.033763 70.738027 
L 109.97189 71.912793 
L 111.910017 72.369234 
L 113.848144 72.30045 
L 115.786271 71.899543 
L 119.662525 70.873765 
L 121.600652 70.589415 
L 123.538779 70.491901 
L 127.415033 70.655003 
L 133.229415 71.048741 
L 139.043796 71.080552 
L 148.734431 71.054522 
L 226.259515 71.758903 
L 232.073896 71.611155 
L 235.950151 71.690898 
L 241.764532 72.000626 
L 243.702659 71.960042 
L 245.640786 71.755667 
L 247.578913 71.333162 
L 251.455167 70.127159 
L 253.393294 69.754369 
L 255.331421 69.820996 
L 257.269548 70.541497 
L 259.207676 72.126561 
L 263.08393 76.736153 
L 265.022057 78.193661 
L 266.960184 77.998913 
L 268.898311 75.336363 
L 270.836438 69.407875 
L 274.712692 52.233632 
L 276.650819 46.87507 
L 278.588946 47.741156 
L 280.527074 57.886098 
L 282.465201 80.321088 
L 284.403328 115.210277 
L 286.341455 158.144602 
L 290.217709 248.861421 
L 292.155836 287.000298 
L 294.093963 313.94888 
L 296.03209 327.901362 
L 297.970217 331.565434 
L 299.908344 328.027724 
L 301.846472 320.374863 
L 303.784599 311.693479 
L 305.722726 305.03922 
L 307.660853 301.921221 
L 309.59898 301.615766 
L 311.537107 303.225058 
L 315.413361 308.596687 
L 317.351488 310.574636 
L 319.289615 311.390486 
L 321.227742 311.323209 
L 323.16587 310.700456 
L 327.042124 309.099122 
L 328.980251 308.770453 
L 330.918378 308.976651 
L 332.856505 309.558379 
L 338.670886 311.781497 
L 340.609013 312.093612 
L 342.54714 312.022347 
L 344.485268 311.665365 
L 352.237776 309.51623 
L 354.175903 309.256459 
L 358.052157 309.054009 
L 361.928411 308.913046 
L 365.804666 308.533849 
L 367.742793 308.508696 
L 369.68092 308.8627 
L 371.619047 309.799699 
L 373.557174 311.52353 
L 375.495301 314.229373 
L 377.433428 317.893231 
L 379.371555 322.260193 
L 387.124064 341.4456 
L 389.062191 345.467244 
L 391.000318 348.950832 
L 392.938445 351.866684 
L 394.876572 354.185121 
L 396.814699 355.876462 
L 398.752826 356.915661 
L 400.690953 357.374827 
L 402.62908 357.418292 
L 408.443462 356.734213 
L 410.381589 356.78743 
L 412.319716 357.112697 
L 420.072224 359.068494 
L 422.010351 359.20077 
L 429.76286 358.949247 
L 431.700987 359.386492 
L 433.639114 360.29093 
L 435.577241 361.589446 
L 439.453495 364.420873 
L 441.391622 365.472822 
L 443.329749 365.961619 
L 445.267876 365.665458 
L 447.206003 364.641975 
L 449.14413 363.16392 
L 453.020385 359.957225 
L 454.958512 358.785152 
L 456.896639 358.254718 
L 458.834766 358.393122 
L 460.772893 359.056556 
L 462.71102 360.097319 
L 470.463528 365.158433 
L 472.401656 366.120264 
L 474.339783 366.856247 
L 476.27791 367.325888 
L 478.216037 367.488695 
L 480.154164 367.311941 
L 482.092291 366.855364 
L 487.906672 365.015627 
L 489.844799 364.65081 
L 491.782926 364.599387 
L 493.721054 364.821393 
L 499.535435 365.800602 
L 501.473562 365.786154 
L 503.411689 365.395741 
L 505.349816 364.689226 
L 509.22607 362.984864 
L 511.164197 362.317518 
L 513.102324 361.993728 
L 515.040452 362.158454 
L 516.978579 362.761175 
L 520.854833 364.640347 
L 522.79296 365.594882 
L 524.731087 366.344771 
L 526.669214 366.74758 
L 528.607341 366.827601 
L 532.483595 366.470176 
L 534.421722 366.259382 
L 536.359849 366.178303 
L 538.297977 366.327718 
L 540.236104 366.702759 
L 544.112358 367.898167 
L 549.926739 369.936792 
L 553.802993 370.992945 
L 557.679247 371.786093 
L 561.555502 372.349249 
L 565.431756 372.66234 
L 569.30801 372.63634 
L 571.246137 372.46692 
L 575.122391 371.839658 
L 578.998645 371.240242 
L 580.936773 371.128052 
L 582.8749 371.235331 
L 584.813027 371.616934 
L 586.751154 372.223624 
L 594.503662 375.08215 
L 596.441789 375.463827 
L 598.379916 375.63956 
L 600.318043 375.651835 
L 604.194298 375.356199 
L 610.008679 374.725806 
L 613.884933 374.517866 
L 617.761187 374.671583 
L 621.637441 375.247364 
L 625.513696 375.83332 
L 627.451823 375.958545 
L 629.38995 375.880429 
L 631.328077 375.555289 
L 637.142458 374.09162 
L 639.080585 373.852892 
L 641.018712 373.94471 
L 642.956839 374.438561 
L 646.833094 375.845475 
L 648.771221 376.25312 
L 650.709348 376.126604 
L 652.647475 375.213209 
L 654.585602 373.403755 
L 656.523729 371.236471 
L 658.461856 369.432035 
L 660.399983 368.711136 
L 662.33811 369.794464 
L 664.276237 373.402707 
L 666.214365 380.256555 
L 668.152492 391.076696 
L 670.090619 406.58382 
L 672.028746 427.498616 
L 673.966873 454.541772 
L 675.905 488.433979 
L 675.905 488.433979 
" clip-path="url(#p6342c628c7)" style="fill: none; stroke-dasharray: 9.25,4; stroke-dashoffset: 0; stroke: #85c7e5; stroke-width: 2.5"/>
   </g>
   <g id="line2d_17">
    <path d="M 96.405 488.433979 
L 98.343127 478.894128 
L 100.281254 471.231211 
L 102.219381 465.252127 
L 104.157508 460.763776 
L 106.095635 457.573054 
L 108.033763 455.486861 
L 109.97189 454.312095 
L 111.910017 453.855654 
L 113.848144 453.924438 
L 115.786271 454.325345 
L 119.662525 455.351123 
L 121.600652 455.635473 
L 123.538779 455.732987 
L 127.415033 455.569885 
L 133.229415 455.176147 
L 139.043796 455.144336 
L 148.734431 455.170366 
L 226.259515 454.465985 
L 232.073896 454.613733 
L 235.950151 454.53399 
L 241.764532 454.224262 
L 243.702659 454.264846 
L 245.640786 454.469221 
L 247.578913 454.891726 
L 251.455167 456.097729 
L 253.393294 456.470519 
L 255.331421 456.403892 
L 257.269548 455.683391 
L 259.207676 454.098328 
L 263.08393 449.488735 
L 265.022057 448.031227 
L 266.960184 448.225975 
L 268.898311 450.888525 
L 270.836438 456.817013 
L 274.712692 473.991256 
L 276.650819 479.349818 
L 278.588946 478.483732 
L 280.527074 468.33879 
L 282.465201 445.9038 
L 284.403328 411.014611 
L 286.341455 368.080286 
L 290.217709 277.363467 
L 292.155836 239.22459 
L 294.093963 212.276008 
L 296.03209 198.323526 
L 297.970217 194.659454 
L 299.908344 198.197164 
L 301.846472 205.850025 
L 303.784599 214.531409 
L 305.722726 221.185668 
L 307.660853 224.303667 
L 309.59898 224.609122 
L 311.537107 222.99983 
L 315.413361 217.628201 
L 317.351488 215.650252 
L 319.289615 214.834403 
L 321.227742 214.901679 
L 323.16587 215.524432 
L 327.042124 217.125766 
L 328.980251 217.454435 
L 330.918378 217.248237 
L 332.856505 216.666509 
L 338.670886 214.443391 
L 340.609013 214.131276 
L 342.54714 214.202541 
L 344.485268 214.559523 
L 352.237776 216.708658 
L 354.175903 216.968429 
L 358.052157 217.170879 
L 361.928411 217.311842 
L 365.804666 217.691039 
L 367.742793 217.716192 
L 369.68092 217.362188 
L 371.619047 216.425189 
L 373.557174 214.701358 
L 375.495301 211.995515 
L 377.433428 208.331657 
L 379.371555 203.964695 
L 387.124064 184.779288 
L 389.062191 180.757644 
L 391.000318 177.274056 
L 392.938445 174.358204 
L 394.876572 172.039767 
L 396.814699 170.348426 
L 398.752826 169.309227 
L 400.690953 168.850061 
L 402.62908 168.806596 
L 408.443462 169.490675 
L 410.381589 169.437458 
L 412.319716 169.112191 
L 420.072224 167.156394 
L 422.010351 167.024118 
L 429.76286 167.275641 
L 431.700987 166.838396 
L 433.639114 165.933958 
L 435.577241 164.635442 
L 439.453495 161.804015 
L 441.391622 160.752066 
L 443.329749 160.263269 
L 445.267876 160.55943 
L 447.206003 161.582913 
L 449.14413 163.060968 
L 453.020385 166.267663 
L 454.958512 167.439736 
L 456.896639 167.97017 
L 458.834766 167.831766 
L 460.772893 167.168332 
L 462.71102 166.127569 
L 470.463528 161.066455 
L 472.401656 160.104624 
L 474.339783 159.368641 
L 476.27791 158.899 
L 478.216037 158.736193 
L 480.154164 158.912947 
L 482.092291 159.369524 
L 487.906672 161.209261 
L 489.844799 161.574078 
L 491.782926 161.625501 
L 493.721054 161.403495 
L 499.535435 160.424286 
L 501.473562 160.438734 
L 503.411689 160.829147 
L 505.349816 161.535662 
L 509.22607 163.240024 
L 511.164197 163.90737 
L 513.102324 164.23116 
L 515.040452 164.066434 
L 516.978579 163.463713 
L 520.854833 161.584541 
L 522.79296 160.630006 
L 524.731087 159.880117 
L 526.669214 159.477308 
L 528.607341 159.397287 
L 532.483595 159.754712 
L 534.421722 159.965506 
L 536.359849 160.046585 
L 538.297977 159.89717 
L 540.236104 159.522129 
L 544.112358 158.326721 
L 549.926739 156.288096 
L 553.802993 155.231943 
L 557.679247 154.438795 
L 561.555502 153.875639 
L 565.431756 153.562548 
L 569.30801 153.588548 
L 571.246137 153.757968 
L 575.122391 154.38523 
L 578.998645 154.984646 
L 580.936773 155.096836 
L 582.8749 154.989557 
L 584.813027 154.607954 
L 586.751154 154.001264 
L 594.503662 151.142739 
L 596.441789 150.761061 
L 598.379916 150.585328 
L 600.318043 150.573053 
L 604.194298 150.868689 
L 610.008679 151.499082 
L 613.884933 151.707022 
L 617.761187 151.553305 
L 621.637441 150.977524 
L 625.513696 150.391568 
L 627.451823 150.266343 
L 629.38995 150.344459 
L 631.328077 150.669599 
L 637.142458 152.133268 
L 639.080585 152.371996 
L 641.018712 152.280178 
L 642.956839 151.786327 
L 646.833094 150.379413 
L 648.771221 149.971768 
L 650.709348 150.098284 
L 652.647475 151.011679 
L 654.585602 152.821133 
L 656.523729 154.988417 
L 658.461856 156.792853 
L 660.399983 157.513752 
L 662.33811 156.430424 
L 664.276237 152.822181 
L 666.214365 145.968333 
L 668.152492 135.148192 
L 670.090619 119.641068 
L 672.028746 98.726272 
L 673.966873 71.683116 
L 675.905 37.790909 
L 675.905 37.790909 
" clip-path="url(#p6342c628c7)" style="fill: none; stroke-dasharray: 9.25,4; stroke-dashoffset: 0; stroke: #f39fa2; stroke-width: 2.5"/>
   </g>
   <g id="line2d_18">
    <path d="M 96.405 488.433979 
L 675.905 488.433979 
L 675.905 488.433979 
" clip-path="url(#p6342c628c7)" style="fill: none; stroke-dasharray: 9.25,4; stroke-dashoffset: 0; stroke: #eae936; stroke-width: 2.5"/>
   </g>
   <g id="patch_3">
    <path d="M 67.43 513.88 
L 67.43 15.12 
" style="fill: none; stroke: #000000; stroke-width: 0.8; stroke-linejoin: miter; stroke-linecap: square"/>
   </g>
   <g id="patch_4">
    <path d="M 704.88 513.88 
L 704.88 15.12 
" style="fill: none; stroke: #000000; stroke-width: 0.8; stroke-linejoin: miter; stroke-linecap: square"/>
   </g>
   <g id="patch_5">
    <path d="M 67.43 513.88 
L 704.88 513.88 
" style="fill: none; stroke: #000000; stroke-width: 0.8; stroke-linejoin: miter; stroke-linecap: square"/>
   </g>
   <g id="patch_6">
    <path d="M 67.43 15.12 
L 704.88 15.12 
" style="fill: none; stroke: #000000; stroke-width: 0.8; stroke-linejoin: miter; stroke-linecap: square"/>
   </g>
   <g id="legend_1">
    <g id="patch_7">
     <path d="M 80.03 343.550938 
L 265.095312 343.550938 
Q 268.695312 343.550938 268.695312 339.950938 
L 268.695312 189.049063 
Q 268.695312 185.449063 265.095312 185.449063 
L 80.03 185.449063 
Q 76.43 185.449063 76.43 189.049063 
L 76.43 339.950938 
Q 76.43 343.550938 80.03 343.550938 
z
" style="fill: #ffffff; opacity: 0.8; stroke: #cccccc; stroke-linejoin: miter"/>
    </g>
    <g id="line2d_19">
     <path d="M 83.63 198.949063 
L 101.63 198.949063 
L 119.63 198.949063 
" style="fill: none; stroke: #264385; stroke-width: 2.5; stroke-linecap: square"/>
    </g>
    <g id="text_15">
     <!-- C(with Loner) -->
     <g transform="translate(134.03 205.249063)scale(0.18 -0.18)">
      <defs>
       <path id="TimesNewRomanPSMT-43" d="M 3853 4334 
L 3950 2894 
L 3853 2894 
Q 3659 3541 3300 3825 
Q 2941 4109 2438 4109 
Q 2016 4109 1675 3895 
Q 1334 3681 1139 3212 
Q 944 2744 944 2047 
Q 944 1472 1128 1050 
Q 1313 628 1683 403 
Q 2053 178 2528 178 
Q 2941 178 3256 354 
Q 3572 531 3950 1056 
L 4047 994 
Q 3728 428 3303 165 
Q 2878 -97 2294 -97 
Q 1241 -97 663 684 
Q 231 1266 231 2053 
Q 231 2688 515 3219 
Q 800 3750 1298 4042 
Q 1797 4334 2388 4334 
Q 2847 4334 3294 4109 
Q 3425 4041 3481 4041 
Q 3566 4041 3628 4100 
Q 3709 4184 3744 4334 
L 3853 4334 
z
" transform="scale(0.015625)"/>
       <path id="TimesNewRomanPSMT-28" d="M 1988 -1253 
L 1988 -1369 
Q 1516 -1131 1200 -813 
Q 750 -359 506 256 
Q 263 872 263 1534 
Q 263 2503 741 3301 
Q 1219 4100 1988 4444 
L 1988 4313 
Q 1603 4100 1356 3731 
Q 1109 3363 987 2797 
Q 866 2231 866 1616 
Q 866 947 969 400 
Q 1050 -31 1165 -292 
Q 1281 -553 1476 -793 
Q 1672 -1034 1988 -1253 
z
" transform="scale(0.015625)"/>
       <path id="TimesNewRomanPSMT-77" d="M 41 2863 
L 1241 2863 
L 1241 2747 
Q 1075 2734 1023 2687 
Q 972 2641 972 2553 
Q 972 2456 1025 2319 
L 1638 672 
L 2253 2013 
L 2091 2434 
Q 2016 2622 1894 2694 
Q 1825 2738 1638 2747 
L 1638 2863 
L 3000 2863 
L 3000 2747 
Q 2775 2738 2681 2666 
Q 2619 2616 2619 2506 
Q 2619 2444 2644 2378 
L 3294 734 
L 3897 2319 
Q 3959 2488 3959 2588 
Q 3959 2647 3898 2694 
Q 3838 2741 3659 2747 
L 3659 2863 
L 4563 2863 
L 4563 2747 
Q 4291 2706 4163 2378 
L 3206 -88 
L 3078 -88 
L 2363 1741 
L 1528 -88 
L 1413 -88 
L 494 2319 
Q 403 2547 315 2626 
Q 228 2706 41 2747 
L 41 2863 
z
" transform="scale(0.015625)"/>
       <path id="TimesNewRomanPSMT-4c" d="M 3669 1172 
L 3772 1150 
L 3409 0 
L 128 0 
L 128 116 
L 288 116 
Q 556 116 672 291 
Q 738 391 738 753 
L 738 3488 
Q 738 3884 650 3984 
Q 528 4122 288 4122 
L 128 4122 
L 128 4238 
L 2047 4238 
L 2047 4122 
Q 1709 4125 1573 4059 
Q 1438 3994 1388 3894 
Q 1338 3794 1338 3416 
L 1338 753 
Q 1338 494 1388 397 
Q 1425 331 1503 300 
Q 1581 269 1991 269 
L 2300 269 
Q 2788 269 2984 341 
Q 3181 413 3343 595 
Q 3506 778 3669 1172 
z
" transform="scale(0.015625)"/>
       <path id="TimesNewRomanPSMT-29" d="M 144 4313 
L 144 4444 
Q 619 4209 934 3891 
Q 1381 3434 1625 2820 
Q 1869 2206 1869 1541 
Q 1869 572 1392 -226 
Q 916 -1025 144 -1369 
L 144 -1253 
Q 528 -1038 776 -670 
Q 1025 -303 1145 264 
Q 1266 831 1266 1447 
Q 1266 2113 1163 2663 
Q 1084 3094 967 3353 
Q 850 3613 656 3853 
Q 463 4094 144 4313 
z
" transform="scale(0.015625)"/>
      </defs>
      <use xlink:href="#TimesNewRomanPSMT-43"/>
      <use xlink:href="#TimesNewRomanPSMT-28" x="66.699219"/>
      <use xlink:href="#TimesNewRomanPSMT-77" x="100"/>
      <use xlink:href="#TimesNewRomanPSMT-69" x="172.216797"/>
      <use xlink:href="#TimesNewRomanPSMT-74" x="200"/>
      <use xlink:href="#TimesNewRomanPSMT-68" x="227.783203"/>
      <use xlink:href="#TimesNewRomanPSMT-20" x="277.783203"/>
      <use xlink:href="#TimesNewRomanPSMT-4c" x="302.783203"/>
      <use xlink:href="#TimesNewRomanPSMT-6f" x="363.867188"/>
      <use xlink:href="#TimesNewRomanPSMT-6e" x="413.867188"/>
      <use xlink:href="#TimesNewRomanPSMT-65" x="463.867188"/>
      <use xlink:href="#TimesNewRomanPSMT-72" x="508.251953"/>
      <use xlink:href="#TimesNewRomanPSMT-29" x="541.552734"/>
     </g>
    </g>
    <g id="line2d_20">
     <path d="M 83.63 224.399375 
L 101.63 224.399375 
L 119.63 224.399375 
" style="fill: none; stroke: #e23e35; stroke-width: 2.5; stroke-linecap: square"/>
    </g>
    <g id="text_16">
     <!-- D(with Loner) -->
     <g transform="translate(134.03 230.699375)scale(0.18 -0.18)">
      <defs>
       <path id="TimesNewRomanPSMT-44" d="M 109 0 
L 109 116 
L 269 116 
Q 538 116 650 288 
Q 719 391 719 750 
L 719 3488 
Q 719 3884 631 3984 
Q 509 4122 269 4122 
L 109 4122 
L 109 4238 
L 1834 4238 
Q 2784 4238 3279 4022 
Q 3775 3806 4076 3303 
Q 4378 2800 4378 2141 
Q 4378 1256 3841 663 
Q 3238 0 2003 0 
L 109 0 
z
M 1319 306 
Q 1716 219 1984 219 
Q 2709 219 3187 728 
Q 3666 1238 3666 2109 
Q 3666 2988 3187 3494 
Q 2709 4000 1959 4000 
Q 1678 4000 1319 3909 
L 1319 306 
z
" transform="scale(0.015625)"/>
      </defs>
      <use xlink:href="#TimesNewRomanPSMT-44"/>
      <use xlink:href="#TimesNewRomanPSMT-28" x="72.216797"/>
      <use xlink:href="#TimesNewRomanPSMT-77" x="105.517578"/>
      <use xlink:href="#TimesNewRomanPSMT-69" x="177.734375"/>
      <use xlink:href="#TimesNewRomanPSMT-74" x="205.517578"/>
      <use xlink:href="#TimesNewRomanPSMT-68" x="233.300781"/>
      <use xlink:href="#TimesNewRomanPSMT-20" x="283.300781"/>
      <use xlink:href="#TimesNewRomanPSMT-4c" x="308.300781"/>
      <use xlink:href="#TimesNewRomanPSMT-6f" x="369.384766"/>
      <use xlink:href="#TimesNewRomanPSMT-6e" x="419.384766"/>
      <use xlink:href="#TimesNewRomanPSMT-65" x="469.384766"/>
      <use xlink:href="#TimesNewRomanPSMT-72" x="513.769531"/>
      <use xlink:href="#TimesNewRomanPSMT-29" x="547.070312"/>
     </g>
    </g>
    <g id="line2d_21">
     <path d="M 83.63 249.849688 
L 101.63 249.849688 
L 119.63 249.849688 
" style="fill: none; stroke: #dbb428; stroke-width: 2.5; stroke-linecap: square"/>
    </g>
    <g id="text_17">
     <!-- L(with Loner) -->
     <g transform="translate(134.03 256.149688)scale(0.18 -0.18)">
      <use xlink:href="#TimesNewRomanPSMT-4c"/>
      <use xlink:href="#TimesNewRomanPSMT-28" x="61.083984"/>
      <use xlink:href="#TimesNewRomanPSMT-77" x="94.384766"/>
      <use xlink:href="#TimesNewRomanPSMT-69" x="166.601562"/>
      <use xlink:href="#TimesNewRomanPSMT-74" x="194.384766"/>
      <use xlink:href="#TimesNewRomanPSMT-68" x="222.167969"/>
      <use xlink:href="#TimesNewRomanPSMT-20" x="272.167969"/>
      <use xlink:href="#TimesNewRomanPSMT-4c" x="297.167969"/>
      <use xlink:href="#TimesNewRomanPSMT-6f" x="358.251953"/>
      <use xlink:href="#TimesNewRomanPSMT-6e" x="408.251953"/>
      <use xlink:href="#TimesNewRomanPSMT-65" x="458.251953"/>
      <use xlink:href="#TimesNewRomanPSMT-72" x="502.636719"/>
      <use xlink:href="#TimesNewRomanPSMT-29" x="535.9375"/>
     </g>
    </g>
    <g id="line2d_22">
     <path d="M 83.63 275.3 
L 101.63 275.3 
L 119.63 275.3 
" style="fill: none; stroke-dasharray: 9.25,4; stroke-dashoffset: 0; stroke: #85c7e5; stroke-width: 2.5"/>
    </g>
    <g id="text_18">
     <!-- C(without Loner) -->
     <g transform="translate(134.03 281.6)scale(0.18 -0.18)">
      <use xlink:href="#TimesNewRomanPSMT-43"/>
      <use xlink:href="#TimesNewRomanPSMT-28" x="66.699219"/>
      <use xlink:href="#TimesNewRomanPSMT-77" x="100"/>
      <use xlink:href="#TimesNewRomanPSMT-69" x="172.216797"/>
      <use xlink:href="#TimesNewRomanPSMT-74" x="200"/>
      <use xlink:href="#TimesNewRomanPSMT-68" x="227.783203"/>
      <use xlink:href="#TimesNewRomanPSMT-6f" x="277.783203"/>
      <use xlink:href="#TimesNewRomanPSMT-75" x="327.783203"/>
      <use xlink:href="#TimesNewRomanPSMT-74" x="377.783203"/>
      <use xlink:href="#TimesNewRomanPSMT-20" x="405.566406"/>
      <use xlink:href="#TimesNewRomanPSMT-4c" x="430.566406"/>
      <use xlink:href="#TimesNewRomanPSMT-6f" x="491.650391"/>
      <use xlink:href="#TimesNewRomanPSMT-6e" x="541.650391"/>
      <use xlink:href="#TimesNewRomanPSMT-65" x="591.650391"/>
      <use xlink:href="#TimesNewRomanPSMT-72" x="636.035156"/>
      <use xlink:href="#TimesNewRomanPSMT-29" x="669.335938"/>
     </g>
    </g>
    <g id="line2d_23">
     <path d="M 83.63 300.750313 
L 101.63 300.750313 
L 119.63 300.750313 
" style="fill: none; stroke-dasharray: 9.25,4; stroke-dashoffset: 0; stroke: #f39fa2; stroke-width: 2.5"/>
    </g>
    <g id="text_19">
     <!-- D(without Loner) -->
     <g transform="translate(134.03 307.050313)scale(0.18 -0.18)">
      <use xlink:href="#TimesNewRomanPSMT-44"/>
      <use xlink:href="#TimesNewRomanPSMT-28" x="72.216797"/>
      <use xlink:href="#TimesNewRomanPSMT-77" x="105.517578"/>
      <use xlink:href="#TimesNewRomanPSMT-69" x="177.734375"/>
      <use xlink:href="#TimesNewRomanPSMT-74" x="205.517578"/>
      <use xlink:href="#TimesNewRomanPSMT-68" x="233.300781"/>
      <use xlink:href="#TimesNewRomanPSMT-6f" x="283.300781"/>
      <use xlink:href="#TimesNewRomanPSMT-75" x="333.300781"/>
      <use xlink:href="#TimesNewRomanPSMT-74" x="383.300781"/>
      <use xlink:href="#TimesNewRomanPSMT-20" x="411.083984"/>
      <use xlink:href="#TimesNewRomanPSMT-4c" x="436.083984"/>
      <use xlink:href="#TimesNewRomanPSMT-6f" x="497.167969"/>
      <use xlink:href="#TimesNewRomanPSMT-6e" x="547.167969"/>
      <use xlink:href="#TimesNewRomanPSMT-65" x="597.167969"/>
      <use xlink:href="#TimesNewRomanPSMT-72" x="641.552734"/>
      <use xlink:href="#TimesNewRomanPSMT-29" x="674.853516"/>
     </g>
    </g>
    <g id="line2d_24">
     <path d="M 83.63 326.200625 
L 101.63 326.200625 
L 119.63 326.200625 
" style="fill: none; stroke-dasharray: 9.25,4; stroke-dashoffset: 0; stroke: #eae936; stroke-width: 2.5"/>
    </g>
    <g id="text_20">
     <!-- L(without Loner) -->
     <g transform="translate(134.03 332.500625)scale(0.18 -0.18)">
      <use xlink:href="#TimesNewRomanPSMT-4c"/>
      <use xlink:href="#TimesNewRomanPSMT-28" x="61.083984"/>
      <use xlink:href="#TimesNewRomanPSMT-77" x="94.384766"/>
      <use xlink:href="#TimesNewRomanPSMT-69" x="166.601562"/>
      <use xlink:href="#TimesNewRomanPSMT-74" x="194.384766"/>
      <use xlink:href="#TimesNewRomanPSMT-68" x="222.167969"/>
      <use xlink:href="#TimesNewRomanPSMT-6f" x="272.167969"/>
      <use xlink:href="#TimesNewRomanPSMT-75" x="322.167969"/>
      <use xlink:href="#TimesNewRomanPSMT-74" x="372.167969"/>
      <use xlink:href="#TimesNewRomanPSMT-20" x="399.951172"/>
      <use xlink:href="#TimesNewRomanPSMT-4c" x="424.951172"/>
      <use xlink:href="#TimesNewRomanPSMT-6f" x="486.035156"/>
      <use xlink:href="#TimesNewRomanPSMT-6e" x="536.035156"/>
      <use xlink:href="#TimesNewRomanPSMT-65" x="586.035156"/>
      <use xlink:href="#TimesNewRomanPSMT-72" x="630.419922"/>
      <use xlink:href="#TimesNewRomanPSMT-29" x="663.720703"/>
     </g>
    </g>
   </g>
  </g>
 </g>
 <defs>
  <clipPath id="p6342c628c7">
   <rect x="67.43" y="15.12" width="637.45" height="498.76"/>
  </clipPath>
 </defs>
</svg>
