<?xml version="1.0" encoding="utf-8" standalone="no"?>
<!DOCTYPE svg PUBLIC "-//W3C//DTD SVG 1.1//EN"
  "http://www.w3.org/Graphics/SVG/1.1/DTD/svg11.dtd">
<svg xmlns:xlink="http://www.w3.org/1999/xlink" width="460.8pt" height="345.6pt" viewBox="0 0 460.8 345.6" xmlns="http://www.w3.org/2000/svg" version="1.1">
 <metadata>
  <rdf:RDF xmlns:dc="http://purl.org/dc/elements/1.1/" xmlns:cc="http://creativecommons.org/ns#" xmlns:rdf="http://www.w3.org/1999/02/22-rdf-syntax-ns#">
   <cc:Work>
    <dc:type rdf:resource="http://purl.org/dc/dcmitype/StillImage"/>
    <dc:date>2025-09-26T15:49:05.294879</dc:date>
    <dc:format>image/svg+xml</dc:format>
    <dc:creator>
     <cc:Agent>
      <dc:title>Matplotlib v3.5.1, https://matplotlib.org/</dc:title>
     </cc:Agent>
    </dc:creator>
   </cc:Work>
  </rdf:RDF>
 </metadata>
 <defs>
  <style type="text/css">*{stroke-linejoin: round; stroke-linecap: butt}</style>
 </defs>
 <g id="figure_1">
  <g id="patch_1">
   <path d="M 0 345.6 
L 460.8 345.6 
L 460.8 0 
L 0 0 
z
" style="fill: #ffffff"/>
  </g>
  <g id="axes_1">
   <g id="patch_2">
    <path d="M 44.39 303.64 
L 450 303.64 
L 450 10.8 
L 44.39 10.8 
z
" style="fill: #ffffff"/>
   </g>
   <g id="matplotlib.axis_1">
    <g id="xtick_1">
     <g id="line2d_1">
      <defs>
       <path id="m36424fb773" d="M 0 0 
L 0 3.5 
" style="stroke: #000000; stroke-width: 0.8"/>
      </defs>
      <g>
       <use xlink:href="#m36424fb773" x="62.826818" y="303.64" style="stroke: #000000; stroke-width: 0.8"/>
      </g>
     </g>
     <g id="text_1">
      <!-- 1.0 -->
      <g transform="translate(56.576818 317.58375)scale(0.1 -0.1)">
       <defs>
        <path id="TimesNewRomanPSMT-31" d="M 750 3822 
L 1781 4325 
L 1884 4325 
L 1884 747 
Q 1884 391 1914 303 
Q 1944 216 2037 169 
Q 2131 122 2419 116 
L 2419 0 
L 825 0 
L 825 116 
Q 1125 122 1212 167 
Q 1300 213 1334 289 
Q 1369 366 1369 747 
L 1369 3034 
Q 1369 3497 1338 3628 
Q 1316 3728 1258 3775 
Q 1200 3822 1119 3822 
Q 1003 3822 797 3725 
L 750 3822 
z
" transform="scale(0.015625)"/>
        <path id="TimesNewRomanPSMT-2e" d="M 800 606 
Q 947 606 1047 504 
Q 1147 403 1147 259 
Q 1147 116 1045 14 
Q 944 -88 800 -88 
Q 656 -88 554 14 
Q 453 116 453 259 
Q 453 406 554 506 
Q 656 606 800 606 
z
" transform="scale(0.015625)"/>
        <path id="TimesNewRomanPSMT-30" d="M 231 2094 
Q 231 2819 450 3342 
Q 669 3866 1031 4122 
Q 1313 4325 1613 4325 
Q 2100 4325 2488 3828 
Q 2972 3213 2972 2159 
Q 2972 1422 2759 906 
Q 2547 391 2217 158 
Q 1888 -75 1581 -75 
Q 975 -75 572 641 
Q 231 1244 231 2094 
z
M 844 2016 
Q 844 1141 1059 588 
Q 1238 122 1591 122 
Q 1759 122 1940 273 
Q 2122 425 2216 781 
Q 2359 1319 2359 2297 
Q 2359 3022 2209 3506 
Q 2097 3866 1919 4016 
Q 1791 4119 1609 4119 
Q 1397 4119 1231 3928 
Q 1006 3669 925 3112 
Q 844 2556 844 2016 
z
" transform="scale(0.015625)"/>
       </defs>
       <use xlink:href="#TimesNewRomanPSMT-31"/>
       <use xlink:href="#TimesNewRomanPSMT-2e" x="50"/>
       <use xlink:href="#TimesNewRomanPSMT-30" x="75"/>
      </g>
     </g>
    </g>
    <g id="xtick_2">
     <g id="line2d_2">
      <g>
       <use xlink:href="#m36424fb773" x="136.574091" y="303.64" style="stroke: #000000; stroke-width: 0.8"/>
      </g>
     </g>
     <g id="text_2">
      <!-- 1.2 -->
      <g transform="translate(130.324091 317.58375)scale(0.1 -0.1)">
       <defs>
        <path id="TimesNewRomanPSMT-32" d="M 2934 816 
L 2638 0 
L 138 0 
L 138 116 
Q 1241 1122 1691 1759 
Q 2141 2397 2141 2925 
Q 2141 3328 1894 3587 
Q 1647 3847 1303 3847 
Q 991 3847 742 3664 
Q 494 3481 375 3128 
L 259 3128 
Q 338 3706 661 4015 
Q 984 4325 1469 4325 
Q 1984 4325 2329 3994 
Q 2675 3663 2675 3213 
Q 2675 2891 2525 2569 
Q 2294 2063 1775 1497 
Q 997 647 803 472 
L 1909 472 
Q 2247 472 2383 497 
Q 2519 522 2628 598 
Q 2738 675 2819 816 
L 2934 816 
z
" transform="scale(0.015625)"/>
       </defs>
       <use xlink:href="#TimesNewRomanPSMT-31"/>
       <use xlink:href="#TimesNewRomanPSMT-2e" x="50"/>
       <use xlink:href="#TimesNewRomanPSMT-32" x="75"/>
      </g>
     </g>
    </g>
    <g id="xtick_3">
     <g id="line2d_3">
      <g>
       <use xlink:href="#m36424fb773" x="210.321364" y="303.64" style="stroke: #000000; stroke-width: 0.8"/>
      </g>
     </g>
     <g id="text_3">
      <!-- 1.4 -->
      <g transform="translate(204.071364 317.58375)scale(0.1 -0.1)">
       <defs>
        <path id="TimesNewRomanPSMT-34" d="M 2978 1563 
L 2978 1119 
L 2409 1119 
L 2409 0 
L 1894 0 
L 1894 1119 
L 100 1119 
L 100 1519 
L 2066 4325 
L 2409 4325 
L 2409 1563 
L 2978 1563 
z
M 1894 1563 
L 1894 3666 
L 406 1563 
L 1894 1563 
z
" transform="scale(0.015625)"/>
       </defs>
       <use xlink:href="#TimesNewRomanPSMT-31"/>
       <use xlink:href="#TimesNewRomanPSMT-2e" x="50"/>
       <use xlink:href="#TimesNewRomanPSMT-34" x="75"/>
      </g>
     </g>
    </g>
    <g id="xtick_4">
     <g id="line2d_4">
      <g>
       <use xlink:href="#m36424fb773" x="284.068636" y="303.64" style="stroke: #000000; stroke-width: 0.8"/>
      </g>
     </g>
     <g id="text_4">
      <!-- 1.6 -->
      <g transform="translate(277.818636 317.58375)scale(0.1 -0.1)">
       <defs>
        <path id="TimesNewRomanPSMT-36" d="M 2869 4325 
L 2869 4209 
Q 2456 4169 2195 4045 
Q 1934 3922 1679 3669 
Q 1425 3416 1258 3105 
Q 1091 2794 978 2366 
Q 1428 2675 1881 2675 
Q 2316 2675 2634 2325 
Q 2953 1975 2953 1425 
Q 2953 894 2631 456 
Q 2244 -75 1606 -75 
Q 1172 -75 869 213 
Q 275 772 275 1663 
Q 275 2231 503 2743 
Q 731 3256 1154 3653 
Q 1578 4050 1965 4187 
Q 2353 4325 2688 4325 
L 2869 4325 
z
M 925 2138 
Q 869 1716 869 1456 
Q 869 1156 980 804 
Q 1091 453 1309 247 
Q 1469 100 1697 100 
Q 1969 100 2183 356 
Q 2397 613 2397 1088 
Q 2397 1622 2184 2012 
Q 1972 2403 1581 2403 
Q 1463 2403 1327 2353 
Q 1191 2303 925 2138 
z
" transform="scale(0.015625)"/>
       </defs>
       <use xlink:href="#TimesNewRomanPSMT-31"/>
       <use xlink:href="#TimesNewRomanPSMT-2e" x="50"/>
       <use xlink:href="#TimesNewRomanPSMT-36" x="75"/>
      </g>
     </g>
    </g>
    <g id="xtick_5">
     <g id="line2d_5">
      <g>
       <use xlink:href="#m36424fb773" x="357.815909" y="303.64" style="stroke: #000000; stroke-width: 0.8"/>
      </g>
     </g>
     <g id="text_5">
      <!-- 1.8 -->
      <g transform="translate(351.565909 317.58375)scale(0.1 -0.1)">
       <defs>
        <path id="TimesNewRomanPSMT-38" d="M 1228 2134 
Q 725 2547 579 2797 
Q 434 3047 434 3316 
Q 434 3728 753 4026 
Q 1072 4325 1600 4325 
Q 2113 4325 2425 4047 
Q 2738 3769 2738 3413 
Q 2738 3175 2569 2928 
Q 2400 2681 1866 2347 
Q 2416 1922 2594 1678 
Q 2831 1359 2831 1006 
Q 2831 559 2490 242 
Q 2150 -75 1597 -75 
Q 994 -75 656 303 
Q 388 606 388 966 
Q 388 1247 577 1523 
Q 766 1800 1228 2134 
z
M 1719 2469 
Q 2094 2806 2194 3001 
Q 2294 3197 2294 3444 
Q 2294 3772 2109 3958 
Q 1925 4144 1606 4144 
Q 1288 4144 1088 3959 
Q 888 3775 888 3528 
Q 888 3366 970 3203 
Q 1053 3041 1206 2894 
L 1719 2469 
z
M 1375 2016 
Q 1116 1797 991 1539 
Q 866 1281 866 981 
Q 866 578 1086 336 
Q 1306 94 1647 94 
Q 1984 94 2187 284 
Q 2391 475 2391 747 
Q 2391 972 2272 1150 
Q 2050 1481 1375 2016 
z
" transform="scale(0.015625)"/>
       </defs>
       <use xlink:href="#TimesNewRomanPSMT-31"/>
       <use xlink:href="#TimesNewRomanPSMT-2e" x="50"/>
       <use xlink:href="#TimesNewRomanPSMT-38" x="75"/>
      </g>
     </g>
    </g>
    <g id="xtick_6">
     <g id="line2d_6">
      <g>
       <use xlink:href="#m36424fb773" x="431.563182" y="303.64" style="stroke: #000000; stroke-width: 0.8"/>
      </g>
     </g>
     <g id="text_6">
      <!-- 2.0 -->
      <g transform="translate(425.313182 317.58375)scale(0.1 -0.1)">
       <use xlink:href="#TimesNewRomanPSMT-32"/>
       <use xlink:href="#TimesNewRomanPSMT-2e" x="50"/>
       <use xlink:href="#TimesNewRomanPSMT-30" x="75"/>
      </g>
     </g>
    </g>
    <g id="text_7">
     <!-- b -->
     <g transform="translate(244.695 330.666562)scale(0.1 -0.1)">
      <defs>
       <path id="TimesNewRomanPSMT-62" d="M 984 2369 
Q 1400 2947 1881 2947 
Q 2322 2947 2650 2570 
Q 2978 2194 2978 1541 
Q 2978 778 2472 313 
Q 2038 -88 1503 -88 
Q 1253 -88 995 3 
Q 738 94 469 275 
L 469 3241 
Q 469 3728 445 3840 
Q 422 3953 372 3993 
Q 322 4034 247 4034 
Q 159 4034 28 3984 
L -16 4094 
L 844 4444 
L 984 4444 
L 984 2369 
z
M 984 2169 
L 984 456 
Q 1144 300 1314 220 
Q 1484 141 1663 141 
Q 1947 141 2192 453 
Q 2438 766 2438 1363 
Q 2438 1913 2192 2208 
Q 1947 2503 1634 2503 
Q 1469 2503 1303 2419 
Q 1178 2356 984 2169 
z
" transform="scale(0.015625)"/>
      </defs>
      <use xlink:href="#TimesNewRomanPSMT-62"/>
     </g>
    </g>
   </g>
   <g id="matplotlib.axis_2">
    <g id="ytick_1">
     <g id="line2d_7">
      <defs>
       <path id="m29ff41ab4b" d="M 0 0 
L -3.5 0 
" style="stroke: #000000; stroke-width: 0.8"/>
      </defs>
      <g>
       <use xlink:href="#m29ff41ab4b" x="44.39" y="290.329091" style="stroke: #000000; stroke-width: 0.8"/>
      </g>
     </g>
     <g id="text_8">
      <!-- 0.0 -->
      <g transform="translate(24.89 293.800966)scale(0.1 -0.1)">
       <use xlink:href="#TimesNewRomanPSMT-30"/>
       <use xlink:href="#TimesNewRomanPSMT-2e" x="50"/>
       <use xlink:href="#TimesNewRomanPSMT-30" x="75"/>
      </g>
     </g>
    </g>
    <g id="ytick_2">
     <g id="line2d_8">
      <g>
       <use xlink:href="#m29ff41ab4b" x="44.39" y="238.53698" style="stroke: #000000; stroke-width: 0.8"/>
      </g>
     </g>
     <g id="text_9">
      <!-- 0.1 -->
      <g transform="translate(24.89 242.008855)scale(0.1 -0.1)">
       <use xlink:href="#TimesNewRomanPSMT-30"/>
       <use xlink:href="#TimesNewRomanPSMT-2e" x="50"/>
       <use xlink:href="#TimesNewRomanPSMT-31" x="75"/>
      </g>
     </g>
    </g>
    <g id="ytick_3">
     <g id="line2d_9">
      <g>
       <use xlink:href="#m29ff41ab4b" x="44.39" y="186.74487" style="stroke: #000000; stroke-width: 0.8"/>
      </g>
     </g>
     <g id="text_10">
      <!-- 0.2 -->
      <g transform="translate(24.89 190.216745)scale(0.1 -0.1)">
       <use xlink:href="#TimesNewRomanPSMT-30"/>
       <use xlink:href="#TimesNewRomanPSMT-2e" x="50"/>
       <use xlink:href="#TimesNewRomanPSMT-32" x="75"/>
      </g>
     </g>
    </g>
    <g id="ytick_4">
     <g id="line2d_10">
      <g>
       <use xlink:href="#m29ff41ab4b" x="44.39" y="134.952759" style="stroke: #000000; stroke-width: 0.8"/>
      </g>
     </g>
     <g id="text_11">
      <!-- 0.3 -->
      <g transform="translate(24.89 138.424634)scale(0.1 -0.1)">
       <defs>
        <path id="TimesNewRomanPSMT-33" d="M 325 3431 
Q 506 3859 782 4092 
Q 1059 4325 1472 4325 
Q 1981 4325 2253 3994 
Q 2459 3747 2459 3466 
Q 2459 3003 1878 2509 
Q 2269 2356 2469 2072 
Q 2669 1788 2669 1403 
Q 2669 853 2319 450 
Q 1863 -75 997 -75 
Q 569 -75 414 31 
Q 259 138 259 259 
Q 259 350 332 419 
Q 406 488 509 488 
Q 588 488 669 463 
Q 722 447 909 348 
Q 1097 250 1169 231 
Q 1284 197 1416 197 
Q 1734 197 1970 444 
Q 2206 691 2206 1028 
Q 2206 1275 2097 1509 
Q 2016 1684 1919 1775 
Q 1784 1900 1550 2001 
Q 1316 2103 1072 2103 
L 972 2103 
L 972 2197 
Q 1219 2228 1467 2375 
Q 1716 2522 1828 2728 
Q 1941 2934 1941 3181 
Q 1941 3503 1739 3701 
Q 1538 3900 1238 3900 
Q 753 3900 428 3381 
L 325 3431 
z
" transform="scale(0.015625)"/>
       </defs>
       <use xlink:href="#TimesNewRomanPSMT-30"/>
       <use xlink:href="#TimesNewRomanPSMT-2e" x="50"/>
       <use xlink:href="#TimesNewRomanPSMT-33" x="75"/>
      </g>
     </g>
    </g>
    <g id="ytick_5">
     <g id="line2d_11">
      <g>
       <use xlink:href="#m29ff41ab4b" x="44.39" y="83.160649" style="stroke: #000000; stroke-width: 0.8"/>
      </g>
     </g>
     <g id="text_12">
      <!-- 0.4 -->
      <g transform="translate(24.89 86.632524)scale(0.1 -0.1)">
       <use xlink:href="#TimesNewRomanPSMT-30"/>
       <use xlink:href="#TimesNewRomanPSMT-2e" x="50"/>
       <use xlink:href="#TimesNewRomanPSMT-34" x="75"/>
      </g>
     </g>
    </g>
    <g id="ytick_6">
     <g id="line2d_12">
      <g>
       <use xlink:href="#m29ff41ab4b" x="44.39" y="31.368538" style="stroke: #000000; stroke-width: 0.8"/>
      </g>
     </g>
     <g id="text_13">
      <!-- 0.5 -->
      <g transform="translate(24.89 34.840413)scale(0.1 -0.1)">
       <defs>
        <path id="TimesNewRomanPSMT-35" d="M 2778 4238 
L 2534 3706 
L 1259 3706 
L 981 3138 
Q 1809 3016 2294 2522 
Q 2709 2097 2709 1522 
Q 2709 1188 2573 903 
Q 2438 619 2231 419 
Q 2025 219 1772 97 
Q 1413 -75 1034 -75 
Q 653 -75 479 54 
Q 306 184 306 341 
Q 306 428 378 495 
Q 450 563 559 563 
Q 641 563 702 538 
Q 763 513 909 409 
Q 1144 247 1384 247 
Q 1750 247 2026 523 
Q 2303 800 2303 1197 
Q 2303 1581 2056 1914 
Q 1809 2247 1375 2428 
Q 1034 2569 447 2591 
L 1259 4238 
L 2778 4238 
z
" transform="scale(0.015625)"/>
       </defs>
       <use xlink:href="#TimesNewRomanPSMT-30"/>
       <use xlink:href="#TimesNewRomanPSMT-2e" x="50"/>
       <use xlink:href="#TimesNewRomanPSMT-35" x="75"/>
      </g>
     </g>
    </g>
    <g id="text_14">
     <!-- Gini -->
     <g transform="translate(18.750937 166.109062)rotate(-90)scale(0.1 -0.1)">
      <defs>
       <path id="TimesNewRomanPSMT-47" d="M 3928 4334 
L 4038 2997 
L 3928 2997 
Q 3763 3497 3500 3750 
Q 3122 4116 2528 4116 
Q 1719 4116 1297 3475 
Q 944 2934 944 2188 
Q 944 1581 1178 1081 
Q 1413 581 1792 348 
Q 2172 116 2572 116 
Q 2806 116 3025 175 
Q 3244 234 3447 350 
L 3447 1575 
Q 3447 1894 3398 1992 
Q 3350 2091 3248 2142 
Q 3147 2194 2891 2194 
L 2891 2313 
L 4531 2313 
L 4531 2194 
L 4453 2194 
Q 4209 2194 4119 2031 
Q 4056 1916 4056 1575 
L 4056 278 
Q 3697 84 3347 -6 
Q 2997 -97 2569 -97 
Q 1341 -97 703 691 
Q 225 1281 225 2053 
Q 225 2613 494 3125 
Q 813 3734 1369 4063 
Q 1834 4334 2469 4334 
Q 2700 4334 2889 4296 
Q 3078 4259 3425 4131 
Q 3600 4066 3659 4066 
Q 3719 4066 3761 4120 
Q 3803 4175 3813 4334 
L 3928 4334 
z
" transform="scale(0.015625)"/>
       <path id="TimesNewRomanPSMT-69" d="M 928 4444 
Q 1059 4444 1151 4351 
Q 1244 4259 1244 4128 
Q 1244 3997 1151 3903 
Q 1059 3809 928 3809 
Q 797 3809 703 3903 
Q 609 3997 609 4128 
Q 609 4259 701 4351 
Q 794 4444 928 4444 
z
M 1188 2947 
L 1188 647 
Q 1188 378 1227 289 
Q 1266 200 1342 156 
Q 1419 113 1622 113 
L 1622 0 
L 231 0 
L 231 113 
Q 441 113 512 153 
Q 584 194 626 287 
Q 669 381 669 647 
L 669 1750 
Q 669 2216 641 2353 
Q 619 2453 572 2492 
Q 525 2531 444 2531 
Q 356 2531 231 2484 
L 188 2597 
L 1050 2947 
L 1188 2947 
z
" transform="scale(0.015625)"/>
       <path id="TimesNewRomanPSMT-6e" d="M 1034 2341 
Q 1538 2947 1994 2947 
Q 2228 2947 2397 2830 
Q 2566 2713 2666 2444 
Q 2734 2256 2734 1869 
L 2734 647 
Q 2734 375 2778 278 
Q 2813 200 2889 156 
Q 2966 113 3172 113 
L 3172 0 
L 1756 0 
L 1756 113 
L 1816 113 
Q 2016 113 2095 173 
Q 2175 234 2206 353 
Q 2219 400 2219 647 
L 2219 1819 
Q 2219 2209 2117 2386 
Q 2016 2563 1775 2563 
Q 1403 2563 1034 2156 
L 1034 647 
Q 1034 356 1069 288 
Q 1113 197 1189 155 
Q 1266 113 1500 113 
L 1500 0 
L 84 0 
L 84 113 
L 147 113 
Q 366 113 442 223 
Q 519 334 519 647 
L 519 1709 
Q 519 2225 495 2337 
Q 472 2450 423 2490 
Q 375 2531 294 2531 
Q 206 2531 84 2484 
L 38 2597 
L 900 2947 
L 1034 2947 
L 1034 2341 
z
" transform="scale(0.015625)"/>
      </defs>
      <use xlink:href="#TimesNewRomanPSMT-47"/>
      <use xlink:href="#TimesNewRomanPSMT-69" x="72.216797"/>
      <use xlink:href="#TimesNewRomanPSMT-6e" x="100"/>
      <use xlink:href="#TimesNewRomanPSMT-69" x="150"/>
     </g>
    </g>
   </g>
   <g id="line2d_13">
    <path d="M 62.826818 290.329091 
L 64.035386 287.248814 
L 65.243953 284.766649 
L 66.45252 282.822417 
L 67.661088 281.35594 
L 68.869655 280.30704 
L 70.078222 279.615539 
L 71.28679 279.221257 
L 72.495357 279.064018 
L 73.703924 279.083643 
L 80.955328 279.821901 
L 91.832434 279.822141 
L 112.378079 280.076615 
L 145.009398 280.470962 
L 160.720773 280.879766 
L 164.346475 280.944946 
L 166.76361 280.794458 
L 170.389312 280.497556 
L 171.597879 280.561934 
L 172.806447 280.788801 
L 174.015014 281.222627 
L 176.432149 282.344191 
L 177.640716 282.668491 
L 178.849283 282.588975 
L 180.057851 281.921023 
L 181.266418 280.483931 
L 182.474985 278.283448 
L 184.89212 272.691324 
L 186.100687 269.879225 
L 187.309255 267.442795 
L 188.517822 265.670346 
L 189.726389 264.697754 
L 190.934957 264.377002 
L 192.143524 264.529085 
L 194.560659 265.535746 
L 195.769226 266.032479 
L 196.977794 266.343494 
L 198.186361 266.488519 
L 200.603496 266.44552 
L 205.437765 266.109933 
L 216.314871 265.982315 
L 221.14914 266.197016 
L 223.566275 266.249535 
L 225.98341 266.082207 
L 229.609112 265.70146 
L 230.817679 265.739095 
L 232.026247 265.94573 
L 234.443381 266.894783 
L 235.651949 267.358518 
L 236.860516 267.567348 
L 238.069083 267.335076 
L 239.277651 266.475504 
L 240.486218 264.813366 
L 241.694785 262.373446 
L 242.903353 259.355632 
L 248.946189 242.710259 
L 250.154757 240.198842 
L 251.363324 238.110973 
L 252.571891 236.473128 
L 253.780459 235.311782 
L 254.989026 234.652362 
L 256.197593 234.463153 
L 257.406161 234.627021 
L 259.823296 235.517495 
L 261.031863 235.995854 
L 262.24043 236.331247 
L 263.448998 236.457428 
L 265.866132 236.282811 
L 268.283267 235.939412 
L 269.491834 235.854571 
L 271.908969 236.013674 
L 275.534671 236.690808 
L 279.160373 237.262732 
L 286.411777 238.111067 
L 290.037479 238.83578 
L 296.080316 240.283053 
L 297.288883 240.302796 
L 298.497451 240.115076 
L 299.706018 239.679317 
L 302.123153 238.325692 
L 304.540287 237.018939 
L 305.748855 236.642249 
L 306.957422 236.579117 
L 308.165989 236.804197 
L 313.000259 238.36836 
L 314.208826 238.371552 
L 315.417393 238.10845 
L 317.834528 237.161608 
L 320.251663 236.302327 
L 321.46023 236.146448 
L 322.668798 236.226099 
L 325.085932 236.816883 
L 327.503067 237.49802 
L 328.711634 237.691352 
L 331.128769 237.683091 
L 334.754471 237.467753 
L 335.963038 237.559461 
L 338.380173 238.127675 
L 342.005875 239.261466 
L 343.214442 239.522389 
L 345.631577 239.728161 
L 349.257279 239.86448 
L 350.465846 240.042641 
L 352.882981 240.708655 
L 355.300116 241.369801 
L 356.508683 241.523935 
L 357.717251 241.467317 
L 358.925818 241.153051 
L 361.342953 240.070953 
L 362.55152 239.518969 
L 363.760087 239.103607 
L 364.968655 238.932798 
L 366.177222 239.094595 
L 367.385789 239.5376 
L 372.220059 241.897462 
L 373.428626 242.089758 
L 374.637193 242.037341 
L 377.054328 241.540564 
L 379.471463 241.095352 
L 380.68003 241.101688 
L 381.888597 241.286549 
L 387.931434 242.708694 
L 390.348569 242.632021 
L 393.974271 242.377868 
L 395.182838 242.461883 
L 397.599973 242.940758 
L 400.017108 243.448896 
L 401.225675 243.565655 
L 402.434242 243.512401 
L 403.64281 243.275711 
L 408.477079 241.807402 
L 409.685646 241.655882 
L 410.894214 241.697777 
L 412.102781 241.902776 
L 414.519916 242.644317 
L 418.145618 243.993842 
L 420.562753 244.591504 
L 421.77132 244.681401 
L 422.979887 244.579417 
L 424.188455 244.246111 
L 424.188455 244.246111 
" clip-path="url(#p7ad6b9235f)" style="fill: none; stroke: #dbb428; stroke-width: 1.5; stroke-linecap: square"/>
   </g>
   <g id="line2d_14">
    <path d="M 62.826818 290.329091 
L 64.035386 287.249485 
L 65.243953 284.767628 
L 66.45252 282.823389 
L 67.661088 281.356638 
L 68.869655 280.307244 
L 70.078222 279.615076 
L 71.28679 279.220004 
L 72.495357 279.061897 
L 73.703924 279.080625 
L 80.955328 279.814902 
L 91.832434 279.80146 
L 111.169512 280.063812 
L 147.426532 280.532994 
L 165.555043 280.902868 
L 170.389312 280.511766 
L 171.597879 280.573634 
L 172.806447 280.794972 
L 174.015014 281.219668 
L 176.432149 282.317763 
L 177.640716 282.633143 
L 178.849283 282.550252 
L 180.057851 281.887221 
L 181.266418 280.466055 
L 182.474985 278.293102 
L 184.89212 272.781095 
L 186.100687 270.016362 
L 187.309255 267.628692 
L 188.517822 265.903782 
L 189.726389 264.974582 
L 190.934957 264.689554 
L 192.143524 264.866112 
L 196.977794 266.597389 
L 198.186361 266.673769 
L 200.603496 266.480285 
L 204.229198 266.054788 
L 206.646332 266.001248 
L 211.480602 266.20105 
L 216.314871 266.372108 
L 219.940573 266.288585 
L 224.774843 266.152848 
L 229.609112 266.298543 
L 230.817679 266.212691 
L 232.026247 266.008572 
L 236.860516 264.709861 
L 238.069083 264.881045 
L 239.277651 265.524259 
L 241.694785 268.028081 
L 242.903353 268.334589 
L 244.11192 266.599274 
L 245.320487 261.758947 
L 246.529055 252.750416 
L 247.737622 238.556517 
L 248.946189 219.523061 
L 252.571891 152.755419 
L 253.780459 133.903966 
L 254.989026 120.04589 
L 256.197593 111.933353 
L 257.406161 108.504394 
L 258.614728 108.54858 
L 259.823296 110.855474 
L 262.24043 117.419071 
L 263.448998 119.697961 
L 264.657565 121.139649 
L 265.866132 121.932876 
L 267.0747 122.266382 
L 269.491834 122.309028 
L 271.908969 122.223827 
L 273.117536 121.895602 
L 274.326104 121.178049 
L 275.534671 119.921982 
L 276.743238 117.978222 
L 277.951806 115.286767 
L 282.786075 102.855512 
L 283.994642 100.958752 
L 285.20321 100.097804 
L 286.411777 100.019787 
L 288.828912 100.62606 
L 290.037479 100.51707 
L 291.246047 99.604473 
L 292.454614 97.583246 
L 296.080316 88.817975 
L 297.288883 86.800689 
L 298.497451 86.13848 
L 299.706018 87.295106 
L 300.914585 90.02011 
L 304.540287 101.251296 
L 305.748855 103.888374 
L 306.957422 104.95601 
L 308.165989 104.477228 
L 309.374557 102.908736 
L 313.000259 96.323215 
L 314.208826 95.034077 
L 315.417393 94.543782 
L 316.625961 94.52785 
L 317.834528 94.647944 
L 319.043095 94.565725 
L 320.251663 93.942855 
L 321.46023 92.450613 
L 322.668798 90.078031 
L 326.2945 81.489139 
L 327.503067 79.45169 
L 328.711634 78.48062 
L 329.920202 78.693614 
L 331.128769 79.777818 
L 334.754471 84.749603 
L 335.963038 85.811276 
L 337.171606 86.105282 
L 338.380173 85.632259 
L 339.58874 84.422468 
L 340.797308 82.506169 
L 342.005875 79.913623 
L 343.214442 76.675192 
L 348.048712 61.731775 
L 349.257279 59.26774 
L 350.465846 58.035044 
L 351.674414 58.247268 
L 352.882981 59.562173 
L 356.508683 65.393574 
L 357.717251 66.389805 
L 358.925818 66.231904 
L 360.134385 65.106623 
L 361.342953 63.376673 
L 363.760087 59.553901 
L 364.968655 58.186648 
L 366.177222 57.605093 
L 367.385789 57.68492 
L 369.802924 58.600766 
L 371.011491 58.821766 
L 372.220059 58.474806 
L 373.428626 57.296026 
L 374.637193 55.450372 
L 377.054328 51.394571 
L 378.262895 50.006677 
L 379.471463 49.593622 
L 380.68003 50.528849 
L 381.888597 52.6484 
L 384.305732 58.172807 
L 385.514299 60.429473 
L 386.722867 61.583654 
L 387.931434 61.086307 
L 389.140002 58.937906 
L 390.348569 55.674001 
L 392.765704 48.030555 
L 393.974271 44.766449 
L 395.182838 42.608056 
L 396.391406 41.745629 
L 397.599973 41.914481 
L 398.80854 42.820493 
L 402.434242 47.021731 
L 403.64281 48.04401 
L 404.851377 48.720529 
L 406.059944 49.053983 
L 407.268512 49.047063 
L 408.477079 48.702464 
L 409.685646 48.022922 
L 410.894214 47.020018 
L 412.102781 45.724841 
L 413.311348 44.171086 
L 415.728483 40.422622 
L 418.145618 36.044182 
L 424.188455 24.110909 
L 424.188455 24.110909 
" clip-path="url(#p7ad6b9235f)" style="fill: none; stroke-dasharray: 5.55,2.4; stroke-dashoffset: 0; stroke: #eae936; stroke-width: 1.5"/>
   </g>
   <g id="patch_3">
    <path d="M 44.39 303.64 
L 44.39 10.8 
" style="fill: none; stroke: #000000; stroke-width: 0.8; stroke-linejoin: miter; stroke-linecap: square"/>
   </g>
   <g id="patch_4">
    <path d="M 450 303.64 
L 450 10.8 
" style="fill: none; stroke: #000000; stroke-width: 0.8; stroke-linejoin: miter; stroke-linecap: square"/>
   </g>
   <g id="patch_5">
    <path d="M 44.39 303.64 
L 450 303.64 
" style="fill: none; stroke: #000000; stroke-width: 0.8; stroke-linejoin: miter; stroke-linecap: square"/>
   </g>
   <g id="patch_6">
    <path d="M 44.39 10.8 
L 450 10.8 
" style="fill: none; stroke: #000000; stroke-width: 0.8; stroke-linejoin: miter; stroke-linecap: square"/>
   </g>
   <g id="PathCollection_1">
    <path d="M 431.563182 291.998 
C 432.358791 291.998 433.121921 291.681901 433.684502 291.11932 
C 434.247083 290.55674 434.563182 289.793609 434.563182 288.998 
C 434.563182 288.202391 434.247083 287.43926 433.684502 286.87668 
C 433.121921 286.314099 432.358791 285.998 431.563182 285.998 
C 430.767573 285.998 430.004442 286.314099 429.441861 286.87668 
C 428.879281 287.43926 428.563182 288.202391 428.563182 288.998 
C 428.563182 289.793609 428.879281 290.55674 429.441861 291.11932 
C 430.004442 291.681901 430.767573 291.998 431.563182 291.998 
L 431.563182 291.998 
z
" clip-path="url(#p7ad6b9235f)" style="fill: none; stroke: #8a95a9; stroke-width: 1.5"/>
   </g>
   <g id="PathCollection_2">
    <defs>
     <path id="mc7c6bbdb9e" d="M -3 3 
L 3 -3 
M -3 -3 
L 3 3 
" style="stroke: #8a95a9; stroke-width: 1.5"/>
    </defs>
    <g clip-path="url(#p7ad6b9235f)">
     <use xlink:href="#mc7c6bbdb9e" x="431.563182" y="288.998" style="fill: #8a95a9; stroke: #8a95a9; stroke-width: 1.5"/>
    </g>
   </g>
   <g id="legend_1">
    <g id="patch_7">
     <path d="M 51.39 76.678125 
L 176.69 76.678125 
Q 178.69 76.678125 178.69 74.678125 
L 178.69 17.8 
Q 178.69 15.8 176.69 15.8 
L 51.39 15.8 
Q 49.39 15.8 49.39 17.8 
L 49.39 74.678125 
Q 49.39 76.678125 51.39 76.678125 
z
" style="fill: #ffffff; opacity: 0.8; stroke: #cccccc; stroke-linejoin: miter"/>
    </g>
    <g id="line2d_15">
     <path d="M 53.39 23.3 
L 63.39 23.3 
L 73.39 23.3 
" style="fill: none; stroke: #dbb428; stroke-width: 1.5; stroke-linecap: square"/>
    </g>
    <g id="text_15">
     <!-- with Loner -->
     <g transform="translate(81.39 26.8)scale(0.1 -0.1)">
      <defs>
       <path id="TimesNewRomanPSMT-77" d="M 41 2863 
L 1241 2863 
L 1241 2747 
Q 1075 2734 1023 2687 
Q 972 2641 972 2553 
Q 972 2456 1025 2319 
L 1638 672 
L 2253 2013 
L 2091 2434 
Q 2016 2622 1894 2694 
Q 1825 2738 1638 2747 
L 1638 2863 
L 3000 2863 
L 3000 2747 
Q 2775 2738 2681 2666 
Q 2619 2616 2619 2506 
Q 2619 2444 2644 2378 
L 3294 734 
L 3897 2319 
Q 3959 2488 3959 2588 
Q 3959 2647 3898 2694 
Q 3838 2741 3659 2747 
L 3659 2863 
L 4563 2863 
L 4563 2747 
Q 4291 2706 4163 2378 
L 3206 -88 
L 3078 -88 
L 2363 1741 
L 1528 -88 
L 1413 -88 
L 494 2319 
Q 403 2547 315 2626 
Q 228 2706 41 2747 
L 41 2863 
z
" transform="scale(0.015625)"/>
       <path id="TimesNewRomanPSMT-74" d="M 1031 3803 
L 1031 2863 
L 1700 2863 
L 1700 2644 
L 1031 2644 
L 1031 788 
Q 1031 509 1111 412 
Q 1191 316 1316 316 
Q 1419 316 1516 380 
Q 1613 444 1666 569 
L 1788 569 
Q 1678 263 1478 108 
Q 1278 -47 1066 -47 
Q 922 -47 784 33 
Q 647 113 581 261 
Q 516 409 516 719 
L 516 2644 
L 63 2644 
L 63 2747 
Q 234 2816 414 2980 
Q 594 3144 734 3369 
Q 806 3488 934 3803 
L 1031 3803 
z
" transform="scale(0.015625)"/>
       <path id="TimesNewRomanPSMT-68" d="M 1041 4444 
L 1041 2350 
Q 1388 2731 1591 2839 
Q 1794 2947 1997 2947 
Q 2241 2947 2416 2812 
Q 2591 2678 2675 2391 
Q 2734 2191 2734 1659 
L 2734 647 
Q 2734 375 2778 275 
Q 2809 200 2884 156 
Q 2959 113 3159 113 
L 3159 0 
L 1753 0 
L 1753 113 
L 1819 113 
Q 2019 113 2097 173 
Q 2175 234 2206 353 
Q 2216 403 2216 647 
L 2216 1659 
Q 2216 2128 2167 2275 
Q 2119 2422 2012 2495 
Q 1906 2569 1756 2569 
Q 1603 2569 1437 2487 
Q 1272 2406 1041 2159 
L 1041 647 
Q 1041 353 1073 281 
Q 1106 209 1195 161 
Q 1284 113 1503 113 
L 1503 0 
L 84 0 
L 84 113 
Q 275 113 384 172 
Q 447 203 484 290 
Q 522 378 522 647 
L 522 3238 
Q 522 3728 498 3840 
Q 475 3953 426 3993 
Q 378 4034 297 4034 
Q 231 4034 84 3984 
L 41 4094 
L 897 4444 
L 1041 4444 
z
" transform="scale(0.015625)"/>
       <path id="TimesNewRomanPSMT-20" transform="scale(0.015625)"/>
       <path id="TimesNewRomanPSMT-4c" d="M 3669 1172 
L 3772 1150 
L 3409 0 
L 128 0 
L 128 116 
L 288 116 
Q 556 116 672 291 
Q 738 391 738 753 
L 738 3488 
Q 738 3884 650 3984 
Q 528 4122 288 4122 
L 128 4122 
L 128 4238 
L 2047 4238 
L 2047 4122 
Q 1709 4125 1573 4059 
Q 1438 3994 1388 3894 
Q 1338 3794 1338 3416 
L 1338 753 
Q 1338 494 1388 397 
Q 1425 331 1503 300 
Q 1581 269 1991 269 
L 2300 269 
Q 2788 269 2984 341 
Q 3181 413 3343 595 
Q 3506 778 3669 1172 
z
" transform="scale(0.015625)"/>
       <path id="TimesNewRomanPSMT-6f" d="M 1600 2947 
Q 2250 2947 2644 2453 
Q 2978 2031 2978 1484 
Q 2978 1100 2793 706 
Q 2609 313 2286 112 
Q 1963 -88 1566 -88 
Q 919 -88 538 428 
Q 216 863 216 1403 
Q 216 1797 411 2186 
Q 606 2575 925 2761 
Q 1244 2947 1600 2947 
z
M 1503 2744 
Q 1338 2744 1170 2645 
Q 1003 2547 900 2300 
Q 797 2053 797 1666 
Q 797 1041 1045 587 
Q 1294 134 1700 134 
Q 2003 134 2200 384 
Q 2397 634 2397 1244 
Q 2397 2006 2069 2444 
Q 1847 2744 1503 2744 
z
" transform="scale(0.015625)"/>
       <path id="TimesNewRomanPSMT-65" d="M 681 1784 
Q 678 1147 991 784 
Q 1303 422 1725 422 
Q 2006 422 2214 576 
Q 2422 731 2563 1106 
L 2659 1044 
Q 2594 616 2278 264 
Q 1963 -88 1488 -88 
Q 972 -88 605 314 
Q 238 716 238 1394 
Q 238 2128 614 2539 
Q 991 2950 1559 2950 
Q 2041 2950 2350 2633 
Q 2659 2316 2659 1784 
L 681 1784 
z
M 681 1966 
L 2006 1966 
Q 1991 2241 1941 2353 
Q 1863 2528 1708 2628 
Q 1553 2728 1384 2728 
Q 1125 2728 920 2526 
Q 716 2325 681 1966 
z
" transform="scale(0.015625)"/>
       <path id="TimesNewRomanPSMT-72" d="M 1038 2947 
L 1038 2303 
Q 1397 2947 1775 2947 
Q 1947 2947 2059 2842 
Q 2172 2738 2172 2600 
Q 2172 2478 2090 2393 
Q 2009 2309 1897 2309 
Q 1788 2309 1652 2417 
Q 1516 2525 1450 2525 
Q 1394 2525 1328 2463 
Q 1188 2334 1038 2041 
L 1038 669 
Q 1038 431 1097 309 
Q 1138 225 1241 169 
Q 1344 113 1538 113 
L 1538 0 
L 72 0 
L 72 113 
Q 291 113 397 181 
Q 475 231 506 341 
Q 522 394 522 644 
L 522 1753 
Q 522 2253 501 2348 
Q 481 2444 426 2487 
Q 372 2531 291 2531 
Q 194 2531 72 2484 
L 41 2597 
L 906 2947 
L 1038 2947 
z
" transform="scale(0.015625)"/>
      </defs>
      <use xlink:href="#TimesNewRomanPSMT-77"/>
      <use xlink:href="#TimesNewRomanPSMT-69" x="72.216797"/>
      <use xlink:href="#TimesNewRomanPSMT-74" x="100"/>
      <use xlink:href="#TimesNewRomanPSMT-68" x="127.783203"/>
      <use xlink:href="#TimesNewRomanPSMT-20" x="177.783203"/>
      <use xlink:href="#TimesNewRomanPSMT-4c" x="202.783203"/>
      <use xlink:href="#TimesNewRomanPSMT-6f" x="263.867188"/>
      <use xlink:href="#TimesNewRomanPSMT-6e" x="313.867188"/>
      <use xlink:href="#TimesNewRomanPSMT-65" x="363.867188"/>
      <use xlink:href="#TimesNewRomanPSMT-72" x="408.251953"/>
     </g>
    </g>
    <g id="line2d_16">
     <path d="M 53.39 37.439063 
L 63.39 37.439063 
L 73.39 37.439063 
" style="fill: none; stroke-dasharray: 5.55,2.4; stroke-dashoffset: 0; stroke: #eae936; stroke-width: 1.5"/>
    </g>
    <g id="text_16">
     <!-- without Loner -->
     <g transform="translate(81.39 40.939063)scale(0.1 -0.1)">
      <defs>
       <path id="TimesNewRomanPSMT-75" d="M 2709 2863 
L 2709 1128 
Q 2709 631 2732 520 
Q 2756 409 2807 365 
Q 2859 322 2928 322 
Q 3025 322 3147 375 
L 3191 266 
L 2334 -88 
L 2194 -88 
L 2194 519 
Q 1825 119 1631 15 
Q 1438 -88 1222 -88 
Q 981 -88 804 51 
Q 628 191 559 409 
Q 491 628 491 1028 
L 491 2306 
Q 491 2509 447 2587 
Q 403 2666 317 2708 
Q 231 2750 6 2747 
L 6 2863 
L 1009 2863 
L 1009 947 
Q 1009 547 1148 422 
Q 1288 297 1484 297 
Q 1619 297 1789 381 
Q 1959 466 2194 703 
L 2194 2325 
Q 2194 2569 2105 2655 
Q 2016 2741 1734 2747 
L 1734 2863 
L 2709 2863 
z
" transform="scale(0.015625)"/>
      </defs>
      <use xlink:href="#TimesNewRomanPSMT-77"/>
      <use xlink:href="#TimesNewRomanPSMT-69" x="72.216797"/>
      <use xlink:href="#TimesNewRomanPSMT-74" x="100"/>
      <use xlink:href="#TimesNewRomanPSMT-68" x="127.783203"/>
      <use xlink:href="#TimesNewRomanPSMT-6f" x="177.783203"/>
      <use xlink:href="#TimesNewRomanPSMT-75" x="227.783203"/>
      <use xlink:href="#TimesNewRomanPSMT-74" x="277.783203"/>
      <use xlink:href="#TimesNewRomanPSMT-20" x="305.566406"/>
      <use xlink:href="#TimesNewRomanPSMT-4c" x="330.566406"/>
      <use xlink:href="#TimesNewRomanPSMT-6f" x="391.650391"/>
      <use xlink:href="#TimesNewRomanPSMT-6e" x="441.650391"/>
      <use xlink:href="#TimesNewRomanPSMT-65" x="491.650391"/>
      <use xlink:href="#TimesNewRomanPSMT-72" x="536.035156"/>
     </g>
    </g>
    <g id="PathCollection_3">
     <path d="M 63.39 55.453125 
C 64.185609 55.453125 64.94874 55.137026 65.51132 54.574445 
C 66.073901 54.011865 66.39 53.248734 66.39 52.453125 
C 66.39 51.657516 66.073901 50.894385 65.51132 50.331805 
C 64.94874 49.769224 64.185609 49.453125 63.39 49.453125 
C 62.594391 49.453125 61.83126 49.769224 61.26868 50.331805 
C 60.706099 50.894385 60.39 51.657516 60.39 52.453125 
C 60.39 53.248734 60.706099 54.011865 61.26868 54.574445 
C 61.83126 55.137026 62.594391 55.453125 63.39 55.453125 
L 63.39 55.453125 
z
" style="fill: none; stroke: #8a95a9; stroke-width: 1.5"/>
    </g>
    <g id="text_17">
     <!-- $I_{collapse}$ (with Loner) -->
     <g transform="translate(81.39 55.078125)scale(0.1 -0.1)">
      <defs>
       <path id="STIXGeneral-Italic-49" d="M 2458 4179 
L 2458 4077 
Q 2189 4045 2102 3961 
Q 2016 3878 1933 3584 
L 1165 838 
Q 1069 499 1069 352 
Q 1069 224 1149 179 
Q 1229 134 1510 102 
L 1510 0 
L -51 0 
L -51 102 
Q 218 154 317 237 
Q 416 320 486 582 
L 1254 3405 
Q 1338 3699 1338 3802 
Q 1338 3930 1235 3997 
Q 1133 4064 877 4077 
L 877 4179 
L 2458 4179 
z
" transform="scale(0.015625)"/>
       <path id="STIXGeneral-Italic-63" d="M 2240 685 
L 2342 621 
Q 2048 250 1769 90 
Q 1491 -70 1133 -70 
Q 678 -70 435 179 
Q 192 429 192 915 
Q 192 1344 409 1744 
Q 627 2144 979 2432 
Q 1472 2822 2048 2822 
Q 2342 2822 2531 2675 
Q 2720 2528 2720 2304 
Q 2720 2176 2630 2086 
Q 2541 1997 2413 1997 
Q 2285 1997 2224 2070 
Q 2163 2144 2163 2253 
Q 2163 2310 2211 2403 
Q 2259 2496 2259 2560 
Q 2259 2688 2022 2688 
Q 1619 2688 1325 2381 
Q 742 1766 742 890 
Q 742 544 889 352 
Q 1037 160 1312 160 
Q 1562 160 1766 281 
Q 1971 403 2240 685 
z
" transform="scale(0.015625)"/>
       <path id="STIXGeneral-Italic-6f" d="M 2995 1926 
Q 2995 1562 2812 1168 
Q 2630 774 2317 461 
Q 1786 -70 1114 -70 
Q 666 -70 419 163 
Q 173 397 173 819 
Q 173 1350 496 1856 
Q 819 2362 1325 2630 
Q 1683 2822 2093 2822 
Q 2490 2822 2742 2582 
Q 2995 2342 2995 1926 
z
M 2458 2086 
Q 2458 2374 2336 2531 
Q 2214 2688 2003 2688 
Q 1574 2688 1184 2106 
Q 710 1382 710 646 
Q 710 365 844 214 
Q 979 64 1210 64 
Q 1600 64 1984 595 
Q 2202 890 2330 1302 
Q 2458 1715 2458 2086 
z
" transform="scale(0.015625)"/>
       <path id="STIXGeneral-Italic-6c" d="M 1786 4339 
L 806 595 
Q 755 410 755 320 
Q 755 205 864 205 
Q 1037 205 1293 570 
L 1453 794 
L 1542 730 
Q 1254 275 1046 102 
Q 838 -70 576 -70 
Q 262 -70 262 288 
Q 262 397 288 480 
L 1165 3834 
Q 1184 3898 1184 3955 
Q 1184 4096 870 4096 
L 755 4096 
L 755 4198 
Q 1203 4250 1747 4371 
L 1786 4339 
z
" transform="scale(0.015625)"/>
       <path id="STIXGeneral-Italic-61" d="M 2963 710 
L 3046 640 
Q 2688 205 2518 70 
Q 2349 -64 2157 -64 
Q 1901 -64 1901 198 
Q 1901 358 2048 934 
Q 1690 397 1389 163 
Q 1088 -70 749 -70 
Q 467 -70 288 125 
Q 109 320 109 672 
Q 109 1158 387 1664 
Q 666 2170 1094 2496 
Q 1523 2822 1939 2822 
Q 2368 2822 2451 2451 
L 2522 2758 
L 2541 2778 
L 2931 2822 
L 2976 2803 
Q 2970 2778 2938 2669 
Q 2368 595 2368 346 
Q 2368 262 2458 262 
Q 2554 262 2790 525 
L 2963 710 
z
M 2336 2310 
Q 2336 2477 2240 2579 
Q 2144 2682 1978 2682 
Q 1542 2682 1139 2093 
Q 928 1779 787 1395 
Q 646 1011 646 717 
Q 646 243 1030 243 
Q 1408 243 1843 870 
Q 2336 1581 2336 2310 
z
" transform="scale(0.015625)"/>
       <path id="STIXGeneral-Italic-70" d="M 1376 2739 
L 1190 2099 
Q 1670 2822 2285 2822 
Q 2637 2822 2829 2611 
Q 3021 2400 3021 2022 
Q 3021 1235 2422 582 
Q 1824 -70 1120 -70 
Q 890 -70 678 38 
Q 422 -1018 422 -1024 
Q 422 -1126 508 -1168 
Q 595 -1210 819 -1210 
L 819 -1312 
L -480 -1312 
L -480 -1210 
Q -275 -1203 -188 -1120 
Q -102 -1037 -45 -806 
L 691 1958 
Q 794 2330 794 2413 
Q 794 2586 512 2586 
L 371 2586 
L 358 2682 
L 1357 2822 
Q 1389 2822 1389 2797 
Q 1382 2765 1376 2739 
z
M 2445 2003 
Q 2445 2285 2352 2416 
Q 2259 2547 2048 2547 
Q 1798 2547 1548 2329 
Q 1299 2112 1184 1818 
Q 1043 1453 905 953 
Q 768 454 768 294 
Q 768 186 854 118 
Q 941 51 1075 51 
Q 1574 51 2003 659 
Q 2445 1274 2445 2003 
z
" transform="scale(0.015625)"/>
       <path id="STIXGeneral-Italic-73" d="M 2342 2829 
L 2214 1933 
L 2112 1933 
Q 2022 2675 1542 2675 
Q 1370 2675 1267 2579 
Q 1165 2483 1165 2310 
Q 1165 2067 1510 1658 
Q 1946 1152 1946 787 
Q 1946 397 1686 163 
Q 1427 -70 1024 -70 
Q 838 -70 672 -6 
Q 538 51 390 51 
Q 262 51 205 -83 
L 102 -83 
L 230 934 
L 333 934 
Q 461 64 973 64 
Q 1203 64 1331 192 
Q 1459 320 1459 557 
Q 1459 845 1101 1293 
Q 698 1798 698 2131 
Q 698 2451 909 2636 
Q 1120 2822 1472 2822 
Q 1600 2822 1830 2758 
Q 1971 2714 2061 2714 
Q 2189 2714 2253 2829 
L 2342 2829 
z
" transform="scale(0.015625)"/>
       <path id="STIXGeneral-Italic-65" d="M 2291 698 
L 2368 621 
Q 1805 -70 1062 -70 
Q 672 -70 435 170 
Q 198 410 198 806 
Q 198 1555 796 2188 
Q 1395 2822 2112 2822 
Q 2362 2822 2499 2707 
Q 2637 2592 2637 2387 
Q 2637 1965 2147 1632 
Q 1658 1299 819 1190 
Q 755 1062 755 800 
Q 755 538 918 378 
Q 1082 218 1350 218 
Q 1562 218 1754 317 
Q 1946 416 2291 698 
z
M 973 1613 
L 864 1331 
Q 1581 1504 1894 1805 
Q 2214 2112 2214 2426 
Q 2214 2675 1990 2675 
Q 1722 2675 1430 2364 
Q 1139 2054 973 1613 
z
" transform="scale(0.015625)"/>
       <path id="TimesNewRomanPSMT-28" d="M 1988 -1253 
L 1988 -1369 
Q 1516 -1131 1200 -813 
Q 750 -359 506 256 
Q 263 872 263 1534 
Q 263 2503 741 3301 
Q 1219 4100 1988 4444 
L 1988 4313 
Q 1603 4100 1356 3731 
Q 1109 3363 987 2797 
Q 866 2231 866 1616 
Q 866 947 969 400 
Q 1050 -31 1165 -292 
Q 1281 -553 1476 -793 
Q 1672 -1034 1988 -1253 
z
" transform="scale(0.015625)"/>
       <path id="TimesNewRomanPSMT-29" d="M 144 4313 
L 144 4444 
Q 619 4209 934 3891 
Q 1381 3434 1625 2820 
Q 1869 2206 1869 1541 
Q 1869 572 1392 -226 
Q 916 -1025 144 -1369 
L 144 -1253 
Q 528 -1038 776 -670 
Q 1025 -303 1145 264 
Q 1266 831 1266 1447 
Q 1266 2113 1163 2663 
Q 1084 3094 967 3353 
Q 850 3613 656 3853 
Q 463 4094 144 4313 
z
" transform="scale(0.015625)"/>
      </defs>
      <use xlink:href="#STIXGeneral-Italic-49" transform="translate(0 0.5625)"/>
      <use xlink:href="#STIXGeneral-Italic-63" transform="translate(33.299988 -12.665625)scale(0.7)"/>
      <use xlink:href="#STIXGeneral-Italic-6f" transform="translate(64.379984 -12.665625)scale(0.7)"/>
      <use xlink:href="#STIXGeneral-Italic-6c" transform="translate(99.379973 -12.665625)scale(0.7)"/>
      <use xlink:href="#STIXGeneral-Italic-6c" transform="translate(118.839964 -12.665625)scale(0.7)"/>
      <use xlink:href="#STIXGeneral-Italic-61" transform="translate(138.299956 -12.665625)scale(0.7)"/>
      <use xlink:href="#STIXGeneral-Italic-70" transform="translate(173.369949 -12.665625)scale(0.7)"/>
      <use xlink:href="#STIXGeneral-Italic-73" transform="translate(208.649945 -12.665625)scale(0.7)"/>
      <use xlink:href="#STIXGeneral-Italic-65" transform="translate(235.879941 -12.665625)scale(0.7)"/>
      <use xlink:href="#TimesNewRomanPSMT-20" transform="translate(271.369312 0.5625)"/>
      <use xlink:href="#TimesNewRomanPSMT-28" transform="translate(296.369312 0.5625)"/>
      <use xlink:href="#TimesNewRomanPSMT-77" transform="translate(329.670093 0.5625)"/>
      <use xlink:href="#TimesNewRomanPSMT-69" transform="translate(401.88689 0.5625)"/>
      <use xlink:href="#TimesNewRomanPSMT-74" transform="translate(429.670093 0.5625)"/>
      <use xlink:href="#TimesNewRomanPSMT-68" transform="translate(457.453296 0.5625)"/>
      <use xlink:href="#TimesNewRomanPSMT-20" transform="translate(507.453296 0.5625)"/>
      <use xlink:href="#TimesNewRomanPSMT-4c" transform="translate(532.453296 0.5625)"/>
      <use xlink:href="#TimesNewRomanPSMT-6f" transform="translate(593.53728 0.5625)"/>
      <use xlink:href="#TimesNewRomanPSMT-6e" transform="translate(643.53728 0.5625)"/>
      <use xlink:href="#TimesNewRomanPSMT-65" transform="translate(693.53728 0.5625)"/>
      <use xlink:href="#TimesNewRomanPSMT-72" transform="translate(737.922046 0.5625)"/>
      <use xlink:href="#TimesNewRomanPSMT-29" transform="translate(771.222827 0.5625)"/>
     </g>
    </g>
    <g id="PathCollection_4">
     <g>
      <use xlink:href="#mc7c6bbdb9e" x="63.39" y="67.253125" style="fill: #8a95a9; stroke: #8a95a9; stroke-width: 1.5"/>
     </g>
    </g>
    <g id="text_18">
     <!-- $I_{collapse}$ (without Loner) -->
     <g transform="translate(81.39 69.878125)scale(0.1 -0.1)">
      <use xlink:href="#STIXGeneral-Italic-49" transform="translate(0 0.5625)"/>
      <use xlink:href="#STIXGeneral-Italic-63" transform="translate(33.299988 -12.665625)scale(0.7)"/>
      <use xlink:href="#STIXGeneral-Italic-6f" transform="translate(64.379984 -12.665625)scale(0.7)"/>
      <use xlink:href="#STIXGeneral-Italic-6c" transform="translate(99.379973 -12.665625)scale(0.7)"/>
      <use xlink:href="#STIXGeneral-Italic-6c" transform="translate(118.839964 -12.665625)scale(0.7)"/>
      <use xlink:href="#STIXGeneral-Italic-61" transform="translate(138.299956 -12.665625)scale(0.7)"/>
      <use xlink:href="#STIXGeneral-Italic-70" transform="translate(173.369949 -12.665625)scale(0.7)"/>
      <use xlink:href="#STIXGeneral-Italic-73" transform="translate(208.649945 -12.665625)scale(0.7)"/>
      <use xlink:href="#STIXGeneral-Italic-65" transform="translate(235.879941 -12.665625)scale(0.7)"/>
      <use xlink:href="#TimesNewRomanPSMT-20" transform="translate(271.369312 0.5625)"/>
      <use xlink:href="#TimesNewRomanPSMT-28" transform="translate(296.369312 0.5625)"/>
      <use xlink:href="#TimesNewRomanPSMT-77" transform="translate(329.670093 0.5625)"/>
      <use xlink:href="#TimesNewRomanPSMT-69" transform="translate(401.88689 0.5625)"/>
      <use xlink:href="#TimesNewRomanPSMT-74" transform="translate(429.670093 0.5625)"/>
      <use xlink:href="#TimesNewRomanPSMT-68" transform="translate(457.453296 0.5625)"/>
      <use xlink:href="#TimesNewRomanPSMT-6f" transform="translate(507.453296 0.5625)"/>
      <use xlink:href="#TimesNewRomanPSMT-75" transform="translate(557.453296 0.5625)"/>
      <use xlink:href="#TimesNewRomanPSMT-74" transform="translate(607.453296 0.5625)"/>
      <use xlink:href="#TimesNewRomanPSMT-20" transform="translate(635.236499 0.5625)"/>
      <use xlink:href="#TimesNewRomanPSMT-4c" transform="translate(660.236499 0.5625)"/>
      <use xlink:href="#TimesNewRomanPSMT-6f" transform="translate(721.320483 0.5625)"/>
      <use xlink:href="#TimesNewRomanPSMT-6e" transform="translate(771.320483 0.5625)"/>
      <use xlink:href="#TimesNewRomanPSMT-65" transform="translate(821.320483 0.5625)"/>
      <use xlink:href="#TimesNewRomanPSMT-72" transform="translate(865.705249 0.5625)"/>
      <use xlink:href="#TimesNewRomanPSMT-29" transform="translate(899.00603 0.5625)"/>
     </g>
    </g>
   </g>
  </g>
 </g>
 <defs>
  <clipPath id="p7ad6b9235f">
   <rect x="44.39" y="10.8" width="405.61" height="292.84"/>
  </clipPath>
 </defs>
</svg>
