<?xml version="1.0" encoding="utf-8" standalone="no"?>
<!DOCTYPE svg PUBLIC "-//W3C//DTD SVG 1.1//EN"
  "http://www.w3.org/Graphics/SVG/1.1/DTD/svg11.dtd">
<svg xmlns:xlink="http://www.w3.org/1999/xlink" width="720pt" height="576pt" viewBox="0 0 720 576" xmlns="http://www.w3.org/2000/svg" version="1.1">
 <metadata>
  <rdf:RDF xmlns:dc="http://purl.org/dc/elements/1.1/" xmlns:cc="http://creativecommons.org/ns#" xmlns:rdf="http://www.w3.org/1999/02/22-rdf-syntax-ns#">
   <cc:Work>
    <dc:type rdf:resource="http://purl.org/dc/dcmitype/StillImage"/>
    <dc:date>2025-12-09T16:37:05.252007</dc:date>
    <dc:format>image/svg+xml</dc:format>
    <dc:creator>
     <cc:Agent>
      <dc:title>Matplotlib v3.5.1, https://matplotlib.org/</dc:title>
     </cc:Agent>
    </dc:creator>
   </cc:Work>
  </rdf:RDF>
 </metadata>
 <defs>
  <style type="text/css">*{stroke-linejoin: round; stroke-linecap: butt}</style>
 </defs>
 <g id="figure_1">
  <g id="patch_1">
   <path d="M 0 576 
L 720 576 
L 720 0 
L 0 0 
z
" style="fill: #ffffff"/>
  </g>
  <g id="axes_1">
   <g id="patch_2">
    <path d="M 67.43 513.88 
L 704.88 513.88 
L 704.88 15.12 
L 67.43 15.12 
z
" style="fill: #ffffff"/>
   </g>
   <g id="matplotlib.axis_1">
    <g id="xtick_1">
     <g id="line2d_1">
      <defs>
       <path id="mfe2bf7cc73" d="M 0 0 
L 0 3.5 
" style="stroke: #000000; stroke-width: 0.8"/>
      </defs>
      <g>
       <use xlink:href="#mfe2bf7cc73" x="96.405" y="513.88" style="stroke: #000000; stroke-width: 0.8"/>
      </g>
     </g>
     <g id="text_1">
      <!-- 1.0 -->
      <g transform="translate(85.155 533.37875)scale(0.18 -0.18)">
       <defs>
        <path id="TimesNewRomanPSMT-31" d="M 750 3822 
L 1781 4325 
L 1884 4325 
L 1884 747 
Q 1884 391 1914 303 
Q 1944 216 2037 169 
Q 2131 122 2419 116 
L 2419 0 
L 825 0 
L 825 116 
Q 1125 122 1212 167 
Q 1300 213 1334 289 
Q 1369 366 1369 747 
L 1369 3034 
Q 1369 3497 1338 3628 
Q 1316 3728 1258 3775 
Q 1200 3822 1119 3822 
Q 1003 3822 797 3725 
L 750 3822 
z
" transform="scale(0.015625)"/>
        <path id="TimesNewRomanPSMT-2e" d="M 800 606 
Q 947 606 1047 504 
Q 1147 403 1147 259 
Q 1147 116 1045 14 
Q 944 -88 800 -88 
Q 656 -88 554 14 
Q 453 116 453 259 
Q 453 406 554 506 
Q 656 606 800 606 
z
" transform="scale(0.015625)"/>
        <path id="TimesNewRomanPSMT-30" d="M 231 2094 
Q 231 2819 450 3342 
Q 669 3866 1031 4122 
Q 1313 4325 1613 4325 
Q 2100 4325 2488 3828 
Q 2972 3213 2972 2159 
Q 2972 1422 2759 906 
Q 2547 391 2217 158 
Q 1888 -75 1581 -75 
Q 975 -75 572 641 
Q 231 1244 231 2094 
z
M 844 2016 
Q 844 1141 1059 588 
Q 1238 122 1591 122 
Q 1759 122 1940 273 
Q 2122 425 2216 781 
Q 2359 1319 2359 2297 
Q 2359 3022 2209 3506 
Q 2097 3866 1919 4016 
Q 1791 4119 1609 4119 
Q 1397 4119 1231 3928 
Q 1006 3669 925 3112 
Q 844 2556 844 2016 
z
" transform="scale(0.015625)"/>
       </defs>
       <use xlink:href="#TimesNewRomanPSMT-31"/>
       <use xlink:href="#TimesNewRomanPSMT-2e" x="50"/>
       <use xlink:href="#TimesNewRomanPSMT-30" x="75"/>
      </g>
     </g>
    </g>
    <g id="xtick_2">
     <g id="line2d_2">
      <g>
       <use xlink:href="#mfe2bf7cc73" x="212.305" y="513.88" style="stroke: #000000; stroke-width: 0.8"/>
      </g>
     </g>
     <g id="text_2">
      <!-- 1.2 -->
      <g transform="translate(201.055 533.37875)scale(0.18 -0.18)">
       <defs>
        <path id="TimesNewRomanPSMT-32" d="M 2934 816 
L 2638 0 
L 138 0 
L 138 116 
Q 1241 1122 1691 1759 
Q 2141 2397 2141 2925 
Q 2141 3328 1894 3587 
Q 1647 3847 1303 3847 
Q 991 3847 742 3664 
Q 494 3481 375 3128 
L 259 3128 
Q 338 3706 661 4015 
Q 984 4325 1469 4325 
Q 1984 4325 2329 3994 
Q 2675 3663 2675 3213 
Q 2675 2891 2525 2569 
Q 2294 2063 1775 1497 
Q 997 647 803 472 
L 1909 472 
Q 2247 472 2383 497 
Q 2519 522 2628 598 
Q 2738 675 2819 816 
L 2934 816 
z
" transform="scale(0.015625)"/>
       </defs>
       <use xlink:href="#TimesNewRomanPSMT-31"/>
       <use xlink:href="#TimesNewRomanPSMT-2e" x="50"/>
       <use xlink:href="#TimesNewRomanPSMT-32" x="75"/>
      </g>
     </g>
    </g>
    <g id="xtick_3">
     <g id="line2d_3">
      <g>
       <use xlink:href="#mfe2bf7cc73" x="328.205" y="513.88" style="stroke: #000000; stroke-width: 0.8"/>
      </g>
     </g>
     <g id="text_3">
      <!-- 1.4 -->
      <g transform="translate(316.955 533.37875)scale(0.18 -0.18)">
       <defs>
        <path id="TimesNewRomanPSMT-34" d="M 2978 1563 
L 2978 1119 
L 2409 1119 
L 2409 0 
L 1894 0 
L 1894 1119 
L 100 1119 
L 100 1519 
L 2066 4325 
L 2409 4325 
L 2409 1563 
L 2978 1563 
z
M 1894 1563 
L 1894 3666 
L 406 1563 
L 1894 1563 
z
" transform="scale(0.015625)"/>
       </defs>
       <use xlink:href="#TimesNewRomanPSMT-31"/>
       <use xlink:href="#TimesNewRomanPSMT-2e" x="50"/>
       <use xlink:href="#TimesNewRomanPSMT-34" x="75"/>
      </g>
     </g>
    </g>
    <g id="xtick_4">
     <g id="line2d_4">
      <g>
       <use xlink:href="#mfe2bf7cc73" x="444.105" y="513.88" style="stroke: #000000; stroke-width: 0.8"/>
      </g>
     </g>
     <g id="text_4">
      <!-- 1.6 -->
      <g transform="translate(432.855 533.37875)scale(0.18 -0.18)">
       <defs>
        <path id="TimesNewRomanPSMT-36" d="M 2869 4325 
L 2869 4209 
Q 2456 4169 2195 4045 
Q 1934 3922 1679 3669 
Q 1425 3416 1258 3105 
Q 1091 2794 978 2366 
Q 1428 2675 1881 2675 
Q 2316 2675 2634 2325 
Q 2953 1975 2953 1425 
Q 2953 894 2631 456 
Q 2244 -75 1606 -75 
Q 1172 -75 869 213 
Q 275 772 275 1663 
Q 275 2231 503 2743 
Q 731 3256 1154 3653 
Q 1578 4050 1965 4187 
Q 2353 4325 2688 4325 
L 2869 4325 
z
M 925 2138 
Q 869 1716 869 1456 
Q 869 1156 980 804 
Q 1091 453 1309 247 
Q 1469 100 1697 100 
Q 1969 100 2183 356 
Q 2397 613 2397 1088 
Q 2397 1622 2184 2012 
Q 1972 2403 1581 2403 
Q 1463 2403 1327 2353 
Q 1191 2303 925 2138 
z
" transform="scale(0.015625)"/>
       </defs>
       <use xlink:href="#TimesNewRomanPSMT-31"/>
       <use xlink:href="#TimesNewRomanPSMT-2e" x="50"/>
       <use xlink:href="#TimesNewRomanPSMT-36" x="75"/>
      </g>
     </g>
    </g>
    <g id="xtick_5">
     <g id="line2d_5">
      <g>
       <use xlink:href="#mfe2bf7cc73" x="560.005" y="513.88" style="stroke: #000000; stroke-width: 0.8"/>
      </g>
     </g>
     <g id="text_5">
      <!-- 1.8 -->
      <g transform="translate(548.755 533.37875)scale(0.18 -0.18)">
       <defs>
        <path id="TimesNewRomanPSMT-38" d="M 1228 2134 
Q 725 2547 579 2797 
Q 434 3047 434 3316 
Q 434 3728 753 4026 
Q 1072 4325 1600 4325 
Q 2113 4325 2425 4047 
Q 2738 3769 2738 3413 
Q 2738 3175 2569 2928 
Q 2400 2681 1866 2347 
Q 2416 1922 2594 1678 
Q 2831 1359 2831 1006 
Q 2831 559 2490 242 
Q 2150 -75 1597 -75 
Q 994 -75 656 303 
Q 388 606 388 966 
Q 388 1247 577 1523 
Q 766 1800 1228 2134 
z
M 1719 2469 
Q 2094 2806 2194 3001 
Q 2294 3197 2294 3444 
Q 2294 3772 2109 3958 
Q 1925 4144 1606 4144 
Q 1288 4144 1088 3959 
Q 888 3775 888 3528 
Q 888 3366 970 3203 
Q 1053 3041 1206 2894 
L 1719 2469 
z
M 1375 2016 
Q 1116 1797 991 1539 
Q 866 1281 866 981 
Q 866 578 1086 336 
Q 1306 94 1647 94 
Q 1984 94 2187 284 
Q 2391 475 2391 747 
Q 2391 972 2272 1150 
Q 2050 1481 1375 2016 
z
" transform="scale(0.015625)"/>
       </defs>
       <use xlink:href="#TimesNewRomanPSMT-31"/>
       <use xlink:href="#TimesNewRomanPSMT-2e" x="50"/>
       <use xlink:href="#TimesNewRomanPSMT-38" x="75"/>
      </g>
     </g>
    </g>
    <g id="xtick_6">
     <g id="line2d_6">
      <g>
       <use xlink:href="#mfe2bf7cc73" x="675.905" y="513.88" style="stroke: #000000; stroke-width: 0.8"/>
      </g>
     </g>
     <g id="text_6">
      <!-- 2.0 -->
      <g transform="translate(664.655 533.37875)scale(0.18 -0.18)">
       <use xlink:href="#TimesNewRomanPSMT-32"/>
       <use xlink:href="#TimesNewRomanPSMT-2e" x="50"/>
       <use xlink:href="#TimesNewRomanPSMT-30" x="75"/>
      </g>
     </g>
    </g>
    <g id="text_7">
     <!-- b -->
     <g transform="translate(381.155 555.116562)scale(0.2 -0.2)">
      <defs>
       <path id="TimesNewRomanPSMT-62" d="M 984 2369 
Q 1400 2947 1881 2947 
Q 2322 2947 2650 2570 
Q 2978 2194 2978 1541 
Q 2978 778 2472 313 
Q 2038 -88 1503 -88 
Q 1253 -88 995 3 
Q 738 94 469 275 
L 469 3241 
Q 469 3728 445 3840 
Q 422 3953 372 3993 
Q 322 4034 247 4034 
Q 159 4034 28 3984 
L -16 4094 
L 844 4444 
L 984 4444 
L 984 2369 
z
M 984 2169 
L 984 456 
Q 1144 300 1314 220 
Q 1484 141 1663 141 
Q 1947 141 2192 453 
Q 2438 766 2438 1363 
Q 2438 1913 2192 2208 
Q 1947 2503 1634 2503 
Q 1469 2503 1303 2419 
Q 1178 2356 984 2169 
z
" transform="scale(0.015625)"/>
      </defs>
      <use xlink:href="#TimesNewRomanPSMT-62"/>
     </g>
    </g>
   </g>
   <g id="matplotlib.axis_2">
    <g id="ytick_1">
     <g id="line2d_7">
      <defs>
       <path id="m754a7777bb" d="M 0 0 
L -3.5 0 
" style="stroke: #000000; stroke-width: 0.8"/>
      </defs>
      <g>
       <use xlink:href="#m754a7777bb" x="67.43" y="491.209091" style="stroke: #000000; stroke-width: 0.8"/>
      </g>
     </g>
     <g id="text_8">
      <!-- 0.0 -->
      <g transform="translate(37.93 497.458466)scale(0.18 -0.18)">
       <use xlink:href="#TimesNewRomanPSMT-30"/>
       <use xlink:href="#TimesNewRomanPSMT-2e" x="50"/>
       <use xlink:href="#TimesNewRomanPSMT-30" x="75"/>
      </g>
     </g>
    </g>
    <g id="ytick_2">
     <g id="line2d_8">
      <g>
       <use xlink:href="#m754a7777bb" x="67.43" y="402.997668" style="stroke: #000000; stroke-width: 0.8"/>
      </g>
     </g>
     <g id="text_9">
      <!-- 0.1 -->
      <g transform="translate(37.93 409.247043)scale(0.18 -0.18)">
       <use xlink:href="#TimesNewRomanPSMT-30"/>
       <use xlink:href="#TimesNewRomanPSMT-2e" x="50"/>
       <use xlink:href="#TimesNewRomanPSMT-31" x="75"/>
      </g>
     </g>
    </g>
    <g id="ytick_3">
     <g id="line2d_9">
      <g>
       <use xlink:href="#m754a7777bb" x="67.43" y="314.786245" style="stroke: #000000; stroke-width: 0.8"/>
      </g>
     </g>
     <g id="text_10">
      <!-- 0.2 -->
      <g transform="translate(37.93 321.03562)scale(0.18 -0.18)">
       <use xlink:href="#TimesNewRomanPSMT-30"/>
       <use xlink:href="#TimesNewRomanPSMT-2e" x="50"/>
       <use xlink:href="#TimesNewRomanPSMT-32" x="75"/>
      </g>
     </g>
    </g>
    <g id="ytick_4">
     <g id="line2d_10">
      <g>
       <use xlink:href="#m754a7777bb" x="67.43" y="226.574823" style="stroke: #000000; stroke-width: 0.8"/>
      </g>
     </g>
     <g id="text_11">
      <!-- 0.3 -->
      <g transform="translate(37.93 232.824198)scale(0.18 -0.18)">
       <defs>
        <path id="TimesNewRomanPSMT-33" d="M 325 3431 
Q 506 3859 782 4092 
Q 1059 4325 1472 4325 
Q 1981 4325 2253 3994 
Q 2459 3747 2459 3466 
Q 2459 3003 1878 2509 
Q 2269 2356 2469 2072 
Q 2669 1788 2669 1403 
Q 2669 853 2319 450 
Q 1863 -75 997 -75 
Q 569 -75 414 31 
Q 259 138 259 259 
Q 259 350 332 419 
Q 406 488 509 488 
Q 588 488 669 463 
Q 722 447 909 348 
Q 1097 250 1169 231 
Q 1284 197 1416 197 
Q 1734 197 1970 444 
Q 2206 691 2206 1028 
Q 2206 1275 2097 1509 
Q 2016 1684 1919 1775 
Q 1784 1900 1550 2001 
Q 1316 2103 1072 2103 
L 972 2103 
L 972 2197 
Q 1219 2228 1467 2375 
Q 1716 2522 1828 2728 
Q 1941 2934 1941 3181 
Q 1941 3503 1739 3701 
Q 1538 3900 1238 3900 
Q 753 3900 428 3381 
L 325 3431 
z
" transform="scale(0.015625)"/>
       </defs>
       <use xlink:href="#TimesNewRomanPSMT-30"/>
       <use xlink:href="#TimesNewRomanPSMT-2e" x="50"/>
       <use xlink:href="#TimesNewRomanPSMT-33" x="75"/>
      </g>
     </g>
    </g>
    <g id="ytick_5">
     <g id="line2d_11">
      <g>
       <use xlink:href="#m754a7777bb" x="67.43" y="138.3634" style="stroke: #000000; stroke-width: 0.8"/>
      </g>
     </g>
     <g id="text_12">
      <!-- 0.4 -->
      <g transform="translate(37.93 144.612775)scale(0.18 -0.18)">
       <use xlink:href="#TimesNewRomanPSMT-30"/>
       <use xlink:href="#TimesNewRomanPSMT-2e" x="50"/>
       <use xlink:href="#TimesNewRomanPSMT-34" x="75"/>
      </g>
     </g>
    </g>
    <g id="ytick_6">
     <g id="line2d_12">
      <g>
       <use xlink:href="#m754a7777bb" x="67.43" y="50.151977" style="stroke: #000000; stroke-width: 0.8"/>
      </g>
     </g>
     <g id="text_13">
      <!-- 0.5 -->
      <g transform="translate(37.93 56.401352)scale(0.18 -0.18)">
       <defs>
        <path id="TimesNewRomanPSMT-35" d="M 2778 4238 
L 2534 3706 
L 1259 3706 
L 981 3138 
Q 1809 3016 2294 2522 
Q 2709 2097 2709 1522 
Q 2709 1188 2573 903 
Q 2438 619 2231 419 
Q 2025 219 1772 97 
Q 1413 -75 1034 -75 
Q 653 -75 479 54 
Q 306 184 306 341 
Q 306 428 378 495 
Q 450 563 559 563 
Q 641 563 702 538 
Q 763 513 909 409 
Q 1144 247 1384 247 
Q 1750 247 2026 523 
Q 2303 800 2303 1197 
Q 2303 1581 2056 1914 
Q 1809 2247 1375 2428 
Q 1034 2569 447 2591 
L 1259 4238 
L 2778 4238 
z
" transform="scale(0.015625)"/>
       </defs>
       <use xlink:href="#TimesNewRomanPSMT-30"/>
       <use xlink:href="#TimesNewRomanPSMT-2e" x="50"/>
       <use xlink:href="#TimesNewRomanPSMT-35" x="75"/>
      </g>
     </g>
    </g>
    <g id="text_14">
     <!-- Gini -->
     <g transform="translate(29.651875 282.278125)rotate(-90)scale(0.2 -0.2)">
      <defs>
       <path id="TimesNewRomanPSMT-47" d="M 3928 4334 
L 4038 2997 
L 3928 2997 
Q 3763 3497 3500 3750 
Q 3122 4116 2528 4116 
Q 1719 4116 1297 3475 
Q 944 2934 944 2188 
Q 944 1581 1178 1081 
Q 1413 581 1792 348 
Q 2172 116 2572 116 
Q 2806 116 3025 175 
Q 3244 234 3447 350 
L 3447 1575 
Q 3447 1894 3398 1992 
Q 3350 2091 3248 2142 
Q 3147 2194 2891 2194 
L 2891 2313 
L 4531 2313 
L 4531 2194 
L 4453 2194 
Q 4209 2194 4119 2031 
Q 4056 1916 4056 1575 
L 4056 278 
Q 3697 84 3347 -6 
Q 2997 -97 2569 -97 
Q 1341 -97 703 691 
Q 225 1281 225 2053 
Q 225 2613 494 3125 
Q 813 3734 1369 4063 
Q 1834 4334 2469 4334 
Q 2700 4334 2889 4296 
Q 3078 4259 3425 4131 
Q 3600 4066 3659 4066 
Q 3719 4066 3761 4120 
Q 3803 4175 3813 4334 
L 3928 4334 
z
" transform="scale(0.015625)"/>
       <path id="TimesNewRomanPSMT-69" d="M 928 4444 
Q 1059 4444 1151 4351 
Q 1244 4259 1244 4128 
Q 1244 3997 1151 3903 
Q 1059 3809 928 3809 
Q 797 3809 703 3903 
Q 609 3997 609 4128 
Q 609 4259 701 4351 
Q 794 4444 928 4444 
z
M 1188 2947 
L 1188 647 
Q 1188 378 1227 289 
Q 1266 200 1342 156 
Q 1419 113 1622 113 
L 1622 0 
L 231 0 
L 231 113 
Q 441 113 512 153 
Q 584 194 626 287 
Q 669 381 669 647 
L 669 1750 
Q 669 2216 641 2353 
Q 619 2453 572 2492 
Q 525 2531 444 2531 
Q 356 2531 231 2484 
L 188 2597 
L 1050 2947 
L 1188 2947 
z
" transform="scale(0.015625)"/>
       <path id="TimesNewRomanPSMT-6e" d="M 1034 2341 
Q 1538 2947 1994 2947 
Q 2228 2947 2397 2830 
Q 2566 2713 2666 2444 
Q 2734 2256 2734 1869 
L 2734 647 
Q 2734 375 2778 278 
Q 2813 200 2889 156 
Q 2966 113 3172 113 
L 3172 0 
L 1756 0 
L 1756 113 
L 1816 113 
Q 2016 113 2095 173 
Q 2175 234 2206 353 
Q 2219 400 2219 647 
L 2219 1819 
Q 2219 2209 2117 2386 
Q 2016 2563 1775 2563 
Q 1403 2563 1034 2156 
L 1034 647 
Q 1034 356 1069 288 
Q 1113 197 1189 155 
Q 1266 113 1500 113 
L 1500 0 
L 84 0 
L 84 113 
L 147 113 
Q 366 113 442 223 
Q 519 334 519 647 
L 519 1709 
Q 519 2225 495 2337 
Q 472 2450 423 2490 
Q 375 2531 294 2531 
Q 206 2531 84 2484 
L 38 2597 
L 900 2947 
L 1034 2947 
L 1034 2341 
z
" transform="scale(0.015625)"/>
      </defs>
      <use xlink:href="#TimesNewRomanPSMT-47"/>
      <use xlink:href="#TimesNewRomanPSMT-69" x="72.216797"/>
      <use xlink:href="#TimesNewRomanPSMT-6e" x="100"/>
      <use xlink:href="#TimesNewRomanPSMT-69" x="150"/>
     </g>
    </g>
   </g>
   <g id="line2d_13">
    <path d="M 96.405 491.209091 
L 98.304365 485.962817 
L 100.203729 481.735237 
L 102.103094 478.423855 
L 104.002458 475.926177 
L 105.901823 474.139708 
L 107.801187 472.961955 
L 109.700552 472.290422 
L 111.599916 472.022615 
L 113.499281 472.056039 
L 117.29801 472.616604 
L 121.096739 473.163019 
L 124.895468 473.313428 
L 138.19102 473.226699 
L 151.486572 473.438068 
L 187.574498 473.92843 
L 244.555435 474.8595 
L 255.951622 475.226178 
L 259.750351 474.969869 
L 263.54908 474.548704 
L 265.448445 474.464192 
L 267.347809 474.57384 
L 269.247174 474.960235 
L 271.146538 475.699119 
L 274.945268 477.609348 
L 276.844632 478.16169 
L 278.743997 478.026261 
L 280.643361 476.888615 
L 282.542726 474.440986 
L 284.44209 470.693161 
L 286.341455 466.104573 
L 290.140184 456.379235 
L 292.039548 452.22955 
L 293.938913 449.210745 
L 295.838278 447.554244 
L 297.737642 447.007944 
L 299.637007 447.266969 
L 301.536371 448.026445 
L 305.3351 449.827523 
L 307.234465 450.357239 
L 309.133829 450.604244 
L 311.033194 450.638759 
L 314.831923 450.351212 
L 318.630652 450.039678 
L 324.328746 449.893637 
L 341.423027 449.878483 
L 347.12112 450.18516 
L 350.919849 450.113514 
L 358.517308 449.263738 
L 360.416672 449.327838 
L 362.316037 449.679774 
L 364.215401 450.389339 
L 368.01413 452.086011 
L 369.913495 452.441686 
L 371.81286 452.046084 
L 373.712224 450.582076 
L 375.611589 447.751151 
L 377.510953 443.595522 
L 379.410318 438.455634 
L 383.209047 426.625146 
L 385.108411 420.63558 
L 387.007776 415.059213 
L 388.90714 410.105524 
L 390.806505 405.828122 
L 392.70587 402.2721 
L 394.605234 399.482551 
L 396.504599 397.504566 
L 398.403963 396.381453 
L 400.303328 396.059195 
L 402.202692 396.338293 
L 404.102057 397.007341 
L 407.900786 398.669667 
L 409.800151 399.240902 
L 411.699515 399.45581 
L 413.59888 399.394203 
L 417.397609 398.850741 
L 419.296973 398.573534 
L 421.196338 398.429036 
L 423.095702 398.482185 
L 424.995067 398.700016 
L 428.793796 399.434403 
L 432.592525 400.241556 
L 436.391254 400.82739 
L 447.787441 402.27226 
L 451.586171 403.040183 
L 455.3849 404.033282 
L 461.082993 405.671063 
L 462.982358 405.971548 
L 464.881722 406.005175 
L 466.781087 405.685453 
L 468.680452 404.943276 
L 470.579816 403.868825 
L 474.378545 401.426745 
L 476.27791 400.412166 
L 478.177274 399.770595 
L 480.076639 399.66307 
L 481.976003 400.046421 
L 485.774732 401.533163 
L 487.674097 402.255709 
L 489.573462 402.710478 
L 491.472826 402.715913 
L 493.372191 402.267803 
L 495.271555 401.525666 
L 499.070284 399.821932 
L 500.969649 399.191645 
L 502.869013 398.926154 
L 504.768378 399.061815 
L 506.667742 399.483738 
L 512.365836 401.228129 
L 514.265201 401.557408 
L 516.164565 401.635242 
L 519.963294 401.374434 
L 523.762023 401.176579 
L 525.661388 401.332773 
L 527.560753 401.730171 
L 531.359482 402.962105 
L 535.158211 404.2316 
L 537.057575 404.675999 
L 538.95694 404.921521 
L 542.755669 405.066915 
L 546.554398 405.258643 
L 548.453763 405.562084 
L 550.353127 406.070812 
L 554.151856 407.319969 
L 556.051221 407.822479 
L 557.950585 408.084998 
L 559.84995 407.988567 
L 561.749314 407.453315 
L 563.648679 406.599293 
L 567.447408 404.670175 
L 569.346773 403.962736 
L 571.246137 403.671817 
L 573.145502 403.947388 
L 575.044866 404.701907 
L 580.74296 407.945394 
L 582.642324 408.721181 
L 584.541689 409.048696 
L 586.441054 408.959422 
L 588.340418 408.598735 
L 592.139147 407.649861 
L 594.038512 407.355041 
L 595.937876 407.365833 
L 597.837241 407.680685 
L 601.63597 408.800907 
L 603.535334 409.391743 
L 605.434699 409.860041 
L 607.334064 410.102859 
L 609.233428 410.112151 
L 616.830886 409.539401 
L 618.730251 409.682495 
L 620.629615 410.033558 
L 626.327709 411.363558 
L 628.227074 411.562419 
L 630.126438 411.471718 
L 632.025803 411.068591 
L 635.824532 409.760064 
L 637.723896 409.09045 
L 639.623261 408.567794 
L 641.522625 408.309727 
L 643.42199 408.381082 
L 645.321355 408.730233 
L 647.220719 409.290002 
L 651.019448 410.772683 
L 654.818177 412.2917 
L 656.717542 412.896889 
L 658.616906 413.309628 
L 660.516271 413.462738 
L 662.415635 413.289041 
L 664.315 412.72136 
L 664.315 412.72136 
" clip-path="url(#p21b648ea8d)" style="fill: none; stroke: #dbb428; stroke-width: 2.5; stroke-linecap: square"/>
   </g>
   <g id="line2d_14">
    <path d="M 96.405 491.209091 
L 98.304365 485.96396 
L 100.203729 481.736904 
L 102.103094 478.42551 
L 104.002458 475.927365 
L 105.901823 474.140055 
L 107.801187 472.961166 
L 109.700552 472.288287 
L 111.599916 472.019002 
L 113.499281 472.050899 
L 117.29801 472.608584 
L 121.096739 473.152869 
L 124.895468 473.301506 
L 140.090385 473.23512 
L 155.285301 473.483495 
L 202.769415 474.136304 
L 223.662425 474.397007 
L 248.354164 475.016963 
L 254.052258 475.238267 
L 257.850987 475.154512 
L 265.448445 474.488393 
L 267.347809 474.593766 
L 269.247174 474.970746 
L 271.146538 475.694081 
L 274.945268 477.564337 
L 276.844632 478.101486 
L 278.743997 477.960307 
L 280.643361 476.831044 
L 282.542726 474.41054 
L 284.44209 470.709604 
L 286.341455 466.183611 
L 290.140184 456.612804 
L 292.039548 452.546165 
L 293.938913 449.608329 
L 295.838278 448.025731 
L 297.737642 447.540277 
L 299.637007 447.840988 
L 301.536371 448.61689 
L 303.435736 449.557006 
L 305.3351 450.350646 
L 307.234465 450.789669 
L 309.133829 450.919757 
L 311.033194 450.825183 
L 318.630652 449.86552 
L 322.429381 449.774331 
L 328.127475 450.006243 
L 335.724933 450.371856 
L 339.523662 450.39979 
L 352.819214 450.101495 
L 356.617943 450.284544 
L 358.517308 450.28068 
L 360.416672 450.134458 
L 362.316037 449.786806 
L 364.215401 449.192214 
L 368.01413 447.85409 
L 369.913495 447.574864 
L 371.81286 447.866421 
L 373.712224 448.961932 
L 377.510953 453.226399 
L 379.410318 453.748437 
L 381.309682 450.79288 
L 383.209047 442.548918 
L 385.108411 427.205745 
L 387.007776 403.030942 
L 388.90714 370.61349 
L 394.605234 256.896003 
L 396.504599 224.788535 
L 398.403963 201.185702 
L 400.303328 187.368569 
L 402.202692 181.528427 
L 404.102057 181.603683 
L 406.001421 185.532745 
L 409.800151 196.71175 
L 411.699515 200.593115 
L 413.59888 203.048573 
L 415.498244 204.399583 
L 417.397609 204.967605 
L 419.296973 205.074097 
L 424.995067 204.895126 
L 426.894431 204.3361 
L 428.793796 203.113975 
L 430.693161 200.974663 
L 432.592525 197.664085 
L 434.49189 193.080046 
L 440.189983 176.517292 
L 442.089348 171.907348 
L 443.988712 168.676819 
L 445.888077 167.210469 
L 447.787441 167.077591 
L 451.586171 168.110185 
L 453.485535 167.924554 
L 455.3849 166.370235 
L 457.284264 162.927716 
L 459.183629 158.103812 
L 461.082993 152.819986 
L 462.982358 147.998859 
L 464.881722 144.563053 
L 466.781087 143.43519 
L 468.680452 145.405135 
L 470.579816 150.046315 
L 472.479181 156.279012 
L 474.378545 163.017255 
L 476.27791 169.175075 
L 478.177274 173.666502 
L 480.076639 175.48488 
L 481.976003 174.669427 
L 483.875368 171.997999 
L 485.774732 168.263973 
L 487.674097 164.260731 
L 489.573462 160.781653 
L 491.472826 158.586017 
L 493.372191 157.750954 
L 495.271555 157.723819 
L 497.17092 157.928361 
L 499.070284 157.788327 
L 500.969649 156.727466 
L 502.869013 154.185906 
L 504.768378 150.144965 
L 510.466472 135.516514 
L 512.365836 132.046366 
L 514.265201 130.392457 
L 516.164565 130.755223 
L 518.06393 132.601821 
L 519.963294 135.334758 
L 521.862659 138.356541 
L 523.762023 141.069679 
L 525.661388 142.877902 
L 527.560753 143.378648 
L 529.460117 142.573004 
L 531.359482 140.512508 
L 533.258846 137.248701 
L 535.158211 132.833122 
L 537.057575 127.317482 
L 540.856304 114.089625 
L 542.755669 107.544641 
L 544.655033 101.866114 
L 546.554398 97.669413 
L 548.453763 95.569907 
L 550.353127 95.931363 
L 552.252492 98.170885 
L 554.151856 101.482972 
L 556.051221 105.062119 
L 557.950585 108.102826 
L 559.84995 109.79959 
L 561.749314 109.530655 
L 563.648679 107.614097 
L 565.548043 104.667676 
L 569.346773 98.156796 
L 571.246137 95.828116 
L 573.145502 94.837621 
L 575.044866 94.973582 
L 578.843595 96.533434 
L 580.74296 96.909838 
L 582.642324 96.318901 
L 584.541689 94.311223 
L 586.441054 91.167738 
L 588.340418 87.583912 
L 590.239783 84.259968 
L 592.139147 81.896131 
L 594.038512 81.192623 
L 595.937876 82.785486 
L 597.837241 86.395467 
L 601.63597 95.804541 
L 603.535334 99.648056 
L 605.434699 101.613837 
L 607.334064 100.766765 
L 609.233428 97.107644 
L 611.132793 91.548619 
L 614.931522 78.530435 
L 616.830886 72.971065 
L 618.730251 69.294928 
L 620.629615 67.826057 
L 622.52898 68.113643 
L 624.428344 69.656748 
L 626.327709 71.954435 
L 628.227074 74.505766 
L 630.126438 76.812223 
L 632.025803 78.55335 
L 633.925167 79.705586 
L 635.824532 80.273519 
L 637.723896 80.261734 
L 639.623261 79.674819 
L 641.522625 78.517434 
L 643.42199 76.809305 
L 645.321355 74.603382 
L 647.220719 71.957054 
L 649.120084 68.927709 
L 651.019448 65.572735 
L 654.818177 58.115452 
L 660.516271 45.922015 
L 664.315 37.790909 
L 664.315 37.790909 
" clip-path="url(#p21b648ea8d)" style="fill: none; stroke-dasharray: 9.25,4; stroke-dashoffset: 0; stroke: #eae936; stroke-width: 2.5"/>
   </g>
   <g id="patch_3">
    <path d="M 67.43 513.88 
L 67.43 15.12 
" style="fill: none; stroke: #000000; stroke-width: 0.8; stroke-linejoin: miter; stroke-linecap: square"/>
   </g>
   <g id="patch_4">
    <path d="M 704.88 513.88 
L 704.88 15.12 
" style="fill: none; stroke: #000000; stroke-width: 0.8; stroke-linejoin: miter; stroke-linecap: square"/>
   </g>
   <g id="patch_5">
    <path d="M 67.43 513.88 
L 704.88 513.88 
" style="fill: none; stroke: #000000; stroke-width: 0.8; stroke-linejoin: miter; stroke-linecap: square"/>
   </g>
   <g id="patch_6">
    <path d="M 67.43 15.12 
L 704.88 15.12 
" style="fill: none; stroke: #000000; stroke-width: 0.8; stroke-linejoin: miter; stroke-linecap: square"/>
   </g>
   <g id="legend_1">
    <g id="patch_7">
     <path d="M 80.03 133.700625 
L 305.57 133.700625 
Q 309.17 133.700625 309.17 130.100625 
L 309.17 27.72 
Q 309.17 24.12 305.57 24.12 
L 80.03 24.12 
Q 76.43 24.12 76.43 27.72 
L 76.43 130.100625 
Q 76.43 133.700625 80.03 133.700625 
z
" style="fill: #ffffff; opacity: 0.8; stroke: #cccccc; stroke-linejoin: miter"/>
    </g>
    <g id="line2d_15">
     <path d="M 83.63 37.62 
L 101.63 37.62 
L 119.63 37.62 
" style="fill: none; stroke: #dbb428; stroke-width: 2.5; stroke-linecap: square"/>
    </g>
    <g id="text_15">
     <!-- with Loner -->
     <g transform="translate(134.03 43.92)scale(0.18 -0.18)">
      <defs>
       <path id="TimesNewRomanPSMT-77" d="M 41 2863 
L 1241 2863 
L 1241 2747 
Q 1075 2734 1023 2687 
Q 972 2641 972 2553 
Q 972 2456 1025 2319 
L 1638 672 
L 2253 2013 
L 2091 2434 
Q 2016 2622 1894 2694 
Q 1825 2738 1638 2747 
L 1638 2863 
L 3000 2863 
L 3000 2747 
Q 2775 2738 2681 2666 
Q 2619 2616 2619 2506 
Q 2619 2444 2644 2378 
L 3294 734 
L 3897 2319 
Q 3959 2488 3959 2588 
Q 3959 2647 3898 2694 
Q 3838 2741 3659 2747 
L 3659 2863 
L 4563 2863 
L 4563 2747 
Q 4291 2706 4163 2378 
L 3206 -88 
L 3078 -88 
L 2363 1741 
L 1528 -88 
L 1413 -88 
L 494 2319 
Q 403 2547 315 2626 
Q 228 2706 41 2747 
L 41 2863 
z
" transform="scale(0.015625)"/>
       <path id="TimesNewRomanPSMT-74" d="M 1031 3803 
L 1031 2863 
L 1700 2863 
L 1700 2644 
L 1031 2644 
L 1031 788 
Q 1031 509 1111 412 
Q 1191 316 1316 316 
Q 1419 316 1516 380 
Q 1613 444 1666 569 
L 1788 569 
Q 1678 263 1478 108 
Q 1278 -47 1066 -47 
Q 922 -47 784 33 
Q 647 113 581 261 
Q 516 409 516 719 
L 516 2644 
L 63 2644 
L 63 2747 
Q 234 2816 414 2980 
Q 594 3144 734 3369 
Q 806 3488 934 3803 
L 1031 3803 
z
" transform="scale(0.015625)"/>
       <path id="TimesNewRomanPSMT-68" d="M 1041 4444 
L 1041 2350 
Q 1388 2731 1591 2839 
Q 1794 2947 1997 2947 
Q 2241 2947 2416 2812 
Q 2591 2678 2675 2391 
Q 2734 2191 2734 1659 
L 2734 647 
Q 2734 375 2778 275 
Q 2809 200 2884 156 
Q 2959 113 3159 113 
L 3159 0 
L 1753 0 
L 1753 113 
L 1819 113 
Q 2019 113 2097 173 
Q 2175 234 2206 353 
Q 2216 403 2216 647 
L 2216 1659 
Q 2216 2128 2167 2275 
Q 2119 2422 2012 2495 
Q 1906 2569 1756 2569 
Q 1603 2569 1437 2487 
Q 1272 2406 1041 2159 
L 1041 647 
Q 1041 353 1073 281 
Q 1106 209 1195 161 
Q 1284 113 1503 113 
L 1503 0 
L 84 0 
L 84 113 
Q 275 113 384 172 
Q 447 203 484 290 
Q 522 378 522 647 
L 522 3238 
Q 522 3728 498 3840 
Q 475 3953 426 3993 
Q 378 4034 297 4034 
Q 231 4034 84 3984 
L 41 4094 
L 897 4444 
L 1041 4444 
z
" transform="scale(0.015625)"/>
       <path id="TimesNewRomanPSMT-20" transform="scale(0.015625)"/>
       <path id="TimesNewRomanPSMT-4c" d="M 3669 1172 
L 3772 1150 
L 3409 0 
L 128 0 
L 128 116 
L 288 116 
Q 556 116 672 291 
Q 738 391 738 753 
L 738 3488 
Q 738 3884 650 3984 
Q 528 4122 288 4122 
L 128 4122 
L 128 4238 
L 2047 4238 
L 2047 4122 
Q 1709 4125 1573 4059 
Q 1438 3994 1388 3894 
Q 1338 3794 1338 3416 
L 1338 753 
Q 1338 494 1388 397 
Q 1425 331 1503 300 
Q 1581 269 1991 269 
L 2300 269 
Q 2788 269 2984 341 
Q 3181 413 3343 595 
Q 3506 778 3669 1172 
z
" transform="scale(0.015625)"/>
       <path id="TimesNewRomanPSMT-6f" d="M 1600 2947 
Q 2250 2947 2644 2453 
Q 2978 2031 2978 1484 
Q 2978 1100 2793 706 
Q 2609 313 2286 112 
Q 1963 -88 1566 -88 
Q 919 -88 538 428 
Q 216 863 216 1403 
Q 216 1797 411 2186 
Q 606 2575 925 2761 
Q 1244 2947 1600 2947 
z
M 1503 2744 
Q 1338 2744 1170 2645 
Q 1003 2547 900 2300 
Q 797 2053 797 1666 
Q 797 1041 1045 587 
Q 1294 134 1700 134 
Q 2003 134 2200 384 
Q 2397 634 2397 1244 
Q 2397 2006 2069 2444 
Q 1847 2744 1503 2744 
z
" transform="scale(0.015625)"/>
       <path id="TimesNewRomanPSMT-65" d="M 681 1784 
Q 678 1147 991 784 
Q 1303 422 1725 422 
Q 2006 422 2214 576 
Q 2422 731 2563 1106 
L 2659 1044 
Q 2594 616 2278 264 
Q 1963 -88 1488 -88 
Q 972 -88 605 314 
Q 238 716 238 1394 
Q 238 2128 614 2539 
Q 991 2950 1559 2950 
Q 2041 2950 2350 2633 
Q 2659 2316 2659 1784 
L 681 1784 
z
M 681 1966 
L 2006 1966 
Q 1991 2241 1941 2353 
Q 1863 2528 1708 2628 
Q 1553 2728 1384 2728 
Q 1125 2728 920 2526 
Q 716 2325 681 1966 
z
" transform="scale(0.015625)"/>
       <path id="TimesNewRomanPSMT-72" d="M 1038 2947 
L 1038 2303 
Q 1397 2947 1775 2947 
Q 1947 2947 2059 2842 
Q 2172 2738 2172 2600 
Q 2172 2478 2090 2393 
Q 2009 2309 1897 2309 
Q 1788 2309 1652 2417 
Q 1516 2525 1450 2525 
Q 1394 2525 1328 2463 
Q 1188 2334 1038 2041 
L 1038 669 
Q 1038 431 1097 309 
Q 1138 225 1241 169 
Q 1344 113 1538 113 
L 1538 0 
L 72 0 
L 72 113 
Q 291 113 397 181 
Q 475 231 506 341 
Q 522 394 522 644 
L 522 1753 
Q 522 2253 501 2348 
Q 481 2444 426 2487 
Q 372 2531 291 2531 
Q 194 2531 72 2484 
L 41 2597 
L 906 2947 
L 1038 2947 
z
" transform="scale(0.015625)"/>
      </defs>
      <use xlink:href="#TimesNewRomanPSMT-77"/>
      <use xlink:href="#TimesNewRomanPSMT-69" x="72.216797"/>
      <use xlink:href="#TimesNewRomanPSMT-74" x="100"/>
      <use xlink:href="#TimesNewRomanPSMT-68" x="127.783203"/>
      <use xlink:href="#TimesNewRomanPSMT-20" x="177.783203"/>
      <use xlink:href="#TimesNewRomanPSMT-4c" x="202.783203"/>
      <use xlink:href="#TimesNewRomanPSMT-6f" x="263.867188"/>
      <use xlink:href="#TimesNewRomanPSMT-6e" x="313.867188"/>
      <use xlink:href="#TimesNewRomanPSMT-65" x="363.867188"/>
      <use xlink:href="#TimesNewRomanPSMT-72" x="408.251953"/>
     </g>
    </g>
    <g id="line2d_16">
     <path d="M 83.63 63.070312 
L 101.63 63.070312 
L 119.63 63.070312 
" style="fill: none; stroke-dasharray: 9.25,4; stroke-dashoffset: 0; stroke: #eae936; stroke-width: 2.5"/>
    </g>
    <g id="text_16">
     <!-- without Loner -->
     <g transform="translate(134.03 69.370312)scale(0.18 -0.18)">
      <defs>
       <path id="TimesNewRomanPSMT-75" d="M 2709 2863 
L 2709 1128 
Q 2709 631 2732 520 
Q 2756 409 2807 365 
Q 2859 322 2928 322 
Q 3025 322 3147 375 
L 3191 266 
L 2334 -88 
L 2194 -88 
L 2194 519 
Q 1825 119 1631 15 
Q 1438 -88 1222 -88 
Q 981 -88 804 51 
Q 628 191 559 409 
Q 491 628 491 1028 
L 491 2306 
Q 491 2509 447 2587 
Q 403 2666 317 2708 
Q 231 2750 6 2747 
L 6 2863 
L 1009 2863 
L 1009 947 
Q 1009 547 1148 422 
Q 1288 297 1484 297 
Q 1619 297 1789 381 
Q 1959 466 2194 703 
L 2194 2325 
Q 2194 2569 2105 2655 
Q 2016 2741 1734 2747 
L 1734 2863 
L 2709 2863 
z
" transform="scale(0.015625)"/>
      </defs>
      <use xlink:href="#TimesNewRomanPSMT-77"/>
      <use xlink:href="#TimesNewRomanPSMT-69" x="72.216797"/>
      <use xlink:href="#TimesNewRomanPSMT-74" x="100"/>
      <use xlink:href="#TimesNewRomanPSMT-68" x="127.783203"/>
      <use xlink:href="#TimesNewRomanPSMT-6f" x="177.783203"/>
      <use xlink:href="#TimesNewRomanPSMT-75" x="227.783203"/>
      <use xlink:href="#TimesNewRomanPSMT-74" x="277.783203"/>
      <use xlink:href="#TimesNewRomanPSMT-20" x="305.566406"/>
      <use xlink:href="#TimesNewRomanPSMT-4c" x="330.566406"/>
      <use xlink:href="#TimesNewRomanPSMT-6f" x="391.650391"/>
      <use xlink:href="#TimesNewRomanPSMT-6e" x="441.650391"/>
      <use xlink:href="#TimesNewRomanPSMT-65" x="491.650391"/>
      <use xlink:href="#TimesNewRomanPSMT-72" x="536.035156"/>
     </g>
    </g>
    <g id="PathCollection_1">
     <path d="M 101.63 97.166693 
C 103.505269 97.166693 105.303985 96.42164 106.63 95.095625 
C 107.956016 93.769609 108.701068 91.970894 108.701068 90.095625 
C 108.701068 88.220356 107.956016 86.42164 106.63 85.095625 
C 105.303985 83.769609 103.505269 83.024557 101.63 83.024557 
C 99.754731 83.024557 97.956016 83.769609 96.63 85.095625 
C 95.303985 86.42164 94.558932 88.220356 94.558932 90.095625 
C 94.558932 91.970894 95.303985 93.769609 96.63 95.095625 
C 97.956016 96.42164 99.754731 97.166693 101.63 97.166693 
L 101.63 97.166693 
z
" style="fill: none; stroke: #8a95a9; stroke-width: 2.5"/>
    </g>
    <g id="text_17">
     <!-- $I_{collapse}$ (with Loner) -->
     <g transform="translate(134.03 94.820625)scale(0.18 -0.18)">
      <defs>
       <path id="STIXGeneral-Italic-49" d="M 2458 4179 
L 2458 4077 
Q 2189 4045 2102 3961 
Q 2016 3878 1933 3584 
L 1165 838 
Q 1069 499 1069 352 
Q 1069 224 1149 179 
Q 1229 134 1510 102 
L 1510 0 
L -51 0 
L -51 102 
Q 218 154 317 237 
Q 416 320 486 582 
L 1254 3405 
Q 1338 3699 1338 3802 
Q 1338 3930 1235 3997 
Q 1133 4064 877 4077 
L 877 4179 
L 2458 4179 
z
" transform="scale(0.015625)"/>
       <path id="STIXGeneral-Italic-63" d="M 2240 685 
L 2342 621 
Q 2048 250 1769 90 
Q 1491 -70 1133 -70 
Q 678 -70 435 179 
Q 192 429 192 915 
Q 192 1344 409 1744 
Q 627 2144 979 2432 
Q 1472 2822 2048 2822 
Q 2342 2822 2531 2675 
Q 2720 2528 2720 2304 
Q 2720 2176 2630 2086 
Q 2541 1997 2413 1997 
Q 2285 1997 2224 2070 
Q 2163 2144 2163 2253 
Q 2163 2310 2211 2403 
Q 2259 2496 2259 2560 
Q 2259 2688 2022 2688 
Q 1619 2688 1325 2381 
Q 742 1766 742 890 
Q 742 544 889 352 
Q 1037 160 1312 160 
Q 1562 160 1766 281 
Q 1971 403 2240 685 
z
" transform="scale(0.015625)"/>
       <path id="STIXGeneral-Italic-6f" d="M 2995 1926 
Q 2995 1562 2812 1168 
Q 2630 774 2317 461 
Q 1786 -70 1114 -70 
Q 666 -70 419 163 
Q 173 397 173 819 
Q 173 1350 496 1856 
Q 819 2362 1325 2630 
Q 1683 2822 2093 2822 
Q 2490 2822 2742 2582 
Q 2995 2342 2995 1926 
z
M 2458 2086 
Q 2458 2374 2336 2531 
Q 2214 2688 2003 2688 
Q 1574 2688 1184 2106 
Q 710 1382 710 646 
Q 710 365 844 214 
Q 979 64 1210 64 
Q 1600 64 1984 595 
Q 2202 890 2330 1302 
Q 2458 1715 2458 2086 
z
" transform="scale(0.015625)"/>
       <path id="STIXGeneral-Italic-6c" d="M 1786 4339 
L 806 595 
Q 755 410 755 320 
Q 755 205 864 205 
Q 1037 205 1293 570 
L 1453 794 
L 1542 730 
Q 1254 275 1046 102 
Q 838 -70 576 -70 
Q 262 -70 262 288 
Q 262 397 288 480 
L 1165 3834 
Q 1184 3898 1184 3955 
Q 1184 4096 870 4096 
L 755 4096 
L 755 4198 
Q 1203 4250 1747 4371 
L 1786 4339 
z
" transform="scale(0.015625)"/>
       <path id="STIXGeneral-Italic-61" d="M 2963 710 
L 3046 640 
Q 2688 205 2518 70 
Q 2349 -64 2157 -64 
Q 1901 -64 1901 198 
Q 1901 358 2048 934 
Q 1690 397 1389 163 
Q 1088 -70 749 -70 
Q 467 -70 288 125 
Q 109 320 109 672 
Q 109 1158 387 1664 
Q 666 2170 1094 2496 
Q 1523 2822 1939 2822 
Q 2368 2822 2451 2451 
L 2522 2758 
L 2541 2778 
L 2931 2822 
L 2976 2803 
Q 2970 2778 2938 2669 
Q 2368 595 2368 346 
Q 2368 262 2458 262 
Q 2554 262 2790 525 
L 2963 710 
z
M 2336 2310 
Q 2336 2477 2240 2579 
Q 2144 2682 1978 2682 
Q 1542 2682 1139 2093 
Q 928 1779 787 1395 
Q 646 1011 646 717 
Q 646 243 1030 243 
Q 1408 243 1843 870 
Q 2336 1581 2336 2310 
z
" transform="scale(0.015625)"/>
       <path id="STIXGeneral-Italic-70" d="M 1376 2739 
L 1190 2099 
Q 1670 2822 2285 2822 
Q 2637 2822 2829 2611 
Q 3021 2400 3021 2022 
Q 3021 1235 2422 582 
Q 1824 -70 1120 -70 
Q 890 -70 678 38 
Q 422 -1018 422 -1024 
Q 422 -1126 508 -1168 
Q 595 -1210 819 -1210 
L 819 -1312 
L -480 -1312 
L -480 -1210 
Q -275 -1203 -188 -1120 
Q -102 -1037 -45 -806 
L 691 1958 
Q 794 2330 794 2413 
Q 794 2586 512 2586 
L 371 2586 
L 358 2682 
L 1357 2822 
Q 1389 2822 1389 2797 
Q 1382 2765 1376 2739 
z
M 2445 2003 
Q 2445 2285 2352 2416 
Q 2259 2547 2048 2547 
Q 1798 2547 1548 2329 
Q 1299 2112 1184 1818 
Q 1043 1453 905 953 
Q 768 454 768 294 
Q 768 186 854 118 
Q 941 51 1075 51 
Q 1574 51 2003 659 
Q 2445 1274 2445 2003 
z
" transform="scale(0.015625)"/>
       <path id="STIXGeneral-Italic-73" d="M 2342 2829 
L 2214 1933 
L 2112 1933 
Q 2022 2675 1542 2675 
Q 1370 2675 1267 2579 
Q 1165 2483 1165 2310 
Q 1165 2067 1510 1658 
Q 1946 1152 1946 787 
Q 1946 397 1686 163 
Q 1427 -70 1024 -70 
Q 838 -70 672 -6 
Q 538 51 390 51 
Q 262 51 205 -83 
L 102 -83 
L 230 934 
L 333 934 
Q 461 64 973 64 
Q 1203 64 1331 192 
Q 1459 320 1459 557 
Q 1459 845 1101 1293 
Q 698 1798 698 2131 
Q 698 2451 909 2636 
Q 1120 2822 1472 2822 
Q 1600 2822 1830 2758 
Q 1971 2714 2061 2714 
Q 2189 2714 2253 2829 
L 2342 2829 
z
" transform="scale(0.015625)"/>
       <path id="STIXGeneral-Italic-65" d="M 2291 698 
L 2368 621 
Q 1805 -70 1062 -70 
Q 672 -70 435 170 
Q 198 410 198 806 
Q 198 1555 796 2188 
Q 1395 2822 2112 2822 
Q 2362 2822 2499 2707 
Q 2637 2592 2637 2387 
Q 2637 1965 2147 1632 
Q 1658 1299 819 1190 
Q 755 1062 755 800 
Q 755 538 918 378 
Q 1082 218 1350 218 
Q 1562 218 1754 317 
Q 1946 416 2291 698 
z
M 973 1613 
L 864 1331 
Q 1581 1504 1894 1805 
Q 2214 2112 2214 2426 
Q 2214 2675 1990 2675 
Q 1722 2675 1430 2364 
Q 1139 2054 973 1613 
z
" transform="scale(0.015625)"/>
       <path id="TimesNewRomanPSMT-28" d="M 1988 -1253 
L 1988 -1369 
Q 1516 -1131 1200 -813 
Q 750 -359 506 256 
Q 263 872 263 1534 
Q 263 2503 741 3301 
Q 1219 4100 1988 4444 
L 1988 4313 
Q 1603 4100 1356 3731 
Q 1109 3363 987 2797 
Q 866 2231 866 1616 
Q 866 947 969 400 
Q 1050 -31 1165 -292 
Q 1281 -553 1476 -793 
Q 1672 -1034 1988 -1253 
z
" transform="scale(0.015625)"/>
       <path id="TimesNewRomanPSMT-29" d="M 144 4313 
L 144 4444 
Q 619 4209 934 3891 
Q 1381 3434 1625 2820 
Q 1869 2206 1869 1541 
Q 1869 572 1392 -226 
Q 916 -1025 144 -1369 
L 144 -1253 
Q 528 -1038 776 -670 
Q 1025 -303 1145 264 
Q 1266 831 1266 1447 
Q 1266 2113 1163 2663 
Q 1084 3094 967 3353 
Q 850 3613 656 3853 
Q 463 4094 144 4313 
z
" transform="scale(0.015625)"/>
      </defs>
      <use xlink:href="#STIXGeneral-Italic-49" transform="translate(0 0.5625)"/>
      <use xlink:href="#STIXGeneral-Italic-63" transform="translate(33.299988 -12.665625)scale(0.7)"/>
      <use xlink:href="#STIXGeneral-Italic-6f" transform="translate(64.379984 -12.665625)scale(0.7)"/>
      <use xlink:href="#STIXGeneral-Italic-6c" transform="translate(99.379973 -12.665625)scale(0.7)"/>
      <use xlink:href="#STIXGeneral-Italic-6c" transform="translate(118.839964 -12.665625)scale(0.7)"/>
      <use xlink:href="#STIXGeneral-Italic-61" transform="translate(138.299956 -12.665625)scale(0.7)"/>
      <use xlink:href="#STIXGeneral-Italic-70" transform="translate(173.369949 -12.665625)scale(0.7)"/>
      <use xlink:href="#STIXGeneral-Italic-73" transform="translate(208.649945 -12.665625)scale(0.7)"/>
      <use xlink:href="#STIXGeneral-Italic-65" transform="translate(235.879941 -12.665625)scale(0.7)"/>
      <use xlink:href="#TimesNewRomanPSMT-20" transform="translate(271.369312 0.5625)"/>
      <use xlink:href="#TimesNewRomanPSMT-28" transform="translate(296.369312 0.5625)"/>
      <use xlink:href="#TimesNewRomanPSMT-77" transform="translate(329.670093 0.5625)"/>
      <use xlink:href="#TimesNewRomanPSMT-69" transform="translate(401.88689 0.5625)"/>
      <use xlink:href="#TimesNewRomanPSMT-74" transform="translate(429.670093 0.5625)"/>
      <use xlink:href="#TimesNewRomanPSMT-68" transform="translate(457.453296 0.5625)"/>
      <use xlink:href="#TimesNewRomanPSMT-20" transform="translate(507.453296 0.5625)"/>
      <use xlink:href="#TimesNewRomanPSMT-4c" transform="translate(532.453296 0.5625)"/>
      <use xlink:href="#TimesNewRomanPSMT-6f" transform="translate(593.53728 0.5625)"/>
      <use xlink:href="#TimesNewRomanPSMT-6e" transform="translate(643.53728 0.5625)"/>
      <use xlink:href="#TimesNewRomanPSMT-65" transform="translate(693.53728 0.5625)"/>
      <use xlink:href="#TimesNewRomanPSMT-72" transform="translate(737.922046 0.5625)"/>
      <use xlink:href="#TimesNewRomanPSMT-29" transform="translate(771.222827 0.5625)"/>
     </g>
    </g>
    <g id="PathCollection_2">
     <defs>
      <path id="mf6b3ec6c9c" d="M -7.071068 7.071068 
L 7.071068 -7.071068 
M -7.071068 -7.071068 
L 7.071068 7.071068 
" style="stroke: #8a95a9; stroke-width: 2.5"/>
     </defs>
     <g>
      <use xlink:href="#mf6b3ec6c9c" x="101.63" y="116.735625" style="fill: #8a95a9; stroke: #8a95a9; stroke-width: 2.5"/>
     </g>
    </g>
    <g id="text_18">
     <!-- $I_{collapse}$ (without Loner) -->
     <g transform="translate(134.03 121.460625)scale(0.18 -0.18)">
      <use xlink:href="#STIXGeneral-Italic-49" transform="translate(0 0.5625)"/>
      <use xlink:href="#STIXGeneral-Italic-63" transform="translate(33.299988 -12.665625)scale(0.7)"/>
      <use xlink:href="#STIXGeneral-Italic-6f" transform="translate(64.379984 -12.665625)scale(0.7)"/>
      <use xlink:href="#STIXGeneral-Italic-6c" transform="translate(99.379973 -12.665625)scale(0.7)"/>
      <use xlink:href="#STIXGeneral-Italic-6c" transform="translate(118.839964 -12.665625)scale(0.7)"/>
      <use xlink:href="#STIXGeneral-Italic-61" transform="translate(138.299956 -12.665625)scale(0.7)"/>
      <use xlink:href="#STIXGeneral-Italic-70" transform="translate(173.369949 -12.665625)scale(0.7)"/>
      <use xlink:href="#STIXGeneral-Italic-73" transform="translate(208.649945 -12.665625)scale(0.7)"/>
      <use xlink:href="#STIXGeneral-Italic-65" transform="translate(235.879941 -12.665625)scale(0.7)"/>
      <use xlink:href="#TimesNewRomanPSMT-20" transform="translate(271.369312 0.5625)"/>
      <use xlink:href="#TimesNewRomanPSMT-28" transform="translate(296.369312 0.5625)"/>
      <use xlink:href="#TimesNewRomanPSMT-77" transform="translate(329.670093 0.5625)"/>
      <use xlink:href="#TimesNewRomanPSMT-69" transform="translate(401.88689 0.5625)"/>
      <use xlink:href="#TimesNewRomanPSMT-74" transform="translate(429.670093 0.5625)"/>
      <use xlink:href="#TimesNewRomanPSMT-68" transform="translate(457.453296 0.5625)"/>
      <use xlink:href="#TimesNewRomanPSMT-6f" transform="translate(507.453296 0.5625)"/>
      <use xlink:href="#TimesNewRomanPSMT-75" transform="translate(557.453296 0.5625)"/>
      <use xlink:href="#TimesNewRomanPSMT-74" transform="translate(607.453296 0.5625)"/>
      <use xlink:href="#TimesNewRomanPSMT-20" transform="translate(635.236499 0.5625)"/>
      <use xlink:href="#TimesNewRomanPSMT-4c" transform="translate(660.236499 0.5625)"/>
      <use xlink:href="#TimesNewRomanPSMT-6f" transform="translate(721.320483 0.5625)"/>
      <use xlink:href="#TimesNewRomanPSMT-6e" transform="translate(771.320483 0.5625)"/>
      <use xlink:href="#TimesNewRomanPSMT-65" transform="translate(821.320483 0.5625)"/>
      <use xlink:href="#TimesNewRomanPSMT-72" transform="translate(865.705249 0.5625)"/>
      <use xlink:href="#TimesNewRomanPSMT-29" transform="translate(899.00603 0.5625)"/>
     </g>
    </g>
   </g>
   <g id="PathCollection_3">
    <path d="M 675.905 496.013068 
C 677.780269 496.013068 679.578985 495.268015 680.905 493.942 
C 682.231016 492.615985 682.976068 490.817269 682.976068 488.942 
C 682.976068 487.066731 682.231016 485.268015 680.905 483.942 
C 679.578985 482.615985 677.780269 481.870932 675.905 481.870932 
C 674.029731 481.870932 672.231016 482.615985 670.905 483.942 
C 669.578985 485.268015 668.833932 487.066731 668.833932 488.942 
C 668.833932 490.817269 669.578985 492.615985 670.905 493.942 
C 672.231016 495.268015 674.029731 496.013068 675.905 496.013068 
L 675.905 496.013068 
z
" clip-path="url(#p21b648ea8d)" style="fill: none; stroke: #8a95a9; stroke-width: 2.5"/>
   </g>
   <g id="PathCollection_4">
    <g clip-path="url(#p21b648ea8d)">
     <use xlink:href="#mf6b3ec6c9c" x="675.905" y="488.942" style="fill: #8a95a9; stroke: #8a95a9; stroke-width: 2.5"/>
    </g>
   </g>
  </g>
 </g>
 <defs>
  <clipPath id="p21b648ea8d">
   <rect x="67.43" y="15.12" width="637.45" height="498.76"/>
  </clipPath>
 </defs>
</svg>
