<?xml version="1.0" encoding="utf-8" standalone="no"?>
<!DOCTYPE svg PUBLIC "-//W3C//DTD SVG 1.1//EN"
  "http://www.w3.org/Graphics/SVG/1.1/DTD/svg11.dtd">
<svg xmlns:xlink="http://www.w3.org/1999/xlink" width="576pt" height="504pt" viewBox="0 0 576 504" xmlns="http://www.w3.org/2000/svg" version="1.1">
 <metadata>
  <rdf:RDF xmlns:dc="http://purl.org/dc/elements/1.1/" xmlns:cc="http://creativecommons.org/ns#" xmlns:rdf="http://www.w3.org/1999/02/22-rdf-syntax-ns#">
   <cc:Work>
    <dc:type rdf:resource="http://purl.org/dc/dcmitype/StillImage"/>
    <dc:date>2025-09-26T16:10:16.350959</dc:date>
    <dc:format>image/svg+xml</dc:format>
    <dc:creator>
     <cc:Agent>
      <dc:title>Matplotlib v3.5.1, https://matplotlib.org/</dc:title>
     </cc:Agent>
    </dc:creator>
   </cc:Work>
  </rdf:RDF>
 </metadata>
 <defs>
  <style type="text/css">*{stroke-linejoin: round; stroke-linecap: butt}</style>
 </defs>
 <g id="figure_1">
  <g id="patch_1">
   <path d="M 0 504 
L 576 504 
L 576 0 
L 0 0 
z
" style="fill: #ffffff"/>
  </g>
  <g id="axes_1">
   <g id="patch_2">
    <path d="M 62.768 151.68 
L 565.2 151.68 
L 565.2 10.8 
L 62.768 10.8 
z
" style="fill: #ffffff"/>
   </g>
   <g id="PolyCollection_1">
    <defs>
     <path id="m389e19f442" d="M 85.605818 -385.924876 
L 85.605818 -385.924876 
L 97.024727 -374.292602 
L 108.443636 -382.071734 
L 119.862545 -387.354679 
L 131.281455 -388.948288 
L 142.700364 -395.831839 
L 154.119273 -407.473991 
L 165.538182 -415.787344 
L 176.957091 -413.2998 
L 188.376 -418.48726 
L 199.794909 -417.350085 
L 211.213818 -399.259415 
L 222.632727 -365.87224 
L 234.051636 -376.408908 
L 245.470545 -384.162111 
L 256.889455 -372.523252 
L 268.308364 -363.169443 
L 279.727273 -379.322841 
L 291.146182 -399.374243 
L 302.565091 -445.50288 
L 313.984 -441.961299 
L 325.402909 -413.826201 
L 336.821818 -418.20739 
L 348.240727 -409.036731 
L 359.659636 -392.212058 
L 371.078545 -375.173779 
L 382.497455 -358.723636 
L 393.916364 -378.130104 
L 405.335273 -395.652393 
L 416.754182 -394.348943 
L 428.173091 -396.968602 
L 439.592 -408.922726 
L 451.010909 -420.809352 
L 462.429818 -420.642665 
L 473.848727 -400.88883 
L 485.267636 -396.311321 
L 496.686545 -388.344923 
L 508.105455 -384.19586 
L 519.524364 -379.747584 
L 530.943273 -395.044912 
L 542.362182 -388.754437 
L 542.362182 -388.754437 
L 542.362182 -433.191511 
L 530.943273 -439.169602 
L 519.524364 -426.324835 
L 508.105455 -428.037389 
L 496.686545 -431.546868 
L 485.267636 -438.688886 
L 473.848727 -439.365923 
L 462.429818 -460.849597 
L 451.010909 -459.810788 
L 439.592 -450.858262 
L 428.173091 -441.918907 
L 416.754182 -440.137209 
L 405.335273 -438.409428 
L 393.916364 -418.802113 
L 382.497455 -398.308682 
L 371.078545 -417.467795 
L 359.659636 -432.569625 
L 348.240727 -449.86843 
L 336.821818 -458.872814 
L 325.402909 -456.702592 
L 313.984 -486.646551 
L 302.565091 -486.796364 
L 291.146182 -443.069252 
L 279.727273 -424.843174 
L 268.308364 -405.038716 
L 256.889455 -415.23131 
L 245.470545 -427.016689 
L 234.051636 -416.464792 
L 222.632727 -404.91154 
L 211.213818 -437.404779 
L 199.794909 -459.136632 
L 188.376 -461.080077 
L 176.957091 -455.66296 
L 165.538182 -459.665503 
L 154.119273 -451.052936 
L 142.700364 -438.821412 
L 131.281455 -431.485955 
L 119.862545 -427.411387 
L 108.443636 -423.132267 
L 97.024727 -417.287114 
L 85.605818 -426.719945 
z
"/>
    </defs>
    <g clip-path="url(#p35ebba59ce)">
     <use xlink:href="#m389e19f442" x="0" y="504" style="fill: #1f77b4; fill-opacity: 0.18"/>
    </g>
   </g>
   <g id="matplotlib.axis_1">
    <g id="xtick_1">
     <g id="line2d_1">
      <defs>
       <path id="mf9370d385b" d="M 0 0 
L 0 3.5 
" style="stroke: #000000; stroke-width: 0.8"/>
      </defs>
      <g>
       <use xlink:href="#mf9370d385b" x="85.605818" y="151.68" style="stroke: #000000; stroke-width: 0.8"/>
      </g>
     </g>
    </g>
    <g id="xtick_2">
     <g id="line2d_2">
      <g>
       <use xlink:href="#mf9370d385b" x="142.700364" y="151.68" style="stroke: #000000; stroke-width: 0.8"/>
      </g>
     </g>
    </g>
    <g id="xtick_3">
     <g id="line2d_3">
      <g>
       <use xlink:href="#mf9370d385b" x="199.794909" y="151.68" style="stroke: #000000; stroke-width: 0.8"/>
      </g>
     </g>
    </g>
    <g id="xtick_4">
     <g id="line2d_4">
      <g>
       <use xlink:href="#mf9370d385b" x="256.889455" y="151.68" style="stroke: #000000; stroke-width: 0.8"/>
      </g>
     </g>
    </g>
    <g id="xtick_5">
     <g id="line2d_5">
      <g>
       <use xlink:href="#mf9370d385b" x="313.984" y="151.68" style="stroke: #000000; stroke-width: 0.8"/>
      </g>
     </g>
    </g>
    <g id="xtick_6">
     <g id="line2d_6">
      <g>
       <use xlink:href="#mf9370d385b" x="371.078545" y="151.68" style="stroke: #000000; stroke-width: 0.8"/>
      </g>
     </g>
    </g>
    <g id="xtick_7">
     <g id="line2d_7">
      <g>
       <use xlink:href="#mf9370d385b" x="428.173091" y="151.68" style="stroke: #000000; stroke-width: 0.8"/>
      </g>
     </g>
    </g>
    <g id="xtick_8">
     <g id="line2d_8">
      <g>
       <use xlink:href="#mf9370d385b" x="485.267636" y="151.68" style="stroke: #000000; stroke-width: 0.8"/>
      </g>
     </g>
    </g>
    <g id="xtick_9">
     <g id="line2d_9">
      <g>
       <use xlink:href="#mf9370d385b" x="542.362182" y="151.68" style="stroke: #000000; stroke-width: 0.8"/>
      </g>
     </g>
    </g>
   </g>
   <g id="matplotlib.axis_2">
    <g id="ytick_1">
     <g id="line2d_10">
      <defs>
       <path id="mf5286d3dc3" d="M 0 0 
L -3.5 0 
" style="stroke: #000000; stroke-width: 0.8"/>
      </defs>
      <g>
       <use xlink:href="#mf5286d3dc3" x="62.768" y="145.238911" style="stroke: #000000; stroke-width: 0.8"/>
      </g>
     </g>
     <g id="text_1">
      <!-- 0.310 -->
      <g transform="translate(27.139875 149.038129)scale(0.1 -0.1)">
       <defs>
        <path id="DejaVuSans-30" d="M 2034 4250 
Q 1547 4250 1301 3770 
Q 1056 3291 1056 2328 
Q 1056 1369 1301 889 
Q 1547 409 2034 409 
Q 2525 409 2770 889 
Q 3016 1369 3016 2328 
Q 3016 3291 2770 3770 
Q 2525 4250 2034 4250 
z
M 2034 4750 
Q 2819 4750 3233 4129 
Q 3647 3509 3647 2328 
Q 3647 1150 3233 529 
Q 2819 -91 2034 -91 
Q 1250 -91 836 529 
Q 422 1150 422 2328 
Q 422 3509 836 4129 
Q 1250 4750 2034 4750 
z
" transform="scale(0.015625)"/>
        <path id="DejaVuSans-2e" d="M 684 794 
L 1344 794 
L 1344 0 
L 684 0 
L 684 794 
z
" transform="scale(0.015625)"/>
        <path id="DejaVuSans-33" d="M 2597 2516 
Q 3050 2419 3304 2112 
Q 3559 1806 3559 1356 
Q 3559 666 3084 287 
Q 2609 -91 1734 -91 
Q 1441 -91 1130 -33 
Q 819 25 488 141 
L 488 750 
Q 750 597 1062 519 
Q 1375 441 1716 441 
Q 2309 441 2620 675 
Q 2931 909 2931 1356 
Q 2931 1769 2642 2001 
Q 2353 2234 1838 2234 
L 1294 2234 
L 1294 2753 
L 1863 2753 
Q 2328 2753 2575 2939 
Q 2822 3125 2822 3475 
Q 2822 3834 2567 4026 
Q 2313 4219 1838 4219 
Q 1578 4219 1281 4162 
Q 984 4106 628 3988 
L 628 4550 
Q 988 4650 1302 4700 
Q 1616 4750 1894 4750 
Q 2613 4750 3031 4423 
Q 3450 4097 3450 3541 
Q 3450 3153 3228 2886 
Q 3006 2619 2597 2516 
z
" transform="scale(0.015625)"/>
        <path id="DejaVuSans-31" d="M 794 531 
L 1825 531 
L 1825 4091 
L 703 3866 
L 703 4441 
L 1819 4666 
L 2450 4666 
L 2450 531 
L 3481 531 
L 3481 0 
L 794 0 
L 794 531 
z
" transform="scale(0.015625)"/>
       </defs>
       <use xlink:href="#DejaVuSans-30"/>
       <use xlink:href="#DejaVuSans-2e" x="63.623047"/>
       <use xlink:href="#DejaVuSans-33" x="95.410156"/>
       <use xlink:href="#DejaVuSans-31" x="159.033203"/>
       <use xlink:href="#DejaVuSans-30" x="222.65625"/>
      </g>
     </g>
    </g>
    <g id="ytick_2">
     <g id="line2d_11">
      <g>
       <use xlink:href="#mf5286d3dc3" x="62.768" y="105.316375" style="stroke: #000000; stroke-width: 0.8"/>
      </g>
     </g>
     <g id="text_2">
      <!-- 0.315 -->
      <g transform="translate(27.139875 109.115594)scale(0.1 -0.1)">
       <defs>
        <path id="DejaVuSans-35" d="M 691 4666 
L 3169 4666 
L 3169 4134 
L 1269 4134 
L 1269 2991 
Q 1406 3038 1543 3061 
Q 1681 3084 1819 3084 
Q 2600 3084 3056 2656 
Q 3513 2228 3513 1497 
Q 3513 744 3044 326 
Q 2575 -91 1722 -91 
Q 1428 -91 1123 -41 
Q 819 9 494 109 
L 494 744 
Q 775 591 1075 516 
Q 1375 441 1709 441 
Q 2250 441 2565 725 
Q 2881 1009 2881 1497 
Q 2881 1984 2565 2268 
Q 2250 2553 1709 2553 
Q 1456 2553 1204 2497 
Q 953 2441 691 2322 
L 691 4666 
z
" transform="scale(0.015625)"/>
       </defs>
       <use xlink:href="#DejaVuSans-30"/>
       <use xlink:href="#DejaVuSans-2e" x="63.623047"/>
       <use xlink:href="#DejaVuSans-33" x="95.410156"/>
       <use xlink:href="#DejaVuSans-31" x="159.033203"/>
       <use xlink:href="#DejaVuSans-35" x="222.65625"/>
      </g>
     </g>
    </g>
    <g id="ytick_3">
     <g id="line2d_12">
      <g>
       <use xlink:href="#mf5286d3dc3" x="62.768" y="65.39384" style="stroke: #000000; stroke-width: 0.8"/>
      </g>
     </g>
     <g id="text_3">
      <!-- 0.320 -->
      <g transform="translate(27.139875 69.193059)scale(0.1 -0.1)">
       <defs>
        <path id="DejaVuSans-32" d="M 1228 531 
L 3431 531 
L 3431 0 
L 469 0 
L 469 531 
Q 828 903 1448 1529 
Q 2069 2156 2228 2338 
Q 2531 2678 2651 2914 
Q 2772 3150 2772 3378 
Q 2772 3750 2511 3984 
Q 2250 4219 1831 4219 
Q 1534 4219 1204 4116 
Q 875 4013 500 3803 
L 500 4441 
Q 881 4594 1212 4672 
Q 1544 4750 1819 4750 
Q 2544 4750 2975 4387 
Q 3406 4025 3406 3419 
Q 3406 3131 3298 2873 
Q 3191 2616 2906 2266 
Q 2828 2175 2409 1742 
Q 1991 1309 1228 531 
z
" transform="scale(0.015625)"/>
       </defs>
       <use xlink:href="#DejaVuSans-30"/>
       <use xlink:href="#DejaVuSans-2e" x="63.623047"/>
       <use xlink:href="#DejaVuSans-33" x="95.410156"/>
       <use xlink:href="#DejaVuSans-32" x="159.033203"/>
       <use xlink:href="#DejaVuSans-30" x="222.65625"/>
      </g>
     </g>
    </g>
    <g id="ytick_4">
     <g id="line2d_13">
      <g>
       <use xlink:href="#mf5286d3dc3" x="62.768" y="25.471305" style="stroke: #000000; stroke-width: 0.8"/>
      </g>
     </g>
     <g id="text_4">
      <!-- 0.325 -->
      <g transform="translate(27.139875 29.270524)scale(0.1 -0.1)">
       <use xlink:href="#DejaVuSans-30"/>
       <use xlink:href="#DejaVuSans-2e" x="63.623047"/>
       <use xlink:href="#DejaVuSans-33" x="95.410156"/>
       <use xlink:href="#DejaVuSans-32" x="159.033203"/>
       <use xlink:href="#DejaVuSans-35" x="222.65625"/>
      </g>
     </g>
    </g>
    <g id="text_5">
     <!-- $f_C$ -->
     <g transform="translate(21.060188 85.59)rotate(-90)scale(0.1 -0.1)">
      <defs>
       <path id="DejaVuSans-Oblique-66" d="M 3059 4863 
L 2969 4384 
L 2419 4384 
Q 2106 4384 1964 4261 
Q 1822 4138 1753 3809 
L 1691 3500 
L 2638 3500 
L 2553 3053 
L 1606 3053 
L 1013 0 
L 434 0 
L 1031 3053 
L 481 3053 
L 563 3500 
L 1113 3500 
L 1159 3744 
Q 1278 4363 1576 4613 
Q 1875 4863 2516 4863 
L 3059 4863 
z
" transform="scale(0.015625)"/>
       <path id="DejaVuSans-Oblique-43" d="M 4447 4306 
L 4319 3641 
Q 4019 3944 3683 4091 
Q 3347 4238 2956 4238 
Q 2422 4238 2017 3981 
Q 1613 3725 1319 3200 
Q 1131 2863 1032 2486 
Q 934 2109 934 1728 
Q 934 1091 1264 756 
Q 1594 422 2222 422 
Q 2656 422 3056 561 
Q 3456 700 3834 978 
L 3688 231 
Q 3316 72 2936 -9 
Q 2556 -91 2175 -91 
Q 1278 -91 773 396 
Q 269 884 269 1753 
Q 269 2309 461 2846 
Q 653 3384 1013 3828 
Q 1394 4300 1883 4525 
Q 2372 4750 3022 4750 
Q 3422 4750 3780 4639 
Q 4138 4528 4447 4306 
z
" transform="scale(0.015625)"/>
      </defs>
      <use xlink:href="#DejaVuSans-Oblique-66" transform="translate(0 0.015625)"/>
      <use xlink:href="#DejaVuSans-Oblique-43" transform="translate(35.205078 -16.390625)scale(0.7)"/>
     </g>
    </g>
   </g>
   <g id="line2d_14">
    <path d="M 85.605818 97.315406 
L 97.024727 108.164457 
L 108.443636 101.31589 
L 119.862545 95.537412 
L 131.281455 92.788108 
L 142.700364 86.137096 
L 154.119273 74.267344 
L 165.538182 65.723098 
L 176.957091 69.048604 
L 188.376 63.978031 
L 199.794909 65.097508 
L 211.213818 85.741986 
L 222.632727 118.322067 
L 234.051636 107.390701 
L 245.470545 98.632438 
L 256.889455 109.662581 
L 268.308364 119.573248 
L 279.727273 101.513445 
L 291.146182 82.400017 
L 302.565091 37.86787 
L 313.984 39.547086 
L 325.402909 69.394325 
L 336.821818 65.574932 
L 348.240727 74.876471 
L 359.659636 91.833259 
L 371.078545 108.016291 
L 382.497455 125.285874 
L 393.916364 105.448079 
L 405.335273 86.713297 
L 416.754182 86.795612 
L 428.173091 83.55242 
L 439.592 73.114941 
L 451.010909 63.796939 
L 462.429818 62.858554 
L 473.848727 83.404254 
L 485.267636 86.351113 
L 496.686545 93.726493 
L 508.105455 97.924533 
L 519.524364 101.941481 
L 530.943273 87.256573 
L 542.362182 93.035051 
" clip-path="url(#p35ebba59ce)" style="fill: none; stroke: #1f77b4; stroke-width: 2; stroke-linecap: square"/>
   </g>
   <g id="line2d_15">
    <path d="M 313.984 151.68 
L 313.984 10.8 
" clip-path="url(#p35ebba59ce)" style="fill: none; stroke-dasharray: 3.7,1.6; stroke-dashoffset: 0; stroke: #1f77b4"/>
   </g>
   <g id="line2d_16">
    <path d="M 62.768 86.851827 
L 565.2 86.851827 
" clip-path="url(#p35ebba59ce)" style="fill: none; stroke-dasharray: 1,1.65; stroke-dashoffset: 0; stroke: #1f77b4; stroke-opacity: 0.55"/>
   </g>
   <g id="patch_3">
    <path d="M 62.768 151.68 
L 62.768 10.8 
" style="fill: none; stroke: #000000; stroke-width: 0.8; stroke-linejoin: miter; stroke-linecap: square"/>
   </g>
   <g id="patch_4">
    <path d="M 565.2 151.68 
L 565.2 10.8 
" style="fill: none; stroke: #000000; stroke-width: 0.8; stroke-linejoin: miter; stroke-linecap: square"/>
   </g>
   <g id="patch_5">
    <path d="M 62.768 151.68 
L 565.2 151.68 
" style="fill: none; stroke: #000000; stroke-width: 0.8; stroke-linejoin: miter; stroke-linecap: square"/>
   </g>
   <g id="patch_6">
    <path d="M 62.768 10.8 
L 565.2 10.8 
" style="fill: none; stroke: #000000; stroke-width: 0.8; stroke-linejoin: miter; stroke-linecap: square"/>
   </g>
   <g id="legend_1">
    <g id="patch_7">
     <path d="M 458.904687 33.478125 
L 558.2 33.478125 
Q 560.2 33.478125 560.2 31.478125 
L 560.2 17.8 
Q 560.2 15.8 558.2 15.8 
L 458.904687 15.8 
Q 456.904687 15.8 456.904687 17.8 
L 456.904687 31.478125 
Q 456.904687 33.478125 458.904687 33.478125 
z
" style="fill: #ffffff; opacity: 0.8; stroke: #cccccc; stroke-linejoin: miter"/>
    </g>
    <g id="line2d_17">
     <path d="M 460.904687 23.898438 
L 470.904687 23.898438 
L 480.904687 23.898438 
" style="fill: none; stroke: #1f77b4; stroke-width: 2; stroke-linecap: square"/>
    </g>
    <g id="text_6">
     <!-- C(with Loner) -->
     <g transform="translate(488.904687 27.398438)scale(0.1 -0.1)">
      <defs>
       <path id="DejaVuSans-43" d="M 4122 4306 
L 4122 3641 
Q 3803 3938 3442 4084 
Q 3081 4231 2675 4231 
Q 1875 4231 1450 3742 
Q 1025 3253 1025 2328 
Q 1025 1406 1450 917 
Q 1875 428 2675 428 
Q 3081 428 3442 575 
Q 3803 722 4122 1019 
L 4122 359 
Q 3791 134 3420 21 
Q 3050 -91 2638 -91 
Q 1578 -91 968 557 
Q 359 1206 359 2328 
Q 359 3453 968 4101 
Q 1578 4750 2638 4750 
Q 3056 4750 3426 4639 
Q 3797 4528 4122 4306 
z
" transform="scale(0.015625)"/>
       <path id="DejaVuSans-28" d="M 1984 4856 
Q 1566 4138 1362 3434 
Q 1159 2731 1159 2009 
Q 1159 1288 1364 580 
Q 1569 -128 1984 -844 
L 1484 -844 
Q 1016 -109 783 600 
Q 550 1309 550 2009 
Q 550 2706 781 3412 
Q 1013 4119 1484 4856 
L 1984 4856 
z
" transform="scale(0.015625)"/>
       <path id="DejaVuSans-77" d="M 269 3500 
L 844 3500 
L 1563 769 
L 2278 3500 
L 2956 3500 
L 3675 769 
L 4391 3500 
L 4966 3500 
L 4050 0 
L 3372 0 
L 2619 2869 
L 1863 0 
L 1184 0 
L 269 3500 
z
" transform="scale(0.015625)"/>
       <path id="DejaVuSans-69" d="M 603 3500 
L 1178 3500 
L 1178 0 
L 603 0 
L 603 3500 
z
M 603 4863 
L 1178 4863 
L 1178 4134 
L 603 4134 
L 603 4863 
z
" transform="scale(0.015625)"/>
       <path id="DejaVuSans-74" d="M 1172 4494 
L 1172 3500 
L 2356 3500 
L 2356 3053 
L 1172 3053 
L 1172 1153 
Q 1172 725 1289 603 
Q 1406 481 1766 481 
L 2356 481 
L 2356 0 
L 1766 0 
Q 1100 0 847 248 
Q 594 497 594 1153 
L 594 3053 
L 172 3053 
L 172 3500 
L 594 3500 
L 594 4494 
L 1172 4494 
z
" transform="scale(0.015625)"/>
       <path id="DejaVuSans-68" d="M 3513 2113 
L 3513 0 
L 2938 0 
L 2938 2094 
Q 2938 2591 2744 2837 
Q 2550 3084 2163 3084 
Q 1697 3084 1428 2787 
Q 1159 2491 1159 1978 
L 1159 0 
L 581 0 
L 581 4863 
L 1159 4863 
L 1159 2956 
Q 1366 3272 1645 3428 
Q 1925 3584 2291 3584 
Q 2894 3584 3203 3211 
Q 3513 2838 3513 2113 
z
" transform="scale(0.015625)"/>
       <path id="DejaVuSans-20" transform="scale(0.015625)"/>
       <path id="DejaVuSans-4c" d="M 628 4666 
L 1259 4666 
L 1259 531 
L 3531 531 
L 3531 0 
L 628 0 
L 628 4666 
z
" transform="scale(0.015625)"/>
       <path id="DejaVuSans-6f" d="M 1959 3097 
Q 1497 3097 1228 2736 
Q 959 2375 959 1747 
Q 959 1119 1226 758 
Q 1494 397 1959 397 
Q 2419 397 2687 759 
Q 2956 1122 2956 1747 
Q 2956 2369 2687 2733 
Q 2419 3097 1959 3097 
z
M 1959 3584 
Q 2709 3584 3137 3096 
Q 3566 2609 3566 1747 
Q 3566 888 3137 398 
Q 2709 -91 1959 -91 
Q 1206 -91 779 398 
Q 353 888 353 1747 
Q 353 2609 779 3096 
Q 1206 3584 1959 3584 
z
" transform="scale(0.015625)"/>
       <path id="DejaVuSans-6e" d="M 3513 2113 
L 3513 0 
L 2938 0 
L 2938 2094 
Q 2938 2591 2744 2837 
Q 2550 3084 2163 3084 
Q 1697 3084 1428 2787 
Q 1159 2491 1159 1978 
L 1159 0 
L 581 0 
L 581 3500 
L 1159 3500 
L 1159 2956 
Q 1366 3272 1645 3428 
Q 1925 3584 2291 3584 
Q 2894 3584 3203 3211 
Q 3513 2838 3513 2113 
z
" transform="scale(0.015625)"/>
       <path id="DejaVuSans-65" d="M 3597 1894 
L 3597 1613 
L 953 1613 
Q 991 1019 1311 708 
Q 1631 397 2203 397 
Q 2534 397 2845 478 
Q 3156 559 3463 722 
L 3463 178 
Q 3153 47 2828 -22 
Q 2503 -91 2169 -91 
Q 1331 -91 842 396 
Q 353 884 353 1716 
Q 353 2575 817 3079 
Q 1281 3584 2069 3584 
Q 2775 3584 3186 3129 
Q 3597 2675 3597 1894 
z
M 3022 2063 
Q 3016 2534 2758 2815 
Q 2500 3097 2075 3097 
Q 1594 3097 1305 2825 
Q 1016 2553 972 2059 
L 3022 2063 
z
" transform="scale(0.015625)"/>
       <path id="DejaVuSans-72" d="M 2631 2963 
Q 2534 3019 2420 3045 
Q 2306 3072 2169 3072 
Q 1681 3072 1420 2755 
Q 1159 2438 1159 1844 
L 1159 0 
L 581 0 
L 581 3500 
L 1159 3500 
L 1159 2956 
Q 1341 3275 1631 3429 
Q 1922 3584 2338 3584 
Q 2397 3584 2469 3576 
Q 2541 3569 2628 3553 
L 2631 2963 
z
" transform="scale(0.015625)"/>
       <path id="DejaVuSans-29" d="M 513 4856 
L 1013 4856 
Q 1481 4119 1714 3412 
Q 1947 2706 1947 2009 
Q 1947 1309 1714 600 
Q 1481 -109 1013 -844 
L 513 -844 
Q 928 -128 1133 580 
Q 1338 1288 1338 2009 
Q 1338 2731 1133 3434 
Q 928 4138 513 4856 
z
" transform="scale(0.015625)"/>
      </defs>
      <use xlink:href="#DejaVuSans-43"/>
      <use xlink:href="#DejaVuSans-28" x="69.824219"/>
      <use xlink:href="#DejaVuSans-77" x="108.837891"/>
      <use xlink:href="#DejaVuSans-69" x="190.625"/>
      <use xlink:href="#DejaVuSans-74" x="218.408203"/>
      <use xlink:href="#DejaVuSans-68" x="257.617188"/>
      <use xlink:href="#DejaVuSans-20" x="320.996094"/>
      <use xlink:href="#DejaVuSans-4c" x="352.783203"/>
      <use xlink:href="#DejaVuSans-6f" x="406.746094"/>
      <use xlink:href="#DejaVuSans-6e" x="467.927734"/>
      <use xlink:href="#DejaVuSans-65" x="531.306641"/>
      <use xlink:href="#DejaVuSans-72" x="592.830078"/>
      <use xlink:href="#DejaVuSans-29" x="633.943359"/>
     </g>
    </g>
   </g>
  </g>
  <g id="axes_2">
   <g id="patch_8">
    <path d="M 62.768 306.86 
L 565.2 306.86 
L 565.2 165.98 
L 62.768 165.98 
z
" style="fill: #ffffff"/>
   </g>
   <g id="PolyCollection_2">
    <defs>
     <path id="m28c9b5a07d" d="M 85.605818 -282.470273 
L 85.605818 -282.470273 
L 97.024727 -277.531543 
L 108.443636 -274.156853 
L 119.862545 -273.51902 
L 131.281455 -266.67361 
L 142.700364 -263.773672 
L 154.119273 -262.621453 
L 165.538182 -263.991728 
L 176.957091 -265.88889 
L 188.376 -272.764843 
L 199.794909 -287.62848 
L 211.213818 -297.976147 
L 222.632727 -303.721615 
L 234.051636 -283.467508 
L 245.470545 -270.429153 
L 256.889455 -261.553331 
L 268.308364 -248.965862 
L 279.727273 -231.22459 
L 291.146182 -217.283608 
L 302.565091 -203.543636 
L 313.984 -272.035952 
L 325.402909 -281.961711 
L 336.821818 -285.356147 
L 348.240727 -290.685959 
L 359.659636 -301.795331 
L 371.078545 -307.761555 
L 382.497455 -298.6637 
L 393.916364 -285.552469 
L 405.335273 -274.98632 
L 416.754182 -271.101221 
L 428.173091 -264.860687 
L 439.592 -262.365183 
L 451.010909 -262.883547 
L 462.429818 -268.536536 
L 473.848727 -273.536493 
L 485.267636 -275.62813 
L 496.686545 -275.301827 
L 508.105455 -278.13443 
L 519.524364 -280.769291 
L 530.943273 -275.809678 
L 542.362182 -273.088305 
L 542.362182 -273.088305 
L 542.362182 -299.375828 
L 530.943273 -301.535084 
L 519.524364 -305.841806 
L 508.105455 -305.405551 
L 496.686545 -303.210781 
L 485.267636 -301.747174 
L 473.848727 -298.167071 
L 462.429818 -293.308176 
L 451.010909 -287.95038 
L 439.592 -287.556174 
L 428.173091 -289.045066 
L 416.754182 -295.541302 
L 405.335273 -299.177375 
L 393.916364 -311.407857 
L 382.497455 -324.763709 
L 371.078545 -331.616364 
L 359.659636 -325.434214 
L 348.240727 -312.740629 
L 336.821818 -306.200214 
L 325.402909 -304.387717 
L 313.984 -292.72745 
L 302.565091 -224.155583 
L 291.146182 -238.804716 
L 279.727273 -254.161857 
L 268.308364 -272.328304 
L 256.889455 -283.784294 
L 245.470545 -293.225642 
L 234.051636 -307.713966 
L 222.632727 -326.246492 
L 211.213818 -321.421407 
L 199.794909 -309.275307 
L 188.376 -295.051349 
L 176.957091 -289.438278 
L 165.538182 -288.011464 
L 154.119273 -287.712009 
L 142.700364 -288.198552 
L 131.281455 -291.760899 
L 119.862545 -299.187604 
L 108.443636 -298.756889 
L 97.024727 -301.939945 
L 85.605818 -306.415429 
z
"/>
    </defs>
    <g clip-path="url(#p8bc80413ca)">
     <use xlink:href="#m28c9b5a07d" x="0" y="504" style="fill: #d62728; fill-opacity: 0.18"/>
    </g>
   </g>
   <g id="matplotlib.axis_3">
    <g id="xtick_10">
     <g id="line2d_18">
      <g>
       <use xlink:href="#mf9370d385b" x="85.605818" y="306.86" style="stroke: #000000; stroke-width: 0.8"/>
      </g>
     </g>
    </g>
    <g id="xtick_11">
     <g id="line2d_19">
      <g>
       <use xlink:href="#mf9370d385b" x="142.700364" y="306.86" style="stroke: #000000; stroke-width: 0.8"/>
      </g>
     </g>
    </g>
    <g id="xtick_12">
     <g id="line2d_20">
      <g>
       <use xlink:href="#mf9370d385b" x="199.794909" y="306.86" style="stroke: #000000; stroke-width: 0.8"/>
      </g>
     </g>
    </g>
    <g id="xtick_13">
     <g id="line2d_21">
      <g>
       <use xlink:href="#mf9370d385b" x="256.889455" y="306.86" style="stroke: #000000; stroke-width: 0.8"/>
      </g>
     </g>
    </g>
    <g id="xtick_14">
     <g id="line2d_22">
      <g>
       <use xlink:href="#mf9370d385b" x="313.984" y="306.86" style="stroke: #000000; stroke-width: 0.8"/>
      </g>
     </g>
    </g>
    <g id="xtick_15">
     <g id="line2d_23">
      <g>
       <use xlink:href="#mf9370d385b" x="371.078545" y="306.86" style="stroke: #000000; stroke-width: 0.8"/>
      </g>
     </g>
    </g>
    <g id="xtick_16">
     <g id="line2d_24">
      <g>
       <use xlink:href="#mf9370d385b" x="428.173091" y="306.86" style="stroke: #000000; stroke-width: 0.8"/>
      </g>
     </g>
    </g>
    <g id="xtick_17">
     <g id="line2d_25">
      <g>
       <use xlink:href="#mf9370d385b" x="485.267636" y="306.86" style="stroke: #000000; stroke-width: 0.8"/>
      </g>
     </g>
    </g>
    <g id="xtick_18">
     <g id="line2d_26">
      <g>
       <use xlink:href="#mf9370d385b" x="542.362182" y="306.86" style="stroke: #000000; stroke-width: 0.8"/>
      </g>
     </g>
    </g>
   </g>
   <g id="matplotlib.axis_4">
    <g id="ytick_5">
     <g id="line2d_27">
      <g>
       <use xlink:href="#mf5286d3dc3" x="62.768" y="287.142561" style="stroke: #000000; stroke-width: 0.8"/>
      </g>
     </g>
     <g id="text_7">
      <!-- 0.57 -->
      <g transform="translate(33.502375 290.941779)scale(0.1 -0.1)">
       <defs>
        <path id="DejaVuSans-37" d="M 525 4666 
L 3525 4666 
L 3525 4397 
L 1831 0 
L 1172 0 
L 2766 4134 
L 525 4134 
L 525 4666 
z
" transform="scale(0.015625)"/>
       </defs>
       <use xlink:href="#DejaVuSans-30"/>
       <use xlink:href="#DejaVuSans-2e" x="63.623047"/>
       <use xlink:href="#DejaVuSans-35" x="95.410156"/>
       <use xlink:href="#DejaVuSans-37" x="159.033203"/>
      </g>
     </g>
    </g>
    <g id="ytick_6">
     <g id="line2d_28">
      <g>
       <use xlink:href="#mf5286d3dc3" x="62.768" y="259.583633" style="stroke: #000000; stroke-width: 0.8"/>
      </g>
     </g>
     <g id="text_8">
      <!-- 0.58 -->
      <g transform="translate(33.502375 263.382852)scale(0.1 -0.1)">
       <defs>
        <path id="DejaVuSans-38" d="M 2034 2216 
Q 1584 2216 1326 1975 
Q 1069 1734 1069 1313 
Q 1069 891 1326 650 
Q 1584 409 2034 409 
Q 2484 409 2743 651 
Q 3003 894 3003 1313 
Q 3003 1734 2745 1975 
Q 2488 2216 2034 2216 
z
M 1403 2484 
Q 997 2584 770 2862 
Q 544 3141 544 3541 
Q 544 4100 942 4425 
Q 1341 4750 2034 4750 
Q 2731 4750 3128 4425 
Q 3525 4100 3525 3541 
Q 3525 3141 3298 2862 
Q 3072 2584 2669 2484 
Q 3125 2378 3379 2068 
Q 3634 1759 3634 1313 
Q 3634 634 3220 271 
Q 2806 -91 2034 -91 
Q 1263 -91 848 271 
Q 434 634 434 1313 
Q 434 1759 690 2068 
Q 947 2378 1403 2484 
z
M 1172 3481 
Q 1172 3119 1398 2916 
Q 1625 2713 2034 2713 
Q 2441 2713 2670 2916 
Q 2900 3119 2900 3481 
Q 2900 3844 2670 4047 
Q 2441 4250 2034 4250 
Q 1625 4250 1398 4047 
Q 1172 3844 1172 3481 
z
" transform="scale(0.015625)"/>
       </defs>
       <use xlink:href="#DejaVuSans-30"/>
       <use xlink:href="#DejaVuSans-2e" x="63.623047"/>
       <use xlink:href="#DejaVuSans-35" x="95.410156"/>
       <use xlink:href="#DejaVuSans-38" x="159.033203"/>
      </g>
     </g>
    </g>
    <g id="ytick_7">
     <g id="line2d_29">
      <g>
       <use xlink:href="#mf5286d3dc3" x="62.768" y="232.024706" style="stroke: #000000; stroke-width: 0.8"/>
      </g>
     </g>
     <g id="text_9">
      <!-- 0.59 -->
      <g transform="translate(33.502375 235.823925)scale(0.1 -0.1)">
       <defs>
        <path id="DejaVuSans-39" d="M 703 97 
L 703 672 
Q 941 559 1184 500 
Q 1428 441 1663 441 
Q 2288 441 2617 861 
Q 2947 1281 2994 2138 
Q 2813 1869 2534 1725 
Q 2256 1581 1919 1581 
Q 1219 1581 811 2004 
Q 403 2428 403 3163 
Q 403 3881 828 4315 
Q 1253 4750 1959 4750 
Q 2769 4750 3195 4129 
Q 3622 3509 3622 2328 
Q 3622 1225 3098 567 
Q 2575 -91 1691 -91 
Q 1453 -91 1209 -44 
Q 966 3 703 97 
z
M 1959 2075 
Q 2384 2075 2632 2365 
Q 2881 2656 2881 3163 
Q 2881 3666 2632 3958 
Q 2384 4250 1959 4250 
Q 1534 4250 1286 3958 
Q 1038 3666 1038 3163 
Q 1038 2656 1286 2365 
Q 1534 2075 1959 2075 
z
" transform="scale(0.015625)"/>
       </defs>
       <use xlink:href="#DejaVuSans-30"/>
       <use xlink:href="#DejaVuSans-2e" x="63.623047"/>
       <use xlink:href="#DejaVuSans-35" x="95.410156"/>
       <use xlink:href="#DejaVuSans-39" x="159.033203"/>
      </g>
     </g>
    </g>
    <g id="ytick_8">
     <g id="line2d_30">
      <g>
       <use xlink:href="#mf5286d3dc3" x="62.768" y="204.465779" style="stroke: #000000; stroke-width: 0.8"/>
      </g>
     </g>
     <g id="text_10">
      <!-- 0.60 -->
      <g transform="translate(33.502375 208.264998)scale(0.1 -0.1)">
       <defs>
        <path id="DejaVuSans-36" d="M 2113 2584 
Q 1688 2584 1439 2293 
Q 1191 2003 1191 1497 
Q 1191 994 1439 701 
Q 1688 409 2113 409 
Q 2538 409 2786 701 
Q 3034 994 3034 1497 
Q 3034 2003 2786 2293 
Q 2538 2584 2113 2584 
z
M 3366 4563 
L 3366 3988 
Q 3128 4100 2886 4159 
Q 2644 4219 2406 4219 
Q 1781 4219 1451 3797 
Q 1122 3375 1075 2522 
Q 1259 2794 1537 2939 
Q 1816 3084 2150 3084 
Q 2853 3084 3261 2657 
Q 3669 2231 3669 1497 
Q 3669 778 3244 343 
Q 2819 -91 2113 -91 
Q 1303 -91 875 529 
Q 447 1150 447 2328 
Q 447 3434 972 4092 
Q 1497 4750 2381 4750 
Q 2619 4750 2861 4703 
Q 3103 4656 3366 4563 
z
" transform="scale(0.015625)"/>
       </defs>
       <use xlink:href="#DejaVuSans-30"/>
       <use xlink:href="#DejaVuSans-2e" x="63.623047"/>
       <use xlink:href="#DejaVuSans-36" x="95.410156"/>
       <use xlink:href="#DejaVuSans-30" x="159.033203"/>
      </g>
     </g>
    </g>
    <g id="ytick_9">
     <g id="line2d_31">
      <g>
       <use xlink:href="#mf5286d3dc3" x="62.768" y="176.906852" style="stroke: #000000; stroke-width: 0.8"/>
      </g>
     </g>
     <g id="text_11">
      <!-- 0.61 -->
      <g transform="translate(33.502375 180.706071)scale(0.1 -0.1)">
       <use xlink:href="#DejaVuSans-30"/>
       <use xlink:href="#DejaVuSans-2e" x="63.623047"/>
       <use xlink:href="#DejaVuSans-36" x="95.410156"/>
       <use xlink:href="#DejaVuSans-31" x="159.033203"/>
      </g>
     </g>
    </g>
    <g id="text_12">
     <!-- $f_D$ -->
     <g transform="translate(27.422688 241.02)rotate(-90)scale(0.1 -0.1)">
      <defs>
       <path id="DejaVuSans-Oblique-44" d="M 1081 4666 
L 2438 4666 
Q 3519 4666 4070 4208 
Q 4622 3750 4622 2847 
Q 4622 2250 4412 1698 
Q 4203 1147 3834 769 
Q 3463 381 2891 190 
Q 2319 0 1538 0 
L 172 0 
L 1081 4666 
z
M 1613 4147 
L 909 519 
L 1734 519 
Q 2794 519 3375 1128 
Q 3956 1738 3956 2847 
Q 3956 3519 3581 3833 
Q 3206 4147 2406 4147 
L 1613 4147 
z
" transform="scale(0.015625)"/>
      </defs>
      <use xlink:href="#DejaVuSans-Oblique-66" transform="translate(0 0.015625)"/>
      <use xlink:href="#DejaVuSans-Oblique-44" transform="translate(35.205078 -16.390625)scale(0.7)"/>
     </g>
    </g>
   </g>
   <g id="line2d_32">
    <path d="M 85.605818 209.852555 
L 97.024727 214.779068 
L 108.443636 218.000906 
L 119.862545 218.074775 
L 131.281455 224.779834 
L 142.700364 227.757334 
L 154.119273 229.075617 
L 165.538182 228.058494 
L 176.957091 226.649295 
L 188.376 219.921507 
L 199.794909 205.516996 
L 211.213818 194.351369 
L 222.632727 189.095285 
L 234.051636 208.341076 
L 245.470545 222.467157 
L 256.889455 231.462163 
L 268.308364 243.514222 
L 279.727273 261.186029 
L 291.146182 275.613269 
L 302.565091 289.665481 
L 313.984 221.540949 
L 325.402909 210.858314 
L 336.821818 208.267206 
L 348.240727 202.386074 
L 359.659636 190.606764 
L 371.078545 184.276734 
L 382.497455 192.453496 
L 393.916364 205.681781 
L 405.335273 217.000829 
L 416.754182 220.393134 
L 428.173091 227.11524 
L 439.592 229.268814 
L 451.010909 228.461934 
L 462.429818 222.938784 
L 473.848727 218.285018 
L 485.267636 215.568901 
L 496.686545 214.983629 
L 508.105455 212.48912 
L 519.524364 210.87536 
L 530.943273 215.495032 
L 542.362182 217.489503 
" clip-path="url(#p8bc80413ca)" style="fill: none; stroke: #d62728; stroke-width: 2; stroke-linecap: square"/>
   </g>
   <g id="line2d_33">
    <path d="M 313.984 306.86 
L 313.984 165.98 
" clip-path="url(#p8bc80413ca)" style="fill: none; stroke-dasharray: 3.7,1.6; stroke-dashoffset: 0; stroke: #1f77b4"/>
   </g>
   <g id="line2d_34">
    <path d="M 62.768 219.624367 
L 565.2 219.624367 
" clip-path="url(#p8bc80413ca)" style="fill: none; stroke-dasharray: 1,1.65; stroke-dashoffset: 0; stroke: #d62728; stroke-opacity: 0.55"/>
   </g>
   <g id="patch_9">
    <path d="M 62.768 306.86 
L 62.768 165.98 
" style="fill: none; stroke: #000000; stroke-width: 0.8; stroke-linejoin: miter; stroke-linecap: square"/>
   </g>
   <g id="patch_10">
    <path d="M 565.2 306.86 
L 565.2 165.98 
" style="fill: none; stroke: #000000; stroke-width: 0.8; stroke-linejoin: miter; stroke-linecap: square"/>
   </g>
   <g id="patch_11">
    <path d="M 62.768 306.86 
L 565.2 306.86 
" style="fill: none; stroke: #000000; stroke-width: 0.8; stroke-linejoin: miter; stroke-linecap: square"/>
   </g>
   <g id="patch_12">
    <path d="M 62.768 165.98 
L 565.2 165.98 
" style="fill: none; stroke: #000000; stroke-width: 0.8; stroke-linejoin: miter; stroke-linecap: square"/>
   </g>
   <g id="legend_2">
    <g id="patch_13">
     <path d="M 458.1875 188.658125 
L 558.2 188.658125 
Q 560.2 188.658125 560.2 186.658125 
L 560.2 172.98 
Q 560.2 170.98 558.2 170.98 
L 458.1875 170.98 
Q 456.1875 170.98 456.1875 172.98 
L 456.1875 186.658125 
Q 456.1875 188.658125 458.1875 188.658125 
z
" style="fill: #ffffff; opacity: 0.8; stroke: #cccccc; stroke-linejoin: miter"/>
    </g>
    <g id="line2d_35">
     <path d="M 460.1875 179.078438 
L 470.1875 179.078438 
L 480.1875 179.078438 
" style="fill: none; stroke: #d62728; stroke-width: 2; stroke-linecap: square"/>
    </g>
    <g id="text_13">
     <!-- D(with Loner) -->
     <g transform="translate(488.1875 182.578438)scale(0.1 -0.1)">
      <defs>
       <path id="DejaVuSans-44" d="M 1259 4147 
L 1259 519 
L 2022 519 
Q 2988 519 3436 956 
Q 3884 1394 3884 2338 
Q 3884 3275 3436 3711 
Q 2988 4147 2022 4147 
L 1259 4147 
z
M 628 4666 
L 1925 4666 
Q 3281 4666 3915 4102 
Q 4550 3538 4550 2338 
Q 4550 1131 3912 565 
Q 3275 0 1925 0 
L 628 0 
L 628 4666 
z
" transform="scale(0.015625)"/>
      </defs>
      <use xlink:href="#DejaVuSans-44"/>
      <use xlink:href="#DejaVuSans-28" x="77.001953"/>
      <use xlink:href="#DejaVuSans-77" x="116.015625"/>
      <use xlink:href="#DejaVuSans-69" x="197.802734"/>
      <use xlink:href="#DejaVuSans-74" x="225.585938"/>
      <use xlink:href="#DejaVuSans-68" x="264.794922"/>
      <use xlink:href="#DejaVuSans-20" x="328.173828"/>
      <use xlink:href="#DejaVuSans-4c" x="359.960938"/>
      <use xlink:href="#DejaVuSans-6f" x="413.923828"/>
      <use xlink:href="#DejaVuSans-6e" x="475.105469"/>
      <use xlink:href="#DejaVuSans-65" x="538.484375"/>
      <use xlink:href="#DejaVuSans-72" x="600.007812"/>
      <use xlink:href="#DejaVuSans-29" x="641.121094"/>
     </g>
    </g>
   </g>
  </g>
  <g id="axes_3">
   <g id="patch_14">
    <path d="M 62.768 462.04 
L 565.2 462.04 
L 565.2 321.16 
L 62.768 321.16 
z
" style="fill: #ffffff"/>
   </g>
   <g id="PolyCollection_3">
    <defs>
     <path id="m37a36e6ebc" d="M 85.605818 -78.673233 
L 85.605818 -78.673233 
L 97.024727 -80.540096 
L 108.443636 -89.97427 
L 119.862545 -94.565598 
L 131.281455 -89.282783 
L 142.700364 -87.786627 
L 154.119273 -93.68078 
L 165.538182 -92.563966 
L 176.957091 -76.630119 
L 188.376 -69.739279 
L 199.794909 -60.563568 
L 211.213818 -57.498241 
L 222.632727 -60.106707 
L 234.051636 -79.589396 
L 245.470545 -93.108295 
L 256.889455 -109.786935 
L 268.308364 -126.034429 
L 279.727273 -139.974902 
L 291.146182 -143.956018 
L 302.565091 -124.164562 
L 313.984 -81.702709 
L 325.402909 -66.007805 
L 336.821818 -61.997784 
L 348.240727 -51.590198 
L 359.659636 -48.363636 
L 371.078545 -55.050634 
L 382.497455 -64.707044 
L 393.916364 -75.390924 
L 405.335273 -78.906168 
L 416.754182 -80.115144 
L 428.173091 -82.722483 
L 439.592 -84.214322 
L 451.010909 -84.129482 
L 462.429818 -81.426791 
L 473.848727 -81.875769 
L 485.267636 -80.7079 
L 496.686545 -76.885579 
L 508.105455 -78.523636 
L 519.524364 -82.405083 
L 530.943273 -86.478922 
L 542.362182 -84.573768 
L 542.362182 -84.573768 
L 542.362182 -119.799413 
L 530.943273 -119.173621 
L 519.524364 -114.127872 
L 508.105455 -111.343906 
L 496.686545 -110.585223 
L 485.267636 -113.597432 
L 473.848727 -112.948553 
L 462.429818 -114.504022 
L 451.010909 -118.144838 
L 439.592 -119.091784 
L 428.173091 -115.133943 
L 416.754182 -111.417672 
L 405.335273 -108.917134 
L 393.916364 -108.235032 
L 382.497455 -97.437594 
L 371.078545 -85.942475 
L 359.659636 -78.570936 
L 348.240727 -82.279699 
L 336.821818 -92.467113 
L 325.402909 -95.734405 
L 313.984 -110.449329 
L 302.565091 -156.50601 
L 291.146182 -176.436364 
L 279.727273 -170.031667 
L 268.308364 -155.864639 
L 256.889455 -140.054112 
L 245.470545 -125.150738 
L 234.051636 -110.787751 
L 222.632727 -89.65274 
L 211.213818 -87.546184 
L 199.794909 -90.207581 
L 188.376 -101.153302 
L 176.957091 -109.243169 
L 165.538182 -123.335304 
L 154.119273 -126.184964 
L 142.700364 -120.508918 
L 131.281455 -121.953457 
L 119.862545 -129.558119 
L 108.443636 -124.337997 
L 97.024727 -113.94768 
L 85.605818 -110.090822 
z
"/>
    </defs>
    <g clip-path="url(#pb4b79b5523)">
     <use xlink:href="#m37a36e6ebc" x="0" y="504" style="fill: #dbb428; fill-opacity: 0.18"/>
    </g>
   </g>
   <g id="matplotlib.axis_5">
    <g id="xtick_19">
     <g id="line2d_36">
      <g>
       <use xlink:href="#mf9370d385b" x="85.605818" y="462.04" style="stroke: #000000; stroke-width: 0.8"/>
      </g>
     </g>
     <g id="text_14">
      <!-- −20 -->
      <g transform="translate(75.053474 476.638438)scale(0.1 -0.1)">
       <defs>
        <path id="DejaVuSans-2212" d="M 678 2272 
L 4684 2272 
L 4684 1741 
L 678 1741 
L 678 2272 
z
" transform="scale(0.015625)"/>
       </defs>
       <use xlink:href="#DejaVuSans-2212"/>
       <use xlink:href="#DejaVuSans-32" x="83.789062"/>
       <use xlink:href="#DejaVuSans-30" x="147.412109"/>
      </g>
     </g>
    </g>
    <g id="xtick_20">
     <g id="line2d_37">
      <g>
       <use xlink:href="#mf9370d385b" x="142.700364" y="462.04" style="stroke: #000000; stroke-width: 0.8"/>
      </g>
     </g>
     <g id="text_15">
      <!-- −15 -->
      <g transform="translate(132.14802 476.638438)scale(0.1 -0.1)">
       <use xlink:href="#DejaVuSans-2212"/>
       <use xlink:href="#DejaVuSans-31" x="83.789062"/>
       <use xlink:href="#DejaVuSans-35" x="147.412109"/>
      </g>
     </g>
    </g>
    <g id="xtick_21">
     <g id="line2d_38">
      <g>
       <use xlink:href="#mf9370d385b" x="199.794909" y="462.04" style="stroke: #000000; stroke-width: 0.8"/>
      </g>
     </g>
     <g id="text_16">
      <!-- −10 -->
      <g transform="translate(189.242565 476.638438)scale(0.1 -0.1)">
       <use xlink:href="#DejaVuSans-2212"/>
       <use xlink:href="#DejaVuSans-31" x="83.789062"/>
       <use xlink:href="#DejaVuSans-30" x="147.412109"/>
      </g>
     </g>
    </g>
    <g id="xtick_22">
     <g id="line2d_39">
      <g>
       <use xlink:href="#mf9370d385b" x="256.889455" y="462.04" style="stroke: #000000; stroke-width: 0.8"/>
      </g>
     </g>
     <g id="text_17">
      <!-- −5 -->
      <g transform="translate(249.518361 476.638438)scale(0.1 -0.1)">
       <use xlink:href="#DejaVuSans-2212"/>
       <use xlink:href="#DejaVuSans-35" x="83.789062"/>
      </g>
     </g>
    </g>
    <g id="xtick_23">
     <g id="line2d_40">
      <g>
       <use xlink:href="#mf9370d385b" x="313.984" y="462.04" style="stroke: #000000; stroke-width: 0.8"/>
      </g>
     </g>
     <g id="text_18">
      <!-- 0 -->
      <g transform="translate(310.80275 476.638438)scale(0.1 -0.1)">
       <use xlink:href="#DejaVuSans-30"/>
      </g>
     </g>
    </g>
    <g id="xtick_24">
     <g id="line2d_41">
      <g>
       <use xlink:href="#mf9370d385b" x="371.078545" y="462.04" style="stroke: #000000; stroke-width: 0.8"/>
      </g>
     </g>
     <g id="text_19">
      <!-- 5 -->
      <g transform="translate(367.897295 476.638438)scale(0.1 -0.1)">
       <use xlink:href="#DejaVuSans-35"/>
      </g>
     </g>
    </g>
    <g id="xtick_25">
     <g id="line2d_42">
      <g>
       <use xlink:href="#mf9370d385b" x="428.173091" y="462.04" style="stroke: #000000; stroke-width: 0.8"/>
      </g>
     </g>
     <g id="text_20">
      <!-- 10 -->
      <g transform="translate(421.810591 476.638438)scale(0.1 -0.1)">
       <use xlink:href="#DejaVuSans-31"/>
       <use xlink:href="#DejaVuSans-30" x="63.623047"/>
      </g>
     </g>
    </g>
    <g id="xtick_26">
     <g id="line2d_43">
      <g>
       <use xlink:href="#mf9370d385b" x="485.267636" y="462.04" style="stroke: #000000; stroke-width: 0.8"/>
      </g>
     </g>
     <g id="text_21">
      <!-- 15 -->
      <g transform="translate(478.905136 476.638438)scale(0.1 -0.1)">
       <use xlink:href="#DejaVuSans-31"/>
       <use xlink:href="#DejaVuSans-35" x="63.623047"/>
      </g>
     </g>
    </g>
    <g id="xtick_27">
     <g id="line2d_44">
      <g>
       <use xlink:href="#mf9370d385b" x="542.362182" y="462.04" style="stroke: #000000; stroke-width: 0.8"/>
      </g>
     </g>
     <g id="text_22">
      <!-- 20 -->
      <g transform="translate(535.999682 476.638438)scale(0.1 -0.1)">
       <use xlink:href="#DejaVuSans-32"/>
       <use xlink:href="#DejaVuSans-30" x="63.623047"/>
      </g>
     </g>
    </g>
    <g id="text_23">
     <!-- Time steps -->
     <g transform="translate(286.741031 490.316563)scale(0.1 -0.1)">
      <defs>
       <path id="DejaVuSans-54" d="M -19 4666 
L 3928 4666 
L 3928 4134 
L 2272 4134 
L 2272 0 
L 1638 0 
L 1638 4134 
L -19 4134 
L -19 4666 
z
" transform="scale(0.015625)"/>
       <path id="DejaVuSans-6d" d="M 3328 2828 
Q 3544 3216 3844 3400 
Q 4144 3584 4550 3584 
Q 5097 3584 5394 3201 
Q 5691 2819 5691 2113 
L 5691 0 
L 5113 0 
L 5113 2094 
Q 5113 2597 4934 2840 
Q 4756 3084 4391 3084 
Q 3944 3084 3684 2787 
Q 3425 2491 3425 1978 
L 3425 0 
L 2847 0 
L 2847 2094 
Q 2847 2600 2669 2842 
Q 2491 3084 2119 3084 
Q 1678 3084 1418 2786 
Q 1159 2488 1159 1978 
L 1159 0 
L 581 0 
L 581 3500 
L 1159 3500 
L 1159 2956 
Q 1356 3278 1631 3431 
Q 1906 3584 2284 3584 
Q 2666 3584 2933 3390 
Q 3200 3197 3328 2828 
z
" transform="scale(0.015625)"/>
       <path id="DejaVuSans-73" d="M 2834 3397 
L 2834 2853 
Q 2591 2978 2328 3040 
Q 2066 3103 1784 3103 
Q 1356 3103 1142 2972 
Q 928 2841 928 2578 
Q 928 2378 1081 2264 
Q 1234 2150 1697 2047 
L 1894 2003 
Q 2506 1872 2764 1633 
Q 3022 1394 3022 966 
Q 3022 478 2636 193 
Q 2250 -91 1575 -91 
Q 1294 -91 989 -36 
Q 684 19 347 128 
L 347 722 
Q 666 556 975 473 
Q 1284 391 1588 391 
Q 1994 391 2212 530 
Q 2431 669 2431 922 
Q 2431 1156 2273 1281 
Q 2116 1406 1581 1522 
L 1381 1569 
Q 847 1681 609 1914 
Q 372 2147 372 2553 
Q 372 3047 722 3315 
Q 1072 3584 1716 3584 
Q 2034 3584 2315 3537 
Q 2597 3491 2834 3397 
z
" transform="scale(0.015625)"/>
       <path id="DejaVuSans-70" d="M 1159 525 
L 1159 -1331 
L 581 -1331 
L 581 3500 
L 1159 3500 
L 1159 2969 
Q 1341 3281 1617 3432 
Q 1894 3584 2278 3584 
Q 2916 3584 3314 3078 
Q 3713 2572 3713 1747 
Q 3713 922 3314 415 
Q 2916 -91 2278 -91 
Q 1894 -91 1617 61 
Q 1341 213 1159 525 
z
M 3116 1747 
Q 3116 2381 2855 2742 
Q 2594 3103 2138 3103 
Q 1681 3103 1420 2742 
Q 1159 2381 1159 1747 
Q 1159 1113 1420 752 
Q 1681 391 2138 391 
Q 2594 391 2855 752 
Q 3116 1113 3116 1747 
z
" transform="scale(0.015625)"/>
      </defs>
      <use xlink:href="#DejaVuSans-54"/>
      <use xlink:href="#DejaVuSans-69" x="57.958984"/>
      <use xlink:href="#DejaVuSans-6d" x="85.742188"/>
      <use xlink:href="#DejaVuSans-65" x="183.154297"/>
      <use xlink:href="#DejaVuSans-20" x="244.677734"/>
      <use xlink:href="#DejaVuSans-73" x="276.464844"/>
      <use xlink:href="#DejaVuSans-74" x="328.564453"/>
      <use xlink:href="#DejaVuSans-65" x="367.773438"/>
      <use xlink:href="#DejaVuSans-70" x="429.296875"/>
      <use xlink:href="#DejaVuSans-73" x="492.773438"/>
     </g>
    </g>
   </g>
   <g id="matplotlib.axis_6">
    <g id="ytick_10">
     <g id="line2d_45">
      <g>
       <use xlink:href="#mf5286d3dc3" x="62.768" y="450.064679" style="stroke: #000000; stroke-width: 0.8"/>
      </g>
     </g>
     <g id="text_24">
      <!-- 0.07 -->
      <g transform="translate(33.502375 453.863898)scale(0.1 -0.1)">
       <use xlink:href="#DejaVuSans-30"/>
       <use xlink:href="#DejaVuSans-2e" x="63.623047"/>
       <use xlink:href="#DejaVuSans-30" x="95.410156"/>
       <use xlink:href="#DejaVuSans-37" x="159.033203"/>
      </g>
     </g>
    </g>
    <g id="ytick_11">
     <g id="line2d_46">
      <g>
       <use xlink:href="#mf5286d3dc3" x="62.768" y="413.650893" style="stroke: #000000; stroke-width: 0.8"/>
      </g>
     </g>
     <g id="text_25">
      <!-- 0.08 -->
      <g transform="translate(33.502375 417.450112)scale(0.1 -0.1)">
       <use xlink:href="#DejaVuSans-30"/>
       <use xlink:href="#DejaVuSans-2e" x="63.623047"/>
       <use xlink:href="#DejaVuSans-30" x="95.410156"/>
       <use xlink:href="#DejaVuSans-38" x="159.033203"/>
      </g>
     </g>
    </g>
    <g id="ytick_12">
     <g id="line2d_47">
      <g>
       <use xlink:href="#mf5286d3dc3" x="62.768" y="377.237108" style="stroke: #000000; stroke-width: 0.8"/>
      </g>
     </g>
     <g id="text_26">
      <!-- 0.09 -->
      <g transform="translate(33.502375 381.036327)scale(0.1 -0.1)">
       <use xlink:href="#DejaVuSans-30"/>
       <use xlink:href="#DejaVuSans-2e" x="63.623047"/>
       <use xlink:href="#DejaVuSans-30" x="95.410156"/>
       <use xlink:href="#DejaVuSans-39" x="159.033203"/>
      </g>
     </g>
    </g>
    <g id="ytick_13">
     <g id="line2d_48">
      <g>
       <use xlink:href="#mf5286d3dc3" x="62.768" y="340.823322" style="stroke: #000000; stroke-width: 0.8"/>
      </g>
     </g>
     <g id="text_27">
      <!-- 0.10 -->
      <g transform="translate(33.502375 344.622541)scale(0.1 -0.1)">
       <use xlink:href="#DejaVuSans-30"/>
       <use xlink:href="#DejaVuSans-2e" x="63.623047"/>
       <use xlink:href="#DejaVuSans-31" x="95.410156"/>
       <use xlink:href="#DejaVuSans-30" x="159.033203"/>
      </g>
     </g>
    </g>
    <g id="text_28">
     <!-- $f_L$ -->
     <g transform="translate(27.422688 395.45)rotate(-90)scale(0.1 -0.1)">
      <defs>
       <path id="DejaVuSans-Oblique-4c" d="M 1075 4666 
L 1709 4666 
L 909 525 
L 3181 525 
L 3078 0 
L 172 0 
L 1075 4666 
z
" transform="scale(0.015625)"/>
      </defs>
      <use xlink:href="#DejaVuSans-Oblique-66" transform="translate(0 0.015625)"/>
      <use xlink:href="#DejaVuSans-Oblique-4c" transform="translate(35.205078 -16.390625)scale(0.7)"/>
     </g>
    </g>
   </g>
   <g id="line2d_49">
    <path d="M 85.605818 409.408875 
L 97.024727 406.285548 
L 108.443636 396.727868 
L 119.862545 392.200546 
L 131.281455 398.845123 
L 142.700364 399.738575 
L 154.119273 393.649589 
L 165.538182 395.646717 
L 176.957091 410.842903 
L 188.376 418.073104 
L 199.794909 428.298996 
L 211.213818 431.422322 
L 222.632727 428.952191 
L 234.051636 408.41782 
L 245.470545 394.580581 
L 256.889455 378.551007 
L 268.308364 363.137089 
L 279.727273 349.570139 
L 291.146182 343.758949 
L 302.565091 363.722713 
L 313.984 407.952324 
L 325.402909 422.615442 
L 336.821818 426.542124 
L 348.240727 436.970732 
L 359.659636 440.454443 
L 371.078545 433.712262 
L 382.497455 423.058414 
L 393.916364 412.674854 
L 405.335273 410.189707 
L 416.754182 408.740663 
L 428.173091 405.677401 
L 439.592 402.779314 
L 451.010909 402.854394 
L 462.429818 406.060308 
L 473.848727 406.886188 
L 485.267636 406.50328 
L 496.686545 410.017023 
L 508.105455 409.123571 
L 519.524364 405.895132 
L 530.943273 401.810782 
L 542.362182 401.983466 
" clip-path="url(#pb4b79b5523)" style="fill: none; stroke: #dbb428; stroke-width: 2; stroke-linecap: square"/>
   </g>
   <g id="line2d_50">
    <path d="M 313.984 462.04 
L 313.984 321.16 
" clip-path="url(#pb4b79b5523)" style="fill: none; stroke-dasharray: 3.7,1.6; stroke-dashoffset: 0; stroke: #1f77b4"/>
   </g>
   <g id="line2d_51">
    <path d="M 62.768 404.739817 
L 565.2 404.739817 
" clip-path="url(#pb4b79b5523)" style="fill: none; stroke-dasharray: 1,1.65; stroke-dashoffset: 0; stroke: #dbb428; stroke-opacity: 0.55"/>
   </g>
   <g id="patch_15">
    <path d="M 62.768 462.04 
L 62.768 321.16 
" style="fill: none; stroke: #000000; stroke-width: 0.8; stroke-linejoin: miter; stroke-linecap: square"/>
   </g>
   <g id="patch_16">
    <path d="M 565.2 462.04 
L 565.2 321.16 
" style="fill: none; stroke: #000000; stroke-width: 0.8; stroke-linejoin: miter; stroke-linecap: square"/>
   </g>
   <g id="patch_17">
    <path d="M 62.768 462.04 
L 565.2 462.04 
" style="fill: none; stroke: #000000; stroke-width: 0.8; stroke-linejoin: miter; stroke-linecap: square"/>
   </g>
   <g id="patch_18">
    <path d="M 62.768 321.16 
L 565.2 321.16 
" style="fill: none; stroke: #000000; stroke-width: 0.8; stroke-linejoin: miter; stroke-linecap: square"/>
   </g>
   <g id="legend_3">
    <g id="patch_19">
     <path d="M 460.315625 343.838125 
L 558.2 343.838125 
Q 560.2 343.838125 560.2 341.838125 
L 560.2 328.16 
Q 560.2 326.16 558.2 326.16 
L 460.315625 326.16 
Q 458.315625 326.16 458.315625 328.16 
L 458.315625 341.838125 
Q 458.315625 343.838125 460.315625 343.838125 
z
" style="fill: #ffffff; opacity: 0.8; stroke: #cccccc; stroke-linejoin: miter"/>
    </g>
    <g id="line2d_52">
     <path d="M 462.315625 334.258438 
L 472.315625 334.258438 
L 482.315625 334.258438 
" style="fill: none; stroke: #dbb428; stroke-width: 2; stroke-linecap: square"/>
    </g>
    <g id="text_29">
     <!-- L(with Loner) -->
     <g transform="translate(490.315625 337.758438)scale(0.1 -0.1)">
      <use xlink:href="#DejaVuSans-4c"/>
      <use xlink:href="#DejaVuSans-28" x="55.712891"/>
      <use xlink:href="#DejaVuSans-77" x="94.726562"/>
      <use xlink:href="#DejaVuSans-69" x="176.513672"/>
      <use xlink:href="#DejaVuSans-74" x="204.296875"/>
      <use xlink:href="#DejaVuSans-68" x="243.505859"/>
      <use xlink:href="#DejaVuSans-20" x="306.884766"/>
      <use xlink:href="#DejaVuSans-4c" x="338.671875"/>
      <use xlink:href="#DejaVuSans-6f" x="392.634766"/>
      <use xlink:href="#DejaVuSans-6e" x="453.816406"/>
      <use xlink:href="#DejaVuSans-65" x="517.195312"/>
      <use xlink:href="#DejaVuSans-72" x="578.71875"/>
      <use xlink:href="#DejaVuSans-29" x="619.832031"/>
     </g>
    </g>
   </g>
  </g>
 </g>
 <defs>
  <clipPath id="p35ebba59ce">
   <rect x="62.768" y="10.8" width="502.432" height="140.88"/>
  </clipPath>
  <clipPath id="p8bc80413ca">
   <rect x="62.768" y="165.98" width="502.432" height="140.88"/>
  </clipPath>
  <clipPath id="pb4b79b5523">
   <rect x="62.768" y="321.16" width="502.432" height="140.88"/>
  </clipPath>
 </defs>
</svg>
